<svg width="87" height="69" viewBox="0 0 87 69" fill="none" xmlns="http://www.w3.org/2000/svg">
<g id="Vector">
<path d="M84.8603 61.2926C84.5098 61.4206 84.1273 61.4612 83.657 61.5335L47.9667 64.7351C45.1687 64.9621 41.8221 63.5522 40.4078 61.5849L2.89678 8.12536C2.8048 8.00973 2.74098 7.83457 2.67696 7.65932C3.02736 7.53099 3.40992 7.49073 3.88026 7.4184L39.6024 4.3045C42.3406 4.04922 45.7155 5.40002 47.1291 7.36709L84.6403 60.8264C84.7046 61.0016 84.7966 61.1172 84.8603 61.2926Z" fill="#263238"/>
<path d="M86.5645 59.9746C86.2864 60.5728 85.7091 61.0321 84.8603 61.2926C84.5098 61.4206 84.1273 61.4612 83.657 61.5335L54.0333 64.2079L47.9667 64.7351C47.2017 64.8159 46.4319 64.749 45.6304 64.595C43.4931 64.1834 41.4223 63.0025 40.4078 61.5849L2.89678 8.12536C2.8048 8.00973 2.74098 7.83457 2.67696 7.65932C2.27309 6.96223 2.22432 6.28449 2.5024 5.68631C2.89181 4.84867 3.87998 4.28889 5.41023 4.12734L41.16 0.953926C42.0729 0.868696 43.0498 0.959012 44.003 1.25664C45.905 1.70441 47.7363 2.77411 48.6589 4.07643L54.9988 13.1361L63.7672 25.5809L68.693 32.6735L86.1701 57.5351C86.7856 58.4034 86.8985 59.2562 86.5645 59.9746Z" fill="#37474F"/>
<path d="M22.2623 17.7587L16.252 9.19644C15.7266 8.44793 16.1534 7.7654 17.2054 7.67226C18.2572 7.57903 19.5361 8.11019 20.0615 8.8589L26.0716 17.421C26.597 18.1695 26.1704 18.8522 25.1184 18.9453C24.0663 19.0386 22.7878 18.5072 22.2623 17.7587Z" fill="white"/>
<path d="M31.773 31.308L25.7629 22.7459C25.2376 21.9972 25.6641 21.3148 26.7161 21.2216C27.7683 21.1283 29.0469 21.6595 29.5722 22.4083L35.5825 30.9705C36.108 31.719 35.6811 32.4015 34.6291 32.4946C33.5776 32.5878 32.2987 32.0566 31.773 31.308Z" fill="white"/>
<path d="M41.2842 44.8575L35.2739 36.2952C34.7485 35.5467 35.1753 34.8642 36.2271 34.771C37.2791 34.6778 38.5578 35.2089 39.0832 35.9576L45.0935 44.5198C45.6188 45.2685 45.1921 45.9509 44.1403 46.0441C43.0883 46.1372 41.8096 45.6062 41.2842 44.8575Z" fill="white"/>
<path d="M50.7952 58.4068L44.7849 49.8445C44.2596 49.0958 44.6863 48.4135 45.7383 48.3204C46.7902 48.2269 48.069 48.7583 48.5944 49.507L54.6045 58.0691C55.1299 58.8176 54.7031 59.5002 53.6513 59.5934C52.5993 59.6865 51.3207 59.1553 50.7952 58.4068Z" fill="white"/>
<path d="M20.7145 26.5459L8.03678 8.48538L11.0056 8.22214L23.6831 26.2825L20.7145 26.5459Z" fill="white"/>
<path d="M30.7843 40.8915L22.836 29.5685L25.8048 29.3053L33.7531 40.6283L30.7843 40.8915Z" fill="white"/>
<path d="M31.2973 17.8893L24.7269 8.52919C24.1709 7.73681 24.6226 7.01436 25.7359 6.91573L29.8604 6.55C30.9739 6.45117 32.3273 7.01331 32.8833 7.80569L39.4537 17.1658C40.0098 17.958 39.5579 18.6803 38.4445 18.7792L34.3202 19.145C33.2069 19.2439 31.8534 18.6815 31.2973 17.8893Z" fill="#FFB300"/>
<path d="M44.4997 10.2043C46.0664 10.0653 46.6038 8.90925 45.7003 7.62186C44.7968 6.33446 42.7941 5.40346 41.2277 5.54259C39.6611 5.68143 39.1236 6.83764 40.0271 8.12503C40.9308 9.41203 42.9332 10.3431 44.4997 10.2043Z" fill="white"/>
<path d="M51.2661 21.2039L45.2175 12.5867L47.0151 12.4275L53.0638 21.0445L51.2661 21.2039Z" fill="white"/>
<path d="M42.9915 56.0361C41.3487 56.1817 39.2486 55.2054 38.3007 53.8551C37.3529 52.5051 37.9166 51.2926 39.5597 51.1469C41.2028 51.0013 43.3027 51.9775 44.2506 53.3278C45.1982 54.6777 44.6345 55.8902 42.9915 56.0361Z" fill="#FFB300"/>
<path d="M45.1333 59.0868C43.4902 59.2326 41.3901 58.2563 40.4424 56.9061C39.4947 55.5559 40.0583 54.3436 41.7014 54.1978C43.3445 54.0523 45.4444 55.0285 46.3921 56.3785C47.3398 57.7287 46.7762 58.9412 45.1333 59.0868Z" fill="#F80202"/>
<path d="M70.833 49.0782L62.0864 36.6177L63.884 36.4583L72.6307 48.9187L70.833 49.0782Z" fill="white"/>
<path d="M76.7749 57.543L72.4016 51.3128L74.1991 51.1536L78.5726 57.3836L76.7749 57.543Z" fill="white"/>
<path d="M86.5645 59.9746L85.0345 63.2657C84.6452 64.1031 83.6575 64.6629 82.1268 64.8244L46.4367 68.0261C43.6388 68.2532 40.2922 66.8431 38.8779 64.8759L1.36681 11.4164C0.751614 10.548 0.638731 9.69518 0.972524 8.97717L2.5024 5.68631C2.22432 6.28449 2.27309 6.96223 2.67696 7.65932C2.74098 7.83457 2.8048 8.00973 2.89678 8.12536L40.4078 61.5849C41.8221 63.5522 45.1687 64.9621 47.9667 64.7351L83.657 61.5335C84.1273 61.4612 84.5098 61.4206 84.8603 61.2926C85.7091 61.0321 86.2864 60.5728 86.5645 59.9746Z" fill="#263238"/>
</g>
</svg>
