
<svg width="96" height="72" viewBox="0 0 96 72" fill="none" xmlns="http://www.w3.org/2000/svg">
<g id="Vector">
<path d="M91.4005 4.34201C91.595 5.45664 91.5134 6.78594 91.1142 8.26883L83.0665 38.3023C81.6552 43.5584 76.8184 48.8042 72.2678 50.0212L7.03648 67.4973C6.16724 67.7325 5.35961 67.8039 4.65381 67.7121C4.45933 66.5975 4.54129 65.2682 4.9401 63.7853L12.988 33.7517C14.3993 28.4955 19.2363 23.2496 23.7868 22.0328L89.018 4.55669C89.8973 4.31147 90.6951 4.24986 91.4005 4.34201Z" fill="#0E6876"/>
<path d="M90.1939 1.8263C90.8076 2.43995 91.2268 3.30918 91.4005 4.34201C91.595 5.45664 91.5134 6.78594 91.1142 8.26883L83.0665 38.3023C81.6552 43.5584 76.8184 48.8042 72.2678 50.0212L7.03648 67.4973C6.16724 67.7325 5.35961 67.8039 4.65381 67.7121C3.68224 67.6203 2.86426 67.2317 2.26096 66.6284C0.982565 65.35 0.583926 63.0697 1.35082 60.1964L9.3986 30.1626C10.7997 24.8962 15.6365 19.6501 20.187 18.4333L85.4182 0.957235C87.4839 0.405013 89.1407 0.773102 90.1939 1.8263Z" fill="#148FA2"/>
<path d="M36.7636 23.9893L16.5062 29.4172C15.6711 29.641 15.2036 29.0408 15.462 28.0764C15.7203 27.1121 16.6069 26.1488 17.4421 25.9252L37.6994 20.4971C38.5343 20.2735 39.0021 20.8739 38.7436 21.838C38.4855 22.8024 37.5988 23.7655 36.7636 23.9893Z" fill="#B5F0F6"/>
<path d="M59.7362 17.834L46.6583 21.338C45.8234 21.5617 45.3558 20.9615 45.6141 19.9972C45.8724 19.0329 46.759 18.0697 47.5941 17.8458L60.6719 14.3418C61.5071 14.1179 61.9748 14.7183 61.7161 15.6826C61.4578 16.6472 60.5713 17.6101 59.7362 17.834Z" fill="#B5F0F6"/>
<path d="M21.49 52.2034L9.61889 55.3842C8.74202 55.6192 8.25106 54.9888 8.52225 53.9763C8.79361 52.9637 9.72444 51.9524 10.6013 51.7174L22.4726 48.5364C23.3494 48.3014 23.8404 48.9318 23.569 49.9445C23.2977 50.9571 22.367 51.9685 21.49 52.2034Z" fill="#F4F9FB"/>
<path d="M39.9597 47.2545L28.0885 50.4354C27.2116 50.6705 26.7206 50.04 26.9918 49.0275C27.2632 48.0149 28.194 47.0036 29.0709 46.7686L40.9421 43.5876C41.819 43.3526 42.31 43.983 42.0388 44.9955C41.7674 46.0081 40.8367 47.0196 39.9597 47.2545Z" fill="#F4F9FB"/>
<path d="M58.4295 42.3055L46.5582 45.4865C45.6813 45.7215 45.1904 45.091 45.4616 44.0786C45.7329 43.066 46.6636 42.0548 47.5405 41.8198L59.4117 38.6388C60.2886 38.4038 60.7795 39.0343 60.5082 40.0469C60.237 41.0593 59.3065 42.0706 58.4295 42.3055Z" fill="#F4F9FB"/>
<path d="M76.8992 37.3565L65.0279 40.5375C64.1511 40.7726 63.6601 40.1421 63.9315 39.1295C64.2028 38.1168 65.1335 37.1057 66.0104 36.8707L77.8816 33.6897C78.7585 33.4547 79.2494 34.0851 78.9781 35.0978C78.7067 36.1104 77.7761 37.1215 76.8992 37.3565Z" fill="#F4F9FB"/>
<path d="M29.025 54.9653L7.55809 60.7175C7.05695 60.8517 6.77643 60.4914 6.93137 59.9129C7.08631 59.3344 7.61834 58.7565 8.11931 58.6221L29.5864 52.8701C30.0875 52.7359 30.3679 53.096 30.2129 53.6749C30.0582 54.2532 29.5261 54.8311 29.025 54.9653Z" fill="#B5F0F6"/>
<path d="M46.6268 50.2491L36.2628 53.0261C35.7617 53.1604 35.4812 52.8001 35.6363 52.2214C35.7912 51.6429 36.3233 51.065 36.8242 50.9306L47.1881 48.1536C47.6893 48.0193 47.9698 48.3796 47.8147 48.958C47.6596 49.537 47.1279 50.1148 46.6268 50.2491Z" fill="#B5F0F6"/>
<path d="M25.6973 41.5947L13.2998 44.9167C11.9014 45.2914 11.1187 44.2861 11.5515 42.6715L12.3708 39.6138C12.8032 37.9992 14.2876 36.3865 15.686 36.0118L28.0835 32.6898C29.4819 32.3151 30.2645 33.3204 29.8318 34.935L29.0125 37.9927C28.5799 39.6075 27.0956 41.2204 25.6973 41.5947Z" fill="#FFC532"/>
<path d="M76.2991 27.1264C75.686 29.4145 73.3337 31.7668 71.0452 32.3799C68.7569 32.9932 67.3987 31.6351 68.012 29.3468C68.6252 27.0583 70.9773 24.7062 73.2658 24.093C75.5543 23.4799 76.9123 24.8379 76.2991 27.1264Z" fill="#FFC532"/>
<path d="M81.4864 25.7362C80.8733 28.0244 78.521 30.3766 76.2327 30.99C73.9442 31.6031 72.5862 30.2451 73.1992 27.9568C73.8125 25.6685 76.1646 23.3164 78.4529 22.7031C80.7416 22.0898 82.0996 23.4477 81.4864 25.7362Z" fill="#FF6852"/>
<path d="M90.1939 1.8263L93.7936 5.42593C95.0616 6.69396 95.4706 8.98465 94.7035 11.8581L86.6557 41.8916C85.2445 47.1477 80.418 52.4038 75.8674 53.6208L10.6361 71.0969C8.57027 71.6493 6.91361 71.281 5.86041 70.2278L2.26096 66.6284C2.86426 67.2317 3.68224 67.6203 4.65381 67.7121C5.35961 67.8039 6.16724 67.7325 7.03648 67.4973L72.2678 50.0212C76.8184 48.8042 81.6552 43.5584 83.0665 38.3023L91.1142 8.26883C91.5134 6.78594 91.595 5.45664 91.4005 4.34201C91.2268 3.30918 90.8076 2.43995 90.1939 1.8263Z" fill="#0E6876"/>
</g>
</svg>
