<svg width="851" height="547" viewBox="0 0 851 547" fill="none" xmlns="http://www.w3.org/2000/svg">
<path d="M397.25 335.357L401.815 342C402.27 342.662 402.373 343.587 402.044 344.673L397.48 338.03C397.809 336.943 397.705 336.019 397.25 335.357Z" fill="#2C353B"/>
<path d="M377.36 371.71L381.925 378.353L361.082 380.009L356.517 373.366L377.36 371.71Z" fill="#3B4951"/>
<path d="M364.846 384.315L360.281 377.672C360.095 377.401 360.085 377.009 360.295 376.559C360.718 375.655 361.866 374.87 362.851 374.792L367.416 381.435C366.431 381.513 365.283 382.298 364.86 383.202C364.649 383.652 364.66 384.045 364.846 384.315Z" fill="#AEB2F4"/>
<path d="M359.404 386.124L354.84 379.481C355.245 380.07 356.014 380.392 357.063 380.308L361.628 386.952C360.578 387.035 359.809 386.714 359.404 386.124Z" fill="#AEB2F4"/>
<path d="M371.933 374.07L376.498 380.714L367.416 381.435L362.851 374.792L371.933 374.07Z" fill="#AEB2F4"/>
<path d="M372.999 374.453L377.564 381.096C377.376 380.822 377.004 380.673 376.498 380.714L371.933 374.07C372.439 374.03 372.811 374.179 372.999 374.453Z" fill="#AEB2F4"/>
<path d="M378.981 372.294L383.546 378.938C383.259 378.52 382.698 378.292 381.925 378.353L377.36 371.71C378.133 371.649 378.694 371.877 378.981 372.294Z" fill="#3B4951"/>
<path d="M378.981 372.294L383.546 378.938C383.835 379.358 383.846 379.97 383.518 380.673L378.953 374.029C379.282 373.327 379.27 372.715 378.981 372.294Z" fill="#AEB2F4"/>
<path d="M397.48 338.03L402.044 344.673L392.504 376.34L387.939 369.696L397.48 338.03Z" fill="#2C353B"/>
<path d="M387.939 369.696L392.504 376.34C392.463 376.545 392.38 376.753 392.282 376.963L387.717 370.319C387.815 370.11 387.899 369.901 387.939 369.696Z" fill="#2C353B"/>
<path d="M378.953 374.029L383.518 380.673L381.312 385.388L376.748 378.745L378.953 374.029Z" fill="#AEB2F4"/>
<path d="M376.748 378.745L381.312 385.388L361.628 386.952L357.063 380.308L376.748 378.745Z" fill="#AEB2F4"/>
<path d="M377.36 371.71C378.91 371.587 379.608 372.628 378.953 374.029L376.748 378.745L357.063 380.308C354.89 380.481 353.92 378.919 354.894 376.836L356.517 373.366L377.36 371.71ZM370.407 377.332C371.407 377.252 372.561 376.454 372.984 375.551C373.406 374.647 372.932 373.991 371.933 374.07L362.851 374.792C361.866 374.87 360.718 375.655 360.295 376.559C359.873 377.462 360.341 378.131 361.326 378.053L370.407 377.332Z" fill="#D7DAFF"/>
<path d="M387.717 370.319L392.282 376.963L390.383 381.023L385.818 374.379L387.717 370.319Z" fill="#2C353B"/>
<path d="M380.093 378.479L384.658 385.122L381.312 385.388L376.748 378.745L380.093 378.479Z" fill="#3B4951"/>
<path d="M385.818 374.379L390.383 381.023C389.409 383.105 386.831 384.949 384.658 385.122L380.093 378.479C382.266 378.306 384.844 376.462 385.818 374.379Z" fill="#2C353B"/>
<path d="M387.939 369.696C387.899 369.901 387.815 370.11 387.717 370.319L385.818 374.379C384.844 376.462 382.266 378.306 380.093 378.479L376.748 378.745L378.953 374.029C379.608 372.628 378.91 371.587 377.36 371.71L356.517 373.366L356.793 372.776C356.891 372.567 357.003 372.356 357.145 372.143L377.636 339.607C379.163 337.177 382.163 335.237 384.712 335.034L394.315 334.271C396.864 334.069 398.196 335.665 397.48 338.03L387.939 369.696Z" fill="#5D7280"/>
<path d="M390.19 339.851L391.22 341.351C391.526 341.796 391.544 342.439 391.2 343.174L390.169 341.673C390.513 340.939 390.495 340.296 390.19 339.851Z" fill="#888ABF"/>
<path d="M368.887 367.981L367.856 366.481C368.166 366.931 368.771 367.179 369.594 367.113L370.624 368.614C369.802 368.679 369.197 368.431 368.887 367.981Z" fill="#AEB2F4"/>
<path d="M390.169 341.673L391.2 343.174L380.894 365.206L379.863 363.706L390.169 341.673Z" fill="#888ABF"/>
<path d="M375.628 366.634L376.659 368.134L370.624 368.614L369.594 367.113L375.628 366.634Z" fill="#AEB2F4"/>
<path d="M388.452 339.219C390.088 339.089 390.861 340.194 390.169 341.673L379.863 363.706C379.171 365.185 377.264 366.504 375.628 366.634L369.594 367.113C367.959 367.243 367.185 366.138 367.876 364.659L378.183 342.626C378.874 341.147 380.783 339.828 382.418 339.698L388.452 339.219Z" fill="#D7DAFF"/>
<path d="M379.863 363.706L380.894 365.206C380.202 366.685 378.295 368.004 376.659 368.134L375.628 366.634C377.264 366.504 379.171 365.185 379.863 363.706Z" fill="#888ABF"/>
<path d="M386.938 348.487L375.075 349.43L375.538 348.446L387.402 347.504L386.938 348.487Z" fill="#AEB2F4"/>
<path d="M382.844 357.174L370.981 358.117L371.444 357.134L383.308 356.191L382.844 357.174Z" fill="#AEB2F4"/>
<path d="M383.183 345.76L381.793 345.87C381.146 345.921 380.881 345.413 381.2 344.736L381.639 343.804C381.959 343.126 382.742 342.535 383.389 342.484L384.778 342.373C385.425 342.322 385.691 342.83 385.371 343.508L384.932 344.439C384.613 345.117 383.829 345.708 383.183 345.76Z" fill="#5D7280"/>
<path d="M384.593 341.329C383.945 341.381 383.107 342.056 382.74 342.836L383.244 342.796C383.452 342.353 383.927 341.97 384.305 341.94C384.701 341.909 384.838 342.243 384.629 342.686L385.133 342.646C385.501 341.866 385.259 341.277 384.593 341.329Z" fill="#5D7280"/>
<path d="M378.66 355.357L377.271 355.468C376.624 355.519 376.358 355.011 376.678 354.333L377.117 353.402C377.436 352.724 378.219 352.133 378.866 352.081L380.255 351.971C380.902 351.919 381.168 352.427 380.849 353.105L380.41 354.037C380.09 354.715 379.307 355.306 378.66 355.357Z" fill="#5D7280"/>
<path d="M377.886 361.885C377.609 362.472 376.864 362.987 376.216 363.039L372.383 363.343C371.736 363.395 371.437 362.963 371.714 362.375C371.991 361.787 372.736 361.273 373.384 361.221L374.067 361.167C374.08 361.103 374.111 361.038 374.142 360.972C374.418 360.384 375.163 359.87 375.811 359.818L375.973 359.805C376.621 359.754 376.92 360.185 376.643 360.773C376.612 360.839 376.581 360.904 376.532 360.971L377.216 360.917C377.864 360.865 378.163 361.297 377.886 361.885Z" fill="#5D7280"/>
<path d="M381.742 350.349C381.48 349.97 380.557 350.14 379.69 350.74L379.894 351.035C380.386 350.694 380.91 350.598 381.062 350.819C381.223 351.051 380.947 351.506 380.455 351.846L380.659 352.141C381.526 351.541 382.011 350.739 381.742 350.349Z" fill="#5D7280"/>
<path d="M384.915 367.318L385.811 368.613L385.797 368.623C386.069 369.017 386.075 369.595 385.771 370.264C385.139 371.595 383.443 372.767 381.974 372.889C381.227 372.947 380.702 372.727 380.43 372.333L379.534 371.038L380.712 370.224C381.37 369.229 382.561 368.405 383.724 368.141L384.915 367.318Z" fill="#AEB2F4"/>
<path d="M384.884 368.968C384.255 370.303 382.552 371.48 381.08 371.597C379.609 371.714 378.926 370.726 379.555 369.391C380.184 368.056 381.887 366.878 383.359 366.761C384.831 366.645 385.514 367.632 384.884 368.968Z" fill="#D7DAFF"/>
<path d="M557.883 446.746L550.771 448.63C549.987 448.838 549.066 448.533 548.194 447.666L555.306 445.782C556.178 446.649 557.099 446.954 557.883 446.746Z" fill="#2C353B"/>
<path d="M531.749 408.494L538.861 406.61C538.066 406.821 537.411 407.557 537.087 408.766L529.975 410.65C530.299 409.441 530.954 408.705 531.749 408.494Z" fill="#3B4951"/>
<path d="M555.306 445.782L548.194 447.666L529.16 428.739L536.271 426.855L555.306 445.782Z" fill="#2C353B"/>
<path d="M534.256 419.333L527.144 421.216L529.975 410.65L537.087 408.766L534.256 419.333Z" fill="#3B4951"/>
<path d="M559.657 444.59C559.013 446.993 557.062 447.528 555.306 445.782L536.271 426.855C534.516 425.109 533.612 421.736 534.256 419.333L537.087 408.766C537.731 406.363 539.682 405.828 541.438 407.574L560.472 426.501C562.228 428.247 563.132 431.62 562.488 434.024L559.657 444.59Z" fill="#5D7280"/>
<path d="M536.271 426.855L529.16 428.739C527.404 426.993 526.5 423.62 527.144 421.216L534.256 419.333C533.612 421.736 534.516 425.109 536.271 426.855Z" fill="#3B4951"/>
<path d="M537.979 421.28L540.09 413.402C540.542 411.715 542.065 411.503 543.491 412.929L557.001 426.439C558.427 427.865 559.216 430.389 558.764 432.076L556.653 439.954C556.201 441.642 554.678 441.853 553.252 440.427L539.743 426.917C538.317 425.491 537.527 422.967 537.979 421.28Z" fill="#3B4951"/>
<path d="M539.66 421.631L541.209 415.849C541.661 414.162 543.183 413.951 544.609 415.377L555.32 426.088C556.746 427.514 557.536 430.038 557.084 431.725L555.535 437.507C555.083 439.194 553.56 439.405 552.134 437.979L541.423 427.268C539.997 425.842 539.208 423.319 539.66 421.631Z" fill="#D7DAFF"/>
<path d="M549.257 435.102L552.443 423.21L553.023 423.79L549.837 435.682L549.257 435.102Z" fill="#AEB2F4"/>
<path d="M549.584 432.395L551.488 425.29L552.695 426.497L550.791 433.602L549.584 432.395Z" fill="#3B4951"/>
<path d="M543.527 429.373L546.714 417.481L547.294 418.061L544.107 429.952L543.527 429.373Z" fill="#AEB2F4"/>
<path d="M543.855 426.665L545.759 419.561L546.966 420.768L545.062 427.872L543.855 426.665Z" fill="#3B4951"/>
<path d="M552.39 432.654L553.218 429.567C553.383 428.951 553.939 428.873 554.459 429.394C554.98 429.915 555.269 430.837 555.103 431.453L554.276 434.54C554.111 435.156 553.555 435.233 553.034 434.713C552.514 434.192 552.225 433.27 552.39 432.654Z" fill="#AEB2F4"/>
<path d="M547.015 427.279L547.842 424.191C548.008 423.575 548.564 423.498 549.084 424.019C549.605 424.54 549.893 425.461 549.728 426.077L548.901 429.165C548.736 429.781 548.18 429.858 547.659 429.337C547.139 428.816 546.85 427.895 547.015 427.279Z" fill="#AEB2F4"/>
<path d="M541.64 421.904L542.467 418.816C542.632 418.2 543.188 418.123 543.709 418.644C544.23 419.165 544.518 420.086 544.353 420.702L543.526 423.79C543.361 424.406 542.805 424.483 542.284 423.962C541.763 423.441 541.475 422.52 541.64 421.904Z" fill="#AEB2F4"/>
<path d="M537.981 423.765L536.55 424.149L536.548 424.14C536.261 424.217 535.916 424.108 535.59 423.783C534.936 423.134 534.601 421.882 534.84 420.984C534.96 420.542 535.203 420.278 535.492 420.199L535.491 420.196L536.922 419.813L537.981 423.765Z" fill="#AEB2F4"/>
<path d="M537.019 423.4C536.366 422.747 536.031 421.495 536.27 420.604C536.508 419.712 537.231 419.519 537.884 420.171C538.536 420.824 538.872 422.076 538.633 422.967C538.394 423.859 537.671 424.052 537.019 423.4Z" fill="#D7DAFF"/>
<path d="M530.231 409.569L528.726 409.968L529.061 408.717L530.566 408.318L530.231 409.569Z" fill="#AEB2F4"/>
<path d="M532.369 417.793L530.864 418.191L527.436 414.783L528.94 414.384L532.369 417.793Z" fill="#888ABF"/>
<path d="M528.94 414.384L527.436 414.783L527.774 413.518L529.279 413.119L528.94 414.384Z" fill="#AEB2F4"/>
<path d="M532.373 417.797L528.948 414.385L529.278 413.11L516.328 400.268L516.658 398.993L516.959 397.904L517.273 396.713L530.229 409.573L530.565 408.317L533.99 411.729L533.323 414.26L533.022 415.349L532.373 417.797Z" fill="#D7DAFF"/>
<path d="M529.279 413.119L527.774 413.518L514.825 400.659L516.33 400.26L529.279 413.119Z" fill="#888ABF"/>
<path d="M516.33 400.26L514.825 400.659L515.776 397.109L517.281 396.71L516.33 400.26Z" fill="#AEB2F4"/>
<path d="M533.022 415.349L516.658 398.993L516.959 397.904L533.323 414.26L533.022 415.349Z" fill="#AEB2F4"/>
<path d="M491.401 204.004C491.595 205.119 491.513 206.448 491.114 207.931L483.066 237.964C481.655 243.22 476.818 248.466 472.268 249.683L407.036 267.159C406.167 267.394 405.36 267.466 404.654 267.374C404.459 266.259 404.541 264.93 404.94 263.447L412.988 233.414C414.399 228.157 419.236 222.911 423.787 221.695L489.018 204.219C489.897 203.973 490.695 203.912 491.401 204.004Z" fill="#0E6876"/>
<path d="M490.194 201.488C490.808 202.102 491.227 202.971 491.401 204.004C491.595 205.119 491.513 206.448 491.114 207.931L483.066 237.964C481.655 243.22 476.818 248.466 472.268 249.683L407.036 267.159C406.167 267.394 405.36 267.466 404.654 267.374C403.682 267.282 402.864 266.894 402.261 266.29C400.983 265.012 400.584 262.732 401.351 259.858L409.399 229.824C410.8 224.558 415.636 219.312 420.187 218.095L485.418 200.619C487.484 200.067 489.141 200.435 490.194 201.488Z" fill="#148FA2"/>
<path d="M436.764 223.651L416.506 229.079C415.671 229.303 415.204 228.703 415.462 227.738C415.72 226.774 416.607 225.811 417.442 225.587L437.699 220.159C438.534 219.935 439.002 220.536 438.744 221.5C438.485 222.464 437.599 223.427 436.764 223.651Z" fill="#B5F0F6"/>
<path d="M459.736 217.496L446.658 221C445.823 221.224 445.356 220.623 445.614 219.659C445.872 218.695 446.759 217.732 447.594 217.508L460.672 214.004C461.507 213.78 461.975 214.38 461.716 215.344C461.458 216.309 460.571 217.272 459.736 217.496Z" fill="#B5F0F6"/>
<path d="M421.49 251.865L409.619 255.046C408.742 255.281 408.251 254.651 408.522 253.638C408.794 252.626 409.724 251.614 410.601 251.379L422.473 248.198C423.349 247.963 423.84 248.594 423.569 249.606C423.298 250.619 422.367 251.63 421.49 251.865Z" fill="#F4F9FB"/>
<path d="M439.96 246.916L428.088 250.097C427.212 250.332 426.721 249.702 426.992 248.689C427.263 247.677 428.194 246.665 429.071 246.43L440.942 243.249C441.819 243.014 442.31 243.645 442.039 244.657C441.767 245.67 440.837 246.681 439.96 246.916Z" fill="#F4F9FB"/>
<path d="M458.429 241.967L446.558 245.148C445.681 245.383 445.19 244.753 445.462 243.74C445.733 242.728 446.664 241.717 447.54 241.482L459.412 238.301C460.289 238.066 460.78 238.696 460.508 239.709C460.237 240.721 459.306 241.732 458.429 241.967Z" fill="#F4F9FB"/>
<path d="M476.899 237.018L465.028 240.199C464.151 240.434 463.66 239.804 463.931 238.791C464.203 237.779 465.133 236.768 466.01 236.533L477.882 233.352C478.758 233.117 479.249 233.747 478.978 234.76C478.707 235.772 477.776 236.783 476.899 237.018Z" fill="#F4F9FB"/>
<path d="M429.025 254.627L407.558 260.379C407.057 260.514 406.776 260.153 406.931 259.575C407.086 258.996 407.618 258.418 408.119 258.284L429.586 252.532C430.088 252.398 430.368 252.758 430.213 253.337C430.058 253.915 429.526 254.493 429.025 254.627Z" fill="#B5F0F6"/>
<path d="M446.627 249.911L436.263 252.688C435.762 252.822 435.481 252.462 435.636 251.883C435.791 251.305 436.323 250.727 436.824 250.592L447.188 247.815C447.689 247.681 447.97 248.041 447.815 248.62C447.66 249.199 447.128 249.777 446.627 249.911Z" fill="#B5F0F6"/>
<path d="M425.697 241.257L413.3 244.579C411.901 244.953 411.119 243.948 411.551 242.333L412.371 239.276C412.803 237.661 414.288 236.048 415.686 235.674L428.083 232.352C429.482 231.977 430.265 232.982 429.832 234.597L429.012 237.655C428.58 239.269 427.096 240.882 425.697 241.257Z" fill="#FFC532"/>
<path d="M476.299 226.788C475.686 229.076 473.334 231.429 471.045 232.042C468.757 232.655 467.399 231.297 468.012 229.009C468.625 226.72 470.977 224.368 473.266 223.755C475.554 223.142 476.912 224.5 476.299 226.788Z" fill="#FFC532"/>
<path d="M481.486 225.398C480.873 227.686 478.521 230.039 476.233 230.652C473.944 231.265 472.586 229.907 473.199 227.619C473.813 225.33 476.165 222.978 478.453 222.365C480.742 221.752 482.1 223.11 481.486 225.398Z" fill="#FF6852"/>
<path d="M490.194 201.488L493.794 205.088C495.062 206.356 495.471 208.647 494.704 211.52L486.656 241.553C485.244 246.81 480.418 252.066 475.867 253.283L410.636 270.759C408.57 271.311 406.914 270.943 405.86 269.89L402.261 266.29C402.864 266.894 403.682 267.282 404.654 267.374C405.36 267.466 406.167 267.394 407.036 267.159L472.268 249.683C476.818 248.466 481.655 243.22 483.066 237.964L491.114 207.931C491.513 206.448 491.595 205.119 491.401 204.004C491.227 202.971 490.808 202.102 490.194 201.488Z" fill="#0E6876"/>
<path d="M305.862 306.955C305.512 307.083 305.129 307.123 304.659 307.196L268.969 310.397C266.171 310.624 262.824 309.214 261.41 307.247L223.899 253.787C223.807 253.672 223.743 253.497 223.679 253.321C224.029 253.193 224.412 253.153 224.882 253.081L260.604 249.967C263.343 249.711 266.717 251.062 268.131 253.029L305.642 306.489C305.707 306.664 305.799 306.779 305.862 306.955Z" fill="#263238"/>
<path d="M307.566 305.637C307.288 306.235 306.711 306.694 305.862 306.955C305.512 307.083 305.129 307.123 304.659 307.196L275.035 309.87L268.969 310.397C268.204 310.478 267.434 310.411 266.632 310.257C264.495 309.845 262.424 308.665 261.41 307.247L223.899 253.787C223.807 253.672 223.743 253.497 223.679 253.321C223.275 252.624 223.226 251.947 223.504 251.348C223.894 250.511 224.882 249.951 226.412 249.789L262.162 246.616C263.075 246.531 264.052 246.621 265.005 246.919C266.907 247.367 268.738 248.436 269.661 249.739L276.001 258.798L284.769 271.243L289.695 278.336L307.172 303.197C307.788 304.066 307.9 304.918 307.566 305.637Z" fill="#37474F"/>
<path d="M243.264 263.421L237.254 254.859C236.729 254.11 237.155 253.428 238.207 253.334C239.259 253.241 240.538 253.772 241.063 254.521L247.074 263.083C247.599 263.832 247.172 264.514 246.12 264.607C245.068 264.701 243.79 264.169 243.264 263.421Z" fill="white"/>
<path d="M252.775 276.97L246.765 268.408C246.24 267.659 246.666 266.977 247.718 266.884C248.77 266.79 250.049 267.322 250.574 268.07L256.584 276.633C257.11 277.381 256.683 278.064 255.631 278.157C254.58 278.25 253.301 277.719 252.775 276.97Z" fill="white"/>
<path d="M262.286 290.52L256.276 281.957C255.75 281.209 256.177 280.526 257.229 280.433C258.281 280.34 259.56 280.871 260.085 281.62L266.095 290.182C266.621 290.931 266.194 291.613 265.142 291.706C264.09 291.799 262.812 291.268 262.286 290.52Z" fill="white"/>
<path d="M271.797 304.069L265.787 295.507C265.262 294.758 265.688 294.076 266.74 293.982C267.792 293.889 269.071 294.42 269.596 295.169L275.606 303.731C276.132 304.48 275.705 305.162 274.653 305.256C273.601 305.349 272.323 304.817 271.797 304.069Z" fill="white"/>
<path d="M241.716 272.208L229.039 254.147L232.008 253.884L244.685 271.945L241.716 272.208Z" fill="white"/>
<path d="M251.786 286.554L243.838 275.231L246.807 274.967L254.755 286.29L251.786 286.554Z" fill="white"/>
<path d="M252.299 263.551L245.729 254.191C245.173 253.399 245.625 252.676 246.738 252.578L250.862 252.212C251.976 252.113 253.329 252.675 253.885 253.468L260.456 262.828C261.012 263.62 260.56 264.342 259.446 264.441L255.322 264.807C254.209 264.906 252.855 264.344 252.299 263.551Z" fill="#FFB300"/>
<path d="M265.502 255.866C267.068 255.727 267.606 254.571 266.702 253.284C265.799 251.997 263.796 251.066 262.23 251.205C260.663 251.344 260.126 252.5 261.029 253.787C261.933 255.074 263.935 256.005 265.502 255.866Z" fill="white"/>
<path d="M272.268 266.866L266.219 258.249L268.017 258.09L274.066 266.707L272.268 266.866Z" fill="white"/>
<path d="M263.993 301.698C262.351 301.844 260.251 300.868 259.303 299.517C258.355 298.167 258.919 296.955 260.562 296.809C262.205 296.663 264.305 297.64 265.253 298.99C266.2 300.34 265.636 301.552 263.993 301.698Z" fill="#FFB300"/>
<path d="M266.135 304.749C264.492 304.895 262.392 303.918 261.444 302.568C260.497 301.218 261.06 300.006 262.703 299.86C264.346 299.714 266.446 300.691 267.394 302.041C268.342 303.391 267.778 304.603 266.135 304.749Z" fill="#F80202"/>
<path d="M291.835 294.74L283.088 282.28L284.886 282.12L293.633 294.581L291.835 294.74Z" fill="white"/>
<path d="M297.777 303.205L293.404 296.975L295.201 296.816L299.575 303.046L297.777 303.205Z" fill="white"/>
<path d="M307.566 305.637L306.037 308.928C305.647 309.765 304.66 310.325 303.129 310.487L267.439 313.688C264.641 313.915 261.294 312.505 259.88 310.538L222.369 257.079C221.754 256.21 221.641 255.357 221.974 254.639L223.504 251.348C223.226 251.947 223.275 252.624 223.679 253.321C223.743 253.497 223.807 253.672 223.899 253.787L261.41 307.247C262.824 309.214 266.171 310.624 268.969 310.397L304.659 307.196C305.129 307.123 305.512 307.083 305.862 306.955C306.711 306.694 307.288 306.235 307.566 305.637Z" fill="#263238"/>
<path d="M570.72 205.264C568.031 201.87 558.949 200.459 558.949 200.459L561.628 212.606C561.628 212.606 573.41 208.659 570.72 205.264Z" fill="black"/>
<path d="M577.86 195.385C577.847 195.338 577.516 194.124 577.476 193.977C577.454 193.882 577.423 193.785 577.389 193.686C577.376 193.618 577.368 193.551 577.35 193.481C577.337 193.434 577.006 192.22 576.966 192.073C576.943 191.975 576.912 191.875 576.876 191.774C576.863 191.703 576.855 191.633 576.835 191.56C576.823 191.517 576.532 190.449 576.46 190.183L588.002 185.958L582.916 166.978L581.485 162.457L554.13 152.674L558.867 170.351L558.751 170.518L558.763 170.562L522.055 161.263L526.395 182.553L532.934 196.252L544.018 195.211L563.62 188.036C563.639 188.105 563.663 188.174 563.688 188.244C563.7 188.314 563.709 188.382 563.728 188.454C563.734 188.475 564.088 189.786 564.113 189.891C564.135 189.977 564.168 190.066 564.199 190.155C564.212 190.222 564.219 190.289 564.238 190.358C564.244 190.378 564.597 191.69 564.623 191.795C564.868 192.782 565.78 193.951 567.296 195.06C570.277 197.243 574.464 198.365 576.646 197.566C577.738 197.166 578.122 196.362 577.86 195.385Z" fill="black"/>
<path d="M585.058 159.422L575.343 169.137L585.853 208.362L605.466 213.617L615.181 203.902L594.955 174.392L585.058 159.422Z" fill="#308D43"/>
<path d="M577.835 166.644L568.12 176.36L578.63 215.585L598.243 220.84L607.958 211.124L587.733 181.615L577.835 166.644Z" fill="#308D43"/>
<path d="M571.706 172.773L570.913 173.567L581.423 212.792L601.036 218.047L601.829 217.254L582.217 211.998L571.706 172.773Z" fill="#449855"/>
<path d="M573.512 170.967L572.718 171.761L583.229 210.986L602.841 216.241L603.635 215.448L584.022 210.193L573.512 170.967Z" fill="#449855"/>
<path d="M575.318 169.162L574.524 169.955L585.034 209.181L604.647 214.436L605.441 213.642L585.828 208.387L575.318 169.162Z" fill="#449855"/>
<path d="M577.123 167.356L576.33 168.15L586.84 207.375L606.453 212.63L607.246 211.837L587.634 206.581L577.123 167.356Z" fill="#449855"/>
<path d="M569.901 174.579L569.107 175.372L579.617 214.598L599.23 219.853L600.024 219.059L580.411 213.804L569.901 174.579Z" fill="#449855"/>
<path d="M578.929 165.55L578.135 166.344L588.646 205.569L608.258 210.824L609.052 210.031L589.439 204.776L578.929 165.55Z" fill="#449855"/>
<path d="M580.735 163.745L579.941 164.538L590.451 203.764L610.064 209.019L610.858 208.225L591.245 202.97L580.735 163.745Z" fill="#449855"/>
<path d="M582.54 161.939L581.747 162.733L592.257 201.958L611.87 207.213L612.663 206.42L593.051 201.164L582.54 161.939Z" fill="#449855"/>
<path d="M584.346 160.134L583.552 160.927L594.063 200.152L613.675 205.407L614.469 204.614L594.856 199.359L584.346 160.134Z" fill="#449855"/>
<path d="M537.394 166.925L527.678 176.64L532.934 196.252L572.159 206.763L581.874 197.047L566.904 187.15L537.394 166.925Z" fill="#308D43"/>
<path d="M537.394 166.925L542.649 186.537L581.874 197.047L576.619 177.435L537.394 166.925Z" fill="#58A368"/>
<path d="M576.796 189.548L575.118 183.287C572.794 182.296 570.581 180.052 569.644 177.722L545.738 171.317C545.936 173.429 544.622 174.687 542.472 174.424L544.15 180.685C546.475 181.676 548.687 183.921 549.624 186.251L573.529 192.656C573.332 190.544 574.647 189.285 576.796 189.548Z" fill="#EDEDED"/>
<path d="M565.344 183.516C564.499 180.362 561.258 177.121 558.104 176.276C554.951 175.431 553.08 177.303 553.925 180.456C554.769 183.609 558.011 186.851 561.164 187.695C564.317 188.541 566.189 186.669 565.344 183.516Z" fill="#58A368"/>
<path d="M562.463 185.6C562.745 185.34 562.807 184.913 562.648 184.32C562.51 183.804 562.223 183.321 561.786 182.867C561.349 182.413 560.702 181.94 559.843 181.448L559.298 179.415C559.943 179.651 560.554 179.987 561.137 180.427L560.749 178.978C560.321 178.671 559.726 178.4 558.962 178.161L558.701 177.185L557.918 176.975L558.186 177.973C557.549 177.861 557.084 177.95 556.794 178.24C556.503 178.527 556.433 178.953 556.583 179.514C556.723 180.035 556.995 180.52 557.397 180.963C557.8 181.408 558.462 181.898 559.381 182.433L559.904 184.385C559.576 184.277 559.188 184.097 558.739 183.844C558.289 183.591 557.938 183.352 557.685 183.129L558.083 184.614C558.797 185.107 559.516 185.452 560.242 185.65L560.546 186.782L561.329 186.991L561.017 185.828C561.699 185.938 562.181 185.862 562.463 185.6ZM557.985 179.805C557.87 179.376 558.049 179.183 558.521 179.228L558.977 180.927C558.414 180.546 558.084 180.173 557.985 179.805ZM560.68 184.573L560.245 182.948C560.816 183.307 561.147 183.661 561.241 184.011C561.357 184.445 561.171 184.632 560.68 184.573Z" fill="#EDEDED"/>
<path d="M531.265 173.054L530.471 173.847L535.726 193.46L574.952 203.97L575.745 203.177L536.52 192.666L531.265 173.054Z" fill="#449855"/>
<path d="M533.071 171.248L532.277 172.041L537.532 191.654L576.757 202.165L577.551 201.371L538.326 190.861L533.071 171.248Z" fill="#449855"/>
<path d="M534.876 169.442L534.083 170.236L539.338 189.848L578.563 200.359L579.357 199.565L540.131 189.055L534.876 169.442Z" fill="#449855"/>
<path d="M536.682 167.637L535.888 168.43L541.143 188.043L580.369 198.553L581.162 197.76L541.937 187.249L536.682 167.637Z" fill="#449855"/>
<path d="M529.459 174.859L528.666 175.653L533.921 195.265L573.146 205.776L573.94 204.982L534.714 194.472L529.459 174.859Z" fill="#449855"/>
<path d="M585.058 159.422L595.568 198.647L615.181 203.902L604.671 164.677L585.058 159.422Z" fill="#58A368"/>
<path d="M610.823 195.682L604.417 171.776C602.093 170.786 599.88 168.541 598.943 166.211L592.682 164.533C592.88 166.646 591.565 167.904 589.416 167.641L595.822 191.547C598.146 192.538 600.358 194.782 601.295 197.112L607.556 198.79C607.359 196.678 608.674 195.419 610.823 195.682Z" fill="#EDEDED"/>
<path d="M605.829 183.192C604.984 180.038 601.743 176.797 598.59 175.952C595.436 175.107 593.565 176.978 594.41 180.132C595.255 183.285 598.496 186.526 601.649 187.371C604.803 188.216 606.674 186.345 605.829 183.192Z" fill="#58A368"/>
<path d="M604.149 183.094L605.125 183.356L604.915 182.573L603.917 182.306C603.679 181.635 603.308 181.047 602.806 180.544C602.306 180.042 601.773 179.716 601.213 179.566C600.692 179.426 600.289 179.46 600.009 179.669C599.728 179.877 599.544 180.358 599.457 181.11L597.505 180.588C597.44 180.271 597.425 179.928 597.458 179.555C597.49 179.181 597.564 178.914 597.675 178.751L596.191 178.354C596.033 178.893 596.049 179.524 596.241 180.249L595.109 179.945L595.318 180.728L596.482 181.04C596.75 181.765 597.115 182.365 597.58 182.842C598.044 183.318 598.572 183.636 599.165 183.795C599.681 183.933 600.074 183.881 600.345 183.638C600.618 183.396 600.79 182.921 600.862 182.214L602.895 182.759C602.994 183.366 602.959 183.879 602.789 184.298L604.237 184.686C604.345 184.369 604.315 183.839 604.149 183.094ZM598.709 182.348C598.276 182.232 597.952 181.91 597.736 181.376L599.362 181.812C599.276 182.264 599.059 182.442 598.709 182.348ZM600.963 181.514C601.078 181.085 601.318 180.918 601.687 181.017C602.115 181.132 602.441 181.45 602.663 181.97L600.963 181.514Z" fill="#EDEDED"/>
<path d="M574.852 216.149C573.873 212.497 570.12 208.744 566.468 207.765C564.871 207.337 563.645 207.115 563.645 207.115C563.645 207.115 562.452 208.313 562.354 208.407C561.445 209.278 561.131 210.75 561.628 212.606C562.606 216.258 566.359 220.011 570.011 220.989C571.837 221.478 573.292 221.181 574.168 220.305C574.212 220.261 575.448 219.012 575.448 219.012C575.448 219.012 575.316 217.882 574.852 216.149Z" fill="url(#paint0_linear_2730_5327)"/>
<path d="M576.186 214.815C575.207 211.163 571.454 207.41 567.802 206.431C564.15 205.452 561.983 207.619 562.961 211.271C563.94 214.923 567.694 218.677 571.345 219.655C574.997 220.634 577.164 218.466 576.186 214.815Z" fill="#FED416"/>
<path d="M576.559 214.442C575.58 210.79 571.827 207.036 568.175 206.058C566.578 205.63 565.353 205.408 565.353 205.408C565.353 205.408 564.159 206.606 564.061 206.699C563.152 207.571 562.837 209.042 563.334 210.898C564.313 214.55 568.066 218.304 571.718 219.282C573.544 219.771 574.999 219.474 575.875 218.598C575.919 218.554 577.155 217.305 577.155 217.305C577.155 217.305 577.023 216.175 576.559 214.442Z" fill="url(#paint1_linear_2730_5327)"/>
<path d="M577.893 213.108C576.914 209.456 573.161 205.702 569.509 204.724C565.857 203.745 563.69 205.912 564.669 209.564C565.647 213.216 569.401 216.97 573.052 217.948C576.704 218.926 578.871 216.759 577.893 213.108Z" fill="#FED416"/>
<path d="M578.281 212.72C577.303 209.068 573.549 205.314 569.897 204.336C568.3 203.908 567.075 203.686 567.075 203.686C567.075 203.686 565.881 204.884 565.783 204.977C564.874 205.848 564.56 207.32 565.057 209.176C566.035 212.828 569.789 216.582 573.44 217.559C575.266 218.049 576.721 217.752 577.597 216.876C577.642 216.831 578.877 215.583 578.877 215.583C578.877 215.583 578.745 214.452 578.281 212.72Z" fill="url(#paint2_linear_2730_5327)"/>
<path d="M579.615 211.385C578.637 207.734 574.883 203.98 571.231 203.002C567.579 202.023 565.412 204.19 566.391 207.842C567.37 211.494 571.123 215.247 574.774 216.226C578.426 217.204 580.593 215.037 579.615 211.385Z" fill="#FED416"/>
<path d="M580.034 210.967C579.055 207.315 575.301 203.562 571.65 202.583C570.053 202.155 568.827 201.933 568.827 201.933C568.827 201.933 567.634 203.131 567.536 203.225C566.627 204.096 566.312 205.568 566.809 207.423C567.788 211.075 571.541 214.829 575.193 215.807C577.019 216.296 578.474 215.999 579.35 215.123C579.394 215.079 580.63 213.83 580.63 213.83C580.63 213.83 580.498 212.7 580.034 210.967Z" fill="url(#paint3_linear_2730_5327)"/>
<path d="M581.368 209.633C580.389 205.981 576.636 202.228 572.984 201.249C569.332 200.271 567.165 202.438 568.143 206.089C569.122 209.741 572.876 213.495 576.527 214.473C580.179 215.452 582.346 213.284 581.368 209.633Z" fill="#FED416"/>
<path d="M581.753 209.248C580.774 205.596 577.021 201.842 573.369 200.864C571.772 200.436 570.547 200.214 570.547 200.214C570.547 200.214 569.353 201.412 569.256 201.505C568.346 202.376 568.032 203.848 568.528 205.704C569.507 209.356 573.261 213.11 576.912 214.088C578.738 214.577 580.193 214.28 581.069 213.404C581.114 213.359 582.349 212.111 582.349 212.111C582.349 212.111 582.217 210.981 581.753 209.248Z" fill="url(#paint4_linear_2730_5327)"/>
<path d="M583.087 207.913C582.109 204.262 578.355 200.508 574.703 199.53C571.051 198.551 568.884 200.718 569.863 204.37C570.842 208.022 574.595 211.775 578.246 212.754C581.898 213.732 584.065 211.565 583.087 207.913Z" fill="#FED416"/>
<path d="M741.794 519.453C737.549 516.302 726.409 517.481 726.409 517.481L733.424 530.925C733.424 530.925 746.039 522.604 741.794 519.453Z" fill="black"/>
<path d="M758.194 514.412C753.949 511.261 742.809 512.44 742.809 512.44L749.824 525.884C749.824 525.884 762.44 517.562 758.194 514.412Z" fill="black"/>
<path d="M748.452 495.737C734.375 471.467 715.519 459.444 703.504 453.868L701.922 451.141C701.877 448.632 701.148 444.971 698.556 440.503C697.635 438.914 691.333 437.116 684.556 437.103C677.779 437.089 673.377 438.568 674.472 440.454C677.152 445.075 680.523 448.514 683.501 451.058L685.047 453.722C679.43 459.19 675.498 469.052 687.424 494.724C689.957 500.177 701.191 508.002 701.191 508.002C701.191 508.002 717.859 509.495 726.556 509.512C748.666 509.556 751.171 500.424 748.452 495.737Z" fill="black"/>
<path d="M751.365 439.99C751.365 439.99 714.371 430.69 687.047 478.016C684.263 482.839 685.582 499.71 709.06 513.265C732.539 526.821 747.287 520.432 750.594 514.704C777.743 467.68 751.365 439.99 751.365 439.99Z" fill="#2D6EA1"/>
<path d="M760.142 424.788C752.946 420.633 746.304 419.225 744.973 421.53C741.714 427.176 740.753 432.219 740.558 436.246C736.586 443.126 745.331 450.442 745.331 450.442C745.331 450.442 756.49 453.76 760.058 447.58C763.329 445.376 767.396 441.756 770.548 436.296C771.669 434.355 767.339 428.943 760.142 424.788Z" fill="#3D85BD"/>
<path d="M754.949 449.845C749.864 449.831 743.679 446.26 741.13 441.867C739.855 439.669 739.73 437.682 740.558 436.246L738.151 440.416C737.322 441.851 737.453 443.837 738.72 446.034C741.273 450.428 747.454 453.997 752.531 454.008C755.072 454.01 756.855 453.128 757.683 451.693L760.058 447.58C759.214 448.983 757.454 449.85 754.949 449.845Z" fill="#ECC127"/>
<path d="M747.866 494.201C747.333 493.228 746.085 492.364 744.124 491.607L746.793 486.165C748.567 486.349 749.997 486.846 751.09 487.663L752.992 483.786C752.155 483.23 750.638 482.906 748.44 482.807L749.72 480.196L747.39 480.194L746.08 482.865C744.05 483.034 742.181 483.647 740.48 484.707C738.783 485.761 737.564 487.042 736.828 488.543C736.142 489.939 736.017 491.126 736.452 492.095C736.884 493.068 738.143 493.971 740.223 494.805L737.661 500.03C736.73 499.972 735.751 499.75 734.713 499.367C733.674 498.985 732.96 498.565 732.561 498.117L730.611 502.091C732.05 502.963 733.844 503.405 736 503.415L734.514 506.445L736.844 506.446L738.372 503.332C740.573 503.122 742.472 502.533 744.079 501.56C745.683 500.591 746.875 499.313 747.654 497.726C748.332 496.345 748.402 495.172 747.866 494.201ZM741.197 488.301C741.759 487.155 742.839 486.461 744.432 486.224L742.201 490.774C741.049 490.109 740.713 489.287 741.197 488.301ZM740.02 499.974L742.154 495.623C743.387 496.219 743.769 496.983 743.309 497.921C742.74 499.081 741.648 499.763 740.02 499.974Z" fill="#FFC740"/>
<path d="M751.498 424.802C751.498 424.802 748.529 426.631 748.467 426.955C748.405 427.28 747.199 433.546 747.199 433.546C747.199 433.546 743.647 439.434 743.18 441.263L748.047 434.208L749.129 427.139L751.498 424.802Z" fill="#2D6EA1"/>
<path d="M763.099 435.244L764.156 431.669C764.156 431.669 762.208 434.789 762.155 435.115C762.102 435.441 758.303 439.858 758.303 439.858C758.303 439.858 756.749 446.531 756.336 448.373L759.156 440.408L763.099 435.244Z" fill="#2D6EA1"/>
<path d="M766.518 525.918C764.205 521.93 758.593 518.69 753.983 518.681C751.967 518.676 750.454 518.798 750.454 518.798C750.454 518.798 749.43 520.58 749.344 520.72C748.551 522.028 748.649 523.857 749.824 525.884C752.137 529.872 757.749 533.112 762.359 533.121C764.664 533.126 766.282 532.322 767.035 531.018C767.073 530.952 768.131 529.098 768.131 529.098C768.131 529.098 767.616 527.81 766.518 525.918Z" fill="url(#paint5_linear_2730_5327)"/>
<path d="M767.664 523.932C765.351 519.944 759.739 516.704 755.129 516.695C750.519 516.686 748.657 519.911 750.97 523.899C753.284 527.886 758.895 531.126 763.505 531.135C768.115 531.145 769.977 527.919 767.664 523.932Z" fill="#FED416"/>
<path d="M767.985 523.377C765.672 519.389 760.06 516.149 755.45 516.14C753.434 516.135 751.921 516.257 751.921 516.257C751.921 516.257 750.897 518.039 750.811 518.18C750.018 519.488 750.116 521.317 751.291 523.343C753.604 527.331 759.216 530.571 763.825 530.58C766.131 530.585 767.749 529.781 768.502 528.477C768.54 528.411 769.598 526.557 769.598 526.557C769.598 526.557 769.083 525.269 767.985 523.377Z" fill="url(#paint6_linear_2730_5327)"/>
<path d="M769.131 521.391C766.818 517.404 761.206 514.164 756.596 514.154C751.986 514.145 750.124 517.37 752.437 521.358C754.75 525.346 760.362 528.586 764.972 528.595C769.582 528.604 771.444 525.379 769.131 521.391Z" fill="#FED416"/>
<path d="M769.465 520.814C767.152 516.826 761.54 513.586 756.93 513.576C754.914 513.572 753.401 513.694 753.401 513.694C753.401 513.694 752.377 515.476 752.291 515.616C751.498 516.924 751.595 518.753 752.771 520.78C755.084 524.768 760.696 528.008 765.305 528.017C767.611 528.022 769.229 527.218 769.982 525.914C770.02 525.847 771.078 523.993 771.078 523.993C771.078 523.993 770.562 522.706 769.465 520.814Z" fill="url(#paint7_linear_2730_5327)"/>
<path d="M770.611 518.828C768.298 514.841 762.686 511.601 758.076 511.591C753.466 511.582 751.604 514.807 753.917 518.795C756.23 522.782 761.842 526.022 766.452 526.032C771.062 526.041 772.924 522.816 770.611 518.828Z" fill="#FED416"/>
<path d="M770.971 518.206C768.657 514.218 763.045 510.978 758.435 510.969C756.419 510.964 754.906 511.086 754.906 511.086C754.906 511.086 753.882 512.868 753.797 513.008C753.004 514.316 753.101 516.145 754.276 518.172C756.59 522.16 762.201 525.4 766.811 525.409C769.116 525.414 770.735 524.61 771.487 523.306C771.526 523.24 772.583 521.386 772.583 521.386C772.583 521.386 772.068 520.098 770.971 518.206Z" fill="url(#paint8_linear_2730_5327)"/>
<path d="M772.117 516.22C769.804 512.233 764.192 508.993 759.582 508.983C754.972 508.974 753.11 512.199 755.423 516.187C757.736 520.174 763.348 523.414 767.957 523.424C772.567 523.433 774.43 520.208 772.117 516.22Z" fill="#FED416"/>
<path d="M772.448 515.647C770.135 511.659 764.523 508.419 759.913 508.41C757.897 508.405 756.384 508.527 756.384 508.527C756.384 508.527 755.36 510.309 755.274 510.45C754.481 511.758 754.579 513.587 755.754 515.613C758.067 519.601 763.679 522.841 768.288 522.85C770.594 522.855 772.212 522.051 772.965 520.747C773.003 520.681 774.061 518.827 774.061 518.827C774.061 518.827 773.546 517.539 772.448 515.647Z" fill="url(#paint9_linear_2730_5327)"/>
<path d="M773.594 513.661C771.281 509.674 765.669 506.434 761.059 506.424C756.449 506.415 754.587 509.64 756.9 513.628C759.213 517.616 764.825 520.856 769.435 520.865C774.045 520.874 775.907 517.649 773.594 513.661Z" fill="#FED416"/>
<path d="M750.118 530.959C747.805 526.972 742.193 523.732 737.583 523.722C735.567 523.718 734.054 523.84 734.054 523.84C734.054 523.84 733.03 525.622 732.945 525.762C732.151 527.07 732.249 528.899 733.424 530.925C735.737 534.913 741.349 538.154 745.958 538.163C748.264 538.168 749.882 537.363 750.635 536.06C750.673 535.993 751.731 534.139 751.731 534.139C751.731 534.139 751.216 532.851 750.118 530.959Z" fill="url(#paint10_linear_2730_5327)"/>
<path d="M751.264 528.974C748.951 524.986 743.339 521.746 738.729 521.737C734.119 521.727 732.257 524.952 734.57 528.94C736.884 532.928 742.496 536.168 747.105 536.177C751.715 536.186 753.577 532.961 751.264 528.974Z" fill="#FED416"/>
<path d="M751.585 528.418C749.272 524.431 743.66 521.191 739.05 521.181C737.034 521.177 735.521 521.299 735.521 521.299C735.521 521.299 734.497 523.081 734.412 523.221C733.618 524.529 733.716 526.358 734.891 528.385C737.204 532.373 742.816 535.613 747.425 535.622C749.731 535.627 751.349 534.823 752.102 533.519C752.14 533.452 753.198 531.599 753.198 531.599C753.198 531.599 752.682 530.311 751.585 528.418Z" fill="url(#paint11_linear_2730_5327)"/>
<path d="M752.731 526.433C750.418 522.445 744.806 519.205 740.196 519.196C735.586 519.187 733.724 522.412 736.037 526.4C738.351 530.387 743.963 533.627 748.572 533.636C753.182 533.645 755.044 530.42 752.731 526.433Z" fill="#FED416"/>
<path d="M753.065 525.855C750.752 521.868 745.14 518.628 740.53 518.618C738.514 518.614 737 518.736 737 518.736C737 518.736 735.977 520.518 735.891 520.658C735.098 521.966 735.196 523.795 736.371 525.822C738.684 529.81 744.296 533.05 748.905 533.059C751.21 533.064 752.829 532.26 753.581 530.956C753.62 530.89 754.677 529.036 754.677 529.036C754.677 529.036 754.162 527.748 753.065 525.855Z" fill="url(#paint12_linear_2730_5327)"/>
<path d="M754.211 523.87C751.898 519.882 746.286 516.642 741.676 516.633C737.066 516.624 735.204 519.849 737.517 523.837C739.83 527.824 745.442 531.064 750.051 531.073C754.661 531.083 756.524 527.857 754.211 523.87Z" fill="#FED416"/>
<path d="M705.549 211.172L678.29 221.677L683.655 225.794L700.65 290.771L705.391 297.357L751.306 276.638L805.551 258.254L779.644 232.347L705.549 211.172Z" fill="black"/>
<path d="M781.536 303.386L757.024 327.897L803.834 340.44L828.346 315.928L818.416 298.413L781.536 303.386Z" fill="#DBDBDB"/>
<path d="M752.201 309.9L757.024 327.897L781.536 303.386L776.713 285.388L752.201 309.9Z" fill="#C4C4C4"/>
<path d="M705.391 297.357L752.201 309.9L776.713 285.388L729.903 272.846L705.391 297.357Z" fill="#DBDBDB"/>
<path d="M721.091 224.52L716.303 222.088L691.791 246.6L705.391 297.357L738.822 263.926L737.011 233.559L721.091 224.52Z" fill="#C4C4C4"/>
<path d="M724.675 273.894L775.601 287.034L777.16 285.475L727.15 271.42L724.675 273.894Z" fill="#752628"/>
<path d="M712.016 218.111L731.369 233.701L807.372 254.729L780.22 237.803L712.016 218.111Z" fill="#A13437"/>
<path d="M729.729 235.341L724.675 273.894L726.235 272.334L731.369 233.701L729.729 235.341Z" fill="#752628"/>
<path d="M731.369 233.701L726.235 272.334L777.16 285.475L807.372 254.729L731.369 233.701Z" fill="#CF4247"/>
<path d="M712.016 218.111L710.906 219.221L729.729 235.341L730.439 234.822L731.363 233.707L712.016 218.111Z" fill="#752628"/>
<path d="M775.154 286.948L779.648 306.521L782.123 304.046L776.713 285.388L775.154 286.948Z" fill="#752628"/>
<path d="M807.372 254.729L819.841 299.827L829.973 317.69L818.926 280.839L807.372 254.729Z" fill="#BE3D41"/>
<path d="M779.648 306.521L818.202 301.467L819.841 299.827L781.208 304.961L779.648 306.521Z" fill="#752628"/>
<path d="M776.713 285.388L781.208 304.961L819.841 299.827L807.372 254.729L776.713 285.388Z" fill="#A13437"/>
<path d="M818.721 300.757L818.202 301.467L828.863 318.8L829.973 317.69L819.836 299.833L818.721 300.757Z" fill="#752628"/>
<path d="M718.498 294.542L732.33 298.248L743.755 286.822L729.924 283.116L718.498 294.542Z" fill="#7DC8F0"/>
<path d="M724.676 296.029L726.404 296.509L737.578 285.334L735.85 284.855L724.676 296.029Z" fill="#A13437"/>
<path d="M723.882 288.249L739.147 292.339L740.739 290.747L725.475 286.657L723.882 288.249Z" fill="#A13437"/>
<path d="M717.066 294.925L732.551 299.075L745.188 286.438L729.703 282.289L717.066 294.925ZM730.146 283.943L742.323 287.206L732.108 297.421L719.931 294.158L730.146 283.943Z" fill="#A13437"/>
<path d="M700.775 261.076L704.481 274.907L715.906 263.482L712.201 249.65L700.775 261.076Z" fill="#7DC8F0"/>
<path d="M702.514 267.002L702.993 268.73L714.168 257.556L713.689 255.827L702.514 267.002Z" fill="#A13437"/>
<path d="M706.684 254.259L710.774 269.523L712.366 267.931L708.276 252.667L706.684 254.259Z" fill="#A13437"/>
<path d="M699.948 260.854L704.097 276.339L716.734 263.703L712.585 248.218L699.948 260.854ZM711.817 251.083L715.08 263.26L704.865 273.475L701.602 261.298L711.817 251.083Z" fill="#A13437"/>
<path d="M740.581 300.46L754.412 304.165L765.838 292.74L752.007 289.034L740.581 300.46Z" fill="#7DC8F0"/>
<path d="M746.758 301.947L748.486 302.426L759.661 291.252L757.933 290.773L746.758 301.947Z" fill="#A13437"/>
<path d="M745.965 294.167L761.229 298.257L762.821 296.665L747.557 292.575L745.965 294.167Z" fill="#A13437"/>
<path d="M739.149 300.843L754.634 304.993L767.271 292.356L751.785 288.207L739.149 300.843ZM752.228 289.861L764.406 293.124L754.191 303.339L742.014 300.076L752.228 289.861Z" fill="#A13437"/>
<path d="M697.062 247.215L700.768 261.047L712.193 249.621L708.487 235.789L697.062 247.215Z" fill="#7DC8F0"/>
<path d="M698.8 253.141L699.28 254.869L710.454 243.695L709.975 241.966L698.8 253.141Z" fill="#A13437"/>
<path d="M702.97 240.398L707.06 255.662L708.653 254.07L704.562 238.806L702.97 240.398Z" fill="#A13437"/>
<path d="M696.234 246.994L700.384 262.479L713.02 249.842L708.871 234.357L696.234 246.994ZM708.103 237.222L711.367 249.399L701.151 259.614L697.888 247.437L708.103 237.222Z" fill="#A13437"/>
<path d="M704.468 274.857L708.174 288.689L719.6 277.263L715.893 263.432L704.468 274.857Z" fill="#7DC8F0"/>
<path d="M706.207 280.783L706.686 282.511L717.861 271.337L717.381 269.609L706.207 280.783Z" fill="#A13437"/>
<path d="M710.377 268.04L714.467 283.304L716.059 281.712L711.969 266.448L710.377 268.04Z" fill="#A13437"/>
<path d="M703.641 274.636L707.791 290.121L720.427 277.484L716.278 261.999L703.641 274.636ZM715.51 264.864L718.773 277.042L708.558 287.257L705.294 275.079L715.51 264.864Z" fill="#A13437"/>
<path d="M787.044 335.942L801.153 339.722L818.611 322.265L804.501 318.484L787.044 335.942Z" fill="#752628"/>
<path d="M808.667 329.31C808.26 329.201 807.688 329.354 807.39 329.652L803.849 333.193C803.551 333.491 803.639 333.821 804.047 333.93C804.454 334.039 805.025 333.886 805.323 333.588L808.864 330.047C809.162 329.749 809.074 329.419 808.667 329.31Z" fill="#150909"/>
<path d="M767.889 320.516L791.679 326.89L802.19 316.379L778.4 310.004L767.889 320.516Z" fill="#7DC8F0"/>
<path d="M772.842 314.727L797.951 321.454L799.415 319.99L774.307 313.262L772.842 314.727Z" fill="#A13437"/>
<path d="M766.571 320.869L791.883 327.651L803.509 316.025L778.196 309.243L766.571 320.869ZM778.605 310.765L800.873 316.732L791.475 326.13L769.206 320.163L778.605 310.765Z" fill="#A13437"/>
<path d="M51.3531 454.037L55.7421 481.453L66.1582 477.605L135.754 460.267C136.003 460.217 142.909 454.205 142.909 454.205L120.899 405.429L71.3731 384.245L51.3531 454.037Z" fill="black"/>
<path d="M142.909 454.205L166.867 364.793L138.991 336.917L115.033 426.33L142.909 454.205Z" fill="#C1CCB1"/>
<path d="M77.6066 472.026L142.909 454.205L115.033 426.33L51.1988 445.618L77.6066 472.026Z" fill="#A3B092"/>
<path d="M73.5176 357.594L47.8103 453.536L116.832 432.389L143.987 331.045L87.1858 338.525L73.5176 357.594Z" fill="#B7C0C7"/>
<path d="M69.221 405.573L116.832 432.389L143.987 331.045L87.1858 338.525L69.221 405.573Z" fill="#976739"/>
<path d="M47.8103 453.536L69.221 405.573L87.1858 338.525L73.5176 357.594L47.8103 453.536Z" fill="#6E4E2F"/>
<path d="M47.8103 453.536L116.832 432.389L69.221 405.573L47.8103 453.536Z" fill="#825C38"/>
<path d="M128.931 389.007L153.752 413.827L176.297 407.786L187.412 397.568L193.025 376.887L170.342 354.204L137.236 387.036L128.931 389.007Z" fill="#ADBA9B"/>
<path d="M153.733 413.808L176.297 407.786L151.461 382.95L129.292 389.368L153.733 413.808Z" fill="#A3B092"/>
<path d="M187.704 397.276L193.025 376.887L168.584 352.446L162.868 372.44L187.704 397.276Z" fill="#B7C5A4"/>
<path d="M111.742 362.72L128.107 390.308L153.13 383.603L165.467 372.263L144.221 353.793L111.742 362.72Z" fill="#825C38"/>
<path d="M165.467 372.263L171.697 349.308L144.221 353.793L165.467 372.263Z" fill="#AB7541"/>
<path d="M138.596 351.163L111.884 362.681L144.363 353.754L171.697 349.308L159.805 345.48L138.596 351.163Z" fill="#9E6C3C"/>
<path d="M140.079 437.931L144.602 421.051L130.657 407.106L126.135 423.987L140.079 437.931Z" fill="#7DC8F0"/>
<path d="M141.894 430.392L142.48 428.283L128.842 414.645L128.257 416.755L141.894 430.392Z" fill="white"/>
<path d="M132.399 431.36L137.391 412.731L135.448 410.788L130.456 429.417L132.399 431.36Z" fill="white"/>
<path d="M140.547 439.68L145.611 420.781L130.189 405.358L125.125 424.257L140.547 439.68ZM127.144 423.716L131.126 408.855L143.593 421.322L139.61 436.183L127.144 423.716Z" fill="white"/>
<path d="M181.662 388.049L186.165 371.243L172.282 357.36L167.779 374.166L181.662 388.049Z" fill="#7DC8F0"/>
<path d="M183.226 379.854L183.78 377.856L170.864 364.94L170.31 366.938L183.226 379.854Z" fill="white"/>
<path d="M177.768 385.237L182.332 368.204L181.415 367.286L176.85 384.319L177.768 385.237Z" fill="white"/>
<path d="M173.012 380.48L177.576 363.447L176.658 362.529L172.094 379.562L173.012 380.48Z" fill="white"/>
<path d="M181.434 389.058L186.527 370.903L172.427 356.803L167.334 374.958L181.434 389.058ZM168.579 374.55L172.817 358.689L185.124 370.996L180.887 386.858L168.579 374.55Z" fill="white"/>
<path d="M152.178 405.477L167.611 401.342L154.862 388.593L139.429 392.728L152.178 405.477Z" fill="#7DC8F0"/>
<path d="M158.79 403.537L160.718 403.002L148.25 390.534L146.322 391.068L158.79 403.537Z" fill="white"/>
<path d="M148.356 402.669L165.388 398.105L164.471 397.187L147.438 401.751L148.356 402.669Z" fill="white"/>
<path d="M143.599 397.912L160.632 393.348L159.714 392.43L142.681 396.994L143.599 397.912Z" fill="white"/>
<path d="M151.931 406.4L169.21 401.77L155.11 387.67L137.83 392.3L151.931 406.4ZM140.031 392.847L154.702 388.916L167.01 401.223L152.338 405.155L140.031 392.847Z" fill="white"/>
<path d="M169.792 399.96L179.149 390.639L166.426 377.916L157.069 387.237L169.792 399.96Z" fill="#7DC8F0"/>
<path d="M173.734 395.739L174.927 394.58L162.484 382.137L161.291 383.296L173.734 395.739Z" fill="white"/>
<path d="M166.29 397.426L176.617 387.14L175.701 386.224L165.374 396.51L166.29 397.426Z" fill="white"/>
<path d="M161.544 392.679L171.87 382.393L170.954 381.477L160.627 391.763L161.544 392.679Z" fill="white"/>
<path d="M169.906 401.191L180.383 390.756L166.311 376.685L155.835 387.12L169.906 401.191ZM157.52 387.227L166.416 378.366L178.698 390.648L169.802 399.509L157.52 387.227Z" fill="white"/>
<path d="M113.668 462.116L127.635 458.373L110.354 441.092L96.3867 444.834L113.668 462.116Z" fill="#75491F"/>
<path d="M114.506 449.579L117.004 452.077C117.215 452.287 117.618 452.395 117.905 452.318C118.193 452.241 118.255 452.008 118.044 451.798L115.546 449.3C115.336 449.09 114.933 448.981 114.645 449.059C114.359 449.136 114.296 449.369 114.506 449.579Z" fill="#916E4C"/>
<path d="M80.4619 466.849L97.3422 462.326L83.3978 448.382L66.5175 452.904L80.4619 466.849Z" fill="#7DC8F0"/>
<path d="M87.6941 464.727L89.8032 464.142L76.1653 450.504L74.0562 451.089L87.6941 464.727Z" fill="white"/>
<path d="M72.1419 459.638L90.7711 454.646L88.828 452.703L70.1991 457.695L72.1419 459.638Z" fill="white"/>
<path d="M80.1918 467.859L99.0906 462.794L83.6686 447.372L64.7695 452.436L80.1918 467.859ZM68.2656 453.373L83.1271 449.391L95.5941 461.858L80.7327 465.84L68.2656 453.373Z" fill="white"/>
<path d="M408.406 133.632L406.171 136.073C406.016 136.248 405.97 136.525 406.072 136.862L412.722 158.229L414.952 155.789L408.307 134.422C408.202 134.082 408.248 133.805 408.406 133.632Z" fill="#DBE6FA"/>
<path d="M414.952 155.789L412.722 158.229C412.933 158.915 413.677 159.593 414.378 159.75L436.325 164.641C436.679 164.717 436.954 164.651 437.115 164.475L439.347 162.031C439.186 162.207 438.911 162.28 438.557 162.198L416.608 157.31C415.906 157.152 415.165 156.471 414.952 155.789Z" fill="#BBCFEF"/>
<path d="M409.862 132.047L407.627 134.488C407.471 134.664 407.425 134.94 407.527 135.277L414.178 156.644L416.407 154.204L409.762 132.837C409.657 132.497 409.703 132.22 409.862 132.047Z" fill="#F04343"/>
<path d="M416.407 154.204L414.178 156.644C414.388 157.33 415.133 158.008 415.834 158.165L437.781 163.056C438.134 163.132 438.409 163.066 438.571 162.89L440.803 160.447C440.641 160.623 440.366 160.695 440.013 160.613L418.063 155.725C417.362 155.567 416.62 154.886 416.407 154.204Z" fill="#E22525"/>
<path d="M410.648 131.882C409.948 131.726 409.55 132.155 409.762 132.836L416.408 154.203C416.621 154.888 417.364 155.568 418.064 155.724L440.013 160.613C440.716 160.77 441.112 160.344 440.899 159.659L434.252 138.292C434.04 137.61 433.3 136.928 432.597 136.771L410.648 131.882Z" fill="#FF6161"/>
<path d="M438.301 157.677C438.418 158.05 438.205 158.284 437.825 158.201L419.05 154.074C418.671 153.991 418.268 153.621 418.151 153.248L412.362 134.819C412.245 134.447 412.457 134.213 412.837 134.296L431.612 138.423C431.991 138.506 432.394 138.876 432.511 139.248L438.301 157.677Z" fill="#2ADC03"/>
<path d="M437.825 158.204L437.261 158.076L419.051 154.075C418.672 153.987 418.27 153.618 418.149 153.247L412.537 135.375L412.362 134.823C412.247 134.447 412.456 134.209 412.836 134.297L431.609 138.425C431.994 138.508 432.396 138.877 432.506 139.248L438.298 157.677C438.419 158.048 438.204 158.282 437.825 158.204Z" fill="#E22525"/>
<path d="M437.261 158.076L419.051 154.075C418.672 153.987 418.27 153.618 418.149 153.247L412.537 135.375L430.741 139.371C431.121 139.459 431.523 139.828 431.638 140.194L437.261 158.076Z" fill="#EBF2FF"/>
<path d="M428.442 146.674C429.059 148.638 427.934 149.878 425.932 149.438C423.926 148.997 421.802 147.043 421.184 145.079C420.566 143.109 421.688 141.873 423.694 142.314C425.695 142.754 427.823 144.705 428.442 146.674Z" fill="#CBDBF4"/>
<path d="M453.169 119.156C428.457 146.002 439.549 133.951 436.572 137.186L426.978 147.612C426.7 147.914 426.221 148.032 425.608 147.902C424.38 147.631 423.076 146.433 422.696 145.228C422.509 144.623 422.59 144.13 422.873 143.822L432.467 133.396C435.819 129.755 423.855 142.752 449.064 115.366C448.078 116.44 449.842 119.012 451.804 119.451C452.286 119.556 452.834 119.521 453.169 119.156Z" fill="#804F59"/>
<path d="M444.361 127.535C444.739 128.74 444.049 129.5 442.822 129.23C441.592 128.96 440.289 127.762 439.911 126.557C439.531 125.35 440.219 124.592 441.45 124.862C442.677 125.132 443.982 126.328 444.361 127.535Z" fill="#804F59"/>
<path d="M432.671 134.138L422.672 131.914C422.11 131.795 421.887 131.101 422.28 130.672C429.403 122.87 426.946 125.561 427.478 124.979C428.301 124.082 428.236 122.681 427.34 121.858L427.334 121.853C426.433 121.035 425.036 121.094 424.208 121.996C423.141 123.165 426.927 119.018 419.01 127.69C416.975 129.924 417.353 133.188 419.327 135.001C419.979 135.6 420.796 136.03 421.708 136.236L429.212 137.905L432.671 134.138Z" fill="#804F59"/>
<path d="M423.418 129.433C422.108 129.38 420.531 128.058 420.112 126.708C420.094 126.651 420.075 126.595 420.068 126.538L424.931 121.208C425.759 120.306 427.156 120.247 428.058 121.065L428.063 121.07C428.96 121.893 429.025 123.295 428.201 124.191L423.418 129.433Z" fill="#613941"/>
<path d="M452.901 119.447L436.572 137.186C435.844 136.652 435.131 136.069 434.448 135.442C433.737 134.789 433.078 134.102 432.467 133.396L448.791 115.663C449.013 115.999 450.887 117.974 452.829 119.391C452.846 119.417 452.874 119.432 452.901 119.447Z" fill="#613941"/>
<path d="M467.153 125.217C467.085 125.261 449.148 137.067 449.073 137.107C447.853 137.762 446.198 137.934 444.232 137.502C438.877 136.321 433.2 131.107 431.539 125.847C430.991 124.084 430.963 122.542 431.367 121.314C431.362 121.309 431.367 121.303 431.367 121.303C431.429 121.123 431.502 120.942 431.581 120.778L431.576 120.772C443.93 98.2041 441.006 103.545 441.463 102.711C440.797 104.504 440.809 106.795 441.631 109.428C444.185 117.538 453.313 125.323 461.028 126.29C463.538 126.624 465.619 126.223 467.147 125.211L467.153 125.217Z" fill="#28AF6E"/>
<path d="M461.028 126.29C460.963 126.333 449.791 133.7 449.72 133.739C448.452 134.411 446.749 134.591 444.713 134.146C438.837 132.851 432.69 126.914 431.367 121.314C431.362 121.309 431.367 121.303 431.367 121.303C431.429 121.123 431.502 120.942 431.581 120.778L431.576 120.772C443.93 98.2041 441.006 103.545 441.463 102.711C440.797 104.504 440.809 106.795 441.631 109.428C444.185 117.538 453.313 125.323 461.028 126.29Z" fill="#22B700"/>
<path d="M459.752 126.068C452.106 124.382 443.993 116.933 441.634 109.432C439.294 101.968 443.509 97.2529 451.071 98.851L454.521 102.658L454.786 100.054C462.334 103.351 469.622 111.622 469.97 118.908L469.965 118.913L469.97 118.919L468.649 120.357L469.794 121.234C468.937 125.214 465.199 127.261 459.752 126.068Z" fill="#2ADC03"/>
<path d="M441.254 121.074C441.188 121.117 430.329 128.267 430.258 128.305C429.515 128.704 428.509 128.809 427.313 128.546C422.89 127.57 418.354 122.142 419.489 118.7C419.486 118.697 419.489 118.694 419.489 118.694C419.527 118.584 419.571 118.474 419.619 118.374L419.616 118.371C427.136 104.634 425.349 107.897 425.629 107.386C423.768 112.398 430.898 120.895 437.529 121.727C439.055 121.93 440.321 121.686 441.25 121.071L441.254 121.074Z" fill="#28AF6E"/>
<path d="M437.529 121.727C437.461 121.771 430.724 126.217 430.651 126.257C427.151 128.114 420.6 123.405 419.489 118.7C419.486 118.697 419.489 118.694 419.489 118.694C419.527 118.584 419.571 118.474 419.619 118.374L419.616 118.371C427.136 104.634 425.349 107.897 425.629 107.386C423.768 112.398 430.898 120.895 437.529 121.727Z" fill="#22B700"/>
<path d="M436.752 121.593C432.103 120.565 427.17 116.036 425.733 111.476C424.6 107.866 425.982 105.316 428.907 104.907L430.453 106.605L431.78 105.161L431.789 105.117C436.377 106.234 441.166 110.684 442.584 115.174C444.016 119.74 441.406 122.616 436.752 121.593Z" fill="#2ADC03"/>
<path d="M469.97 118.919L468.649 120.357L467.381 119.389L469.965 118.913L469.97 118.919Z" fill="white"/>
<path d="M469.97 118.919L468.649 120.357L467.381 119.389L469.965 118.913L469.97 118.919Z" fill="#22B700"/>
<path d="M454.784 100.033L453.454 101.482L454.522 102.659L454.784 100.033Z" fill="#22B700"/>
<path d="M431.52 107.781L430.453 106.605L431.78 105.161L431.52 107.781Z" fill="white"/>
<path d="M431.52 107.781L430.453 106.605L431.78 105.161L431.52 107.781Z" fill="#22B700"/>
<path d="M466.135 113.797C465.391 113.641 464.607 112.921 464.382 112.188C464.158 111.466 464.569 111.007 465.307 111.17C466.051 111.337 466.835 112.057 467.06 112.779C467.29 113.506 466.879 113.965 466.135 113.797Z" fill="#22B700"/>
<path d="M459.424 108.825C458.681 108.669 457.897 107.949 457.672 107.216C457.448 106.494 457.858 106.035 458.597 106.198C459.341 106.365 460.125 107.085 460.349 107.807C460.579 108.534 460.169 108.993 459.424 108.825Z" fill="#22B700"/>
<path d="M454.995 114.279C454.252 114.123 453.468 113.403 453.243 112.67C453.018 111.948 453.429 111.489 454.168 111.652C454.912 111.819 455.696 112.539 455.92 113.261C456.15 113.988 455.74 114.447 454.995 114.279Z" fill="#22B700"/>
<path d="M439.216 115.973C438.408 115.803 437.556 115.02 437.311 114.224C437.067 113.439 437.514 112.94 438.317 113.116C439.126 113.298 439.978 114.081 440.222 114.866C440.472 115.656 440.025 116.155 439.216 115.973Z" fill="#22B700"/>
<path d="M429.892 114.108C429.148 113.952 428.365 113.232 428.14 112.499C427.915 111.777 428.326 111.319 429.065 111.481C429.809 111.648 430.593 112.368 430.817 113.09C431.047 113.817 430.636 114.276 429.892 114.108Z" fill="#22B700"/>
<path d="M435.423 118.446C434.972 118.351 434.497 117.914 434.361 117.47C434.225 117.032 434.474 116.754 434.922 116.853C435.373 116.954 435.848 117.39 435.984 117.828C436.124 118.269 435.874 118.547 435.423 118.446Z" fill="#22B700"/>
<path d="M433.212 110.012C432.761 109.917 432.286 109.481 432.149 109.037C432.013 108.599 432.262 108.321 432.71 108.419C433.161 108.521 433.636 108.957 433.772 109.395C433.912 109.836 433.663 110.114 433.212 110.012Z" fill="#22B700"/>
<path d="M447.856 107.753C446.839 107.539 445.768 106.555 445.46 105.553C445.153 104.566 445.715 103.939 446.725 104.161C447.742 104.39 448.814 105.374 449.121 106.361C449.435 107.355 448.874 107.982 447.856 107.753Z" fill="#22B700"/>
<path d="M457.222 122.075C456.205 121.861 455.134 120.877 454.826 119.875C454.519 118.888 455.081 118.261 456.091 118.483C457.108 118.711 458.18 119.695 458.486 120.683C458.801 121.677 458.239 122.304 457.222 122.075Z" fill="#22B700"/>
<path d="M441.254 121.074L433.117 129.182C432.636 128.385 432.246 127.679 432.028 127.142L441.254 121.074Z" fill="#189453"/>
<path d="M45.6955 123.792L46.8473 160.216L52.9773 155.653L136.842 163.395C137.137 163.435 147.122 159.446 147.122 159.446L141.619 96.8504L81.7256 72.1036L45.6955 123.792Z" fill="black"/>
<path d="M59.8663 103.955L84.3618 154.768L147.122 159.446L122.494 108.357L83.1834 89.5686L59.8663 103.955Z" fill="#EACF95"/>
<path d="M147.122 159.446L193.276 91.6922L167.55 38.3268L121.396 106.08L147.122 159.446Z" fill="#F5E8CD"/>
<path d="M122.959 114.127L172.598 40.9523L171.547 38.771L121.291 110.667L122.959 114.127Z" fill="#A13050"/>
<path d="M54.0606 106.902L83.7314 92.6342L133.187 21.527L105.081 34.2101L54.0606 106.902Z" fill="#AB4662"/>
<path d="M84.8367 94.9272L122.959 114.127L121.907 111.945L83.7314 92.6342L84.8367 94.9272Z" fill="#9D2849"/>
<path d="M83.7314 92.6342L121.907 111.945L171.547 38.771L133.187 21.527L83.7314 92.6342Z" fill="#B8647B"/>
<path d="M54.0606 106.902L54.8085 108.454L84.8367 94.9272L84.5563 94.0035L83.7351 92.642L54.0606 106.902Z" fill="#9D2849"/>
<path d="M172.771 121.793L196.645 123.572L184.934 99.2807L161.061 97.5013L172.771 121.793Z" fill="#EACF95"/>
<path d="M196.645 123.572L217.149 93.4717L205.439 69.1797L184.934 99.2807L196.645 123.572Z" fill="#F5E8CD"/>
<path d="M161.061 97.5013L184.934 99.2807L205.439 69.1797L181.566 67.4006L161.061 97.5013Z" fill="#ECD4A0"/>
<path d="M156.574 96.3966L157.199 97.6938L187.003 105.269L210.303 71.0659L209.678 69.7687L180.499 63.4901L156.574 96.3966Z" fill="#9A425E"/>
<path d="M156.574 96.3966L186.378 103.972L209.678 69.7687L179.873 62.1929L156.574 96.3966Z" fill="#B8647B"/>
<path d="M176.491 117.698L187.945 118.551L182.316 106.876L170.862 106.023L176.491 117.698Z" fill="#7DC8F0"/>
<path d="M181.438 117.949L182.873 118.043L177.369 106.625L175.933 106.53L181.438 117.949Z" fill="#FCF9F2"/>
<path d="M172.892 111.42L185.533 112.362L184.748 110.735L172.108 109.792L172.892 111.42Z" fill="#FCF9F2"/>
<path d="M176.104 118.266L188.928 119.221L182.703 106.309L169.879 105.353L176.104 118.266ZM171.845 106.692L181.929 107.443L186.961 117.881L176.877 117.13L171.845 106.692Z" fill="#FCF9F2"/>
<path d="M78.8106 122.698L91.8065 123.666L85.4206 110.419L72.4248 109.451L78.8106 122.698Z" fill="#7DC8F0"/>
<path d="M84.4237 122.983L86.0522 123.09L79.8071 110.135L78.1784 110.028L84.4237 122.983Z" fill="#FCF9F2"/>
<path d="M74.7278 115.574L89.0697 116.643L88.1798 114.798L73.8381 113.729L74.7278 115.574Z" fill="#FCF9F2"/>
<path d="M78.372 123.342L92.9216 124.426L85.8592 109.776L71.3096 108.691L78.372 123.342ZM73.5403 110.211L84.9817 111.063L90.6909 122.907L79.2496 122.054L73.5403 110.211Z" fill="#FCF9F2"/>
<path d="M90.2627 146.454L103.259 147.422L96.8727 134.176L83.8769 133.207L90.2627 146.454Z" fill="#7DC8F0"/>
<path d="M95.8758 146.739L97.5043 146.846L91.2593 133.891L89.6305 133.784L95.8758 146.739Z" fill="#FCF9F2"/>
<path d="M86.1801 139.331L100.522 140.4L99.6319 138.554L85.2903 137.485L86.1801 139.331Z" fill="#FCF9F2"/>
<path d="M89.8242 147.098L104.374 148.182L97.3113 133.532L82.7618 132.448L89.8242 147.098ZM84.9924 133.967L96.4338 134.82L102.143 146.663L90.7017 145.81L84.9924 133.967Z" fill="#FCF9F2"/>
<path d="M107.91 124.866L120.905 125.835L114.519 112.588L101.524 111.62L107.91 124.866Z" fill="#7DC8F0"/>
<path d="M113.523 125.151L115.151 125.258L108.906 112.303L107.278 112.196L113.523 125.151Z" fill="#FCF9F2"/>
<path d="M103.827 117.743L118.169 118.812L117.279 116.966L102.937 115.897L103.827 117.743Z" fill="#FCF9F2"/>
<path d="M107.471 125.51L122.021 126.594L114.958 111.944L100.409 110.859L107.471 125.51ZM102.639 112.379L114.081 113.232L119.79 125.075L108.349 124.222L102.639 112.379Z" fill="#FCF9F2"/>
<path d="M119.362 148.622L132.357 149.591L125.971 136.344L112.976 135.376L119.362 148.622Z" fill="#7DC8F0"/>
<path d="M124.975 148.907L126.603 149.014L120.358 136.059L118.73 135.952L124.975 148.907Z" fill="#FCF9F2"/>
<path d="M115.279 141.499L129.621 142.568L128.731 140.722L114.389 139.653L115.279 141.499Z" fill="#FCF9F2"/>
<path d="M118.923 149.266L133.473 150.35L126.41 135.7L111.861 134.616L118.923 149.266ZM114.092 136.136L125.533 136.988L131.242 148.831L119.801 147.978L114.092 136.136Z" fill="#FCF9F2"/>
<path d="M165.393 80.7841L172.729 70.0137L166.344 56.7674L159.007 67.5374L165.393 80.7841Z" fill="#7DC8F0"/>
<path d="M168.525 75.9235L169.456 74.5828L163.211 61.6277L162.28 62.9683L168.525 75.9235Z" fill="#FCF9F2"/>
<path d="M161.603 74.269L169.7 62.3831L168.81 60.5371L160.713 72.423L161.603 74.269Z" fill="#FCF9F2"/>
<path d="M165.292 82.1295L173.507 70.0717L166.444 55.4215L158.23 67.4793L165.292 82.1295ZM159.784 67.595L166.243 58.1129L171.952 69.9556L165.493 79.4378L159.784 67.595Z" fill="#FCF9F2"/>
<path d="M141.088 116.105L148.425 105.335L142.039 92.0884L134.702 102.859L141.088 116.105Z" fill="#7DC8F0"/>
<path d="M144.221 111.244L145.152 109.904L138.907 96.9486L137.976 98.2893L144.221 111.244Z" fill="#FCF9F2"/>
<path d="M137.299 109.59L145.395 97.7037L144.505 95.8581L136.409 107.744L137.299 109.59Z" fill="#FCF9F2"/>
<path d="M140.988 117.451L149.202 105.393L142.139 90.7422L133.925 102.8L140.988 117.451ZM135.479 102.916L141.939 93.434L147.648 105.277L141.188 114.759L135.479 102.916Z" fill="#FCF9F2"/>
<path d="M152.54 139.861L159.877 129.091L153.491 115.844L146.154 126.615L152.54 139.861Z" fill="#7DC8F0"/>
<path d="M155.673 135.001L156.604 133.66L150.359 120.705L149.428 122.046L155.673 135.001Z" fill="#FCF9F2"/>
<path d="M148.751 133.346L156.847 121.46L155.957 119.614L147.861 131.5L148.751 133.346Z" fill="#FCF9F2"/>
<path d="M152.44 141.207L160.654 129.149L153.592 114.498L145.378 126.557L152.44 141.207ZM146.932 126.672L153.391 117.191L159.1 129.033L152.641 138.515L146.932 126.672Z" fill="#FCF9F2"/>
<path d="M207.691 107.356L213.687 98.5532L205.87 82.3375L199.874 91.1404L207.691 107.356Z" fill="#454F50"/>
<path d="M207.199 90.2766C206.941 90.6548 206.894 91.2958 207.092 91.708L208.856 95.3673C209.055 95.7795 209.425 95.8074 209.683 95.4286C209.94 95.0504 209.988 94.4094 209.79 93.9972L208.026 90.3383C207.827 89.9261 207.457 89.8984 207.199 90.2766Z" fill="#687071"/>
<defs>
<linearGradient id="paint0_linear_2730_5327" x1="576.415" y1="184.084" x2="555.34" y2="171.364" gradientUnits="userSpaceOnUse">
<stop stop-color="#F5C314"/>
<stop offset="1" stop-color="#EBB90A"/>
</linearGradient>
<linearGradient id="paint1_linear_2730_5327" x1="576.415" y1="184.084" x2="555.342" y2="171.363" gradientUnits="userSpaceOnUse">
<stop stop-color="#F5C314"/>
<stop offset="1" stop-color="#EBB90A"/>
</linearGradient>
<linearGradient id="paint2_linear_2730_5327" x1="576.415" y1="184.084" x2="555.341" y2="171.363" gradientUnits="userSpaceOnUse">
<stop stop-color="#F5C314"/>
<stop offset="1" stop-color="#EBB90A"/>
</linearGradient>
<linearGradient id="paint3_linear_2730_5327" x1="576.415" y1="184.084" x2="555.34" y2="171.364" gradientUnits="userSpaceOnUse">
<stop stop-color="#F5C314"/>
<stop offset="1" stop-color="#EBB90A"/>
</linearGradient>
<linearGradient id="paint4_linear_2730_5327" x1="576.414" y1="184.085" x2="555.341" y2="171.364" gradientUnits="userSpaceOnUse">
<stop stop-color="#F5C314"/>
<stop offset="1" stop-color="#EBB90A"/>
</linearGradient>
<linearGradient id="paint5_linear_2730_5327" x1="739.542" y1="469.894" x2="708.555" y2="460.118" gradientUnits="userSpaceOnUse">
<stop stop-color="#F5C314"/>
<stop offset="1" stop-color="#EBB90A"/>
</linearGradient>
<linearGradient id="paint6_linear_2730_5327" x1="739.541" y1="469.895" x2="708.555" y2="460.119" gradientUnits="userSpaceOnUse">
<stop stop-color="#F5C314"/>
<stop offset="1" stop-color="#EBB90A"/>
</linearGradient>
<linearGradient id="paint7_linear_2730_5327" x1="739.54" y1="469.897" x2="708.555" y2="460.12" gradientUnits="userSpaceOnUse">
<stop stop-color="#F5C314"/>
<stop offset="1" stop-color="#EBB90A"/>
</linearGradient>
<linearGradient id="paint8_linear_2730_5327" x1="739.542" y1="469.894" x2="708.555" y2="460.118" gradientUnits="userSpaceOnUse">
<stop stop-color="#F5C314"/>
<stop offset="1" stop-color="#EBB90A"/>
</linearGradient>
<linearGradient id="paint9_linear_2730_5327" x1="739.542" y1="469.894" x2="708.555" y2="460.118" gradientUnits="userSpaceOnUse">
<stop stop-color="#F5C314"/>
<stop offset="1" stop-color="#EBB90A"/>
</linearGradient>
<linearGradient id="paint10_linear_2730_5327" x1="739.54" y1="469.892" x2="708.553" y2="460.116" gradientUnits="userSpaceOnUse">
<stop stop-color="#F5C314"/>
<stop offset="1" stop-color="#EBB90A"/>
</linearGradient>
<linearGradient id="paint11_linear_2730_5327" x1="739.54" y1="469.892" x2="708.553" y2="460.116" gradientUnits="userSpaceOnUse">
<stop stop-color="#F5C314"/>
<stop offset="1" stop-color="#EBB90A"/>
</linearGradient>
<linearGradient id="paint12_linear_2730_5327" x1="739.539" y1="469.893" x2="708.552" y2="460.118" gradientUnits="userSpaceOnUse">
<stop stop-color="#F5C314"/>
<stop offset="1" stop-color="#EBB90A"/>
</linearGradient>
</defs>
</svg>
