<svg width="85" height="58" viewBox="0 0 85 58" fill="none" xmlns="http://www.w3.org/2000/svg">
<g id="Vector">
<path d="M60.6831 29.8483V48.8484L83.6866 35.5673V16.5672L73.0497 13.6272L60.6831 29.8483Z" fill="#DBDBDB"/>
<path d="M51.8387 43.7423L60.6831 48.8484V29.8483L51.8387 24.742V43.7423Z" fill="#C4C4C4"/>
<path d="M28.8353 57.0231L51.8387 43.7423V24.742L28.8353 38.0231V57.0231Z" fill="#DBDBDB"/>
<path d="M6.69063 22.7088L3.89195 23.6221V42.6222L28.8353 57.0231V31.1095L16.3637 20.0418L6.69063 22.7088Z" fill="#C4C4C4"/>
<path d="M27.2155 40.4557L52.0455 25.8112V24.6023L27.2155 38.5375V40.4557Z" fill="#752628"/>
<path d="M0.689218 23.7421L14.2321 22.2836L51.8387 0.977051L34.7554 4.94033L0.689218 23.7421Z" fill="#A13437"/>
<path d="M14.2321 23.5547L27.2155 40.4557V39.2466L14.2321 22.2836L14.2321 23.5547Z" fill="#752628"/>
<path d="M14.2321 22.2836L27.2155 39.2466L52.0455 24.6023L51.8387 0.977051L14.2321 22.2836Z" fill="#CF4247"/>
<path d="M0.689218 23.7421V24.6023L14.2321 23.5547L14.3062 23.0784L14.2321 22.2884L0.689218 23.7421Z" fill="#752628"/>
<path d="M51.8387 25.9509L61.1666 31.7948V29.8767L51.8387 24.742V25.9509Z" fill="#752628"/>
<path d="M51.8387 0.977051L74.1501 13.6228L85 16.6195L66.4359 6.61846L51.8387 0.977051Z" fill="#BE3D41"/>
<path d="M61.1666 31.7948L74.1501 14.8938V13.6228L61.1666 30.5856V31.7948Z" fill="#752628"/>
<path d="M51.8387 24.742L61.1666 30.5856L74.1501 13.6228L51.8387 0.977051V24.742Z" fill="#A13437"/>
<path d="M74.076 14.4175L74.1501 14.8938L85 17.4794V16.6195L74.1501 13.6272L74.076 14.4175Z" fill="#752628"/>
<path d="M32.8239 50.852L39.621 46.9277V38.0713L32.8239 41.9955V50.852Z" fill="#7DC8F0"/>
<path d="M35.7946 49.0345L36.6503 48.5505V39.8887L35.7946 40.3727V49.0345Z" fill="#A13437"/>
<path d="M32.4719 46.3265L39.973 41.9955V40.7615L32.4719 45.0923V46.3265Z" fill="#A13437"/>
<path d="M32.4175 51.5559L40.0272 47.1625V37.3673L32.4175 41.7606V51.5559ZM33.2303 42.2301L39.2144 38.7752V46.6933L33.2303 50.1482V42.2301Z" fill="#A13437"/>
<path d="M12.9845 44.7506L19.7814 48.6749V39.8186L12.9845 35.894V44.7506Z" fill="#7DC8F0"/>
<path d="M15.9552 46.3734L16.8107 46.8574V38.1958L15.9552 37.7116V46.3734Z" fill="#A13437"/>
<path d="M12.6325 39.8186L20.1337 44.1494V42.9152L12.6325 38.5844V39.8186Z" fill="#A13437"/>
<path d="M12.5781 44.9854L20.1878 49.3788V39.5838L12.5781 35.1902V44.9854ZM13.3909 36.5981L19.3752 40.053V47.9711L13.3909 44.5162V36.5981Z" fill="#A13437"/>
<path d="M43.6762 44.587L50.473 40.6627V31.8063L43.6762 35.7305V44.587Z" fill="#7DC8F0"/>
<path d="M46.6469 42.7695L47.5023 42.2855V33.6237L46.6469 34.1077V42.7695Z" fill="#A13437"/>
<path d="M43.3239 40.0615L50.8251 35.7307V34.4965L43.3239 38.8273V40.0615Z" fill="#A13437"/>
<path d="M43.2698 45.2909L50.8797 40.8975V31.1023L43.2698 35.4959V45.2909ZM44.0826 35.9651L50.0669 32.5102V40.4283L44.0826 43.883V35.9651Z" fill="#A13437"/>
<path d="M6.17335 40.8179L12.9702 44.7422V35.8857L6.17335 31.9613V40.8179Z" fill="#7DC8F0"/>
<path d="M9.14382 42.4406L9.99953 42.9244V34.2628L9.14382 33.7788V42.4406Z" fill="#A13437"/>
<path d="M5.82109 35.8857L13.3223 40.2164V38.9822L5.82109 34.6517V35.8857Z" fill="#A13437"/>
<path d="M5.76671 41.0527L13.3766 45.4459V35.6509L5.76671 31.2573V41.0527ZM6.57952 32.6654L12.5638 36.1201V44.0382L6.57952 40.5833V32.6654Z" fill="#A13437"/>
<path d="M19.757 48.6607L26.5541 52.5851V43.7285L19.757 39.8044V48.6607Z" fill="#7DC8F0"/>
<path d="M22.7277 50.2835L23.5832 50.7675V42.1057L22.7277 41.6217V50.2835Z" fill="#A13437"/>
<path d="M19.405 43.7285L26.9062 48.0593V46.8253L19.405 42.4945V43.7285Z" fill="#A13437"/>
<path d="M19.3509 48.8953L26.9605 53.2887V43.4937L19.3509 39.1001V48.8953ZM20.1634 40.5082L26.1477 43.9631V51.8813L20.1634 48.4266V40.5082Z" fill="#A13437"/>
<path d="M75.4356 40.3313L82.3694 36.3279V22.796L75.4356 26.7991V40.3313Z" fill="#752628"/>
<path d="M81.246 29.3805C81.0459 29.496 80.8837 29.7771 80.8837 30.0081V32.7527C80.8837 32.9838 81.0459 33.0775 81.246 32.9617C81.4459 32.8462 81.6081 32.5654 81.6081 32.3343V29.5898C81.6081 29.3587 81.4457 29.2649 81.246 29.3805Z" fill="#150909"/>
<path d="M62.0331 41.7766L73.724 35.0268V26.8788L62.0331 33.6285V41.7766Z" fill="#7DC8F0"/>
<path d="M61.709 37.6132L74.0479 30.4891V29.3538L61.709 36.4777V37.6132Z" fill="#A13437"/>
<path d="M61.6591 42.4242L74.098 35.2427V26.231L61.6591 33.4127V42.4242ZM62.407 33.8442L73.3504 27.5263V34.811L62.407 41.129V33.8442Z" fill="#A13437"/>
</g>
</svg>
