<svg width="182" height="153" viewBox="0 0 182 153" fill="none" xmlns="http://www.w3.org/2000/svg">
<path d="M7.55469 50.1278V115.596L70.8104 152.117V86.2935L39.1823 46.8389L7.55469 50.1278Z" fill="#EACF95"/>
<path d="M70.8105 152.117L153.21 104.544V35.7871L70.8105 83.3597V152.117Z" fill="#F5E8CD"/>
<path d="M68.3896 92.5598L157.165 41.0761V38.2656L68.3896 88.1018V92.5598Z" fill="#A13050"/>
<path d="M0 50.2835L38.2107 50.3204L125.752 0.905208L89.9758 0L0 50.2835Z" fill="#AB4662"/>
<path d="M38.2109 53.2746L68.3901 92.5602V89.7497L38.2109 50.3203V53.2746Z" fill="#9D2849"/>
<path d="M38.2109 50.3204L68.3901 89.7498L157.165 38.2661L125.752 0.905273L38.2109 50.3204Z" fill="#B8647B"/>
<path d="M0 50.2832V52.2823L38.2107 53.2744L38.3829 52.1674L38.2107 50.3301L0 50.2832Z" fill="#9D2849"/>
<path d="M116.603 125.68L140.664 139.572V108.274L116.603 94.3818V125.68Z" fill="#EACF95"/>
<path d="M140.665 139.572L177.272 118.437V87.1387L140.665 108.274V139.572Z" fill="#F5E8CD"/>
<path d="M116.603 94.381L140.664 108.273L177.272 87.1378L153.21 73.2461L116.603 94.381Z" fill="#ECD4A0"/>
<path d="M112.469 90.9658V92.6371L139.81 115.578L181.407 91.5622V89.8909L154.066 68.6211L112.469 90.9658Z" fill="#9A425E"/>
<path d="M112.469 90.9652L139.81 113.906L181.407 89.8904L154.066 66.9492L112.469 90.9652Z" fill="#B8647B"/>
<path d="M122.555 123.273L134.099 129.938V114.896L122.555 108.23V123.273Z" fill="#7DC8F0"/>
<path d="M127.601 126.028L129.054 126.85V112.139L127.601 111.316V126.028Z" fill="#FCF9F2"/>
<path d="M121.957 114.895L134.697 122.251V120.155L121.957 112.799V114.895Z" fill="#FCF9F2"/>
<path d="M121.864 123.672L134.79 131.133V114.497L121.864 107.034V123.672ZM123.245 109.425L133.409 115.293V128.742L123.245 122.874V109.425Z" fill="#FCF9F2"/>
<path d="M17.915 79.2714L31.0137 86.8334V69.7661L17.915 62.2041V79.2714Z" fill="#7DC8F0"/>
<path d="M23.6396 82.3977L25.2883 83.3303V66.6392L23.6396 65.7061V82.3977Z" fill="#FCF9F2"/>
<path d="M17.2373 69.7656L31.6922 78.1117V75.7332L17.2373 67.3877V69.7656Z" fill="#FCF9F2"/>
<path d="M17.1318 79.7233L31.7965 88.1895V69.3139L17.1318 60.8477V79.7233ZM18.6983 63.5601L30.23 70.218V85.477L18.6983 78.8191V63.5601Z" fill="#FCF9F2"/>
<path d="M17.915 109.879L31.0137 117.441V100.374L17.915 92.8115V109.879Z" fill="#7DC8F0"/>
<path d="M23.6396 113.005L25.2883 113.938V97.2466L23.6396 96.3135V113.005Z" fill="#FCF9F2"/>
<path d="M17.2373 100.374L31.6922 108.719V106.341L17.2373 97.9951V100.374Z" fill="#FCF9F2"/>
<path d="M17.1318 110.331L31.7965 118.797V99.9213L17.1318 91.4551V110.331ZM18.6983 94.1675L30.23 100.825V116.084L18.6983 109.427V94.1675Z" fill="#FCF9F2"/>
<path d="M47.2441 96.2025L60.3423 103.765V86.6978L47.2441 79.1357V96.2025Z" fill="#7DC8F0"/>
<path d="M52.9688 99.3293L54.6174 100.262V83.5703L52.9688 82.6377V99.3293Z" fill="#FCF9F2"/>
<path d="M46.5654 86.6982L61.0209 95.0443V92.6659L46.5654 84.3203V86.6982Z" fill="#FCF9F2"/>
<path d="M46.4609 96.6554L61.1256 105.122V86.246L46.4609 77.7793V96.6554ZM48.0274 80.4923L59.5591 87.1502V102.409L48.0274 95.7513V80.4923Z" fill="#FCF9F2"/>
<path d="M47.2441 126.811L60.3423 134.373V117.306L47.2441 109.744V126.811Z" fill="#7DC8F0"/>
<path d="M52.9688 129.938L54.6174 130.87V114.179L52.9688 113.246V129.938Z" fill="#FCF9F2"/>
<path d="M46.5654 117.307L61.0209 125.653V123.274L46.5654 114.929V117.307Z" fill="#FCF9F2"/>
<path d="M46.4609 127.264L61.1256 135.73V116.854L46.4609 108.388V127.264ZM48.0274 111.101L59.5591 117.759V133.018L48.0274 126.36V111.101Z" fill="#FCF9F2"/>
<path d="M129.558 79.0883L142.656 71.5257V54.459L129.558 62.021V79.0883Z" fill="#7DC8F0"/>
<path d="M135.282 75.5852L136.931 74.6525V57.9609L135.282 58.8935V75.5852Z" fill="#FCF9F2"/>
<path d="M128.879 70.3675L143.334 62.022V59.6436L128.879 67.9891V70.3675Z" fill="#FCF9F2"/>
<path d="M128.774 80.4443L143.439 71.9781V53.1025L128.774 61.5687V80.4443ZM130.341 62.4729L141.873 55.815V71.0735L130.341 77.7314V62.4729Z" fill="#FCF9F2"/>
<path d="M86.3457 103.765L99.4444 96.2025V79.1357L86.3457 86.6978V103.765Z" fill="#7DC8F0"/>
<path d="M92.0713 100.262L93.72 99.3293V82.6377L92.0713 83.5703V100.262Z" fill="#FCF9F2"/>
<path d="M85.667 95.0443L100.122 86.6982V84.3203L85.667 92.6659V95.0443Z" fill="#FCF9F2"/>
<path d="M85.5625 105.122L100.227 96.6554V77.7793L85.5625 86.246V105.122ZM87.129 87.1502L98.6607 80.4923V95.7507L87.129 102.409V87.1502Z" fill="#FCF9F2"/>
<path d="M86.3457 134.373L99.4444 126.811V109.744L86.3457 117.306V134.373Z" fill="#7DC8F0"/>
<path d="M92.0713 130.87L93.72 129.938V113.246L92.0713 114.179V130.87Z" fill="#FCF9F2"/>
<path d="M85.667 125.653L100.122 117.307V114.929L85.667 123.274V125.653Z" fill="#FCF9F2"/>
<path d="M85.5625 135.73L100.227 127.264V108.388L85.5625 116.854V135.73ZM87.129 117.759L98.6607 111.101V126.36L87.129 133.017V117.759Z" fill="#FCF9F2"/>
<path d="M160.387 128.185L171.092 122.004V101.111L160.387 107.292V128.185Z" fill="#454F50"/>
<path d="M168.48 110.081C168.02 110.347 167.646 110.993 167.646 111.524V116.239C167.646 116.77 168.019 116.985 168.48 116.719C168.939 116.454 169.313 115.808 169.313 115.277V110.563C169.313 110.031 168.939 109.816 168.48 110.081Z" fill="#687071"/>
</svg>
