<svg width="89" height="68" viewBox="0 0 89 68" fill="none" xmlns="http://www.w3.org/2000/svg">
<g id="Vector">
<path d="M37.272 67.1621L81.1395 41.8349V20.2625L37.2718 45.5896L37.272 67.1621Z" fill="#C1CCB1"/>
<path d="M5.10805 48.7893L37.272 67.1621L37.2718 45.5896L5.10805 28.3527V48.7893Z" fill="#A3B092"/>
<path d="M47.8041 2.92879L0.733202 30.1053L35.6232 48.63L85.3449 19.9233L60.4716 0.838867L47.8041 2.92879Z" fill="#B7C0C7"/>
<path d="M27.5769 19.831L35.6232 48.63L85.3449 19.9233L60.4716 0.838867L27.5769 19.831Z" fill="#976739"/>
<path d="M0.733202 30.1053L27.5769 19.831L60.4716 0.838867L47.8041 2.92879L0.733202 30.1053Z" fill="#6E4E2F"/>
<path d="M0.733202 30.1053L35.6232 48.63L27.5769 19.831L0.733202 30.1053Z" fill="#825C38"/>
<path d="M57.0912 36.5254V55.7336L68.1526 62.1198L76.407 62.4669L86.5815 56.6362V39.0819L61.0672 38.9765L57.0912 36.5254Z" fill="#ADBA9B"/>
<path d="M57.0912 55.719L68.1526 62.1198V42.8994L57.0912 36.8047V55.719Z" fill="#A3B092"/>
<path d="M76.6332 62.4669L86.5815 56.6362L86.5815 37.7219L76.6332 43.2465V62.4669Z" fill="#B7C5A4"/>
<path d="M60.6116 19.7028L56.2688 36.7102L68.5456 43.7982L77.7073 44.1835L76.6332 28.816L60.6116 19.7028Z" fill="#825C38"/>
<path d="M77.7073 44.1835L89 37.712L76.6332 28.816L77.7073 44.1835Z" fill="#AB7541"/>
<path d="M75.4745 25.6219L60.6816 19.7426L76.7033 28.8558L89 37.712L85.8798 31.6294L75.4745 25.6219Z" fill="#9E6C3C"/>
<path d="M42.4738 59.7699L50.7556 54.9881V44.1968L42.4738 48.9785V59.7699Z" fill="#7DC8F0"/>
<path d="M46.0934 57.555L47.1359 56.9656V46.4114L46.0934 47.0011V57.555Z" fill="white"/>
<path d="M42.0446 54.2555L51.1848 48.9785V47.4748L42.0446 52.7517V54.2555Z" fill="white"/>
<path d="M41.9785 60.6274L51.2509 55.2743V43.339L41.9785 48.6923V60.6274ZM42.969 49.2642L50.2604 45.0546V54.7024L42.969 58.912V49.2642Z" fill="white"/>
<path d="M77.8655 56.5585L86.1109 51.7979V41.0541L77.8655 45.8147V56.5585Z" fill="#7DC8F0"/>
<path d="M81.642 53.9928L82.6292 53.4343V43.4386L81.642 43.9972V53.9928Z" fill="white"/>
<path d="M77.4472 53.9637L85.8038 49.1391V48.4289L77.4472 53.2533V53.9637Z" fill="white"/>
<path d="M77.4472 50.2826L85.8038 45.458V44.7476L77.4472 49.5722V50.2826Z" fill="white"/>
<path d="M77.3867 56.8606L86.3825 51.8065V40.8945L77.3867 45.9488V56.8606ZM78.0266 46.2732L85.8038 41.7753V51.2998L78.0266 55.7975V46.2732Z" fill="white"/>
<path d="M59.7132 51.8936L67.2851 56.2654V46.3992L59.7132 42.0274V51.8936Z" fill="#7DC8F0"/>
<path d="M63.0226 53.7014L63.9758 54.2404V44.5915L63.0226 44.0522V53.7014Z" fill="white"/>
<path d="M59.3211 49.3282L67.6775 54.1525V53.4424L59.3211 48.6178V49.3282Z" fill="white"/>
<path d="M59.3211 45.6469L67.6775 50.4715V49.7611L59.3211 44.9365V45.6469Z" fill="white"/>
<path d="M59.2604 52.1552L67.738 57.0494V46.1376L59.2604 41.2432V52.1552ZM59.9 42.3063L67.0984 46.462V55.9865L59.9 51.8308V42.3063Z" fill="white"/>
<path d="M68.6637 56.5742L75.8909 56.5885V46.7421L68.6637 46.7283V56.5742Z" fill="#7DC8F0"/>
<path d="M71.8224 56.4664L72.7323 56.4795V46.85L71.8224 46.8371V56.4664Z" fill="white"/>
<path d="M68.2892 54.2391L76.2652 54.2548V53.5458L68.2892 53.5301V54.2391Z" fill="white"/>
<path d="M68.2892 50.5656L76.2652 50.5813V49.8723L68.2892 49.8566V50.5656Z" fill="white"/>
<path d="M68.2316 57.095L76.3231 57.1109V46.2214L68.2316 46.2054V57.095ZM68.8421 46.8989L75.7128 46.9125V56.4174L68.8421 56.4038V46.8989Z" fill="white"/>
<path d="M22.8964 58.9082L29.7488 62.8647V49.491L22.8964 45.5345V58.9082Z" fill="#75491F"/>
<path d="M28.0716 54.3816V56.3147C28.0716 56.4776 28.186 56.6754 28.3269 56.7568C28.468 56.8383 28.5821 56.7722 28.5821 56.6093V54.6762C28.5821 54.5136 28.468 54.3155 28.3269 54.2342C28.186 54.1531 28.0716 54.2189 28.0716 54.3816Z" fill="#916E4C"/>
<path d="M8.2161 47.8909L16.4977 52.6726V41.8813L8.2161 37.0996V47.8909Z" fill="#7DC8F0"/>
<path d="M11.8355 49.8684L12.878 50.458V39.9039L11.8355 39.3142V49.8684Z" fill="white"/>
<path d="M7.78695 41.8813L16.9269 47.1583V45.6545L7.78695 40.3778V41.8813Z" fill="white"/>
<path d="M7.72086 48.1771L16.9932 53.5302V41.5954L7.72086 36.242V48.1771ZM8.71109 37.9574L16.0025 42.167V51.8151L8.71109 47.6055V37.9574Z" fill="white"/>
</g>
</svg>
