<svg width="49" height="53" viewBox="0 0 49 53" fill="none" xmlns="http://www.w3.org/2000/svg">
<path d="M43.8831 50.0838L36.7714 51.9677C35.987 52.1756 35.0664 51.871 34.1941 51.0036L41.3057 49.1197C42.1782 49.9869 43.0987 50.2915 43.8831 50.0838Z" fill="#2C353B"/>
<path d="M17.749 11.832L24.8606 9.94809C24.066 10.1586 23.4109 10.8948 23.0868 12.1043L15.9753 13.9883C16.2994 12.7788 16.9544 12.0424 17.749 11.832Z" fill="#3B4951"/>
<path d="M41.3057 49.1197L34.1941 51.0036L15.1597 32.0767L22.2713 30.1927L41.3057 49.1197Z" fill="#2C353B"/>
<path d="M20.2557 22.6705L13.1441 24.5544L15.9753 13.9883L23.0868 12.1043L20.2557 22.6705Z" fill="#3B4951"/>
<path d="M45.6566 47.9279C45.0126 50.3313 43.0615 50.8656 41.3057 49.1197L22.2713 30.1927C20.5155 28.4467 19.6116 25.0739 20.2557 22.6705L23.0868 12.1043C23.7309 9.70087 25.6817 9.16613 27.4376 10.912L46.4721 29.8388C48.2279 31.5847 49.1318 34.9583 48.4878 37.3616L45.6566 47.9279Z" fill="#5D7280"/>
<path d="M22.2713 30.1927L15.1597 32.0767C13.4037 30.3308 12.5001 26.9578 13.1441 24.5544L20.2557 22.6705C19.6116 25.0739 20.5155 28.4467 22.2713 30.1927Z" fill="#3B4951"/>
<path d="M23.9793 24.6182L26.0903 16.7397C26.5423 15.0526 28.0649 14.8411 29.4909 16.2671L43.0005 29.7768C44.4267 31.2029 45.2162 33.7268 44.7642 35.4138L42.6532 43.2922C42.2011 44.9794 40.6785 45.1908 39.2525 43.7647L25.7429 30.2552C24.3167 28.8291 23.5272 26.3053 23.9793 24.6182Z" fill="#3B4951"/>
<path d="M25.6596 24.9693L27.2088 19.1873C27.6608 17.5002 29.1835 17.2888 30.6095 18.7148L41.3202 29.4256C42.7463 30.8516 43.5359 33.3754 43.0839 35.0625L41.5347 40.8445C41.0825 42.5317 39.56 42.743 38.134 41.3169L27.4233 30.6062C25.9971 29.1801 25.2075 26.6565 25.6596 24.9693Z" fill="#D7DAFF"/>
<path d="M35.2566 38.4398L38.4429 26.5482L39.0229 27.1281L35.8365 39.0196L35.2566 38.4398Z" fill="#AEB2F4"/>
<path d="M35.5842 35.7324L37.4879 28.6281L38.6951 29.8354L36.7914 36.9397L35.5842 35.7324Z" fill="#3B4951"/>
<path d="M29.5273 32.7104L32.7136 20.819L33.2935 21.3988L30.1072 33.2903L29.5273 32.7104Z" fill="#AEB2F4"/>
<path d="M29.855 30.0032L31.7586 22.8989L32.9658 24.106L31.0622 31.2103L29.855 30.0032Z" fill="#3B4951"/>
<path d="M38.3904 35.9919L39.2176 32.9046C39.3828 32.2885 39.9388 32.2113 40.4594 32.7321C40.9802 33.2528 41.2685 34.1744 41.1034 34.7905L40.2761 37.8778C40.1111 38.4939 39.5551 38.5711 39.0343 38.0504C38.5137 37.5295 38.2253 36.608 38.3904 35.9919Z" fill="#AEB2F4"/>
<path d="M33.0153 30.6166L33.8425 27.5293C34.0076 26.9132 34.5636 26.836 35.0842 27.3567C35.6049 27.8776 35.8933 28.799 35.7282 29.4151L34.9009 32.5024C34.7359 33.1184 34.1799 33.1958 33.6591 32.675C33.1385 32.1542 32.8502 31.2328 33.0153 30.6166Z" fill="#AEB2F4"/>
<path d="M27.64 25.2416L28.4672 22.1543C28.6323 21.5382 29.1883 21.4609 29.7091 21.9817C30.2297 22.5024 30.5182 23.4239 30.353 24.0401L29.5258 27.1275C29.3608 27.7435 28.8048 27.8208 28.284 27.3001C27.7632 26.7791 27.4749 25.8576 27.64 25.2416Z" fill="#AEB2F4"/>
<path d="M23.981 27.1031L22.55 27.4865L22.5477 27.4778C22.2615 27.5545 21.9162 27.4456 21.5896 27.121C20.9364 26.4718 20.6009 25.2197 20.8396 24.322C20.9599 23.8802 21.2032 23.6155 21.4917 23.5367L21.4909 23.5339L22.9219 23.1505L23.981 27.1031Z" fill="#AEB2F4"/>
<path d="M23.0186 26.7375C22.366 26.085 22.0306 24.8333 22.2695 23.9418C22.5084 23.0503 23.231 22.8566 23.8837 23.5092C24.5363 24.1617 24.8717 25.4134 24.6327 26.305C24.3938 27.1965 23.6712 27.3901 23.0186 26.7375Z" fill="#D7DAFF"/>
<path d="M16.2305 12.9072L14.7256 13.3059L15.0609 12.0549L16.5657 11.6561L16.2305 12.9072Z" fill="#AEB2F4"/>
<path d="M18.3686 21.1305L16.8636 21.5291L13.4356 18.1204L14.9404 17.7217L18.3686 21.1305Z" fill="#888ABF"/>
<path d="M14.9404 17.7217L13.4356 18.1204L13.7744 16.8558L15.2793 16.457L14.9404 17.7217Z" fill="#AEB2F4"/>
<path d="M18.373 21.1348L14.9476 17.7226L15.2785 16.448L2.32751 3.60611L2.65773 2.33104L2.95927 1.24195L3.27279 0.0505615L16.2288 12.9109L16.5646 11.6547L19.99 15.0667L19.3234 17.5981L19.0224 18.6871L18.373 21.1348Z" fill="#D7DAFF"/>
<path d="M15.2793 16.457L13.7744 16.8558L0.824671 3.99661L2.32962 3.59782L15.2793 16.457Z" fill="#888ABF"/>
<path d="M2.32962 3.59782L0.824671 3.99661L1.77592 0.446638L3.28077 0.0480181L2.32962 3.59782Z" fill="#AEB2F4"/>
<path d="M19.0224 18.6871L2.65773 2.33104L2.95927 1.24195L19.3234 17.5981L19.0224 18.6871Z" fill="#AEB2F4"/>
</svg>
