<svg width="49" height="54" viewBox="0 0 49 54" fill="none" xmlns="http://www.w3.org/2000/svg">
<path d="M43.2483 1.6953L47.8131 8.33855C48.2681 9.00069 48.3714 9.92512 48.0425 11.0117L43.4778 4.36847C43.8067 3.2818 43.7033 2.35744 43.2483 1.6953Z" fill="#2C353B"/>
<path d="M23.3584 38.0482L27.9232 44.6916L7.07987 46.3473L2.5152 39.704L23.3584 38.0482Z" fill="#3B4951"/>
<path d="M10.8439 50.6534L6.27907 44.0101C6.09331 43.7398 6.08269 43.3474 6.29339 42.8969C6.71628 41.993 7.86408 41.2085 8.84912 41.1302L13.4139 47.7734C12.4289 47.8517 11.2809 48.6363 10.8582 49.5401C10.6474 49.9907 10.6579 50.383 10.8439 50.6534Z" fill="#AEB2F4"/>
<path d="M5.4025 52.4629L0.837723 45.8196C1.24257 46.4088 2.01157 46.7301 3.06088 46.6468L7.62573 53.2901C6.57635 53.3733 5.80735 53.052 5.4025 52.4629Z" fill="#AEB2F4"/>
<path d="M17.9309 40.4087L22.4956 47.052L13.4139 47.7734L8.84912 41.1302L17.9309 40.4087Z" fill="#AEB2F4"/>
<path d="M18.9975 40.791L23.5622 47.4343C23.3739 47.1603 23.0021 47.0117 22.4956 47.052L17.9309 40.4087C18.4373 40.3685 18.8091 40.5171 18.9975 40.791Z" fill="#AEB2F4"/>
<path d="M24.9792 38.6327L29.5439 45.2761C29.2569 44.8581 28.6957 44.6302 27.9232 44.6916L23.3584 38.0482C24.1311 37.987 24.6922 38.215 24.9792 38.6327Z" fill="#3B4951"/>
<path d="M24.9792 38.6327L29.5439 45.2761C29.8327 45.6963 29.8444 46.3086 29.5157 47.0111L24.9509 40.3678C25.2796 39.6653 25.2679 39.053 24.9792 38.6327Z" fill="#AEB2F4"/>
<path d="M43.4778 4.36847L48.0425 11.0117L38.5016 42.6781L33.9369 36.0348L43.4778 4.36847Z" fill="#2C353B"/>
<path d="M33.9369 36.0348L38.5016 42.6781C38.4614 42.883 38.378 43.0916 38.2799 43.3011L33.7151 36.6579C33.8132 36.4482 33.8966 36.2398 33.9369 36.0348Z" fill="#2C353B"/>
<path d="M24.9509 40.3678L29.5157 47.0111L27.3103 51.7262L22.7456 45.083L24.9509 40.3678Z" fill="#AEB2F4"/>
<path d="M22.7456 45.083L27.3103 51.7262L7.62573 53.2901L3.06088 46.6468L22.7456 45.083Z" fill="#AEB2F4"/>
<path d="M23.3584 38.0482C24.9081 37.925 25.6064 38.9666 24.9509 40.3678L22.7456 45.083L3.06088 46.6468C0.888485 46.8195 -0.0823736 45.2572 0.891973 43.1744L2.5152 39.704L23.3584 38.0482ZM16.4054 43.6699C17.405 43.5905 18.5592 42.7923 18.9818 41.8889C19.4045 40.9851 18.9304 40.3294 17.9309 40.4087L8.84912 41.1302C7.86408 41.2085 6.71628 41.993 6.29339 42.8969C5.87079 43.8003 6.33867 44.4696 7.32371 44.3913L16.4054 43.6699Z" fill="#D7DAFF"/>
<path d="M33.7151 36.6579L38.2799 43.3011L36.3808 47.361L31.816 40.7178L33.7151 36.6579Z" fill="#2C353B"/>
<path d="M26.091 44.8172L30.6558 51.4604L27.3103 51.7262L22.7456 45.083L26.091 44.8172Z" fill="#3B4951"/>
<path d="M31.816 40.7178L36.3808 47.361C35.4067 49.4437 32.8287 51.2878 30.6558 51.4604L26.091 44.8172C28.264 44.6446 30.8419 42.8005 31.816 40.7178Z" fill="#2C353B"/>
<path d="M33.9369 36.0348C33.8966 36.2398 33.8132 36.4482 33.7151 36.6579L31.816 40.7178C30.8419 42.8005 28.264 44.6446 26.091 44.8172L22.7456 45.083L24.9509 40.3678C25.6064 38.9666 24.9081 37.925 23.3584 38.0482L2.5152 39.704L2.79086 39.1146C2.88904 38.9049 3.00142 38.6942 3.1432 38.4812L23.6341 5.9449C25.1613 3.51551 28.1607 1.57511 30.7099 1.37251L40.3131 0.609564C42.8624 0.407066 44.1937 2.00347 43.4778 4.36847L33.9369 36.0348Z" fill="#5D7280"/>
<path d="M36.1877 6.18978L37.2183 7.68985C37.5239 8.13467 37.5419 8.77725 37.1983 9.5119L36.1675 8.01179C36.5111 7.27714 36.4932 6.6346 36.1877 6.18978Z" fill="#888ABF"/>
<path d="M14.8851 34.319L13.8544 32.819C14.164 33.2696 14.7687 33.517 15.5918 33.4517L16.6225 34.9519C15.7996 35.0171 15.1947 34.7696 14.8851 34.319Z" fill="#AEB2F4"/>
<path d="M36.1675 8.01179L37.1983 9.5119L26.8919 31.5447L25.8612 30.0447L36.1675 8.01179Z" fill="#888ABF"/>
<path d="M21.6261 32.9723L22.6569 34.4724L16.6225 34.9519L15.5918 33.4517L21.6261 32.9723Z" fill="#AEB2F4"/>
<path d="M34.4501 5.55716C36.0856 5.42712 36.8593 6.53277 36.1675 8.01179L25.8612 30.0447C25.1695 31.5236 23.2617 32.8424 21.6261 32.9723L15.5918 33.4517C13.9567 33.5818 13.1826 32.476 13.8744 30.997L24.1807 8.96414C24.8725 7.48531 26.7807 6.16641 28.4158 6.03649L34.4501 5.55716Z" fill="#D7DAFF"/>
<path d="M25.8612 30.0447L26.8919 31.5447C26.2 33.0238 24.2926 34.3423 22.6569 34.4724L21.6261 32.9723C23.2617 32.8424 25.1695 31.5236 25.8612 30.0447Z" fill="#888ABF"/>
<path d="M32.9363 14.8256L21.0729 15.768L21.5363 14.7847L33.3998 13.8423L32.9363 14.8256Z" fill="#AEB2F4"/>
<path d="M28.8424 23.5128L16.979 24.4553L17.4424 23.472L29.3057 22.5297L28.8424 23.5128Z" fill="#AEB2F4"/>
<path d="M29.1806 12.098L27.7914 12.2084C27.1445 12.2597 26.879 11.7519 27.1985 11.074L27.6374 10.1425C27.9568 9.46454 28.7403 8.8734 29.3873 8.82197L30.7763 8.7116C31.4233 8.66017 31.6887 9.1681 31.3693 9.84593L30.9305 10.7775C30.6109 11.4553 29.8274 12.0466 29.1806 12.098Z" fill="#5D7280"/>
<path d="M30.5911 7.66787C29.9434 7.71934 29.1054 8.39468 28.7378 9.17439L29.2416 9.13454C29.4502 8.69186 29.9254 8.30884 30.3032 8.27875C30.6989 8.24727 30.8356 8.58169 30.6271 9.02429L31.131 8.98436C31.4986 8.20465 31.2566 7.61506 30.5911 7.66787Z" fill="#5D7280"/>
<path d="M24.6578 21.6957L23.2687 21.806C22.6218 21.8575 22.3562 21.3496 22.6757 20.6717L23.1146 19.7402C23.4341 19.0621 24.2175 18.4711 24.8645 18.4197L26.2535 18.3093C26.9005 18.2579 27.166 18.7657 26.8466 19.4437L26.4077 20.3752C26.0881 21.053 25.3048 21.6443 24.6578 21.6957Z" fill="#5D7280"/>
<path d="M23.8837 28.2232C23.6068 28.8105 22.8617 29.3257 22.2139 29.3771L18.3815 29.6816C17.7336 29.7332 17.4353 29.3009 17.7123 28.7135C17.9893 28.1256 18.7338 27.611 19.3817 27.5594L20.0651 27.5051C20.0781 27.4413 20.1089 27.3759 20.1396 27.3106C20.4165 26.7224 21.1615 26.208 21.8094 26.1564L21.9711 26.1436C22.6189 26.0922 22.9179 26.5239 22.6408 27.1118C22.6099 27.1773 22.5792 27.2426 22.5304 27.3094L23.2139 27.2552C23.862 27.2034 24.1608 27.6351 23.8837 28.2232Z" fill="#5D7280"/>
<path d="M27.7399 16.6874C27.4777 16.3081 26.5555 16.4786 25.6882 17.0781L25.8921 17.3731C26.3844 17.0327 26.9076 16.9362 27.0604 17.1573C27.2207 17.3891 26.9452 17.844 26.4529 18.1843L26.6569 18.4794C27.5242 17.8796 28.0093 17.0771 27.7399 16.6874Z" fill="#5D7280"/>
<path d="M30.9134 33.6563L31.8089 34.9517L31.7948 34.9614C32.0673 35.3556 32.0734 35.9334 31.7691 36.6019C31.1366 37.9336 29.441 39.1057 27.9717 39.227C27.2251 39.2849 26.7004 39.0656 26.4279 38.6714L25.5325 37.376L26.7096 36.5623C27.3676 35.567 28.5588 34.7435 29.7223 34.4797L30.9134 33.6563Z" fill="#AEB2F4"/>
<path d="M30.8823 35.3059C30.2531 36.6413 28.5499 37.8187 27.0782 37.9356C25.6067 38.0524 24.9237 37.0648 25.5531 35.7294C26.1823 34.394 27.8855 33.2166 29.3572 33.0997C30.8288 32.9829 31.5116 33.9707 30.8823 35.3059Z" fill="#D7DAFF"/>
</svg>
