<svg width="89" height="63" viewBox="0 0 89 63" fill="none" xmlns="http://www.w3.org/2000/svg">
<path d="M43.7205 46.6023C41.031 43.2076 31.9491 41.7969 31.9491 41.7969L34.6276 53.9435C34.6276 53.9435 46.4099 49.9971 43.7205 46.6023Z" fill="black"/>
<path d="M58.0581 0.759456L48.3428 10.4748L58.8531 49.6998L78.4657 54.955L88.181 45.2397L67.9552 15.7298L58.0581 0.759456Z" fill="#308D43"/>
<path d="M50.8355 7.9821L41.1201 17.6974L51.6303 56.9226L71.2431 62.1777L80.9584 52.4624L60.7326 22.9525L50.8355 7.9821Z" fill="#308D43"/>
<path d="M44.7062 14.111L43.9127 14.9045L54.423 54.1299L74.0358 59.3849L74.8293 58.5914L55.2167 53.3362L44.7062 14.111Z" fill="#449855"/>
<path d="M46.512 12.3052L45.7183 13.0989L56.2288 52.3241L75.8414 57.5793L76.6349 56.7858L57.0223 51.5306L46.512 12.3052Z" fill="#449855"/>
<path d="M48.3176 10.4996L47.5239 11.2933L58.0344 50.5185L77.647 55.7737L78.4407 54.9801L58.8279 49.725L48.3176 10.4996Z" fill="#449855"/>
<path d="M50.1232 8.694L49.3297 9.48751L59.84 48.7129L79.4528 53.9679L80.2463 53.1744L60.6335 47.9194L50.1232 8.694Z" fill="#449855"/>
<path d="M42.9006 15.9166L42.1071 16.7101L52.6174 55.9355L72.23 61.1907L73.0237 60.397L53.4111 55.1418L42.9006 15.9166Z" fill="#449855"/>
<path d="M51.929 6.88823L51.1353 7.6819L61.6458 46.9071L81.2584 52.1623L82.0519 51.3688L62.4393 46.1136L51.929 6.88823Z" fill="#449855"/>
<path d="M53.7346 5.08262L52.9409 5.87629L63.4514 45.1015L83.064 50.3567L83.8577 49.5631L64.2449 44.308L53.7346 5.08262Z" fill="#449855"/>
<path d="M55.5402 3.27701L54.7465 4.07069L65.257 43.2959L84.8698 48.551L85.6633 47.7575L66.0507 42.5022L55.5402 3.27701Z" fill="#449855"/>
<path d="M57.3458 1.4714L56.5523 2.26491L67.0626 41.4903L86.6754 46.7454L87.4689 45.9518L67.8561 40.6968L57.3458 1.4714Z" fill="#449855"/>
<path d="M10.3938 8.26251L0.678494 17.9778L5.9338 37.5904L45.1588 48.1007L54.8743 38.3853L39.9037 28.488L10.3938 8.26251Z" fill="#308D43"/>
<path d="M10.3938 8.26251L15.6492 27.8749L54.8743 38.3853L49.619 18.7727L10.3938 8.26251Z" fill="#58A368"/>
<path d="M49.7957 30.8864L48.118 24.6253C45.7935 23.6343 43.5809 21.3895 42.6442 19.06L18.7384 12.6545C18.9363 14.7665 17.6215 16.0252 15.4724 15.7617L17.1501 22.0231C19.4746 23.0141 21.687 25.2588 22.6237 27.5886L46.5293 33.994C46.332 31.8818 47.6465 30.6229 49.7957 30.8864Z" fill="#EDEDED"/>
<path d="M38.3437 24.8537C37.4989 21.7002 34.2577 18.4591 31.1042 17.6142C27.9508 16.7693 26.0795 18.6405 26.9246 21.7938C27.7695 24.9473 31.0106 28.1885 34.1641 29.0333C37.3174 29.8784 39.1886 28.0072 38.3437 24.8537Z" fill="#58A368"/>
<path d="M35.4631 26.9382C35.745 26.6775 35.807 26.2509 35.6479 25.6576C35.5096 25.1419 35.2228 24.6584 34.7859 24.205C34.3494 23.7506 33.7017 23.2779 32.8429 22.786L32.2983 20.7532C32.9425 20.9891 33.5542 21.325 34.1372 21.7645L33.7493 20.3162C33.3212 20.0088 32.7261 19.7375 31.9621 19.4985L31.7007 18.5232L30.9181 18.3134L31.1856 19.3111C30.5487 19.1992 30.0839 19.2875 29.7937 19.5777C29.5028 19.8653 29.4327 20.291 29.5829 20.8515C29.7226 21.373 29.9945 21.8575 30.3973 22.3013C30.7998 22.7463 31.4616 23.2363 32.3805 23.7711L32.9036 25.7231C32.5758 25.6154 32.1885 25.4349 31.7387 25.182C31.2887 24.9292 30.938 24.6899 30.6853 24.4667L31.0832 25.9515C31.7968 26.4447 32.5164 26.7904 33.2425 26.9878L33.5458 28.1197L34.3285 28.3293L34.0168 27.1657C34.6994 27.2756 35.1812 27.2002 35.4631 26.9382ZM30.9849 21.1425C30.8702 20.7143 31.0489 20.5214 31.5214 20.5656L31.9767 22.2652C31.4142 21.8843 31.0835 21.5109 30.9849 21.1425ZM33.6803 25.9112L33.245 24.2859C33.8162 24.6454 34.147 24.9987 34.241 25.3492C34.357 25.7827 34.1709 25.9695 33.6803 25.9112Z" fill="#EDEDED"/>
<path d="M4.26491 14.3914L3.47123 15.1851L8.72647 34.7977L47.9517 45.3082L48.7453 44.5145L9.51998 34.0042L4.26491 14.3914Z" fill="#449855"/>
<path d="M6.07051 12.5858L5.27701 13.3793L10.5321 32.9921L49.7575 43.5024L50.551 42.7089L11.3258 32.1984L6.07051 12.5858Z" fill="#449855"/>
<path d="M7.87612 10.7802L7.08261 11.5737L12.3379 31.1863L51.5631 41.6968L52.3567 40.9031L13.1314 30.3928L7.87612 10.7802Z" fill="#449855"/>
<path d="M9.6819 8.97442L8.88823 9.76809L14.1435 29.3807L53.3687 39.8912L54.1623 39.0975L14.937 28.5872L9.6819 8.97442Z" fill="#449855"/>
<path d="M2.45913 16.1972L1.66562 16.9907L6.92086 36.6033L46.1461 47.1138L46.9397 46.3201L7.71437 35.8098L2.45913 16.1972Z" fill="#449855"/>
<path d="M58.0581 0.759456L68.5684 39.9845L88.181 45.2397L77.6707 6.01441L58.0581 0.759456Z" fill="#58A368"/>
<path d="M83.8228 37.0202L77.4173 13.1144C75.0926 12.1235 72.8801 9.87853 71.9434 7.54905L65.682 5.87139C65.8799 7.98342 64.5652 9.24213 62.416 8.97862L68.8216 32.8844C71.1461 33.8755 73.3584 36.1203 74.2953 38.4499L80.5565 40.1274C80.3589 38.0157 81.6737 36.757 83.8228 37.0202Z" fill="#EDEDED"/>
<path d="M78.8291 24.5295C77.9843 21.376 74.7431 18.1349 71.5897 17.29C68.4362 16.4451 66.5651 18.3162 67.41 21.4697C68.2549 24.6231 71.496 27.8643 74.6495 28.7092C77.8028 29.5539 79.674 27.6827 78.8291 24.5295Z" fill="#58A368"/>
<path d="M77.1493 24.4324L78.1246 24.6937L77.9147 23.911L76.9171 23.6437C76.6787 22.973 76.3084 22.385 75.8058 21.8823C75.3058 21.3803 74.7735 21.0538 74.2133 20.9037C73.6916 20.7638 73.2894 20.7981 73.0093 21.0069C72.728 21.2149 72.5441 21.6962 72.4569 22.4483L70.5051 21.9254C70.4403 21.609 70.4251 21.266 70.4576 20.8928C70.49 20.5192 70.5636 20.2524 70.6753 20.0893L69.1906 19.6914C69.0331 20.2307 69.0492 20.8619 69.2406 21.5867L68.1087 21.2834L68.3183 22.0661L69.4819 22.3778C69.7496 23.1032 70.1147 23.703 70.58 24.1796C71.0439 24.6558 71.5721 24.9735 72.1652 25.1324C72.6811 25.2708 73.0736 25.2184 73.345 24.9761C73.6175 24.7342 73.7895 24.2592 73.8618 23.5515L75.8946 24.0964C75.994 24.704 75.9594 25.2166 75.7887 25.6362L77.2372 26.0244C77.3451 25.7073 77.3146 25.177 77.1493 24.4324ZM71.7088 23.6859C71.2756 23.5699 70.9524 23.2474 70.7365 22.7143L72.3618 23.1496C72.2764 23.6019 72.0595 23.7797 71.7088 23.6859ZM73.9629 22.8522C74.0781 22.4224 74.3184 22.2564 74.6868 22.355C75.115 22.4697 75.4408 22.7875 75.6626 23.3076L73.9629 22.8522Z" fill="#EDEDED"/>
<path d="M47.8516 57.4869C46.8731 53.8352 43.1196 50.0816 39.4677 49.103C37.8709 48.6749 36.6454 48.453 36.6454 48.453C36.6454 48.453 35.4521 49.6512 35.3542 49.7445C34.445 50.6156 34.1306 52.0878 34.6276 53.9435C35.6061 57.5954 39.3593 61.3487 43.0108 62.3266C44.8368 62.8162 46.2918 62.519 47.1676 61.6432C47.2124 61.5984 48.448 60.3498 48.448 60.3498C48.448 60.3498 48.316 59.2197 47.8516 57.4869Z" fill="url(#paint0_linear_2644_7307)"/>
<path d="M49.1856 56.1528C48.2072 52.5011 44.4536 48.7476 40.8018 47.769C37.1499 46.7903 34.9829 48.9574 35.9613 52.6094C36.9401 56.261 40.6937 60.0146 44.3449 60.9929C47.9967 61.9715 50.1641 59.8041 49.1856 56.1528Z" fill="#FED416"/>
<path d="M49.5588 55.7797C48.5805 52.1279 44.8269 48.3743 41.1749 47.3958C39.5781 46.9678 38.3525 46.7458 38.3525 46.7458C38.3525 46.7458 37.1593 47.9441 37.0614 48.0374C36.1522 48.9084 35.8375 50.3803 36.3343 52.2361C37.3128 55.8881 41.0663 59.6417 44.7178 60.6196C46.544 61.109 47.9989 60.8119 48.8746 59.9362C48.9194 59.8914 50.155 58.6428 50.155 58.6428C50.155 58.6428 50.0231 57.5125 49.5588 55.7797Z" fill="url(#paint1_linear_2644_7307)"/>
<path d="M50.8928 54.4456C49.9145 50.7938 46.1609 47.0402 42.5089 46.0618C38.8571 45.0832 36.6901 47.2502 37.6685 50.9022C38.6473 54.5539 42.4009 58.3074 46.052 59.2857C49.704 60.2642 51.8713 58.097 50.8928 54.4456Z" fill="#FED416"/>
<path d="M51.281 54.0575C50.3025 50.4058 46.5489 46.6522 42.8971 45.6736C41.3003 45.2455 40.0748 45.0236 40.0748 45.0236C40.0748 45.0236 38.8814 46.222 38.7834 46.3153C37.8742 47.1864 37.5595 48.6582 38.0565 50.5139C39.035 54.1658 42.7886 57.9194 46.4401 58.8974C48.2661 59.3869 49.721 59.0898 50.5969 58.2139C50.6416 58.1692 51.8771 56.9207 51.8771 56.9207C51.8771 56.9207 51.7453 55.7903 51.281 54.0575Z" fill="url(#paint2_linear_2644_7307)"/>
<path d="M52.615 52.7234C51.6366 49.0717 47.883 45.3182 44.2312 44.3395C40.5794 43.3609 38.4121 45.5281 39.3908 49.18C40.3696 52.8316 44.1231 56.5852 47.7743 57.5635C51.4261 58.5421 53.5935 56.3747 52.615 52.7234Z" fill="#FED416"/>
<path d="M53.0335 52.3049C52.055 48.6533 48.3015 44.8997 44.6497 43.9211C43.0529 43.493 41.8275 43.2709 41.8275 43.2709C41.8275 43.2709 40.6341 44.4693 40.5361 44.5626C39.6271 45.4335 39.3122 46.9055 39.8092 48.7612C40.7877 52.4131 44.5413 56.1667 48.1928 57.1447C50.0189 57.6341 51.4737 57.3371 52.3496 56.4612C52.3943 56.4165 53.6298 55.1681 53.6298 55.1681C53.6298 55.1681 53.4977 54.0379 53.0335 52.3049Z" fill="url(#paint3_linear_2644_7307)"/>
<path d="M54.3677 50.9708C53.3892 47.3191 49.6356 43.5655 45.9838 42.5869C42.3318 41.6085 40.1648 43.7755 41.1434 47.4273C42.1222 51.079 45.8758 54.8326 49.5269 55.8109C53.1787 56.7895 55.346 54.6223 54.3677 50.9708Z" fill="#FED416"/>
<path d="M54.7529 50.5855C53.7745 46.9338 50.0209 43.1803 46.3691 42.2016C44.7723 41.7736 43.5467 41.5517 43.5467 41.5517C43.5467 41.5517 42.3533 42.75 42.2555 42.8432C41.3464 43.7142 41.0316 45.1861 41.5285 47.0419C42.507 50.6939 46.2605 54.4475 49.912 55.4254C51.7382 55.9148 53.1931 55.6177 54.0688 54.742C54.1136 54.6972 55.3492 53.4486 55.3492 53.4486C55.3492 53.4486 55.2171 52.3185 54.7529 50.5855Z" fill="url(#paint4_linear_2644_7307)"/>
<path d="M56.0871 49.2513C55.1086 45.5997 51.3551 41.8461 47.7032 40.8675C44.0514 39.8889 41.8842 42.0561 42.8628 45.7079C43.8416 49.3596 47.5952 53.1131 51.2463 54.0914C54.8982 55.0701 57.0654 52.9028 56.0871 49.2513Z" fill="#FED416"/>
<defs>
<linearGradient id="paint0_linear_2644_7307" x1="49.4149" y1="25.4221" x2="28.3405" y2="12.7017" gradientUnits="userSpaceOnUse">
<stop stop-color="#F5C314"/>
<stop offset="1" stop-color="#EBB90A"/>
</linearGradient>
<linearGradient id="paint1_linear_2644_7307" x1="49.415" y1="25.422" x2="28.3415" y2="12.7013" gradientUnits="userSpaceOnUse">
<stop stop-color="#F5C314"/>
<stop offset="1" stop-color="#EBB90A"/>
</linearGradient>
<linearGradient id="paint2_linear_2644_7307" x1="49.4155" y1="25.4215" x2="28.341" y2="12.7013" gradientUnits="userSpaceOnUse">
<stop stop-color="#F5C314"/>
<stop offset="1" stop-color="#EBB90A"/>
</linearGradient>
<linearGradient id="paint3_linear_2644_7307" x1="49.4149" y1="25.4221" x2="28.3405" y2="12.7017" gradientUnits="userSpaceOnUse">
<stop stop-color="#F5C314"/>
<stop offset="1" stop-color="#EBB90A"/>
</linearGradient>
<linearGradient id="paint4_linear_2644_7307" x1="49.4142" y1="25.4228" x2="28.3408" y2="12.702" gradientUnits="userSpaceOnUse">
<stop stop-color="#F5C314"/>
<stop offset="1" stop-color="#EBB90A"/>
</linearGradient>
</defs>
</svg>
