<svg width="89" height="119" viewBox="0 0 89 119" fill="none" xmlns="http://www.w3.org/2000/svg">
<path d="M65.3655 20.3283C65.3655 20.3283 28.3711 11.0274 1.04721 58.3538C-1.73746 63.177 -0.418268 80.048 23.0601 93.6033C46.5385 107.159 61.2868 100.77 64.5935 95.0423C91.7433 48.0174 65.3655 20.3283 65.3655 20.3283Z" fill="#2D6EA1"/>
<path d="M74.1425 5.12604C66.9461 0.97122 60.3043 -0.437303 58.9734 1.86783C55.7135 7.51411 54.7535 12.5571 54.5582 16.5842C50.5863 23.4638 59.331 30.7803 59.331 30.7803C59.331 30.7803 70.4897 34.0983 74.0578 27.9182C77.3293 25.7143 81.3957 22.0942 84.5483 16.6338C85.6694 14.6927 81.3388 9.28086 74.1425 5.12604Z" fill="#3D85BD"/>
<path d="M68.9487 30.1825C63.864 30.169 57.6794 26.5983 55.1304 22.2045C53.855 20.0072 53.7302 18.0203 54.5582 16.5842L52.151 20.7537C51.3222 22.1891 51.4525 24.1746 52.7196 26.372C55.2727 30.7657 61.454 34.3345 66.5313 34.3462C69.0724 34.3475 70.8547 33.4662 71.6834 32.0308L74.0578 27.9182C73.2145 29.3204 71.4544 30.188 68.9487 30.1825Z" fill="#ECC127"/>
<path d="M61.8662 74.5391C61.3334 73.5657 60.0846 72.7019 58.1237 71.9449L60.7926 66.5033C62.5668 66.6872 63.9974 67.184 65.09 68.0011L66.9916 64.1241C66.1553 63.5677 64.6378 63.2442 62.4401 63.1446L63.7205 60.5338L61.3897 60.5324L60.0797 63.2031C58.0498 63.3715 56.1813 63.9845 54.4804 65.045C52.7828 66.0989 51.5635 67.3802 50.8277 68.8805C50.1425 70.2771 50.017 71.4641 50.4517 72.4331C50.8843 73.4059 52.1433 74.3089 54.2234 75.1425L51.6607 80.3675C50.7296 80.3097 49.751 80.0877 48.7128 79.705C47.674 79.3226 46.96 78.903 46.5607 78.4547L44.6113 82.429C46.0497 83.3012 47.8443 83.7433 50 83.7526L48.5137 86.7829L50.8444 86.7843L52.3723 83.6698C54.5726 83.4597 56.4722 82.871 58.0788 81.8982C59.6832 80.9287 60.875 79.6514 61.6539 78.0635C62.3319 76.6825 62.402 75.5096 61.8662 74.5391ZM55.1967 68.6388C55.7589 67.4926 56.8386 66.799 58.4323 66.5622L56.2006 71.1118C55.0491 70.4473 54.7128 69.6252 55.1967 68.6388ZM54.0202 80.3116L56.1542 75.9609C57.3865 76.5568 57.7692 77.3208 57.3087 78.2592C56.7397 79.4188 55.6478 80.1012 54.0202 80.3116Z" fill="#FFC740"/>
<path d="M65.4976 5.13946C65.4976 5.13946 62.5293 6.96878 62.4671 7.29313C62.4049 7.61748 61.199 13.8836 61.199 13.8836C61.199 13.8836 57.6468 19.7716 57.1797 21.6007L62.0468 14.5463L63.1292 7.47706L65.4976 5.13946Z" fill="#2D6EA1"/>
<path d="M77.0989 15.5818L78.156 12.0074C78.156 12.0074 76.2078 15.1271 76.1549 15.4529C76.1024 15.779 72.3031 20.1957 72.3031 20.1957C72.3031 20.1957 70.7485 26.8689 70.3364 28.711L73.1557 20.7462L77.0989 15.5818Z" fill="#2D6EA1"/>
<path d="M80.518 106.256C78.2048 102.268 72.593 99.0279 67.983 99.0184C65.9668 99.0141 64.4538 99.1362 64.4538 99.1362C64.4538 99.1362 63.4299 100.918 63.3445 101.058C62.5512 102.366 62.6488 104.195 63.8241 106.222C66.1372 110.21 71.7488 113.45 76.3585 113.459C78.6638 113.464 80.282 112.66 81.0346 111.356C81.0731 111.29 82.1307 109.436 82.1307 109.436C82.1307 109.436 81.6158 108.148 80.518 106.256Z" fill="url(#paint0_linear_2644_7308)"/>
<path d="M81.6644 104.27C79.3512 100.282 73.7394 97.0423 69.1294 97.0328C64.5192 97.0235 62.6572 100.249 64.9703 104.236C67.2836 108.224 72.8954 111.464 77.5049 111.473C82.1151 111.483 83.9772 108.257 81.6644 104.27Z" fill="#FED416"/>
<path d="M81.985 103.715C79.6719 99.7268 74.0601 96.4868 69.4499 96.4775C67.4338 96.4732 65.9208 96.5953 65.9208 96.5953C65.9208 96.5953 64.8968 98.3769 64.8114 98.5174C64.0182 99.8255 64.1156 101.654 65.2909 103.681C67.604 107.669 73.2158 110.909 77.8255 110.918C80.1308 110.923 81.749 110.119 82.5016 108.815C82.54 108.749 83.5977 106.895 83.5977 106.895C83.5977 106.895 83.0826 105.607 81.985 103.715Z" fill="url(#paint1_linear_2644_7308)"/>
<path d="M83.1312 101.729C80.818 97.7417 75.2062 94.5017 70.5962 94.4922C65.986 94.4829 64.124 97.7079 66.4371 101.696C68.7504 105.683 74.3622 108.923 78.9717 108.933C83.5819 108.942 85.444 105.717 83.1312 101.729Z" fill="#FED416"/>
<path d="M83.4648 101.152C81.1516 97.1639 75.5398 93.9239 70.9298 93.9144C68.9136 93.91 67.4006 94.0322 67.4006 94.0322C67.4006 94.0322 66.3765 95.814 66.2913 95.9543C65.4981 97.2623 65.5954 99.0913 66.7709 101.118C69.0839 105.106 74.6956 108.346 79.3054 108.355C81.6107 108.36 83.229 107.556 83.9816 106.252C84.02 106.185 85.0777 104.331 85.0777 104.331C85.0777 104.331 84.5625 103.044 83.4648 101.152Z" fill="url(#paint2_linear_2644_7308)"/>
<path d="M84.6111 99.1662C82.2978 95.1785 76.686 91.9386 72.076 91.929C67.4658 91.9198 65.6039 95.1448 67.917 99.1327C70.2302 103.12 75.842 106.36 80.4515 106.37C85.0615 106.379 86.9238 103.153 84.6111 99.1662Z" fill="#FED416"/>
<path d="M84.9706 98.5436C82.6573 94.5559 77.0455 91.316 72.4355 91.3064C70.4193 91.3021 68.9063 91.4242 68.9063 91.4242C68.9063 91.4242 67.8822 93.206 67.797 93.3463C67.0038 94.6544 67.1011 96.4834 68.2764 98.5101C70.5896 102.498 76.2014 105.738 80.811 105.747C83.1164 105.752 84.7345 104.948 85.4871 103.644C85.5256 103.578 86.5832 101.724 86.5832 101.724C86.5832 101.724 86.0682 100.436 84.9706 98.5436Z" fill="url(#paint3_linear_2644_7308)"/>
<path d="M86.1168 96.5582C83.8035 92.5706 78.1917 89.3306 73.5817 89.3211C68.9715 89.3118 67.1096 92.5368 69.4227 96.5247C71.736 100.512 77.3477 103.752 81.9572 103.762C86.5674 103.771 88.4295 100.546 86.1168 96.5582Z" fill="#FED416"/>
<path d="M86.4479 95.9847C84.1347 91.997 78.5229 88.7571 73.9128 88.7475C71.8967 88.7432 70.3837 88.8653 70.3837 88.8653C70.3837 88.8653 69.3596 90.6471 69.2744 90.7874C68.4811 92.0955 68.5785 93.9245 69.7538 95.9512C72.0669 99.9391 77.6787 103.179 82.2884 103.188C84.5937 103.193 86.2119 102.389 86.9645 101.085C87.0029 101.019 88.0606 99.1647 88.0606 99.1647C88.0606 99.1647 87.5455 97.877 86.4479 95.9847Z" fill="url(#paint4_linear_2644_7308)"/>
<path d="M87.5942 93.9993C85.2809 90.0117 79.6691 86.7717 75.0591 86.7622C70.4489 86.7529 68.5869 89.9779 70.9001 93.9658C73.2133 97.9535 78.8251 101.193 83.4346 101.203C88.0448 101.212 89.9069 97.9866 87.5942 93.9993Z" fill="#FED416"/>
<path d="M64.118 111.297C61.8048 107.309 56.193 104.07 51.5829 104.06C49.5671 104.056 48.0538 104.178 48.0538 104.178C48.0538 104.178 47.03 105.96 46.9447 106.1C46.1515 107.408 46.2488 109.237 47.4238 111.263C49.7368 115.251 55.3489 118.492 59.9585 118.5C62.2637 118.506 63.882 117.701 64.6346 116.398C64.673 116.331 65.7307 114.477 65.7307 114.477C65.7307 114.477 65.2155 113.189 64.118 111.297Z" fill="url(#paint5_linear_2644_7308)"/>
<path d="M65.2644 109.312C62.9511 105.324 57.3393 102.084 52.7293 102.074C48.1194 102.065 46.2574 105.29 48.5703 109.278C50.8836 113.266 56.4956 116.506 61.1048 116.515C65.7146 116.524 67.5769 113.299 65.2644 109.312Z" fill="#FED416"/>
<path d="M65.585 108.756C63.2717 104.769 57.6599 101.529 53.0499 101.519C51.034 101.515 49.5208 101.637 49.5208 101.637C49.5208 101.637 48.4969 103.419 48.4117 103.559C47.6185 104.867 47.7158 106.696 48.8909 108.723C51.2039 112.711 56.8159 115.951 61.4254 115.96C63.7306 115.965 65.349 115.161 66.1016 113.857C66.14 113.79 67.1975 111.937 67.1975 111.937C67.1975 111.937 66.6824 110.648 65.585 108.756Z" fill="url(#paint6_linear_2644_7308)"/>
<path d="M66.7312 106.771C64.418 102.783 58.8062 99.5433 54.1961 99.5338C49.5862 99.5247 47.7243 102.75 50.0371 106.737C52.3505 110.725 57.9626 113.965 62.5717 113.974C67.1816 113.983 69.0437 110.758 66.7312 106.771Z" fill="#FED416"/>
<path d="M67.0647 106.193C64.7516 102.205 59.1398 98.9655 54.5296 98.9562C52.5137 98.9521 51.0005 99.074 51.0005 99.074C51.0005 99.074 49.9768 100.856 49.8914 100.996C49.0981 102.304 49.1955 104.133 50.3706 106.16C52.6837 110.148 58.2957 113.388 62.9051 113.397C65.2105 113.402 66.8286 112.598 67.5813 111.294C67.6197 111.228 68.6773 109.373 68.6773 109.373C68.6773 109.373 68.162 108.086 67.0647 106.193Z" fill="url(#paint7_linear_2644_7308)"/>
<path d="M68.2109 104.208C65.8978 100.22 60.286 96.9801 55.6759 96.9708C51.0659 96.9617 49.204 100.187 51.5168 104.174C53.8301 108.162 59.4422 111.402 64.0514 111.411C68.6613 111.42 70.5236 108.195 68.2109 104.208Z" fill="#FED416"/>
<defs>
<linearGradient id="paint0_linear_2644_7308" x1="53.5418" y1="50.2317" x2="22.5552" y2="40.4558" gradientUnits="userSpaceOnUse">
<stop stop-color="#F5C314"/>
<stop offset="1" stop-color="#EBB90A"/>
</linearGradient>
<linearGradient id="paint1_linear_2644_7308" x1="53.5412" y1="50.2327" x2="22.5546" y2="40.4569" gradientUnits="userSpaceOnUse">
<stop stop-color="#F5C314"/>
<stop offset="1" stop-color="#EBB90A"/>
</linearGradient>
<linearGradient id="paint2_linear_2644_7308" x1="53.5402" y1="50.2344" x2="22.5549" y2="40.4575" gradientUnits="userSpaceOnUse">
<stop stop-color="#F5C314"/>
<stop offset="1" stop-color="#EBB90A"/>
</linearGradient>
<linearGradient id="paint3_linear_2644_7308" x1="53.5418" y1="50.2317" x2="22.5552" y2="40.4558" gradientUnits="userSpaceOnUse">
<stop stop-color="#F5C314"/>
<stop offset="1" stop-color="#EBB90A"/>
</linearGradient>
<linearGradient id="paint4_linear_2644_7308" x1="53.5418" y1="50.2317" x2="22.5552" y2="40.4558" gradientUnits="userSpaceOnUse">
<stop stop-color="#F5C314"/>
<stop offset="1" stop-color="#EBB90A"/>
</linearGradient>
<linearGradient id="paint5_linear_2644_7308" x1="53.5399" y1="50.2295" x2="22.5529" y2="40.4537" gradientUnits="userSpaceOnUse">
<stop stop-color="#F5C314"/>
<stop offset="1" stop-color="#EBB90A"/>
</linearGradient>
<linearGradient id="paint6_linear_2644_7308" x1="53.5399" y1="50.2295" x2="22.5529" y2="40.4537" gradientUnits="userSpaceOnUse">
<stop stop-color="#F5C314"/>
<stop offset="1" stop-color="#EBB90A"/>
</linearGradient>
<linearGradient id="paint7_linear_2644_7308" x1="53.5389" y1="50.2313" x2="22.5518" y2="40.4555" gradientUnits="userSpaceOnUse">
<stop stop-color="#F5C314"/>
<stop offset="1" stop-color="#EBB90A"/>
</linearGradient>
</defs>
</svg>
