<svg width="64" height="67" viewBox="0 0 64 67" fill="none" xmlns="http://www.w3.org/2000/svg">
<path d="M2.40446 35.9702L0.169376 38.4106C0.0138139 38.5864 -0.0318124 38.863 0.0701559 39.1999L6.72051 60.5671L8.94961 58.1269L2.30524 36.7594C2.20017 36.4197 2.24576 36.143 2.40446 35.9702Z" fill="#DBE6FA"/>
<path d="M8.94961 58.1269L6.72051 60.5671C6.93091 61.2525 7.67541 61.9304 8.37651 62.0877L30.3234 66.9792C30.6768 67.0547 30.9518 66.9886 31.1134 66.8127L33.3453 64.3693C33.1837 64.5453 32.909 64.6174 32.5553 64.5359L10.6056 59.6475C9.9045 59.4902 9.16285 58.8092 8.94961 58.1269Z" fill="#BBCFEF"/>
<path d="M3.85975 34.3853L1.62466 36.8258C1.4691 37.0015 1.42347 37.2782 1.52543 37.615L8.1758 58.9823L10.4049 56.542L3.76052 35.1745C3.65545 34.8349 3.70104 34.5582 3.85975 34.3853Z" fill="#F04343"/>
<path d="M10.4049 56.542L8.1758 58.9823C8.3862 59.6676 9.1307 60.3455 9.8318 60.5028L31.7787 65.3943C32.1321 65.4698 32.407 65.4038 32.5686 65.2278L34.8006 62.7844C34.639 62.9604 34.3643 63.0325 34.0106 62.951L12.0609 58.0626C11.3598 57.9053 10.6181 57.2243 10.4049 56.542Z" fill="#E22525"/>
<path d="M4.64597 34.2198C3.94606 34.0638 3.54796 34.4925 3.7599 35.1738L10.4064 56.5413C10.6192 57.2257 11.3622 57.9058 12.0621 58.0617L34.0106 62.951C34.7136 63.1076 35.1097 62.6816 34.8968 61.9972L28.2504 40.6297C28.0384 39.9483 27.2977 39.266 26.5947 39.1094L4.64597 34.2198Z" fill="#FF6161"/>
<path d="M32.2986 60.0152C32.4157 60.3878 32.2031 60.622 31.8234 60.5386L13.0484 56.4118C12.6688 56.3284 12.2665 55.959 12.1494 55.5863L6.35964 37.1573C6.24257 36.7846 6.45522 36.5504 6.83485 36.6339L25.6098 40.7606C25.9895 40.8441 26.3918 41.2135 26.5088 41.5861L32.2986 60.0152Z" fill="#2ADC03"/>
<path d="M31.8228 60.5416L31.2588 60.4142L13.0495 56.4132C12.6698 56.325 12.2677 55.9558 12.1475 55.585L6.53529 37.7124L6.3604 37.1613C6.24512 36.785 6.45429 36.5464 6.83395 36.6346L25.6073 40.763C25.992 40.8458 26.394 41.215 26.5038 41.5862L32.2964 60.0149C32.4167 60.3858 32.2021 60.6194 31.8228 60.5416Z" fill="#E22525"/>
<path d="M31.2588 60.4142L13.0495 56.4132C12.6698 56.325 12.2677 55.9558 12.1475 55.585L6.53529 37.7124L24.7391 41.7085C25.1188 41.7967 25.5209 42.1659 25.6357 42.5317L31.2588 60.4142Z" fill="#EBF2FF"/>
<path d="M22.4401 49.0119C23.0573 50.9762 21.9316 52.2161 19.9303 51.7762C17.9241 51.3352 15.7996 49.381 15.1824 47.4166C14.5637 45.4474 15.686 44.2113 17.6922 44.6523C19.6935 45.0921 21.8215 47.0426 22.4401 49.0119Z" fill="#CBDBF4"/>
<path d="M47.1668 21.4938C22.4548 48.3396 33.5474 36.2893 30.5699 39.5239L20.9759 49.9499C20.6983 50.2522 20.2191 50.3695 19.6057 50.2397C18.3783 49.9692 17.0738 48.7714 16.6943 47.5663C16.507 46.961 16.5883 46.468 16.871 46.1601L26.4651 35.7342C29.8167 32.0931 17.8534 45.0895 43.062 17.7041C42.0756 18.7783 43.8396 21.35 45.8023 21.7888C46.2843 21.8939 46.8319 21.8586 47.1668 21.4938Z" fill="#804F59"/>
<path d="M38.3589 29.8732C38.7373 31.0777 38.0471 31.8379 36.8199 31.5682C35.5898 31.2978 34.287 30.0995 33.9086 28.895C33.5293 27.6875 34.2174 26.9295 35.4476 27.1999C36.6747 27.4697 37.9796 28.6657 38.3589 29.8732Z" fill="#804F59"/>
<path d="M26.6693 36.476L16.6705 34.2517C16.1082 34.1324 15.8847 33.4387 16.2782 33.0102C23.4011 25.2081 20.9444 27.899 21.4759 27.3169C22.2991 26.4204 22.2342 25.0187 21.3376 24.1954L21.3323 24.1905C20.4306 23.3726 19.0339 23.4321 18.2056 24.3341C17.1387 25.5028 20.9248 21.3557 13.008 30.0274C10.9726 32.2617 11.3506 35.5262 13.3249 37.339C13.9769 37.9377 14.7942 38.3677 15.7062 38.5741L23.21 40.2434L26.6693 36.476Z" fill="#804F59"/>
<path d="M17.4159 31.7712C16.106 31.7184 14.5295 30.3956 14.1097 29.0459C14.0916 28.9892 14.0734 28.9325 14.0658 28.8754L18.9291 23.5462C19.7574 22.6442 21.1541 22.5847 22.0557 23.4026L22.0611 23.4075C22.9577 24.2308 23.0226 25.6325 22.1994 26.529L17.4159 31.7712Z" fill="#613941"/>
<path d="M46.8995 21.785L30.5699 39.5239C29.8424 38.9901 29.129 38.4072 28.4459 37.78C27.7349 37.1271 27.0761 36.4397 26.4651 35.7342L42.7895 18.0008C43.0109 18.3364 44.8848 20.312 46.8272 21.729C46.8444 21.7551 46.8719 21.77 46.8995 21.785Z" fill="#613941"/>
<path d="M61.1508 27.5544C61.0828 27.5993 43.1459 39.405 43.0708 39.4449C41.8507 40.0995 40.1957 40.2722 38.2298 39.8396C32.8751 38.6584 27.1978 33.4454 25.5373 28.1849C24.9887 26.4223 24.9606 24.8795 25.3655 23.6518C25.3599 23.6466 25.365 23.641 25.365 23.641C25.4274 23.4609 25.5003 23.2802 25.5793 23.1154L25.5737 23.1103C37.9281 0.541961 35.0041 5.8833 35.4609 5.04887C34.795 6.8418 34.8066 9.13302 35.629 11.7664C38.1834 19.8759 47.3109 27.6606 55.026 28.6278C57.5365 28.962 59.6174 28.5612 61.1452 27.5493L61.1508 27.5544Z" fill="#28AF6E"/>
<path d="M55.026 28.6278C54.9606 28.671 43.7887 36.0382 43.7181 36.0765C42.4502 36.7493 40.7472 36.9294 38.7108 36.4837C32.8351 35.1892 26.6877 29.2519 25.3655 23.6518C25.3599 23.6466 25.365 23.641 25.365 23.641C25.4274 23.4609 25.5003 23.2802 25.5793 23.1154L25.5737 23.1103C37.9281 0.541961 35.0041 5.8833 35.4609 5.04887C34.795 6.8418 34.8066 9.13302 35.629 11.7664C38.1834 19.8759 47.3109 27.6606 55.026 28.6278Z" fill="#22B700"/>
<path d="M53.7503 28.4059C46.1039 26.7199 37.9912 19.2706 35.6325 11.7696C33.2916 4.30553 37.5073 -0.409247 45.0693 1.18894L48.5187 4.99601L48.7842 2.39165C56.3316 5.68843 63.6197 13.9601 63.9678 21.2457L63.9626 21.2513L63.9682 21.2564L62.647 22.6953L63.7925 23.5718C62.9347 27.5517 59.1971 29.5993 53.7503 28.4059Z" fill="#2ADC03"/>
<path d="M35.2516 23.4117C35.1859 23.455 24.3271 30.6054 24.2556 30.6434C23.5135 31.0415 22.5069 31.1465 21.3113 30.8834C16.8881 29.9077 12.3524 24.4797 13.4874 21.0382C13.484 21.0351 13.4871 21.0317 13.4871 21.0317C13.5251 20.9221 13.5694 20.8122 13.6175 20.712L13.6141 20.7089C21.134 6.97188 19.3475 10.2353 19.6273 9.72416C17.7658 14.7363 24.896 23.2333 31.5265 24.0645C33.0534 24.2678 34.319 24.024 35.2482 23.4086L35.2516 23.4117Z" fill="#28AF6E"/>
<path d="M31.5265 24.0645C31.459 24.1092 24.7218 28.5554 24.6492 28.5948C21.1495 30.4517 14.5982 25.7432 13.4874 21.0382C13.484 21.0351 13.4871 21.0317 13.4871 21.0317C13.5251 20.9221 13.5694 20.8122 13.6175 20.712L13.6141 20.7089C21.134 6.97188 19.3475 10.2353 19.6273 9.72416C17.7658 14.7363 24.896 23.2333 31.5265 24.0645Z" fill="#22B700"/>
<path d="M30.7498 23.9314C26.101 22.903 21.1684 18.3737 19.7313 13.8139C18.5983 10.204 19.9798 7.65435 22.905 7.24451L24.4515 8.9431L25.7778 7.49863L25.7867 7.45517C30.3748 8.57219 35.1641 13.0215 36.582 17.5122C38.014 22.0777 35.4038 24.9542 30.7498 23.9314Z" fill="#2ADC03"/>
<path d="M63.9682 21.2564L62.647 22.6953L61.3791 21.7272L63.9626 21.2513L63.9682 21.2564Z" fill="white"/>
<path d="M63.9682 21.2564L62.647 22.6953L61.3791 21.7272L63.9626 21.2513L63.9682 21.2564Z" fill="#22B700"/>
<path d="M48.7819 2.37089L47.4518 3.8194L48.5203 4.99709L48.7819 2.37089Z" fill="#22B700"/>
<path d="M25.5183 10.1188L24.4515 8.9431L25.7778 7.49863L25.5183 10.1188Z" fill="white"/>
<path d="M25.5183 10.1188L24.4515 8.9431L25.7778 7.49863L25.5183 10.1188Z" fill="#22B700"/>
<path d="M60.1328 16.1352C59.3892 15.9787 58.6054 15.2589 58.3805 14.5261C58.156 13.804 58.5668 13.3453 59.3054 13.5076C60.0495 13.6749 60.8334 14.3947 61.0578 15.1167C61.2879 15.8439 60.8771 16.3026 60.1328 16.1352Z" fill="#22B700"/>
<path d="M53.4224 11.1631C52.6788 11.0066 51.895 10.2868 51.6701 9.55402C51.4456 8.83189 51.8564 8.37324 52.595 8.53548C53.3391 8.70281 54.123 9.42256 54.3474 10.1446C54.5775 10.8718 54.1667 11.3305 53.4224 11.1631Z" fill="#22B700"/>
<path d="M48.9934 16.6171C48.2497 16.4606 47.4659 15.7409 47.241 15.0081C47.0165 14.2859 47.4273 13.8273 48.1659 13.9895C48.91 14.1569 49.6939 14.8766 49.9183 15.5987C50.1484 16.3259 49.7376 16.7845 48.9934 16.6171Z" fill="#22B700"/>
<path d="M33.2141 18.3108C32.4058 18.1406 31.5537 17.3582 31.3092 16.5616C31.0651 15.7766 31.5117 15.278 32.3146 15.4544C33.1236 15.6363 33.9757 16.4187 34.2196 17.2036C34.4697 17.9941 34.0231 18.4927 33.2141 18.3108Z" fill="#22B700"/>
<path d="M23.8902 16.4463C23.1465 16.2898 22.3627 15.57 22.1378 14.8372C21.9133 14.1151 22.3241 13.6564 23.0627 13.8187C23.8069 13.986 24.5907 14.7057 24.8151 15.4278C25.0452 16.155 24.6344 16.6137 23.8902 16.4463Z" fill="#22B700"/>
<path d="M29.4213 20.7835C28.9705 20.6887 28.4952 20.2523 28.3589 19.808C28.2228 19.3702 28.4718 19.0921 28.9196 19.1905C29.3708 19.2919 29.846 19.7283 29.9821 20.1661C30.1216 20.607 29.8725 20.885 29.4213 20.7835Z" fill="#22B700"/>
<path d="M27.2098 12.3502C26.7589 12.2553 26.2837 11.819 26.1473 11.3747C26.0112 10.9369 26.2603 10.6588 26.7081 10.7572C27.1592 10.8586 27.6345 11.295 27.7705 11.7328C27.91 12.1736 27.6609 12.4517 27.2098 12.3502Z" fill="#22B700"/>
<path d="M41.8541 10.0912C40.8375 9.87724 39.7658 8.89322 39.4583 7.89134C39.1514 6.90408 39.713 6.27703 40.7228 6.49884C41.7402 6.7276 42.8119 7.71162 43.1187 8.6988C43.4332 9.693 42.8716 10.3201 41.8541 10.0912Z" fill="#22B700"/>
<path d="M51.2199 24.413C50.2032 24.199 49.1316 23.215 48.8241 22.2131C48.5171 21.2259 49.0788 20.5988 50.0886 20.8206C51.106 21.0494 52.1776 22.0334 52.4845 23.0206C52.799 24.0148 52.2373 24.6418 51.2199 24.413Z" fill="#22B700"/>
<path d="M35.2516 23.4117L27.115 31.5202C26.6337 30.7234 26.2444 30.0171 26.026 29.4795L35.2516 23.4117Z" fill="#189453"/>
</svg>
