<svg width="120" height="120" viewBox="0 0 120 120" fill="none" xmlns="http://www.w3.org/2000/svg">
<g id="CreditCard" clip-path="url(#clip0_2202_2273)">
<path id="Vector" d="M108.407 22.6172L109.362 23.5876L119.062 34.9319L116.625 36.6193L101.119 27.6663L108.407 22.6172Z" fill="#23292E"/>
<path id="Vector_2" d="M104.695 26.4935L111.465 30.6226L116.625 36.6193L119.062 34.9319L109.362 23.5876L104.695 26.4935Z" fill="#2E373D"/>
<path id="Vector_3" d="M15.7928 96.3263C16.929 96.3263 17.9709 95.571 18.2849 94.422L34.682 34.4357C35.0583 33.0579 34.2471 31.637 32.8702 31.2598C31.4932 30.8844 30.0714 31.6947 29.6942 33.0725L13.2971 93.0588C12.9208 94.4357 13.732 95.8576 15.1099 96.2338C15.3378 96.297 15.5667 96.3263 15.7928 96.3263Z" fill="#CECECE"/>
<path id="Vector_4" d="M88.5956 24.2505C92.4976 21.9983 96.0507 21.9333 98.7195 23.6471L105.656 27.5912C109.19 29.2117 111.465 33.6181 111.465 40.047C111.465 51.0965 104.746 63.934 96.459 68.7185C92.6019 70.9451 89.0854 71.0348 86.4267 69.3814L79.0805 65.2231C75.7288 63.489 73.5901 59.1568 73.5901 52.9229C73.5901 41.8725 80.3082 29.0359 88.5956 24.2505Z" fill="#23292E"/>
<path id="Vector_5" d="M81.4526 57.3743C81.4526 68.4247 88.1708 73.5031 96.459 68.7186C104.746 63.934 111.465 51.0965 111.465 40.047C111.465 28.9966 104.746 23.9172 96.459 28.7018C88.1708 33.4872 81.4526 46.3238 81.4526 57.3743Z" fill="#2E373D"/>
<path id="Vector_6" d="M87.204 54.0536C87.204 60.8688 91.3477 64.0018 96.459 61.0501C101.57 58.0993 105.714 50.1819 105.714 43.3667C105.714 36.5515 101.57 33.4195 96.459 36.3702C91.3477 39.3219 87.204 47.2384 87.204 54.0536Z" fill="#CECECE"/>
<path id="Vector_7" d="M63.0304 60.119L91.908 43.4463C93.5706 42.4869 95.6113 42.4576 97.3004 43.3676C98.7479 43.6423 99.9564 44.8929 99.9564 46.5637C99.9564 49.7058 98.28 52.6099 95.56 54.1827L63.0295 72.9877L63.0304 60.119Z" fill="#23292E"/>
<path id="Vector_8" d="M83.3853 36.3391V45.6134C83.3853 47.569 82.3416 49.3771 80.6479 50.3549L70.4599 56.2372C67.7802 57.9034 66.1514 60.835 66.1514 63.9899V68.8284C66.1514 71.8121 64.5593 74.5697 61.9757 76.0611L53.7085 80.8347C52.6428 81.4499 51.4444 81.3721 50.5133 80.8337L33.3984 70.9836C33.3224 70.9433 33.2474 70.9003 33.1741 70.8545H33.1732C32.2989 70.3024 31.6827 69.3393 31.6827 68.1583C31.6827 65.2341 31.1938 62.33 30.2362 59.566L27.3743 51.3025L83.3853 36.3391Z" fill="#CECECE"/>
<path id="Vector_9" d="M70.4599 46.2872L83.3853 38.8239V45.6134C83.3853 47.569 82.3416 49.3771 80.6479 50.3549L70.4599 56.2372V46.2872Z" fill="#525E65"/>
<path id="Vector_10" d="M57.6654 65.3787L95.0803 43.7503C97.2464 42.4988 99.9564 44.0616 99.9564 46.5637C99.9564 49.7067 98.28 52.6099 95.56 54.1827L57.6654 76.0886V65.3787Z" fill="#525E65"/>
<path id="Vector_11" d="M74.6365 14.0415L77.1259 9.72933C78.3179 7.66482 80.0317 5.95095 82.0953 4.75985L89.2603 0.623494C90.9631 -0.359782 92.8976 -0.114421 94.2892 0.899068L110.85 10.2823C112.396 10.9928 113.546 12.5336 113.546 14.4754C113.546 18.7674 111.256 22.7335 107.539 24.8795L79.0768 41.3114L57.6654 24.1608L74.6365 14.0415Z" fill="#627681"/>
<path id="Vector_12" d="M75.032 34.0192L92.0023 23.8989L94.4925 19.5868C95.6836 17.5232 97.3975 15.8093 99.462 14.6173L106.626 10.481C109.701 8.70575 113.546 10.925 113.546 14.4754C113.546 18.7674 111.256 22.7335 107.539 24.8795L79.0768 41.3123L75.032 34.0192Z" fill="#2E373D"/>
<path id="Vector_13" d="M92.0023 23.8989L74.6365 14.0414L57.6654 24.1617L75.032 34.0192L92.0023 23.8989Z" fill="#525E65"/>
<path id="Vector_14" d="M39.169 24.4171C45.0659 20.9317 52.3837 20.8942 58.3163 24.3192C58.4775 24.4125 73.4528 33.1027 74.9158 33.9514C75.1291 34.064 75.3406 34.1794 75.5502 34.3012C77.7328 35.5609 79.0768 37.8891 79.0768 40.4086V41.3113L44.6082 61.2122L27.3743 51.2311V45.0018C27.3743 36.5332 31.8631 28.699 39.169 24.4171Z" fill="#E33400"/>
<path id="Vector_15" d="M79.0768 41.3114L44.6082 61.2122V54.9838C44.6082 46.5152 49.097 38.681 56.4038 34.3991C62.3007 30.9128 69.6185 30.8753 75.5502 34.3002C77.7328 35.5609 79.0768 37.8891 79.0768 40.4086V41.3114Z" fill="#872E02"/>
<path id="Vector_16" d="M70.4599 46.2872L44.6082 61.2122L47.471 69.4757C48.4277 72.2388 48.9166 75.1437 48.9166 78.0679C48.9166 80.527 51.579 82.0633 53.7076 80.8347L61.9748 76.0611C64.5593 74.5688 66.1514 71.8121 66.1514 68.8275V63.989C66.1514 60.834 67.7802 57.9025 70.4599 56.2372V46.2872Z" fill="#82A5B9"/>
<path id="Vector_17" d="M16.116 73.732C20.0171 71.4789 23.5712 71.4139 26.2399 73.1278L33.1769 77.0718C36.7108 78.6923 38.985 83.0988 38.985 89.5276C38.985 100.577 32.2668 113.415 23.9795 118.199C20.1224 120.426 16.6058 120.515 13.9481 118.862L6.60095 114.705C3.24829 112.971 1.10962 108.638 1.10962 102.404C1.10962 91.3532 7.82776 78.5165 16.116 73.732Z" fill="#23292E"/>
<path id="Vector_18" d="M14.3948 69.8446C19.0192 67.175 23.2132 67.2061 26.2885 69.4116L35.3787 74.6603C39.1745 76.6443 41.5942 81.5671 41.5942 88.6404C41.5942 94.0127 40.1944 99.754 37.8607 104.995L36.8271 104.492C34.6207 103.417 33.511 100.921 34.1656 98.5565C34.7342 96.5066 35.051 94.4211 35.051 92.4179C35.051 84.6643 30.336 81.1001 24.5206 84.4574C23.3368 85.1413 22.1997 86.0614 21.1395 87.1573C19.3936 88.9618 16.4383 88.7759 14.8334 86.8451L14.285 86.1859L7.9715 82.5137C6.75842 82.4945 5.5481 81.9671 4.70856 80.9564L4.16016 80.2972C7.01202 75.7983 10.5551 72.0611 14.3948 69.8446Z" fill="#E33400"/>
<path id="Vector_19" d="M8.97308 106.855C8.97308 117.905 15.6912 122.985 23.9786 118.199C32.2659 113.415 38.985 100.578 38.985 89.5276C38.985 78.4772 32.2659 73.3978 23.9786 78.1833C15.6912 82.9678 8.97308 95.8044 8.97308 106.855Z" fill="#2E373D"/>
<path id="Vector_20" d="M14.7235 103.534C14.7235 110.349 18.8672 113.482 23.9786 110.531C29.09 107.58 33.2336 99.6625 33.2336 92.8473C33.2336 86.0321 29.09 82.9001 23.9786 85.8508C18.8672 88.8025 14.7235 96.719 14.7235 103.534Z" fill="#CECECE"/>
<path id="Vector_21" d="M19.9768 100.502C19.9768 103.448 21.7685 104.802 23.9786 103.527C26.1887 102.251 27.9803 98.8275 27.9803 95.8804C27.9803 92.9342 26.1887 91.5802 23.9786 92.8555C21.7685 94.1318 19.9768 97.5549 19.9768 100.502Z" fill="#627681"/>
<path id="Vector_22" d="M35.051 92.4179C35.051 84.6643 30.336 81.1002 24.5206 84.4574C23.3359 85.1413 22.1997 86.0614 21.1386 87.1573C19.3927 88.9618 16.4383 88.7759 14.8325 86.8451L14.285 86.1859C17.1368 81.6861 20.6799 77.9498 24.5206 75.7333C33.9496 70.2887 41.5942 76.0675 41.5942 88.6404C41.5942 94.0127 40.1944 99.754 37.8607 104.995L36.8271 104.492C34.6207 103.417 33.511 100.922 34.1656 98.5565C34.7342 96.5066 35.051 94.4211 35.051 92.4179Z" fill="#872E02"/>
<path id="Vector_23" d="M24.1654 101.396C25.3015 101.396 26.3434 100.641 26.6574 99.4922L43.0545 39.5059C43.4308 38.129 42.6196 36.7072 41.2418 36.33C39.8648 35.9546 38.443 36.7648 38.0667 38.1427L21.6696 98.129C21.2933 99.5059 22.1045 100.928 23.4815 101.304C23.7103 101.367 23.9392 101.396 24.1654 101.396Z" fill="#CECECE"/>
<path id="Vector_24" d="M31.68 13.9517C32.5735 13.9517 33.4424 13.4875 33.9212 12.6581C34.6353 11.4221 34.2114 9.84098 32.9755 9.12687L26.3297 5.29081C25.0937 4.5767 23.5126 5.00059 22.7985 6.23655C22.0844 7.47343 22.5082 9.05363 23.7451 9.76774L30.39 13.6047C30.7974 13.84 31.2424 13.9517 31.68 13.9517Z" fill="#2E373D"/>
<path id="Vector_25" d="M21.8161 13.0801H30.4092C31.1792 13.0801 31.8045 12.4548 31.8045 11.6849C31.8045 10.914 31.1792 10.2896 30.4092 10.2896H21.8161C21.0452 10.2896 20.4208 10.914 20.4208 11.6849C20.4208 12.4548 21.0452 13.0801 21.8161 13.0801Z" fill="#2E373D"/>
<path id="Vector_26" d="M45.8633 42.9199C49.4312 42.9199 52.9578 41.5183 55.5881 38.8312L63.6191 30.6281C64.6179 29.6073 64.6014 27.9712 63.5806 26.9724C62.5607 25.9735 60.9238 25.9909 59.9249 27.0108L51.893 35.214C49.1986 37.9669 44.9854 38.5446 41.6492 36.6184L33.4268 31.8714C31.5555 30.7901 30.6033 28.645 31.0593 26.532L34.2096 11.9101C34.5099 10.5149 33.6227 9.13973 32.2266 8.83853C30.8313 8.53732 29.4562 9.42538 29.155 10.8216L26.0046 25.4425C25.0745 29.7583 27.019 34.141 30.8423 36.3483L39.0646 41.0953C41.1896 42.323 43.5352 42.9199 45.8633 42.9199Z" fill="#CECECE"/>
<path id="Vector_27" d="M70.3171 36.3391C71.2106 36.3391 72.0795 35.8759 72.5583 35.0464C73.2724 33.8095 72.8485 32.2293 71.6125 31.5152L63.0652 26.5805C61.8292 25.8664 60.2481 26.2903 59.534 27.5272C58.8199 28.7631 59.2438 30.3442 60.4807 31.0584L69.0271 35.993C69.4336 36.2283 69.8785 36.3391 70.3171 36.3391Z" fill="#2E373D"/>
<path id="Vector_28" d="M21.0699 32.233L25.5057 29.6713C29.7052 27.247 34.8788 27.247 39.0775 29.6713C46.8182 34.1409 46.8182 45.3131 39.0775 49.7827L31.116 54.4702C29.6942 55.4095 27.7908 55.3876 25.6979 54.1791C21.2961 51.6376 17.7283 44.8206 17.7283 38.952C17.7283 35.3851 19.0475 32.9929 21.0699 32.233Z" fill="#82A5B9"/>
<path id="Vector_29" d="M17.7283 38.952C17.7283 44.8205 21.2961 51.6375 25.6979 54.1791C30.0998 56.7196 33.6676 54.0225 33.6676 48.154C33.6676 42.2854 30.0998 35.4675 25.6979 32.9269C21.2961 30.3854 17.7283 33.0835 17.7283 38.952Z" fill="#CECECE"/>
<path id="Vector_30" d="M20.0473 40.2905C20.0473 44.4516 22.5769 49.2856 25.6979 51.0864C28.8181 52.8882 31.3477 50.9756 31.3477 46.8155C31.3477 42.6544 28.8181 37.8204 25.6979 36.0187C22.5769 34.2169 20.0473 36.1294 20.0473 40.2905Z" fill="white"/>
<path id="Vector_31" d="M62.5516 67.132C62.5516 70.73 60.3644 74.9094 57.6654 76.4667C54.9673 78.0249 52.7802 76.3715 52.7802 72.7734C52.7802 69.1754 54.9673 64.996 57.6654 63.4378C60.3644 61.8805 62.5516 63.5339 62.5516 67.132Z" fill="white"/>
<path id="Vector_32" d="M63.0286 40.7401C63.1338 40.7401 63.241 40.7282 63.3481 40.7025C64.0979 40.5277 64.5639 39.7769 64.389 39.0262L62.1588 29.4946C61.983 28.7448 61.2332 28.2788 60.4825 28.4537C59.7318 28.6295 59.2657 29.3802 59.4415 30.1309L61.6718 39.6625C61.8219 40.3052 62.395 40.7401 63.0286 40.7401Z" fill="#2E373D"/>
</g>
<defs>
<clipPath id="clip0_2202_2273">
<rect width="120" height="120" fill="white" transform="matrix(-1 0 0 1 120 0)"/>
</clipPath>
</defs>
</svg>
