<svg width="120" height="120" viewBox="0 0 120 120" fill="none" xmlns="http://www.w3.org/2000/svg">
<g id="OldCar" clip-path="url(#clip0_2202_2243)">
<path id="Vector" d="M5.67724 67.5449C6.45452 66.6678 7.34259 65.8795 8.33044 65.2011L20.7999 56.6437L45.3983 70.8032L55.6577 76.7084L38.6042 109.367C34.0833 109.72 29.48 108.735 25.4151 106.395L8.60785 96.7218C6.71453 95.6323 5.1673 94.107 4.04669 92.3172L3.78119 92.4554C2.64502 90.4889 2.01788 88.2275 2.01788 85.8764V77.1918C2.01697 73.5965 3.34631 70.1752 5.67724 67.5449Z" fill="#FFD613"/>
<path id="Vector_2" d="M88.3264 74.512L100.625 65.8603C102.434 61.3394 105.448 57.3211 108.862 55.3491C114.396 52.1548 118.882 55.5459 118.882 62.9242C118.882 70.3033 114.396 78.8745 108.862 82.0697C106.239 83.5839 103.853 83.6169 102.067 82.4487L88.3264 74.512Z" fill="#23292E"/>
<path id="Vector_3" d="M47.2147 114.475C47.049 114.391 32.992 106.26 32.992 106.26L45.2893 97.608C47.0984 93.0862 50.1123 89.0679 53.5263 87.0968C59.0607 83.9016 63.5468 87.2927 63.5468 94.6719C63.5468 102.05 59.0607 110.622 53.5263 113.816C51.1341 115.198 48.9386 115.346 47.2156 114.476L47.2147 114.475Z" fill="#23292E"/>
<path id="Vector_4" d="M5.67724 67.5449C6.45452 66.6678 7.34259 65.8795 8.33044 65.2011L20.7999 56.6437L45.3983 70.8032L55.6577 76.7084L38.6042 109.367C34.0833 109.72 29.48 108.735 25.4151 106.395L8.60785 96.7218C6.71453 95.6323 5.1673 94.107 4.04669 92.3172L3.78119 92.4554C2.64502 90.4889 2.01788 88.2275 2.01788 85.8764V77.1918C2.01697 73.5965 3.34631 70.1752 5.67724 67.5449Z" fill="#FFD613"/>
<path id="Vector_5" d="M5.67724 67.5448C6.45452 66.6677 7.34258 65.8795 8.33044 65.2011L20.7999 56.6436L28.223 33.9477L63.0634 54.0637L63.9469 51.362C65.0702 47.9278 67.4698 44.9771 70.6037 43.1772L100.727 25.8645C103.53 24.2551 107.092 25.7931 107.843 28.9371L111.879 45.8523C114.813 47.6046 117.18 49.1363 118.679 52.4304C121.597 58.8482 118.818 65.3128 112.868 68.7707L48.3078 106.342C45.2903 108.095 41.9706 109.101 38.606 109.364L38.6051 109.367C38.0301 109.412 37.4515 109.436 36.8756 109.437V109.435C34.0659 109.442 31.2561 108.935 28.592 107.909V92.644C28.592 87.6452 31.2214 83.0136 35.5152 80.4519L48.577 72.6324L28.1131 60.8532L14.1504 68.9154C10.6559 70.9323 8.50347 74.6612 8.50347 78.6968V96.7675C6.51403 95.5966 3.7821 92.0187 3.7821 92.0187C2.64777 90.0567 2.01788 87.7047 2.01788 85.4397V77.1917C2.01697 73.5965 3.34631 70.1751 5.67724 67.5448C3.34631 70.1751 6.45452 66.6677 5.67724 67.5448Z" fill="#E7C712"/>
<path id="Vector_6" d="M119.94 57.073C120.505 61.7349 116.971 66.3858 112.868 68.7707L48.3078 106.342C44.7739 108.396 40.8262 109.427 36.8757 109.437V97.2555C36.8757 92.4627 39.2368 87.9775 43.1891 85.2658L55.6577 76.7083L63.9478 51.362C65.0711 47.9269 67.4698 44.9771 70.6037 43.1772L100.727 25.8645C103.53 24.2551 107.092 25.7931 107.843 28.9371L111.879 45.8523C112.446 46.1911 118.882 48.3362 119.94 57.073Z" fill="#C98000"/>
<path id="Vector_7" d="M29.09 31.2982C30.2207 27.8403 32.5919 24.9243 35.7468 23.1125L65.8695 5.80079C67.424 4.90816 69.2102 4.98689 70.6229 5.76692L70.6256 5.76509L70.6723 5.79164C70.6806 5.79713 70.6888 5.80171 70.697 5.80629L105.147 25.6641C106.251 26.1694 107.168 27.084 107.639 28.298L63.0634 54.0637L28.2221 33.9477L29.09 31.2982Z" fill="#EDEDED"/>
<path id="Vector_8" d="M63.0634 54.0628L63.9469 51.362C65.0785 47.905 67.4497 44.989 70.6037 43.1772L100.727 25.8646C103.332 24.3686 106.589 25.5945 107.639 28.298L63.0634 54.0628Z" fill="#CECECE"/>
<path id="Vector_9" d="M43.5059 106.241C43.5059 113.621 47.9929 117.012 53.5263 113.816C59.0607 110.621 63.5468 102.05 63.5468 94.6719C63.5468 87.2927 59.0607 83.9016 53.5263 87.0968C47.9929 90.292 43.5059 98.8632 43.5059 106.241Z" fill="#2E373D"/>
<path id="Vector_10" d="M48.5999 103.301C48.5999 106.929 50.8054 108.596 53.5263 107.026C56.2473 105.455 58.4528 101.24 58.4528 97.6126C58.4528 93.9843 56.2473 92.3172 53.5263 93.8882C50.8054 95.4583 48.5999 99.6734 48.5999 103.301Z" fill="#CECECE"/>
<path id="Vector_11" d="M50.8548 102C50.8548 103.967 52.0505 104.872 53.5263 104.019C55.0022 103.167 56.1988 100.882 56.1988 98.9144C56.1988 96.946 55.0022 96.0424 53.5263 96.8939C52.0505 97.7462 50.8548 100.031 50.8548 102Z" fill="#627681"/>
<path id="Vector_12" d="M98.8413 74.4946C98.8413 81.8738 103.327 85.2649 108.862 82.0697C114.395 78.8745 118.882 70.3033 118.882 62.9242C118.882 55.546 114.395 52.1539 108.862 55.3491C103.327 58.5443 98.8413 67.1164 98.8413 74.4946Z" fill="#2E373D"/>
<path id="Vector_13" d="M103.935 71.5539C103.935 75.1821 106.141 76.8493 108.862 75.2783C111.583 73.7081 113.788 69.4931 113.788 65.8657C113.788 62.2375 111.583 60.5703 108.862 62.1414C106.141 63.7115 103.935 67.9266 103.935 71.5539Z" fill="#CECECE"/>
<path id="Vector_14" d="M106.189 70.252C106.189 72.2195 107.386 73.1241 108.862 72.2726C110.338 71.4203 111.533 69.1342 111.533 67.1667C111.533 65.1993 110.338 64.2947 108.862 65.1471C107.386 65.9985 106.189 68.2846 106.189 70.252Z" fill="#627681"/>
<path id="Vector_15" d="M57.4613 54.2853L31.1326 39.1818C29.9497 38.5034 28.4418 39.0848 28.0216 40.383L24.2872 51.8976C23.7598 53.5254 24.4391 55.3015 25.9186 56.1621L51.8756 71.2637C53.0374 71.9394 54.527 71.3946 54.9784 70.1294L59.0763 58.6633C59.6686 57.0053 58.9884 55.1614 57.4613 54.2853Z" fill="#304E75"/>
<path id="Vector_16" d="M59.9781 75.9411L64.3497 60.9539C65.1572 58.1881 67.0002 55.8398 69.495 54.3988L78.3637 49.2498C79.6857 48.4854 81.3391 49.4403 81.3391 50.9674V63.565L59.9781 75.9411Z" fill="#243B58"/>
<path id="Vector_17" d="M26.1942 55.2255L30.5659 40.2393C30.6785 39.8538 30.8158 39.4785 30.9669 39.1104C31.0218 39.136 31.0795 39.1507 31.1326 39.1818L42.5666 45.7407L26.1942 55.2255Z" fill="#59718B"/>
<path id="Vector_18" d="M84.3421 61.8319V48.7729C84.3421 47.1112 85.2521 45.5832 86.7124 44.7903L101.001 37.0367C103.11 35.8932 105.732 37.0441 106.316 39.3722L108.474 47.9681L84.3421 61.8319Z" fill="#243B58"/>
<path id="Vector_19" d="M29.7282 90.054C29.7282 92.4563 31.1893 95.2477 32.992 96.2878C34.7938 97.3287 36.2549 96.2237 36.2549 93.8214C36.2549 91.4181 34.7938 88.6276 32.992 87.5866C31.1893 86.5466 29.7282 87.6507 29.7282 90.054Z" fill="white"/>
<path id="Vector_20" d="M2.7677 74.1751C2.7677 76.268 4.03937 78.6996 5.6095 79.606C7.17963 80.5124 8.45221 79.5501 8.45221 77.4573C8.45221 75.3634 7.17963 72.9318 5.6095 72.0263C4.03937 71.12 2.7677 72.0813 2.7677 74.1751Z" fill="white"/>
<path id="Vector_21" d="M28.592 98.8073V92.5176C28.592 91.2029 28.1791 89.9221 27.4128 88.8537L26.196 87.159C25.536 86.2389 24.6854 85.4717 23.7031 84.9078L12.7076 78.5934C11.9395 78.153 11.0184 78.0688 10.1835 78.3636C9.14528 78.7289 8.45131 79.7094 8.45131 80.8099V87.1938C8.45131 88.612 9.20845 89.923 10.4362 90.6316L26.5943 99.9609C27.4824 100.473 28.592 99.8327 28.592 98.8073Z" fill="#CECECE"/>
<path id="Vector_22" d="M11.1942 79.9291C11.0459 79.9291 10.9013 79.9539 10.7621 80.0033C10.4206 80.1241 10.1908 80.4482 10.1908 80.8099V87.1938C10.1908 87.9885 10.6184 88.7283 11.3059 89.1256L26.8525 98.1014V92.5176C26.8525 91.5618 26.5577 90.6454 26.0001 89.8681L24.7834 88.1735C24.2643 87.4502 23.6097 86.8597 22.8379 86.4156L11.8415 80.1022C11.6456 79.9896 11.4213 79.9291 11.1942 79.9291Z" fill="#2E373D"/>
<path id="Vector_23" d="M42.8046 106.864C42.8046 108.932 41.7005 110.845 39.9088 111.878C38.064 112.944 35.7908 112.946 33.9442 111.884L2.76773 93.8543C1.05569 92.8701 8.7738e-05 91.0464 8.7738e-05 89.0716V88.4591C8.7738e-05 87.1765 1.39077 86.3772 2.49948 87.0208L33.7839 105.2C35.6415 106.272 37.9322 106.266 39.7852 105.184L39.831 105.156C41.1484 104.387 42.8046 105.338 42.8046 106.864Z" fill="#CECECE"/>
</g>
<defs>
<clipPath id="clip0_2202_2243">
<rect width="120" height="120" fill="white" transform="matrix(-1 0 0 1 120 0)"/>
</clipPath>
</defs>
</svg>
