<svg width="120" height="120" viewBox="0 0 120 120" fill="none" xmlns="http://www.w3.org/2000/svg">
<g id="Car 2" clip-path="url(#clip0_2202_2311)">
<path id="Vector" d="M93.8388 58.5955C93.8388 52.088 97.7957 44.5275 102.676 41.7095C104.663 40.5624 106.497 40.3784 107.973 41.0018L114.972 45.0878C117.186 45.9512 118.627 48.5943 118.627 52.5192C118.627 59.0267 114.67 66.5872 109.789 69.4052C107.679 70.6228 105.742 70.7537 104.223 69.9856C104.063 69.9041 97.478 66.0205 97.478 66.0205C95.2734 65.1516 93.8388 62.5122 93.8388 58.5955Z" fill="#23292E"/>
<path id="Vector_2" d="M2.22202 77.1954C2.22202 70.6878 6.17802 63.1274 11.0587 60.3094C13.0454 59.1632 14.8792 58.9782 16.355 59.6017L23.3551 63.6877C25.5689 64.551 27.009 67.1942 27.009 71.119C27.009 77.6275 23.053 85.187 18.1714 88.005C15.8377 89.3527 13.7165 89.3691 12.1363 88.3099L5.86124 84.6212C3.51567 83.0035 2.22202 81.112 2.22202 77.1954Z" fill="#23292E"/>
<path id="Vector_3" d="M1.86223 64.8788C3.41039 59.9359 6.79417 55.675 11.272 53.0667L20.4465 47.7209L21.9617 45.6436C27.3789 32.4152 38.7516 23.8394 50.7385 16.864C60.9751 11.6318 72.5491 13.7567 82.3251 18.7399L100.475 27.6956L100.446 27.7377C111.604 33.2117 116.94 53.4933 116.94 53.4933L63.6237 85.1458C63.6255 85.166 61.2021 86.5832 61.2021 86.5832H61.2012L39.039 88.7494C37.5009 92.6523 32.7503 94.3387 29.014 92.1817L5.24968 78.5962C0.290268 75.7333 0.342453 69.7348 1.86223 64.8788Z" fill="#2DAD57"/>
<path id="Vector_4" d="M7.95963 80.1608L5.24967 78.5962C2.56717 77.0471 0.91465 74.1852 0.91465 71.087C0.91465 63.6658 4.85874 56.803 11.272 53.0667L20.4474 47.7209L7.95963 80.1608Z" fill="#238342"/>
<path id="Vector_5" d="M89.3143 27.5436C89.3143 27.5436 73.6167 33.5422 65.105 55.9909L60.9467 68.5263L36.07 75.8139C29.7345 77.6696 25.3812 83.4814 25.3812 90.0833L61.2012 86.5832L89.653 69.8657L116.94 53.4924C116.94 53.4933 108.077 19.8074 89.3143 27.5436Z" fill="#045D32"/>
<path id="Vector_6" d="M100.446 27.7377C97.2244 26.1575 93.5184 25.8105 89.3143 27.5436C89.3143 27.5436 73.6166 33.5422 65.105 55.9909L60.9467 68.5263L21.9626 45.6436C27.4741 32.1817 38.1665 24.18 50.7385 16.864C60.9751 11.6318 72.5491 13.7567 82.3251 18.7399L100.475 27.6956L100.446 27.7377Z" fill="#238342"/>
<path id="Vector_7" d="M41.901 77.2824C43.8877 76.1352 45.7215 75.9512 47.1973 76.5747L54.1965 80.6597C56.4102 81.5231 57.8513 84.1662 57.8513 88.092C57.8513 94.5996 53.8944 102.16 49.0137 104.977C46.68 106.325 44.5597 106.341 42.9795 105.283L36.7035 101.594C34.498 100.724 33.0634 98.085 33.0634 94.1683C33.0634 87.6599 37.0203 80.1004 41.901 77.2824Z" fill="#23292E"/>
<path id="Vector_8" d="M40.177 98.2965C40.177 104.805 44.133 107.796 49.0146 104.978C53.8953 102.16 57.8522 94.5996 57.8522 88.092C57.8522 81.5845 53.8953 78.5934 49.0146 81.4105C44.133 84.2285 40.177 91.7889 40.177 98.2965Z" fill="#2E373D"/>
<path id="Vector_9" d="M44.6686 95.7028C44.6686 98.9025 46.6141 100.374 49.0137 98.9877C51.4133 97.6025 53.3588 93.8854 53.3588 90.6857C53.3588 87.4859 51.4133 86.0156 49.0137 87.4008C46.6141 88.786 44.6686 92.503 44.6686 95.7028Z" fill="#CECECE"/>
<path id="Vector_10" d="M46.6571 94.5547C46.6571 96.2906 47.7127 97.088 49.0137 96.3373C50.3156 95.5856 51.3703 93.5696 51.3703 91.8338C51.3703 90.0989 50.3156 89.3005 49.0137 90.0522C47.7127 90.8038 46.6571 92.8198 46.6571 94.5547Z" fill="#627681"/>
<path id="Vector_11" d="M100.952 62.7237C100.952 69.2312 104.908 72.2232 109.789 69.4052C114.67 66.5872 118.627 59.0268 118.627 52.5192C118.627 46.0116 114.67 43.0206 109.789 45.8386C104.908 48.6566 100.952 56.2161 100.952 62.7237Z" fill="#2E373D"/>
<path id="Vector_12" d="M105.444 60.13C105.444 63.3298 107.39 64.801 109.789 63.4149C112.189 62.0297 114.134 58.3127 114.134 55.1129C114.134 51.9131 112.189 50.4428 109.789 51.828C107.39 53.2141 105.444 56.9302 105.444 60.13Z" fill="#CECECE"/>
<path id="Vector_13" d="M107.433 58.9828C107.433 60.7177 108.487 61.5152 109.789 60.7644C111.09 60.0128 112.146 57.9968 112.146 56.2609C112.146 54.526 111.09 53.7286 109.789 54.4793C108.487 55.231 107.433 57.247 107.433 58.9828Z" fill="#627681"/>
<path id="Vector_14" d="M59.3939 64.6042L25.2988 44.6814L27.5565 40.2832C30.4129 34.7177 37.3645 32.7017 42.7561 35.8759L53.7076 42.3239C60.1181 46.0977 63.0103 53.8458 60.64 60.8981L59.3939 64.6042Z" fill="#304E75"/>
<path id="Vector_15" d="M25.3812 90.0833L29.014 92.1817C32.9709 94.4659 38.0677 92.4417 39.2789 88.0362C40.0599 85.1953 41.3251 82.2171 43.3731 79.9008C47.9993 74.6713 53.6682 75.5648 56.9385 77.5268C60.2088 79.4888 61.2012 86.5832 61.2012 86.5832L63.6273 85.1797C63.6273 85.1797 62.8528 77.503 57.8522 74.9807C57.8019 74.9551 57.7515 74.9304 57.7021 74.9057C53.2361 72.6791 48.0762 72.2973 43.2889 73.7036L35.5033 75.9906C29.5816 77.731 25.4828 83.1243 25.3922 89.2959L25.3812 90.0833Z" fill="#238342"/>
<path id="Vector_16" d="M30.5292 86.8982L19.3534 83.0566C12.4704 80.6909 6.71819 75.8413 3.22362 69.4565C2.43443 68.0136 0.252731 68.4741 0.112656 70.1129L0.0366669 71.0037C-0.135452 73.0288 0.296677 75.0595 1.27721 76.8393C4.62895 82.9174 10.1761 87.4859 16.7853 89.609L30.2069 93.9202C31.8119 94.4357 33.479 93.3252 33.6228 91.6461C33.8013 89.5413 32.5269 87.5839 30.5292 86.8982Z" fill="#CECECE"/>
<path id="Vector_17" d="M30.4303 82.6574C30.4303 84.5956 31.6095 86.8487 33.0634 87.6882C34.5182 88.5278 35.6964 87.636 35.6964 85.6979C35.6964 83.7588 34.5182 81.5057 33.0634 80.6661C31.6095 79.8266 30.4303 80.7183 30.4303 82.6574Z" fill="white"/>
<path id="Vector_18" d="M2.50308 64.4458C2.50308 66.3849 3.68228 68.6371 5.13614 69.4766C6.59091 70.3162 7.7692 69.4253 7.7692 67.4863C7.7692 65.5472 6.59091 63.295 5.13614 62.4554C3.68228 61.615 2.50308 62.5067 2.50308 64.4458Z" fill="white"/>
<path id="Vector_19" d="M97.478 65.1709C97.478 65.1709 96.427 56.5155 101.414 48.5852C106.402 40.6549 111.873 40.6494 111.873 40.6494C111.873 40.6494 115.15 40.6494 117.905 43.9105C120.398 46.8594 120.873 54.1965 118.199 56.3928C118.199 56.3928 119.387 50.1517 114.973 46.8686C111.786 44.4983 106.851 48.3682 105.444 53.4924C104.846 55.6696 104.38 58.5168 104.342 61.2634C104.292 64.7388 100.508 66.8747 97.478 65.1709Z" fill="#238342"/>
<path id="Vector_20" d="M88.905 47.7356L68.1912 59.6631C68.1912 59.6631 76.301 36.5231 88.905 32.081V47.7356Z" fill="#243B58"/>
<path id="Vector_21" d="M32.482 39.895C32.482 39.895 33.2264 37.7765 34.607 34.7067C36.6577 34.1949 38.8559 34.2737 40.9333 35.0281L32.482 39.895Z" fill="#59718B"/>
<path id="Vector_22" d="M91.3577 31.4154C103.254 28.9426 105.274 38.3093 105.274 38.3093L91.3577 46.3229V31.4154Z" fill="#243B58"/>
<path id="Vector_23" d="M36.7026 56.4487C26.5082 60.661 15.4926 66.6202 13.8263 78.7308C18.9048 67.652 27.7149 63.7454 36.7026 56.4487Z" fill="#238342"/>
</g>
<defs>
<clipPath id="clip0_2202_2311">
<rect width="120" height="120" fill="white" transform="matrix(-1 0 0 1 120 0)"/>
</clipPath>
</defs>
</svg>
