<svg width="120" height="120" viewBox="0 0 120 120" fill="none" xmlns="http://www.w3.org/2000/svg">
<g id="Cash">
<g id="Group">
<path id="Vector" opacity="0.14" d="M77.5252 76.1798C73.223 75.6811 65.8036 81.1054 65.8036 81.1054L76.2865 87.8003C76.2865 87.8003 81.8273 76.6786 77.5252 76.1798Z" fill="black"/>
<path id="Vector_2" opacity="0.14" d="M75.588 64.1458C75.5459 64.1217 74.453 63.4971 74.3206 63.4214C74.2376 63.3698 74.1473 63.3227 74.0531 63.2777C73.9964 63.2381 73.9434 63.1964 73.8809 63.1603C73.8387 63.1361 72.7458 62.5115 72.6134 62.4356C72.528 62.3826 72.435 62.3341 72.338 62.2879C72.2791 62.2467 72.2241 62.2036 72.1587 62.1658C72.1195 62.1433 71.1588 61.5942 70.9193 61.4573L76.0934 50.3088L59.0761 40.4838L54.8672 38.2992L28.6069 50.7234L44.4558 59.8739L44.4921 60.074L44.5313 60.0965L12 79.4782L30.1228 91.4627L44.4335 96.5266L51.5351 87.9525L60.3225 69.0183C60.3841 69.0534 60.45 69.0858 60.517 69.1174C60.5749 69.1579 60.6295 69.2001 60.6938 69.2372C60.7125 69.2482 61.8898 69.9248 61.9821 69.9808C62.0583 70.0268 62.1448 70.0666 62.2301 70.1072C62.2863 70.1461 62.3388 70.1873 62.4009 70.2229C62.4195 70.2335 63.5967 70.9106 63.6893 70.9666C64.5602 71.4916 66.0321 71.6733 67.8879 71.3861C71.5399 70.8211 75.2932 68.654 76.2713 66.5461C76.7611 65.4916 76.4639 64.6514 75.588 64.1458Z" fill="black"/>
<path id="Vector_3" d="M55.2476 33.6257V47.3653L90.4158 67.6696L108 57.5175V43.7779L72.8316 37.2131L55.2476 33.6257Z" fill="#308D43"/>
<path id="Vector_4" d="M55.2476 43.8401V57.5796L90.4158 77.8842L108 67.7318V53.9923L72.8316 47.4274L55.2476 43.8401Z" fill="#308D43"/>
<g id="Group_2">
<path id="Vector_5" d="M55.2473 52.5079V53.6301L90.4158 73.9347L108 63.7822V62.6601L90.4158 72.8122L55.2473 52.5079Z" fill="#449855"/>
<path id="Vector_6" d="M55.2473 49.9542V51.0766L90.4158 71.381L108 61.2288V60.1066L90.4158 70.2588L55.2473 49.9542Z" fill="#449855"/>
<path id="Vector_7" d="M55.2473 47.4006V48.5231L90.4158 68.8274L108 58.6752V57.5528L90.4158 67.7052L55.2473 47.4006Z" fill="#449855"/>
<path id="Vector_8" d="M55.2473 44.8471V45.9693L90.4158 66.2739L108 56.1215V54.9993L90.4158 65.1517L55.2473 44.8471Z" fill="#449855"/>
<path id="Vector_9" d="M55.2473 55.0614V56.1836L90.4158 76.4882L108 66.336V65.2136L90.4158 75.3658L55.2473 55.0614Z" fill="#449855"/>
<path id="Vector_10" d="M55.2473 42.2933V43.4158L90.4158 63.7201L108 53.5679V52.4458L90.4158 62.5979L55.2473 42.2933Z" fill="#449855"/>
<path id="Vector_11" d="M55.2473 39.7399V40.8623L90.4158 61.1667L108 51.0145V49.8921L90.4158 60.0445L55.2473 39.7399Z" fill="#449855"/>
<path id="Vector_12" d="M55.2473 37.1863V38.3088L90.4158 58.6131L108 48.4607V47.3385L90.4158 57.4907L55.2473 37.1863Z" fill="#449855"/>
<path id="Vector_13" d="M55.2473 34.6328V35.755L90.4158 56.0596L108 45.9072V44.785L90.4158 54.9374L55.2473 34.6328Z" fill="#449855"/>
</g>
<path id="Vector_14" d="M26.8493 72.635V86.3745L44.4335 96.5267L79.6017 76.2223V62.4825L62.0175 66.0699L26.8493 72.635Z" fill="#308D43"/>
<path id="Vector_15" d="M26.8493 72.6349L44.4335 82.7869L79.6017 62.4825L62.0175 52.3303L26.8493 72.6349Z" fill="#58A368"/>
<path id="Vector_16" d="M70.7081 60.7711L65.0946 57.5302C62.7502 58.4731 59.5983 58.4504 57.2888 57.4655L35.8554 69.84C37.4888 71.1936 37.4491 73.0132 35.7431 74.3466L41.3569 77.5878C43.7013 76.6449 46.853 76.6676 49.1627 77.6527L70.5959 65.2782C68.9627 63.9242 69.0021 62.1045 70.7081 60.7711Z" fill="#EDEDED"/>
<path id="Vector_17" d="M58.3446 64.6031C55.5173 62.9707 50.9337 62.9707 48.1064 64.6031C45.2791 66.2355 45.2791 68.8818 48.1064 70.514C50.9337 72.1465 55.5173 72.1465 58.3446 70.514C61.1719 68.8818 61.1719 66.2355 58.3446 64.6031Z" fill="#58A368"/>
<g id="Group_3">
<path id="Vector_18" d="M57.7817 68.114C57.7967 67.7303 57.5388 67.3849 57.0068 67.0778C56.5444 66.8109 55.9997 66.6719 55.3702 66.6602C54.7402 66.6475 53.948 66.7713 52.9929 67.0307L51.1704 65.9784C51.7927 65.6896 52.4628 65.4946 53.1858 65.3931L51.8874 64.6434C51.3673 64.7287 50.7546 64.9577 50.0454 65.3289L49.171 64.8241L48.4692 65.2291L49.3638 65.7454C48.8344 66.1167 48.5681 66.5078 48.5681 66.9182C48.5658 67.3272 48.8173 67.6778 49.3198 67.968C49.7874 68.238 50.3222 68.3882 50.9208 68.4173C51.5201 68.4473 52.3345 68.3259 53.3625 68.0542L55.1126 69.0646C54.8046 69.2202 54.4031 69.3665 53.9063 69.5057C53.4094 69.6452 52.9922 69.7239 52.6556 69.7448L53.9869 70.5133C54.8403 70.3574 55.5935 70.0931 56.2465 69.7192L57.2613 70.3052L57.9631 69.8999L56.9199 69.2976C57.4803 68.8926 57.7676 68.4986 57.7817 68.114ZM50.517 67.1824C50.1331 66.9606 50.123 66.6979 50.4884 66.3951L52.0121 67.2749C51.345 67.4034 50.8472 67.3731 50.517 67.1824ZM55.7949 68.6484L54.3378 67.807C54.9959 67.6572 55.4796 67.6731 55.7939 67.8545C56.1825 68.0791 56.183 68.3427 55.7949 68.6484Z" fill="#EDEDED"/>
</g>
<path id="Vector_19" d="M26.8493 81.3025V82.4249L44.4335 92.5771L79.602 72.2728V71.1503L44.4335 91.4549L26.8493 81.3025Z" fill="#449855"/>
<path id="Vector_20" d="M26.8493 78.749V79.8712L44.4335 90.0236L79.602 69.719V68.5968L44.4335 88.9012L26.8493 78.749Z" fill="#449855"/>
<path id="Vector_21" d="M26.8493 76.1955V77.3177L44.4335 87.4699L79.602 67.1655V66.0431L44.4335 86.3477L26.8493 76.1955Z" fill="#449855"/>
<path id="Vector_22" d="M26.8493 73.6417V74.7642L44.4335 84.9164L79.602 64.612V63.4896L44.4335 83.7942L26.8493 73.6417Z" fill="#449855"/>
<path id="Vector_23" d="M26.8493 83.8563V84.9785L44.4335 95.1307L79.602 74.8263V73.7039L44.4335 94.0085L26.8493 83.8563Z" fill="#449855"/>
<path id="Vector_24" d="M55.2476 33.6258L90.4158 53.9302L108 43.778L72.8316 23.4734L55.2476 33.6258Z" fill="#58A368"/>
<path id="Vector_25" d="M99.1062 41.0476L77.6728 28.673C75.3284 29.6162 72.1765 29.5932 69.8669 28.6083L64.2532 31.8495C65.8866 33.203 65.8469 35.0227 64.1409 36.3561L85.5743 48.7306C87.9187 47.7877 91.0704 47.8107 93.3801 48.7955L98.9937 45.5544C97.3608 44.2008 97.4004 42.3812 99.1062 41.0476Z" fill="#EDEDED"/>
<path id="Vector_26" d="M86.7429 35.7464C83.9156 34.1139 79.332 34.1139 76.5047 35.7464C73.6774 37.3788 73.6774 40.0249 76.5047 41.6573C79.332 43.2897 83.9156 43.2897 86.7429 41.6573C89.5699 40.0249 89.5699 37.3785 86.7429 35.7464Z" fill="#58A368"/>
<g id="Group_4">
<path id="Vector_27" d="M85.4864 36.8655L86.3608 36.3606L85.6589 35.9556L84.7645 36.472C84.1216 36.1663 83.444 36.0123 82.7332 36.0123C82.0247 36.0109 81.4174 36.1565 80.9151 36.4464C80.4473 36.7164 80.1872 37.0251 80.1368 37.3708C80.085 37.7167 80.2952 38.1871 80.7654 38.7806L79.0155 39.7909C78.746 39.613 78.4926 39.3813 78.2517 39.0944C78.0105 38.8073 77.8739 38.5666 77.8376 38.3723L76.5063 39.1408C76.7763 39.6334 77.234 40.0684 77.8819 40.4455L76.867 41.0315L77.5687 41.4367L78.6119 40.8344C79.3141 41.1581 79.9964 41.324 80.6625 41.332C81.3272 41.3406 81.9253 41.1918 82.4571 40.8848C82.9198 40.6178 83.1602 40.3033 83.1808 39.94C83.2024 39.5763 82.9882 39.1188 82.5389 38.5673L84.3616 37.5152C84.8615 37.8745 85.1995 38.2614 85.3755 38.6788L86.6742 37.9291C86.5263 37.6286 86.1298 37.2752 85.4864 36.8655ZM81.1115 40.1847C80.7232 40.409 80.2666 40.4095 79.7369 40.1852L81.1941 39.3438C81.4535 39.7239 81.4258 40.0031 81.1115 40.1847ZM82.1158 38.0013C81.8934 37.6159 81.9459 37.3286 82.2762 37.1378C82.6601 36.9161 83.1152 36.9105 83.6398 37.1214L82.1158 38.0013Z" fill="#EDEDED"/>
</g>
<path id="Vector_28" d="M88.1428 80.9552C84.8688 79.0649 79.5605 79.0649 76.2863 80.9552C74.8545 81.7816 73.8309 82.4912 73.8309 82.4912C73.8309 82.4912 73.8345 84.1823 73.8312 84.3175C73.8042 85.5763 74.6224 86.8396 76.286 87.8003C79.5602 89.6908 84.8686 89.6908 88.1421 87.8003C89.7795 86.8553 90.5981 85.6164 90.5981 84.3777C90.5981 84.3144 90.589 82.5578 90.589 82.5578C90.589 82.5578 89.6965 81.8521 88.1428 80.9552Z" fill="url(#paint0_linear_2202_2660)"/>
<path id="Vector_29" d="M88.1428 79.0686C84.8688 77.1783 79.5604 77.1783 76.2862 79.0686C73.012 80.9588 73.012 84.0235 76.2862 85.9139C79.5604 87.8039 84.8688 87.8039 88.1423 85.9139C91.4165 84.0237 91.4165 80.9586 88.1428 79.0686Z" fill="#FED416"/>
<path id="Vector_30" d="M88.1428 78.5409C84.8688 76.6504 79.5605 76.6504 76.2863 78.5409C74.8545 79.3673 73.8309 80.077 73.8309 80.077C73.8309 80.077 73.8345 81.768 73.8312 81.9032C73.8042 83.1621 74.6224 84.4254 76.286 85.3863C79.5602 87.2768 84.8686 87.2768 88.1421 85.3863C89.7795 84.4411 90.5981 83.2021 90.5981 81.9637C90.5981 81.9004 90.589 80.1438 90.589 80.1438C90.589 80.1438 89.6965 79.4379 88.1428 78.5409Z" fill="url(#paint1_linear_2202_2660)"/>
<path id="Vector_31" d="M88.1428 76.6542C84.8688 74.7638 79.5604 74.7638 76.2862 76.6542C73.012 78.5445 73.012 81.6092 76.2862 83.4996C79.5604 85.3896 84.8688 85.3896 88.1423 83.4996C91.4165 81.6092 91.4165 78.5442 88.1428 76.6542Z" fill="#FED416"/>
<path id="Vector_32" d="M88.1428 76.1053C84.8688 74.2151 79.5605 74.2151 76.2863 76.1053C74.8545 76.9317 73.8309 77.6414 73.8309 77.6414C73.8309 77.6414 73.8345 79.3326 73.8312 79.4679C73.8042 80.7267 74.6224 81.99 76.286 82.9507C79.5602 84.8412 84.8686 84.8412 88.1421 82.9507C89.7795 82.0057 90.5981 80.7668 90.5981 79.5281C90.5981 79.4648 90.589 77.7084 90.589 77.7084C90.589 77.7084 89.6965 77.0023 88.1428 76.1053Z" fill="url(#paint2_linear_2202_2660)"/>
<path id="Vector_33" d="M88.1428 74.2186C84.8688 72.3284 79.5604 72.3284 76.2862 74.2186C73.012 76.1089 73.012 79.1738 76.2862 81.064C79.5604 82.954 84.8688 82.954 88.1423 81.064C91.4165 79.1738 91.4165 76.1086 88.1428 74.2186Z" fill="#FED416"/>
<path id="Vector_34" d="M88.1428 73.6268C84.8688 71.7366 79.5605 71.7366 76.2863 73.6268C74.8545 74.4532 73.8309 75.1627 73.8309 75.1627C73.8309 75.1627 73.8345 76.854 73.8312 76.9892C73.8042 78.2478 74.6224 79.5113 76.286 80.472C79.5602 82.3625 84.8686 82.3625 88.1421 80.472C89.7795 79.5268 90.5981 78.2881 90.5981 77.0494C90.5981 76.9861 90.589 75.2297 90.589 75.2297C90.589 75.2297 89.6965 74.524 88.1428 73.6268Z" fill="url(#paint3_linear_2202_2660)"/>
<path id="Vector_35" d="M88.1428 71.7401C84.8688 69.8498 79.5604 69.8498 76.2862 71.7401C73.012 73.6305 73.012 76.6952 76.2862 78.5855C79.5604 80.4755 84.8688 80.4755 88.1423 78.5855C91.4165 76.6952 91.4165 73.6303 88.1428 71.7401Z" fill="#FED416"/>
<path id="Vector_36" d="M88.1428 71.1952C84.8688 69.305 79.5605 69.305 76.2863 71.1952C74.8545 72.0216 73.8309 72.7313 73.8309 72.7313C73.8309 72.7313 73.8345 74.4225 73.8312 74.5575C73.8042 75.8164 74.6224 77.0797 76.286 78.0406C79.5602 79.9311 84.8686 79.9311 88.1421 78.0406C89.7795 77.0954 90.5981 75.8565 90.5981 74.618C90.5981 74.5547 90.589 72.7981 90.589 72.7981C90.589 72.7981 89.6965 72.0924 88.1428 71.1952Z" fill="url(#paint4_linear_2202_2660)"/>
<path id="Vector_37" d="M88.1428 69.3084C84.8688 67.4182 79.5604 67.4182 76.2862 69.3084C73.012 71.1987 73.012 74.2636 76.2862 76.1538C79.5604 78.0438 84.8688 78.0438 88.1423 76.1538C91.4165 74.2636 91.4165 71.1987 88.1428 69.3084Z" fill="#FED416"/>
</g>
</g>
<defs>
<linearGradient id="paint0_linear_2202_2660" x1="83.3627" y1="84.0037" x2="79.3589" y2="85.3082" gradientUnits="userSpaceOnUse">
<stop stop-color="#F5C314"/>
<stop offset="1" stop-color="#EBB90A"/>
</linearGradient>
<linearGradient id="paint1_linear_2202_2660" x1="83.3627" y1="81.5894" x2="79.3589" y2="82.8937" gradientUnits="userSpaceOnUse">
<stop stop-color="#F5C314"/>
<stop offset="1" stop-color="#EBB90A"/>
</linearGradient>
<linearGradient id="paint2_linear_2202_2660" x1="83.3627" y1="79.1538" x2="79.3589" y2="80.4583" gradientUnits="userSpaceOnUse">
<stop stop-color="#F5C314"/>
<stop offset="1" stop-color="#EBB90A"/>
</linearGradient>
<linearGradient id="paint3_linear_2202_2660" x1="83.3627" y1="76.6754" x2="79.3589" y2="77.9799" gradientUnits="userSpaceOnUse">
<stop stop-color="#F5C314"/>
<stop offset="1" stop-color="#EBB90A"/>
</linearGradient>
<linearGradient id="paint4_linear_2202_2660" x1="83.3627" y1="74.244" x2="79.3589" y2="75.5483" gradientUnits="userSpaceOnUse">
<stop stop-color="#F5C314"/>
<stop offset="1" stop-color="#EBB90A"/>
</linearGradient>
</defs>
</svg>
