<svg width="120" height="120" viewBox="0 0 120 120" fill="none" xmlns="http://www.w3.org/2000/svg">
<g id="CC1">
<g id="Group">
<path id="Vector" d="M112.921 67.6133C112.634 67.9008 112.275 68.1166 111.843 68.4041L78.048 87.9622C75.3876 89.4718 71.4331 89.616 69.132 88.3217L7.51008 52.729C7.36608 52.657 7.22256 52.5132 7.0788 52.3694C7.36608 52.0817 7.7256 51.8662 8.15712 51.5786L42.024 32.0926C44.6124 30.5825 48.5676 30.367 50.868 31.6613L112.49 67.2538C112.634 67.3973 112.778 67.4693 112.921 67.6133Z" fill="#263238"/>
<g id="Group_2">
<path id="Vector_2" d="M114 65.5282C114 66.247 113.64 66.966 112.921 67.6133C112.634 67.9008 112.275 68.1166 111.843 68.4041L83.8003 84.6545L78.048 87.9622C77.3292 88.3934 76.5379 88.681 75.6751 88.897C73.3742 89.472 70.7856 89.2565 69.132 88.3217L61.2941 83.7917L44.9722 74.3724L7.51008 52.7292C7.36608 52.6572 7.22256 52.5134 7.0788 52.3697C6.35952 51.8664 6 51.2189 6 50.5001C6 49.4935 6.71928 48.4865 8.15712 47.6239L42.024 28.0663C42.8868 27.5628 43.8936 27.2033 44.9722 27.0595C47.0573 26.6282 49.3582 26.844 50.868 27.707L61.2941 33.7466L75.6749 42.0156L83.8001 46.7611L112.49 63.2988C113.497 63.8741 114 64.6649 114 65.5282Z" fill="#37474F"/>
<g id="Group_3">
<path id="Vector_3" d="M31.0704 53.352L21.1985 47.6525C20.3354 47.1542 20.4437 46.2838 21.4404 45.7085C22.4369 45.1332 23.9445 45.0706 24.8076 45.569L34.6793 51.2686C35.5423 51.7668 35.4343 52.6373 34.4376 53.2126C33.4409 53.7881 31.9334 53.8502 31.0704 53.352Z" fill="white"/>
<path id="Vector_4" d="M46.692 62.3714L36.8203 56.6719C35.9573 56.1734 36.0653 55.3031 37.062 54.7279C38.0587 54.1523 39.5661 54.0899 40.4292 54.5884L50.3011 60.2879C51.1641 60.7862 51.0559 61.6567 50.0592 62.2319C49.0629 62.807 47.5553 62.8696 46.692 62.3714Z" fill="white"/>
<path id="Vector_5" d="M62.3141 71.3906L52.4421 65.6911C51.5791 65.1929 51.6873 64.3224 52.6838 63.7471C53.6805 63.1718 55.188 63.1092 56.051 63.6077L65.9229 69.3072C66.786 69.8057 66.6777 70.6759 65.6813 71.2512C64.6845 71.8265 63.1771 71.8891 62.3141 71.3906Z" fill="white"/>
<path id="Vector_6" d="M77.9359 80.4098L68.064 74.7103C67.2009 74.2118 67.3092 73.3416 68.3059 72.7663C69.3024 72.1908 70.8101 72.1284 71.6731 72.6269L81.5448 78.3264C82.4078 78.8246 82.2996 79.6951 81.3031 80.2704C80.3064 80.8457 78.7989 80.9081 77.9359 80.4098Z" fill="white"/>
</g>
<g id="Group_4">
<path id="Vector_7" d="M33.5775 62.7457L12.7543 50.7236L15.5669 49.0998L36.3898 61.1218L33.5775 62.7457Z" fill="white"/>
<path id="Vector_8" d="M50.1173 72.295L37.0623 64.7578L39.8748 63.134L52.9299 70.6712L50.1173 72.295Z" fill="white"/>
</g>
<path id="Vector_9" d="M40.0579 49.3308L29.2661 43.1002C28.3526 42.5726 28.4671 41.6513 29.5219 41.0424L33.4294 38.7864C34.4842 38.1773 36.0797 38.111 36.9931 38.6386L47.785 44.8692C48.6984 45.3965 48.5837 46.3178 47.5289 46.927L43.6217 49.183C42.5671 49.7921 40.9714 49.8581 40.0579 49.3308Z" fill="#FFB300"/>
<g id="Group_5">
<path id="Vector_10" d="M49.5732 35.6726C51.0573 34.8155 51.0573 33.4264 49.5732 32.5694C48.089 31.7123 45.6826 31.7123 44.1986 32.5694C42.7145 33.4262 42.7145 34.8155 44.1986 35.6726C45.6828 36.5291 48.089 36.5294 49.5732 35.6726Z" fill="white"/>
<path id="Vector_11" d="M61.3118 43.4332L51.3768 37.697L53.0798 36.7139L63.0149 42.4499L61.3118 43.4332Z" fill="white"/>
</g>
<g id="Group_6">
<path id="Vector_12" d="M69.1361 81.652C67.5797 82.5506 65.0561 82.5506 63.4992 81.6518C61.9426 80.7532 61.9426 79.2962 63.4992 78.3974C65.0558 77.4988 67.5792 77.4988 69.1361 78.3976C70.6925 79.2962 70.6925 80.7532 69.1361 81.652Z" fill="#FFB300"/>
<path id="Vector_13" d="M72.6538 83.6827C71.0971 84.5815 68.5735 84.5815 67.0169 83.6827C65.4603 82.7839 65.4603 81.3271 67.0169 80.4283C68.5735 79.5297 71.0969 79.5297 72.6535 80.4283C74.2102 81.3271 74.2102 82.7841 72.6538 83.6827Z" fill="#F80202"/>
</g>
<g id="Group_7">
<path id="Vector_14" d="M93.4502 61.9877L79.0838 53.6933L80.7869 52.71L95.1533 61.0044L93.4502 61.9877Z" fill="white"/>
<path id="Vector_15" d="M103.21 67.6224L96.0266 63.4752L97.7297 62.4922L104.913 66.6391L103.21 67.6224Z" fill="white"/>
</g>
</g>
<path id="Vector_16" d="M114 65.5282V69.4829C114 70.4892 113.281 71.496 111.843 72.3588L78.048 91.9169C75.3876 93.4265 71.4331 93.5705 69.132 92.2764L7.51008 56.6837C6.50328 56.1082 6 55.3174 6 54.4546V50.4998C6 51.2186 6.35952 51.8662 7.0788 52.3694C7.2228 52.513 7.36608 52.657 7.51008 52.729L69.132 88.3217C71.4329 89.616 75.3876 89.472 78.048 87.9622L111.843 68.4041C112.274 68.1166 112.634 67.9008 112.921 67.6133C113.64 66.966 114 66.247 114 65.5282Z" fill="#263238"/>
<g id="Group_8" opacity="0.1">
<path id="Vector_17" d="M61.2941 33.7464V83.7917L44.9722 74.3724V27.0593C47.0573 26.628 49.3582 26.8438 50.868 27.7068L61.2941 33.7464Z" fill="white"/>
<path id="Vector_18" d="M83.8001 46.7609V84.6545L78.048 87.9622C77.3292 88.3934 76.5379 88.681 75.6751 88.897V42.0154L83.8001 46.7609Z" fill="white"/>
</g>
</g>
</g>
</svg>
