<svg width="120" height="120" viewBox="0 0 120 120" fill="none" xmlns="http://www.w3.org/2000/svg">
<g id="CC2">
<g id="Group">
<g id="Group_2">
<path id="Vector" d="M114 65.436C114 66.3115 113.513 67.2238 112.545 68.0314C112.249 68.2778 111.91 68.5183 111.522 68.7403L91.1242 80.5142L81.7296 85.9387L79.4179 87.2702C76.422 89.0026 71.8913 89.1874 69.2959 87.6895L66.8734 86.2901L43.1465 72.5928L7.7508 52.158C7.64592 52.0963 7.54728 52.0346 7.45488 51.973C6.47472 51.3194 6 50.4874 6 49.6181C6 48.4716 6.83832 47.2632 8.478 46.314L13.7978 43.2439L20.1533 39.57L29.8006 34.0034L39.1951 28.579L40.5823 27.7776C43.5782 26.0515 48.109 25.8605 50.7043 27.3583L112.249 62.8961C113.421 63.5743 114 64.4803 114 65.436Z" fill="#587380"/>
<g id="Group_3">
<path id="Vector_2" d="M62.3477 42.1238L45.4565 32.3717C44.8392 32.0153 44.9165 31.3927 45.6295 30.9811C46.3423 30.5695 47.4206 30.5249 48.0379 30.8813L64.9291 40.6334C65.5466 40.9898 65.4691 41.6124 64.7563 42.024C64.0435 42.4356 62.9652 42.4802 62.3477 42.1238Z" fill="#DADFFF"/>
<path id="Vector_3" d="M30.125 60.7274L13.2338 50.9753C12.6166 50.6189 12.6938 49.9963 13.4069 49.5847C14.1197 49.1731 15.198 49.1285 15.8153 49.4849L32.7065 59.237C33.3238 59.5934 33.2465 60.216 32.5337 60.6276C31.8209 61.0392 30.7423 61.0841 30.125 60.7274Z" fill="#DADFFF"/>
<path id="Vector_4" d="M44.8517 69.2299L35.911 64.068C35.2937 63.7116 35.371 63.089 36.0838 62.6774C36.7968 62.2658 37.8749 62.2212 38.4924 62.5776L47.4331 67.7395C48.0504 68.0959 47.9731 68.7185 47.2601 69.1301C46.5473 69.5414 45.469 69.5863 44.8517 69.2299Z" fill="#DADFFF"/>
<path id="Vector_5" d="M71.6695 53.2921L40.4455 35.2647C39.8282 34.9083 39.9055 34.2857 40.6183 33.8741C41.3311 33.4625 42.4094 33.4179 43.027 33.7743L74.251 51.8014C74.8682 52.1578 74.791 52.7804 74.0782 53.192C73.3654 53.6038 72.2868 53.6485 71.6695 53.2921Z" fill="#DADFFF"/>
<g id="Group_4">
<path id="Vector_6" d="M27.1582 53.4266L18.9773 48.7034C17.8606 48.0588 18.0007 46.9327 19.29 46.1882C20.5793 45.444 22.5298 45.3629 23.6465 46.0078L31.8274 50.731C32.9438 51.3756 32.8039 52.5017 31.5146 53.2462C30.2251 53.9904 28.2749 54.0713 27.1582 53.4266Z" fill="#DADFFF"/>
<path id="Vector_7" d="M43.1988 62.6877L35.0179 57.9645C33.9012 57.3199 34.0414 56.1938 35.3306 55.4493C36.6199 54.7049 38.5704 54.624 39.6871 55.2689L47.868 59.9921C48.9845 60.6367 48.8446 61.7628 47.5553 62.5073C46.2658 63.2515 44.3153 63.3324 43.1988 62.6877Z" fill="#DADFFF"/>
<path id="Vector_8" d="M59.2394 71.9486L51.0586 67.2254C49.9418 66.5808 50.082 65.4547 51.3713 64.7102C52.6608 63.9658 54.611 63.8849 55.7278 64.5295L63.9086 69.2527C65.0254 69.8974 64.8852 71.0234 63.5959 71.7679C62.3064 72.5124 60.3559 72.5933 59.2394 71.9486Z" fill="#DADFFF"/>
<path id="Vector_9" d="M75.2801 81.2097L67.0992 76.4865C65.9825 75.8419 66.1226 74.7158 67.4119 73.9713C68.7014 73.2269 70.6519 73.146 71.7684 73.7906L79.9493 78.5138C81.066 79.1585 80.9258 80.2845 79.6366 81.029C78.347 81.7735 76.3966 81.8544 75.2801 81.2097Z" fill="#DADFFF"/>
</g>
</g>
<path id="Vector_10" d="M43.4407 46.363L39.5383 48.6158C38.6628 49.1213 37.2482 49.1182 36.3727 48.6127L27.3132 43.3824C26.4377 42.877 26.4377 42.0631 27.3132 41.5577L31.2156 39.3046C32.0909 38.7991 33.5057 38.796 34.3812 39.3017L43.4407 44.5322C44.3162 45.0377 44.3162 45.8575 43.4407 46.363Z" fill="#FFD54F"/>
<g id="Group_5">
<path id="Vector_11" d="M43.1897 46.5079L42.4745 46.921L30.2494 39.8626L30.9646 39.4498L43.1897 46.5079Z" fill="#587380"/>
<path id="Vector_12" d="M40.5048 48.0581L39.7894 48.4711L27.5642 41.413L28.2797 40.9999L40.5048 48.0581Z" fill="#587380"/>
</g>
<path id="Vector_13" d="M93.9456 57.3859L92.928 56.7986C91.1124 55.7503 87.9408 55.8818 85.8442 57.0922C83.7475 58.3027 83.5198 60.1339 85.3356 61.182L86.353 61.7695C88.1688 62.8178 91.3404 62.6863 93.437 61.476C95.5334 60.2654 95.7612 58.4342 93.9456 57.3859Z" fill="#FF5454"/>
<path id="Vector_14" d="M95.0914 63.8336L89.478 60.5926C88.897 60.2573 88.9699 59.6713 89.6407 59.2839C90.3118 58.8965 91.3265 58.8545 91.9075 59.1898L97.5209 62.4308C98.1019 62.7663 98.029 63.3524 97.3582 63.7395C96.6871 64.1271 95.6722 64.1691 95.0914 63.8336Z" fill="#DADFFF"/>
<g id="Group_6">
<path id="Vector_15" d="M69.4757 82.7444C68.0935 83.5424 65.8529 83.5424 64.4707 82.7444C63.0886 81.9464 63.0886 80.6528 64.4707 79.8548C65.8529 79.0568 68.0935 79.0571 69.4757 79.8548C70.8578 80.6526 70.8578 81.9464 69.4757 82.7444Z" fill="#FF5454"/>
<path id="Vector_16" d="M73.0709 84.8199C71.689 85.6179 69.4481 85.6177 68.0659 84.8199C66.6838 84.0219 66.6838 82.7281 68.0659 81.9303C69.4478 81.1323 71.6887 81.1326 73.0709 81.9303C74.453 82.7283 74.453 84.0219 73.0709 84.8199Z" fill="#FFD54F"/>
</g>
</g>
<path id="Vector_17" d="M114 65.436V70.386C114 71.5327 113.162 72.7409 111.522 73.6901L79.4179 92.2265C77.735 93.2004 75.559 93.6811 73.5247 93.6504C71.9405 93.6319 70.4302 93.299 69.2962 92.6457L7.7508 57.1078C6.57336 56.4298 6 55.5238 6 54.5681V49.6181C6 50.4871 6.47472 51.3194 7.45488 51.973C7.54728 52.0346 7.64592 52.0963 7.7508 52.158L69.2959 87.6895C70.4302 88.343 71.9342 88.6757 73.5245 88.6944C75.5587 88.7314 77.7348 88.2442 79.4177 87.2705L111.522 68.7403C111.91 68.5183 112.249 68.2781 112.545 68.0313C113.513 67.2237 114 66.3113 114 65.436Z" fill="#37474F"/>
<path id="Vector_18" d="M114 65.436V70.386C114 71.5327 113.162 72.7409 111.522 73.6901L79.4179 92.2265C77.735 93.2004 75.559 93.6811 73.5247 93.6504V88.6944C75.559 88.7314 77.735 88.2442 79.4179 87.2705L111.522 68.7403C111.91 68.5183 112.249 68.2781 112.545 68.0314C113.513 67.2238 114 66.3113 114 65.436Z" fill="#263238"/>
<g id="Group_7" opacity="0.2">
<path id="Vector_19" d="M91.1242 80.514L81.7294 85.9385L29.8008 34.0037L39.1951 28.5792L91.1242 80.514Z" fill="white"/>
<path id="Vector_20" d="M66.8734 86.2901L43.1467 72.5928L13.7981 43.2442L20.1535 39.5702L66.8734 86.2901Z" fill="white"/>
</g>
</g>
</g>
</svg>
