<svg width="51" height="56" viewBox="0 0 51 56" fill="none" xmlns="http://www.w3.org/2000/svg">
<g id="Vector">
<path d="M44.5999 5.60234L45.5456 4.2419L40.7264 1.51856C40.6354 1.46585 40.5457 1.41438 40.4535 1.36413C36.2135 -0.94373 30.0356 -0.378722 23.1568 3.58005C10.3681 10.9338 0.00810752 27.2347 0.00810752 39.9726C0.00810752 45.3212 1.83418 49.1942 4.89854 51.344C5.35557 51.664 5.83843 51.9456 6.34218 52.186L10.5231 54.6262L11.4478 53.2964C14.8811 53.3295 18.88 52.1799 23.1494 49.7237C35.9381 42.3699 46.2981 26.0691 46.2981 13.3299C46.3018 10.245 45.6968 7.65526 44.5999 5.60234Z" fill="#FF9D4D"/>
<path d="M34.7121 0.367688C36.8025 0.367688 38.6729 0.808909 40.2739 1.68033L40.2936 1.69137C40.376 1.73672 40.4584 1.78328 40.5395 1.83353L45.0057 4.36323L44.2913 5.39153L44.1683 5.5766L44.2753 5.77516C45.3759 7.83421 45.9341 10.3737 45.9341 13.3226C45.9341 25.9269 35.6331 42.1101 22.9711 49.3965C18.9648 51.7006 15.0323 52.9189 11.5991 52.9189H11.2609L11.149 53.0807L10.4198 54.1286L6.53033 51.8612L6.51802 51.8538L6.50451 51.8477C6.01927 51.6152 5.55374 51.3439 5.1125 51.0363L5.09281 51.0229C2.52155 49.2089 0.932827 46.1792 0.50121 42.2584C0.483994 42.1126 0.469225 41.9643 0.456928 41.8147C0.405282 41.2228 0.378242 40.6013 0.378242 39.9665C0.381395 38.84 0.458192 37.715 0.608176 36.5985C0.624162 36.4685 0.64263 36.3399 0.662305 36.2099C0.899877 34.6144 1.2533 33.0382 1.71981 31.4937C1.75424 31.3711 1.79115 31.2486 1.82804 31.1346C2.29287 29.6409 2.84049 28.174 3.46841 26.7407L3.6172 26.4049C4.23204 25.02 4.9391 23.6276 5.70765 22.266C5.76667 22.1606 5.83064 22.0552 5.88844 21.9485C6.65084 20.6212 7.48702 19.3049 8.37608 18.0339C8.44494 17.9334 8.51626 17.8329 8.58881 17.7312C9.48893 16.4602 10.453 15.2162 11.4564 14.0347C11.5363 13.9391 11.6163 13.8447 11.7023 13.7515C12.7439 12.5406 13.842 11.3738 14.9684 10.2867C15.0594 10.1985 15.1504 10.1102 15.245 10.0207C16.4301 8.89143 17.6738 7.8249 18.971 6.82553C19.0755 6.74463 19.1813 6.66497 19.2882 6.5804C20.584 5.59927 21.9392 4.69877 23.3462 3.88402L23.6155 3.73082L23.9844 3.52368C25.6492 2.60314 27.4014 1.84937 29.2154 1.27343L29.2683 1.25749C29.454 1.19989 29.6065 1.15454 29.7516 1.11409C31.3618 0.639044 33.0304 0.389495 34.7096 0.372595L34.7121 0.367688ZM34.7121 0C32.9983 0.016825 31.2953 0.271343 29.652 0.756217C29.4884 0.802791 29.3261 0.850583 29.1601 0.90206C27.3007 1.48876 25.5056 2.26158 23.8024 3.2087L23.4261 3.4195C23.3351 3.46975 23.2441 3.52246 23.1543 3.57393C21.7345 4.39418 20.3669 5.30125 19.0595 6.28993C18.9525 6.36959 18.8456 6.45171 18.7398 6.53505C17.4318 7.54238 16.1779 8.6175 14.9831 9.75599L14.7052 10.0232C13.5575 11.1287 12.4611 12.2918 11.4158 13.5125C11.3347 13.6069 11.2523 13.7025 11.1699 13.7993C10.153 14.9968 9.18766 16.242 8.28262 17.5216C8.2113 17.6221 8.13875 17.7238 8.06866 17.8255C7.17099 19.11 6.33357 20.4275 5.56502 21.7671C5.5023 21.8725 5.44205 21.9804 5.38057 22.087C4.60341 23.461 3.90497 24.8557 3.27414 26.2542C3.22249 26.3685 3.17208 26.4825 3.12289 26.5961C2.48938 28.0409 1.93679 29.5197 1.46772 31.0255C1.43083 31.1481 1.39395 31.2707 1.35829 31.3932C0.887193 32.9547 0.530071 34.5481 0.289709 36.1609C0.270034 36.2933 0.251566 36.4244 0.23558 36.5568C0.0828619 37.6883 0.00482657 38.8285 0.00195312 39.9702C0.00195312 40.6238 0.0289952 41.2505 0.0831011 41.8503C0.0953979 42.0035 0.110167 42.1542 0.127383 42.3038C0.584823 46.455 2.29285 49.5178 4.89239 51.3415C5.34927 51.6621 5.83215 51.9441 6.33603 52.1848L10.5169 54.625L11.4417 53.2952H11.5941C14.9942 53.2952 18.9415 52.1443 23.1531 49.7225C35.9418 42.3687 46.3006 26.0679 46.3006 13.3287C46.3006 10.2511 45.6956 7.6614 44.5987 5.60724L45.5443 4.2468L40.7264 1.51856C40.6363 1.46545 40.5453 1.41397 40.4535 1.36413C38.8081 0.469418 36.8714 0.00613412 34.7146 0.00613412L34.7121 0Z" fill="#FFE840"/>
<path d="M41.7661 39.7833C51.9835 26.2444 54.0367 10.5987 46.3521 4.83745C38.6675 -0.923758 24.1551 5.38126 13.9377 18.9201C3.72028 32.4589 1.66705 48.1047 9.35164 53.8659C17.0362 59.6272 31.5487 53.3221 41.7661 39.7833Z" fill="#FFD071"/>
<path d="M41.7661 39.7833C51.9835 26.2444 54.0367 10.5987 46.3521 4.83745C38.6675 -0.923758 24.1551 5.38126 13.9377 18.9201C3.72028 32.4589 1.66705 48.1047 9.35164 53.8659C17.0362 59.6272 31.5487 53.3221 41.7661 39.7833Z" fill="#FFE840"/>
<path d="M28.4407 49.5019C23.0388 52.6113 17.9602 53.4361 14.1396 51.8306C10.319 50.225 8.21621 46.3704 8.21621 40.9862C8.21621 35.602 10.3202 29.328 14.1396 23.3225C17.9589 17.3169 23.0388 12.2918 28.4407 9.18853C33.8427 6.08524 38.9225 5.25426 42.7419 6.85983C46.5613 8.46541 48.6665 12.32 48.6665 17.7054C48.6665 23.0908 46.5625 29.3624 42.7419 35.3679C38.9213 41.3735 33.8427 46.3937 28.4407 49.5019ZM28.4407 10.294C17.9024 16.3584 9.32908 29.8379 9.32908 40.3415C9.32908 50.8451 17.9024 54.4571 28.4407 48.3927C38.9791 42.3283 47.5524 28.8488 47.5524 18.3452C47.5524 7.84157 38.9791 4.22964 28.4407 10.294Z" fill="#FF9D4D"/>
<path d="M31.269 25.9355V29.0082C31.205 29.0388 31.1399 29.0743 31.0722 29.1123L29.3802 30.0855V27.2151L30.332 26.6672C30.6768 26.4677 30.9922 26.2215 31.269 25.9355Z" fill="#D1975D"/>
<path d="M36.0045 26.3988C35.3782 25.9412 34.528 25.864 33.4541 26.1671C34.3018 25.3227 34.9833 24.3275 35.4634 23.233C35.9209 22.1708 36.1496 21.1829 36.1496 20.2694C36.1592 19.7371 36.0557 19.2087 35.8458 18.719C35.6686 18.2968 35.3689 17.937 34.9851 17.6858C34.5788 17.441 34.1056 17.33 33.6324 17.3684C33.1037 17.3921 32.5134 17.591 31.8617 17.9652L31.269 18.3096V15.2774L29.3802 16.3633V19.3968L27.0881 20.7143V17.6809L25.1993 18.768V21.8002L21.8275 23.7404V42.4422L25.1993 40.5021V43.6507L27.0881 42.5648V39.4149L29.3851 38.0937V41.2424L31.2739 40.1552V36.9992C31.9642 36.5742 32.6189 36.0942 33.2316 35.564C33.942 34.9539 34.5881 34.273 35.1597 33.5319C35.695 32.8424 36.1351 32.0843 36.4681 31.278C36.7788 30.5315 36.9404 29.7318 36.9439 28.9236C36.9431 27.6939 36.63 26.8523 36.0045 26.3988ZM25.4735 24.754L30.4943 21.864C30.7335 21.7183 30.9973 21.617 31.2727 21.5649C31.5058 21.5205 31.747 21.5514 31.9613 21.6532C32.3572 21.8468 32.5556 22.3031 32.5565 23.0222C32.552 23.7741 32.3267 24.5082 31.9084 25.1339C31.7244 25.4231 31.5114 25.6929 31.2727 25.9392C30.9961 26.2265 30.6807 26.474 30.3357 26.6746L27.0881 28.5363L25.4747 29.4653L25.4735 24.754ZM33.084 31.4116C32.959 31.7849 32.7907 32.1424 32.5823 32.4767C32.369 32.8204 32.1165 33.1383 31.8297 33.4241C31.6568 33.5969 31.4706 33.7559 31.2727 33.8996C31.1502 33.9882 31.0229 34.07 30.8915 34.1447L25.4735 37.2615V32.3357L31.0759 29.1123C31.1436 29.0743 31.2087 29.0388 31.2727 29.0082C31.4831 28.8997 31.7121 28.832 31.9478 28.8084C32.1865 28.7825 32.4273 28.8331 32.6352 28.953C32.8396 29.0819 33.0007 29.2689 33.0975 29.4898C33.2175 29.7597 33.2763 30.0526 33.2697 30.3478C33.2653 30.7088 33.2026 31.0668 33.084 31.4079V31.4116Z" fill="#FF9D4D"/>
<path d="M30.1549 6.86229L29.9692 7.1834L23.4261 3.41705L23.8024 3.20624L30.1549 6.86229Z" fill="#FFE840"/>
<path d="M24.3729 9.34418L24.1873 9.66407L18.7398 6.53015C18.8456 6.44925 18.9525 6.36714 19.0595 6.28502L24.3729 9.34418Z" fill="#FFE840"/>
<path d="M20.347 12.8372L20.1613 13.1583L14.7052 10.0183L14.9831 9.7511L20.347 12.8372Z" fill="#FFE840"/>
<path d="M16.321 16.3303L16.1353 16.6501L11.1724 13.7944C11.2523 13.6976 11.3347 13.602 11.4183 13.5076L16.321 16.3303Z" fill="#FFE840"/>
<path d="M14.0535 20.832L13.8678 21.1519L8.07112 17.8194C8.14121 17.7177 8.21376 17.6159 8.28508 17.5154L14.0535 20.832Z" fill="#FFE840"/>
<path d="M12.5853 25.8301L12.3996 26.15L5.38303 22.0821C5.44328 21.9755 5.506 21.8676 5.56748 21.7622L12.5853 25.8301Z" fill="#FFE840"/>
<path d="M9.72995 29.9654L9.54427 30.2865L3.12532 26.5937C3.17451 26.4801 3.22496 26.3661 3.2766 26.2517L9.72995 29.9654Z" fill="#FFE840"/>
<path d="M8.64291 35.151L8.45722 35.4709L1.36075 31.3871C1.39641 31.2645 1.43329 31.142 1.47018 31.0194L8.64291 35.151Z" fill="#FFE840"/>
<path d="M6.80947 39.9052L6.62378 40.2251L0.238042 36.5482C0.254028 36.4158 0.272496 36.2847 0.29217 36.1523L6.80947 39.9052Z" fill="#FFE840"/>
<path d="M7.08245 45.8716L6.89677 46.1914L0.133537 42.2976C0.116322 42.1481 0.101552 41.9973 0.0892555 41.8441L7.08245 45.8716Z" fill="#FFE840"/>
<path d="M35.7143 4.24435L35.5286 4.56423L29.1601 0.899606C29.3249 0.84813 29.4872 0.800338 29.652 0.753764L35.7143 4.24435Z" fill="#FFE840"/>
</g>
</svg>
