<svg width="52" height="53" viewBox="0 0 52 53" fill="none" xmlns="http://www.w3.org/2000/svg">
<g id="fi_12723624">
<g id="Group">
<path id="Vector" d="M30.3496 29.0079L3.56348 13.5429L21.6501 3.10059L48.4363 18.5656L30.3496 29.0079Z" fill="#587380"/>
<path id="Vector_2" d="M48.4365 39.4578L30.3494 49.9004V29.0158L48.4365 18.5732V39.4578Z" fill="#263238"/>
<g id="Group_2">
<path id="Vector_3" d="M3.56348 13.5518L30.3496 29.0167V49.9013L3.56348 34.4363V13.5518Z" fill="#37474F"/>
<path id="Vector_4" d="M6.67115 17.5172L27.2419 29.3938C27.9593 29.808 28.5409 30.9192 28.5409 31.8757V44.953C28.5409 45.9095 27.9593 46.3491 27.2419 45.935L6.67115 34.0585C5.95376 33.6443 5.37219 32.5331 5.37219 31.5766V18.4993C5.37219 17.5427 5.95376 17.103 6.67115 17.5172Z" fill="#263238"/>
<path id="Vector_5" d="M7.36024 18.6275L26.553 29.7084C27.2704 30.1227 27.852 31.2339 27.852 32.1904V43.8428C27.852 44.7993 27.2704 45.2391 26.553 44.8249L7.36024 33.744C6.64285 33.3298 6.06128 32.2187 6.06128 31.2622V19.6095C6.06128 18.653 6.64285 18.2134 7.36024 18.6275Z" fill="#37474F"/>
<path id="Vector_6" d="M8.73443 21.2042L25.1786 30.6983C25.8939 31.1112 26.4737 32.2192 26.4737 33.1729V41.2703C26.4737 42.224 25.8938 42.6624 25.1786 42.2494L8.73443 32.7554C8.01911 32.3425 7.43921 31.2345 7.43921 30.2807V22.1834C7.43931 21.2296 8.01911 20.7913 8.73443 21.2042Z" fill="#B1B7F5"/>
<path id="Vector_7" d="M9.16187 22.4531L15.88 26.3318V35.8791L9.16187 32.0003V22.4531Z" fill="#37474F"/>
<path id="Vector_8" d="M13.5566 33.0534L14.045 33.3353C14.1873 33.4175 14.3027 33.6379 14.3027 33.8276C14.3027 34.0173 14.1873 34.1045 14.045 34.0224L13.5566 33.7403C13.4143 33.6582 13.299 33.4378 13.299 33.2481C13.2991 33.0584 13.4143 32.9712 13.5566 33.0534Z" fill="#263238"/>
<path id="Vector_9" d="M11.4854 31.8579L10.9969 31.5758C10.8546 31.4937 10.7393 31.5809 10.7393 31.7706C10.7393 31.9603 10.8546 32.1807 10.9969 32.2629L11.4854 32.5448C11.6276 32.627 11.743 32.5398 11.743 32.3501C11.7429 32.1605 11.6276 31.94 11.4854 31.8579Z" fill="#263238"/>
<g id="Group_3">
<g id="Group_4">
<g id="Group_5">
<path id="Vector_10" d="M13.3665 31.1938C13.3665 30.8907 13.5792 30.7679 13.8417 30.9194C14.1042 31.0709 14.317 31.4395 14.317 31.7427C14.317 32.0458 14.1042 32.1686 13.8417 32.017C13.5793 31.8655 13.3665 31.4969 13.3665 31.1938Z" fill="#B1B7F5"/>
<path id="Vector_11" d="M13.6516 31.3584C13.6516 31.2371 13.7368 31.188 13.8418 31.2486C13.9469 31.3093 14.0319 31.4566 14.0319 31.5779C14.0319 31.6991 13.9469 31.7483 13.8418 31.6876C13.7368 31.627 13.6516 31.4795 13.6516 31.3584Z" fill="#37474F"/>
</g>
<g id="Group_6">
<path id="Vector_12" d="M12.0457 30.4301C12.0457 30.127 12.2584 30.0042 12.5209 30.1557C12.7834 30.3073 12.9962 30.6758 12.9962 30.979C12.9962 31.282 12.7834 31.405 12.5209 31.2533C12.2584 31.1018 12.0457 30.7332 12.0457 30.4301Z" fill="#B1B7F5"/>
<path id="Vector_13" d="M12.3309 30.5947C12.3309 30.4735 12.416 30.4244 12.521 30.4849C12.6261 30.5455 12.7112 30.6929 12.7112 30.8142C12.7112 30.9353 12.6261 30.9845 12.521 30.924C12.416 30.8634 12.3309 30.7159 12.3309 30.5947Z" fill="#37474F"/>
</g>
<g id="Group_7">
<path id="Vector_14" d="M10.7249 29.6674C10.7249 29.3643 10.9376 29.2415 11.2001 29.393C11.4626 29.5446 11.6754 29.9131 11.6754 30.2163C11.6754 30.5193 11.4626 30.6422 11.2001 30.4906C10.9376 30.3391 10.7249 29.9704 10.7249 29.6674Z" fill="#B1B7F5"/>
<path id="Vector_15" d="M11.01 29.832C11.01 29.7108 11.0951 29.6616 11.2001 29.7223C11.3051 29.783 11.3903 29.9303 11.3903 30.0516C11.3903 30.1727 11.3052 30.2219 11.2001 30.1613C11.0952 30.1007 11.01 29.9533 11.01 29.832Z" fill="#37474F"/>
</g>
</g>
<g id="Group_8">
<g id="Group_9">
<path id="Vector_16" d="M13.3665 29.643C13.3665 29.3399 13.5792 29.2171 13.8417 29.3686C14.1042 29.5201 14.317 29.8887 14.317 30.1919C14.317 30.495 14.1042 30.6179 13.8417 30.4662C13.5793 30.3147 13.3665 29.9461 13.3665 29.643Z" fill="#B1B7F5"/>
<path id="Vector_17" d="M13.6516 29.8076C13.6516 29.6863 13.7368 29.6372 13.8418 29.6979C13.9469 29.7585 14.0319 29.9059 14.0319 30.0271C14.0319 30.1483 13.9469 30.1975 13.8418 30.1369C13.7368 30.0762 13.6516 29.9287 13.6516 29.8076Z" fill="#37474F"/>
</g>
<g id="Group_10">
<path id="Vector_18" d="M12.0457 28.8813C12.0457 28.5782 12.2584 28.4554 12.5209 28.6069C12.7834 28.7584 12.9962 29.127 12.9962 29.4302C12.9962 29.7332 12.7834 29.856 12.5209 29.7045C12.2584 29.553 12.0457 29.1844 12.0457 28.8813Z" fill="#B1B7F5"/>
<path id="Vector_19" d="M12.3309 29.0459C12.3309 28.9246 12.416 28.8754 12.521 28.9362C12.6261 28.9968 12.7112 29.1442 12.7112 29.2656C12.7112 29.3867 12.6261 29.4359 12.521 29.3753C12.416 29.3145 12.3309 29.1671 12.3309 29.0459Z" fill="#37474F"/>
</g>
<g id="Group_11">
<path id="Vector_20" d="M10.7249 28.1186C10.7249 27.8155 10.9376 27.6927 11.2001 27.8442C11.4626 27.9957 11.6754 28.3643 11.6754 28.6675C11.6754 28.9705 11.4626 29.0933 11.2001 28.9418C10.9376 28.7902 10.7249 28.4216 10.7249 28.1186Z" fill="#B1B7F5"/>
<path id="Vector_21" d="M11.01 28.2832C11.01 28.162 11.0951 28.1128 11.2001 28.1734C11.3051 28.2341 11.3903 28.3814 11.3903 28.5027C11.3903 28.6239 11.3052 28.6731 11.2001 28.6124C11.0952 28.5519 11.01 28.4045 11.01 28.2832Z" fill="#37474F"/>
</g>
</g>
<g id="Group_12">
<g id="Group_13">
<path id="Vector_22" d="M13.3665 28.0941C13.3665 27.7911 13.5792 27.6683 13.8417 27.8198C14.1042 27.9713 14.317 28.3399 14.317 28.6431C14.317 28.9461 14.1042 29.069 13.8417 28.9174C13.5793 28.7659 13.3665 28.3973 13.3665 28.0941Z" fill="#B1B7F5"/>
<path id="Vector_23" d="M13.6516 28.2588C13.6516 28.1375 13.7368 28.0883 13.8418 28.1491C13.9469 28.2097 14.0319 28.3571 14.0319 28.4783C14.0319 28.5995 13.9469 28.6487 13.8418 28.5882C13.7368 28.5274 13.6516 28.38 13.6516 28.2588Z" fill="#37474F"/>
</g>
<g id="Group_14">
<path id="Vector_24" d="M12.0457 27.3305C12.0457 27.0274 12.2584 26.9046 12.5209 27.0561C12.7834 27.2076 12.9962 27.5762 12.9962 27.8794C12.9962 28.1824 12.7834 28.3053 12.5209 28.1537C12.2584 28.0022 12.0457 27.6335 12.0457 27.3305Z" fill="#B1B7F5"/>
<path id="Vector_25" d="M12.3309 27.4951C12.3309 27.3739 12.416 27.3247 12.521 27.3854C12.6261 27.446 12.7112 27.5934 12.7112 27.7148C12.7112 27.8359 12.6261 27.8851 12.521 27.8245C12.416 27.7639 12.3309 27.6164 12.3309 27.4951Z" fill="#37474F"/>
</g>
<g id="Group_15">
<path id="Vector_26" d="M10.7249 26.5678C10.7249 26.2647 10.9376 26.1419 11.2001 26.2934C11.4626 26.4449 11.6754 26.8135 11.6754 27.1167C11.6754 27.4197 11.4626 27.5426 11.2001 27.391C10.9376 27.2394 10.7249 26.8708 10.7249 26.5678Z" fill="#B1B7F5"/>
<path id="Vector_27" d="M11.01 26.7324C11.01 26.6112 11.0951 26.562 11.2001 26.6226C11.3051 26.6833 11.3903 26.8306 11.3903 26.9519C11.3903 27.0732 11.3052 27.1224 11.2001 27.0616C11.0952 27.001 11.01 26.8536 11.01 26.7324Z" fill="#37474F"/>
</g>
</g>
<g id="Group_16">
<g id="Group_17">
<path id="Vector_28" d="M13.3665 26.5424C13.3665 26.2394 13.5792 26.1164 13.8417 26.2681C14.1042 26.4196 14.317 26.7883 14.317 27.0913C14.317 27.3944 14.1042 27.5172 13.8417 27.3657C13.5793 27.2142 13.3665 26.8456 13.3665 26.5424Z" fill="#B1B7F5"/>
<path id="Vector_29" d="M13.6516 26.7071C13.6516 26.5858 13.7368 26.5366 13.8418 26.5973C13.9469 26.6579 14.0319 26.8053 14.0319 26.9265C14.0319 27.0477 13.9469 27.0969 13.8418 27.0362C13.7368 26.9757 13.6516 26.8282 13.6516 26.7071Z" fill="#37474F"/>
</g>
<g id="Group_18">
<path id="Vector_30" d="M12.0457 25.7797C12.0457 25.4766 12.2584 25.3538 12.5209 25.5053C12.7834 25.6569 12.9962 26.0254 12.9962 26.3286C12.9962 26.6317 12.7834 26.7546 12.5209 26.603C12.2584 26.4514 12.0457 26.0827 12.0457 25.7797Z" fill="#B1B7F5"/>
<path id="Vector_31" d="M12.3309 25.9443C12.3309 25.8231 12.416 25.7739 12.521 25.8346C12.6261 25.8952 12.7112 26.0426 12.7112 26.1638C12.7112 26.2851 12.6261 26.3343 12.521 26.2735C12.416 26.213 12.3309 26.0655 12.3309 25.9443Z" fill="#37474F"/>
</g>
<g id="Group_19">
<path id="Vector_32" d="M10.7249 25.0161C10.7249 24.713 10.9376 24.5901 11.2001 24.7417C11.4626 24.8932 11.6754 25.2618 11.6754 25.565C11.6754 25.868 11.4626 25.9909 11.2001 25.8393C10.9376 25.6877 10.7249 25.3191 10.7249 25.0161Z" fill="#B1B7F5"/>
<path id="Vector_33" d="M11.01 25.1806C11.01 25.0594 11.0951 25.0103 11.2001 25.0709C11.3051 25.1315 11.3903 25.279 11.3903 25.4003C11.3903 25.5215 11.3052 25.5707 11.2001 25.51C11.0952 25.4493 11.01 25.302 11.01 25.1806Z" fill="#37474F"/>
</g>
</g>
</g>
<path id="Vector_34" d="M20.196 33.5971C20.196 32.0335 21.2939 31.3997 22.6479 32.1816C24.0021 32.9635 25.0999 34.8648 25.0999 36.4284C25.0999 37.9921 24.0021 38.6257 22.6479 37.844C21.2939 37.0621 20.196 35.1608 20.196 33.5971Z" fill="#37474F"/>
<path id="Vector_35" d="M20.7427 33.9132C20.7427 32.9234 21.3094 32.4116 22.0868 32.5837C22.2648 32.6236 22.4537 32.699 22.6462 32.8102C22.8423 32.9234 23.0312 33.066 23.2092 33.2358C23.9902 33.9595 24.5569 35.1254 24.5569 36.1153C24.5569 37.1053 23.9902 37.6169 23.2092 37.4386C23.0313 37.4029 22.8423 37.3275 22.6462 37.2142C22.4537 37.103 22.2648 36.9604 22.0868 36.7947C21.3094 36.0691 20.7427 34.9031 20.7427 33.9132Z" fill="#263238"/>
<g id="Group_20">
<path id="Vector_36" d="M22.0868 36.795V32.584C22.2648 32.6239 22.4537 32.6993 22.6462 32.8105C22.8424 32.9238 23.0312 33.0663 23.2093 33.2362V37.4389C23.0313 37.4032 22.8424 37.3278 22.6462 37.2145C22.4537 37.1033 22.2647 36.9607 22.0868 36.795Z" fill="#37474F"/>
<path id="Vector_37" d="M21.672 34.4497C21.672 33.8273 22.109 33.575 22.6479 33.8862C23.187 34.1975 23.6239 34.9543 23.6239 35.5766C23.6239 36.1991 23.187 36.4514 22.6479 36.1401C22.109 35.8288 21.672 35.072 21.672 34.4497Z" fill="#37474F"/>
</g>
</g>
</g>
</g>
</svg>
