<svg width="120" height="120" viewBox="0 0 120 120" fill="none" xmlns="http://www.w3.org/2000/svg">
<g id="FOB 2">
<g id="Group">
<g id="Group_2">
<g id="Group_3">
<g id="Group_4">
<g id="Group_5">
<path id="Vector" d="M114 36.5931L113.959 51.0358C113.955 52.4753 113.162 53.9432 111.563 55.2096L111.603 40.7669C113.203 39.5004 113.996 38.0326 114 36.5931Z" fill="#2C353B"/>
</g>
</g>
<g id="Group_6">
<g id="Group_7">
<path id="Vector_2" d="M47.3407 69.9089L47.2997 84.3519L14.7432 65.5551L14.7843 51.1124L47.3407 69.9089Z" fill="#3B4951"/>
</g>
</g>
<g id="Group_8">
<g id="Group_9">
<path id="Vector_3" d="M15.9089 75.7371L15.9497 61.2944C15.9514 60.7066 16.3373 60.1174 17.1103 59.6681C18.6617 58.7667 21.1642 58.7799 22.7028 59.6681L22.662 74.1109C21.1234 73.2226 18.6207 73.2094 17.0695 74.1109C16.2963 74.5602 15.9103 75.1491 15.9089 75.7371Z" fill="#AEB2F4"/>
</g>
</g>
<g id="Group_10">
<g id="Group_11">
<path id="Vector_4" d="M6.00001 72.86L6.04081 58.4172C6.03721 59.6981 6.84697 60.9552 8.48593 61.9016L8.44513 76.3445C6.80617 75.398 5.99641 74.1408 6.00001 72.86Z" fill="#AEB2F4"/>
</g>
</g>
<g id="Group_12">
<g id="Group_13">
<path id="Vector_5" d="M36.8883 67.8582L36.8472 82.3009L22.662 74.1109L22.7028 59.6684L36.8883 67.8582Z" fill="#AEB2F4"/>
</g>
</g>
<g id="Group_14">
<g id="Group_15">
<path id="Vector_6" d="M38.0762 69.5084L38.0352 83.9511C38.0369 83.3554 37.6387 82.7576 36.8474 82.3009L36.8885 67.8582C37.6795 68.3149 38.0777 68.9127 38.0762 69.5084Z" fill="#AEB2F4"/>
</g>
</g>
<g id="Group_16">
<g id="Group_17">
<path id="Vector_7" d="M49.1422 72.422L49.1011 86.8647C49.104 85.9563 48.5066 85.0484 47.2999 84.3516L47.3407 69.9087C48.5474 70.6059 49.1448 71.5138 49.1422 72.422Z" fill="#3B4951"/>
</g>
</g>
<g id="Group_18">
<g id="Group_19">
<path id="Vector_8" d="M49.1422 72.422L49.1011 86.8647C49.0987 87.7784 48.4894 88.6928 47.2836 89.3934L47.3244 74.9506C48.5302 74.2501 49.1395 73.3357 49.1422 72.422Z" fill="#AEB2F4"/>
</g>
</g>
<g id="Group_20">
<g id="Group_21">
<path id="Vector_9" d="M111.603 40.7669L111.563 55.2096L65.0237 92.1624L65.0647 77.7197L111.603 40.7669Z" fill="#2C353B"/>
</g>
</g>
<g id="Group_22">
<g id="Group_23">
<path id="Vector_10" d="M65.0647 77.7197L65.0237 92.1624C64.7544 92.4236 64.4174 92.646 64.0577 92.8548L64.0985 78.4121C64.4582 78.2031 64.7952 77.9808 65.0647 77.7197Z" fill="#2C353B"/>
</g>
</g>
<g id="Group_24">
<g id="Group_25">
<path id="Vector_11" d="M47.3244 74.9506L47.2836 89.3933L39.192 94.0959L39.2328 79.6534L47.3244 74.9506Z" fill="#AEB2F4"/>
</g>
</g>
<g id="Group_26">
<g id="Group_27">
<path id="Vector_12" d="M39.2328 79.6534L39.192 94.0959L8.44513 76.3443L8.48617 61.9016L39.2328 79.6534Z" fill="#AEB2F4"/>
</g>
</g>
<g id="Group_28">
<g id="Group_29">
<path id="Vector_13" d="M47.3407 69.9089C49.7614 71.3064 49.7292 73.5533 47.3244 74.9508L39.2328 79.6534L8.48616 61.9016C5.0928 59.9427 5.25408 56.6508 8.82864 54.5736L14.7845 51.1124L47.3407 69.9089ZM31.2914 71.1106C32.8529 72.012 35.3789 72.0116 36.9293 71.1106C38.4802 70.2092 38.4497 68.7596 36.8885 67.8581L22.703 59.6684C21.1644 58.7801 18.6619 58.7669 17.1106 59.6684C15.5602 60.5693 15.5676 62.0324 17.1062 62.9206L31.2914 71.1106Z" fill="#D7DAFF"/>
</g>
</g>
<g id="Group_30">
<g id="Group_31">
<path id="Vector_14" d="M64.0985 78.4121L64.0577 92.8549L57.0902 96.9039L57.131 82.4612L64.0985 78.4121Z" fill="#2C353B"/>
</g>
</g>
<g id="Group_32">
<g id="Group_33">
<path id="Vector_15" d="M44.4583 82.6702L44.4175 97.1129L39.192 94.0959L39.2328 79.6534L44.4583 82.6702Z" fill="#3B4951"/>
</g>
</g>
<g id="Group_34">
<g id="Group_35">
<path id="Vector_16" d="M57.1311 82.4612L57.0903 96.9039C53.5162 98.9811 47.8116 99.0725 44.4175 97.1129L44.4583 82.6702C47.8524 84.6298 53.557 84.5384 57.1311 82.4612Z" fill="#2C353B"/>
</g>
</g>
<g id="Group_36">
<g id="Group_37">
<path id="Vector_17" d="M65.0647 77.7197C64.7952 77.9809 64.4582 78.2029 64.0985 78.4121L57.131 82.4612C53.557 84.5384 47.8524 84.6298 44.4583 82.6702L39.2328 79.6532L47.3244 74.9506C49.7292 73.5531 49.7611 71.3062 47.3407 69.9087L14.7842 51.1124L15.7956 50.5246C16.1556 50.3156 16.5377 50.1195 16.9656 49.9501L80.6081 22.8718C85.356 20.8472 91.7832 21.0433 95.765 23.342L110.765 32.0021C114.747 34.3011 115.084 38.0108 111.603 40.7672L65.0647 77.7197Z" fill="#5D7280"/>
</g>
</g>
</g>
</g>
<g id="Group_38">
<g id="Group_39">
<g id="Group_40">
<g id="Group_41">
<g id="Group_42">
<path id="Vector_18" d="M98.9451 36.0236L98.9357 39.2847C98.9328 40.2517 98.3019 41.2172 97.0411 41.9499L97.0503 38.6886C98.311 37.9559 98.9422 36.9906 98.9451 36.0236Z" fill="#888ABF"/>
</g>
</g>
<g id="Group_43">
<g id="Group_44">
<path id="Vector_19" d="M38.6117 55.7789L38.6208 52.5178C38.6179 53.4975 39.2602 54.4784 40.5456 55.2207L40.5363 58.4821C39.2511 57.7397 38.6088 56.7586 38.6117 55.7789Z" fill="#AEB2F4"/>
</g>
</g>
<g id="Group_45">
<g id="Group_46">
<path id="Vector_20" d="M97.05 38.6885L97.0409 41.9499L59.2291 63.9236L59.2385 60.6625L97.05 38.6885Z" fill="#888ABF"/>
</g>
</g>
<g id="Group_47">
<g id="Group_48">
<path id="Vector_21" d="M49.9711 60.6625L49.962 63.9238L40.5363 58.4821L40.5456 55.2205L49.9711 60.6625Z" fill="#AEB2F4"/>
</g>
</g>
<g id="Group_49">
<g id="Group_50">
<path id="Vector_22" d="M97.0198 33.3207C99.5746 34.7955 99.5883 37.2135 97.05 38.6886L59.2385 60.6625C56.7005 62.1375 52.5259 62.1375 49.9711 60.6625L40.5456 55.2207C37.9915 53.7464 37.9771 51.3279 40.5154 49.8529L78.3271 27.879C80.8652 26.4042 85.0404 26.4044 87.5945 27.879L97.0198 33.3207Z" fill="#D7DAFF"/>
</g>
</g>
<g id="Group_51">
<g id="Group_52">
<path id="Vector_23" d="M59.2385 60.6625L59.2294 63.9236C56.6912 65.3986 52.5171 65.3986 49.962 63.9238L49.9712 60.6625C52.526 62.1375 56.7003 62.1375 59.2385 60.6625Z" fill="#888ABF"/>
</g>
</g>
</g>
</g>
<g id="Group_53">
<g id="Group_54">
<g id="Group_55">
<path id="Vector_24" d="M85.2917 45.4393L66.7615 34.7408L68.454 33.7637L86.9844 44.4622L85.2917 45.4393Z" fill="#AEB2F4"/>
</g>
<g id="Group_56">
<path id="Vector_25" d="M70.3382 54.0725L51.8078 43.374L53.5006 42.397L72.0305 53.0955L70.3382 54.0725Z" fill="#AEB2F4"/>
</g>
</g>
<g id="Group_57">
<g id="Group_58">
<path id="Vector_26" d="M82.5226 37.5925L80.3527 36.3397C79.3423 35.7562 79.469 34.7372 80.6359 34.0635L82.2391 33.1378C83.406 32.4639 85.1712 32.391 86.1818 32.9744L88.3515 34.227C89.3621 34.8104 89.2351 35.8294 88.0685 36.5031L86.4653 37.429C85.2982 38.1025 83.533 38.1757 82.5226 37.5925Z" fill="#5D7280"/>
</g>
<g id="Group_59">
<path id="Vector_27" d="M89.1456 32.4999C88.1338 31.9158 86.2018 32.0574 84.8595 32.8321L85.6462 33.2866C86.4082 32.8467 87.5038 32.7663 88.094 33.1069C88.7122 33.4638 88.5723 34.0959 87.8105 34.5358L88.5975 34.9904C89.9398 34.2157 90.1851 33.1002 89.1456 32.4999Z" fill="#5D7280"/>
</g>
<g id="Group_60">
<g id="Group_61">
<path id="Vector_28" d="M66.0022 47.1306L63.8326 45.8778C62.8219 45.2946 62.9487 44.2753 64.1155 43.6016L65.7187 42.6759C66.8859 42.002 68.6508 41.929 69.6615 42.5125L71.8311 43.765C72.8417 44.3485 72.715 45.3675 71.5481 46.0414L69.9449 46.9671C68.7778 47.6406 67.0128 47.714 66.0022 47.1306Z" fill="#5D7280"/>
</g>
<g id="Group_62">
<path id="Vector_29" d="M58.1748 55.9628C57.1637 56.5464 55.5331 56.5464 54.5213 55.9623L48.5352 52.5063C47.5231 51.9221 47.5239 50.9811 48.5352 50.3974C49.5471 49.8132 51.1762 49.8132 52.1883 50.3974L53.2558 51.0137C53.3403 50.9329 53.4528 50.8678 53.5651 50.8028C54.5772 50.2181 56.2068 50.2189 57.2189 50.803L57.4714 50.9489C58.4832 51.5331 58.4842 52.4741 57.4721 53.0583C57.3593 53.1233 57.247 53.1884 57.1063 53.2371L58.1739 53.8536C59.1864 54.4376 59.1871 55.3784 58.1748 55.9628Z" fill="#5D7280"/>
</g>
<g id="Group_63">
<path id="Vector_30" d="M75.6919 42.889C75.6919 42.0627 74.1521 41.3744 72.2542 41.3744V42.0169C73.3315 42.0169 74.2049 42.4076 74.2049 42.8893C74.2049 43.3942 73.3315 43.784 72.2542 43.784V44.4267C74.1523 44.4265 75.6919 43.7379 75.6919 42.889Z" fill="#5D7280"/>
</g>
</g>
</g>
</g>
</g>
<g id="Group_64">
<g id="Group_65">
<path id="Vector_31" d="M63.0223 71.1334V73.955H62.9916C62.9916 74.8138 62.4091 75.6715 61.2744 76.3469C58.9747 77.6652 55.2646 77.6652 52.9649 76.3469C51.8002 75.6715 51.2477 74.8138 51.2477 73.955V71.1334H53.8236C55.8166 70.3368 58.4232 70.3368 60.4159 71.1334H63.0223Z" fill="#AEB2F4"/>
</g>
<g id="Group_66">
<path id="Vector_32" d="M61.2879 73.5332C58.9894 74.8604 55.2624 74.8604 52.9637 73.5332C50.6652 72.206 50.665 70.0544 52.9637 68.7274C55.2622 67.4002 58.9891 67.4002 61.2879 68.7274C63.5863 70.0546 63.5863 72.2062 61.2879 73.5332Z" fill="#D7DAFF"/>
</g>
</g>
</g>
</g>
</svg>
