<svg width="120" height="120" viewBox="0 0 120 120" fill="none" xmlns="http://www.w3.org/2000/svg">
<g id="FOB">
<g id="Group">
<g id="Group_2">
<g id="Group_3">
<g id="Group_4">
<g id="Group_5">
<path id="Vector" d="M114 40.7386L113.962 54.2412C113.958 55.7307 112.98 57.2179 111.028 58.3524L111.066 44.8498C113.018 43.7151 113.996 42.2278 114 40.7386Z" fill="#2C353B"/>
</g>
</g>
<g id="Group_6">
<g id="Group_7">
<path id="Vector_2" d="M33.7718 68.899L33.8102 55.3966C33.8059 56.9052 34.8 58.4163 36.7903 59.5654L36.7522 73.0678C34.7618 71.9187 33.7675 70.4076 33.7718 68.899Z" fill="#3B4951"/>
</g>
</g>
<g id="Group_8">
<g id="Group_9">
<path id="Vector_3" d="M111.066 44.8495L111.028 58.3522L68.4322 83.1063L68.4703 69.6036L111.066 44.8495Z" fill="#2C353B"/>
</g>
</g>
<g id="Group_10">
<g id="Group_11">
<path id="Vector_4" d="M54.1774 69.6036L54.139 83.1063L36.7522 73.0678L36.7903 59.5654L54.1774 69.6036Z" fill="#3B4951"/>
</g>
</g>
<g id="Group_12">
<g id="Group_13">
<path id="Vector_5" d="M111.02 36.5703C114.975 38.8536 114.996 42.5662 111.066 44.8496L68.4703 69.6036C64.541 71.887 58.1323 71.8872 54.1774 69.6036L36.7903 59.5654C32.8354 57.2818 32.814 53.5695 36.7433 51.2859L79.339 26.5318C83.2682 24.2484 89.6784 24.2484 93.6331 26.5318L111.02 36.5703Z" fill="#5D7280"/>
</g>
</g>
<g id="Group_14">
<g id="Group_15">
<path id="Vector_6" d="M68.4703 69.6036L68.4319 83.106C64.5026 85.3896 58.0939 85.3896 54.139 83.1063L54.1774 69.6036C58.1323 71.8872 64.541 71.887 68.4703 69.6036Z" fill="#3B4951"/>
</g>
</g>
</g>
</g>
<g id="Group_16">
<g id="Group_17">
<path id="Vector_7" d="M59.399 63.9277L46.4347 56.4428C43.6584 54.8401 44.0069 52.0402 47.2123 50.1896L77.58 32.6569C80.7857 30.806 85.6351 30.6051 88.4112 32.2078L101.376 39.6927C104.152 41.2957 103.803 44.0955 100.598 45.9461L70.2302 63.4789C67.0246 65.3297 62.1754 65.5306 59.399 63.9277Z" fill="#3B4951"/>
</g>
<g id="Group_18">
<path id="Vector_8" d="M60.8198 61.1156L51.3053 55.6225C48.529 54.0197 48.8774 51.2199 52.0829 49.3693L76.1592 35.4689C79.3646 33.6181 84.2141 33.4172 86.9902 35.0199L96.5047 40.513C99.281 42.116 98.9326 44.9156 95.7269 46.7662L71.6508 60.6665C68.4451 62.5174 63.5962 62.7185 60.8198 61.1156Z" fill="#D7DAFF"/>
</g>
<g id="Group_19">
<g id="Group_20">
<g id="Group_21">
<path id="Vector_9" d="M89.2594 50.5006L69.6912 39.2031L70.9949 38.4502L90.5628 49.748L89.2594 50.5006Z" fill="#AEB2F4"/>
</g>
<g id="Group_22">
<path id="Vector_10" d="M84.6154 48.6337L72.925 41.8842L75.6386 40.3174L87.329 47.067L84.6154 48.6337Z" fill="#3B4951"/>
</g>
</g>
<g id="Group_23">
<g id="Group_24">
<path id="Vector_11" d="M76.3807 57.936L56.8128 46.6385L58.1162 45.8859L77.6842 57.1834L76.3807 57.936Z" fill="#AEB2F4"/>
</g>
<g id="Group_25">
<path id="Vector_12" d="M71.737 56.069L60.0466 49.3195L62.76 47.7528L74.4504 54.5023L71.737 56.069Z" fill="#3B4951"/>
</g>
</g>
</g>
<g id="Group_26">
<g id="Group_27">
<path id="Vector_13" d="M86.4084 43.7821L81.3281 40.849C80.3143 40.2637 80.4415 39.2413 81.6122 38.5657C82.7827 37.8898 84.5534 37.8164 85.5672 38.4018L90.6475 41.335C91.6613 41.9202 91.5341 42.9426 90.3636 43.6184C89.1929 44.294 87.4222 44.3674 86.4084 43.7821Z" fill="#AEB2F4"/>
</g>
<g id="Group_28">
<path id="Vector_14" d="M74.3256 50.7579L69.2453 47.8249C68.2315 47.2395 68.3587 46.2171 69.5292 45.5415C70.6999 44.8659 72.4704 44.7922 73.4842 45.3776L78.5645 48.3109C79.5782 48.896 79.4513 49.9184 78.2806 50.5942C77.1101 51.2698 75.3396 51.3433 74.3256 50.7579Z" fill="#AEB2F4"/>
</g>
<g id="Group_29">
<path id="Vector_15" d="M62.2433 57.734L57.163 54.8009C56.1492 54.2156 56.2762 53.1932 57.4469 52.5173C58.6174 51.8417 60.3881 51.7681 61.4018 52.3537L66.4824 55.2867C67.4962 55.8718 67.369 56.8942 66.1985 57.5701C65.0275 58.2459 63.2568 58.3193 62.2433 57.734Z" fill="#AEB2F4"/>
</g>
</g>
</g>
<g id="Group_30">
<g id="Group_31">
<path id="Vector_16" d="M63.8052 65.105V67.824H63.7886C63.7886 68.3678 63.4315 68.9282 62.701 69.353C61.2398 70.2026 58.8607 70.2026 57.3826 69.353C56.6566 68.9299 56.3028 68.3729 56.3002 67.824H56.2949V65.105H63.8052Z" fill="#AEB2F4"/>
</g>
<g id="Group_32">
<path id="Vector_17" d="M62.7 66.6374C61.2331 67.4844 58.8547 67.4844 57.3878 66.6374C55.9207 65.7905 55.9207 64.4174 57.3876 63.5702C58.8545 62.7233 61.2329 62.7233 62.7 63.5705C64.1669 64.4174 64.1669 65.7905 62.7 66.6374Z" fill="#D7DAFF"/>
</g>
</g>
<g id="Group_33">
<g id="Group_34">
<g id="Group_35">
<g id="Group_36">
<g id="Group_37">
<path id="Vector_18" d="M34.9567 72.1018L34.9486 74.9593L32.8901 73.7705L32.898 70.9133L34.9567 72.1018Z" fill="#AEB2F4"/>
</g>
</g>
<g id="Group_38">
<g id="Group_39">
<path id="Vector_19" d="M50.5507 72.2177L50.5426 75.0751L42.8712 79.5331L42.8791 76.6759L50.5507 72.2177Z" fill="#888ABF"/>
</g>
</g>
<g id="Group_40">
<g id="Group_41">
<path id="Vector_20" d="M42.8791 76.676L42.8712 79.5332L40.7902 78.3317L40.7981 75.4745L42.8791 76.676Z" fill="#AEB2F4"/>
</g>
</g>
<g id="Group_42">
<g id="Group_43">
<path id="Vector_21" d="M50.5606 72.212L42.8842 76.6637L40.7818 75.4716L11.8632 92.3312L9.7596 91.14L7.97208 90.0881L6.00888 88.9664L34.9625 72.1066L32.8949 70.9145L40.571 66.4628L44.742 68.8469L46.5298 69.8979L50.5606 72.212Z" fill="#D7DAFF"/>
</g>
</g>
<g id="Group_44">
<g id="Group_45">
<path id="Vector_22" d="M40.7981 75.4745L40.7902 78.3317L11.8416 95.181L11.8495 92.3235L40.7981 75.4745Z" fill="#888ABF"/>
</g>
</g>
<g id="Group_46">
<g id="Group_47">
<path id="Vector_23" d="M11.8495 92.3235L11.8416 95.1809L6 91.8082L6.00816 88.951L11.8495 92.3235Z" fill="#AEB2F4"/>
</g>
</g>
</g>
</g>
<g id="Group_48">
<path id="Vector_24" d="M46.5298 69.8976L9.75963 91.1397L7.97211 90.0878L44.742 68.8466L46.5298 69.8976Z" fill="#AEB2F4"/>
</g>
</g>
</g>
</g>
</svg>
