<svg width="70" height="105" viewBox="0 0 70 105" fill="none" xmlns="http://www.w3.org/2000/svg">
<path d="M6.70816 84.3203L6.71386 88.7371C6.71956 89.0503 6.92445 89.3634 7.32874 89.6025L33.1548 104.605L33.1434 100.194L7.32304 85.1858C6.91312 84.9467 6.70816 84.6335 6.70816 84.3203Z" fill="#804F59"/>
<path d="M33.1434 100.194L33.1548 104.605C33.9803 105.089 35.3241 105.083 36.1553 104.605L62.1465 89.6025C62.5621 89.3577 62.7728 89.0445 62.7728 88.7256L62.7614 84.3088C62.7614 84.6277 62.5564 84.9466 62.1351 85.1857L36.1439 100.194C35.3127 100.672 33.9689 100.672 33.1434 100.194Z" fill="#613941"/>
<path d="M6.70816 81.4485L6.71386 85.8653C6.71956 86.1784 6.92445 86.4916 7.32874 86.7307L33.1548 101.733L33.1434 97.3222L7.32304 82.3139C6.91312 82.0748 6.70816 81.7617 6.70816 81.4485Z" fill="#DBDFE6"/>
<path d="M33.1434 97.3221L33.1548 101.733C33.9803 102.217 35.3241 102.211 36.1553 101.733L62.1465 86.7306C62.5621 86.4858 62.7728 86.1727 62.7728 85.8538L62.7614 81.437C62.7614 81.7559 62.5564 82.0748 62.1351 82.3138L36.1439 97.3221C35.3127 97.8003 33.9689 97.8003 33.1434 97.3221Z" fill="#CCD0D9"/>
<path d="M7.33155 80.576C6.50273 81.0545 6.49829 81.8352 7.32172 82.3138L33.1441 97.3201C33.9712 97.8007 35.3155 97.7986 36.1443 97.3201L62.1356 82.314C62.9681 81.8334 62.9724 81.0569 62.1454 80.5762L36.323 65.5699C35.4995 65.0914 34.1553 65.0893 33.3229 65.5699L7.33155 80.576Z" fill="#EBEEF4"/>
<path d="M57.8019 80.9731C58.2534 81.2338 58.2558 81.656 57.8073 81.9167L35.6246 94.8078C35.1761 95.0685 34.4471 95.0685 33.9956 94.8078L11.6679 81.9169C11.2165 81.6562 11.2141 81.234 11.6626 80.9734L33.8453 68.0822C34.2938 67.8216 35.0227 67.8216 35.4742 68.0822L57.8019 80.9731Z" fill="#2ADC03"/>
<path d="M57.8093 81.9201L57.1399 82.3041L35.627 94.8082C35.174 95.0642 34.4454 95.0642 33.9925 94.8082L12.3417 82.3041L11.6723 81.9201C11.2193 81.6543 11.2096 81.2309 11.6624 80.9749L33.8449 68.0868C34.2978 67.821 35.0264 67.821 35.4694 68.0868L57.7995 80.9749C58.2525 81.2309 58.2525 81.6543 57.8093 81.9201Z" fill="#21B500"/>
<path d="M57.1399 82.304L35.627 94.8081C35.174 95.0641 34.4454 95.0641 33.9925 94.8081L12.3417 82.304L33.8449 69.7999C34.2978 69.5439 35.0264 69.5439 35.4694 69.7999L57.1399 82.304Z" fill="#2ADC03"/>
<path d="M39.6338 80.4538C42.3451 82.0192 42.3595 84.5654 39.6657 86.1308C36.9653 87.7001 32.5762 87.6962 29.8649 86.1309C27.1469 84.5616 27.1326 82.0231 29.8329 80.4539C32.5267 78.8884 36.9158 78.8845 39.6338 80.4538Z" fill="#21B500"/>
<path d="M38.703 47.2214L38.6437 77.541V79.5545L38.6321 82.8233C38.6203 83.4036 38.2531 83.9721 37.4952 84.4222C35.9673 85.3104 33.4801 85.3104 31.9522 84.4222C31.1825 83.9721 30.7915 83.3918 30.7915 82.8115C30.8745 42.0429 30.7899 86.9077 30.8627 47.2214C30.8627 50.1349 38.703 50.2402 38.703 47.2214Z" fill="#804F59"/>
<path d="M59.1142 69.0902C45.7433 76.86 23.9921 76.86 10.5359 69.0902C-1.15728 62.3377 -2.15125 52.5194 4.61538 45.4009C13.4288 34.1171 23.6371 22.7729 34.747 11.4004C68.0091 49.494 66.8006 47.7677 67.5541 49.1797C71.1885 55.9893 68.3804 63.702 59.1142 69.0902Z" fill="#2ADC03"/>
<path d="M38.703 47.2214L38.6437 77.541V79.5545C37.3885 79.6255 36.133 79.661 34.8538 79.661C33.4919 79.661 32.1419 79.6137 30.8034 79.5307C30.8937 30.3186 30.8505 53.8548 30.8627 47.2214C30.8627 50.1349 38.703 50.2402 38.703 47.2214Z" fill="#613941"/>
<path d="M59.1106 69.0865C47.3179 75.9424 29.0107 76.7527 15.6296 71.5174C13.8274 70.8138 12.1216 70.0034 10.5326 69.0865C-1.12279 62.3586 -2.18297 52.5303 4.61522 45.4052C12.8039 34.9241 22.1762 24.4003 32.3695 13.8552C33.1585 13.0342 33.9475 12.2239 34.7472 11.4028C68.1541 49.6621 66.802 47.7846 67.5554 49.1798C71.1912 55.993 68.3762 63.702 59.1106 69.0865Z" fill="#21B500"/>
<path d="M52.8839 67.1566C42.8398 72.9995 28.0618 74.4496 15.6296 71.5174C13.8274 70.8137 12.1216 70.0034 10.5326 69.0864C-1.12279 62.3586 -2.18297 52.5303 4.61522 45.4052C12.8039 34.9241 22.1762 24.4003 32.3695 13.8552C61.603 47.3614 60.554 45.8158 61.3285 47.2499C64.9536 54.0524 62.1495 61.7721 52.8839 67.1566Z" fill="#2ADC03"/>
<path d="M55.1553 46.9873C43.9543 53.4961 25.7396 53.4961 14.4708 46.9873C5.7992 41.9783 3.09315 33.9216 9.51097 27.1444C16.229 18.5472 23.9111 9.90631 32.2508 1.24444C33.5886 -0.144958 35.8361 -0.0849947 37.1065 1.36625C63.2439 31.2256 61.7348 29.3897 62.2368 30.3366C65.2583 36.0352 62.9055 42.4792 55.1553 46.9873Z" fill="#2ADC03"/>
<path d="M55.1596 46.987C44.0857 53.4269 25.9315 53.5685 14.4707 46.987C5.89458 42.0319 3.03373 34.0122 9.51209 27.1408C16.2142 18.5593 23.8901 9.93246 32.2226 1.28298C32.2309 1.27426 32.2392 1.26555 32.2474 1.25683C33.5792 -0.147194 35.8356 -0.0889272 37.1101 1.36719C63.2663 31.2489 61.7534 29.3699 62.3371 30.5372C65.2014 36.1865 62.8125 42.5264 55.1596 46.987Z" fill="#21B500"/>
<path d="M48.5365 44.9378C40.3286 49.7041 28.3506 50.9834 18.105 48.7644C16.8256 48.2436 15.6141 47.6436 14.4707 46.987C5.89458 42.0319 3.03373 34.0122 9.51209 27.1408C16.2142 18.5592 23.8901 9.93243 32.2226 1.28296C55.7649 28.2704 55.0495 27.1243 55.7256 28.4767C58.5897 34.126 56.201 40.4772 48.5365 44.9378Z" fill="#2ADC03"/>
<path d="M28.2558 17.0188C28.2558 18.3443 27.3888 19.4198 26.3133 19.4198C25.2381 19.4198 24.371 18.3443 24.371 17.0188C24.371 15.7016 25.2381 14.6262 26.3133 14.6262C27.3888 14.6262 28.2558 15.7016 28.2558 17.0188Z" fill="#21B500"/>
<path d="M19.1583 41.3196C19.1583 42.6451 18.2912 43.7206 17.2158 43.7206C16.1405 43.7206 15.2735 42.6451 15.2735 41.3196C15.2735 40.0024 16.1405 38.927 17.2158 38.927C18.2912 38.927 19.1583 40.0024 19.1583 41.3196Z" fill="#21B500"/>
<path d="M40.2775 25.2644C40.2775 26.5899 39.4105 27.6654 38.335 27.6654C37.2598 27.6654 36.3927 26.5899 36.3927 25.2644C36.3927 23.9472 37.2598 22.8718 38.335 22.8718C39.4105 22.8718 40.2775 23.9472 40.2775 25.2644Z" fill="#21B500"/>
<path d="M45.4676 38.9229C45.4676 40.2484 44.6005 41.3238 43.5251 41.3238C42.4498 41.3238 41.5828 40.2484 41.5828 38.9229C41.5828 37.6057 42.4498 36.5303 43.5251 36.5303C44.6005 36.5303 45.4676 37.6057 45.4676 38.9229Z" fill="#21B500"/>
<path d="M45.7996 62.8091C45.7996 64.1346 44.9325 65.2101 43.8571 65.2101C42.7818 65.2101 41.9148 64.1346 41.9148 62.8091C41.9148 61.4919 42.7818 60.4165 43.8571 60.4165C44.9325 60.4165 45.7996 61.4919 45.7996 62.8091Z" fill="#21B500"/>
<path d="M26.1775 61.3433C26.1775 62.6688 25.3105 63.7443 24.235 63.7443C23.1597 63.7443 22.2927 62.6688 22.2927 61.3433C22.2927 60.0261 23.1597 58.9507 24.235 58.9507C25.3105 58.9507 26.1775 60.0261 26.1775 61.3433Z" fill="#21B500"/>
<path d="M9.59731 51.8648C9.59731 53.1903 8.73026 54.2657 7.65481 54.2657C6.57955 54.2657 5.71251 53.1903 5.71251 51.8648C5.71251 50.5476 6.57955 49.4722 7.65481 49.4722C8.73026 49.4722 9.59731 50.5476 9.59731 51.8648Z" fill="#21B500"/>
</svg>
