<svg width="120" height="120" viewBox="0 0 120 120" fill="none" xmlns="http://www.w3.org/2000/svg">
<g id="Gold">
<g id="Group">
<path id="Vector" opacity="0.14" d="M62.2277 63.3145L63.3771 62.1021L65.089 35.9051L57.8156 32.993L14.9121 57.6392L12 67.2621L30.5419 78.6926L39.9727 81.1924L41.3869 84.5442L55.5037 91.5326L66.5276 94.8138L75.1502 76.1241L68.1738 67.099L62.2277 63.3145Z" fill="black"/>
<path id="Vector_2" d="M21.378 57.7197L36.296 66.3326L78.5848 41.917L63.6668 33.3042L21.378 57.7197Z" fill="#FCC53E"/>
<path id="Vector_3" d="M36.296 66.3325L39.9727 81.1923L82.2616 56.777L78.5848 41.9169L36.296 66.3325Z" fill="#EDB328"/>
<path id="Vector_4" d="M21.378 57.7197L17.7014 68.3341L39.9729 81.1924L36.296 66.3325L21.378 57.7197Z" fill="#D6A225"/>
<path id="Vector_5" d="M47.1166 72.5796L62.0344 81.1924L104.323 56.7771L89.4054 48.1643L47.1166 72.5796Z" fill="#FCC53E"/>
<path id="Vector_6" d="M62.0344 81.1924L66.5276 94.8138L108 71.6369L104.323 56.7771L62.0344 81.1924Z" fill="#EDB328"/>
<path id="Vector_7" d="M47.1166 72.5796L43.4398 83.1942L66.5276 94.8138L62.0344 81.1926L47.1166 72.5796Z" fill="#D6A225"/>
<path id="Vector_8" d="M38.8873 49.6017L53.8052 58.2145L96.094 33.799L81.1762 25.1862L38.8873 49.6017Z" fill="#FCCA51"/>
<path id="Vector_9" d="M53.8052 58.2145L57.4821 73.0743L99.7709 48.6588L96.094 33.799L53.8052 58.2145Z" fill="#EDB328"/>
<path id="Vector_10" d="M38.8873 49.6017L35.2109 60.2161L57.4821 73.0743L53.8052 58.2145L38.8873 49.6017Z" fill="#D6A225"/>
</g>
</g>
</svg>
