<svg width="120" height="120" viewBox="0 0 120 120" fill="none" xmlns="http://www.w3.org/2000/svg">
<g id="Home 06">
<g id="Group">
<path id="Vector" opacity="0.1" d="M16.8795 55.7334L12 71.6325L16.4313 70.7767L59.0611 96.4028C59.2076 96.5001 65.5425 96.9389 65.5425 96.9389L78.6677 62.227L53.1518 33.7019L16.8795 55.7334Z" fill="black"/>
<path id="Vector_2" d="M29.5463 48.0124V76.1563L65.5427 96.9388V68.5933L47.5444 46.1411L29.5463 48.0124Z" fill="#D18080"/>
<path id="Vector_3" d="M65.5427 96.9389L104.497 74.4487V44.4337L65.5427 66.9239V96.9389Z" fill="#DB5656"/>
<path id="Vector_4" d="M63.4633 71.9297L108 46.0818V44.4337L63.4633 69.3152V71.9297Z" fill="#0B3452"/>
<path id="Vector_5" d="M24.5037 49.4282L46.9108 47.6957L90.724 23.061L69.7446 24.2842L24.5037 49.4282Z" fill="#11507D"/>
<path id="Vector_6" d="M46.9109 49.4282L63.4634 71.9296V70.2817L46.9109 47.6957V49.4282Z" fill="#0B3452"/>
<path id="Vector_7" d="M46.9109 47.6957L63.4634 70.2817L108 44.4337L90.724 23.061L46.9109 47.6957Z" fill="#19659C"/>
<path id="Vector_8" d="M24.5037 49.4282V50.6005L46.9108 49.4282L47.0119 48.779L46.9108 47.7018L24.5037 49.4282Z" fill="#0B3452"/>
<g id="Group_2">
<path id="Vector_9" d="M34.4756 73.3544L43.6755 78.666V66.6785L34.4756 61.3668V73.3544Z" fill="#4DBDED"/>
<g id="Group_3">
<path id="Vector_10" d="M38.4966 75.5507L39.6546 76.2058V64.4821L38.4966 63.8268V75.5507Z" fill="#FEFEFE"/>
<path id="Vector_11" d="M33.9991 66.6787L44.152 72.5404V70.87L33.9991 65.0081V66.6787Z" fill="#FEFEFE"/>
<path id="Vector_12" d="M33.9255 73.6722L44.2256 79.6188V66.3609L33.9255 60.4143V73.6722ZM35.0257 62.3198L43.1252 66.996V77.7133L35.0257 73.037V62.3198Z" fill="#FEFEFE"/>
</g>
</g>
<g id="Group_4">
<path id="Vector_13" d="M49.583 82.0762L58.7829 87.3878V75.4003L49.583 70.0886V82.0762Z" fill="#4DBDED"/>
<g id="Group_5">
<path id="Vector_14" d="M53.6039 84.2725L54.762 84.9276V73.2039L53.6039 72.5486V84.2725Z" fill="#FEFEFE"/>
<path id="Vector_15" d="M49.1065 75.4003L59.2594 81.2622V79.5918L49.1065 73.7299V75.4003Z" fill="#FEFEFE"/>
<path id="Vector_16" d="M49.0329 82.3938L59.333 88.3403V75.0824L49.0329 69.1359V82.3938ZM50.1331 71.0413L58.2326 75.7178V86.4351L50.1331 81.7588V71.0413Z" fill="#FEFEFE"/>
</g>
</g>
<g id="Group_6">
<path id="Vector_17" d="M71.2729 88.1113L83.2427 81.2006V68.6587L71.2729 75.5695V88.1113Z" fill="#4DBDED"/>
<g id="Group_7">
<path id="Vector_18" d="M76.6746 84.8477L77.8861 84.1621V71.8961L76.6746 72.5817V84.8477Z" fill="#FEFEFE"/>
<path id="Vector_19" d="M70.7744 81.7025L83.7412 74.2159V72.4681L70.7744 79.9545V81.7025Z" fill="#FEFEFE"/>
<path id="Vector_20" d="M70.6976 89.1079L83.8181 81.5329V67.6616L70.6976 75.2369V89.1079ZM71.8488 75.9015L82.6671 69.6554V80.8684L71.8488 87.1145V75.9015Z" fill="#FEFEFE"/>
</g>
</g>
<path id="Vector_21" d="M90.5538 82.4986L101.448 76.2089V58.0955L90.5538 64.3849V82.4986Z" fill="#FEFEFE"/>
<path id="Vector_22" d="M91.6995 81.8371L100.303 76.8696V60.0782L91.6995 65.0458V81.8371Z" fill="#C9C9C9"/>
<path id="Vector_23" d="M99.0502 68.2312C98.8732 68.3333 98.7298 68.5818 98.7298 68.7859V71.2131C98.7298 71.4175 98.8732 71.5004 99.0502 71.398C99.2271 71.2958 99.3705 71.0474 99.3705 70.843V68.4158C99.3705 68.2119 99.2271 68.1292 99.0502 68.2312Z" fill="#FEFEFE"/>
<g id="Group_8">
<path id="Vector_24" d="M47.3316 52.6548C44.7933 51.1893 42.7282 52.3816 42.7282 55.3124C42.7282 55.3483 42.7322 55.3858 42.7329 55.4219L51.9328 60.7337C51.9335 60.6984 51.9352 60.6641 51.9352 60.6283C51.9352 57.6972 49.8701 54.1204 47.3316 52.6548ZM46.9378 57.2085L43.5713 55.2648C43.8359 53.4173 45.2056 52.6265 46.9378 53.3214V57.2085ZM47.7933 57.704V53.9727C49.4559 55.2262 50.7706 57.5026 51.0246 59.5696L47.7933 57.704Z" fill="white"/>
<g id="Group_9">
<path id="Vector_25" d="M47.7933 53.9728V57.704L51.0246 59.5697C50.7705 57.5027 49.4559 55.2262 47.7933 53.9728Z" fill="#7DC8F0"/>
<path id="Vector_26" d="M43.571 55.2649L46.9376 57.2086V53.3215C45.2053 52.6265 43.8359 53.4173 43.571 55.2649Z" fill="#7DC8F0"/>
</g>
</g>
<g id="Group_10">
<path id="Vector_27" d="M85.8949 33.4242L90.0412 39.0464V32.7513L85.8949 30.3574V33.4242Z" fill="#3D84B8"/>
<path id="Vector_28" d="M85.8949 30.3574L90.0412 32.7513L94.1873 30.3574L90.0412 27.9635L85.8949 30.3574Z" fill="#64ABDE"/>
<path id="Vector_29" d="M86.9951 30.3574L90.0412 32.1159L93.0876 30.3574L90.0412 28.5986L86.9951 30.3574Z" fill="#0F456E"/>
<path id="Vector_30" d="M90.0412 39.0464L94.1873 36.6527V30.3574L90.0412 32.7513V39.0464Z" fill="#4596D1"/>
</g>
</g>
</g>
</svg>
