<svg width="120" height="120" viewBox="0 0 120 120" fill="none" xmlns="http://www.w3.org/2000/svg">
<g id="Home 02">
<g id="Group">
<path id="Vector" opacity="0.1" d="M19.6301 54.5137L12 71.7107L15.8737 70.9628L53.1391 93.3642C53.2671 93.4493 58.8049 93.8327 58.8049 93.8327L70.2785 63.4891L47.9733 38.5537L19.6301 54.5137Z" fill="black"/>
<path id="Vector_2" d="M30.6673 48.4654V77.5872L58.8047 93.8324V64.5527L44.7359 47.0024L30.6673 48.4654Z" fill="#EACF95"/>
<path id="Vector_3" d="M58.8047 93.8324L95.4577 72.671V42.0864L58.8047 63.2477V93.8324Z" fill="#F5E8CD"/>
<path id="Vector_4" d="M57.7277 67.3401L97.2166 44.4391V43.189L57.7277 65.3571V67.3401Z" fill="#A13050"/>
<path id="Vector_5" d="M27.3066 48.5346L44.3034 48.551L83.2434 26.5701L67.3296 26.1675L27.3066 48.5346Z" fill="#AB4662"/>
<path id="Vector_6" d="M44.3034 49.8652L57.7277 67.3402V66.09L44.3034 48.551V49.8652Z" fill="#9D2849"/>
<path id="Vector_7" d="M44.3034 48.5509L57.7277 66.0899L97.2166 43.1889L83.2434 26.5701L44.3034 48.5509Z" fill="#B8647B"/>
<path id="Vector_8" d="M27.3066 48.5345V49.4238L44.3034 49.8651L44.3801 49.3727L44.3034 48.5554L27.3066 48.5345Z" fill="#9D2849"/>
<path id="Vector_9" d="M79.174 82.0725L89.8772 88.2518V74.3299L79.174 68.1504V82.0725Z" fill="#EACF95"/>
<path id="Vector_10" d="M89.8772 88.2518L106.161 78.8506V64.9285L89.8772 74.3299V88.2518Z" fill="#F5E8CD"/>
<path id="Vector_11" d="M79.174 68.1504L89.8772 74.3299L106.161 64.9284L95.4577 58.7491L79.174 68.1504Z" fill="#ECD4A0"/>
<path id="Vector_12" d="M77.3348 66.6307V67.3741L89.4968 77.5786L108 66.896V66.1525L95.838 56.6913L77.3348 66.6307Z" fill="#9A425E"/>
<path id="Vector_13" d="M77.3348 66.6307L89.4968 76.8354L108 66.1526L95.838 55.9479L77.3348 66.6307Z" fill="#B8647B"/>
<g id="Group_2">
<path id="Vector_14" d="M81.8217 81.0016L86.9569 83.9664V77.2753L81.8217 74.3104V81.0016Z" fill="#7DC8F0"/>
<g id="Group_3">
<path id="Vector_15" d="M84.0661 82.2277L84.7125 82.5933V76.0493L84.0661 75.6835V82.2277Z" fill="#FCF9F2"/>
<path id="Vector_16" d="M81.5557 77.2754L87.2229 80.5475V79.6149L81.5557 76.3428V77.2754Z" fill="#FCF9F2"/>
<path id="Vector_17" d="M81.5145 81.1791L87.2639 84.4983V77.0979L81.5145 73.7784V81.1791ZM82.1287 74.842L86.6498 77.4523V83.4345L82.1287 80.8242V74.842Z" fill="#FCF9F2"/>
</g>
</g>
<g id="Group_4">
<path id="Vector_18" d="M35.2753 61.4287L41.1019 64.7924V57.2005L35.2753 53.8368V61.4287Z" fill="#7DC8F0"/>
<g id="Group_5">
<path id="Vector_19" d="M37.8218 62.8194L38.5552 63.2343V55.8097L37.8218 55.3947V62.8194Z" fill="#FCF9F2"/>
<path id="Vector_20" d="M34.9737 57.2006L41.4035 60.9131V59.8551L34.9737 56.1428V57.2006Z" fill="#FCF9F2"/>
<path id="Vector_21" d="M34.927 61.6298L41.4502 65.3957V56.9995L34.927 53.2335V61.6298ZM35.6238 54.4401L40.7534 57.4016V64.1891L35.6238 61.2276V54.4401Z" fill="#FCF9F2"/>
</g>
</g>
<g id="Group_6">
<path id="Vector_22" d="M35.2753 75.0438L41.1019 78.4075V70.8157L35.2753 67.4519V75.0438Z" fill="#7DC8F0"/>
<g id="Group_7">
<path id="Vector_23" d="M37.8218 76.4345L38.5552 76.8494V69.4248L37.8218 69.0098V76.4345Z" fill="#FCF9F2"/>
<path id="Vector_24" d="M34.9737 70.8159L41.4035 74.5282V73.4702L34.9737 69.7579V70.8159Z" fill="#FCF9F2"/>
<path id="Vector_25" d="M34.927 75.2449L41.4502 79.0108V70.6146L34.927 66.8486V75.2449ZM35.6238 68.0552L40.7534 71.0168V77.8043L35.6238 74.8427V68.0552Z" fill="#FCF9F2"/>
</g>
</g>
<g id="Group_8">
<path id="Vector_26" d="M48.3216 68.9605L54.1479 72.3245V64.7326L48.3216 61.3689V68.9605Z" fill="#7DC8F0"/>
<g id="Group_9">
<path id="Vector_27" d="M50.8681 70.3515L51.6014 70.7664V63.3416L50.8681 62.9268V70.3515Z" fill="#FCF9F2"/>
<path id="Vector_28" d="M48.0197 64.7325L54.4498 68.445V67.3871L48.0197 63.6748V64.7325Z" fill="#FCF9F2"/>
<path id="Vector_29" d="M47.9733 69.1617L54.4964 72.9277V64.5314L47.9733 60.7653V69.1617ZM48.6701 61.9721L53.7996 64.9336V71.7211L48.6701 68.7596V61.9721Z" fill="#FCF9F2"/>
</g>
</g>
<g id="Group_10">
<path id="Vector_30" d="M48.3216 82.5756L54.1479 85.9394V78.3475L48.3216 74.9838V82.5756Z" fill="#7DC8F0"/>
<g id="Group_11">
<path id="Vector_31" d="M50.868 83.9664L51.6014 84.3812V76.9567L50.868 76.5416V83.9664Z" fill="#FCF9F2"/>
<path id="Vector_32" d="M48.0197 78.3475L54.4498 82.06V81.0021L48.0197 77.2898V78.3475Z" fill="#FCF9F2"/>
<path id="Vector_33" d="M47.9733 82.7767L54.4964 86.5427V78.1464L47.9733 74.3802V82.7767ZM48.6701 75.5873L53.7996 78.5486V85.3361L48.6701 82.3745V75.5873Z" fill="#FCF9F2"/>
</g>
</g>
<g id="Group_12">
<path id="Vector_34" d="M84.9361 61.3472L90.7624 57.9832V50.3916L84.9361 53.7554V61.3472Z" fill="#7DC8F0"/>
<g id="Group_13">
<path id="Vector_35" d="M87.4826 59.7891L88.2159 59.3742V51.9495L87.4826 52.3643V59.7891Z" fill="#FCF9F2"/>
<path id="Vector_36" d="M84.6342 57.4677L91.0643 53.7555V52.6975L84.6342 56.4098V57.4677Z" fill="#FCF9F2"/>
<path id="Vector_37" d="M84.5878 61.9504L91.1109 58.1845V49.7882L84.5878 53.5541V61.9504ZM85.2846 53.9563L90.4141 50.9948V57.782L85.2846 60.7436V53.9563Z" fill="#FCF9F2"/>
</g>
</g>
<g id="Group_14">
<path id="Vector_38" d="M65.715 72.3245L71.5416 68.9605V61.3689L65.715 64.7326V72.3245Z" fill="#7DC8F0"/>
<g id="Group_15">
<path id="Vector_39" d="M68.2617 70.7664L68.9951 70.3515V62.9268L68.2617 63.3416V70.7664Z" fill="#FCF9F2"/>
<path id="Vector_40" d="M65.4134 68.445L71.8432 64.7325V63.6748L65.4134 67.3871V68.445Z" fill="#FCF9F2"/>
<path id="Vector_41" d="M65.3667 72.9277L71.8898 69.1617V60.7653L65.3667 64.5314V72.9277ZM66.0635 64.9336L71.193 61.9721V68.7593L66.0635 71.7209V64.9336Z" fill="#FCF9F2"/>
</g>
</g>
<g id="Group_16">
<path id="Vector_42" d="M65.715 85.9394L71.5416 82.5756V74.9838L65.715 78.3475V85.9394Z" fill="#7DC8F0"/>
<g id="Group_17">
<path id="Vector_43" d="M68.2617 84.3812L68.9951 83.9664V76.5416L68.2617 76.9567V84.3812Z" fill="#FCF9F2"/>
<path id="Vector_44" d="M65.4134 82.06L71.8432 78.3475V77.2898L65.4134 81.0021V82.06Z" fill="#FCF9F2"/>
<path id="Vector_45" d="M65.3667 86.5427L71.8898 82.7767V74.3802L65.3667 78.1464V86.5427ZM66.0635 78.5486L71.193 75.5873V82.3745L66.0635 85.3359V78.5486Z" fill="#FCF9F2"/>
</g>
</g>
<path id="Vector_46" d="M98.6496 83.1869L103.412 80.4375V71.144L98.6496 73.8935V83.1869Z" fill="#454F50"/>
<path id="Vector_47" d="M102.25 75.1339C102.045 75.2521 101.879 75.5394 101.879 75.7757V77.8729C101.879 78.1091 102.045 78.205 102.25 78.0866C102.454 77.9685 102.62 77.6811 102.62 77.4449V75.3479C102.62 75.1117 102.454 75.0158 102.25 75.1339Z" fill="#687071"/>
</g>
</g>
</svg>
