<svg width="120" height="120" viewBox="0 0 120 120" fill="none" xmlns="http://www.w3.org/2000/svg">
<g id="Home 04">
<g id="Group">
<path id="Vector" opacity="0.1" d="M18.4936 54.559L12 69.1952L15.6752 68.7115L47.4452 87.308L51.8353 88.023L61.6006 62.1977L75.4992 34.0486H55.4175L18.4936 54.559Z" fill="black"/>
<path id="Vector_2" d="M83.6831 60.8482V79.8482L106.687 66.5672V47.5671L96.0497 44.6271L83.6831 60.8482Z" fill="#DBDBDB"/>
<path id="Vector_3" d="M74.8387 74.7421L83.6831 79.8482V60.8481L74.8387 55.7418V74.7421Z" fill="#C4C4C4"/>
<path id="Vector_4" d="M51.8353 88.023L74.8388 74.7421V55.7418L51.8353 69.0229V88.023Z" fill="#DBDBDB"/>
<path id="Vector_5" d="M29.6906 53.7087L26.892 54.6221V73.6221L42.2618 82.4958L51.8353 88.0231V62.1094L39.3638 51.0417L29.6906 53.7087Z" fill="#C4C4C4"/>
<path id="Vector_6" d="M50.2155 71.4555L75.0455 56.8111V55.6022L50.2155 69.5374V71.4555Z" fill="#752628"/>
<path id="Vector_7" d="M23.6892 54.742L37.2321 53.2835L74.8387 31.9769L57.7554 35.9402L23.6892 54.742Z" fill="#A13437"/>
<path id="Vector_8" d="M37.2321 54.5546L50.2156 71.4556V70.2465L37.2321 53.2836V54.5546Z" fill="#752628"/>
<path id="Vector_9" d="M37.2321 53.2835L50.2156 70.2464L75.0455 55.6022L74.8388 31.9769L37.2321 53.2835Z" fill="#CF4247"/>
<path id="Vector_10" d="M23.6892 54.742V55.6022L37.2321 54.5545L37.3062 54.0783L37.2321 53.2882L23.6892 54.742Z" fill="#752628"/>
<path id="Vector_11" d="M74.8387 56.9507L84.1666 62.7946V60.8765L74.8387 55.7418V56.9507Z" fill="#752628"/>
<path id="Vector_12" d="M74.8387 31.9769L97.1501 44.6226L108 47.6194L89.4358 37.6183L74.8387 31.9769Z" fill="#BE3D41"/>
<path id="Vector_13" d="M84.1666 62.7947L97.1501 45.8937V44.6227L84.1666 61.5856V62.7947Z" fill="#752628"/>
<path id="Vector_14" d="M74.8387 55.7418L84.1666 61.5855L97.1501 44.6226L74.8387 31.9769V55.7418Z" fill="#A13437"/>
<path id="Vector_15" d="M97.076 45.4174L97.1501 45.8936L108 48.4793V47.6193L97.1501 44.6271L97.076 45.4174Z" fill="#752628"/>
<g id="Group_2">
<path id="Vector_16" d="M55.8239 81.852L62.621 77.9276V69.0713L55.8239 72.9954V81.852Z" fill="#7DC8F0"/>
<g id="Group_3">
<path id="Vector_17" d="M58.7946 80.0343L59.6503 79.5503V70.8885L58.7946 71.3725V80.0343Z" fill="#A13437"/>
<path id="Vector_18" d="M55.4719 77.3263L62.973 72.9953V71.7614L55.4719 76.0921V77.3263Z" fill="#A13437"/>
<path id="Vector_19" d="M55.4175 82.5558L63.0272 78.1624V68.3672L55.4175 72.7606V82.5558ZM56.2303 73.23L62.2144 69.7751V77.6932L56.2303 81.1481V73.23Z" fill="#A13437"/>
</g>
</g>
<g id="Group_4">
<path id="Vector_20" d="M35.9845 75.7505L42.7814 79.6749V70.8185L35.9845 66.8939V75.7505Z" fill="#7DC8F0"/>
<g id="Group_5">
<path id="Vector_21" d="M38.9552 77.3732L39.8107 77.8572V69.1956L38.9552 68.7114V77.3732Z" fill="#A13437"/>
<path id="Vector_22" d="M35.6325 70.8184L43.1337 75.1492V73.915L35.6325 69.5842V70.8184Z" fill="#A13437"/>
<path id="Vector_23" d="M35.5781 75.9853L43.1878 80.3787V70.5837L35.5781 66.1901V75.9853ZM36.3909 67.598L42.3752 71.0529V78.971L36.3909 75.5161V67.598Z" fill="#A13437"/>
</g>
</g>
<g id="Group_6">
<path id="Vector_24" d="M66.6762 75.587L73.4731 71.6626V62.8063L66.6762 66.7304V75.587Z" fill="#7DC8F0"/>
<g id="Group_7">
<path id="Vector_25" d="M69.6469 73.7693L70.5023 73.2853V64.6235L69.6469 65.1075V73.7693Z" fill="#A13437"/>
<path id="Vector_26" d="M66.3239 71.0613L73.8251 66.7306V65.4963L66.3239 69.8271V71.0613Z" fill="#A13437"/>
<path id="Vector_27" d="M66.2698 76.2908L73.8797 71.8974V62.1022L66.2698 66.4958V76.2908ZM67.0826 66.965L73.0669 63.5101V71.4282L67.0826 74.8829V66.965Z" fill="#A13437"/>
</g>
</g>
<g id="Group_8">
<path id="Vector_28" d="M29.1734 71.8178L35.9702 75.7421V66.8856L29.1734 62.9612V71.8178Z" fill="#7DC8F0"/>
<g id="Group_9">
<path id="Vector_29" d="M32.1438 73.4406L32.9995 73.9244V65.2628L32.1438 64.7788V73.4406Z" fill="#A13437"/>
<path id="Vector_30" d="M28.8211 66.8856L36.3223 71.2164V69.9822L28.8211 65.6516V66.8856Z" fill="#A13437"/>
<path id="Vector_31" d="M28.7667 72.0527L36.3766 76.4458V66.6508L28.7667 62.2572V72.0527ZM29.5795 63.6653L35.5638 67.12V75.0381L29.5795 71.5832V63.6653Z" fill="#A13437"/>
</g>
</g>
<g id="Group_10">
<path id="Vector_32" d="M42.757 79.6607L49.5541 83.585V74.7285L42.757 70.8043V79.6607Z" fill="#7DC8F0"/>
<g id="Group_11">
<path id="Vector_33" d="M45.7277 81.2834L46.5832 81.7674V73.1056L45.7277 72.6216V81.2834Z" fill="#A13437"/>
<path id="Vector_34" d="M42.405 74.7284L49.9062 79.0592V77.8252L42.405 73.4944V74.7284Z" fill="#A13437"/>
<path id="Vector_35" d="M42.3509 79.8952L49.9605 84.2886V74.4936L42.3509 70.1V79.8952ZM43.1634 71.5081L49.1477 74.963V82.8812L43.1634 79.4265V71.5081Z" fill="#A13437"/>
</g>
</g>
<path id="Vector_36" d="M98.4356 71.3311L105.369 67.3278V53.7959L98.4356 57.799V71.3311Z" fill="#752628"/>
<path id="Vector_37" d="M104.246 60.3804C104.046 60.496 103.884 60.777 103.884 61.0081V63.7526C103.884 63.9837 104.046 64.0774 104.246 63.9617C104.446 63.8461 104.608 63.5653 104.608 63.3342V60.5897C104.608 60.3586 104.446 60.2649 104.246 60.3804Z" fill="#150909"/>
<g id="Group_12">
<path id="Vector_38" d="M85.0331 72.7765L96.724 66.0267V57.8787L85.0331 64.6284V72.7765Z" fill="#7DC8F0"/>
<g id="Group_13">
<path id="Vector_39" d="M84.709 68.6131L97.0479 61.4891V60.3538L84.709 67.4776V68.6131Z" fill="#A13437"/>
<path id="Vector_40" d="M84.6591 73.424L97.098 66.2426V57.2308L84.6591 64.4126V73.424ZM85.407 64.844L96.3504 58.5262V65.8108L85.407 72.1289V64.844Z" fill="#A13437"/>
</g>
</g>
</g>
</g>
</svg>
