<svg width="120" height="120" viewBox="0 0 120 120" fill="none" xmlns="http://www.w3.org/2000/svg">
<g id="Home 05">
<g id="Group">
<path id="Vector" opacity="0.1" d="M20.9102 57.6696L12 69.9764L17.5195 72.5177L51.1577 92.7387C51.2733 92.8155 56.272 93.1617 56.272 93.1617L66.6288 65.7715L55.662 38.411L20.9102 57.6696Z" fill="black"/>
<path id="Vector_2" d="M56.2718 93.1616L100.14 67.8346V46.2622L56.2718 71.5892V93.1616Z" fill="#C1CCB1"/>
<path id="Vector_3" d="M24.1081 74.7889L56.2718 93.1615V71.5892L24.1081 54.3523V74.7889Z" fill="#A3B092"/>
<path id="Vector_4" d="M66.8041 28.9284L19.7332 56.1049L54.6232 74.6297L104.345 45.923L79.4716 26.8385L66.8041 28.9284Z" fill="#B7C0C7"/>
<path id="Vector_5" d="M46.5769 45.8306L54.6232 74.6297L104.345 45.923L79.4716 26.8385L46.5769 45.8306Z" fill="#976739"/>
<path id="Vector_6" d="M19.7332 56.1049L46.5769 45.8306L79.4716 26.8385L66.8041 28.9284L19.7332 56.1049Z" fill="#6E4E2F"/>
<path id="Vector_7" d="M19.7332 56.105L54.6232 74.6298L46.5769 45.8307L19.7332 56.105Z" fill="#825C38"/>
<path id="Vector_8" d="M76.0912 62.525V81.7332L87.1526 88.1195L95.407 88.4666L105.581 82.6358V65.0816L80.0672 64.9761L76.0912 62.525Z" fill="#ADBA9B"/>
<path id="Vector_9" d="M76.0912 81.7186L87.1526 88.1194V68.899L76.0912 62.8043V81.7186Z" fill="#A3B092"/>
<path id="Vector_10" d="M95.6332 88.4665L105.581 82.6357V63.7214L95.6332 69.2461V88.4665Z" fill="#B7C5A4"/>
<path id="Vector_11" d="M79.6116 45.7024L75.2688 62.7098L87.5456 69.7978L96.7073 70.1831L95.6332 54.8156L79.6116 45.7024Z" fill="#825C38"/>
<path id="Vector_12" d="M96.7074 70.1832L108 63.7116L95.6332 54.8157L96.7074 70.1832Z" fill="#AB7541"/>
<path id="Vector_13" d="M94.4745 51.6216L79.6816 45.7423L95.7033 54.8555L108 63.7116L104.88 57.6291L94.4745 51.6216Z" fill="#9E6C3C"/>
<g id="Group_2">
<path id="Vector_14" d="M61.4738 85.7695L69.7556 80.9877V70.1964L61.4738 74.9781V85.7695Z" fill="#7DC8F0"/>
<g id="Group_3">
<path id="Vector_15" d="M65.0934 83.5546L66.1359 82.9652V72.411L65.0934 73.0007V83.5546Z" fill="white"/>
<path id="Vector_16" d="M61.0446 80.2551L70.1848 74.9781V73.4744L61.0446 78.7513V80.2551Z" fill="white"/>
<path id="Vector_17" d="M60.9785 86.6271L70.2509 81.2739V69.3386L60.9785 74.692V86.6271ZM61.969 75.2639L69.2604 71.0542V80.7021L61.969 84.9117V75.2639Z" fill="white"/>
</g>
</g>
<g id="Group_4">
<path id="Vector_18" d="M96.8655 82.5582L105.111 77.7976V67.0538L96.8655 71.8145V82.5582Z" fill="#7DC8F0"/>
<g id="Group_5">
<path id="Vector_19" d="M100.642 79.9925L101.629 79.434V69.4384L100.642 69.9969V79.9925Z" fill="white"/>
<path id="Vector_20" d="M96.4472 79.9634L104.804 75.1387V74.4286L96.4472 79.253V79.9634Z" fill="white"/>
<path id="Vector_21" d="M96.4472 76.2823L104.804 71.4577V70.7473L96.4472 75.5719V76.2823Z" fill="white"/>
<path id="Vector_22" d="M96.3867 82.8603L105.382 77.8062V66.8942L96.3867 71.9485V82.8603ZM97.0266 72.2728L104.804 67.7749V77.2995L97.0266 81.7971V72.2728Z" fill="white"/>
</g>
</g>
<g id="Group_6">
<path id="Vector_23" d="M78.7132 77.8932L86.2852 82.265V72.3988L78.7132 68.027V77.8932Z" fill="#7DC8F0"/>
<g id="Group_7">
<path id="Vector_24" d="M82.0226 79.701L82.9758 80.24V70.5911L82.0226 70.0518V79.701Z" fill="white"/>
<path id="Vector_25" d="M78.3211 75.3278L86.6775 80.1522V79.442L78.3211 74.6174V75.3278Z" fill="white"/>
<path id="Vector_26" d="M78.3211 71.6464L86.6775 76.471V75.7606L78.3211 70.936V71.6464Z" fill="white"/>
<path id="Vector_27" d="M78.2604 78.1548L86.738 83.049V72.1372L78.2604 67.2428V78.1548ZM78.9 68.3059L86.0984 72.4616V81.9862L78.9 77.8305V68.3059Z" fill="white"/>
</g>
</g>
<g id="Group_8">
<path id="Vector_28" d="M87.6637 82.5738L94.8909 82.5881V72.7417L87.6637 72.7279V82.5738Z" fill="#7DC8F0"/>
<g id="Group_9">
<path id="Vector_29" d="M90.8224 82.466L91.7323 82.4791V72.8496L90.8224 72.8367V82.466Z" fill="white"/>
<path id="Vector_30" d="M87.2892 80.2388L95.2652 80.2545V79.5455L87.2892 79.5298V80.2388Z" fill="white"/>
<path id="Vector_31" d="M87.2892 76.5652L95.2652 76.5809V75.8719L87.2892 75.8562V76.5652Z" fill="white"/>
<path id="Vector_32" d="M87.2316 83.0946L95.3231 83.1105V72.221L87.2316 72.2051V83.0946ZM87.8421 72.8986L94.7128 72.9122V82.417L87.8421 82.4034V72.8986Z" fill="white"/>
</g>
</g>
<path id="Vector_33" d="M41.8964 84.9079L48.7488 88.8643V75.4907L41.8964 71.5342V84.9079Z" fill="#75491F"/>
<path id="Vector_34" d="M47.0716 80.3812V82.3143C47.0716 82.4772 47.186 82.675 47.3269 82.7564C47.468 82.8379 47.5821 82.7718 47.5821 82.609V80.6758C47.5821 80.5132 47.468 80.3151 47.3269 80.2338C47.186 80.1527 47.0716 80.2186 47.0716 80.3812Z" fill="#916E4C"/>
<g id="Group_10">
<path id="Vector_35" d="M27.2161 73.8906L35.4977 78.6723V67.881L27.2161 63.0992V73.8906Z" fill="#7DC8F0"/>
<g id="Group_11">
<path id="Vector_36" d="M30.8355 75.868L31.878 76.4577V65.9035L30.8355 65.3138V75.868Z" fill="white"/>
<path id="Vector_37" d="M26.787 67.881L35.9269 73.1579V71.6542L26.787 66.3774V67.881Z" fill="white"/>
<path id="Vector_38" d="M26.7209 74.1768L35.9932 79.5299V67.5951L26.7209 62.2417V74.1768ZM27.7111 63.9571L35.0025 68.1667V77.8147L27.7111 73.6051V63.9571Z" fill="white"/>
</g>
</g>
</g>
</g>
</svg>
