<svg width="120" height="120" viewBox="0 0 120 120" fill="none" xmlns="http://www.w3.org/2000/svg">
<g id="Home 03">
<g id="Group">
<path id="Vector" opacity="0.1" d="M57.0143 72.1797L51.0499 85.6227L54.4256 85.1786L71.8931 95.4032L75.9253 96.0599L84.8946 72.3397L97.6603 46.4854L90.9281 53.3413L57.0143 72.1797Z" fill="black"/>
<path id="Vector_2" opacity="0.1" d="M17.9644 49.634L12 63.0773L15.3757 62.6329L32.8432 72.8577L36.8754 73.5145L45.8447 49.7943L58.6104 23.9399L51.8782 30.7959L17.9644 49.634Z" fill="black"/>
<path id="Vector_3" d="M43.4977 69.6911L64.0931 81.6398L66.4207 60.9447L43.4977 46.4847V69.6911Z" fill="#FFC995"/>
<path id="Vector_4" d="M36.8754 73.5145L43.4977 69.6911V46.4847L36.8754 50.3081V73.5145Z" fill="#FFDFC1"/>
<g id="Group_2">
<path id="Vector_5" d="M57.2016 72.7917L63.1151 76.2059V68.5003L57.2016 65.0859V72.7917Z" fill="#7DC8F0"/>
<g id="Group_3">
<path id="Vector_6" d="M59.7863 74.2035L60.5304 74.6246V67.0885L59.7863 66.6674V74.2035Z" fill="white"/>
<path id="Vector_7" d="M56.8952 68.5007L63.4216 72.2685V71.1948L56.8952 67.4268V68.5007Z" fill="white"/>
<path id="Vector_8" d="M56.8479 72.996L63.4688 76.8184V68.2963L56.8479 64.4736V72.996ZM57.5552 65.6987L62.7616 68.7046V75.5935L57.5552 72.5877V65.6987Z" fill="white"/>
</g>
</g>
<path id="Vector_9" d="M22.8351 65.4082L36.8754 73.5145V50.3081L22.8351 42.2018V65.4082Z" fill="#B5B5B5"/>
<path id="Vector_10" d="M22.8351 42.2018V65.4082L36.8754 73.5145V50.3081L29.198 42.5121L22.8351 42.2018Z" fill="#F5B174"/>
<path id="Vector_11" d="M61.8851 64.7472V87.9536L75.9253 96.0599V72.8535L69.6239 65.6059L61.8851 64.7472Z" fill="#F5B174"/>
<path id="Vector_12" d="M75.9253 96.0599L106.839 78.1131V56.429L75.9253 72.7832V96.0599Z" fill="#FFDFC1"/>
<g id="Group_4">
<path id="Vector_13" d="M19.4733 42.9358L29.1961 43.2156L61.0549 25.1052L51.9515 24.6044L19.4733 42.9358Z" fill="#3D4645"/>
<path id="Vector_14" d="M29.1961 43.2156L36.8754 52.978L69.048 34.3415L61.0549 25.1052L29.1961 43.2156Z" fill="#6F7675"/>
</g>
<g id="Group_5">
<path id="Vector_15" d="M44.2941 48.6965L70.9062 64.061L77.5216 44.9531L59.4 34.4906L44.2941 48.6965Z" fill="#2F3938"/>
<path id="Vector_16" d="M59.4 34.4906L77.5216 44.9531L95.718 49.6751L69.048 34.3418L59.4 34.4906Z" fill="#555D5C"/>
<path id="Vector_17" d="M70.9062 63.5346L95.718 49.6751L77.5216 44.9531L70.9062 63.5346Z" fill="#6F7675"/>
</g>
<g id="Group_6">
<path id="Vector_18" d="M58.425 65.4623L68.148 66.6522L100.556 47.9116L90.9035 47.1309L58.425 65.4623Z" fill="#3D4645"/>
<path id="Vector_19" d="M68.148 66.6522L75.8273 75.5046L108 56.868L100.556 47.9116L68.148 66.6522Z" fill="#6F7675"/>
</g>
<path id="Vector_20" d="M50.9709 74.0419L56.291 77.1134V66.7308L50.9709 63.6593V74.0419Z" fill="#704317"/>
<path id="Vector_21" d="M55.0657 70.6292V72.1299C55.0657 72.2562 55.1545 72.4099 55.2638 72.473C55.3732 72.5363 55.4618 72.485 55.4618 72.3586V70.8579C55.4618 70.7316 55.3732 70.5781 55.2638 70.5148C55.1545 70.4517 55.0657 70.5028 55.0657 70.6292Z" fill="#481100"/>
<g id="Group_7">
<path id="Vector_22" d="M84.7585 86.2785L91.7677 82.2315V73.0984L84.7585 77.1451V86.2785Z" fill="#7DC8F0"/>
<g id="Group_8">
<path id="Vector_23" d="M87.822 84.4039L88.7041 83.9049V74.9724L87.822 75.4716V84.4039Z" fill="white"/>
<path id="Vector_24" d="M84.3952 81.6113L92.1307 77.1451V75.8724L84.3952 80.3387V81.6113Z" fill="white"/>
<path id="Vector_25" d="M84.3391 87.0043L92.1867 82.4736V72.3723L84.3391 76.9033V87.0043ZM85.1775 77.387L91.3486 73.8243V81.9897L85.1775 85.5524V77.387Z" fill="white"/>
</g>
</g>
<g id="Group_9">
<path id="Vector_26" d="M97.4927 78.9267L104.502 74.8797V65.7466L97.4927 69.7935V78.9267Z" fill="#7DC8F0"/>
<g id="Group_10">
<path id="Vector_27" d="M100.556 77.0523L101.439 76.5534V67.6208L100.556 68.1198V77.0523Z" fill="white"/>
<path id="Vector_28" d="M97.1297 74.2598L104.865 69.7935V68.5209L97.1297 72.9869V74.2598Z" fill="white"/>
<path id="Vector_29" d="M97.0737 79.6525L104.921 75.1218V65.0205L97.0737 69.5514V79.6525ZM97.912 70.0352L104.083 66.4725V74.6379L97.912 78.2006V70.0352Z" fill="white"/>
</g>
</g>
<g id="Group_11">
<path id="Vector_30" d="M66.8519 88.3317L71.16 90.8189V80.5657L66.8519 78.0782V88.3317Z" fill="#7DC8F0"/>
<g id="Group_12">
<path id="Vector_31" d="M70.2909 90.2102L71.16 90.7017V80.6742L70.2909 80.1825V90.2102Z" fill="white"/>
<path id="Vector_32" d="M66.4441 82.6216L71.16 85.3441V83.9154L66.4441 81.1929V82.6216Z" fill="white"/>
<path id="Vector_33" d="M66.3813 88.6033L71.16 91.3621V90.2758L67.3223 88.0603V78.8934L71.16 81.1089V80.0224L66.3813 77.2633V88.6033Z" fill="white"/>
</g>
</g>
<g id="Group_13">
<path id="Vector_34" d="M67.0615 74.2733L70.8989 76.4891V72.5462L67.0615 70.3307V74.2733Z" fill="#7DC8F0"/>
<g id="Group_14">
<path id="Vector_35" d="M70.1248 75.9468L70.8989 76.3846V72.6428L70.1248 72.205V75.9468Z" fill="white"/>
<path id="Vector_36" d="M66.6422 74.5155L70.8989 76.9729V76.0052L67.4805 74.0317V71.0568L70.8989 73.0302V72.0623L66.6422 69.6046V74.5155Z" fill="white"/>
</g>
</g>
<g id="Group_15">
<path id="Vector_37" d="M44.3133 65.3508L50.227 68.7652V61.0596L44.3133 57.6453V65.3508Z" fill="#7DC8F0"/>
<g id="Group_16">
<path id="Vector_38" d="M46.8979 66.763L47.6423 67.184V59.6479L46.8979 59.2267V66.763Z" fill="white"/>
<path id="Vector_39" d="M44.0069 61.0598L50.5333 64.8278V63.7541L44.0069 59.9861V61.0598Z" fill="white"/>
<path id="Vector_40" d="M43.9596 65.5553L50.5805 69.3777V60.8556L43.9596 57.033V65.5553ZM44.6669 58.2578L49.8733 61.2637V68.1526L44.6669 65.1468V58.2578Z" fill="white"/>
</g>
</g>
<g id="Group_17">
<path id="Vector_41" d="M27.2292 64.3964L31.5373 66.8836V56.6304L27.2292 54.1429V64.3964Z" fill="#7DC8F0"/>
<g id="Group_18">
<path id="Vector_42" d="M30.6682 66.2749L31.5373 66.7664V56.7387L30.6682 56.2472V66.2749Z" fill="white"/>
<path id="Vector_43" d="M26.8214 58.6863L31.5373 61.4088V59.9801L26.8214 57.2576V58.6863Z" fill="white"/>
<path id="Vector_44" d="M26.7586 64.668L31.5373 67.4268V66.3403L27.6996 64.1247V54.9578L31.5373 57.1736V56.0868L26.7586 53.328V64.668Z" fill="white"/>
</g>
</g>
<g id="Group_19">
<path id="Vector_45" d="M27.2651 49.0439L31.1027 51.2596V47.317L27.2651 45.1012V49.0439Z" fill="#7DC8F0"/>
<g id="Group_20">
<path id="Vector_46" d="M30.3286 50.7173L31.1027 51.1551V47.4133L30.3286 46.9755V50.7173Z" fill="white"/>
<path id="Vector_47" d="M26.846 49.286L31.1027 51.7436V50.7757L27.6844 48.8022V45.8273L31.1027 47.8008V46.8328L26.846 44.3754V49.286Z" fill="white"/>
</g>
</g>
</g>
</g>
</svg>
