<svg width="120" height="120" viewBox="0 0 120 120" fill="none" xmlns="http://www.w3.org/2000/svg">
<g id="Home 01">
<g id="Group">
<path id="Vector" opacity="0.1" d="M18.5248 59.2374L12 73.9435L15.3127 73.3038L47.1802 92.4603C47.2896 92.5329 52.0252 92.861 52.0252 92.861L61.8368 66.9127L42.7624 45.5892L18.5248 59.2374Z" fill="black"/>
<path id="Vector_2" d="M52.0249 92.861L92.5877 69.442V43.1765L52.0249 66.5955V92.861Z" fill="#EF8458"/>
<path id="Vector_3" d="M25.7897 54.2012V77.7141L52.0249 92.8611V66.5956L35.6794 52.9058L25.7897 54.2012Z" fill="#EB642D"/>
<path id="Vector_4" d="M35.8994 53.2404L51.4716 71.6586L96.6804 45.5574L81.108 27.139L35.8994 53.2404Z" fill="#5F7371"/>
<path id="Vector_5" d="M23.1928 55.3646L35.8995 53.2404L81.108 27.139L68.4016 29.2634L23.1928 55.3646Z" fill="#566966"/>
<path id="Vector_6" d="M75.6009 69.3542V90.4015L102.176 74.9794V52.5635L92.5179 50.705L75.6009 69.3542Z" fill="#EF8458"/>
<path id="Vector_7" d="M65.9428 84.8255L75.6009 90.4016V69.3542L65.9428 63.778V84.8255Z" fill="#EB642D"/>
<path id="Vector_8" d="M62.1279 66.0166L76.297 73.7702L94.7644 52.0528L72.866 38.9137L62.1279 66.0166Z" fill="#2F3938"/>
<path id="Vector_9" d="M72.866 38.9137L94.7644 52.0528L108 53.7283L94.9179 46.5749L72.866 38.9137Z" fill="#3F4847"/>
<g id="Group_2">
<path id="Vector_10" d="M33.8587 76.5684L41.79 81.1476V70.8131L33.8587 66.2341V76.5684Z" fill="#7DC8F0"/>
<g id="Group_3">
<path id="Vector_11" d="M37.3251 78.4619L38.3236 79.0265V68.9198L37.3251 68.355V78.4619Z" fill="white"/>
<path id="Vector_12" d="M33.4481 70.8133L42.2008 75.8667V74.4267L33.4481 69.3733V70.8133Z" fill="white"/>
<path id="Vector_13" d="M33.3846 76.8424L42.2643 81.9688V70.5393L33.3846 65.4126V76.8424ZM34.3329 67.0553L41.3156 71.0866V80.3259L34.3329 76.2946V67.0553Z" fill="white"/>
</g>
</g>
<g id="Group_4">
<path id="Vector_14" d="M54.8299 87.1116L62.7612 82.5327V72.1984L54.8299 76.7774V87.1116Z" fill="#7DC8F0"/>
<g id="Group_5">
<path id="Vector_15" d="M58.2965 84.9908L59.2947 84.4262V74.319L58.2965 74.8838V84.9908Z" fill="white"/>
<path id="Vector_16" d="M54.4191 81.8309L63.172 76.7775V75.3375L54.4191 80.3909V81.8309Z" fill="white"/>
<path id="Vector_17" d="M54.3558 87.9331L63.2355 82.8066V71.3768L54.3558 76.5036V87.9331ZM55.3043 77.0508L62.287 73.0196V82.2591L55.3043 86.2903V77.0508Z" fill="white"/>
</g>
</g>
<path id="Vector_18" d="M86.6503 83.9653L95.5906 78.8035V63.0005L86.6503 68.1621V83.9653Z" fill="white"/>
<path id="Vector_19" d="M87.3141 83.5821L94.7644 79.2806V64.7405L87.3141 69.042V83.5821Z" fill="#DBDBDB"/>
<path id="Vector_20" d="M93.6394 71.2929C93.4554 71.3989 93.3065 71.6574 93.3065 71.8695V74.3916C93.3065 74.6039 93.4554 74.6902 93.6394 74.5838C93.8231 74.4778 93.9722 74.2196 93.9722 74.0072V71.4853C93.9724 71.2728 93.8233 71.1867 93.6394 71.2929Z" fill="#999999"/>
</g>
</g>
</svg>
