<svg width="48" height="43" viewBox="0 0 48 43" fill="none" xmlns="http://www.w3.org/2000/svg">
<g id="Vector">
<path d="M17.2297 5.9758V14.0631L37.7445 26.0145L48.002 20.0388V11.9515L27.487 8.08736L17.2297 5.9758Z" fill="#308D43"/>
<path d="M17.2297 11.9881V20.0754L37.7445 32.0269L48.002 26.0511V17.9638L27.487 14.0997L17.2297 11.9881Z" fill="#308D43"/>
<path d="M17.2296 17.0901V17.7506L37.7445 29.7021L48.002 23.7263V23.0658L37.7445 29.0415L17.2296 17.0901Z" fill="#449855"/>
<path d="M17.2296 15.5869V16.2476L37.7445 28.199L48.002 22.2233V21.5627L37.7445 27.5384L17.2296 15.5869Z" fill="#449855"/>
<path d="M17.2296 14.0839V14.7445L37.7445 26.6959L48.002 20.7202V20.0596L37.7445 26.0354L17.2296 14.0839Z" fill="#449855"/>
<path d="M17.2296 12.5808V13.2414L37.7445 25.1929L48.002 19.2171V18.5565L37.7445 24.5324L17.2296 12.5808Z" fill="#449855"/>
<path d="M17.2296 18.5931V19.2536L37.7445 31.2052L48.002 25.2295V24.5688L37.7445 30.5445L17.2296 18.5931Z" fill="#449855"/>
<path d="M17.2296 11.0777V11.7383L37.7445 23.6897L48.002 17.714V17.0535L37.7445 23.0292L17.2296 11.0777Z" fill="#449855"/>
<path d="M17.2296 9.57464V10.2353L37.7445 22.1867L48.002 16.211V15.5503L37.7445 21.5262L17.2296 9.57464Z" fill="#449855"/>
<path d="M17.2296 8.07161V8.73228L37.7445 20.6837L48.002 14.7078V14.0473L37.7445 20.023L17.2296 8.07161Z" fill="#449855"/>
<path d="M17.2296 6.56858V7.22911L37.7445 19.1807L48.002 13.2048V12.5443L37.7445 18.5201L17.2296 6.56858Z" fill="#449855"/>
<path d="M0.66404 28.9371V37.0243L10.9215 43L31.4363 31.0486V22.9613L21.1788 25.0728L0.66404 28.9371Z" fill="#308D43"/>
<path d="M0.66404 28.9371L10.9215 34.9127L31.4363 22.9613L21.1788 16.9856L0.66404 28.9371Z" fill="#58A368"/>
<path d="M26.2484 21.9539L22.9738 20.0462C21.6062 20.6012 19.7676 20.5879 18.4204 20.0082L5.91759 27.292C6.87039 28.0887 6.84728 29.1598 5.85211 29.9446L9.12679 31.8524C10.4944 31.2974 12.3328 31.3108 13.6802 31.8906L26.1829 24.6068C25.2302 23.8098 25.2532 22.7387 26.2484 21.9539Z" fill="#EDEDED"/>
<path d="M19.0363 24.2094C17.3871 23.2486 14.7133 23.2486 13.064 24.2094C11.4148 25.1703 11.4148 26.728 13.064 27.6887C14.7133 28.6496 17.3871 28.6496 19.0363 27.6887C20.6855 26.728 20.6855 25.1703 19.0363 24.2094Z" fill="#58A368"/>
<path d="M18.7079 26.276C18.7167 26.0502 18.5663 25.8468 18.2559 25.6661C17.9862 25.509 17.6684 25.4272 17.3012 25.4203C16.9337 25.4128 16.4716 25.4857 15.9145 25.6384L14.8514 25.019C15.2143 24.849 15.6052 24.7342 16.027 24.6745L15.2696 24.2332C14.9662 24.2834 14.6088 24.4182 14.1951 24.6367L13.685 24.3395L13.2757 24.5779L13.7975 24.8818C13.4887 25.1004 13.3334 25.3306 13.3334 25.5722C13.332 25.8129 13.4787 26.0193 13.7718 26.1901C14.0446 26.349 14.3566 26.4374 14.7057 26.4545C15.0553 26.4722 15.5304 26.4007 16.1301 26.2408L17.151 26.8356C16.9713 26.9272 16.7371 27.0132 16.4473 27.0952C16.1574 27.1773 15.9141 27.2236 15.7177 27.2359L16.4943 27.6883C16.9921 27.5965 17.4315 27.4409 17.8124 27.2209L18.4044 27.5658L18.8137 27.3272L18.2052 26.9727C18.5321 26.7343 18.6997 26.5024 18.7079 26.276ZM14.4702 25.7276C14.2462 25.5971 14.2404 25.4425 14.4535 25.2642L15.3423 25.7821C14.9532 25.8577 14.6628 25.8399 14.4702 25.7276ZM17.549 26.5906L16.699 26.0953C17.0829 26.0071 17.3651 26.0165 17.5484 26.1233C17.7751 26.2555 17.7754 26.4107 17.549 26.5906Z" fill="#EDEDED"/>
<path d="M0.664042 34.0389V34.6996L10.9215 40.6753L31.4364 28.7239V28.0632L10.9215 40.0148L0.664042 34.0389Z" fill="#449855"/>
<path d="M0.664042 32.5359V33.1964L10.9215 39.1723L31.4364 27.2207V26.5602L10.9215 38.5116L0.664042 32.5359Z" fill="#449855"/>
<path d="M0.664042 31.0329V31.6934L10.9215 37.6691L31.4364 25.7177V25.057L10.9215 37.0086L0.664042 31.0329Z" fill="#449855"/>
<path d="M0.664042 29.5297V30.1904L10.9215 36.1661L31.4364 24.2147V23.554L10.9215 35.5055L0.664042 29.5297Z" fill="#449855"/>
<path d="M0.664042 35.5421V36.2026L10.9215 42.1783L31.4364 30.2269V29.5663L10.9215 41.5178L0.664042 35.5421Z" fill="#449855"/>
<path d="M17.2297 5.9758L37.7445 17.9272L48.002 11.9515L27.487 0L17.2297 5.9758Z" fill="#58A368"/>
<path d="M42.8139 10.3444L30.3111 3.06055C28.9435 3.61569 27.1049 3.60217 25.7577 3.02248L22.483 4.93027C23.4358 5.72697 23.4127 6.79806 22.4175 7.58289L34.9203 14.8667C36.2879 14.3117 38.1263 14.3252 39.4737 14.9049L42.7483 12.9971C41.7957 12.2004 41.8188 11.1293 42.8139 10.3444Z" fill="#EDEDED"/>
<path d="M35.602 7.22402C33.9527 6.26316 31.2789 6.26316 29.6297 7.22402C27.9804 8.18489 27.9804 9.74241 29.6297 10.7033C31.2789 11.6641 33.9527 11.6641 35.602 10.7033C37.2511 9.74241 37.2511 8.18475 35.602 7.22402Z" fill="#58A368"/>
<path d="M34.869 7.88276L35.3791 7.5856L34.9696 7.34721L34.4479 7.65113C34.0729 7.47123 33.6777 7.3806 33.263 7.3806C32.8497 7.37977 32.4954 7.46544 32.2025 7.63609C31.9296 7.79502 31.7778 7.9767 31.7484 8.18019C31.7182 8.38381 31.8408 8.66069 32.1151 9.00999L31.0943 9.60472C30.9371 9.50001 30.7893 9.36357 30.6488 9.19472C30.5081 9.02572 30.4284 8.88404 30.4072 8.76968L29.6306 9.22203C29.7881 9.51202 30.0551 9.76806 30.433 9.99003L29.841 10.3349L30.2504 10.5734L30.8589 10.2189C31.2685 10.4094 31.6665 10.5071 32.0551 10.5118C32.4428 10.5169 32.7917 10.4293 33.1019 10.2486C33.3718 10.0914 33.5121 9.90629 33.5241 9.69246C33.5367 9.47835 33.4117 9.20907 33.1496 8.88445L34.2129 8.26517C34.5045 8.47666 34.7017 8.70442 34.8044 8.95012L35.5619 8.5088C35.4756 8.33194 35.2443 8.1239 34.869 7.88276ZM32.317 9.83649C32.0905 9.96851 31.8242 9.96879 31.5152 9.83676L32.3652 9.3415C32.5165 9.56527 32.5004 9.72957 32.317 9.83649ZM32.9029 8.55129C32.7731 8.32449 32.8037 8.15536 32.9964 8.04306C33.2203 7.91255 33.4858 7.90924 33.7918 8.0334L32.9029 8.55129Z" fill="#EDEDED"/>
<path d="M36.4186 33.8345C34.5088 32.7219 31.4122 32.7219 29.5023 33.8345C28.667 34.3209 28.07 34.7386 28.07 34.7386C28.07 34.7386 28.072 35.734 28.0701 35.8136C28.0544 36.5546 28.532 37.2982 29.5024 37.8636C31.4124 38.9764 34.5086 38.9764 36.4182 37.8636C37.3733 37.3074 37.8509 36.5781 37.8509 35.849C37.8509 35.8118 37.8455 34.7778 37.8455 34.7778C37.8455 34.7778 37.3249 34.3624 36.4186 33.8345Z" fill="url(#paint0_linear_3520_45831)"/>
<path d="M36.4186 32.724C34.5088 31.6114 31.4122 31.6114 29.5023 32.724C27.5923 33.8366 27.5923 35.6405 29.5023 36.7533C31.4122 37.8657 34.5088 37.8657 36.4183 36.7533C38.3283 35.6407 38.3283 33.8365 36.4186 32.724Z" fill="#FED416"/>
<path d="M36.4186 32.4134C34.5088 31.3006 31.4122 31.3006 29.5023 32.4134C28.667 32.8998 28.07 33.3176 28.07 33.3176C28.07 33.3176 28.072 34.3129 28.0701 34.3925C28.0544 35.1335 28.5317 35.877 29.5021 36.4427C31.4121 37.5554 34.5086 37.5554 36.4182 36.4427C37.3733 35.8863 37.8509 35.1571 37.8509 34.4281C37.8509 34.3909 37.8455 33.3569 37.8455 33.3569C37.8455 33.3569 37.3249 32.9413 36.4186 32.4134Z" fill="url(#paint1_linear_3520_45831)"/>
<path d="M36.4186 31.3029C34.5088 30.1901 31.4122 30.1901 29.5023 31.3029C27.5923 32.4155 27.5923 34.2194 29.5023 35.3322C31.4122 36.4447 34.5088 36.4447 36.4183 35.3322C38.3283 34.2194 38.3283 32.4154 36.4186 31.3029Z" fill="#FED416"/>
<path d="M36.4186 30.9798C34.5088 29.8672 31.4122 29.8672 29.5023 30.9798C28.667 31.4662 28.07 31.8839 28.07 31.8839C28.07 31.8839 28.072 32.8794 28.0701 32.959C28.0544 33.7 28.5317 34.4436 29.5021 35.0091C31.4121 36.1218 34.5086 36.1218 36.4182 35.0091C37.3733 34.4528 37.8509 33.7236 37.8509 32.9945C37.8509 32.9572 37.8455 31.9234 37.8455 31.9234C37.8455 31.9234 37.3249 31.5077 36.4186 30.9798Z" fill="url(#paint2_linear_3520_45831)"/>
<path d="M36.4186 29.8693C34.5088 28.7566 31.4122 28.7566 29.5023 29.8693C27.5923 30.9819 27.5923 32.7859 29.5023 33.8985C31.4122 35.011 34.5088 35.011 36.4183 33.8985C38.3283 32.7859 38.3283 30.9817 36.4186 29.8693Z" fill="#FED416"/>
<path d="M36.4186 29.5209C34.5088 28.4083 31.4122 28.4083 29.5023 29.5209C28.667 30.0074 28.07 30.4249 28.07 30.4249C28.07 30.4249 28.072 31.4204 28.0701 31.5C28.0544 32.2409 28.5317 32.9846 29.5021 33.5501C31.4121 34.6628 34.5086 34.6628 36.4182 33.5501C37.3733 32.9937 37.8509 32.2646 37.8509 31.5355C37.8509 31.4982 37.8455 30.4644 37.8455 30.4644C37.8455 30.4644 37.3249 30.049 36.4186 29.5209Z" fill="url(#paint3_linear_3520_45831)"/>
<path d="M36.4186 28.4103C34.5088 27.2977 31.4122 27.2977 29.5023 28.4103C27.5923 29.5231 27.5923 31.327 29.5023 32.4396C31.4122 33.5521 34.5088 33.5521 36.4183 32.4396C38.3283 31.327 38.3283 29.523 36.4186 28.4103Z" fill="#FED416"/>
<path d="M36.4186 28.0896C34.5088 26.977 31.4122 26.977 29.5023 28.0896C28.667 28.5761 28.07 28.9938 28.07 28.9938C28.07 28.9938 28.072 29.9893 28.0701 30.0687C28.0544 30.8097 28.5317 31.5533 29.5021 32.1189C31.4121 33.2317 34.5086 33.2317 36.4182 32.1189C37.3733 31.5625 37.8509 30.8333 37.8509 30.1043C37.8509 30.0671 37.8455 29.0331 37.8455 29.0331C37.8455 29.0331 37.3249 28.6177 36.4186 28.0896Z" fill="url(#paint4_linear_3520_45831)"/>
<path d="M36.4186 26.979C34.5088 25.8664 31.4122 25.8664 29.5023 26.979C27.5923 28.0917 27.5923 29.8957 29.5023 31.0083C31.4122 32.1208 34.5088 32.1208 36.4183 31.0083C38.3283 29.8957 38.3283 28.0917 36.4186 26.979Z" fill="#FED416"/>
</g>
<defs>
<linearGradient id="paint0_linear_3520_45831" x1="23.8374" y1="19.8381" x2="9.88341" y2="23.2566" gradientUnits="userSpaceOnUse">
<stop stop-color="#F5C314"/>
<stop offset="1" stop-color="#EBB90A"/>
</linearGradient>
<linearGradient id="paint1_linear_3520_45831" x1="23.8374" y1="19.838" x2="9.88367" y2="23.256" gradientUnits="userSpaceOnUse">
<stop stop-color="#F5C314"/>
<stop offset="1" stop-color="#EBB90A"/>
</linearGradient>
<linearGradient id="paint2_linear_3520_45831" x1="23.8374" y1="19.8376" x2="9.88345" y2="23.2561" gradientUnits="userSpaceOnUse">
<stop stop-color="#F5C314"/>
<stop offset="1" stop-color="#EBB90A"/>
</linearGradient>
<linearGradient id="paint3_linear_3520_45831" x1="23.8374" y1="19.8381" x2="9.88341" y2="23.2566" gradientUnits="userSpaceOnUse">
<stop stop-color="#F5C314"/>
<stop offset="1" stop-color="#EBB90A"/>
</linearGradient>
<linearGradient id="paint4_linear_3520_45831" x1="23.8374" y1="19.8386" x2="9.88364" y2="23.2565" gradientUnits="userSpaceOnUse">
<stop stop-color="#F5C314"/>
<stop offset="1" stop-color="#EBB90A"/>
</linearGradient>
</defs>
</svg>
