<svg width="42" height="43" viewBox="0 0 42 43" fill="none" xmlns="http://www.w3.org/2000/svg">
<g clip-path="url(#clip0_3081_14762)">
<path d="M11.0585 17.0852L7.18671 13.213C6.59776 12.6244 6.59776 11.6695 7.18671 11.0809C7.77567 10.4919 8.73025 10.4919 9.31888 11.0809L13.191 14.9527L11.0585 17.0852Z" fill="#F97473"/>
<path d="M18.9265 42.3995C17.3486 42.3995 16.0695 41.1207 16.0695 39.5425V35.813H21.7834V39.5425C21.7834 41.1207 20.5043 42.3995 18.9265 42.3995Z" fill="#F97473"/>
<path d="M31.2988 38.0538C29.7209 38.0538 28.4418 36.775 28.4418 35.1971V31.4673H34.1554V35.1971C34.1554 36.775 32.8766 38.0538 31.2988 38.0538Z" fill="#F97473"/>
<path d="M9.60179 36.8948C8.02397 36.8948 6.74512 35.6156 6.74512 34.0378V28.1841H12.4588V34.0378C12.4588 35.6156 11.1796 36.8948 9.60179 36.8948Z" fill="#F97473"/>
<path d="M6.7413 16.1822C2.84449 22.9315 6.04724 32.076 13.8947 36.607C21.7421 41.1379 31.2629 39.3393 35.16 32.59C39.0568 25.8407 35.854 16.6961 28.0066 12.1652C20.1588 7.63458 10.6381 9.43285 6.7413 16.1822Z" fill="#F9A2A1"/>
<path d="M18.6599 22.6347C19.5731 21.5615 20.6741 20.5557 21.9431 19.6745C22.2718 19.4464 22.6044 19.2329 22.9396 19.0317L22.2635 18.0816C21.4929 16.9986 19.9051 16.9204 18.7176 17.9073C17.5297 18.8939 17.192 20.5717 17.9626 21.6548L18.6599 22.6347Z" fill="#FAB5B4"/>
<path d="M33.4139 17.186L33.578 15.8555C33.7318 14.6077 32.8775 13.7233 31.6698 13.8804C30.4624 14.0374 29.3588 15.1762 29.205 16.424L29.1531 16.846C30.6841 16.6723 32.1389 16.7851 33.4139 17.186Z" fill="#FAB5B4"/>
<path d="M32.6054 16.9765L32.6961 16.2423C32.79 15.4784 32.267 14.9369 31.5278 15.033C30.7886 15.1292 30.1128 15.8264 30.0186 16.5903L29.9955 16.7781C30.909 16.7371 31.7864 16.8041 32.6054 16.9765Z" fill="#FBC7C6"/>
<path d="M19.4052 21.8172C20.1534 21.0501 21.0023 20.3278 21.9434 19.6745C21.9719 19.6546 22.0004 19.636 22.0293 19.6165L21.6005 19.0144C21.1288 18.3511 20.1566 18.3033 19.4296 18.9077C18.7025 19.5117 18.4955 20.539 18.9672 21.202L19.4052 21.8172Z" fill="#FBC7C6"/>
<path d="M36.9942 27.8502C36.9942 30.0263 35.186 32.8343 32.9557 34.1221C30.7252 35.4099 28.917 34.6896 28.917 32.5135C28.917 30.3371 30.7252 27.5292 32.9557 26.2413C35.186 24.9538 36.9942 25.6738 36.9942 27.8502Z" fill="#F97473"/>
<path d="M31.3472 33.4677L31.2501 33.5237C30.8902 33.7314 30.5986 33.5109 30.5986 33.0312V30.0544C30.5986 29.5747 30.8902 29.0175 31.2501 28.8098L31.3472 28.7534C31.707 28.5458 31.9986 28.7662 31.9986 29.2459V32.2231C31.9986 32.7028 31.707 33.26 31.3472 33.4677Z" fill="#97463C"/>
<path d="M34.6611 31.5541L34.564 31.6102C34.2042 31.8181 33.9126 31.5973 33.9126 31.118V28.1408C33.9126 27.6611 34.2042 27.1039 34.564 26.8962L34.6611 26.8399C35.021 26.6322 35.3126 26.8527 35.3126 27.3324V30.3095C35.3126 30.7892 35.021 31.3464 34.6611 31.5541Z" fill="#97463C"/>
<path d="M27.9937 25.9939C27.9937 26.6482 27.4631 27.1792 26.8085 27.1792C26.1538 27.1792 25.6232 26.6482 25.6232 25.9939C25.6232 25.3392 26.1538 24.8086 26.8085 24.8086C27.4631 24.8086 27.9937 25.3392 27.9937 25.9939Z" fill="#97463C"/>
<path d="M35.7976 22.7668C35.7976 23.4215 35.267 23.9521 34.6123 23.9521C33.958 23.9521 33.4274 23.4215 33.4274 22.7668C33.4274 22.1122 33.958 21.5815 34.6123 21.5815C35.267 21.5815 35.7976 22.1122 35.7976 22.7668Z" fill="#97463C"/>
<path d="M25.2749 17.6988C24.9683 17.6988 24.6619 17.579 24.4328 17.3406C24.4088 17.3156 21.9812 14.8361 17.7678 13.2919C17.1619 13.0698 16.8507 12.3985 17.0728 11.7926C17.2948 11.1866 17.9661 10.8755 18.5721 11.0976C23.3216 12.8382 26.0068 15.6051 26.119 15.7221C26.5653 16.1883 26.5493 16.9282 26.0831 17.3745C25.8568 17.5912 25.5656 17.6988 25.2749 17.6988Z" fill="#97463C"/>
<path d="M27.2056 9.05578C27.2056 5.91648 25.2971 2.26962 22.9425 0.910337C21.9591 0.342528 21.0539 0.265303 20.3326 0.59503L20.3319 0.593428L18.4311 1.70117C18.4311 1.70117 16.8527 2.33627 16.8527 5.20544C16.8527 8.34441 18.7612 11.9916 21.1157 13.3509C22.2808 14.0235 23.3363 14.0091 24.106 13.4432L24.1063 13.4438L25.7313 12.5021C26.6339 11.9807 27.2056 10.773 27.2056 9.05578Z" fill="#C3A600"/>
<path d="M25.3787 10.1277C25.3787 13.267 23.4699 14.7099 21.1157 13.3506C18.7611 11.9913 16.8523 8.34448 16.8523 5.20518C16.8523 2.06589 18.7611 0.62297 21.1157 1.98225C23.4699 3.34153 25.3787 6.9884 25.3787 10.1277Z" fill="#FFD800"/>
<path d="M24.0421 9.35633C24.0421 11.5112 22.7319 12.5017 21.1156 11.5686C19.4993 10.6355 18.1891 8.13195 18.1891 5.97703C18.1891 3.82211 19.4993 2.83164 21.1156 3.76475C22.7319 4.69785 24.0421 7.20141 24.0421 9.35633Z" fill="#C3A600"/>
<path d="M23.1347 8.83141C23.1347 10.3182 22.2307 11.0014 21.1156 10.3576C20.0005 9.71388 19.0966 7.98674 19.0966 6.49993C19.0966 5.01343 20.0005 4.32995 21.1156 4.9737C22.2307 5.61745 23.1347 7.34459 23.1347 8.83141Z" fill="#FFD800"/>
</g>
<defs>
<clipPath id="clip0_3081_14762">
<rect width="42" height="42" fill="white" transform="translate(0 0.399902)"/>
</clipPath>
</defs>
</svg>
