<svg width="42" height="47" viewBox="0 0 42 47" fill="none" xmlns="http://www.w3.org/2000/svg">
<g id="Vector">
<path d="M16.2094 7.71066C16.2094 7.71066 0.194617 12.2975 0.194617 36.3017C0.194617 38.748 4.37547 44.8761 16.2094 44.8761C28.0434 44.8761 32.2242 39.2067 32.2242 36.3017C32.2242 12.4504 16.2094 7.71066 16.2094 7.71066Z" fill="#2D6EA1"/>
<path d="M16.2094 0C12.5822 0 9.764 0.922912 9.764 2.09209C9.764 4.95591 10.5017 7.08511 11.3068 8.65993C11.3068 12.1493 16.2094 13.012 16.2094 13.012C16.2094 13.012 21.1519 11.8234 21.1519 8.68884C21.9076 7.13192 22.6547 4.86176 22.6547 2.09222C22.6549 1.10757 19.8367 0 16.2094 0Z" fill="#3D85BD"/>
<path d="M19.7147 10.6723C17.7896 11.7839 14.6724 11.7839 12.7498 10.6723C11.7881 10.1165 11.3072 9.38809 11.3068 8.65993V10.7747C11.3068 11.5028 11.7894 12.2295 12.748 12.7871C14.6721 13.8977 17.7877 13.8977 19.7096 12.7871C20.6705 12.2295 21.1519 11.5028 21.1519 10.7747V8.68884C21.1391 9.40746 20.6631 10.1241 19.7147 10.6723Z" fill="#ECC127"/>
<path d="M26.7183 29.1012C26.3045 28.8479 25.6439 28.7936 24.7374 28.9363L24.5586 26.2801C25.2695 25.9604 25.9187 25.8352 26.5101 25.9061L26.3828 24.0136C25.9452 23.9856 25.3009 24.1958 24.4484 24.6406L24.3626 23.3663L23.4812 23.8776L23.5689 25.1813C22.8383 25.6912 22.2657 26.3347 21.8542 27.1117C21.4425 27.8855 21.2612 28.6407 21.3105 29.373C21.3563 30.0547 21.5679 30.5338 21.9437 30.807C22.3196 31.082 22.9926 31.149 23.9608 31.0093L24.1324 33.5597C23.7679 33.7422 23.3495 33.8727 22.8735 33.9551C22.3973 34.0378 22.0358 34.035 21.787 33.9522L21.9175 35.8921C22.6516 35.908 23.4265 35.6821 24.2435 35.2121L24.343 36.6913L25.2244 36.18L25.1222 34.6596C25.9081 34.0965 26.4977 33.4553 26.8928 32.7324C27.2877 32.0113 27.4594 31.2636 27.4073 30.4885C27.3622 29.8143 27.1327 29.3527 26.7183 29.1012ZM22.9093 28.3215C22.8717 27.762 23.1284 27.261 23.6792 26.8209L23.8286 29.0417C23.2482 29.0419 22.9417 28.803 22.9093 28.3215ZM25.0122 33.0202L24.8693 30.8966C25.4653 30.8526 25.7767 31.0592 25.8074 31.5173C25.8454 32.0833 25.5816 32.5827 25.0122 33.0202Z" fill="#FFC740"/>
<path d="M12.9443 1.90375C12.9443 1.90375 12.2215 3.25154 12.2688 3.38859C12.3161 3.52564 13.2278 6.17413 13.2278 6.17413C13.2278 6.17413 13.1701 9.19411 13.3927 9.99248L13.6929 6.24004L12.5592 3.31313L12.9443 1.90375Z" fill="#2D6EA1"/>
<path d="M19.6091 3.3281L19.2285 1.73621C19.2285 1.73621 19.1729 3.35083 19.2241 3.48641C19.2754 3.62198 18.8031 6.13651 18.8031 6.13651C18.8031 6.13651 19.6719 9.01648 19.9182 9.80772L19.2456 6.15871L19.6091 3.3281Z" fill="#2D6EA1"/>
<path d="M40.6915 37.0698C38.9467 36.0609 36.1181 36.0609 34.3733 37.0698C33.6102 37.5109 33.0649 37.8897 33.0649 37.8897C33.0649 37.8897 33.0667 38.7923 33.0651 38.8645C33.0507 39.5363 33.4867 40.2105 34.3733 40.7234C36.1181 41.7324 38.9467 41.7325 40.6912 40.7235C41.5637 40.219 42 39.5578 42 38.8966C42 38.8629 41.9952 37.9253 41.9952 37.9253C41.9952 37.9253 41.5194 37.5485 40.6915 37.0698Z" fill="url(#paint0_linear_3520_45834)"/>
<path d="M40.6915 36.0627C38.9467 35.0538 36.1181 35.0538 34.3733 36.0627C32.6285 37.0717 32.6285 38.7074 34.3733 39.7164C36.1181 40.7253 38.9467 40.7253 40.6912 39.7164C42.436 38.7074 42.436 37.0715 40.6915 36.0627Z" fill="#FED416"/>
<path d="M40.6915 35.781C38.9467 34.7721 36.1181 34.7721 34.3733 35.781C33.6102 36.2222 33.0649 36.6009 33.0649 36.6009C33.0649 36.6009 33.0667 37.5035 33.0651 37.5758C33.0507 38.2476 33.4867 38.9219 34.3733 39.4348C36.1181 40.4438 38.9467 40.4438 40.6912 39.4348C41.5637 38.9303 42 38.2691 42 37.6079C42 37.5741 41.9952 36.6366 41.9952 36.6366C41.9952 36.6366 41.5194 36.2599 40.6915 35.781Z" fill="url(#paint1_linear_3520_45834)"/>
<path d="M40.6915 34.7741C38.9467 33.7652 36.1181 33.7652 34.3733 34.7741C32.6285 35.7831 32.6285 37.4188 34.3733 38.4278C36.1181 39.4366 38.9467 39.4366 40.6912 38.4278C42.436 37.4188 42.436 35.7829 40.6915 34.7741Z" fill="#FED416"/>
<path d="M40.6915 34.481C38.9467 33.4722 36.1181 33.4722 34.3733 34.481C33.6102 34.9222 33.0649 35.3009 33.0649 35.3009C33.0649 35.3009 33.0667 36.2036 33.0651 36.2757C33.0507 36.9475 33.4867 37.6219 34.3733 38.1346C36.1181 39.1437 38.9467 39.1437 40.6912 38.1346C41.5637 37.6302 42 36.9689 42 36.3077C42 36.274 41.9952 35.3364 41.9952 35.3364C41.9952 35.3364 41.5194 34.9598 40.6915 34.481Z" fill="url(#paint2_linear_3520_45834)"/>
<path d="M40.6915 33.474C38.9467 32.4652 36.1181 32.4652 34.3733 33.474C32.6285 34.483 32.6285 36.1188 34.3733 37.1278C36.1181 38.1366 38.9467 38.1366 40.6912 37.1278C42.436 36.1189 42.436 34.4829 40.6915 33.474Z" fill="#FED416"/>
<path d="M40.6915 33.1582C38.9467 32.1494 36.1181 32.1494 34.3733 33.1582C33.6102 33.5994 33.0649 33.9781 33.0649 33.9781C33.0649 33.9781 33.0667 34.8809 33.0651 34.953C33.0507 35.6248 33.4867 36.2991 34.3733 36.812C36.1181 37.8209 38.9467 37.8209 40.6912 36.812C41.5637 36.3075 42 35.6463 42 34.9851C42 34.9513 41.9952 34.0138 41.9952 34.0138C41.9952 34.0138 41.5194 33.637 40.6915 33.1582Z" fill="url(#paint3_linear_3520_45834)"/>
<path d="M40.6915 32.1513C38.9467 31.1424 36.1181 31.1424 34.3733 32.1513C32.6285 33.1603 32.6285 34.796 34.3733 35.805C36.1181 36.8138 38.9467 36.8138 40.6912 35.805C42.436 34.796 42.436 33.1601 40.6915 32.1513Z" fill="#FED416"/>
<path d="M40.6915 31.8604C38.9467 30.8515 36.1181 30.8515 34.3733 31.8604C33.6102 32.3015 33.0649 32.6802 33.0649 32.6802C33.0649 32.6802 33.0667 33.583 33.0651 33.6551C33.0507 34.3269 33.4867 35.0012 34.3733 35.5141C36.1181 36.5231 38.9467 36.5231 40.6912 35.5141C41.5637 35.0096 42 34.3484 42 33.6872C42 33.6535 41.9952 32.7159 41.9952 32.7159C41.9952 32.7159 41.5194 32.3392 40.6915 31.8604Z" fill="url(#paint4_linear_3520_45834)"/>
<path d="M40.6915 30.8534C38.9467 29.8445 36.1181 29.8445 34.3733 30.8534C32.6285 31.8624 32.6285 33.4981 34.3733 34.5071C36.1181 35.516 38.9467 35.516 40.6912 34.5071C42.436 33.4981 42.436 31.8622 40.6915 30.8534Z" fill="#FED416"/>
<path d="M35.5922 42.5895C33.8474 41.5807 31.0188 41.5807 29.274 42.5895C28.5111 43.0307 27.9656 43.4094 27.9656 43.4094C27.9656 43.4094 27.9675 44.3121 27.9659 44.3842C27.9515 45.056 28.3874 45.7303 29.2739 46.2431C31.0187 47.2522 33.8475 47.2523 35.5919 46.2432C36.4644 45.7389 36.9007 45.0775 36.9007 44.4164C36.9007 44.3826 36.8959 43.445 36.8959 43.445C36.8959 43.445 36.42 43.0682 35.5922 42.5895Z" fill="url(#paint5_linear_3520_45834)"/>
<path d="M35.5922 41.5824C33.8474 40.5735 31.0188 40.5735 29.274 41.5824C27.5294 42.5914 27.5294 44.2271 29.274 45.2361C31.0188 46.245 33.8475 46.245 35.5919 45.2361C37.3366 44.2273 37.3366 42.5913 35.5922 41.5824Z" fill="#FED416"/>
<path d="M35.5922 41.3008C33.8474 40.2919 31.0188 40.2919 29.274 41.3008C28.5111 41.7419 27.9656 42.1206 27.9656 42.1206C27.9656 42.1206 27.9675 43.0234 27.9659 43.0955C27.9515 43.7673 28.3875 44.4416 29.274 44.9545C31.0188 45.9636 33.8475 45.9636 35.5919 44.9545C36.4644 44.4501 36.9007 43.7888 36.9007 43.1276C36.9007 43.0939 36.8959 42.1564 36.8959 42.1564C36.8959 42.1564 36.42 41.7796 35.5922 41.3008Z" fill="url(#paint6_linear_3520_45834)"/>
<path d="M35.5922 40.2938C33.8474 39.2849 31.0188 39.2849 29.274 40.2938C27.5294 41.3028 27.5294 42.9385 29.274 43.9475C31.0188 44.9562 33.8475 44.9562 35.5919 43.9475C37.3366 42.9385 37.3366 41.3026 35.5922 40.2938Z" fill="#FED416"/>
<path d="M35.5922 40.0009C33.8474 38.9919 31.0188 38.9919 29.274 40.0009C28.5111 40.442 27.9656 40.8207 27.9656 40.8207C27.9656 40.8207 27.9675 41.7234 27.9659 41.7956C27.9515 42.4674 28.3875 43.1417 29.274 43.6546C31.0188 44.6636 33.8475 44.6636 35.5919 43.6546C36.4644 43.1501 36.9007 42.4889 36.9007 41.8277C36.9007 41.794 36.8959 40.8564 36.8959 40.8564C36.8959 40.8564 36.42 40.4797 35.5922 40.0009Z" fill="url(#paint7_linear_3520_45834)"/>
<path d="M35.5922 38.9939C33.8474 37.9849 31.0188 37.9849 29.274 38.9939C27.5294 40.0028 27.5294 41.6386 29.274 42.6476C31.0188 43.6564 33.8475 43.6564 35.5919 42.6476C37.3366 41.6386 37.3366 40.0026 35.5922 38.9939Z" fill="#FED416"/>
</g>
<defs>
<linearGradient id="paint0_linear_3520_45834" x1="18.2663" y1="21.6828" x2="4.41084" y2="24.7328" gradientUnits="userSpaceOnUse">
<stop stop-color="#F5C314"/>
<stop offset="1" stop-color="#EBB90A"/>
</linearGradient>
<linearGradient id="paint1_linear_3520_45834" x1="18.2663" y1="21.6833" x2="4.41087" y2="24.7334" gradientUnits="userSpaceOnUse">
<stop stop-color="#F5C314"/>
<stop offset="1" stop-color="#EBB90A"/>
</linearGradient>
<linearGradient id="paint2_linear_3520_45834" x1="18.2663" y1="21.6842" x2="4.4111" y2="24.7335" gradientUnits="userSpaceOnUse">
<stop stop-color="#F5C314"/>
<stop offset="1" stop-color="#EBB90A"/>
</linearGradient>
<linearGradient id="paint3_linear_3520_45834" x1="18.2663" y1="21.6828" x2="4.41084" y2="24.7328" gradientUnits="userSpaceOnUse">
<stop stop-color="#F5C314"/>
<stop offset="1" stop-color="#EBB90A"/>
</linearGradient>
<linearGradient id="paint4_linear_3520_45834" x1="18.2663" y1="21.6828" x2="4.41084" y2="24.7328" gradientUnits="userSpaceOnUse">
<stop stop-color="#F5C314"/>
<stop offset="1" stop-color="#EBB90A"/>
</linearGradient>
<linearGradient id="paint5_linear_3520_45834" x1="18.2651" y1="21.6824" x2="4.4095" y2="24.7325" gradientUnits="userSpaceOnUse">
<stop stop-color="#F5C314"/>
<stop offset="1" stop-color="#EBB90A"/>
</linearGradient>
<linearGradient id="paint6_linear_3520_45834" x1="18.2651" y1="21.6824" x2="4.4095" y2="24.7325" gradientUnits="userSpaceOnUse">
<stop stop-color="#F5C314"/>
<stop offset="1" stop-color="#EBB90A"/>
</linearGradient>
<linearGradient id="paint7_linear_3520_45834" x1="18.2651" y1="21.6833" x2="4.4095" y2="24.7335" gradientUnits="userSpaceOnUse">
<stop stop-color="#F5C314"/>
<stop offset="1" stop-color="#EBB90A"/>
</linearGradient>
</defs>
</svg>
