<svg width="120" height="120" viewBox="0 0 120 120" fill="none" xmlns="http://www.w3.org/2000/svg">
<g id="Scooter">
<path id="Vector" d="M81.1788 61.8733C81.1788 53.5768 86.2225 43.939 92.4453 40.3465C95.2093 38.7507 97.7389 38.6198 99.6991 39.6919V39.69C99.6991 39.69 105.65 43.0592 105.916 43.2432L105.96 43.2679L105.959 43.2716C108.098 44.7694 109.431 47.8447 109.431 52.1074C109.431 60.403 104.387 70.0407 98.1646 73.6333C95.4748 75.1869 93.0065 75.3517 91.0702 74.3712L91.0693 74.3739L91.0217 74.3474C90.8935 74.2806 85.3344 71.1256 85.3344 71.1256L85.3362 71.1211C82.8002 69.832 81.1788 66.5745 81.1788 61.8733Z" fill="#2E373D"/>
<path id="Vector_2" d="M18.1941 21.5845L35.6533 31.6013C42.072 35.2836 46.0299 42.1171 46.0299 49.5164V58.2744L55.0094 53.0513L50.7155 50.6132V44.2723L49.4668 43.5508C47.1743 42.411 45.6637 40.059 45.6637 37.4195C45.6637 34.8368 47.0415 32.451 49.2772 31.1601L74.4836 16.6068C77.0287 15.1374 79.9163 14.3638 82.8561 14.3638C86.2875 14.3638 89.5376 15.412 92.2476 17.2495L103.304 23.6335C106.641 25.2695 109.393 27.996 111.041 31.4439L116.125 34.3305C118.523 35.7148 120 38.2728 120 41.0423V51.1103C120 54.0995 118.405 56.8626 115.816 58.3568L90.2783 73.1013L87.3724 71.4516L65.3933 86.035C59.0853 91.1162 50.3054 91.8074 43.2796 87.7764L19.0273 73.864V73.8622C13.7987 70.8601 10.0597 65.2672 10.0597 58.3769V26.2959C10.0597 22.121 14.5732 19.5072 18.1941 21.5845Z" fill="#63DBFF"/>
<path id="Vector_3" d="M50.7155 44.2723L55.0643 46.7836C56.2261 48.2036 56.9091 50.0108 56.9091 51.9462L55.0094 53.0513L50.7155 50.6132V44.2723Z" fill="#2EB3BD"/>
<path id="Vector_4" d="M4.91256 104.061C4.91256 95.7643 9.9562 86.1266 16.1781 82.534C18.9439 80.9374 21.4754 80.8064 23.4364 81.8794L28.8079 84.9492C29.1063 85.0856 29.392 85.2486 29.6648 85.4381L29.6941 85.4546L29.6932 85.4573C31.8318 86.957 33.1649 90.0313 33.1649 94.294C33.1649 102.591 28.1212 112.228 21.8984 115.821C19.2085 117.374 16.7403 117.54 14.803 116.562H14.8021C14.6336 116.475 14.467 116.383 14.3068 116.28L9.06814 113.313V113.312C6.53213 112.021 4.91256 108.762 4.91256 104.061Z" fill="#23292E"/>
<path id="Vector_5" d="M10.6319 107.304C10.6319 115.6 15.6764 119.413 21.8984 115.821C28.1212 112.228 33.1649 102.591 33.1649 94.294C33.1649 85.9975 28.1212 82.1843 21.8984 85.7769C15.6764 89.3694 10.6319 99.0072 10.6319 107.304Z" fill="#2E373D"/>
<path id="Vector_6" d="M16.3594 103.997C16.3594 108.076 18.8396 109.951 21.8984 108.184C24.9581 106.418 27.4382 101.68 27.4382 97.6009C27.4382 93.5213 24.9581 91.6472 21.8984 93.4133C18.8396 95.1793 16.3594 99.9181 16.3594 103.997Z" fill="#CECECE"/>
<path id="Vector_7" d="M18.8945 102.534C18.8945 104.746 20.2394 105.763 21.8983 104.805C23.5582 103.847 24.9031 101.277 24.9031 99.0649C24.9031 96.852 23.5582 95.8349 21.8983 96.7934C20.2394 97.7511 18.8945 100.321 18.8945 102.534Z" fill="#2E373D"/>
<path id="Vector_8" d="M10.6319 107.304C10.6319 115.6 15.6764 119.413 21.8984 115.821C28.1212 112.228 33.1649 102.591 33.1649 94.294C33.1649 85.9975 28.1212 82.1843 21.8984 85.7769C15.6764 89.3694 10.6319 99.0072 10.6319 107.304Z" fill="#2E373D"/>
<path id="Vector_9" d="M16.3594 103.997C16.3594 108.076 18.8396 109.951 21.8984 108.184C24.9581 106.418 27.4382 101.68 27.4382 97.6009C27.4382 93.5213 24.9581 91.6472 21.8984 93.4133C18.8396 95.1793 16.3594 99.9181 16.3594 103.997Z" fill="#CECECE"/>
<path id="Vector_10" d="M18.8945 102.534C18.8945 104.746 20.2394 105.763 21.8983 104.805C23.5582 103.847 24.9031 101.277 24.9031 99.0649C24.9031 96.852 23.5582 95.8349 21.8983 96.7934C20.2394 97.7511 18.8945 100.321 18.8945 102.534Z" fill="#2E373D"/>
<path id="Vector_11" d="M54.4518 60.4643C55.9991 59.3043 56.9091 57.4834 56.9091 55.5498V51.9462C56.9091 50.0071 56.2133 48.2054 55.0469 46.7845L55.0533 46.7772L61.722 50.6279C62.3666 51.071 63.0926 51.4107 63.8827 51.6157C67.4798 52.5468 69.992 55.7915 69.992 59.5067V63.4727C69.992 65.1051 68.9858 66.5681 67.4624 67.1523L46.0299 73.4502V67.3152L54.4518 60.4643Z" fill="#23868E"/>
<path id="Vector_12" d="M67.4624 67.1522C68.9858 66.5681 69.992 65.1051 69.992 63.4727V59.5066C69.992 55.7914 67.4789 52.5468 63.8827 51.6157C60.8578 50.8329 58.7456 48.1037 58.7456 44.98C58.7456 42.3972 60.1235 40.0114 62.3592 38.7205L87.5656 24.1682C90.1107 22.6978 92.9983 21.9242 95.9381 21.9242C102.437 21.9242 108.285 25.676 111.042 31.4439L107.025 29.1633C104.627 27.779 101.673 27.779 99.2752 29.1633L94.4558 31.9456C90.0137 34.5109 86.4093 38.3067 84.0783 42.8752C82.1722 46.6123 81.1779 50.7478 81.1779 54.9437V65.7158L69.992 72.1519L46.0326 79.3544L46.029 73.4501L67.4624 67.1522Z" fill="#2EB3BD"/>
<path id="Vector_13" d="M65.494 10.5415L77.8765 3.39212C78.9459 2.77505 80.2624 2.77505 81.3317 3.39212L93.7143 10.5415C94.1949 10.8198 94.4357 11.306 94.4357 11.7921V20.1481C94.4357 20.6343 94.1949 21.1204 93.7143 21.3978L81.3317 28.5472C80.2624 29.1643 78.9459 29.1652 77.8765 28.5472L65.494 21.3978C65.0225 21.1259 64.789 20.6526 64.779 20.1765H64.7735V20.1545C64.7735 20.15 64.7735 20.1454 64.7735 20.1399V11.8223C64.7634 11.3261 65.0024 10.8253 65.494 10.5415Z" fill="#2E373D"/>
<path id="Vector_14" d="M93.7142 13.0427L81.3317 20.193C80.2624 20.8101 78.9459 20.8101 77.8765 20.193L65.494 13.0427C64.5309 12.487 64.5309 11.0981 65.494 10.5424L77.8765 3.39304C78.9459 2.77597 80.2624 2.77597 81.3317 3.39304L93.7142 10.5415C94.6765 11.0981 94.6765 12.487 93.7142 13.0427Z" fill="#627681"/>
<path id="Vector_15" d="M90.2783 73.1014V60.11C90.2783 55.9151 91.2716 51.7787 93.1787 48.0415C95.5096 43.473 99.114 39.6773 103.555 37.1129L108.375 34.3297C110.773 32.9454 113.727 32.9454 116.125 34.3297C118.523 35.7148 120 38.2728 120 41.0423V51.1104C120 54.0996 118.405 56.8626 115.816 58.3568L90.2783 73.1014Z" fill="#2EB3BD"/>
<path id="Vector_16" d="M16.7393 100.857C16.7393 97.7977 17.4644 94.782 18.8542 92.0583C20.5534 88.7267 23.181 85.959 26.4192 84.0895L29.933 82.0616C31.6817 81.0518 33.835 81.0518 35.5837 82.0616C37.3314 83.0705 38.409 84.9355 38.409 86.9542V94.467C38.409 96.3878 36.9936 98.0156 35.0911 98.2821L16.7393 100.857Z" fill="#2EB3BD"/>
<path id="Vector_17" d="M5.40144 84.356C7.10066 81.0243 9.72823 78.2567 12.9665 76.3872L16.4803 74.3593C18.2289 73.3495 20.3832 73.3495 22.1309 74.3593L35.5828 82.0607C33.8341 81.0518 31.6808 81.0518 29.933 82.0616L26.4192 84.0895C23.181 85.959 20.5534 88.7267 18.8533 92.0583C17.4635 94.7829 16.7394 97.7978 16.7394 100.857L3.28657 93.1542C3.28657 90.0954 4.01167 87.0806 5.40144 84.356Z" fill="#63DBFF"/>
<path id="Vector_18" d="M10.5 24.1325C10.782 23.4806 11.1866 22.9038 11.6783 22.4232C12.1708 21.9425 12.7504 21.558 13.3821 21.2897C14.6446 20.7542 16.114 20.6855 17.5056 21.2495C17.7373 21.3438 17.9671 21.4555 18.1941 21.5845L35.6532 31.6013C38.0602 32.982 40.121 34.8057 41.7571 36.937C44.4835 40.4884 46.0298 44.8921 46.0298 49.5164V79.012C46.0298 83.3296 47.5011 87.1346 49.8833 90.1146C47.6018 89.7411 45.3633 88.972 43.2796 87.7764L19.0272 73.864V73.8622C13.7996 70.8592 10.0606 65.2663 10.0606 58.3769V26.2959C10.0596 25.5131 10.218 24.7852 10.5 24.1325Z" fill="#2EB3BD"/>
<path id="Vector_19" d="M45.996 27.7498C45.9978 27.845 46.0051 27.9393 46.0143 28.0345C45.9337 27.2517 46.1205 26.436 46.6112 25.7356L55.209 13.4767C56.3048 11.9139 58.4133 11.4497 60.064 12.4073L74.1631 20.5867C74.988 21.0655 75.3616 21.916 75.3066 22.74L75.3149 22.7382V29.6431L75.3066 29.644C75.2865 30.478 74.8342 31.2993 73.9553 31.6975L57.4493 39.16C54.938 40.2952 52.033 40.1497 49.648 38.7691L47.6915 37.6356C46.5682 36.9847 45.9768 35.8 46.0079 34.6016L45.9951 34.6034V27.7507L45.996 27.7498Z" fill="#2E373D"/>
<path id="Vector_20" d="M74.1622 20.5857L60.064 12.4064C58.4133 11.4487 56.3049 11.9138 55.209 13.4757L46.6112 25.7356C45.4668 27.367 45.9658 29.6302 47.6906 30.6291L49.6471 31.7625C52.0321 33.144 54.9371 33.2896 57.4483 32.1543L73.9544 24.6909C75.6683 23.9164 75.7882 21.5296 74.1622 20.5857Z" fill="#627681"/>
<path id="Vector_21" d="M31.1251 29.0031C29.4332 29.98 28.3913 31.7845 28.3913 33.7373V59.8097C28.3913 63.0196 26.6783 65.9868 23.8988 67.5917V76.704L31.1251 80.8037V29.0031Z" fill="#23868E"/>
<path id="Vector_22" d="M23.5317 57.0055V30.934C23.5317 28.9811 24.5735 27.1757 26.2654 26.1998L31.1251 29.0031C29.4332 29.98 28.3913 31.7845 28.3913 33.7373V59.8097C28.3913 63.0196 26.6783 65.9859 23.8988 67.5917V76.6573L19.0383 73.8997V64.7875C21.8187 63.1826 23.5317 60.2162 23.5317 57.0055Z" fill="#63DBFF"/>
<path id="Vector_23" d="M23.8988 67.5917L19.0382 64.7875V73.8997L23.8988 76.704V67.5917Z" fill="#EDEDED"/>
<path id="Vector_24" d="M1.30995 9.85388C1.30995 8.28467 2.26393 6.46368 3.44038 5.78436C3.95857 5.48498 4.42641 5.47125 4.79628 5.66809C4.85304 5.6983 4.91164 5.72393 4.96291 5.76422L13.6009 10.7392L10.8278 16.6224L2.24013 11.6621V11.6611C1.67891 11.4744 1.30995 10.828 1.30995 9.85388Z" fill="#2E373D"/>
<path id="Vector_25" d="M10.1311 14.9332C10.1311 16.5015 11.0841 17.2221 12.2606 16.5427C13.437 15.8643 14.3901 14.0424 14.3901 12.4741C14.3901 10.9058 13.437 10.1844 12.2606 10.8637C11.0841 11.543 10.1311 13.3649 10.1311 14.9332Z" fill="#2E373D"/>
<path id="Vector_26" d="M29.37 32.2404C29.37 26.4762 26.2947 21.1497 21.3023 18.2676L19.6626 17.2596C17.2832 15.8854 14.5723 16.2351 12.6378 17.667L10.8278 16.6224L10.8296 16.6196C8.57833 15.1786 11.7671 9.13886 13.8124 10.872V10.871L15.2361 11.6923C17.6238 13.0701 20.5644 13.0729 22.954 11.6978L22.9567 11.7005C24.7456 10.8582 26.92 10.8143 28.8765 11.9431C36.003 15.8158 37.173 24.2844 43.9855 28.1635C46.1773 29.3336 43.7465 34.9311 41.4293 34.1566V34.1575C40.4598 33.5972 39.4902 33.0378 38.5207 32.4775C36.1678 31.1198 33.2692 31.1244 30.9209 32.4894L28.4783 33.9094C29.0029 33.5569 29.37 32.9637 29.37 32.2404Z" fill="#63DBFF"/>
<path id="Vector_27" d="M40.4992 32.3494C40.4992 30.7811 41.4531 28.9592 42.6296 28.2798C43.1478 27.9805 43.6165 27.9667 43.9855 28.1636L43.9864 28.1645C44.0423 28.1947 52.6931 33.1788 52.6931 33.1788C53.2287 33.3848 53.5793 34.0202 53.5793 34.9696C53.5793 36.5379 52.6262 38.3598 51.4498 39.0391C50.8602 39.3788 50.3274 39.3678 49.9419 39.0748L41.4293 34.1585V34.1575C40.8681 33.9699 40.4992 33.3235 40.4992 32.3494Z" fill="#2E373D"/>
<path id="Vector_28" d="M49.3203 37.4287C49.3203 38.997 50.2733 39.7175 51.4498 39.0391C52.6262 38.3598 53.5793 36.5379 53.5793 34.9696C53.5793 33.4013 52.6262 32.6799 51.4498 33.3592C50.2733 34.0385 49.3203 35.8604 49.3203 37.4287Z" fill="#627681"/>
<path id="Vector_29" d="M42.6287 40.5507C48.0751 39.918 37.466 30.2006 36.4598 29.6028C35.5974 29.0901 35.0884 28.1526 33.9778 29.124C32.5881 30.3389 35.6926 32.2706 36.3115 32.8483C37.867 34.2994 40.9441 36.5974 41.4687 38.8139C41.1446 39.5939 41.7937 40.5507 42.6287 40.5507C42.3879 40.5507 43.0333 40.5507 42.6287 40.5507Z" fill="#2E373D"/>
<path id="Vector_30" d="M14.3892 19.8671C16.4702 19.8671 15.1894 17.8328 14.4313 17.2468C13.4965 16.5245 11.8019 16.1088 10.7005 15.6977C8.26064 14.7886 4.79811 13.3412 2.13575 13.9555C1.23212 14.1642 -0.725279 14.9241 0.279972 16.2324C0.944647 17.0985 2.74183 16.3606 3.7187 16.3954C5.44813 16.4567 7.36891 17.2084 8.98574 17.7714C10.5897 18.3299 12.7312 19.8671 14.3892 19.8671Z" fill="#2E373D"/>
<path id="Vector_31" d="M29.37 32.2404C29.37 33.794 27.6882 34.7654 26.3423 33.9881L11.5346 25.3776C10.6172 24.8475 10.0514 23.8688 10.0514 22.8095C10.0514 17.8767 15.3917 14.7941 19.6626 17.2596L21.3024 18.2676C26.2947 21.1497 29.37 26.4762 29.37 32.2404Z" fill="#CECECE"/>
<path id="Vector_32" d="M16.4693 18.6109C14.4496 18.6109 12.2707 20.2158 12.2707 22.8095C12.2707 23.075 12.4135 23.3231 12.6506 23.4595L27.1462 31.8888C27.0235 27.0676 24.3822 22.6081 20.1406 20.1581C18.9906 19.4504 17.8838 18.6109 16.4693 18.6109Z" fill="#EDEDED"/>
</g>
</svg>
