<svg width="120" height="120" viewBox="0 0 120 120" fill="none" xmlns="http://www.w3.org/2000/svg">
<path d="M29.8684 90.1611L29.8745 94.9106C29.8807 95.2474 30.101 95.5842 30.5357 95.8412L58.3072 111.974L58.2949 107.231L30.5296 91.0918C30.0888 90.8347 29.8684 90.4979 29.8684 90.1611Z" fill="#DBE6FA"/>
<path d="M58.2949 107.23L58.3072 111.974C59.1949 112.494 60.6399 112.488 61.5337 111.974L89.4828 95.8408C89.9297 95.5776 90.1562 95.2408 90.1562 94.8979L90.144 90.1484C90.144 90.4913 89.9236 90.8342 89.4705 91.0913L61.5215 107.23C60.6276 107.744 59.1827 107.744 58.2949 107.23Z" fill="#BBCFEF"/>
<path d="M29.8684 87.0732L29.8745 91.8227C29.8807 92.1595 30.101 92.4963 30.5357 92.7534L58.3072 108.886L58.2949 104.143L30.5296 88.0039C30.0888 87.7468 29.8684 87.41 29.8684 87.0732Z" fill="#CCD1DB"/>
<path d="M58.2949 104.142L58.3072 108.886C59.1949 109.406 60.6399 109.4 61.5337 108.886L89.4828 92.7529C89.9297 92.4897 90.1562 92.1529 90.1562 91.81L90.144 87.0605C90.144 87.4034 89.9236 87.7463 89.4705 88.0034L61.5215 104.142C60.6276 104.656 59.1827 104.656 58.2949 104.142Z" fill="#B0B6C4"/>
<path d="M30.5387 86.1346C29.6475 86.6491 29.6427 87.4887 30.5282 88.0033L58.2957 104.14C59.1851 104.657 60.6307 104.655 61.5219 104.14L89.4711 88.0035C90.3663 87.4867 90.3709 86.6517 89.4816 86.1349L61.714 69.9981C60.8286 69.4835 59.3831 69.4813 58.488 69.9981L30.5387 86.1346Z" fill="#EBEEF4"/>
<path d="M84.8109 86.5614C85.2964 86.8417 85.299 87.2958 84.8167 87.5761L60.963 101.438C60.4807 101.719 59.6968 101.719 59.2113 101.438L35.2017 87.5763C34.7162 87.296 34.7137 86.842 35.196 86.5617L59.0496 72.6995C59.532 72.4192 60.3158 72.4192 60.8013 72.6995L84.8109 86.5614Z" fill="#2ADC03"/>
<path d="M84.819 87.58L84.0992 87.9928L60.9657 101.439C60.4786 101.714 59.6951 101.714 59.2082 101.439L35.9264 87.9928L35.2066 87.58C34.7195 87.2941 34.709 86.8388 35.196 86.5636L59.0494 72.7046C59.5364 72.4188 60.3199 72.4188 60.7963 72.7046L84.8084 86.5636C85.2956 86.8388 85.2956 87.2941 84.819 87.58Z" fill="#B0B6C4"/>
<path d="M84.099 87.9932L60.9655 101.439C60.4784 101.715 59.695 101.715 59.208 101.439L35.9263 87.9932L59.0493 74.5473C59.5363 74.272 60.3197 74.272 60.7961 74.5473L84.099 87.9932Z" fill="#EBF2FF"/>
<path d="M64.0887 85.6259C66.35 86.9315 66.362 89.0551 64.1152 90.3608C61.863 91.6696 58.2023 91.6664 55.9409 90.3608C53.674 89.052 53.6621 86.9348 55.9143 85.626C58.161 84.3203 61.8217 84.3171 64.0887 85.6259Z" fill="#CBDBF4"/>
<path d="M64.1804 31.439L64.1261 68.9553L64.1151 80.5954L64.1042 86.9335C64.1042 87.5226 63.7223 88.1117 62.9478 88.5699C61.377 89.4754 58.846 89.4754 57.2751 88.5699C56.4788 88.1117 56.0859 87.5117 56.0859 86.9117L56.0969 80.6935V80.6826L56.1078 69.0208L56.1515 31.4062C56.1515 32.0062 56.555 32.6063 57.3404 33.0645C58.9115 33.9699 61.4531 33.9699 63.0133 33.0645C63.7878 32.6171 64.1804 32.0281 64.1804 31.439Z" fill="#804F59"/>
<path d="M59.9598 19.2876L59.9292 11.3975L92.3434 30.1118L81.5337 31.7433L59.9598 19.2876Z" fill="#2ADC03"/>
<path d="M38.526 31.7435L27.7256 30.1121L59.9291 11.3975L59.9597 19.2876L38.526 31.7435Z" fill="#21B500"/>
<path d="M64.1261 68.9561L64.1151 80.5961L60.0352 82.9634L60.0676 71.3125L64.1261 68.9561Z" fill="#613941"/>
<path d="M60.0675 71.3124L60.035 82.9633L56.0967 80.6942V80.6832L56.1076 69.0215L60.0675 71.3124Z" fill="#613941"/>
<path d="M81.4973 55.8857L81.4642 67.5386L60.0305 79.9945L60.0636 68.3416L81.4973 55.8857Z" fill="#22B700"/>
<path d="M60.0637 68.3414L60.0307 79.9943L38.4568 67.5386L38.4898 55.8857L60.0637 68.3414Z" fill="#198500"/>
<path d="M81.5666 20.0898L81.5336 31.7427L60.0999 44.1986L60.1329 32.5458L81.5666 20.0898Z" fill="#21B500"/>
<path d="M60.1331 32.5455L60.1 44.1984L38.5261 31.7427L38.5592 20.0898L60.1331 32.5455Z" fill="#22B700"/>
<path d="M81.5697 20.085L60.1334 32.5432L38.5552 20.085L41.5333 18.3504L45.995 18.765L44.4241 16.6705L59.9914 7.6377L68.0425 12.2741V14.4013L71.2169 14.1068L81.5697 20.085Z" fill="#2ADC03"/>
<path d="M60.1444 48.8303L60.0898 74.9358L27.679 56.2267L27.6899 52.3322L30.1226 53.0194L27.6899 49.5176L27.7008 44.1503L27.7224 44.1613C28.9868 44.0241 31.6036 43.7402 31.4425 43.7576L27.7117 38.3903L27.7224 30.1104L60.1444 48.8303Z" fill="#22B700"/>
<path d="M92.3153 43.2776L90.4827 45.9285L92.3153 46.1249L92.2935 56.2267L60.0898 74.9358L60.1444 48.8303L92.3481 30.1104L92.3153 43.2776Z" fill="#2AE600"/>
<path d="M81.5336 31.7428L92.3432 30.1113L60.1397 48.826L60.0999 44.1987L81.5336 31.7428Z" fill="#1C9900"/>
<path d="M60.0999 44.1984L60.1398 48.8257L27.7256 30.1113L38.526 31.7427L60.0999 44.1984Z" fill="#2ADC03"/>
<path d="M68.0426 12.2852V14.4015L66.3298 14.5652L68.0426 12.2852Z" fill="white"/>
<path d="M68.0426 12.2852V14.4015L66.3298 14.5652L68.0426 12.2852Z" fill="#21B500"/>
<path d="M44.4187 16.6689V18.6214L45.9909 18.7652L44.4187 16.6689Z" fill="#21B500"/>
<path d="M92.3153 46.1251L89.8499 46.8233L90.4827 45.9287L92.3153 46.1251Z" fill="white"/>
<path d="M92.3153 46.1251L89.8499 46.8233L90.4827 45.9287L92.3153 46.1251Z" fill="#22B700"/>
<path d="M27.6519 52.3206L30.1236 53.0175L29.4982 52.1182L27.6519 52.3206Z" fill="#189453"/>
<path d="M32.6968 45.5687L27.7334 44.1614L31.4424 43.7578L32.6968 45.5687Z" fill="white"/>
<path d="M32.6968 45.5687L27.7334 44.1614L31.4424 43.7578L32.6968 45.5687Z" fill="#189453"/>
<path d="M60.7659 19.0568C61.4385 19.4452 61.4418 20.0749 60.7736 20.4633C60.1053 20.8516 59.0183 20.8516 58.3457 20.4633C57.673 20.0749 57.6695 19.4453 58.3378 19.057C59.006 18.6686 60.0932 18.6685 60.7659 19.0568Z" fill="#21B500"/>
<path d="M50.7185 20.381C51.3911 20.7694 51.3945 21.3991 50.7262 21.7875C50.0579 22.1758 48.9709 22.1759 48.2983 21.7875C47.6257 21.3992 47.6221 20.7695 48.2904 20.3812C48.9587 19.9928 50.0459 19.9927 50.7185 20.381Z" fill="#21B500"/>
<path d="M61.8327 11.2551C62.5799 11.6864 62.5836 12.3859 61.8413 12.8173C61.099 13.2487 59.8916 13.2487 59.1445 12.8173C58.3973 12.386 58.3934 11.6866 59.1357 11.2552C59.878 10.8239 61.0856 10.8237 61.8327 11.2551Z" fill="#21B500"/>
<path d="M72.8505 18.147C73.8443 18.7208 73.8492 19.6512 72.8619 20.2249C71.8746 20.7987 70.2686 20.7987 69.2749 20.2249C68.2811 19.6512 68.2759 18.721 69.2632 18.1472C70.2505 17.5735 71.8567 17.5733 72.8505 18.147Z" fill="#21B500"/>
<path d="M63.1694 24.4603C64.2238 25.069 64.229 26.0561 63.1815 26.6649C62.134 27.2736 60.4302 27.2736 59.3759 26.6649C58.3216 26.0562 58.3161 25.0693 59.3635 24.4605C60.411 23.8518 62.1151 23.8516 63.1694 24.4603Z" fill="#21B500"/>
</svg>
