<svg width="91" height="105" viewBox="0 0 91 105" fill="none" xmlns="http://www.w3.org/2000/svg">
<path d="M16.6102 80.8931L16.6168 86.0087C16.6234 86.3714 16.8607 86.7342 17.329 87.0111L47.2415 104.388L47.2283 99.2784L17.3224 81.8954C16.8476 81.6185 16.6102 81.2558 16.6102 80.8931Z" fill="#DBE6FA"/>
<path d="M47.2283 99.2785L47.2415 104.388C48.1976 104.948 49.754 104.941 50.7168 104.388L80.8205 87.0111C81.3019 86.7276 81.5459 86.3649 81.5459 85.9955L81.5327 80.8799C81.5327 81.2492 81.2953 81.6185 80.8073 81.8955L50.7036 99.2785C49.7408 99.8324 48.1844 99.8324 47.2283 99.2785Z" fill="#BBCFEF"/>
<path d="M16.6102 77.5669L16.6168 82.6825C16.6234 83.0453 16.8607 83.408 17.329 83.6849L47.2415 101.061L47.2283 95.9523L17.3224 78.5693C16.8476 78.2924 16.6102 77.9296 16.6102 77.5669Z" fill="#A46EF2"/>
<path d="M47.2283 95.9523L47.2415 101.061C48.1976 101.622 49.754 101.615 50.7168 101.061L80.8205 83.6849C81.3019 83.4014 81.5459 83.0387 81.5459 82.6694L81.5327 77.5537C81.5327 77.923 81.2953 78.2924 80.8073 78.5693L50.7036 95.9523C49.7408 96.5062 48.1844 96.5062 47.2283 95.9523Z" fill="#9156E5"/>
<path d="M17.3322 76.5564C16.3723 77.1106 16.3671 78.0149 17.3209 78.5691L47.2291 95.9499C48.187 96.5066 49.7441 96.5042 50.704 95.9499L80.8079 78.5694C81.7721 78.0127 81.7771 77.1133 80.8192 76.5567L50.9109 59.1759C49.9572 58.6216 48.4003 58.6192 47.4362 59.1759L17.3322 76.5564Z" fill="white"/>
<path d="M75.7885 77.0164C76.3114 77.3183 76.3142 77.8074 75.7947 78.1093L50.1021 93.0402C49.5826 93.3421 48.7383 93.3421 48.2154 93.0402L22.3548 78.1095C21.8318 77.8076 21.8291 77.3186 22.3486 77.0167L48.0412 62.0858C48.5607 61.7839 49.405 61.7839 49.9279 62.0858L75.7885 77.0164Z" fill="#2ADC03"/>
<path d="M75.7971 78.1132L75.0217 78.5579L50.1048 93.0405C49.5802 93.337 48.7363 93.337 48.2118 93.0405L23.1352 78.5579L22.3598 78.1132C21.8352 77.8052 21.8239 77.3149 22.3484 77.0184L48.0408 62.091C48.5654 61.7831 49.4092 61.7831 49.9223 62.091L75.7857 77.0184C76.3104 77.3149 76.3104 77.8052 75.7971 78.1132Z" fill="#9156E5"/>
<path d="M75.0217 78.558L50.1048 93.0406C49.5801 93.3371 48.7363 93.3371 48.2118 93.0406L23.1352 78.558L48.0408 64.0754C48.5653 63.7789 49.4092 63.7789 49.9223 64.0754L75.0217 78.558Z" fill="#FFCA6C"/>
<path d="M50.297 72.1153C47.6918 72.1153 46.0938 69.161 47.6123 66.975L72.3335 31.3846C73.3637 29.9006 75.3996 29.5315 76.8889 30.5638C78.373 31.595 78.7405 33.6341 77.7093 35.1186L52.988 70.709C52.352 71.6241 51.3335 72.1153 50.297 72.1153Z" fill="#804F59"/>
<path d="M55.7795 55.2173L47.6123 66.9752C46.0914 69.1647 47.6972 72.1155 50.297 72.1155C51.3335 72.1155 52.352 71.6243 52.988 70.7092L55.7795 66.6905V55.2173Z" fill="#613941"/>
<path d="M90.9267 21.186C90.9267 30.7997 83.126 38.5826 73.5211 38.5826C68.0289 38.5826 63.1204 36.0354 59.9364 32.0467C57.5485 29.075 56.1245 25.2985 56.1245 21.186C56.1245 11.5723 63.9163 3.78931 73.5211 3.78931C77.1207 3.78931 80.4638 4.87718 83.2411 6.75216L83.2498 6.76101C87.8754 9.883 90.9267 15.1807 90.9267 21.186Z" fill="#21B500"/>
<path d="M87.0616 17.6306C87.0616 27.2354 79.2612 35.0183 69.6562 35.0183C66.0565 35.0183 62.7135 33.9216 59.9364 32.0467C57.5485 29.075 56.1245 25.2985 56.1245 21.186C56.1245 11.5723 63.9163 3.78931 73.5211 3.78931C77.1207 3.78931 80.4639 4.87718 83.2411 6.75216L83.2498 6.76101C85.6378 9.74152 87.0616 13.518 87.0616 17.6306Z" fill="#2ADC03"/>
<path d="M54.0831 81.7601C51.3339 83.3529 46.8722 83.3529 44.1121 81.7601C41.3521 80.1674 41.3412 77.582 44.0794 75.9892C46.8176 74.3965 51.2795 74.3965 54.0504 75.9892C56.7994 77.582 56.8213 80.1674 54.0831 81.7601Z" fill="#FFB63C"/>
<path d="M53.243 31.8358L53.1995 60.025L53.1777 78.3195C53.1777 80.4615 48.6931 81.4886 46.1304 79.9995C45.3122 79.5304 44.9085 78.9086 44.9085 78.2977C45.0117 15.5002 44.978 36.0121 44.9849 31.8032C44.9849 32.4249 45.3885 33.0358 46.2067 33.5158C47.8213 34.4431 50.4395 34.4431 52.054 33.5158C52.8503 33.0467 53.243 32.4358 53.243 31.8358Z" fill="#804F59"/>
<path d="M80.2104 37.2468C80.2104 37.2468 76.5163 38.7209 73.7128 38.5245L74.7777 17.0649C74.7777 17.0649 80.505 25.4213 80.2104 37.2468Z" fill="#21B500"/>
<path d="M53.243 31.8359L53.1995 60.025C50.6562 60.3737 47.808 60.4 44.9412 60.0359L44.9849 31.8032C44.9849 32.425 45.3885 33.0359 46.2067 33.5159C47.8213 34.4432 50.4395 34.4432 52.054 33.5159C52.8503 33.0468 53.243 32.4359 53.243 31.8359Z" fill="#613941"/>
<path d="M77.014 28.0068C77.014 46.1564 59.8755 59.6311 42.0286 55.0396C30.042 51.9213 21.1485 41.0095 21.1485 28.0068C21.1485 12.5705 33.6504 0.0795898 49.0758 0.0795898C54.8468 0.0795898 60.214 1.82502 64.6759 4.83594L64.6868 4.84686C72.1158 9.86501 77.014 18.3632 77.014 28.0068Z" fill="#21B500"/>
<path d="M70.8084 22.2973C70.8084 37.7158 58.2864 50.2097 42.8678 50.2097C37.0893 50.2097 31.7227 48.4492 27.2647 45.4393C23.4314 40.6689 21.1454 34.6066 21.1454 28.0048C21.1454 12.572 33.6536 0.078125 49.0721 0.078125C54.8504 0.078125 60.2171 1.82448 64.6754 4.83436L64.6894 4.84857C68.5228 9.63313 70.8084 15.6954 70.8084 22.2973Z" fill="#2ADC03"/>
<path d="M48.3776 72.1122C47.6794 72.1122 46.9703 71.8941 46.3704 71.4249L32.0903 60.3304L21.6503 52.2249C20.2213 51.1122 19.9703 49.0613 21.0721 47.6322C22.1849 46.2031 24.2358 45.9413 25.665 47.054L36.3885 55.3777L50.3849 66.254C52.8397 68.1654 51.4835 72.1122 48.3776 72.1122Z" fill="#804F59"/>
<path d="M42.0286 55.0396C33.8147 52.9027 27.2718 47.1633 23.8976 40.0941L33.8468 36.7014C33.8468 36.7014 39.1375 43.4868 42.0286 55.0396Z" fill="#189453"/>
<path d="M36.3885 55.3779C35.2104 57.2433 33.7594 58.9125 32.0903 60.3306L21.6503 52.2252C20.2213 51.1124 19.9703 49.0615 21.0721 47.6324C22.1849 46.2033 24.2358 45.9415 25.665 47.0543L36.3885 55.3779Z" fill="#613941"/>
<path d="M35.361 43.8054C35.361 53.419 27.5603 61.202 17.9555 61.202C8.31148 61.202 0.558838 53.369 0.558838 43.8054C0.558838 34.1917 8.35067 26.4087 17.9555 26.4087C27.5425 26.4087 35.361 34.1785 35.361 43.8054Z" fill="#21B500"/>
<path d="M31.496 40.25C31.496 49.8548 23.6955 57.6377 14.0906 57.6377C10.4909 57.6377 7.14786 56.541 4.37076 54.6661C1.98286 51.6944 0.558838 47.9179 0.558838 43.8054C0.558838 34.1917 8.35067 26.4087 17.9555 26.4087C23.6654 26.4087 27.1382 29.1157 27.6842 29.3804C30.0722 32.3609 31.496 36.1374 31.496 40.25Z" fill="#2ADC03"/>
<path d="M80.2209 14.5469C81.0855 14.5469 81.7864 13.6844 81.7864 12.6204C81.7864 11.5564 81.0855 10.6938 80.2209 10.6938C79.3564 10.6938 78.6555 11.5564 78.6555 12.6204C78.6555 13.6844 79.3564 14.5469 80.2209 14.5469Z" fill="#21B500"/>
<path d="M64.9438 24.5842C66.2049 24.5842 67.2271 23.3261 67.2271 21.774C67.2271 20.222 66.2049 18.9639 64.9438 18.9639C63.6828 18.9639 62.6606 20.222 62.6606 21.774C62.6606 23.3261 63.6828 24.5842 64.9438 24.5842Z" fill="#21B500"/>
<path d="M52.1627 44.8337C53.4238 44.8337 54.446 43.5756 54.446 42.0236C54.446 40.4715 53.4238 39.2134 52.1627 39.2134C50.9017 39.2134 49.8795 40.4715 49.8795 42.0236C49.8795 43.5756 50.9017 44.8337 52.1627 44.8337Z" fill="#21B500"/>
<path d="M46.7868 27.3945C48.0478 27.3945 49.07 26.1364 49.07 24.5844C49.07 23.0323 48.0478 21.7742 46.7868 21.7742C45.5257 21.7742 44.5035 23.0323 44.5035 24.5844C44.5035 26.1364 45.5257 27.3945 46.7868 27.3945Z" fill="#21B500"/>
<path d="M58.8555 12.6204C60.1165 12.6204 61.1387 11.3622 61.1387 9.81018C61.1387 8.25816 60.1165 7 58.8555 7C57.5945 7 56.5722 8.25816 56.5722 9.81018C56.5722 11.3622 57.5945 12.6204 58.8555 12.6204Z" fill="#21B500"/>
<path d="M29.9093 26.4082C31.1703 26.4082 32.1926 25.15 32.1926 23.598C32.1926 22.046 31.1703 20.7878 29.9093 20.7878C28.6483 20.7878 27.626 22.046 27.626 23.598C27.626 25.15 28.6483 26.4082 29.9093 26.4082Z" fill="#21B500"/>
<path d="M41.6889 14.092C42.95 14.092 43.9722 12.8339 43.9722 11.2819C43.9722 9.72984 42.95 8.47168 41.6889 8.47168C40.4279 8.47168 39.4057 9.72984 39.4057 11.2819C39.4057 12.8339 40.4279 14.092 41.6889 14.092Z" fill="#21B500"/>
<path d="M12.7504 35.7935C14.0114 35.7935 15.0337 34.5353 15.0337 32.9833C15.0337 31.4313 14.0114 30.1731 12.7504 30.1731C11.4894 30.1731 10.4671 31.4313 10.4671 32.9833C10.4671 34.5353 11.4894 35.7935 12.7504 35.7935Z" fill="#21B500"/>
<path d="M24.5933 46.6152C25.8543 46.6152 26.8766 45.3571 26.8766 43.8051C26.8766 42.253 25.8543 40.9949 24.5933 40.9949C23.3323 40.9949 22.31 42.253 22.31 43.8051C22.31 45.3571 23.3323 46.6152 24.5933 46.6152Z" fill="#21B500"/>
<path d="M8.78275 52.4482C10.0438 52.4482 11.066 51.1901 11.066 49.6381C11.066 48.086 10.0438 46.8279 8.78275 46.8279C7.52174 46.8279 6.49948 48.086 6.49948 49.6381C6.49948 51.1901 7.52174 52.4482 8.78275 52.4482Z" fill="#21B500"/>
</svg>
