<svg width="69" height="106" viewBox="0 0 69 106" fill="none" xmlns="http://www.w3.org/2000/svg">
<path d="M8.2731 83.1523L8.27923 87.9018C8.28536 88.2386 8.50568 88.5754 8.94043 88.8325L36.7119 104.965L36.6996 100.222L8.9343 84.083C8.4935 83.8259 8.2731 83.4891 8.2731 83.1523Z" fill="#DBE6FA"/>
<path d="M36.6997 100.222L36.712 104.965C37.5997 105.486 39.0447 105.48 39.9385 104.965L67.8876 88.8325C68.3345 88.5693 68.561 88.2325 68.561 87.8896L68.5488 83.1401C68.5488 83.483 68.3284 83.8259 67.8753 84.083L39.9263 100.222C39.0324 100.736 37.5875 100.736 36.6997 100.222Z" fill="#BBCFEF"/>
<path d="M8.2731 80.0642L8.27923 84.8137C8.28536 85.1505 8.50568 85.4872 8.94043 85.7443L36.7119 101.877L36.6996 97.1336L8.9343 80.9948C8.4935 80.7377 8.2731 80.401 8.2731 80.0642Z" fill="#F04343"/>
<path d="M36.6997 97.1337L36.712 101.877C37.5997 102.397 39.0447 102.391 39.9385 101.877L67.8876 85.7444C68.3345 85.4811 68.561 85.1444 68.561 84.8015L68.5488 80.052C68.5488 80.3949 68.3284 80.7378 67.8753 80.9949L39.9263 97.1337C39.0324 97.6479 37.5875 97.6479 36.6997 97.1337Z" fill="#E22525"/>
<path d="M8.94353 79.126C8.05229 79.6406 8.04751 80.4802 8.93296 80.9947L36.7005 97.1315C37.5899 97.6483 39.0355 97.646 39.9267 97.1315L67.8759 80.995C68.7711 80.4782 68.7757 79.6431 67.8864 79.1263L40.1188 62.9896C39.2334 62.475 37.7879 62.4727 36.8927 62.9895L8.94353 79.126Z" fill="#FF6161"/>
<path d="M63.2157 79.5531C63.7012 79.8334 63.7038 80.2875 63.2215 80.5678L39.3679 94.43C38.8855 94.7103 38.1017 94.7103 37.6162 94.43L13.6066 80.568C13.1211 80.2877 13.1185 79.8337 13.6009 79.5534L37.4545 65.6912C37.9368 65.4109 38.7206 65.4109 39.2061 65.6912L63.2157 79.5531Z" fill="#2ADC03"/>
<path d="M63.2237 80.5714L62.5039 80.9843L39.3704 94.4303C38.8833 94.7056 38.0998 94.7056 37.6128 94.4303L14.3311 80.9843L13.6113 80.5714C13.1241 80.2855 13.1137 79.8303 13.6007 79.555L37.4541 65.6961C37.9411 65.4102 38.7246 65.4102 39.201 65.6961L63.2131 79.555C63.7003 79.8303 63.7003 80.2855 63.2237 80.5714Z" fill="#E22525"/>
<path d="M62.5038 80.9842L39.3704 94.4302C38.8833 94.7055 38.0998 94.7055 37.6128 94.4302L14.3311 80.9842L37.4541 67.5382C37.9411 67.263 38.7246 67.263 39.2009 67.5382L62.5038 80.9842Z" fill="#EBF2FF"/>
<path d="M42.1131 77.4906C44.6723 78.9682 44.6858 81.3716 42.1432 82.8492C39.5943 84.3304 35.4514 84.3268 32.8921 82.8492C30.3266 81.368 30.3131 78.972 32.862 77.4907C35.4047 76.0131 39.5475 76.0094 42.1131 77.4906Z" fill="#CBDBF4"/>
<path d="M41.5411 24.3982C41.4761 76.7658 41.5052 53.2594 41.4974 59.5691L41.4757 79.9037C41.4757 80.4928 41.083 81.0819 40.3085 81.5401C38.7484 82.4455 36.2067 82.4455 34.6357 81.5401C33.8501 81.0819 33.4576 80.4819 33.4576 79.8819L33.4794 59.5474C33.4882 52.4448 33.4568 77.7966 33.5229 24.3765C33.5229 26.4696 37.8841 27.476 40.3848 26.0346C40.9964 25.6778 41.5411 25.109 41.5411 24.3982Z" fill="#804F59"/>
<path d="M40.3636 41.8061C41.9329 42.7121 41.9412 44.1858 40.382 45.0918C38.8191 46.0001 36.2788 45.9979 34.7095 45.0919C33.1364 44.1836 33.1281 42.7144 34.691 41.8061C36.2501 40.9001 38.7905 40.8978 40.3636 41.8061Z" fill="#804F59"/>
<path d="M34.4154 60.1333L21.6862 67.4876C20.976 67.9074 20.0663 67.3909 20.0663 66.5559C20.0227 51.3939 20.0378 56.6233 20.0345 55.492C20.0345 53.7452 18.6054 52.3264 16.8583 52.3264H16.848C15.1009 52.337 13.6821 53.7557 13.6821 55.5132C13.6886 57.7844 13.6654 49.7251 13.7139 66.5771C13.731 70.9148 17.2994 73.9989 21.1462 73.9989C22.4167 73.9989 23.698 73.6601 24.8624 72.9931L34.4154 67.4738V60.1333Z" fill="#804F59"/>
<path d="M20.0664 64.142C18.6303 65.3576 15.6797 65.4895 13.9257 64.4702C13.8516 64.4279 13.7774 64.3855 13.7139 64.3325L13.6821 53.9781C13.6821 52.2205 15.1008 50.8019 16.8479 50.7913H16.8584C18.6053 50.7913 20.0346 52.21 20.0346 53.9569L20.0664 64.142Z" fill="#613941"/>
<path d="M41.5411 24.9655L41.4974 59.5691C40.2102 59.7109 38.8903 59.7873 37.5594 59.7873C36.1739 59.7873 34.8103 59.7 33.4794 59.5473L33.5229 24.9546C34.0827 25.0945 37.9814 25.364 41.4103 24.9764C41.4539 24.9873 41.4974 24.9764 41.5411 24.9655Z" fill="#613941"/>
<path d="M62.207 17.231C62.1787 17.3444 54.6766 47.236 54.6361 47.351C53.9815 49.2273 52.3996 51.0164 49.9016 52.4674C43.0943 56.4165 32.0323 56.4165 25.1706 52.4674C22.8797 51.1364 21.3524 49.5328 20.5887 47.8419C20.5778 47.8419 20.5778 47.831 20.5778 47.831C20.4688 47.5801 20.3706 47.3183 20.2941 47.0674H20.2832C11.4365 11.2172 13.5303 19.702 13.2032 18.3765C14.2397 20.9182 16.476 23.3292 19.9016 25.3146C30.4738 31.4081 47.6794 30.7775 56.7742 24.3109C59.7525 22.2273 61.5633 19.7837 62.1961 17.231H62.207Z" fill="#28AF6E"/>
<path d="M56.7742 24.3108C56.747 24.42 52.088 43.0526 52.0506 43.1617C51.3633 45.1036 49.7378 46.9472 47.1524 48.4526C39.6845 52.7878 27.4224 52.4785 20.5887 47.8417C20.5778 47.8417 20.5778 47.8309 20.5778 47.8309C20.4688 47.5799 20.3706 47.3181 20.2941 47.0672H20.2832C11.4365 11.217 13.5303 19.7018 13.2032 18.3763C14.2397 20.9181 16.476 23.329 19.9016 25.3145C30.4738 31.408 47.6794 30.7773 56.7742 24.3108Z" fill="#22B700"/>
<path d="M55.2102 25.3145C45.4903 30.9545 29.6831 30.9545 19.9084 25.3145C10.1884 19.6963 10.0684 10.62 19.6138 4.96906L26.9558 5.64542L24.7084 2.6345C35.8873 -1.20656 51.6211 0.463206 59.0612 7.82724V7.83816H59.0721V10.6418L61.1338 10.4564C64.0902 15.4964 62.1267 21.2891 55.2102 25.3145Z" fill="#2ADC03"/>
<path d="M30.8066 37.9917C30.7792 38.1012 26.2407 56.2007 26.2021 56.3103C25.804 57.4515 24.8419 58.5396 23.3226 59.422C17.6995 62.6841 7.63567 61.3488 5.49491 56.6088C5.48827 56.6088 5.48827 56.6022 5.48827 56.6022C5.42202 56.4496 5.36224 56.2904 5.31576 56.1378H5.30911C-0.0757225 34.3163 1.20354 39.5004 1.00316 38.6884C3.90056 45.7939 19.6861 47.8552 27.5024 42.2977C29.3138 41.0304 30.4151 39.5443 30.8 37.9917H30.8066Z" fill="#28AF6E"/>
<path d="M27.5024 42.2977C27.4744 42.4105 24.6681 53.6506 24.6296 53.7626C22.7325 59.1228 11.2363 60.5045 5.49491 56.6089C5.48827 56.6089 5.48827 56.6023 5.48827 56.6023C5.42202 56.4497 5.36224 56.2905 5.31576 56.1379H5.30911C-0.0757225 34.3164 1.20354 39.5005 1.00316 38.6885C3.90056 45.794 19.6861 47.8553 27.5024 42.2977Z" fill="#22B700"/>
<path d="M26.552 42.9109C20.6394 46.3363 11.0284 46.3363 5.08299 42.9109C0.381111 40.1946 -0.63336 36.1582 2.06115 32.8854L5.3448 33.1799V30.3654L5.31204 30.3108C11.2465 27.0381 20.6284 27.0927 26.4865 30.4636C32.432 33.9 32.4648 39.4745 26.552 42.9109Z" fill="#2ADC03"/>
<path d="M59.0721 7.83813V10.6418L56.792 10.8491L59.0612 7.83813H59.0721Z" fill="white"/>
<path d="M59.0721 7.83813V10.6418L56.792 10.8491L59.0612 7.83813H59.0721Z" fill="#22B700"/>
<path d="M24.6859 2.61475V5.43711L26.9585 5.64497L24.6859 2.61475Z" fill="#22B700"/>
<path d="M7.61383 33.3873L5.34479 33.18V30.3655L7.61383 33.3873Z" fill="white"/>
<path d="M7.61383 33.3873L5.34479 33.18V30.3655L7.61383 33.3873Z" fill="#22B700"/>
<path d="M50.0463 6.14731C49.1083 6.70368 47.581 6.70368 46.6319 6.14731C45.6936 5.60185 45.6827 4.71822 46.621 4.17276C47.5701 3.62731 49.0974 3.62731 50.0355 4.17276C50.9846 4.71822 50.9955 5.60185 50.0463 6.14731Z" fill="#22B700"/>
<path d="M38.1261 7.40487C37.1881 7.96125 35.6608 7.96125 34.7117 7.40487C33.7734 6.85942 33.7625 5.97579 34.7008 5.43033C35.6499 4.88488 37.1772 4.88488 38.1153 5.43033C39.0644 5.97579 39.0753 6.85942 38.1261 7.40487Z" fill="#22B700"/>
<path d="M38.7382 17.4698C37.8002 18.0262 36.2729 18.0262 35.3238 17.4698C34.3855 16.9244 34.3746 16.0407 35.3129 15.4953C36.2619 14.9498 37.7892 14.9498 38.7274 15.4953C39.6765 16.0407 39.6874 16.9244 38.7382 17.4698Z" fill="#22B700"/>
<path d="M23.7013 34.577C22.6816 35.1818 21.0213 35.1818 19.9896 34.577C18.9696 33.9841 18.9577 33.0235 19.9777 32.4305C21.0094 31.8376 22.6697 31.8376 23.6896 32.4305C24.7213 33.0235 24.7332 33.9841 23.7013 34.577Z" fill="#22B700"/>
<path d="M12.0347 41.6568C11.0967 42.2132 9.5694 42.2132 8.62031 41.6568C7.68201 41.1114 7.67109 40.2277 8.60939 39.6823C9.55848 39.1368 11.0858 39.1368 12.0239 39.6823C12.973 40.2277 12.9839 41.1114 12.0347 41.6568Z" fill="#22B700"/>
<path d="M22.0921 40.8726C21.5234 41.21 20.5974 41.21 20.022 40.8726C19.4531 40.5419 19.4465 40.0062 20.0154 39.6755C20.5908 39.3448 21.5167 39.3448 22.0855 39.6755C22.6609 40.0062 22.6676 40.5419 22.0921 40.8726Z" fill="#22B700"/>
<path d="M11.568 34.1043C10.9993 34.4416 10.0733 34.4416 9.49788 34.1043C8.92901 33.7736 8.92239 33.2379 9.49126 32.9072C10.0667 32.5765 10.9926 32.5765 11.5614 32.9072C12.1368 33.2379 12.1435 33.7736 11.568 34.1043Z" fill="#22B700"/>
<path d="M24.8563 17.501C23.5739 18.2617 21.4858 18.2617 20.1882 17.501C18.9054 16.7553 18.8905 15.5472 20.1733 14.8015C21.4709 14.0558 23.5589 14.0558 24.8416 14.8015C26.1391 15.5472 26.154 16.7553 24.8563 17.501Z" fill="#22B700"/>
<path d="M48.6593 23.5498C47.3768 24.3105 45.2888 24.3105 43.9912 23.5498C42.7084 22.8041 42.6935 21.596 43.9763 20.8503C45.2738 20.1046 47.3619 20.1046 48.6445 20.8503C49.9421 21.596 49.957 22.8041 48.6593 23.5498Z" fill="#22B700"/>
<path d="M30.8066 37.991L30.076 54.4617C28.7937 54.0865 27.6966 53.7178 26.9439 53.3614L30.8066 37.991Z" fill="#189453"/>
</svg>
