<svg width="60" height="106" viewBox="0 0 60 106" fill="none" xmlns="http://www.w3.org/2000/svg">
<path d="M0.820068 84.0059L0.826032 88.6261C0.831993 88.9537 1.04632 89.2814 1.46924 89.5314L28.4852 105.225L28.4733 100.611L1.46328 84.9112C1.03447 84.6611 0.820068 84.3335 0.820068 84.0059Z" fill="#DBE6FA"/>
<path d="M28.4734 100.611L28.4853 105.226C29.3489 105.732 30.7545 105.726 31.6241 105.226L58.8128 89.5317C59.2476 89.2756 59.468 88.948 59.468 88.6144L59.456 83.9941C59.456 84.3277 59.2416 84.6613 58.8009 84.9114L31.6122 100.611C30.7426 101.111 29.337 101.111 28.4734 100.611Z" fill="#BBCFEF"/>
<path d="M0.820068 81.1353L0.826032 85.7555C0.831993 86.0831 1.04632 86.4107 1.46924 86.6609L28.4852 102.355L28.4733 97.7403L1.46328 82.0406C1.03447 81.7905 0.820068 81.4629 0.820068 81.1353Z" fill="#A46EF2"/>
<path d="M28.4734 97.7405L28.4853 102.355C29.3489 102.861 30.7545 102.855 31.6241 102.355L58.8128 86.6611C59.2476 86.405 59.468 86.0774 59.468 85.7438L59.456 81.1235C59.456 81.4571 59.2416 81.7907 58.8009 82.0408L31.6122 97.7405C30.7426 98.2408 29.337 98.2408 28.4734 97.7405Z" fill="#9156E5"/>
<path d="M1.47226 80.2227C0.60526 80.7232 0.600611 81.54 1.46198 82.0405L28.4741 97.7383C29.3393 98.2411 30.7456 98.2389 31.6126 97.7383L58.8015 82.0408C59.6723 81.538 59.6768 80.7257 58.8116 80.2229L31.7995 64.5252C30.9381 64.0246 29.532 64.0224 28.6611 64.5252L1.47226 80.2227Z" fill="#B785FF"/>
<path d="M54.2681 80.6381C54.7403 80.9108 54.7429 81.3525 54.2737 81.6251L31.069 95.1102C30.5998 95.3829 29.8372 95.3829 29.3649 95.1102L6.00846 81.6254C5.53618 81.3527 5.5337 80.911 6.0029 80.6383L29.2076 67.1532C29.6768 66.8806 30.4393 66.8806 30.9116 67.1532L54.2681 80.6381Z" fill="#21B500"/>
<path d="M54.2758 81.6289L53.5756 82.0306L31.0714 95.1108C30.5975 95.3786 29.8354 95.3786 29.3617 95.1108L6.7133 82.0306L6.01301 81.6289C5.53915 81.3508 5.52896 80.908 6.0027 80.6402L29.2073 67.1582C29.681 66.8802 30.4431 66.8802 30.9066 67.1582L54.2655 80.6402C54.7394 80.908 54.7394 81.3508 54.2758 81.6289Z" fill="#9156E5"/>
<path d="M53.5755 82.0305L31.0714 95.1108C30.5975 95.3786 29.8354 95.3786 29.3617 95.1108L6.71329 82.0305L29.2073 68.9504C29.681 68.6826 30.4431 68.6826 30.9066 68.9504L53.5755 82.0305Z" fill="#FFCA6C"/>
<path d="M33.6837 79.4134C36.2241 80.8801 36.2376 83.2658 33.7136 84.7325C31.1835 86.2029 27.071 86.1993 24.5306 84.7326C21.984 83.2623 21.9706 80.8838 24.5007 79.4135C27.0247 77.9467 31.1371 77.9431 33.6837 79.4134Z" fill="#FFA20D"/>
<path d="M33.3319 43.4834C33.3251 47.3789 33.3565 29.3737 33.2654 81.5759C33.2544 82.1956 32.8558 82.8043 32.048 83.2802C30.4101 84.232 27.7541 84.232 26.1162 83.2802C25.2862 82.8043 24.8766 82.1735 24.8766 81.5537L24.8877 75.7989L24.9541 43.4834C24.9541 45.6561 29.5453 46.6907 32.1144 45.1877C32.9223 44.7118 33.3319 44.1031 33.3319 43.4834Z" fill="#804F59"/>
<path d="M24.9002 70.3862L24.8877 76.3971L29.1929 78.8871L33.2766 76.5188L33.2871 70.3862H24.9002Z" fill="#613941"/>
<path d="M33.3338 18.0273L33.2609 56.1219C33.2591 56.7397 32.8539 57.3567 32.0442 57.8272C29.4696 59.3234 24.8696 58.2928 24.8758 56.098L24.9487 18.0034C24.947 18.6287 25.3602 19.2549 26.1877 19.7326C27.8281 20.6797 30.4835 20.682 32.1172 19.7326C32.9268 19.2621 33.3321 18.6452 33.3338 18.0273Z" fill="#613941"/>
<path d="M53.8945 61.7437L48.9365 64.6211L47.5531 65.418L45.6494 61.2679L46.4243 66.082L29.1819 76.0975C29.2958 1.049 29.2651 21.2593 29.2705 17.7082L49.7552 54.3399L53.8945 61.7437Z" fill="#21B500"/>
<path d="M29.2705 17.7082C29.2651 21.2593 29.2958 1.04895 29.1819 76.0975L13.9094 67.2772L13.6216 60.5484L7.94442 63.8353L4.3255 61.7437L8.51992 54.3399L29.2705 17.7082Z" fill="#2ADC03"/>
<path d="M29.2705 17.7085L8.51993 54.3402L29.193 66.2814L29.2705 17.7085Z" fill="#21B500"/>
<path d="M49.7552 54.3401L29.2705 17.7085L29.193 66.2814L49.7552 54.3401Z" fill="#2ADC03"/>
<path d="M55.7758 48.2753L29.193 63.7248L29.2813 0.875488L38.5113 17.3763V17.3874L38.5002 22.7438L40.6803 21.2719L51.7473 41.0597V44.9884L53.3412 43.915L55.7758 48.2753Z" fill="#21B500"/>
<path d="M29.2813 0.875488L29.193 63.7248L2.43311 48.2753L9.21703 36.2898L12.3158 38.3925V30.8227L29.2813 0.875488Z" fill="#2ADC03"/>
<path d="M38.5113 17.3872L38.5002 22.7436L36.5192 24.0938L38.4116 17.7081L38.5113 17.3872Z" fill="white"/>
<path d="M38.5113 17.3872L38.5002 22.7436L36.5192 24.0938L36.4862 24.1159L38.4116 17.7081L38.5113 17.3872Z" fill="#2ADC03"/>
<path d="M15.1269 40.2961L12.3158 38.3925V30.8228L15.1269 40.2961Z" fill="white"/>
<path d="M15.1601 40.3292L12.3158 38.3925V30.8228L15.1601 40.3292Z" fill="#21B500"/>
<path d="M51.7473 41.0708V44.9996L50.2864 45.9845L51.7033 41.1925L51.7473 41.0708Z" fill="white"/>
<path d="M51.7473 41.0708V44.9996L50.2864 45.9845L50.2645 45.9956L51.7033 41.1925L51.7473 41.0708Z" fill="#2ADC03"/>
<path d="M48.9365 64.6213L47.5532 65.4182L45.6494 61.2681L48.9365 64.6213Z" fill="white"/>
<path d="M48.9365 64.6213L47.5532 65.4182L45.6494 61.2681L48.9365 64.6213Z" fill="#2ADC03"/>
<path d="M13.6261 60.5474L11.2317 65.7198L7.96759 63.8217L13.6261 60.5474Z" fill="#21B500"/>
</svg>
