<svg width="117" height="186" viewBox="0 0 117 186" fill="none" xmlns="http://www.w3.org/2000/svg">
<rect x="53.5156" y="102.576" width="16.5086" height="77.8263" transform="rotate(-15 53.5156 102.576)" fill="#93642D"/>
<rect x="46.1113" y="74.7703" width="16.5086" height="77.8263" transform="rotate(-15 46.1113 74.7703)" fill="#714D22"/>
<path d="M96.6881 93.8025C101.958 113.47 90.2864 133.686 70.6189 138.956C50.9514 144.226 30.7357 132.554 25.4658 112.886C20.1959 93.219 25.5061 49.2625 45.1736 43.9926C64.8411 38.7227 91.4182 74.135 96.6881 93.8025Z" fill="#66A865"/>
<path fill-rule="evenodd" clip-rule="evenodd" d="M93.3707 85.742C94.3386 102.814 83.2632 118.803 66.0949 123.403C48.9282 128.003 31.3438 119.696 23.6451 104.43C23.9653 107.585 24.4641 110.476 25.1338 112.975C30.4037 132.643 50.6195 144.315 70.287 139.045C89.9545 133.775 101.626 113.559 96.3562 93.8915C95.6861 91.3909 94.6716 88.6357 93.3707 85.742Z" fill="#458244"/>
<path d="M78.6438 49.7684C82.9241 65.7428 73.1903 82.2305 56.9027 86.5947C40.6151 90.959 23.9415 81.5471 19.6612 65.5727C15.3808 49.5984 19.9478 13.8279 36.2354 9.46361C52.523 5.09936 74.3635 33.794 78.6438 49.7684Z" fill="#83C082"/>
</svg>
