<svg width="1440" height="574" viewBox="0 0 1440 574" fill="none" xmlns="http://www.w3.org/2000/svg">
<path d="M645.917 1.11523L359.842 573.019" stroke="#343839" stroke-width="0.55747" stroke-linecap="round" stroke-linejoin="round"/>
<path d="M424.056 1.11523L0.0020752 213.326" stroke="#343839" stroke-width="0.55747" stroke-linecap="round" stroke-linejoin="round"/>
<path d="M350.1 1.11523L0.0020752 141.29" stroke="#343839" stroke-width="0.55747" stroke-linecap="round" stroke-linejoin="round"/>
<path d="M276.151 1.11523L0.000244141 93.2583" stroke="#343839" stroke-width="0.55747" stroke-linecap="round" stroke-linejoin="round"/>
<path d="M498.013 1.11523L0.00109863 333.363" stroke="#343839" stroke-width="0.55747" stroke-linecap="round" stroke-linejoin="round"/>
<path d="M202.194 1.11523L0.000244141 58.9449" stroke="#343839" stroke-width="0.55747" stroke-linecap="round" stroke-linejoin="round"/>
<path d="M54.2821 1.11523L0.00012207 13.1923" stroke="#343839" stroke-width="0.55747" stroke-linecap="round" stroke-linejoin="round"/>
<path d="M128.238 1.11523L0.00012207 33.2076" stroke="#343839" stroke-width="0.55747" stroke-linecap="round" stroke-linejoin="round"/>
<path d="M1237.55 1.11523L1440 59.0497" stroke="#343839" stroke-width="0.55747" stroke-linecap="round" stroke-linejoin="round"/>
<path d="M719.873 1.11523L719.378 573.019" stroke="#343839" stroke-width="0.55747" stroke-linecap="round" stroke-linejoin="round"/>
<path d="M1311.51 1.11523L1440 33.2835" stroke="#343839" stroke-width="0.55747" stroke-linecap="round" stroke-linejoin="round"/>
<path d="M1385.46 1.11523L1440 13.2525" stroke="#343839" stroke-width="0.55747" stroke-linecap="round" stroke-linejoin="round"/>
<path d="M1163.6 1.11523L1440 93.3987" stroke="#343839" stroke-width="0.55747" stroke-linecap="round" stroke-linejoin="round"/>
<path d="M1089.64 1.11523L1440 141.484" stroke="#343839" stroke-width="0.55747" stroke-linecap="round" stroke-linejoin="round"/>
<path d="M941.736 1.11523L1440 333.916" stroke="#343839" stroke-width="0.55747" stroke-linecap="round" stroke-linejoin="round"/>
<path d="M1015.69 1.11523L1440 213.638" stroke="#343839" stroke-width="0.55747" stroke-linecap="round" stroke-linejoin="round"/>
<path d="M793.83 1.11523L1078.92 573.019" stroke="#343839" stroke-width="0.55747" stroke-linecap="round" stroke-linejoin="round"/>
<path d="M571.961 1.11523L0.306763 573.019" stroke="#343839" stroke-width="0.55747" stroke-linecap="round" stroke-linejoin="round"/>
<path d="M867.779 1.11523L1438.45 573.019" stroke="#343839" stroke-width="0.55747" stroke-linecap="round" stroke-linejoin="round"/>
<path d="M1440 79.1638H0.00231934" stroke="#343839" stroke-width="0.55747" stroke-linecap="round" stroke-linejoin="round"/>
<path d="M1440 26.8239H0.00231934" stroke="#343839" stroke-width="0.55747" stroke-linecap="round" stroke-linejoin="round"/>
<path d="M1440 37.4958H0.00231934" stroke="#343839" stroke-width="0.55747" stroke-linecap="round" stroke-linejoin="round"/>
<path d="M1440 49.5651H0.00231934" stroke="#343839" stroke-width="0.55747" stroke-linecap="round" stroke-linejoin="round"/>
<path d="M1440 8.79756H0.00231934" stroke="#343839" stroke-width="0.55747" stroke-linecap="round" stroke-linejoin="round"/>
<path d="M1440 17.319H0.00231934" stroke="#343839" stroke-width="0.55747" stroke-linecap="round" stroke-linejoin="round"/>
<path d="M1440 421.622H0.00231934" stroke="#343839" stroke-width="0.55747" stroke-linecap="round" stroke-linejoin="round"/>
<path d="M1440 97.5749H0.00231934" stroke="#343839" stroke-width="0.55747" stroke-linecap="round" stroke-linejoin="round"/>
<path d="M1440 63.3308H0.00231934" stroke="#343839" stroke-width="0.55747" stroke-linecap="round" stroke-linejoin="round"/>
<path d="M1440 1.11494H0.0020752" stroke="#343839" stroke-width="0.55747" stroke-linecap="round" stroke-linejoin="round"/>
<path d="M1440 119.246H0.00231934" stroke="#343839" stroke-width="0.55747" stroke-linecap="round" stroke-linejoin="round"/>
<path d="M1440 145.137H0.00231934" stroke="#343839" stroke-width="0.55747" stroke-linecap="round" stroke-linejoin="round"/>
<path d="M1440 331.121H0.00231934" stroke="#343839" stroke-width="0.55747" stroke-linecap="round" stroke-linejoin="round"/>
<path d="M1440 176.608H0.00231934" stroke="#343839" stroke-width="0.55747" stroke-linecap="round" stroke-linejoin="round"/>
<path d="M1440 215.677H0.00231934" stroke="#343839" stroke-width="0.55747" stroke-linecap="round" stroke-linejoin="round"/>
<path d="M1440 265.475H0.00231934" stroke="#343839" stroke-width="0.55747" stroke-linecap="round" stroke-linejoin="round"/>
</svg>
