<svg width="44" height="44" viewBox="0 0 44 44" fill="none" xmlns="http://www.w3.org/2000/svg">
<rect width="44" height="44" rx="22" fill="#112520"/>
<path d="M14.8748 29.8516C14.5078 29.754 14.2968 29.5257 14.1427 29.2048C13.5634 27.9986 12.9672 26.8005 12.3789 25.5986C10.7602 22.2915 9.14812 18.9812 7.51859 15.6794C7.21404 15.0624 7.48422 14.4564 7.94645 14.2259C8.49821 13.9506 9.09039 14.163 9.3831 14.7582C10.7476 17.5329 12.1085 20.3093 13.4701 23.0853C13.9715 24.1076 14.471 25.1308 14.9728 26.1528C15.0086 26.2257 15.0388 26.3062 15.168 26.3754C16.2562 24.1576 17.3431 21.9427 18.4299 19.7277C18.4585 19.723 18.4871 19.7182 18.5158 19.7135C19.5995 21.9179 20.6832 24.1222 21.7669 26.3266C21.7995 26.3307 21.832 26.3348 21.8646 26.3389C22.3739 25.3166 22.8832 24.2943 23.3933 23.2705C23.532 23.3349 23.5579 23.4375 23.6004 23.5231C23.8965 24.1184 24.1841 24.7181 24.4852 25.3109C24.5688 25.4754 24.5688 25.6112 24.4857 25.7777C23.9812 26.7893 23.4864 27.8057 22.9898 28.8212C22.9242 28.9554 22.8661 29.0933 22.806 29.2302C22.6247 29.6431 22.3026 29.8634 21.8584 29.8903C21.4362 29.9158 21.0344 29.6536 20.8598 29.2681C20.1463 27.6932 19.3371 26.1645 18.598 24.602C18.5709 24.5447 18.5503 24.4766 18.4654 24.4462C18.2677 24.7311 18.1389 25.0547 17.9871 25.3648C17.3404 26.686 16.7013 28.0109 16.0557 29.3326C15.8547 29.7441 15.3652 29.9592 14.8748 29.8516Z" fill="white"/>
<path d="M24.8668 19.0127C24.9715 19.1898 25.0011 19.3913 25.1652 19.5113C25.2792 19.4825 25.298 19.3815 25.3356 19.305C26.0822 17.7826 26.8282 16.2599 27.5683 14.7343C27.764 14.3309 28.0955 14.1244 28.5207 14.1213C28.9367 14.1184 29.2749 14.3166 29.4659 14.7072C30.4733 16.768 31.4771 18.8307 32.4853 20.8911C33.6725 23.3175 34.863 25.7423 36.0517 28.1679C36.1952 28.4606 36.3365 28.7535 36.2464 29.0963C36.1309 29.5358 35.8432 29.797 35.4054 29.8854C35.0019 29.967 34.5681 29.7803 34.3595 29.4075C34.1124 28.9655 33.8987 28.5047 33.6755 28.0497C32.2041 25.0499 30.7341 22.0494 29.2635 19.0492C29.0301 18.5729 28.7959 18.0969 28.5242 17.5436C27.3999 19.8347 26.3071 22.0616 25.2143 24.2886C25.1859 24.2887 25.1576 24.2888 25.1292 24.2889C24.0413 22.0741 22.9534 19.8594 21.8655 17.6446C21.8394 17.6436 21.8133 17.6426 21.7872 17.6416C21.28 18.6716 20.7727 19.7016 20.2706 20.7211C20.144 20.7224 20.1269 20.638 20.0959 20.5752C19.7761 19.9267 19.4618 19.2755 19.1373 18.6293C19.0737 18.5026 19.0851 18.4066 19.144 18.2816C19.7073 17.0863 20.3317 15.9207 20.8722 14.7142C21.0486 14.3206 21.3952 14.1259 21.8119 14.1182C22.22 14.1107 22.5738 14.2909 22.7508 14.6709C23.4279 16.1251 24.1638 17.5505 24.8668 19.0127Z" fill="white"/>
</svg>
