<svg width="536" height="290" viewBox="0 0 536 290" fill="none" xmlns="http://www.w3.org/2000/svg">
<g opacity="0.77" clip-path="url(#clip0_3373_34339)">
<rect width="536" height="290" fill="black"/>
<path d="M95.4994 174.751C93.5541 169.972 94.2002 163.236 96.9423 159.708C98.0585 158.271 99.3502 157.588 100.621 157.605L106.982 158.513C108.866 158.486 110.715 159.996 111.888 162.879C113.833 167.658 113.187 174.393 110.445 177.922C109.259 179.447 107.876 180.122 106.53 180.012C106.388 180 100.392 179.116 100.392 179.116C98.5129 179.137 96.6702 177.627 95.4994 174.751Z" fill="#23292E"/>
<path d="M33.7736 215.798C31.8283 211.019 32.4736 204.284 35.2158 200.755C36.3322 199.319 37.6237 198.635 38.894 198.652L45.2565 199.56C47.1404 199.533 48.9882 201.043 50.1614 203.926C52.107 208.706 51.4614 215.44 48.7186 218.969C47.4075 220.657 45.8545 221.303 44.3773 220.997L38.6661 220.164C36.4599 219.677 34.9444 218.675 33.7736 215.798Z" fill="#23292E"/>
<path d="M29.8276 206.86C29.487 202.767 30.6984 198.626 33.2074 195.372L38.3474 188.703L38.8392 186.725C38.8634 175.39 44.6522 165.692 51.3707 156.986C57.3246 150.083 66.4601 148.184 75.1295 148.922L91.136 150.074L91.1278 150.113C100.958 150.798 110.941 164.098 110.941 164.098L81.2452 203.282C81.2526 203.297 79.8964 205.062 79.8964 205.062L64.2668 213.278C64.3039 216.604 61.319 219.263 57.9302 218.796L36.4159 215.922C31.9178 215.302 30.163 210.881 29.8276 206.86Z" fill="#2DAD57"/>
<path d="M38.8739 216.261L36.4159 215.922C33.9827 215.586 31.9136 213.978 30.9874 211.703C28.769 206.252 29.6142 200.033 33.2074 195.372L38.3474 188.703L38.8739 216.261Z" fill="#238342"/>
<path d="M82.8942 153.298C82.8942 153.298 73.1585 162.396 73.6179 181.427L74.3111 191.877L58.2195 204.665C54.1213 207.922 52.6614 213.492 54.6349 218.34L79.8964 205.062L95.7942 184.279L110.941 164.098C110.941 164.099 94.3615 142.008 82.8942 153.298Z" fill="#045D32"/>
<path d="M91.1278 150.113C88.2893 149.916 85.4637 150.769 82.8942 153.298C82.8942 153.298 73.1585 162.396 73.6179 181.427L74.3111 191.877L38.8392 186.725C38.8628 175.191 44.3244 166.117 51.3707 156.986C57.3246 150.083 66.4601 148.184 75.1295 148.922L91.136 150.074L91.1278 150.113Z" fill="#238342"/>
<path d="M62.9409 204.001C64.057 202.564 65.3488 201.881 66.6191 201.898L72.9806 202.806C74.8646 202.778 76.713 204.288 77.8865 207.172C79.8318 211.951 79.1858 218.686 76.4434 222.214C75.1323 223.902 73.58 224.548 72.1031 224.243L66.3912 223.41C64.5115 223.43 62.6688 221.921 61.498 219.044C59.5524 214.264 60.1988 207.529 62.9409 204.001Z" fill="#23292E"/>
<path d="M67.9565 219.949C69.9021 224.729 73.7015 225.744 76.4443 222.215C79.1865 218.686 79.8318 211.951 77.8865 207.172C75.9412 202.392 72.1417 201.378 69.3993 204.906C66.6565 208.435 66.0112 215.17 67.9565 219.949Z" fill="#2E373D"/>
<path d="M70.4799 216.702C71.4364 219.052 73.305 219.551 74.653 217.816C76.0013 216.081 76.3189 212.769 75.3624 210.419C74.4059 208.07 72.5376 207.571 71.1893 209.306C69.8411 211.04 69.5234 214.352 70.4799 216.702Z" fill="#CECECE"/>
<path d="M71.5971 215.264C72.116 216.539 73.1297 216.809 73.8607 215.869C74.5921 214.928 74.7641 213.132 74.2452 211.857C73.7266 210.583 72.7134 210.312 71.9819 211.253C71.2511 212.194 71.0785 213.99 71.5971 215.264Z" fill="#627681"/>
<path d="M101.957 175.657C103.903 180.436 107.703 181.45 110.445 177.922C113.187 174.393 113.833 167.658 111.888 162.879C109.943 158.099 106.142 157.085 103.4 160.614C100.658 164.143 100.012 170.877 101.957 175.657Z" fill="#2E373D"/>
<path d="M104.481 172.409C105.438 174.759 107.306 175.258 108.654 173.522C110.003 171.788 110.32 168.476 109.364 166.126C108.407 163.776 106.539 163.278 105.191 165.013C103.843 166.748 103.525 170.059 104.481 172.409Z" fill="#CECECE"/>
<path d="M105.599 170.972C106.117 172.246 107.13 172.516 107.862 171.576C108.593 170.635 108.766 168.839 108.247 167.564C107.728 166.29 106.714 166.02 105.983 166.96C105.252 167.901 105.08 169.697 105.599 170.972Z" fill="#627681"/>
<path d="M71.9983 189.46L41.0024 185.021L41.3458 181.116C41.78 176.174 46.2828 172.616 51.1913 173.335L61.1619 174.797C66.9981 175.652 71.4383 180.478 71.8056 186.366L71.9983 189.46Z" fill="#304E75"/>
<path d="M54.6349 218.34L57.9302 218.796C61.5191 219.29 64.6571 216.28 64.2298 212.682C63.9541 210.363 63.9931 207.797 64.8048 205.484C66.6391 200.26 71.0697 199.222 74.0579 199.685C77.0462 200.149 79.8964 205.062 79.8964 205.062L81.2581 203.306C81.2581 203.306 78.3944 197.9 73.9679 197.542C73.9232 197.538 73.8789 197.535 73.8352 197.532C69.8897 197.232 65.986 198.494 62.8904 200.958L57.8561 204.965C54.0273 208.013 52.6293 213.199 54.4076 217.759L54.6349 218.34Z" fill="#238342"/>
<path d="M57.4636 214.462L48.1074 214.982C42.3452 215.302 36.6709 213.46 32.1958 209.815C31.1849 208.991 29.7202 209.982 30.1072 211.227L30.3177 211.904C30.7967 213.443 31.7211 214.805 32.9732 215.819C37.2518 219.281 42.6914 220.978 48.18 220.562L59.326 219.716C60.6588 219.615 61.5512 218.301 61.1549 217.024C60.6568 215.425 59.1357 214.369 57.4636 214.462Z" fill="#CECECE"/>
<path d="M56.1233 211.377C56.7027 212.801 58.2422 214.103 59.5609 214.285C60.8803 214.467 61.4791 213.46 60.8997 212.036C60.3201 210.612 58.7812 209.309 57.4618 209.128C56.1431 208.946 55.5436 209.953 56.1233 211.377Z" fill="white"/>
<path d="M30.1688 206.35C30.7484 207.775 32.2877 209.076 33.6064 209.258C34.9258 209.44 35.5249 208.433 34.9452 207.009C34.3656 205.585 32.827 204.283 31.5076 204.102C30.1886 203.919 29.5891 204.926 30.1688 206.35Z" fill="white"/>
<path d="M100.138 178.492C100.138 178.492 96.7785 172.45 98.0704 165.135C99.363 157.819 103.38 156.18 103.38 156.18C103.38 156.18 105.786 155.2 108.785 156.772C111.497 158.192 114.039 163.439 112.732 165.851C112.732 165.851 111.738 160.913 107.515 159.821C104.466 159.033 101.999 163.35 102.497 167.534C102.709 169.312 103.218 171.542 104.011 173.571C105.013 176.138 102.873 178.838 100.138 178.492Z" fill="#238342"/>
<path d="M88.6296 168.25L76.9823 183.202C76.9823 183.202 76.0211 163.783 83.95 156.753L88.6296 168.25Z" fill="#243B58"/>
<path d="M44.8472 179.358C44.8472 179.358 44.7606 177.58 44.8569 174.912C46.2101 173.924 47.848 173.324 49.5991 173.257L44.8472 179.358Z" fill="#59718B"/>
<path d="M85.5523 155.531C93.5501 150.159 97.8334 156.434 97.8334 156.434L90.0086 166.479L85.5523 155.531Z" fill="#243B58"/>
<path d="M52.8953 190.254C46.6674 196.395 40.3586 204.064 42.7551 213.457C43.173 203.802 48.4756 198.3 52.8953 190.254Z" fill="#238342"/>
<path d="M225.58 59.3005C225.285 59.7261 224.832 60.1316 224.228 60.4839L212.011 67.6306C209.872 68.8804 206.638 69.0134 204.787 67.9297L178.253 52.4064C177.899 52.2003 177.617 51.961 177.42 51.7017C177.715 51.2762 178.168 50.8707 178.772 50.5183L190.989 43.3716C193.128 42.1218 196.363 41.9889 198.213 43.0725L224.747 58.5959C225.108 58.8019 225.383 59.0413 225.58 59.3005Z" fill="#0E6876"/>
<path d="M226 58.0905C226 58.4895 225.856 58.9083 225.58 59.3005C225.285 59.7261 224.832 60.1316 224.228 60.4839L212.011 67.6306C209.872 68.8804 206.638 69.0134 204.787 67.9297L178.253 52.4064C177.899 52.2003 177.617 51.961 177.42 51.7017C177.138 51.356 177 50.9638 177 50.5716C177 49.7405 177.604 48.8697 178.772 48.185L190.989 41.0382C193.128 39.7817 196.363 39.6487 198.213 40.7323L224.747 56.2557C225.587 56.7476 226 57.4058 226 58.0905Z" fill="#148FA2"/>
<path d="M201.748 47.9268L193.508 43.1063C193.168 42.9076 193.211 42.5605 193.603 42.331C193.995 42.1015 194.589 42.0766 194.929 42.2754L203.169 47.0958C203.509 47.2945 203.466 47.6417 203.074 47.8711C202.682 48.1007 202.088 48.1255 201.748 47.9268Z" fill="#B5F0F6"/>
<path d="M211.093 53.3934L205.773 50.2813C205.434 50.0826 205.476 49.7355 205.869 49.506C206.261 49.2766 206.854 49.2516 207.194 49.4503L212.514 52.5624C212.853 52.7611 212.811 53.1083 212.419 53.3377C212.026 53.5673 211.433 53.5921 211.093 53.3934Z" fill="#B5F0F6"/>
<path d="M187.797 52.1332L182.968 49.3083C182.611 49.0997 182.656 48.7352 183.068 48.4942C183.48 48.2533 184.103 48.2271 184.459 48.4357L189.288 51.2606C189.645 51.4692 189.6 51.8338 189.188 52.0747C188.777 52.3157 188.153 52.3419 187.797 52.1332Z" fill="#F4F9FB"/>
<path d="M195.31 56.5283L190.481 53.7034C190.124 53.4948 190.169 53.1302 190.581 52.8893C190.993 52.6483 191.616 52.6222 191.972 52.8308L196.801 55.6557C197.158 55.8643 197.113 56.2288 196.702 56.4698C196.29 56.7108 195.667 56.737 195.31 56.5283Z" fill="#F4F9FB"/>
<path d="M202.823 60.9234L197.994 58.0985C197.637 57.8899 197.682 57.5253 198.094 57.2844C198.506 57.0434 199.129 57.0173 199.485 57.2259L204.314 60.0508C204.671 60.2594 204.626 60.6239 204.214 60.8649C203.803 61.1058 203.18 61.1321 202.823 60.9234Z" fill="#F4F9FB"/>
<path d="M210.336 65.3184L205.507 62.4936C205.15 62.2849 205.195 61.9204 205.607 61.6794C206.019 61.4385 206.642 61.4123 206.999 61.621L211.828 64.4458C212.184 64.6545 212.14 65.019 211.728 65.26C211.316 65.5009 210.693 65.5271 210.336 65.3184Z" fill="#F4F9FB"/>
<path d="M189.328 55.4803L180.596 50.3721C180.392 50.2528 180.417 50.0445 180.653 49.9068C180.888 49.7691 181.244 49.7542 181.448 49.8734L190.18 54.9818C190.384 55.101 190.359 55.3092 190.123 55.447C189.888 55.5847 189.532 55.5996 189.328 55.4803Z" fill="#B5F0F6"/>
<path d="M196.488 59.6689L192.272 57.2027C192.068 57.0835 192.094 56.8752 192.329 56.7375C192.565 56.5998 192.921 56.5849 193.125 56.704L197.34 59.1702C197.544 59.2895 197.519 59.4978 197.283 59.6354C197.048 59.7732 196.692 59.7882 196.488 59.6689Z" fill="#B5F0F6"/>
<path d="M192.55 50.0524L187.507 47.1023C186.938 46.7695 187.01 46.1883 187.666 45.8041L188.91 45.0765C189.567 44.6922 190.56 44.6505 191.129 44.9833L196.172 47.9334C196.741 48.2661 196.67 48.8473 196.013 49.2315L194.769 49.9591C194.112 50.3434 193.119 50.3852 192.55 50.0524Z" fill="#FFC532"/>
<path d="M213.426 61.7979C212.495 62.3424 210.986 62.3424 210.055 61.7978C209.124 61.2534 209.124 60.3704 210.055 59.8259C210.986 59.2813 212.495 59.2813 213.426 59.8259C214.357 60.3705 214.357 61.2534 213.426 61.7979Z" fill="#FFC532"/>
<path d="M215.536 63.0323C214.605 63.5767 213.096 63.5767 212.165 63.0323C211.234 62.4877 211.234 61.6048 212.165 61.0602C213.096 60.5158 214.605 60.5158 215.536 61.0602C216.467 61.6048 216.467 62.4877 215.536 63.0323Z" fill="#FF6852"/>
<path d="M226 58.0905V60.4307C226 61.2551 225.396 62.1327 224.228 62.8174L212.011 69.9641C209.872 71.2139 206.638 71.3536 204.787 70.2699L178.253 54.7466C177.413 54.2546 177 53.5964 177 52.9117V50.5716C177 50.9638 177.138 51.356 177.42 51.7017C177.617 51.961 177.899 52.2003 178.253 52.4064L204.787 67.9297C206.638 69.0134 209.872 68.8804 212.011 67.6306L224.228 60.4839C224.832 60.1316 225.285 59.7261 225.58 59.3005C225.856 58.9083 226 58.4895 226 58.0905Z" fill="#0E6876"/>
<path d="M63.2288 106.938L65.0382 110.062C65.1702 110.282 65.4433 110.42 65.8272 110.424L90.243 110.489L88.432 107.371L64.0179 107.299C63.6299 107.297 63.3568 107.159 63.2288 106.938Z" fill="#DBE6FA"/>
<path d="M88.432 107.371L90.243 110.489C91.0253 110.494 91.9743 109.941 92.3674 109.262L104.636 88.0175C104.83 87.6743 104.851 87.3665 104.721 87.1408L102.907 84.0185C103.038 84.2443 103.023 84.5538 102.822 84.8953L90.5563 106.144C90.1633 106.822 89.2119 107.372 88.432 107.371Z" fill="#BBCFEF"/>
<path d="M62.1072 104.995L63.9165 108.12C64.0485 108.339 64.3216 108.477 64.7055 108.481L89.1214 108.546L87.3103 105.428L62.8962 105.356C62.5083 105.355 62.2352 105.217 62.1072 104.995Z" fill="#A46EF2"/>
<path d="M87.3103 105.428L89.1214 108.546C89.9036 108.551 90.8527 107.998 91.2457 107.32L103.514 86.0748C103.708 85.7316 103.729 85.4238 103.599 85.198L101.786 82.0758C101.916 82.3015 101.901 82.6111 101.701 82.9525L89.4346 104.201C89.0416 104.88 88.0902 105.429 87.3103 105.428Z" fill="#9156E5"/>
<path d="M62.1919 104.122C61.8008 104.8 62.1167 105.355 62.8953 105.357L87.3101 105.426C88.092 105.428 89.0429 104.877 89.4341 104.2L101.701 82.9525C102.094 82.272 101.78 81.7204 100.998 81.7181L76.583 81.6489C75.8045 81.6467 74.852 82.1947 74.4591 82.8752L62.1919 104.122Z" fill="#B785FF"/>
<path d="M98.085 83.7745C98.5112 83.7745 98.6855 84.0724 98.4745 84.4403L88.0393 102.634C87.8283 103.001 87.3122 103.299 86.886 103.299L65.81 103.299C65.3838 103.299 65.2096 103.001 65.4206 102.634L75.8558 84.4403C76.0668 84.0724 76.5828 83.7745 77.009 83.7745L98.085 83.7745Z" fill="#21B500"/>
<path d="M98.4774 84.4419L98.1604 84.9873L88.0411 102.633C87.8251 102.999 87.3092 103.297 86.884 103.301L66.4453 103.298L65.8144 103.3C65.3851 103.297 65.2051 103.001 65.4211 102.635L75.8575 84.4437C76.0694 84.0704 76.5852 83.7726 77.0075 83.7797L98.0841 83.7767C98.5094 83.7728 98.6825 84.0725 98.4774 84.4419Z" fill="#9156E5"/>
<path d="M98.1604 84.9873L88.0411 102.633C87.8251 102.999 87.3092 103.297 86.884 103.301L66.4453 103.298L76.5577 85.6565C76.7737 85.2902 77.2895 84.9924 77.7078 84.9926L98.1604 84.9873Z" fill="#FFCA6C"/>
<path d="M83.6755 90.9885C85.9679 90.9885 86.9092 92.5979 85.7741 94.5767C84.6363 96.5604 81.8517 98.1649 79.5594 98.1649C77.2613 98.1649 76.3229 96.5604 77.4607 94.5767C78.5958 92.5979 81.3775 90.9885 83.6755 90.9885Z" fill="#FFA20D"/>
<path d="M69.3984 66.8096C70.9159 69.4486 63.9019 57.251 84.2375 92.6156C84.4721 93.0393 84.4403 93.607 84.0795 94.2447C83.3429 95.5288 81.5454 96.5666 80.065 96.5624C79.3173 96.5647 78.7936 96.2978 78.5515 95.8784L63.7285 70.0831C64.5775 71.5536 68.0889 70.4598 69.2404 68.4387C69.6012 67.801 69.6405 67.2291 69.3984 66.8096Z" fill="#804F59"/>
<path d="M74.2039 88.3114L76.5442 92.3842L80.4308 92.3872L82.2691 89.1887L79.88 85.0343L74.2039 88.3114Z" fill="#613941"/>
<path d="M59.4531 49.5808L74.2886 75.3908C74.5289 75.8096 74.4956 76.3855 74.1315 77.0203C72.9737 79.0389 69.4578 80.1387 68.6045 78.6509L53.7689 52.841C54.0121 53.2649 54.5364 53.5272 55.2831 53.5272C56.7633 53.5272 58.5613 52.4912 59.296 51.2103C59.6601 50.5756 59.6933 49.9997 59.4531 49.5808Z" fill="#613941"/>
<path d="M90.4496 71.1333L88.2185 75.0179L87.5936 76.0977L84.6836 74.0329L87.0891 76.9882L79.3333 90.5037C50.0863 39.6683 57.9624 53.3581 56.5785 50.9527L84.7553 67.74L90.4496 71.1333Z" fill="#21B500"/>
<path d="M56.5785 50.9527C57.9624 53.3581 50.0863 39.6683 79.3333 90.5037L65.5509 90.5018L62.727 86.0604L60.1691 90.5032L56.9026 90.5017L56.8484 83.8521L56.5785 50.9527Z" fill="#2ADC03"/>
<path d="M56.5785 50.9527L56.8484 83.8521L75.5052 83.8559L56.5785 50.9527Z" fill="#21B500"/>
<path d="M84.7553 67.74L56.5785 50.9527L75.5052 83.8559L84.7553 67.74Z" fill="#2ADC03"/>
<path d="M86.4602 61.2831L74.5063 82.1258L50.0087 39.5565L62.7027 47.1173L62.707 47.1248L64.7925 50.7543L65.6928 48.9062L80.9144 57.9738L82.4495 60.6327L83.1088 59.2834L86.4602 61.2831Z" fill="#21B500"/>
<path d="M50.0087 39.5565L74.5063 82.1258L50.3593 82.126L50.2673 71.3638L53.1861 71.576L50.2283 66.453L50.0087 39.5565Z" fill="#2ADC03"/>
<path d="M62.707 47.1248L64.7925 50.7543L63.9793 52.4421L62.7649 47.381L62.707 47.1248Z" fill="white"/>
<path d="M62.707 47.1248L64.7925 50.7543L63.9793 52.4421L63.9657 52.4699L62.7649 47.381L62.707 47.1248Z" fill="#2ADC03"/>
<path d="M55.8323 71.7659L53.1861 71.576L50.2283 66.453L55.8323 71.7659Z" fill="white"/>
<path d="M55.8678 71.7754L53.1861 71.576L50.2283 66.453L55.8678 71.7754Z" fill="#21B500"/>
<path d="M80.9187 57.9813L82.4538 60.6402L81.85 61.8776L80.9365 58.0809L80.9187 57.9813Z" fill="white"/>
<path d="M80.9187 57.9813L82.4538 60.6402L81.85 61.8776L81.8395 61.8936L80.9365 58.0809L80.9187 57.9813Z" fill="#2ADC03"/>
<path d="M88.2185 75.0179L87.5936 76.0977L84.6836 74.0329L88.2185 75.0179Z" fill="white"/>
<path d="M88.2185 75.0179L87.5936 76.0977L84.6836 74.0329L88.2185 75.0179Z" fill="#2ADC03"/>
<path d="M62.7295 86.0578L63.1301 90.4939L60.1794 90.4848L62.7295 86.0578Z" fill="#21B500"/>
<path d="M139.95 112.354L146.071 122.954L180.771 122.954L174.65 112.354L139.95 112.354Z" fill="#FCC53E"/>
<path d="M146.071 122.954L143.054 133.406L177.754 133.406L180.771 122.954L146.071 122.954Z" fill="#EDB328"/>
<path d="M139.95 112.354L133.916 117.579L143.054 133.406L146.071 122.954L139.95 112.354Z" fill="#D6A225"/>
<path d="M150.51 130.644L156.631 141.244L191.33 141.244L185.21 130.644L150.51 130.644Z" fill="#FCC53E"/>
<path d="M156.631 141.244L154.556 151.224L188.313 151.696L191.33 141.244L156.631 141.244Z" fill="#EDB328"/>
<path d="M150.51 130.644L144.476 135.87L154.556 151.224L156.631 141.244L150.51 130.644Z" fill="#D6A225"/>
<path d="M153.61 113.579L159.73 124.18L194.43 124.18L188.31 113.579L153.61 113.579Z" fill="#FCCA51"/>
<path d="M159.73 124.18L156.713 134.631L191.413 134.631L194.43 124.18L159.73 124.18Z" fill="#EDB328"/>
<path d="M153.61 113.579L147.576 118.805L156.713 134.631L159.73 124.18L153.61 113.579Z" fill="#D6A225"/>
<path d="M225.078 141.771L214.737 138.999C213.164 138.578 212.231 136.962 212.653 135.389C213.074 133.816 214.69 132.883 216.263 133.305L226.604 136.075L225.078 141.771Z" fill="#F97473"/>
<path d="M263.147 176.942C260.475 178.484 257.059 177.569 255.516 174.897L251.87 168.582L261.545 162.997L265.191 169.311C266.734 171.984 265.818 175.399 263.147 176.942Z" fill="#F97473"/>
<path d="M279.847 157.489C277.176 159.031 273.759 158.116 272.217 155.445L268.571 149.13L278.245 143.544L281.891 149.859C283.434 152.531 282.519 155.947 279.847 157.489Z" fill="#F97473"/>
<path d="M241.977 176.737C239.306 178.279 235.89 177.363 234.347 174.692L228.625 164.78L238.299 159.195L244.022 169.106C245.564 171.778 244.649 175.194 241.977 176.737Z" fill="#F97473"/>
<path d="M216.886 144.462C216.885 159.699 231.248 172.052 248.964 172.052C266.681 172.053 281.043 159.7 281.043 144.463C281.044 129.225 266.681 116.873 248.965 116.872C231.248 116.873 216.886 129.225 216.886 144.462Z" fill="#F9A2A1"/>
<path d="M243.374 143.736C243.871 141.027 244.752 138.247 246.039 135.515C246.373 134.807 246.727 134.121 247.098 133.452L245.024 132.505C242.661 131.424 239.896 132.844 238.85 135.676C237.803 138.507 238.872 141.678 241.235 142.759L243.374 143.736Z" fill="#FAB5B4"/>
<path d="M263.029 120.088L262.006 117.675C261.047 115.412 258.736 114.749 256.844 116.196C254.953 117.642 254.198 120.649 255.157 122.912L255.482 123.677C257.905 121.887 260.478 120.655 263.029 120.088Z" fill="#FAB5B4"/>
<path d="M261.455 120.523L260.891 119.192C260.303 117.806 258.888 117.401 257.731 118.286C256.573 119.172 256.11 121.013 256.697 122.398L256.842 122.739C258.349 121.776 259.9 121.032 261.455 120.523Z" fill="#FBC7C6"/>
<path d="M243.837 141.624C244.354 139.593 245.084 137.541 246.039 135.515C246.068 135.453 246.098 135.394 246.128 135.332L244.814 134.732C243.367 134.07 241.674 134.94 241.034 136.674C240.393 138.407 241.047 140.349 242.493 141.01L243.837 141.624Z" fill="#FBC7C6"/>
<path d="M279.515 134.644C281.643 138.329 281.326 144.851 278.809 149.211C276.291 153.572 272.525 154.12 270.398 150.436C268.27 146.751 268.587 140.229 271.105 135.868C273.622 131.508 277.388 130.959 279.515 134.644Z" fill="#F97473"/>
<path d="M275.445 149.675L275.336 149.865C274.929 150.569 274.22 150.48 273.751 149.668L270.841 144.628C270.372 143.816 270.321 142.587 270.727 141.884L270.837 141.693C271.243 140.99 271.952 141.078 272.421 141.89L275.332 146.931C275.801 147.744 275.852 148.972 275.445 149.675Z" fill="#97463C"/>
<path d="M279.186 143.197L279.077 143.386C278.671 144.09 277.961 144.002 277.492 143.19L274.582 138.149C274.113 137.337 274.062 136.108 274.468 135.405L274.578 135.215C274.984 134.511 275.693 134.599 276.162 135.412L279.073 140.452C279.541 141.265 279.592 142.493 279.186 143.197Z" fill="#97463C"/>
<path d="M262.462 140.301C263.102 141.409 262.722 142.826 261.614 143.466C260.506 144.106 259.088 143.726 258.448 142.618C257.808 141.51 258.188 140.092 259.297 139.452C260.405 138.812 261.822 139.192 262.462 140.301Z" fill="#97463C"/>
<path d="M272.52 127.207C273.16 128.315 272.78 129.732 271.672 130.372C270.564 131.012 269.147 130.632 268.507 129.524C267.867 128.415 268.247 126.998 269.355 126.358C270.463 125.719 271.88 126.098 272.52 127.207Z" fill="#97463C"/>
<path d="M249.749 128.912C249.23 129.212 248.594 129.309 247.973 129.129C247.908 129.11 241.373 127.285 232.73 128.789C231.487 129.005 230.304 128.173 230.087 126.93C229.871 125.687 230.704 124.504 231.947 124.287C241.69 122.592 248.941 124.652 249.246 124.74C250.457 125.093 251.153 126.362 250.8 127.573C250.629 128.161 250.241 128.628 249.749 128.912Z" fill="#97463C"/>
<path d="M244.569 112.391C241.5 107.075 234.703 102.766 229.388 102.766C227.168 102.766 225.559 103.52 224.661 104.784L224.658 104.782L222.522 108.515C222.522 108.515 220.471 111.134 223.275 115.992C226.344 121.307 233.141 125.616 238.456 125.616C241.086 125.616 242.86 124.56 243.61 122.849L245.441 119.667C246.46 117.902 246.247 115.298 244.569 112.391Z" fill="#C3A600"/>
<path d="M242.523 115.991C245.592 121.307 243.771 125.616 238.456 125.616C233.141 125.616 226.344 121.307 223.275 115.992C220.206 110.676 222.027 106.367 227.343 106.367C232.658 106.367 239.455 110.676 242.523 115.991Z" fill="#FFD800"/>
<path d="M239.507 115.992C241.613 119.641 240.363 122.599 236.714 122.599C233.065 122.599 228.399 119.641 226.293 115.992C224.186 112.343 225.437 109.386 229.085 109.386C232.734 109.385 237.4 112.344 239.507 115.992Z" fill="#C3A600"/>
<path d="M237.457 115.991C238.911 118.509 238.048 120.549 235.531 120.549C233.013 120.549 229.794 118.509 228.341 115.991C226.888 113.474 227.75 111.433 230.268 111.433C232.785 111.433 236.004 113.474 237.457 115.991Z" fill="#FFD800"/>
<path d="M318.782 24.9689L316.578 28.7968C316.427 29.0708 316.448 29.4445 316.678 29.8537L331.543 55.7594L333.739 51.9335L318.882 26.0258C318.646 25.6138 318.625 25.2401 318.782 24.9689Z" fill="#804F59"/>
<path d="M333.739 51.9335L331.543 55.7594C332.016 56.5912 333.182 57.2582 334.141 57.2596L364.152 57.2626C364.634 57.2584 364.973 57.0925 365.133 56.8163L367.331 52.9856C367.172 53.2617 366.835 53.4354 366.35 53.4318L336.337 53.4337C335.378 53.4323 334.214 52.7604 333.739 51.9335Z" fill="#613941"/>
<path d="M320.218 22.4818L318.014 26.3097C317.863 26.5838 317.884 26.9575 318.114 27.3667L332.979 53.2723L335.175 49.4465L320.318 23.5388C320.082 23.1268 320.061 22.7531 320.218 22.4818Z" fill="#DBDFE6"/>
<path d="M335.175 49.4465L332.979 53.2723C333.452 54.1042 334.618 54.7712 335.577 54.7726L365.588 54.7755C366.07 54.7714 366.409 54.6055 366.568 54.3293L368.767 50.4986C368.608 50.7747 368.271 50.9484 367.786 50.9448L337.773 50.9467C336.814 50.9453 335.65 50.2734 335.175 49.4465Z" fill="#CCD0D9"/>
<path d="M321.194 22.038C320.237 22.038 319.843 22.7119 320.316 23.538L335.176 49.4451C335.652 50.2749 336.817 50.9452 337.774 50.9452L367.786 50.9448C368.747 50.9448 369.14 50.2749 368.664 49.4451L353.804 23.538C353.33 22.7119 352.167 22.038 351.206 22.038L321.194 22.038Z" fill="#EBEEF4"/>
<path d="M364.704 47.6171C364.965 48.0685 364.756 48.4354 364.237 48.4369L338.58 48.5096C338.062 48.5111 337.43 48.1466 337.17 47.6951L324.279 25.3674C324.018 24.9159 324.227 24.5491 324.746 24.5476L350.402 24.4749C350.921 24.4734 351.552 24.8379 351.813 25.2894L364.704 47.6171Z" fill="#2ADC03"/>
<path d="M364.237 48.4409L363.465 48.4387L338.582 48.5111C338.062 48.5063 337.431 48.142 337.167 47.6939L324.669 26.0396L324.281 25.3724C324.022 24.9157 324.225 24.5442 324.745 24.5489L350.4 24.4787C350.925 24.475 351.556 24.8393 351.807 25.2909L364.701 47.6174C364.965 48.0656 364.754 48.4323 364.237 48.4409Z" fill="#21B500"/>
<path d="M363.465 48.4387L338.582 48.5111C338.062 48.5063 337.431 48.142 337.167 47.6939L324.669 26.0396L349.543 25.9624C350.063 25.9672 350.694 26.3314 350.95 26.7746L363.465 48.4387Z" fill="#2ADC03"/>
<path d="M349.23 38.0834C350.795 40.7947 349.534 43.0069 346.419 43.0158C343.295 43.0246 339.496 40.8267 337.931 38.1154C336.362 35.3974 337.619 33.1919 340.742 33.183C343.857 33.1742 347.66 35.3654 349.23 38.0834Z" fill="#21B500"/>
<path d="M365.04 8.83783L349.829 35.0657L348.822 36.8094L347.177 39.6345C346.877 40.1312 346.275 40.4399 345.393 40.4507C343.626 40.456 341.472 39.2124 340.593 37.6792C340.151 36.9046 340.103 36.2065 340.393 35.704C360.849 0.4389 338.344 39.2506 358.25 4.91767C356.793 7.4408 363.53 11.4521 365.04 8.83783Z" fill="#804F59"/>
<path d="M371.782 37.9824C356.317 38.0258 337.48 27.1502 329.712 13.6932C322.961 1.99883 327.01 -7.00106 336.429 -9.78256C349.704 -15.1479 364.216 -19.8681 379.524 -24.1621C389.283 25.459 389.1 23.3597 389.046 24.9593C388.789 32.6738 382.501 37.9491 371.782 37.9824Z" fill="#2ADC03"/>
<path d="M365.04 8.83783L349.829 35.0657L348.822 36.8094C347.699 36.2434 346.594 35.6463 345.486 35.0067C344.307 34.3258 343.161 33.6098 342.044 32.8687C366.728 -9.70508 354.922 10.6563 358.25 4.91767C356.793 7.4408 363.53 11.4521 365.04 8.83783Z" fill="#613941"/>
<path d="M371.781 37.9773C358.14 38.0183 341.88 29.5665 332.909 18.3421C331.701 16.8316 330.628 15.2769 329.711 13.6883C322.981 2.03411 326.977 -7.00752 336.427 -9.77894C348.759 -14.7616 362.138 -19.1893 376.238 -23.2249C377.332 -23.5414 378.42 -23.8487 379.523 -24.1599C389.325 25.6771 389.092 23.375 389.047 24.96C388.789 32.6783 382.497 37.947 371.781 37.9773Z" fill="#21B500"/>
<path d="M367.353 33.1926C355.733 33.2307 342.21 27.0975 332.909 18.3421C331.701 16.8316 330.628 15.2769 329.711 13.6883C322.981 2.03411 326.977 -7.00752 336.427 -9.77894C348.759 -14.7616 362.138 -19.1893 376.238 -23.2249C384.802 20.409 384.666 18.546 384.62 20.1752C384.358 27.8789 378.07 33.1623 367.353 33.1926Z" fill="#2ADC03"/>
<path d="M379.405 16.8613C366.45 16.8976 350.676 7.7902 344.171 -3.48094C339.166 -12.1547 340.85 -20.485 349.797 -23.1453C359.914 -27.2317 370.887 -30.8739 382.44 -34.2054C384.294 -34.7398 386.21 -33.5641 386.585 -31.6721C394.291 7.25557 393.902 4.91111 393.863 5.98211C393.63 12.428 388.371 16.8323 379.405 16.8613Z" fill="#2ADC03"/>
<path d="M379.409 16.8631C366.598 16.9033 350.806 7.94926 344.171 -3.48094C339.221 -12.0602 340.754 -20.4363 349.8 -23.1479C359.895 -27.2287 370.856 -30.8618 382.397 -34.1862C382.408 -34.1896 382.42 -34.193 382.431 -34.1965C384.287 -34.7465 386.212 -33.5679 386.587 -31.6695C394.298 7.2869 393.928 4.90315 393.849 6.2059C393.505 12.5305 388.267 16.8266 379.409 16.8631Z" fill="#21B500"/>
<path d="M374.698 11.7769C365.206 11.8007 354.193 6.91961 346.43 -0.12487C345.582 -1.21562 344.833 -2.34053 344.171 -3.48094C339.221 -12.0602 340.754 -20.4363 349.8 -23.1479C359.895 -27.2287 370.856 -30.8618 382.397 -34.1862C389.291 0.956692 389.245 -0.39351 389.154 1.11576C388.81 7.44022 383.565 11.7462 374.698 11.7769Z" fill="#2ADC03"/>
<path d="M371.093 -22.5419C370.431 -21.394 369.142 -20.8961 368.211 -21.4339C367.279 -21.9715 367.066 -23.3364 367.729 -24.4843C368.388 -25.625 369.676 -26.1228 370.607 -25.5852C371.539 -25.0475 371.752 -23.6826 371.093 -22.5419Z" fill="#21B500"/>
<path d="M351.064 -6.04558C350.402 -4.89766 349.113 -4.39981 348.182 -4.93754C347.25 -5.47517 347.037 -6.84007 347.7 -7.98798C348.359 -9.12871 349.647 -9.62652 350.578 -9.08889C351.51 -8.55116 351.723 -7.18631 351.064 -6.04558Z" fill="#21B500"/>
<path d="M377.382 -9.39012C376.719 -8.24221 375.43 -7.74435 374.499 -8.28208C373.568 -8.81971 373.355 -10.1846 374.017 -11.3325C374.676 -12.4733 375.965 -12.9711 376.896 -12.4334C377.827 -11.8957 378.04 -10.5309 377.382 -9.39012Z" fill="#21B500"/>
<path d="M375.047 5.0334C374.384 6.18131 373.096 6.67917 372.164 6.14144C371.233 5.60381 371.02 4.23891 371.683 3.091C372.341 1.95027 373.63 1.45246 374.561 1.99008C375.493 2.52781 375.706 3.89267 375.047 5.0334Z" fill="#21B500"/>
<path d="M363.392 25.8855C362.729 27.0335 361.44 27.5313 360.509 26.9936C359.578 26.456 359.364 25.0911 360.027 23.9431C360.686 22.8024 361.974 22.3046 362.906 22.8422C363.837 23.38 364.05 24.7448 363.392 25.8855Z" fill="#21B500"/>
<path d="M347.131 14.8049C346.469 15.9528 345.18 16.4507 344.249 15.9129C343.317 15.3753 343.104 14.0104 343.767 12.8625C344.426 11.7218 345.714 11.224 346.645 11.7616C347.577 12.2993 347.79 13.6642 347.131 14.8049Z" fill="#21B500"/>
<path d="M337.512 -1.69369C336.849 -0.545779 335.56 -0.0479294 334.629 -0.585658C333.698 -1.12329 333.485 -2.48818 334.147 -3.63609C334.806 -4.77683 336.095 -5.27464 337.026 -4.73701C337.957 -4.19928 338.17 -2.83443 337.512 -1.69369Z" fill="#21B500"/>
<path d="M182.455 280.138L184.875 282.552C185.049 282.72 185.333 282.779 185.685 282.689L208.024 276.767L205.604 274.36L183.265 280.275C182.91 280.369 182.626 280.31 182.455 280.138Z" fill="#804F59"/>
<path d="M205.604 274.36L208.024 276.767C208.741 276.58 209.473 275.842 209.666 275.125L215.678 252.695C215.772 252.334 215.716 252.047 215.541 251.873L213.118 249.462C213.293 249.637 213.355 249.923 213.255 250.285L207.246 272.718C207.053 273.434 206.318 274.17 205.604 274.36Z" fill="#613941"/>
<path d="M180.884 278.567L183.303 280.981C183.478 281.149 183.761 281.208 184.113 281.118L206.453 275.196L204.033 272.788L181.694 278.704C181.338 278.798 181.055 278.738 180.884 278.567Z" fill="#DBDFE6"/>
<path d="M204.033 272.788L206.453 275.196C207.169 275.009 207.901 274.27 208.095 273.554L214.107 251.124C214.201 250.763 214.144 250.476 213.97 250.302L211.547 247.891C211.722 248.066 211.784 248.352 211.684 248.714L205.675 271.147C205.482 271.863 204.746 272.598 204.033 272.788Z" fill="#CCD0D9"/>
<path d="M180.747 277.749C180.556 278.464 180.98 278.894 181.693 278.705L204.032 272.787C204.748 272.597 205.482 271.861 205.674 271.145L211.684 248.714C211.877 247.995 211.455 247.568 210.739 247.757L188.399 253.675C187.687 253.864 186.95 254.598 186.758 255.317L180.747 277.749Z" fill="#EBEEF4"/>
<path d="M208.58 250.351C208.969 250.246 209.202 250.476 209.099 250.864L204.015 270.055C203.912 270.443 203.513 270.842 203.124 270.946L183.854 276.11C183.464 276.214 183.232 275.984 183.334 275.596L188.418 256.406C188.521 256.017 188.92 255.619 189.31 255.514L208.58 250.351Z" fill="#2ADC03"/>
<path d="M209.102 250.865L208.946 251.441L204.016 270.054C203.909 270.442 203.51 270.84 203.122 270.948L184.434 275.953L183.858 276.109C183.465 276.211 183.228 275.985 183.335 275.597L188.421 256.408C188.523 256.015 188.922 255.616 189.31 255.519L208.579 250.353C208.967 250.245 209.199 250.477 209.102 250.865Z" fill="#21B500"/>
<path d="M208.946 251.441L204.016 270.054C203.909 270.442 203.51 270.84 203.122 270.948L184.434 275.953L189.358 257.346C189.466 256.958 189.864 256.559 190.247 256.457L208.946 251.441Z" fill="#2ADC03"/>
<path d="M198.355 260.007C200.695 259.38 202.096 260.766 201.478 263.096C200.86 265.432 198.456 267.832 196.116 268.459C193.77 269.087 192.373 267.706 192.992 265.37C193.61 263.04 196.009 260.636 198.355 260.007Z" fill="#21B500"/>
<path d="M179.662 242.334L196.219 258.955L197.321 260.057L199.103 261.852C199.414 262.176 199.524 262.688 199.356 263.349C199.006 264.671 197.645 266.032 196.323 266.382C195.656 266.557 195.124 266.453 194.807 266.136C172.545 243.783 197.047 268.378 175.372 246.623C176.967 248.217 181.314 243.985 179.662 242.334Z" fill="#804F59"/>
<path d="M202.796 243.131C199.731 254.698 187.83 266.6 176.216 269.711C166.124 272.414 160.208 267.586 160.015 259.989C158.663 248.992 158.042 237.2 157.898 224.898C196.941 227.542 195.335 227.259 196.52 227.619C202.234 229.356 204.918 235.113 202.796 243.131Z" fill="#2ADC03"/>
<path d="M179.662 242.334L196.219 258.955L197.321 260.057C196.673 260.783 196.006 261.489 195.306 262.189C194.56 262.934 193.796 263.647 193.018 264.334C166.141 237.358 178.995 250.26 175.372 246.623C176.967 248.217 181.314 243.985 179.662 242.334Z" fill="#613941"/>
<path d="M202.792 243.131C200.091 253.335 190.517 263.795 180.331 268.252C178.96 268.853 177.583 269.343 176.212 269.711C166.154 272.407 160.196 267.609 160.017 259.991C158.763 249.776 158.133 238.89 157.94 227.542C157.923 226.662 157.911 225.786 157.9 224.9C197.112 227.555 195.345 227.267 196.52 227.618C202.238 229.357 204.915 235.115 202.792 243.131Z" fill="#21B500"/>
<path d="M198.329 245.482C196.03 254.175 188.738 263.054 180.331 268.252C178.96 268.853 177.583 269.343 176.212 269.711C166.154 272.407 160.196 267.609 160.017 259.991C158.763 249.776 158.133 238.89 157.94 227.542C192.269 229.88 190.849 229.609 192.057 229.969C197.763 231.708 200.453 237.466 198.329 245.482Z" fill="#2ADC03"/>
<path d="M188.536 233.204C185.969 242.893 176.003 252.86 166.275 255.464C158.79 257.468 152.901 254.541 152.705 247.321C151.676 238.941 151.152 230.01 150.976 220.707C150.947 219.215 152.21 218.018 153.699 218.117C184.338 220.154 182.508 219.975 183.3 220.218C188.072 221.683 190.31 226.496 188.536 233.204Z" fill="#2ADC03"/>
<path d="M188.538 233.201C186.003 242.784 176.147 252.795 166.275 255.464C158.872 257.445 152.918 254.623 152.703 247.318C151.675 238.956 151.154 230.036 150.981 220.744C150.981 220.735 150.981 220.725 150.98 220.716C150.941 219.219 152.207 218.016 153.701 218.116C184.363 220.154 182.507 219.954 183.465 220.273C188.123 221.797 190.285 226.573 188.538 233.201Z" fill="#21B500"/>
<path d="M183.793 235.704C181.91 242.802 176.056 250.056 169.236 254.448C168.251 254.863 167.26 255.198 166.275 255.464C158.872 257.445 152.918 254.623 152.703 247.318C151.675 238.956 151.154 230.036 150.981 220.744C178.629 222.629 177.61 222.393 178.72 222.763C183.378 224.287 185.546 229.069 183.793 235.704Z" fill="#2ADC03"/>
<path d="M157.421 231.524C158.146 232.25 158.26 233.312 157.671 233.901C157.083 234.489 156.02 234.375 155.295 233.65C154.574 232.929 154.46 231.866 155.049 231.278C155.637 230.69 156.7 230.804 157.421 231.524Z" fill="#21B500"/>
<path d="M165.739 249.798C166.464 250.524 166.578 251.586 165.99 252.175C165.402 252.763 164.339 252.649 163.614 251.924C162.893 251.203 162.779 250.14 163.367 249.552C163.956 248.964 165.018 249.078 165.739 249.798Z" fill="#21B500"/>
<path d="M168.51 229.458C169.235 230.183 169.349 231.246 168.761 231.835C168.173 232.423 167.11 232.309 166.384 231.584C165.664 230.863 165.55 229.8 166.138 229.212C166.726 228.623 167.789 228.737 168.51 229.458Z" fill="#21B500"/>
<path d="M178.823 234.092C179.548 234.817 179.662 235.88 179.074 236.468C178.485 237.057 177.423 236.943 176.697 236.217C175.977 235.497 175.863 234.434 176.451 233.845C177.039 233.257 178.102 233.371 178.823 234.092Z" fill="#21B500"/>
<path d="M192.074 246.98C192.799 247.705 192.913 248.768 192.325 249.356C191.737 249.944 190.674 249.83 189.949 249.105C189.228 248.384 189.114 247.322 189.702 246.733C190.291 246.145 191.353 246.259 192.074 246.98Z" fill="#21B500"/>
<path d="M180.536 256.914C181.261 257.639 181.375 258.702 180.787 259.29C180.198 259.879 179.135 259.765 178.41 259.039C177.689 258.319 177.575 257.256 178.164 256.667C178.752 256.079 179.815 256.193 180.536 256.914Z" fill="#21B500"/>
<path d="M166.278 260.799C167.003 261.525 167.117 262.588 166.528 263.176C165.94 263.764 164.877 263.65 164.152 262.925C163.431 262.204 163.317 261.142 163.906 260.553C164.494 259.965 165.557 260.079 166.278 260.799Z" fill="#21B500"/>
<path d="M410.639 197.851C410.201 198.609 409.324 199.156 408.082 199.371C407.702 199.437 407.288 199.476 406.841 199.474L372.441 199.472L369.773 199.469C366.312 199.471 362.296 197.366 360.798 194.771L325.264 133.227C325.204 133.122 325.149 133.019 325.1 132.919C324.578 131.863 324.583 130.905 325.017 130.152C325.591 129.159 326.921 128.532 328.815 128.53L365.887 128.529C369.344 128.532 373.364 130.632 374.862 133.227L410.393 194.776C411.068 195.949 411.117 197.023 410.639 197.851Z" fill="#587380"/>
<path d="M377.563 151.836L367.811 134.945C367.455 134.327 367.833 133.827 368.656 133.827C369.479 133.827 370.435 134.327 370.792 134.945L380.544 151.836C380.9 152.453 380.522 152.954 379.699 152.954C378.876 152.954 377.92 152.453 377.563 151.836Z" fill="#DADFFF"/>
<path d="M340.356 151.836L330.603 134.945C330.247 134.327 330.625 133.827 331.449 133.827C332.272 133.827 333.228 134.327 333.584 134.945L343.336 151.836C343.693 152.453 343.315 152.954 342.491 152.954C341.668 152.954 340.712 152.453 340.356 151.836Z" fill="#DADFFF"/>
<path d="M348.858 166.563L343.696 157.622C343.34 157.005 343.718 156.504 344.541 156.504C345.364 156.504 346.32 157.004 346.677 157.622L351.839 166.563C352.195 167.18 351.817 167.68 350.994 167.68C350.171 167.68 349.214 167.18 348.858 166.563Z" fill="#DADFFF"/>
<path d="M380.052 166.169L362.025 134.945C361.668 134.327 362.047 133.827 362.87 133.827C363.693 133.827 364.649 134.327 365.006 134.945L383.033 166.169C383.389 166.786 383.011 167.286 382.188 167.286C381.365 167.287 380.408 166.786 380.052 166.169Z" fill="#DADFFF"/>
<path d="M341.437 144.03L336.713 135.849C336.069 134.732 336.753 133.827 338.242 133.827C339.73 133.827 341.46 134.732 342.105 135.849L346.828 144.03C347.473 145.146 346.788 146.052 345.3 146.052C343.811 146.051 342.081 145.146 341.437 144.03Z" fill="#DADFFF"/>
<path d="M350.698 160.07L345.974 151.89C345.33 150.773 346.014 149.868 347.503 149.868C348.992 149.868 350.721 150.773 351.366 151.89L356.089 160.07C356.734 161.187 356.05 162.092 354.561 162.092C353.072 162.092 351.342 161.187 350.698 160.07Z" fill="#DADFFF"/>
<path d="M359.959 176.111L355.236 167.93C354.591 166.813 355.275 165.908 356.764 165.908C358.253 165.908 359.982 166.813 360.627 167.93L365.35 176.111C365.995 177.227 365.311 178.133 363.822 178.133C362.333 178.133 360.603 177.227 359.959 176.111Z" fill="#DADFFF"/>
<path d="M369.22 192.152L364.497 183.971C363.852 182.854 364.536 181.949 366.025 181.949C367.514 181.949 369.244 182.854 369.888 183.971L374.611 192.151C375.256 193.268 374.572 194.173 373.083 194.173C371.594 194.173 369.864 193.268 369.22 192.152Z" fill="#DADFFF"/>
<path d="M359.07 146.054L354.564 146.054C353.553 146.053 352.329 145.344 351.824 144.468L346.593 135.409C346.088 134.533 346.494 133.828 347.505 133.828L352.012 133.828C353.022 133.828 354.249 134.533 354.754 135.409L359.985 144.468C360.49 145.344 360.081 146.054 359.07 146.054Z" fill="#FFD54F"/>
<path d="M358.78 146.054L357.954 146.054L350.896 133.828L351.721 133.829L358.78 146.054Z" fill="#587380"/>
<path d="M355.679 146.054L354.853 146.054L347.795 133.829L348.621 133.829L355.679 146.054Z" fill="#587380"/>
<path d="M397.297 180.852L396.709 179.835C395.661 178.019 392.848 176.547 390.427 176.547C388.006 176.547 386.894 178.019 387.942 179.835L388.529 180.852C389.578 182.668 392.39 184.14 394.811 184.14C397.232 184.14 398.345 182.668 397.297 180.852Z" fill="#FF5454"/>
<path d="M395.065 187.009L391.824 181.396C391.489 180.815 391.845 180.344 392.619 180.344C393.394 180.344 394.294 180.815 394.63 181.395L397.87 187.009C398.206 187.59 397.85 188.061 397.075 188.061C396.3 188.061 395.4 187.59 395.065 187.009Z" fill="#DADFFF"/>
<path d="M363.426 190.578C361.83 190.578 359.889 189.458 359.091 188.076C358.293 186.694 358.94 185.573 360.536 185.573C362.132 185.573 364.072 186.694 364.871 188.076C365.669 189.458 365.022 190.578 363.426 190.578Z" fill="#FF5454"/>
<path d="M365.502 194.173C363.906 194.174 361.965 193.053 361.167 191.671C360.369 190.289 361.016 189.168 362.612 189.169C364.208 189.168 366.148 190.289 366.946 191.671C367.744 193.053 367.098 194.173 365.502 194.173Z" fill="#FFD54F"/>
<path d="M410.639 197.851L408.164 202.138C407.591 203.131 406.261 203.758 404.366 203.76L367.295 203.761C365.351 203.763 363.226 203.092 361.479 202.048C360.117 201.24 358.975 200.196 358.32 199.063L322.789 137.514C322.108 136.338 322.065 135.267 322.542 134.439L325.017 130.152C324.583 130.905 324.578 131.863 325.1 132.919C325.149 133.019 325.204 133.122 325.264 133.227L360.798 194.771C361.453 195.904 362.589 196.944 363.957 197.756C365.7 198.805 367.829 199.471 369.773 199.469L406.841 199.474C407.288 199.476 407.702 199.437 408.082 199.371C409.324 199.156 410.201 198.609 410.639 197.851Z" fill="#37474F"/>
<path d="M410.639 197.851L408.164 202.138C407.591 203.131 406.261 203.758 404.366 203.76L367.295 203.761C365.351 203.763 363.226 203.092 361.479 202.048L363.957 197.756C365.7 198.805 367.829 199.471 369.773 199.469L406.841 199.474C407.288 199.476 407.702 199.437 408.082 199.371C409.324 199.156 410.201 198.609 410.639 197.851Z" fill="#263238"/>
<path d="M403.702 110.131C400.998 110.529 397.362 115.047 397.362 115.047L404.845 117.415C404.845 117.415 406.405 109.732 403.702 110.131Z" fill="black"/>
<path d="M383.175 87.8339L385.419 96.2075L410.168 102.839L419.227 93.7802L416.983 85.4066L394.478 87.1487L383.175 87.8339Z" fill="#308D43"/>
<path d="M384.843 94.0591L387.087 102.433L411.836 109.064L420.895 100.005L418.652 91.6318L396.146 93.3739L384.843 94.0591Z" fill="#308D43"/>
<path d="M386.259 99.3418L386.442 100.026L411.191 106.657L420.25 97.5983L420.067 96.9144L411.008 105.973L386.259 99.3418Z" fill="#449855"/>
<path d="M385.842 97.7854L386.025 98.4694L410.774 105.101L419.833 96.0421L419.65 95.3582L410.591 104.417L385.842 97.7854Z" fill="#449855"/>
<path d="M385.425 96.2291L385.608 96.9132L410.357 103.545L419.416 94.4858L419.233 93.8018L410.174 102.861L385.425 96.2291Z" fill="#449855"/>
<path d="M385.008 94.6729L385.191 95.3568L409.94 101.988L418.999 92.9294L418.816 92.2455L409.757 101.304L385.008 94.6729Z" fill="#449855"/>
<path d="M386.676 100.898L386.859 101.582L411.608 108.214L420.667 99.1547L420.484 98.4707L411.425 107.53L386.676 100.898Z" fill="#449855"/>
<path d="M384.591 93.1165L384.774 93.8006L409.523 100.432L418.582 91.3732L418.399 90.6893L409.34 99.7481L384.591 93.1165Z" fill="#449855"/>
<path d="M384.174 91.5602L384.357 92.2443L409.106 98.8758L418.165 89.8169L417.982 89.1329L408.923 98.1919L384.174 91.5602Z" fill="#449855"/>
<path d="M383.757 90.004L383.94 90.6881L408.689 97.3195L417.748 88.2606L417.565 87.5766L408.506 96.6355L383.757 90.004Z" fill="#449855"/>
<path d="M383.34 88.4477L383.523 89.1317L408.272 95.7633L417.331 86.7043L417.148 86.0204L408.089 95.0794L383.34 88.4477Z" fill="#449855"/>
<path d="M372.238 116.246L374.482 124.619L386.857 127.935L404.974 109.817L402.731 101.444L392.6 106.502L372.238 116.246Z" fill="#308D43"/>
<path d="M372.238 116.246L384.613 119.561L402.731 101.444L390.356 98.128L372.238 116.246Z" fill="#58A368"/>
<path d="M397.031 101.853L393.08 100.795C391.806 101.752 389.881 102.253 388.313 102.03L377.271 113.072C378.487 113.63 378.76 114.745 377.938 115.837L381.889 116.895C383.164 115.938 385.088 115.437 386.657 115.66L397.698 104.618C396.482 104.06 396.209 102.944 397.031 101.853Z" fill="#EDEDED"/>
<path d="M390.122 106.207C388.132 105.674 385.338 106.423 383.882 107.879C382.425 109.336 382.858 110.949 384.847 111.482C386.837 112.015 389.63 111.266 391.087 109.81C392.543 108.353 392.111 106.741 390.122 106.207Z" fill="#58A368"/>
<path d="M390.352 108.439C390.298 108.203 390.085 108.034 389.71 107.934C389.385 107.847 389.03 107.851 388.645 107.947C388.259 108.042 387.796 108.247 387.256 108.561L385.974 108.217C386.306 107.94 386.683 107.711 387.107 107.531L386.193 107.286C385.89 107.423 385.554 107.663 385.182 108.005L384.567 107.84L384.205 108.202L384.835 108.37C384.573 108.683 384.474 108.965 384.541 109.215C384.607 109.465 384.817 109.637 385.171 109.732C385.5 109.82 385.85 109.824 386.22 109.744C386.59 109.665 387.067 109.458 387.649 109.124L388.88 109.454C388.718 109.599 388.497 109.754 388.217 109.92C387.937 110.086 387.696 110.202 387.494 110.27L388.431 110.521C388.926 110.287 389.342 110.003 389.678 109.668L390.393 109.859L390.754 109.498L390.02 109.301C390.295 108.963 390.406 108.676 390.352 108.439ZM385.772 109.058C385.502 108.985 385.453 108.827 385.626 108.583L386.699 108.87C386.313 109.057 386.005 109.12 385.772 109.058ZM389.228 109.089L388.203 108.814C388.579 108.616 388.877 108.546 389.098 108.606C389.372 108.679 389.415 108.84 389.228 109.089Z" fill="#EDEDED"/>
<path d="M373.654 121.528L373.837 122.212L386.212 125.528L404.329 107.41L404.146 106.726L386.028 124.844L373.654 121.528Z" fill="#449855"/>
<path d="M373.237 119.972L373.42 120.656L385.795 123.972L403.912 105.854L403.729 105.17L385.611 123.288L373.237 119.972Z" fill="#449855"/>
<path d="M372.82 118.416L373.003 119.1L385.378 122.415L403.495 104.298L403.312 103.614L385.194 121.731L372.82 118.416Z" fill="#449855"/>
<path d="M372.403 116.859L372.586 117.543L384.961 120.859L403.078 102.741L402.895 102.057L384.777 120.175L372.403 116.859Z" fill="#449855"/>
<path d="M374.071 123.085L374.254 123.769L386.629 127.084L404.746 108.967L404.563 108.283L386.445 126.4L374.071 123.085Z" fill="#449855"/>
<path d="M383.175 87.8339L407.925 94.4655L416.983 85.4066L392.234 78.775L383.175 87.8339Z" fill="#58A368"/>
<path d="M411.117 85.1949L396.034 81.1534C394.759 82.111 392.834 82.6117 391.266 82.3887L388.374 85.2807C389.59 85.8389 389.863 86.9544 389.041 88.0456L404.125 92.0872C405.4 91.1297 407.324 90.629 408.893 90.852L411.785 87.96C410.568 87.4018 410.295 86.2863 411.117 85.1949Z" fill="#EDEDED"/>
<path d="M402.717 83.9831C400.727 83.4499 397.933 84.1984 396.477 85.655C395.02 87.1116 395.453 88.7243 397.442 89.2575C399.432 89.7906 402.225 89.0421 403.682 87.5855C405.138 86.129 404.706 84.5162 402.717 83.9831Z" fill="#58A368"/>
<path d="M402.134 84.8703L402.584 84.4199L402.09 84.2877L401.629 84.7484C401.188 84.6671 400.75 84.6839 400.316 84.8C399.884 84.9148 399.538 85.1027 399.279 85.3614C399.038 85.6024 398.93 85.833 398.956 86.0519C398.981 86.2712 399.186 86.5235 399.569 86.8084L398.668 87.71C398.474 87.6456 398.282 87.5457 398.088 87.4102C397.895 87.2746 397.772 87.1502 397.718 87.0377L397.032 87.7235C397.277 87.9797 397.627 88.17 398.084 88.2941L397.561 88.8169L398.055 88.9493L398.592 88.4118C399.073 88.4944 399.516 88.4841 399.923 88.3802C400.33 88.2769 400.67 88.0886 400.944 87.8146C401.182 87.5764 401.277 87.3454 401.231 87.1206C401.184 86.8954 400.979 86.6516 400.615 86.3888L401.554 85.45C401.918 85.5873 402.187 85.7679 402.362 85.9936L403.031 85.3246C402.892 85.1656 402.593 85.015 402.134 84.8703ZM400.009 87.6077C399.809 87.8078 399.531 87.8826 399.172 87.8324L399.922 87.0817C400.143 87.271 400.171 87.4456 400.009 87.6077ZM400.265 86.113C400.066 85.9144 400.052 85.7308 400.222 85.5606C400.419 85.3627 400.696 85.285 401.05 85.3279L400.265 86.113Z" fill="#EDEDED"/>
<path d="M410.953 111.307C408.649 110.69 405.413 111.557 403.727 113.243C402.989 113.981 402.481 114.58 402.481 114.58C402.481 114.58 402.759 115.611 402.779 115.693C402.969 116.465 403.674 117.101 404.845 117.415C407.149 118.033 410.384 117.166 412.07 115.479C412.914 114.636 413.21 113.747 413.008 112.992C412.998 112.954 412.705 111.884 412.705 111.884C412.705 111.884 412.046 111.6 410.953 111.307Z" fill="url(#paint0_linear_3373_34339)"/>
<path d="M410.644 110.157C408.34 109.54 405.105 110.407 403.418 112.094C401.732 113.78 402.232 115.648 404.536 116.265C406.84 116.883 410.076 116.016 411.762 114.329C413.449 112.643 412.948 110.775 410.644 110.157Z" fill="#FED416"/>
<path d="M410.558 109.836C408.254 109.218 405.019 110.085 403.332 111.772C402.595 112.509 402.087 113.109 402.087 113.109C402.087 113.109 402.365 114.139 402.385 114.222C402.574 114.994 403.279 115.63 404.45 115.944C406.754 116.561 409.989 115.695 411.676 114.008C412.519 113.164 412.816 112.276 412.614 111.521C412.603 111.482 412.311 110.413 412.311 110.413C412.311 110.413 411.652 110.129 410.558 109.836Z" fill="url(#paint1_linear_3373_34339)"/>
<path d="M410.25 108.686C407.946 108.068 404.711 108.935 403.024 110.622C401.337 112.309 401.838 114.177 404.142 114.794C406.446 115.411 409.681 114.544 411.368 112.858C413.055 111.171 412.554 109.303 410.25 108.686Z" fill="#FED416"/>
<path d="M410.161 108.351C407.857 107.734 404.621 108.601 402.935 110.288C402.197 111.025 401.689 111.625 401.689 111.625C401.689 111.625 401.967 112.655 401.987 112.738C402.177 113.509 402.882 114.146 404.052 114.46C406.356 115.077 409.592 114.21 411.278 112.523C412.122 111.68 412.418 110.791 412.216 110.036C412.206 109.998 411.913 108.929 411.913 108.929C411.913 108.929 411.254 108.644 410.161 108.351Z" fill="url(#paint2_linear_3373_34339)"/>
<path d="M409.852 107.202C407.548 106.584 404.313 107.451 402.626 109.138C400.94 110.824 401.44 112.692 403.744 113.31C406.048 113.927 409.284 113.06 410.97 111.374C412.657 109.687 412.156 107.819 409.852 107.202Z" fill="#FED416"/>
<path d="M409.756 106.841C407.452 106.224 404.217 107.09 402.53 108.777C401.792 109.515 401.284 110.114 401.284 110.114C401.284 110.114 401.563 111.144 401.583 111.227C401.772 111.999 402.477 112.635 403.648 112.949C405.952 113.566 409.187 112.7 410.873 111.013C411.717 110.169 412.013 109.281 411.811 108.526C411.801 108.487 411.508 107.418 411.508 107.418C411.508 107.418 410.849 107.134 409.756 106.841Z" fill="url(#paint3_linear_3373_34339)"/>
<path d="M409.448 105.691C407.144 105.074 403.909 105.94 402.222 107.627C400.535 109.314 401.035 111.182 403.34 111.799C405.644 112.416 408.879 111.549 410.565 109.863C412.252 108.176 411.752 106.308 409.448 105.691Z" fill="#FED416"/>
<path d="M409.359 105.359C407.055 104.742 403.82 105.608 402.133 107.295C401.395 108.033 400.887 108.632 400.887 108.632C400.887 108.632 401.166 109.662 401.186 109.745C401.375 110.517 402.08 111.153 403.25 111.467C405.555 112.085 408.79 111.218 410.476 109.531C411.32 108.687 411.616 107.799 411.414 107.044C411.404 107.005 411.111 105.936 411.111 105.936C411.111 105.936 410.452 105.652 409.359 105.359Z" fill="url(#paint4_linear_3373_34339)"/>
<path d="M409.051 104.209C406.747 103.592 403.511 104.458 401.825 106.145C400.138 107.832 400.638 109.7 402.942 110.317C405.247 110.934 408.482 110.067 410.168 108.381C411.855 106.694 411.355 104.826 409.051 104.209Z" fill="#FED416"/>
<path d="M115.628 28.3037C120.056 25.9582 126.637 25.9449 130.326 28.2745C131.965 29.3092 132.755 30.632 132.741 31.9889L132.742 31.9883C132.742 31.9883 132.638 36.1399 132.616 36.3352L132.615 36.3658L132.613 36.3658C132.422 37.9394 131.161 39.5254 128.886 40.7305C124.458 43.0758 117.878 43.0891 114.189 40.7594C112.593 39.7527 111.803 38.4724 111.775 37.1543L111.773 37.1545L111.773 37.1215C111.773 37.0337 111.874 33.1533 111.874 33.1533L111.877 33.153C111.842 31.4253 113.119 29.6327 115.628 28.3037Z" fill="#2E373D"/>
<path d="M119.197 -16.9453L118.822 -4.7279C118.684 -0.236325 116.164 3.82319 112.215 5.91502L107.541 8.39095L112.885 11.7415L112.964 8.74401L116.348 6.95138L116.378 6.0761C116.333 4.52148 117.158 3.04448 118.567 2.29829C119.946 1.56814 121.611 1.63435 122.937 2.47127L137.882 11.9073C139.391 12.8601 140.626 14.1937 141.463 15.774C142.44 17.6187 142.806 19.6622 142.597 21.6385L142.338 29.3872C142.415 31.6432 141.743 33.8934 140.372 35.7541L140.279 39.3031C140.224 40.984 139.279 42.501 137.801 43.2839L132.427 46.1302C130.832 46.9753 128.903 46.8991 127.368 45.9297L112.227 36.3696L112.28 34.341L98.2379 26.6484C93.7297 24.6939 90.8607 20.1694 91.0116 15.2529L91.5312 -1.71772L91.5322 -1.71823C91.6456 -5.37769 93.566 -8.96887 97.2435 -10.9168L114.366 -19.9863C116.594 -21.1666 119.274 -19.4791 119.197 -16.9453Z" fill="#63DBFF"/>
<path d="M116.348 6.95138L116.246 9.99912C115.819 11.0251 115.049 11.9032 114.016 12.4504L112.885 11.7415L112.964 8.74401L116.348 6.95138Z" fill="#2EB3BD"/>
<path d="M71.3953 -0.76859C75.8233 -3.11407 82.4034 -3.12739 86.0925 -0.798258C87.7322 0.237184 88.5229 1.56101 88.5087 2.91858L88.3997 6.67396C88.4119 6.87297 88.4063 7.0726 88.3828 7.27284L88.3824 7.29325L88.3806 7.29354C88.1892 8.8672 86.928 10.4529 84.6529 11.658C80.2248 14.0035 73.6448 14.0168 69.9554 11.6872C68.3608 10.6802 67.569 9.40041 67.5397 8.0823C67.5377 7.96741 67.5393 7.8512 67.5484 7.73609L67.6404 4.08105C67.6073 2.35281 68.8861 0.560482 71.3953 -0.76859Z" fill="#23292E"/>
<path d="M71.2931 3.22274C66.8651 5.56822 66.2663 9.35807 69.9554 11.6872C73.6448 14.0168 80.2248 14.0035 84.6529 11.658C89.0809 9.31254 89.6799 5.52318 85.9906 3.19356C82.3015 0.864429 75.7211 0.877255 71.2931 3.22274Z" fill="#2E373D"/>
<path d="M74.689 5.36685C72.5116 6.52018 72.2171 8.38354 74.0311 9.52833C75.845 10.6739 79.0804 10.6675 81.2573 9.5144C83.4346 8.36107 83.7287 6.49797 81.9148 5.35243C80.1013 4.20738 76.8658 4.21378 74.689 5.36685Z" fill="#CECECE"/>
<path d="M76.1917 6.31606C75.0111 6.94138 74.8512 7.95193 75.8347 8.573C76.8189 9.19431 78.5735 9.19078 79.7541 8.56545C80.9351 7.93987 81.095 6.92932 80.1108 6.30802C79.1273 5.68694 77.3727 5.69047 76.1917 6.31606Z" fill="#2E373D"/>
<path d="M71.2931 3.22274C66.8651 5.56822 66.2663 9.35807 69.9554 11.6872C73.6448 14.0168 80.2248 14.0035 84.6529 11.658C89.0809 9.31254 89.6799 5.52318 85.9906 3.19356C82.3015 0.864429 75.7211 0.877255 71.2931 3.22274Z" fill="#2E373D"/>
<path d="M74.689 5.36685C72.5116 6.52018 72.2171 8.38354 74.0311 9.52833C75.845 10.6739 79.0804 10.6675 81.2573 9.5144C83.4346 8.36107 83.7287 6.49797 81.9148 5.35243C80.1013 4.20738 76.8658 4.21378 74.689 5.36685Z" fill="#CECECE"/>
<path d="M76.1917 6.31606C75.0111 6.94138 74.8512 7.95193 75.8347 8.573C76.8189 9.19431 78.5735 9.19078 79.7541 8.56545C80.9351 7.93987 81.095 6.92932 80.1108 6.30802C79.1273 5.68694 77.3727 5.69047 76.1917 6.31606Z" fill="#2E373D"/>
<path d="M108.77 13.5375C109.83 14.0413 111.061 14.0157 112.093 13.4691L114.016 12.4504C115.051 11.9022 115.814 11.0188 116.241 9.99003L116.246 9.99141L116.09 14.665C116.037 15.1367 116.063 15.623 116.178 16.1058C116.705 18.3027 115.689 20.5705 113.706 21.6208L111.589 22.742C110.718 23.2035 109.651 23.0762 108.905 22.4224L99.441 12.6813L102.715 10.9469L108.77 13.5375Z" fill="#23868E"/>
<path d="M108.905 22.4224C109.651 23.0762 110.718 23.2035 111.589 22.742L113.706 21.6208C115.689 20.5705 116.705 18.3027 116.178 16.1058C115.735 14.2583 116.59 12.3514 118.257 11.4682C119.635 10.7381 121.301 10.8043 122.627 11.6412L137.571 21.0775C139.081 22.0301 140.316 23.3637 141.153 24.944C143.003 28.4374 142.666 32.6415 140.372 35.7541L140.446 32.9507C140.502 31.2703 139.661 29.6821 138.239 28.7845L135.382 26.9803C132.748 25.3175 129.696 24.453 126.594 24.4914C124.056 24.5233 121.566 25.1579 119.327 26.3441L113.577 29.3895L106.957 25.1957L96.2905 14.3519L99.441 12.6813L108.905 22.4224Z" fill="#2EB3BD"/>
<path d="M138.559 5.36L145.901 9.99538C146.535 10.3958 146.91 11.1035 146.885 11.8528L146.595 20.5305C146.583 20.8676 146.392 21.1345 146.133 21.2719L141.673 23.6342C141.414 23.7717 141.085 23.7797 140.801 23.5997L133.459 18.9643C132.825 18.5639 132.45 17.8564 132.475 17.1069L132.765 8.42916C132.776 8.09882 132.962 7.83951 133.213 7.6995L133.212 7.69655L133.223 7.69034C133.226 7.68904 133.228 7.68775 133.231 7.6862L137.67 5.33476C137.932 5.18906 138.268 5.17594 138.559 5.36Z" fill="#2E373D"/>
<path d="M145.26 21.2377L137.918 16.6025C137.284 16.2021 136.909 15.4944 136.934 14.7451L137.224 6.06711C137.247 5.39224 137.988 4.99935 138.559 5.36L145.901 9.99538C146.535 10.3958 146.91 11.1035 146.885 11.8528L146.595 20.5305C146.572 21.2052 145.83 21.5978 145.26 21.2377Z" fill="#627681"/>
<path d="M112.227 36.3696L119.161 32.6968C121.4 31.5109 123.89 30.8755 126.428 30.8441C129.53 30.8057 132.582 31.6702 135.215 33.3328L138.073 35.1367C139.495 36.0348 140.336 37.6225 140.28 39.3034C140.224 40.984 139.279 42.501 137.801 43.2839L132.427 46.1302C130.832 46.9753 128.903 46.8991 127.368 45.9297L112.227 36.3696Z" fill="#2EB3BD"/>
<path d="M76.4732 4.68333C78.1057 3.81859 79.9218 3.35581 81.7712 3.33291C84.0332 3.30451 86.2585 3.93459 88.1784 5.14686L90.2613 6.4625C91.2982 7.11705 91.9114 8.27463 91.8703 9.50015C91.8295 10.7249 91.141 11.8314 90.0635 12.4021L86.0538 14.5261C85.0286 15.0691 83.7568 14.7684 83.0729 13.821L76.4732 4.68333Z" fill="#2EB3BD"/>
<path d="M82.0515 -6.07649C84.3135 -6.10489 86.5388 -5.47481 88.4587 -4.26254L90.5416 -2.9469C91.5785 -2.29235 92.1919 -1.13428 92.1506 0.0907513L91.8706 9.4994C91.9111 8.27414 91.2979 7.11656 90.2613 6.4625L88.1784 5.14686C86.2585 3.93459 84.0332 3.30451 81.7712 3.33291C79.9218 3.35581 78.1057 3.81859 76.4732 4.68333L76.7534 -4.72607C78.386 -5.59081 80.2015 -6.05333 82.0515 -6.07649Z" fill="#63DBFF"/>
<path d="M115.646 -20.3612C116.074 -20.3939 116.497 -20.3394 116.894 -20.211C117.29 -20.0821 117.661 -19.8793 117.984 -19.6155C118.629 -19.0882 119.084 -18.3177 119.179 -17.4102C119.195 -17.259 119.201 -17.1039 119.197 -16.9453L118.822 -4.7279C118.77 -3.04369 118.384 -1.42024 117.712 0.0618086C116.593 2.53147 114.683 4.60769 112.215 5.91502L96.4725 14.2536C94.1681 15.4742 92.5562 17.3408 91.6441 19.4639C91.1938 18.1319 90.9668 16.7111 91.0116 15.2529L91.5312 -1.71772L91.5322 -1.71823C91.6463 -5.37746 93.5665 -8.96913 97.2435 -10.9168L114.366 -19.9863C114.783 -20.2081 115.217 -20.3282 115.646 -20.3612Z" fill="#2EB3BD"/>
<path d="M123.823 -0.25678C123.772 -0.228879 123.724 -0.198283 123.676 -0.166442C124.071 -0.43105 124.559 -0.561261 125.073 -0.495462L134.064 0.660794C135.21 0.808101 136.058 1.81034 136.017 2.96844L135.666 12.8602C135.646 13.439 135.298 13.8802 134.843 14.0836L134.846 14.0876L131.161 16.0396L131.158 16.0354C130.707 16.2604 130.14 16.2494 129.677 15.8896L120.994 9.12598C119.673 8.09691 118.924 6.49411 118.981 4.8217L119.029 3.44952C119.057 2.6616 119.521 2.00874 120.169 1.68667L120.164 1.6803L123.822 -0.257014L123.823 -0.25678Z" fill="#2E373D"/>
<path d="M135.667 12.8594L136.017 2.96844C136.058 1.81034 135.21 0.808101 134.064 0.660794L125.073 -0.495462C123.876 -0.649443 122.81 0.258609 122.768 1.46823L122.721 2.84042C122.662 4.51308 123.412 6.11588 124.733 7.14495L133.416 13.9083C134.318 14.6106 135.626 14.0004 135.667 12.8594Z" fill="#627681"/>
<path d="M118.919 -7.89671C117.916 -8.53007 116.656 -8.58001 115.614 -8.02793L101.699 -0.657078C99.9855 0.250366 97.914 0.168379 96.266 -0.872116L91.4026 1.70398L91.2721 6.74767L118.919 -7.89671Z" fill="#23868E"/>
<path d="M101.812 -4.06228L115.727 -11.4329C116.769 -11.985 118.029 -11.9353 119.032 -11.3017L118.919 -7.89671C117.916 -8.53007 116.656 -8.58001 115.614 -8.02793L101.699 -0.657078C99.9855 0.250366 97.914 0.168379 96.266 -0.872116L91.4275 1.69078L91.5152 -1.70172L96.3787 -4.27781C98.027 -3.23683 100.098 -3.15458 101.812 -4.06228Z" fill="#63DBFF"/>
<path d="M96.266 -0.872116L96.3787 -4.27781L91.5152 -1.70172L91.4026 1.70398L96.266 -0.872116Z" fill="#EDEDED"/>
<path d="M120.65 -29.3382C121.487 -29.7818 122.731 -29.7838 123.428 -29.3434C123.736 -29.1495 123.876 -28.9019 123.877 -28.6474C123.877 -28.6083 123.88 -28.5696 123.873 -28.5307L123.677 -22.4806L119.748 -22.3082L119.95 -28.327C119.89 -28.6815 120.13 -29.0628 120.65 -29.3382Z" fill="#2E373D"/>
<path d="M120.451 -23.1602C119.614 -22.7169 119.5 -22.0008 120.198 -21.5604C120.895 -21.1198 122.139 -21.1225 122.976 -21.5659C123.813 -22.0092 123.927 -22.7255 123.229 -23.1659C122.531 -23.6063 121.288 -23.6036 120.451 -23.1602Z" fill="#2E373D"/>
<path d="M116.692 -7.92498C119.768 -9.55455 121.735 -12.7136 121.852 -16.2122L121.923 -17.3786C121.979 -19.0462 121.02 -20.4047 119.705 -21.0398L119.748 -22.3082L119.749 -22.3079C119.878 -23.9256 124.009 -23.9188 123.667 -22.3294L123.634 -21.3321C123.579 -19.659 124.414 -18.0774 125.829 -17.1816L125.828 -17.1794C126.787 -16.4558 127.43 -15.2993 127.384 -13.9284C127.347 -9.00258 123.16 -5.97945 123.029 -1.22059C123.029 0.288437 119.349 0.564198 119.103 -0.900443C119.126 -1.58005 119.148 -2.25914 119.171 -2.93874C119.225 -4.58745 118.398 -6.14436 117 -7.02085L115.547 -7.93252C115.884 -7.75015 116.306 -7.72051 116.692 -7.92498Z" fill="#63DBFF"/>
<path d="M119.803 -1.91141C120.64 -2.35478 121.884 -2.357 122.581 -1.91662C122.889 -1.72269 123.029 -1.47458 123.029 -1.22059L123.029 -1.21984C123.029 -1.18128 122.832 4.87826 122.832 4.87826C122.875 5.22441 122.635 5.59254 122.129 5.86094C121.292 6.30431 120.048 6.30703 119.35 5.86664C119.001 5.64571 118.855 5.35616 118.902 5.06614L119.102 -0.899925C119.042 -1.25468 119.283 -1.63602 119.803 -1.91141Z" fill="#2E373D"/>
<path d="M119.603 4.26659C118.766 4.70996 118.653 5.426 119.35 5.86664C120.048 6.30703 121.292 6.30431 122.129 5.86094C122.966 5.41757 123.079 4.70127 122.382 4.26088C121.684 3.8205 120.44 3.82322 119.603 4.26659Z" fill="#627681"/>
<path d="M116.032 1.55194C117.92 4.30099 120.086 -4.14942 120.118 -4.85933C120.146 -5.46789 120.502 -6.00657 119.667 -6.32896C118.623 -6.7326 118.476 -4.51754 118.344 -4.02152C118.012 -2.77509 117.662 -0.471263 116.628 0.437367C116.12 0.48366 115.794 1.10308 116.032 1.55194C115.963 1.4225 116.147 1.76947 116.032 1.55194Z" fill="#2E373D"/>
<path d="M119.03 -19.4763C119.622 -18.3576 120.343 -19.6213 120.44 -20.1945C120.56 -20.9012 120.299 -21.9297 120.205 -22.638C119.995 -24.2066 119.782 -26.4772 118.696 -27.7347C118.327 -28.1615 117.364 -28.9989 116.952 -28.0887C116.679 -27.4865 117.585 -26.729 117.844 -26.194C118.304 -25.247 118.45 -24.0019 118.61 -22.9736C118.768 -21.9534 118.558 -20.3677 119.03 -19.4763Z" fill="#2E373D"/>
<path d="M116.692 -7.92498C115.862 -7.48576 114.865 -8.11525 114.897 -9.05848L115.276 -19.453C115.298 -20.0961 115.659 -20.6769 116.224 -20.9764C118.857 -22.3709 122.023 -20.3716 121.923 -17.3786L121.852 -16.2122C121.735 -12.7136 119.768 -9.55455 116.692 -7.92498Z" fill="#CECECE"/>
<path d="M120.293 -18.7132C119.717 -19.799 118.24 -20.5166 116.856 -19.7833C116.714 -19.7083 116.623 -19.5614 116.617 -19.3953L116.246 -9.21985C118.784 -10.6488 120.412 -13.3294 120.512 -16.3022C120.562 -17.1205 120.695 -17.9529 120.293 -18.7132Z" fill="#EDEDED"/>
<path d="M470.629 194.628L471.82 194.961L484.583 199.511L483.43 201.941L467.182 201.898L470.629 194.628Z" fill="#23292E"/>
<path d="M469.464 199.358L476.657 199.551L483.43 201.941L484.583 199.511L471.82 194.961L469.464 199.358Z" fill="#2E373D"/>
<path d="M431.14 294.535C432.033 294.022 432.511 292.956 432.238 291.909L417.99 237.255C417.662 236 416.381 235.247 415.127 235.572C413.874 235.899 413.123 237.18 413.45 238.436L427.698 293.09C428.025 294.344 429.307 295.098 430.561 294.771C430.769 294.718 430.962 294.638 431.14 294.535Z" fill="#CECECE"/>
<path d="M455.786 204.868C457.836 201.33 460.601 199.673 463.476 199.817L470.717 199.788C474.23 199.468 478.013 201.91 480.922 206.973C485.922 215.676 486.447 228.822 482.094 236.336C480.068 239.833 477.343 241.493 474.503 241.392L466.843 241.437C463.422 241.586 459.78 239.141 456.959 234.231C451.958 225.528 451.433 212.382 455.786 204.868Z" fill="#23292E"/>
<path d="M465.157 234.183C470.158 242.887 477.74 243.85 482.094 236.336C486.447 228.822 485.922 215.676 480.922 206.973C475.921 198.27 468.339 197.306 463.985 204.82C459.632 212.334 460.157 225.48 465.157 234.183Z" fill="#2E373D"/>
<path d="M468.178 228.969C471.262 234.336 475.939 234.931 478.624 230.297C481.309 225.663 480.985 217.554 477.901 212.187C474.817 206.819 470.141 206.225 467.456 210.859C464.771 215.494 465.094 223.601 468.178 228.969Z" fill="#CECECE"/>
<path d="M451.909 244.671L467.078 218.489C467.952 216.982 469.544 216.037 471.284 215.99C472.547 215.552 474.063 215.991 474.819 217.307C476.241 219.781 476.237 222.826 474.809 225.294L457.732 254.806L451.909 244.671Z" fill="#23292E"/>
<path d="M457.158 216.743L461.355 224.047C462.24 225.588 462.238 227.483 461.348 229.019L455.996 238.256C454.643 240.779 454.688 243.824 456.116 246.309L458.306 250.12C459.656 252.47 459.651 255.361 458.294 257.703L453.952 265.199C453.392 266.165 452.414 266.646 451.438 266.642L433.519 266.619C433.441 266.622 433.362 266.622 433.284 266.619C432.347 266.579 431.425 266.1 430.891 265.17C429.568 262.867 427.869 260.8 425.865 259.056L419.874 253.842L457.158 216.743Z" fill="#CECECE"/>
<path d="M451.494 230.42L458.283 218.7L461.355 224.047C462.24 225.588 462.238 227.483 461.348 229.019L455.996 238.256L451.494 230.42Z" fill="#525E65"/>
<path d="M450.07 251.238L469.711 217.295C470.848 215.33 473.687 215.336 474.819 217.307C476.241 219.781 476.237 222.826 474.809 225.294L454.916 259.673L450.07 251.238Z" fill="#525E65"/>
<path d="M440.187 203.136L440.193 198.615C440.197 196.45 440.769 194.326 441.853 192.455L445.617 185.959C446.511 184.415 448.144 183.734 449.697 183.903L466.969 183.809C468.506 183.67 470.108 184.364 470.987 185.893C472.929 189.274 472.923 193.432 470.97 196.802L456.02 222.606L431.417 218.776L440.187 203.136Z" fill="#627681"/>
<path d="M449.538 218.691L458.307 203.051L458.314 198.53C458.317 196.366 458.889 194.242 459.974 192.37L463.737 185.875C465.352 183.087 469.38 183.097 470.987 185.893C472.929 189.274 472.923 193.432 470.97 196.802L456.02 222.606L449.538 218.691Z" fill="#2E373D"/>
<path d="M458.307 203.051L440.187 203.136L431.417 218.776L449.538 218.691L458.307 203.051Z" fill="#525E65"/>
<path d="M416.985 227.337C420.046 221.927 425.785 218.59 432.001 218.606C432.17 218.607 447.881 218.683 449.416 218.69C449.635 218.683 449.854 218.678 450.074 218.679C452.36 218.685 454.471 219.911 455.611 221.895L456.02 222.606L437.914 253.858L419.842 253.785L417.023 248.879C413.191 242.21 413.176 234.011 416.985 227.337Z" fill="#E33400"/>
<path d="M456.02 222.606L437.914 253.858L435.096 248.952C431.263 242.283 431.249 234.084 435.058 227.409C438.119 221.998 443.858 218.662 450.074 218.679C452.36 218.685 454.471 219.911 455.611 221.895L456.02 222.606Z" fill="#872E02"/>
<path d="M451.494 230.42L437.914 253.858L443.905 259.072C445.908 260.816 447.607 262.883 448.931 265.186C450.043 267.122 452.833 267.129 453.952 265.199L458.294 257.703C459.652 255.36 459.656 252.47 458.306 250.12L456.116 246.309C454.688 243.824 454.643 240.779 455.996 238.256L451.494 230.42Z" fill="#82A5B9"/>
<path d="M421.169 276.595C423.218 273.057 425.984 271.4 428.859 271.543L436.1 271.515C439.613 271.194 443.396 273.636 446.305 278.7C451.305 287.402 451.83 300.549 447.477 308.062C445.451 311.559 442.725 313.219 439.887 313.118L432.227 313.164C428.805 313.313 425.162 310.868 422.341 305.958C417.34 297.255 416.815 284.109 421.169 276.595Z" fill="#23292E"/>
<path d="M418.056 274.311C420.485 270.118 423.798 268.247 427.215 268.595L436.74 268.62C440.624 268.467 444.755 271.251 447.956 276.822C450.387 281.053 451.884 286.207 452.42 291.39L451.379 291.46C449.157 291.611 447.155 290.147 446.6 287.989C446.12 286.117 445.425 284.331 444.518 282.754C441.01 276.647 435.688 275.971 432.633 281.243C432.012 282.317 431.534 283.556 431.196 284.898C430.639 287.108 428.231 288.297 426.094 287.502L425.365 287.231L418.737 287.192C417.774 287.725 416.584 287.856 415.466 287.44L414.736 287.169C414.944 282.336 416.039 277.792 418.056 274.311Z" fill="#E33400"/>
<path d="M430.54 305.91C435.541 314.613 443.124 315.576 447.477 308.062C451.83 300.549 451.305 287.402 446.305 278.7C441.304 269.996 433.721 269.033 429.368 276.547C425.015 284.061 425.539 297.207 430.54 305.91Z" fill="#2E373D"/>
<path d="M433.56 300.696C436.644 306.063 441.321 306.658 444.006 302.023C446.691 297.389 446.367 289.281 443.283 283.913C440.199 278.546 435.523 277.952 432.838 282.586C430.153 287.22 430.476 295.328 433.56 300.696Z" fill="#CECECE"/>
<path d="M436.32 295.933C437.653 298.254 439.675 298.51 440.837 296.507C441.997 294.503 441.858 290.997 440.524 288.676C439.191 286.356 437.169 286.099 436.008 288.102C434.847 290.106 434.987 293.612 436.32 295.933Z" fill="#627681"/>
<path d="M444.518 282.754C441.01 276.647 435.688 275.971 432.633 281.243C432.012 282.317 431.534 283.556 431.196 284.898C430.639 287.108 428.231 288.297 426.094 287.502L425.365 287.231C425.572 282.398 426.668 277.854 428.686 274.372C433.638 265.823 442.266 266.919 447.956 276.822C450.387 281.053 451.884 286.207 452.42 291.39L451.379 291.46C449.157 291.611 447.155 290.147 446.6 287.989C446.12 286.117 445.425 284.331 444.518 282.754Z" fill="#872E02"/>
<path d="M440.019 294.745C440.913 294.231 441.391 293.166 441.118 292.119L426.869 237.464C426.542 236.21 425.261 235.457 424.006 235.782C422.753 236.109 422.002 237.39 422.329 238.645L436.578 293.299C436.905 294.554 438.186 295.307 439.44 294.981C439.648 294.927 439.842 294.847 440.019 294.745Z" fill="#CECECE"/>
<path d="M406.359 222.479C407.062 222.075 407.535 221.317 407.536 220.447C407.539 219.151 406.49 218.097 405.194 218.094L398.231 218.076C396.936 218.072 395.884 219.12 395.882 220.417C395.88 221.713 396.928 222.766 398.224 222.77L405.187 222.789C405.614 222.79 406.015 222.677 406.359 222.479Z" fill="#2E373D"/>
<path d="M398.206 226.25L404.965 222.367C405.57 222.019 405.779 221.244 405.431 220.637C405.082 220.03 404.308 219.821 403.702 220.169L396.943 224.053C396.337 224.401 396.128 225.175 396.477 225.782C396.825 226.388 397.6 226.599 398.206 226.25Z" fill="#2E373D"/>
<path d="M430.624 238.884C433.43 237.271 435.569 234.574 436.422 231.269L439.027 221.178C439.351 219.923 438.597 218.642 437.342 218.317C436.088 217.991 434.808 218.744 434.484 219.999L431.879 230.09C431.006 233.475 427.953 235.835 424.457 235.825L415.842 235.803C413.881 235.797 412.161 234.538 411.563 232.667L407.424 219.728C407.029 218.493 405.709 217.811 404.475 218.205C403.241 218.598 402.561 219.919 402.956 221.155L407.095 234.094C408.316 237.913 411.829 240.486 415.835 240.497L424.45 240.519C426.677 240.526 428.792 239.936 430.624 238.884Z" fill="#CECECE"/>
<path d="M446.88 222.649C447.582 222.245 448.056 221.488 448.057 220.618C448.059 219.321 447.011 218.268 445.716 218.265L436.76 218.241C435.464 218.237 434.413 219.286 434.411 220.582C434.408 221.879 435.457 222.932 436.753 222.936L445.708 222.96C446.135 222.961 446.535 222.847 446.88 222.649Z" fill="#2E373D"/>
<path d="M406.286 241.672L408.616 237.65C410.822 233.843 414.891 231.504 419.291 231.516C427.402 231.538 432.458 240.337 428.392 247.355L424.251 254.645C423.558 256.028 422.051 256.871 419.858 256.865C415.245 256.852 409.354 253.096 406.698 248.474C405.084 245.665 405.039 243.184 406.286 241.672Z" fill="#82A5B9"/>
<path d="M406.698 248.474C409.354 253.096 415.245 256.852 419.858 256.865C424.47 256.876 426.055 253.14 423.4 248.518C420.744 243.896 414.852 240.138 410.24 240.127C405.628 240.115 404.043 243.852 406.698 248.474Z" fill="#CECECE"/>
<path d="M409.128 248.48C411.011 251.757 415.188 254.421 418.458 254.429C421.728 254.438 422.852 251.788 420.969 248.512C419.086 245.235 414.909 242.571 411.64 242.562C408.369 242.553 407.245 245.203 409.128 248.48Z" fill="white"/>
<path d="M454.706 250.411C456.335 253.244 456.506 257.524 455.087 259.971C453.67 262.417 451.202 262.103 449.574 259.27C447.945 256.436 447.774 252.156 449.191 249.709C450.61 247.263 453.078 247.577 454.706 250.411Z" fill="white"/>
<path d="M443.138 229.409C443.221 229.362 443.3 229.304 443.373 229.235C443.883 228.759 443.91 227.957 443.433 227.445L437.365 220.946C436.888 220.435 436.087 220.406 435.576 220.883C435.065 221.361 435.038 222.163 435.516 222.675L441.584 229.174C441.993 229.612 442.64 229.696 443.138 229.409Z" fill="#2E373D"/>
<path d="M274.789 74.391L266.693 42.3019L287.094 48.1076L295.19 80.1967L274.789 74.391Z" fill="#587380"/>
<path d="M280.25 96.0644L259.848 90.2585L274.783 74.397L295.185 80.2029L280.25 96.0644Z" fill="#263238"/>
<path d="M266.687 42.3083L274.783 74.397L259.848 90.2585L251.752 58.1698L266.687 42.3083Z" fill="#37474F"/>
<path d="M266.073 47.6802L272.291 72.3235C272.507 73.183 272.129 74.4686 271.445 75.195L262.093 85.1271C261.409 85.8535 260.679 85.7457 260.462 84.8863L254.244 60.2431C254.028 59.3837 254.406 58.098 255.09 57.3716L264.442 47.4396C265.126 46.7131 265.857 46.8208 266.073 47.6802Z" fill="#263238"/>
<path d="M265.772 49.047L271.573 72.0394C271.79 72.8989 271.411 74.1845 270.727 74.911L262.394 83.7609C261.71 84.4873 260.98 84.3796 260.763 83.5202L254.962 60.5278C254.745 59.6683 255.124 58.3828 255.808 57.6563L264.141 48.8063C264.825 48.0798 265.555 48.1877 265.772 49.047Z" fill="#37474F"/>
<path d="M264.912 52.0473L269.883 71.747C270.099 72.6039 269.721 73.8857 269.039 74.6101L263.248 80.7599C262.566 81.4842 261.838 81.3767 261.622 80.5199L256.652 60.8202C256.436 59.9634 256.813 58.6814 257.495 57.957L263.286 51.8072C263.968 51.0829 264.696 51.1904 264.912 52.0473Z" fill="#B1B7F5"/>
<path d="M264.325 53.3206L266.355 61.3687L259.528 68.6197L257.497 60.5715L264.325 53.3206Z" fill="#37474F"/>
<path d="M259.887 64.7093L260.034 65.2944C260.077 65.4649 260.002 65.7198 259.867 65.8639C259.731 66.008 259.586 65.9867 259.543 65.8162L259.396 65.231C259.353 65.0605 259.428 64.8056 259.563 64.6615C259.699 64.5175 259.844 64.5388 259.887 64.7093Z" fill="#263238"/>
<path d="M259.261 62.2279L259.113 61.6427C259.07 61.4722 258.926 61.4509 258.79 61.595C258.654 61.739 258.579 61.994 258.622 62.1645L258.77 62.7496C258.813 62.92 258.958 62.9414 259.093 62.7974C259.229 62.6533 259.304 62.3983 259.261 62.2279Z" fill="#263238"/>
<path d="M261.081 63.1521C261.298 62.9219 261.538 62.9902 261.617 63.3047C261.697 63.6191 261.585 64.0607 261.368 64.2909C261.152 64.5211 260.912 64.4528 260.832 64.1383C260.753 63.8239 260.864 63.3823 261.081 63.1521Z" fill="#B1B7F5"/>
<path d="M261.167 63.4938C261.254 63.4017 261.35 63.4291 261.382 63.5549C261.414 63.6807 261.369 63.8573 261.282 63.9494C261.196 64.0414 261.1 64.0141 261.068 63.8883C261.036 63.7625 261.081 63.5858 261.167 63.4938Z" fill="#37474F"/>
<path d="M260.683 61.569C260.899 61.3389 261.139 61.4072 261.219 61.7216C261.298 62.0361 261.187 62.4776 260.97 62.7079C260.753 62.938 260.513 62.8698 260.434 62.5553C260.354 62.2408 260.466 61.7993 260.683 61.569Z" fill="#B1B7F5"/>
<path d="M260.769 61.9108C260.856 61.8187 260.951 61.8461 260.983 61.9718C261.015 62.0976 260.97 62.2742 260.884 62.3663C260.797 62.4583 260.701 62.431 260.669 62.3053C260.638 62.1795 260.682 62.0029 260.769 61.9108Z" fill="#37474F"/>
<path d="M260.284 59.9867C260.5 59.7565 260.74 59.8248 260.82 60.1393C260.899 60.4537 260.788 60.8952 260.571 61.1255C260.354 61.3557 260.114 61.2873 260.035 60.9729C259.955 60.6584 260.067 60.2168 260.284 59.9867Z" fill="#B1B7F5"/>
<path d="M260.37 60.3283C260.456 60.2362 260.552 60.2635 260.584 60.3894C260.616 60.5151 260.571 60.6918 260.485 60.7839C260.398 60.8759 260.302 60.8486 260.27 60.7228C260.238 60.597 260.283 60.4204 260.37 60.3283Z" fill="#37474F"/>
<path d="M262.19 61.9747C262.406 61.7445 262.646 61.8128 262.726 62.1273C262.805 62.4417 262.694 62.8832 262.477 63.1135C262.26 63.3437 262.02 63.2754 261.941 62.9609C261.862 62.6465 261.973 62.2049 262.19 61.9747Z" fill="#B1B7F5"/>
<path d="M262.276 62.3163C262.363 62.2242 262.459 62.2516 262.49 62.3775C262.522 62.5033 262.478 62.6798 262.391 62.7719C262.304 62.864 262.208 62.8367 262.176 62.711C262.145 62.5851 262.189 62.4084 262.276 62.3163Z" fill="#37474F"/>
<path d="M261.79 60.3926C262.007 60.1625 262.247 60.2308 262.326 60.5452C262.406 60.8597 262.294 61.3012 262.078 61.5315C261.861 61.7616 261.621 61.6933 261.541 61.3789C261.462 61.0644 261.573 60.6229 261.79 60.3926Z" fill="#B1B7F5"/>
<path d="M261.876 60.7344C261.963 60.6423 262.059 60.6696 262.091 60.7955C262.123 60.9213 262.078 61.0978 261.991 61.19C261.905 61.282 261.809 61.2548 261.777 61.1289C261.745 61.003 261.79 60.8264 261.876 60.7344Z" fill="#37474F"/>
<path d="M261.391 58.8105C261.608 58.5803 261.848 58.6487 261.927 58.9631C262.006 59.2776 261.895 59.7191 261.678 59.9493C261.461 60.1795 261.221 60.1112 261.142 59.7967C261.063 59.4822 261.174 59.0407 261.391 58.8105Z" fill="#B1B7F5"/>
<path d="M261.477 59.1521C261.564 59.06 261.66 59.0872 261.692 59.2131C261.723 59.3388 261.679 59.5155 261.592 59.6076C261.506 59.6997 261.409 59.6724 261.378 59.5465C261.346 59.4208 261.39 59.2442 261.477 59.1521Z" fill="#37474F"/>
<path d="M263.298 60.798C263.514 60.5678 263.754 60.6361 263.834 60.9506C263.913 61.265 263.802 61.7066 263.585 61.9368C263.368 62.167 263.128 62.0987 263.049 61.7842C262.97 61.4698 263.081 61.0282 263.298 60.798Z" fill="#B1B7F5"/>
<path d="M263.384 61.1397C263.471 61.0476 263.567 61.0749 263.598 61.2008C263.63 61.3267 263.586 61.5032 263.499 61.5953C263.412 61.6873 263.316 61.6601 263.284 61.5343C263.253 61.4084 263.297 61.2317 263.384 61.1397Z" fill="#37474F"/>
<path d="M262.899 59.2153C263.116 58.9851 263.356 59.0534 263.435 59.3679C263.514 59.6823 263.403 60.1238 263.186 60.3541C262.969 60.5843 262.729 60.5159 262.65 60.2015C262.571 59.887 262.682 59.4454 262.899 59.2153Z" fill="#B1B7F5"/>
<path d="M262.985 59.557C263.072 59.4649 263.168 59.4921 263.2 59.618C263.231 59.7438 263.187 59.9204 263.1 60.0126C263.013 60.1046 262.917 60.0773 262.886 59.9515C262.854 59.8257 262.898 59.6491 262.985 59.557Z" fill="#37474F"/>
<path d="M262.5 57.6328C262.717 57.4026 262.957 57.4709 263.036 57.7854C263.115 58.0998 263.004 58.5413 262.787 58.7716C262.57 59.0018 262.33 58.9334 262.251 58.619C262.172 58.3045 262.283 57.8629 262.5 57.6328Z" fill="#B1B7F5"/>
<path d="M262.586 57.9743C262.673 57.8823 262.769 57.9096 262.801 58.0354C262.832 58.1611 262.788 58.3378 262.701 58.4299C262.614 58.522 262.518 58.4947 262.487 58.3688C262.455 58.2431 262.499 58.0664 262.586 57.9743Z" fill="#37474F"/>
<path d="M264.407 59.6197C264.624 59.3896 264.864 59.4578 264.943 59.7723C265.023 60.0868 264.911 60.5284 264.694 60.7586C264.478 60.9887 264.238 60.9204 264.158 60.606C264.079 60.2916 264.19 59.85 264.407 59.6197Z" fill="#B1B7F5"/>
<path d="M264.493 59.9614C264.58 59.8693 264.676 59.8967 264.708 60.0225C264.74 60.1483 264.695 60.3249 264.608 60.4169C264.522 60.509 264.426 60.4817 264.394 60.3559C264.362 60.2301 264.407 60.0535 264.493 59.9614Z" fill="#37474F"/>
<path d="M264.008 58.0372C264.225 57.8071 264.465 57.8754 264.544 58.1898C264.624 58.5043 264.512 58.9458 264.295 59.1761C264.079 59.4062 263.839 59.338 263.759 59.0235C263.68 58.709 263.791 58.2674 264.008 58.0372Z" fill="#B1B7F5"/>
<path d="M264.094 58.3789C264.181 58.2869 264.277 58.3141 264.309 58.4399C264.341 58.5658 264.296 58.7423 264.209 58.8344C264.123 58.9265 264.027 58.8993 263.995 58.7734C263.963 58.6476 264.008 58.471 264.094 58.3789Z" fill="#37474F"/>
<path d="M263.609 56.4544C263.826 56.2242 264.066 56.2925 264.145 56.607C264.225 56.9215 264.113 57.363 263.897 57.5932C263.68 57.8234 263.44 57.7551 263.361 57.4406C263.281 57.1261 263.393 56.6846 263.609 56.4544Z" fill="#B1B7F5"/>
<path d="M263.696 56.796C263.782 56.7039 263.878 56.7312 263.91 56.857C263.942 56.9828 263.897 57.1595 263.811 57.2516C263.724 57.3437 263.628 57.3164 263.596 57.1905C263.564 57.0647 263.609 56.8881 263.696 56.796Z" fill="#37474F"/>
<path d="M264.246 70.1644C265.364 68.9769 266.603 69.3293 267.012 70.9515C267.421 72.5738 266.847 74.8515 265.728 76.0391C264.61 77.2267 263.372 76.8742 262.963 75.252C262.554 73.6298 263.128 71.352 264.246 70.1644Z" fill="#37474F"/>
<path d="M264.411 70.8202C265.119 70.0685 265.89 70.1102 266.323 70.8313C266.421 70.9968 266.503 71.1975 266.561 71.4282C266.62 71.6632 266.653 71.9149 266.659 72.1791C266.7 73.3218 266.271 74.6377 265.564 75.3895C264.856 76.1414 264.084 76.0996 263.654 75.371C263.552 75.2088 263.471 75.008 263.411 74.7729C263.353 74.5423 263.32 74.2906 263.311 74.0295C263.274 72.888 263.703 71.572 264.411 70.8202Z" fill="#263238"/>
<path d="M263.311 74.0295L266.323 70.8313C266.421 70.9968 266.503 71.1975 266.561 71.4282C266.62 71.6632 266.653 71.9149 266.659 72.1791L263.654 75.371C263.552 75.2088 263.471 75.008 263.411 74.7729C263.353 74.5423 263.32 74.2906 263.311 74.0295Z" fill="#37474F"/>
<path d="M264.692 71.9329C265.137 71.4603 265.63 71.6006 265.793 72.2462C265.956 72.892 265.727 73.7986 265.282 74.2713C264.837 74.744 264.344 74.6038 264.181 73.958C264.018 73.3123 264.247 72.4056 264.692 71.9329Z" fill="#37474F"/>
<path d="M273.636 259.927C273.464 258.994 273.403 258.035 273.462 257.067L274.212 244.857L304.375 232.678L316.721 259.836C314.695 262.891 311.774 265.33 308.256 266.75L293.713 272.623C292.075 273.285 290.331 273.509 288.631 273.329L288.587 273.567C286.767 273.309 285.011 272.579 283.511 271.406L277.97 267.071C275.675 265.277 274.154 262.723 273.636 259.927Z" fill="#FFD613"/>
<path d="M319.243 210.782L319.848 198.633C317.864 195.225 316.801 191.301 317.243 188.143C317.961 183.025 322.359 181.861 327.067 185.544C331.775 189.227 335.01 196.361 334.293 201.479C333.953 203.905 332.785 205.441 331.15 205.995L319.243 210.782Z" fill="#23292E"/>
<path d="M324.268 256.903C324.133 256.967 311.943 261.859 311.943 261.859L312.547 249.711C310.563 246.302 309.5 242.378 309.942 239.22C310.66 234.102 315.058 232.938 319.766 236.621C324.474 240.304 327.71 247.438 326.992 252.556C326.682 254.769 325.683 256.241 324.269 256.903L324.268 256.903Z" fill="#23292E"/>
<path d="M273.636 259.927C273.464 258.994 273.403 258.035 273.462 257.067L274.212 244.857L304.375 232.678L316.721 259.836C314.695 262.891 311.774 265.33 308.256 266.75L293.713 272.623C292.075 273.285 290.331 273.509 288.631 273.329L288.587 273.567C286.767 273.309 285.011 272.579 283.511 271.406L277.97 267.071C275.675 265.277 274.154 262.723 273.636 259.927Z" fill="#FFD613"/>
<path d="M273.636 259.927C273.464 258.994 273.403 258.035 273.462 257.067L274.212 244.857L263.427 228.803L293.614 216.661L292.33 214.75C290.698 212.32 290.01 209.32 290.423 206.426L294.378 178.606C294.747 176.018 297.502 174.518 299.882 175.609L312.686 181.482C315.265 180.489 317.421 179.746 320.27 180.436C325.818 181.781 328.559 186.777 327.802 192.291L319.623 252.148C319.239 254.945 318.227 257.56 316.72 259.834L316.721 259.836C316.463 260.225 316.191 260.604 315.905 260.971L315.903 260.971C314.509 262.763 312.786 264.299 310.804 265.483L301.064 257.864C297.874 255.369 296.228 251.383 296.732 247.371L298.248 235.152L280.54 242.302L278.731 255.216C278.277 258.447 279.585 261.679 282.16 263.693L293.691 272.713C291.953 273.395 288.309 273.348 288.309 273.348C286.492 273.091 284.678 272.318 283.233 271.188L277.97 267.071C275.675 265.277 274.154 262.723 273.636 259.927C274.154 262.723 273.464 258.994 273.636 259.927Z" fill="#E7C712"/>
<path d="M323.86 181.949C327.116 183.917 328.324 188.488 327.802 192.291L319.623 252.148C319.174 255.423 317.866 258.452 315.905 260.971L308.132 254.892C305.074 252.5 303.388 248.758 303.626 244.888L304.375 232.678L292.33 214.75C290.698 212.32 290.01 209.32 290.423 206.426L294.378 178.606C294.747 176.018 297.502 174.518 299.882 175.609L312.686 181.482C313.184 181.29 317.758 178.263 323.86 181.949Z" fill="#C98000"/>
<path d="M262.168 226.929C260.525 224.483 259.845 221.518 260.26 218.605L264.216 190.785C264.42 189.35 265.36 188.252 266.561 187.742L266.561 187.739L266.602 187.723C266.609 187.72 266.616 187.717 266.623 187.714L296.451 175.691C297.323 175.241 298.364 175.114 299.373 175.419L293.614 216.661L263.427 228.803L262.168 226.929Z" fill="#EDEDED"/>
<path d="M293.614 216.661L292.33 214.75C290.688 212.304 290.008 209.339 290.423 206.426L294.378 178.606C294.721 176.201 297.125 174.739 299.373 175.419L293.614 216.661Z" fill="#CECECE"/>
<path d="M317.168 255.155C321.876 258.838 326.275 257.674 326.992 252.556C327.71 247.438 324.474 240.304 319.766 236.621C315.058 232.938 310.66 234.102 309.942 239.22C309.225 244.338 312.46 251.473 317.168 255.155Z" fill="#2E373D"/>
<path d="M317.828 250.444C320.143 252.255 322.306 251.683 322.659 249.167C323.011 246.65 321.42 243.142 319.106 241.332C316.791 239.521 314.628 240.093 314.276 242.61C313.923 245.126 315.514 248.634 317.828 250.444Z" fill="#CECECE"/>
<path d="M318.121 248.359C319.377 249.341 320.549 249.031 320.74 247.666C320.931 246.301 320.069 244.399 318.814 243.417C317.558 242.434 316.385 242.745 316.194 244.11C316.002 245.475 316.865 247.377 318.121 248.359Z" fill="#627681"/>
<path d="M324.469 204.078C329.177 207.762 333.575 206.598 334.293 201.479C335.01 196.361 331.775 189.227 327.067 185.544C322.359 181.861 317.96 183.025 317.243 188.143C316.525 193.261 319.761 200.396 324.469 204.078Z" fill="#2E373D"/>
<path d="M325.129 199.367C327.444 201.178 329.607 200.606 329.959 198.09C330.312 195.574 328.721 192.066 326.407 190.255C324.092 188.444 321.929 189.016 321.577 191.533C321.224 194.049 322.815 197.557 325.129 199.367Z" fill="#CECECE"/>
<path d="M325.421 197.283C326.677 198.265 327.85 197.954 328.041 196.59C328.232 195.224 327.369 193.322 326.114 192.34C324.858 191.358 323.686 191.668 323.495 193.033C323.303 194.398 324.166 196.301 325.421 197.283Z" fill="#627681"/>
<path d="M290.965 220.338L268.216 229.563C267.194 229.978 266.814 231.228 267.433 232.143L272.92 240.268C273.696 241.416 275.168 241.87 276.454 241.358L299.017 232.369C300.027 231.966 300.421 230.746 299.839 229.827L294.563 221.495C293.8 220.29 292.285 219.803 290.965 220.338Z" fill="#304E75"/>
<path d="M306.037 229.544L298.651 219.281C297.288 217.386 296.708 215.041 297.031 212.733L298.162 204.516C298.333 203.293 299.766 202.717 300.74 203.479L308.778 209.767L306.037 229.544Z" fill="#243B58"/>
<path d="M275.994 240.715L268.608 230.452C268.418 230.188 268.247 229.913 268.088 229.633C268.131 229.611 268.169 229.581 268.216 229.563L278.095 225.557L275.994 240.715Z" fill="#59718B"/>
<path d="M309.168 206.99L300.835 200.472C299.775 199.643 299.253 198.301 299.474 196.975L301.643 184.008C301.964 182.094 304.004 180.999 305.78 181.79L312.34 184.706L309.168 206.99Z" fill="#243B58"/>
<path d="M299.977 255.848C301.51 257.047 304.019 257.51 305.58 256.881C307.142 256.254 307.164 254.772 305.632 253.573C304.098 252.373 301.59 251.911 300.028 252.539C298.467 253.167 298.444 254.649 299.977 255.848Z" fill="white"/>
<path d="M276.418 265.088C277.754 266.133 279.938 266.537 281.299 265.99C282.659 265.442 282.679 264.152 281.343 263.107C280.007 262.062 277.822 261.659 276.462 262.206C275.102 262.754 275.082 264.043 276.418 265.088Z" fill="white"/>
<path d="M304.997 260.94L300.983 257.801C300.144 257.145 299.122 256.769 298.058 256.723L296.371 256.652C295.455 256.613 294.542 256.772 293.693 257.116L284.188 260.965C283.524 261.234 283.012 261.779 282.784 262.457C282.5 263.301 282.78 264.232 283.482 264.781L287.556 267.967C288.461 268.675 289.674 268.848 290.738 268.42L304.738 262.788C305.507 262.478 305.651 261.452 304.997 260.94Z" fill="#CECECE"/>
<path d="M284.286 262.595C284.212 262.69 284.156 262.794 284.118 262.907C284.025 263.185 284.118 263.493 284.349 263.674L288.422 266.86C288.929 267.257 289.614 267.354 290.21 267.114L303.68 261.696L300.117 258.909C299.507 258.432 298.776 258.162 298.002 258.129L296.315 258.058C295.595 258.027 294.892 258.149 294.224 258.419L284.719 262.269C284.55 262.338 284.399 262.451 284.286 262.595Z" fill="#2E373D"/>
<path d="M317.216 255.913C318.535 256.945 319.206 258.602 318.973 260.259C318.734 261.965 317.603 263.414 316.006 264.059L288.975 274.91C287.495 275.509 285.805 275.271 284.545 274.285L284.154 273.98C283.336 273.34 283.518 272.055 284.481 271.671L311.661 260.825C313.27 260.178 314.408 258.716 314.64 256.996L314.645 256.954C314.811 255.731 316.242 255.151 317.216 255.913Z" fill="#CECECE"/>
</g>
<defs>
<linearGradient id="paint0_linear_3373_34339" x1="393.925" y1="100.337" x2="380.326" y2="107.84" gradientUnits="userSpaceOnUse">
<stop stop-color="#F5C314"/>
<stop offset="1" stop-color="#EBB90A"/>
</linearGradient>
<linearGradient id="paint1_linear_3373_34339" x1="393.925" y1="100.337" x2="380.326" y2="107.839" gradientUnits="userSpaceOnUse">
<stop stop-color="#F5C314"/>
<stop offset="1" stop-color="#EBB90A"/>
</linearGradient>
<linearGradient id="paint2_linear_3373_34339" x1="393.925" y1="100.337" x2="380.326" y2="107.839" gradientUnits="userSpaceOnUse">
<stop stop-color="#F5C314"/>
<stop offset="1" stop-color="#EBB90A"/>
</linearGradient>
<linearGradient id="paint3_linear_3373_34339" x1="393.925" y1="100.337" x2="380.326" y2="107.84" gradientUnits="userSpaceOnUse">
<stop stop-color="#F5C314"/>
<stop offset="1" stop-color="#EBB90A"/>
</linearGradient>
<linearGradient id="paint4_linear_3373_34339" x1="393.925" y1="100.338" x2="380.326" y2="107.84" gradientUnits="userSpaceOnUse">
<stop stop-color="#F5C314"/>
<stop offset="1" stop-color="#EBB90A"/>
</linearGradient>
<clipPath id="clip0_3373_34339">
<rect width="536" height="290" fill="white"/>
</clipPath>
</defs>
</svg>
