<svg width="115" height="93" viewBox="0 0 115 93" fill="none" xmlns="http://www.w3.org/2000/svg">
<g id="Vector">
<path d="M10.8994 39.9788C11.801 39.4036 12.7778 38.934 13.815 38.5857L26.9057 34.1936L52.5429 60.4921L29.4196 84.8768C25.3584 84.0581 21.5581 82.0451 18.5685 78.978L6.20683 66.2987C4.81426 64.8706 3.83439 63.1467 3.29539 61.2972L3.02761 61.3522C2.51895 59.3439 2.53109 57.2041 3.11676 55.1422L5.28016 47.5257C6.17496 44.3724 8.19555 41.7037 10.8994 39.9788Z" fill="#FFD613"/>
<path d="M81.8016 66.7212L94.7653 62.2036C97.4814 58.6904 101.131 55.9188 104.623 55.0415C110.283 53.6217 113.381 57.7156 111.543 64.1864C109.704 70.6579 103.627 77.055 97.9667 78.4756C95.2842 79.1489 93.1792 78.5822 91.9003 77.1117L81.8016 66.7212Z" fill="#23292E"/>
<path d="M35.7148 91.5058C35.5899 91.3913 25.2613 80.7507 25.2613 80.7507L38.2243 76.2329C40.9406 72.7189 44.5904 69.9473 48.0819 69.0708C53.7418 67.6502 56.8398 71.7441 55.0016 78.2156C53.1636 84.6864 47.0856 91.0843 41.4259 92.5041C38.9792 93.1185 37.0128 92.7005 35.7154 91.5068L35.7148 91.5058Z" fill="#23292E"/>
<path d="M10.8994 39.9788C11.801 39.4036 12.7778 38.934 13.815 38.5857L26.9057 34.1936L52.5429 60.4921L29.4196 84.8768C25.3584 84.0581 21.5581 82.0451 18.5685 78.978L6.20683 66.2987C4.81426 64.8706 3.83439 63.1467 3.29539 61.2972L3.02761 61.3522C2.51895 59.3439 2.53109 57.2041 3.11676 55.1422L5.28016 47.5257C6.17496 44.3724 8.19555 41.7037 10.8994 39.9788Z" fill="#FFD613"/>
<path d="M10.8994 39.9788C11.801 39.4036 12.7778 38.934 13.815 38.5857L26.9057 34.1936L39.0834 16.1422L64.6925 42.4814L66.1419 40.3325C67.9847 37.6012 70.8287 35.6124 74.0313 34.8162L104.819 27.1528C107.683 26.4409 110.43 28.679 110.307 31.6237L109.641 47.4661C111.782 49.7352 113.481 51.6695 113.978 54.9325C114.944 61.2894 110.891 66.2652 104.801 67.8125L38.7014 84.6463C35.6126 85.4306 32.4446 85.4835 29.4219 84.8748L29.4196 84.8768C28.9032 84.7726 28.3895 84.6493 27.8832 84.5063L27.8836 84.5047C25.4124 83.8097 23.0693 82.6635 20.9835 81.0983L24.786 67.7112C26.0313 63.3273 29.4959 59.9217 33.9077 58.747L47.3353 55.1499L32.2845 39.711L18.0048 43.296C14.4311 44.1925 11.6105 46.9254 10.6052 50.4647L6.1037 66.3128C4.64694 64.7892 3.13721 60.9694 3.13721 60.9694C2.62901 58.9656 2.66132 56.7456 3.22555 54.7592L5.28016 47.5257C6.17496 44.3724 8.19555 41.7037 10.8994 39.9788C11.801 39.4036 8.19556 41.7037 10.8994 39.9788Z" fill="#E7C712"/>
<path d="M113.93 59.3191C113.265 63.5486 109.001 66.7452 104.801 67.8125L38.7014 84.6463C35.084 85.5651 31.3574 85.4845 27.8832 84.5063L30.9176 73.8234C32.1115 69.6201 35.3039 66.276 39.453 64.8844L52.5429 60.4921L66.1419 40.3325C67.9847 37.6012 70.8287 35.6124 74.0313 34.8162L104.819 27.1528C107.683 26.4409 110.43 28.679 110.307 31.6237L109.641 47.4661C110.054 47.9047 115.177 51.3926 113.93 59.3191Z" fill="#C98000"/>
<path d="M40.5054 14.035C42.3605 11.2846 45.1708 9.31923 48.3949 8.51782L79.1812 0.855051C80.7698 0.460276 82.32 0.975225 83.3673 2.01196L83.3701 2.01104L83.4046 2.04598C83.4104 2.05286 83.4165 2.05893 83.4226 2.065L108.753 28.0804C109.597 28.799 110.175 29.8301 110.287 31.0125L64.6925 42.4814L39.0834 16.1422L40.5054 14.035Z" fill="#EDEDED"/>
<path d="M64.6925 42.4814L66.1419 40.3325C67.9976 37.5831 70.808 35.6178 74.0313 34.8162L104.819 27.1528C107.48 26.4911 110.038 28.3793 110.287 31.0125L64.6925 42.4814Z" fill="#CECECE"/>
<path d="M34.5062 83.3593C32.668 89.8308 35.7668 93.9249 41.4259 92.5041C47.0856 91.0843 53.1636 84.6864 55.0016 78.2156C56.8398 71.7441 53.7418 67.6502 48.0819 69.0708C42.4228 70.4917 36.3442 76.8885 34.5062 83.3593Z" fill="#2E373D"/>
<path d="M39.7157 82.0519C38.8119 85.2339 40.3349 87.2466 43.1174 86.5488C45.9001 85.8502 48.8885 82.7042 49.7921 79.523C50.6959 76.341 49.1728 74.3283 46.3901 75.0269C43.6077 75.7247 40.6193 78.8707 39.7157 82.0519Z" fill="#CECECE"/>
<path d="M42.0216 81.4739C41.5315 83.1994 42.357 84.2911 43.8664 83.912C45.3758 83.5329 46.9967 81.8275 47.4868 80.1021C47.9771 78.3758 47.1506 77.2846 45.6414 77.6629C44.132 78.042 42.5119 79.7476 42.0216 81.4739Z" fill="#627681"/>
<path d="M91.047 69.3308C89.2089 75.8023 92.3068 79.8962 97.9667 78.4756C103.627 77.055 109.704 70.6579 111.543 64.1864C113.381 57.7156 110.282 53.6207 104.623 55.0415C98.963 56.4622 92.885 62.86 91.047 69.3308Z" fill="#2E373D"/>
<path d="M96.2565 68.0234C95.3527 71.2054 96.8758 73.2181 99.6585 72.5195C102.441 71.8218 105.429 68.6757 106.333 65.4945C107.237 62.3125 105.714 60.2999 102.931 60.9984C100.148 61.6962 97.1601 64.8423 96.2565 68.0234Z" fill="#CECECE"/>
<path d="M98.5618 67.4444C98.0717 69.1699 98.898 70.2619 100.407 69.8836C101.917 69.5045 103.537 67.798 104.027 66.0726C104.517 64.3471 103.692 63.2553 102.182 63.6344C100.673 64.0127 99.0519 65.7189 98.5618 67.4444Z" fill="#627681"/>
<path d="M59.7137 41.2772L40.3366 21.4588C39.466 20.5686 37.996 20.702 37.3033 21.7357L31.1529 30.9018C30.2839 32.1977 30.4385 33.925 31.5244 35.049L50.5753 54.773C51.428 55.6556 52.8729 55.5497 53.5847 54.5527L60.0425 45.5199C60.9761 44.2137 60.8376 42.4268 59.7137 41.2772Z" fill="#304E75"/>
<path d="M56.5311 60.8978L64.1066 48.8453C65.5052 46.6212 67.7099 45.0218 70.2615 44.3808L79.3386 42.0791C80.6909 41.7387 81.9062 42.9889 81.5257 44.3282L78.3876 55.3764L56.5311 60.8978Z" fill="#243B58"/>
<path d="M31.9999 34.2964L39.5751 22.2447C39.7701 21.9348 39.9843 21.6399 40.2088 21.3548C40.2507 21.391 40.2977 21.4183 40.3366 21.4588L48.7518 30.0653L31.9999 34.2964Z" fill="#59718B"/>
<path d="M81.4585 54.6061L84.7116 43.1532C85.1255 41.6959 86.306 40.583 87.7868 40.2522L102.276 37.0192C104.415 36.5429 106.432 38.2065 106.365 40.3942L106.12 48.4715L81.4585 54.6061Z" fill="#243B58"/>
<path d="M26.4298 65.7234C25.8313 67.8303 26.4202 70.6431 27.7454 72.0052C29.0696 73.368 30.629 72.7636 31.2275 70.6567C31.8262 68.549 31.2371 65.737 29.9129 64.3743C28.5877 63.0122 27.0284 63.6157 26.4298 65.7234Z" fill="white"/>
<path d="M6.69063 45.0672C6.16927 46.9027 6.68117 49.3527 7.83532 50.5396C8.98947 51.7264 10.3476 51.2002 10.869 49.3648C11.3905 47.5285 10.8778 45.0782 9.72345 43.8922C8.5693 42.7053 7.21221 43.231 6.69063 45.0672Z" fill="white"/>
<path d="M23.2507 73.1165L24.8175 67.6004C25.145 66.4474 25.1012 65.2211 24.6939 64.0928L24.0467 62.3028C23.6957 61.3311 23.1393 60.4459 22.4165 59.7061L14.3258 51.4235C13.7604 50.8455 12.972 50.5417 12.1647 50.5918C11.1613 50.653 10.3071 51.3397 10.033 52.3048L8.44269 57.9036C8.08942 59.1473 8.42826 60.4861 9.33075 61.4141L21.2077 73.6295C21.8607 74.3 22.9953 74.0158 23.2507 73.1165Z" fill="#CECECE"/>
<path d="M12.663 52.2172C12.5327 52.1801 12.3994 52.1657 12.2648 52.1743C11.9345 52.1951 11.6519 52.4219 11.5618 52.7391L9.97148 58.3379C9.77353 59.0348 9.96501 59.7903 10.4703 60.3104L21.8978 72.0632L23.2887 67.1662C23.5268 66.3279 23.496 65.4506 23.1996 64.6297L22.5524 62.8398C22.2764 62.0759 21.8482 61.3946 21.2805 60.8125L13.1888 52.5305C13.0447 52.3828 12.8626 52.2738 12.663 52.2172Z" fill="#2E373D"/>
<path d="M33.7348 83.7302C33.2196 85.544 31.7728 86.9456 29.9407 87.4049C28.0539 87.879 26.0555 87.3131 24.6971 85.9207L1.78841 62.326C0.528922 61.0355 0.0554898 59.1726 0.547421 57.4407L0.699995 56.9035C1.01951 55.7786 2.44084 55.4248 3.25492 56.2661L26.2214 80.0186C27.5869 81.4225 29.6015 81.9895 31.4996 81.5031L31.5467 81.4904C32.8961 81.1448 34.115 82.3917 33.7348 83.7302Z" fill="#CECECE"/>
</g>
</svg>
