<svg width="66" height="67" viewBox="0 0 66 67" fill="none" xmlns="http://www.w3.org/2000/svg">
<g id="Vector">
<path d="M51.5833 20.4146C49.3199 16.67 48.9761 10.9379 50.8154 7.61218C51.5641 6.25838 52.5594 5.51219 53.6288 5.35564L59.0932 5.26294C60.6723 4.98676 62.424 6.00452 63.7891 8.26299C66.0526 12.0076 66.3964 17.7397 64.5571 21.0654C63.7615 22.5029 62.6885 23.2544 61.5434 23.343C61.4225 23.3521 56.2681 23.4164 56.2681 23.4164C54.6924 23.6862 52.9456 22.6684 51.5833 20.4146Z" fill="#23292E"/>
<path d="M5.12831 63.1071C2.8649 59.3625 2.52055 53.6307 4.35984 50.305C5.10882 48.9517 6.10383 48.205 7.17322 48.0485L12.6381 47.9554C14.2172 47.6793 15.9685 48.6973 17.3336 50.9558C19.5973 54.701 19.9413 60.4322 18.1015 63.7583C17.2222 65.3486 16.0025 66.0988 14.7212 66.041L9.81338 66.1095C7.89574 65.9976 6.49056 65.3609 5.12831 63.1071Z" fill="#23292E"/>
<path d="M0.636612 56.1455C-0.188275 52.7606 0.284459 49.1273 1.96396 46.0629L5.40447 39.7833L5.55724 38.0589C4.08556 28.5554 7.67247 19.6497 12.1709 11.4504C16.2644 4.86537 23.6894 2.04682 31.07 1.50082L44.6692 0.316975L44.6675 0.351118C53.0168 -0.394887 63.1538 9.41236 63.1538 9.41236L43.3635 46.2425C43.3715 46.2535 42.4645 47.9152 42.4645 47.9152L30.415 56.9003C30.884 59.6831 28.7262 62.3123 25.8176 62.3757L7.3645 62.856C3.50386 62.9403 1.44764 59.4704 0.636612 56.1455Z" fill="#2DAD57"/>
<path d="M9.47416 62.8101L7.3645 62.856C5.27612 62.9013 3.32608 61.8314 2.24851 60.0487C-0.332695 55.7783 -0.441275 50.4521 1.96396 46.0629L5.40447 39.7833L9.47416 62.8101Z" fill="#238342"/>
<path d="M38.1694 4.12634C38.1694 4.12634 31.1877 13.0592 34.0787 28.9488L36.0366 37.6139L24.2007 50.4935C21.1864 53.7735 20.693 58.6378 22.9892 62.4367L42.4645 47.9152L53.0852 28.3613L63.1538 9.41236C63.1541 9.41289 46.3174 -6.87666 38.1694 4.12634Z" fill="#045D32"/>
<path d="M44.6675 0.351118C42.2568 0.566755 39.9952 1.66113 38.1694 4.12634C38.1694 4.12634 31.1877 13.0592 34.0787 28.9488L36.0366 37.6139L5.55724 38.0589C4.05884 28.3881 7.45297 20.05 12.1709 11.4504C16.2644 4.86537 23.6894 2.04682 31.07 1.50082L44.6692 0.316975L44.6675 0.351118Z" fill="#238342"/>
<path d="M28.0799 49.3026C28.8286 47.9488 29.8239 47.2026 30.8933 47.046L36.3574 46.9528C37.9365 46.6766 39.6882 47.6944 41.0536 49.9534C43.3171 53.698 43.6609 59.4301 41.8213 62.7553C40.9419 64.3456 39.7228 65.0955 38.4418 65.0382L33.5334 65.107C31.9569 65.3766 30.2101 64.3587 28.8478 62.105C26.5841 58.3599 26.2406 52.6283 28.0799 49.3026Z" fill="#23292E"/>
<path d="M34.393 61.9966C36.6567 65.7417 39.9823 66.0815 41.8221 62.7555C43.6614 59.4298 43.3171 53.698 41.0536 49.9534C38.7902 46.2087 35.4647 45.8689 33.6251 49.1941C31.7852 52.5202 32.1296 58.252 34.393 61.9966Z" fill="#2E373D"/>
<path d="M36.0855 58.9358C37.1984 60.777 38.834 60.9443 39.7381 59.3088C40.6425 57.6739 40.4735 54.8557 39.3606 53.0145C38.2477 51.1733 36.6124 51.0065 35.708 52.6414C34.8036 54.2764 34.9726 57.0946 36.0855 58.9358Z" fill="#CECECE"/>
<path d="M36.8349 57.5808C37.4387 58.5797 38.3258 58.67 38.8162 57.7837C39.3069 56.8966 39.2149 55.3683 38.6112 54.3694C38.0078 53.3711 37.1208 53.28 36.6302 54.1671C36.1401 55.0539 36.2315 56.5825 36.8349 57.5808Z" fill="#627681"/>
<path d="M57.128 20.3065C59.3914 24.0511 62.7178 24.3912 64.5571 21.0654C66.3964 17.7397 66.0526 12.0076 63.7891 8.26299C61.5257 4.51836 58.1996 4.17887 56.3603 7.5046C54.521 10.8303 54.8646 16.5619 57.128 20.3065Z" fill="#2E373D"/>
<path d="M58.821 17.2454C59.9339 19.0866 61.5695 19.2539 62.4736 17.6185C63.378 15.9835 63.209 13.1653 62.0961 11.3241C60.9832 9.48287 59.3479 9.3161 58.4435 10.951C57.5394 12.5865 57.7081 15.4042 58.821 17.2454Z" fill="#CECECE"/>
<path d="M59.5707 15.891C60.1742 16.8893 61.0608 16.9799 61.5517 16.0933C62.0418 15.2065 61.9504 13.6779 61.3467 12.6791C60.7433 11.6807 59.8561 11.5905 59.3657 12.4767C58.8751 13.3638 58.967 14.8921 59.5707 15.891Z" fill="#627681"/>
<path d="M33.7754 35.8992L7.15031 36.34L6.92476 33.0209C6.6391 28.821 9.95364 25.2336 14.1722 25.1776L22.7413 25.064C27.757 24.9972 32.1226 28.4458 33.2062 33.3316L33.7754 35.8992Z" fill="#304E75"/>
<path d="M22.9892 62.4367L25.8176 62.3757C28.8979 62.3085 31.1381 59.3641 30.3055 56.4061C29.7685 54.4987 29.4636 52.3432 29.841 50.2952C30.6946 45.6707 34.2801 44.2055 36.8517 44.1926C39.4232 44.1797 42.4645 47.9152 42.4645 47.9152L43.3774 46.2607C43.3774 46.2607 40.2599 42.1138 36.4939 42.4085C36.4559 42.4113 36.4182 42.4147 36.3811 42.4177C33.0268 42.6958 29.9133 44.2778 27.6369 46.7586L23.9348 50.7931C21.1194 53.8622 20.6275 58.3969 22.7217 61.9798L22.9892 62.4367Z" fill="#238342"/>
<path d="M24.8553 58.8064L17.0632 60.4981C12.2643 61.5401 7.25465 60.7581 3.0152 58.3042C2.05746 57.7495 0.957331 58.7763 1.4464 59.7682L1.71234 60.3073C2.31728 61.5327 3.27319 62.5503 4.45865 63.2321C8.50892 65.5593 13.3023 66.2513 17.8587 65.1652L27.1115 62.9596C28.2179 62.6958 28.7947 61.4747 28.2937 60.4583C27.6648 59.1848 26.2478 58.5035 24.8553 58.8064Z" fill="#CECECE"/>
<path d="M23.3232 56.4007C23.9973 57.516 25.4621 58.4007 26.594 58.3762C27.7264 58.3513 28.0969 57.4268 27.4228 56.3115C26.7483 55.1957 25.284 54.3106 24.1516 54.3355C23.0198 54.36 22.6487 55.2849 23.3232 56.4007Z" fill="white"/>
<path d="M0.856201 55.6725C1.53064 56.7883 2.99517 57.6726 4.12702 57.648C5.2594 57.6231 5.63022 56.6991 4.95579 55.5833C4.28135 54.4675 2.81735 53.583 1.68497 53.6078C0.552798 53.6319 0.181763 54.5567 0.856201 55.6725Z" fill="white"/>
<path d="M55.9726 22.9275C55.9726 22.9275 52.355 18.314 52.4775 12.0094C52.6006 5.70453 55.7592 3.79101 55.7592 3.79101C55.7592 3.79101 57.652 2.6469 60.3782 3.56121C62.844 4.38763 65.6698 8.44396 64.8894 10.6412C64.8894 10.6412 63.4046 6.63531 59.713 6.28728C57.0476 6.03612 55.543 9.98602 56.5124 13.426C56.9243 14.8875 57.6454 16.6886 58.5785 18.2825C59.7587 20.2996 58.3158 22.8498 55.9726 22.9275Z" fill="#238342"/>
<path d="M44.956 15.8882L37.1388 29.9842C37.1388 29.9842 33.7752 13.8372 39.5112 6.88014L44.956 15.8882Z" fill="#243B58"/>
<path d="M9.63508 31.0777C9.63508 31.0777 9.3282 29.5987 9.05804 27.3502C10.0647 26.3397 11.3619 25.6174 12.8243 25.3262L9.63508 31.0777Z" fill="#59718B"/>
<path d="M40.6965 5.64074C46.7086 0.0639754 51.1332 4.74866 51.1332 4.74866L45.8815 14.2189L40.6965 5.64074Z" fill="#243B58"/>
<path d="M17.8307 39.1294C13.4068 45.1128 9.11612 52.3882 12.3658 59.9388C11.4461 51.7905 15.1767 46.4663 17.8307 39.1294Z" fill="#238342"/>
</g>
</svg>
