<svg width="41" height="35" viewBox="0 0 41 35" fill="none" xmlns="http://www.w3.org/2000/svg">
<g id="Vector">
<path d="M39.9377 31.7496C39.4985 31.9861 38.9323 32.1367 38.2591 32.1757L24.6284 32.9807C22.2425 33.1205 19.3978 31.8239 18.2743 30.0869L2.15562 5.19342C1.93986 4.86202 1.80082 4.53367 1.74373 4.22526C2.18291 3.98881 2.74914 3.83831 3.42234 3.79917L17.0531 2.99416C19.4389 2.85446 22.2838 4.15109 23.4072 5.88797L39.5259 30.7815C39.7472 31.1157 39.8808 31.4413 39.9377 31.7496Z" fill="#0E6876"/>
<path d="M40.8251 30.8944C40.6518 31.2368 40.3455 31.5332 39.9377 31.7496C39.4985 31.9861 38.9323 32.1367 38.2591 32.1757L24.6284 32.9807C22.2425 33.1205 19.3978 31.8239 18.2743 30.0869L2.15562 5.19342C1.93986 4.86202 1.80082 4.53367 1.74373 4.22526C1.6507 3.80553 1.70239 3.40886 1.87276 3.07227C2.23378 2.35903 3.13218 1.87498 4.43581 1.7967L18.0666 0.991595C20.4553 0.846212 23.3002 2.14275 24.4237 3.87963L40.5423 28.7732C41.0522 29.5616 41.1225 30.3068 40.8251 30.8944Z" fill="#148FA2"/>
<path d="M24.3448 11.5957L19.3389 3.86513C19.1325 3.54645 19.32 3.26715 19.7577 3.24131C20.1953 3.21542 20.7175 3.45283 20.9238 3.77161L25.9298 11.502C26.1361 11.8207 25.9486 12.1001 25.511 12.1259C25.0733 12.1519 24.5512 11.9143 24.3448 11.5957Z" fill="#B5F0F6"/>
<path d="M30.0217 20.3623L26.79 15.3716C26.5837 15.053 26.7711 14.7737 27.2087 14.7478C27.6464 14.7219 28.1685 14.9593 28.3749 15.278L31.6066 20.2687C31.813 20.5874 31.6255 20.8668 31.1878 20.8925C30.7501 20.9185 30.2281 20.681 30.0217 20.3623Z" fill="#B5F0F6"/>
<path d="M10.4969 9.12101L7.56342 4.59084C7.3467 4.25622 7.5436 3.96291 8.00309 3.93573C8.46267 3.90859 9.01086 4.15787 9.22759 4.49249L12.1612 9.02271C12.3779 9.35732 12.181 9.65064 11.7214 9.67777C11.2618 9.70491 10.7136 9.45572 10.4969 9.12101Z" fill="#F4F9FB"/>
<path d="M15.0611 16.1693L12.1275 11.6391C11.9108 11.3045 12.1077 11.0112 12.5672 10.984C13.0268 10.9569 13.5749 11.2061 13.7917 11.5408L16.7253 16.071C16.942 16.4056 16.7451 16.6989 16.2856 16.7261C15.826 16.7532 15.2778 16.504 15.0611 16.1693Z" fill="#F4F9FB"/>
<path d="M19.6253 23.2176L16.6917 18.6874C16.475 18.3528 16.6719 18.0595 17.1313 18.0323C17.5909 18.0052 18.139 18.2544 18.3557 18.589L21.2894 23.1192C21.5061 23.4539 21.3092 23.7472 20.8496 23.7743C20.3901 23.8015 19.842 23.5523 19.6253 23.2176Z" fill="#F4F9FB"/>
<path d="M24.1895 30.266L21.2558 25.7357C21.0391 25.4011 21.236 25.1078 21.6956 25.0807C22.1552 25.0535 22.7033 25.3028 22.92 25.6374L25.8536 30.1676C26.0703 30.5022 25.8734 30.7955 25.4139 30.8227C24.9543 30.8498 24.4062 30.6006 24.1895 30.266Z" fill="#F4F9FB"/>
<path d="M10.3624 12.6613L5.0575 4.4692C4.93368 4.27795 5.04621 4.11035 5.30876 4.09481C5.57132 4.07927 5.88457 4.22177 6.00844 4.41293L11.3133 12.6051C11.4371 12.7963 11.3246 12.9638 11.0619 12.9794C10.7995 12.995 10.4862 12.8525 10.3624 12.6613Z" fill="#B5F0F6"/>
<path d="M14.712 19.3784L12.1509 15.4233C12.0271 15.2321 12.1396 15.0645 12.4022 15.049C12.6648 15.0335 12.978 15.176 13.1019 15.3671L15.663 19.3221C15.7869 19.5134 15.6743 19.681 15.4118 19.6964C15.149 19.712 14.8358 19.5696 14.712 19.3784Z" fill="#B5F0F6"/>
<path d="M15.4962 9.40823L12.4325 4.67718C12.087 4.14355 12.401 3.67592 13.1338 3.63268L14.5215 3.55071C15.2542 3.50733 16.1285 3.90487 16.474 4.43851L19.5377 9.16956C19.8833 9.7032 19.5692 10.1708 18.8365 10.2141L17.4487 10.296C16.7159 10.3394 15.8416 9.94192 15.4962 9.40823Z" fill="#FFC532"/>
<path d="M28.3806 28.5921C27.3421 28.6535 26.0417 27.9952 25.4762 27.1219C24.9107 26.2487 25.2942 25.4909 26.3328 25.4297C27.3714 25.3683 28.6717 26.0265 29.2372 26.8998C29.8027 27.7731 29.4192 28.5308 28.3806 28.5921Z" fill="#FFC532"/>
<path d="M29.6626 30.5717C28.6241 30.633 27.3237 29.9747 26.7581 29.1015C26.1926 28.2282 26.5761 27.4706 27.6146 27.4091C28.6532 27.3479 29.9535 28.006 30.5191 28.8793C31.0847 29.7526 30.7012 30.5103 29.6626 30.5717Z" fill="#FF6852"/>
<path d="M40.8251 30.8944L39.8086 32.9027C39.4505 33.6101 38.5492 34.1 37.2454 34.1782L23.6148 34.9833C21.2289 35.123 18.3813 33.8322 17.2577 32.0952L1.13909 7.20171C0.629073 6.4132 0.558857 5.66806 0.856278 5.08047L1.87276 3.07227C1.70239 3.40886 1.6507 3.80553 1.74373 4.22526C1.80082 4.53367 1.93986 4.86202 2.15562 5.19342L18.2743 30.0869C19.3978 31.8239 22.2425 33.1205 24.6284 32.9807L38.2591 32.1757C38.9323 32.1367 39.4985 31.9861 39.9377 31.7496C40.3455 31.5332 40.6518 31.2368 40.8251 30.8944Z" fill="#0E6876"/>
</g>
</svg>
