<svg width="41" height="25" viewBox="0 0 41 25" fill="none" xmlns="http://www.w3.org/2000/svg">
<g id="Vector">
<path d="M40.5905 15.3701C40.4814 15.4785 40.345 15.5599 40.1812 15.6683L27.3516 23.0417C26.3416 23.6108 24.8404 23.6652 23.9668 23.1773L0.573271 9.75872C0.518604 9.73158 0.46412 9.67738 0.409544 9.62318C0.518604 9.51469 0.655088 9.43344 0.818906 9.32505L13.6758 1.97875C14.6584 1.40944 16.1599 1.32819 17.0332 1.81615L40.4267 15.2346C40.4814 15.2887 40.5361 15.3159 40.5905 15.3701Z" fill="#263238"/>
<path d="M41 14.584C41 14.855 40.8635 15.1261 40.5905 15.3701C40.4814 15.4785 40.345 15.5599 40.1812 15.6683L29.5353 21.7947L27.3516 23.0417C27.0787 23.2043 26.7783 23.3127 26.4507 23.3941C25.5773 23.6109 24.5945 23.5297 23.9668 23.1773L0.573271 9.75872C0.518604 9.73158 0.46412 9.67738 0.409544 9.62318C0.136484 9.43344 0 9.18942 0 8.91843C0 8.53895 0.27306 8.1593 0.818907 7.83411L13.6758 0.460844C14.0033 0.271016 14.3855 0.135476 14.795 0.0812784C15.5866 -0.0813152 16.46 2.66732e-05 17.0332 0.325395L20.9913 2.60234L26.4506 5.71976L29.5352 7.50883L40.4266 13.7436C40.8089 13.9605 41 14.2586 41 14.584Z" fill="#37474F"/>
<path d="M9.51747 9.99361L5.76979 7.84488C5.44216 7.65704 5.48325 7.32886 5.86163 7.11198C6.23993 6.8951 6.81229 6.87149 7.13992 7.05941L10.8875 9.20815C11.2151 9.39598 11.1741 9.72416 10.7958 9.94104C10.4174 10.158 9.8451 10.1814 9.51747 9.99361Z" fill="white"/>
<path d="M15.4479 13.3939L11.7003 11.2452C11.3727 11.0573 11.4137 10.7292 11.7921 10.5123C12.1704 10.2953 12.7427 10.2718 13.0703 10.4597L16.818 12.6085C17.1457 12.7963 17.1046 13.1245 16.7262 13.3414C16.348 13.5582 15.7756 13.5818 15.4479 13.3939Z" fill="white"/>
<path d="M21.3785 16.7942L17.6308 14.6455C17.3032 14.4576 17.3443 14.1295 17.7226 13.9126C18.101 13.6957 18.6732 13.6721 19.0009 13.86L22.7485 16.0088C23.0762 16.1967 23.0351 16.5248 22.6568 16.7416C22.2784 16.9585 21.7061 16.9821 21.3785 16.7942Z" fill="white"/>
<path d="M27.309 20.1945L23.5613 18.0457C23.2337 17.8578 23.2748 17.5297 23.6532 17.3129C24.0315 17.0959 24.6038 17.0724 24.9315 17.2603L28.679 19.409C29.0067 19.5969 28.9656 19.925 28.5873 20.1419C28.2089 20.3588 27.6366 20.3823 27.309 20.1945Z" fill="white"/>
<path d="M10.4692 13.535L2.56414 9.00269L3.63187 8.3905L11.5369 12.9229L10.4692 13.535Z" fill="white"/>
<path d="M16.7482 17.1352L11.7921 14.2936L12.8599 13.6814L17.816 16.523L16.7482 17.1352Z" fill="white"/>
<path d="M12.9294 8.47761L8.83249 6.12864C8.48573 5.92976 8.52919 5.58241 8.92962 5.35286L10.413 4.50234C10.8134 4.2727 11.4191 4.24773 11.7659 4.44661L15.8628 6.79557C16.2096 6.99436 16.166 7.34171 15.7656 7.57135L14.2823 8.42187C13.882 8.65151 13.2762 8.67639 12.9294 8.47761Z" fill="#FFB300"/>
<path d="M16.5417 3.32841C17.1051 3.00531 17.1051 2.48161 16.5417 2.1585C15.9782 1.83539 15.0647 1.83539 14.5013 2.1585C13.9379 2.48152 13.9379 3.00531 14.5013 3.32841C15.0648 3.65134 15.9782 3.65143 16.5417 3.32841Z" fill="white"/>
<path d="M20.998 6.2542L17.2264 4.09162L17.8729 3.72101L21.6445 5.8835L20.998 6.2542Z" fill="white"/>
<path d="M23.9683 20.6628C23.3775 21.0015 22.4194 21.0015 21.8284 20.6627C21.2375 20.3239 21.2375 19.7746 21.8284 19.4358C22.4193 19.097 23.3773 19.097 23.9683 19.4359C24.5592 19.7746 24.5592 20.3239 23.9683 20.6628Z" fill="#FFB300"/>
<path d="M25.3037 21.4283C24.7128 21.7672 23.7548 21.7672 23.1638 21.4283C22.5729 21.0895 22.5729 20.5403 23.1638 20.2014C23.7548 19.8627 24.7127 19.8627 25.3037 20.2014C25.8946 20.5403 25.8946 21.0896 25.3037 21.4283Z" fill="#F80202"/>
<path d="M33.1987 13.2493L27.7448 10.1223L28.3913 9.75157L33.8452 12.8786L33.1987 13.2493Z" fill="white"/>
<path d="M36.9037 15.3736L34.1768 13.8101L34.8233 13.4395L37.5503 15.0029L36.9037 15.3736Z" fill="white"/>
<path d="M41 14.584V16.075C41 16.4544 40.7271 16.8339 40.1811 17.1592L27.3516 24.5327C26.3416 25.1018 24.8404 25.1561 23.9668 24.6682L0.573271 11.2497C0.19106 11.0327 0 10.7346 0 10.4093V8.91843C0 9.18942 0.136484 9.43344 0.409544 9.62318C0.46412 9.67738 0.518604 9.73158 0.573271 9.75872L23.9668 23.1773C24.8404 23.6652 26.3416 23.6108 27.3516 23.0417L40.1812 15.6683C40.345 15.5599 40.4814 15.4785 40.5905 15.3701C40.8635 15.1261 41 14.855 41 14.584Z" fill="#263238"/>
</g>
</svg>
