<svg width="61" height="79" viewBox="0 0 61 79" fill="none" xmlns="http://www.w3.org/2000/svg">
<g id="Vector">
<path d="M41.5173 42.6703C37.8833 44.6688 35.0667 52.9778 35.0667 52.9778L40.0225 45.5921L46.93 52.348C46.93 52.348 45.1514 40.6719 41.5173 42.6703Z" fill="black"/>
<path d="M33.3973 34.4329C33.3511 34.4376 32.1546 34.56 32.0096 34.5748C31.9165 34.5809 31.8202 34.5945 31.7219 34.6119C31.6558 34.6127 31.5916 34.6098 31.5229 34.6165C31.4767 34.6212 30.2801 34.7436 30.135 34.7583C30.0393 34.7646 29.94 34.7786 29.8389 34.7967C29.7703 34.7973 29.7036 34.7945 29.6318 34.8015C29.5889 34.8058 28.537 34.9134 28.2748 34.9402L26.195 23.4468L7.50965 25.2762L26.8425 76.7533L27.6816 66.1834L24.1495 46.6633C24.2169 46.6563 24.2861 46.6449 24.3558 46.6322C24.4233 46.6315 24.4891 46.6339 24.5596 46.6269C24.5803 46.625 25.8713 46.4961 25.9742 46.4883C26.0589 46.4816 26.1483 46.4645 26.2372 46.4486C26.3025 46.4475 26.3661 46.4503 26.4342 46.4435C26.4545 46.4414 27.7457 46.3128 27.8488 46.3048C28.8173 46.2284 30.0666 45.5532 31.3584 44.3025C33.9005 41.8413 35.6422 38.0844 35.2488 35.9114C35.0524 34.824 34.359 34.3386 33.3973 34.4329Z" fill="black"/>
<path d="M0.754144 22.0918L8.29758 32.7225L46.9131 28.9415L55.0732 11.341L47.5297 0.710339L16.4575 15.122L0.754144 22.0918Z" fill="#308D43"/>
<path d="M6.36215 29.9949L13.9056 40.6256L52.5212 36.8449L60.6812 19.2441L53.1377 8.61347L22.0655 23.0252L6.36215 29.9949Z" fill="#308D43"/>
<path d="M11.1209 36.7016L11.737 37.5698L50.3528 33.789L58.5128 16.1882L57.8966 15.32L49.7365 32.9205L11.1209 36.7016Z" fill="#449855"/>
<path d="M9.71878 34.7257L10.335 35.5941L48.9507 31.8131L57.1108 14.2125L56.4947 13.3442L48.3346 30.9448L9.71878 34.7257Z" fill="#449855"/>
<path d="M8.31682 32.7499L8.93306 33.6184L47.5487 29.8374L55.7088 12.2368L55.0926 11.3683L46.9326 28.9691L8.31682 32.7499Z" fill="#449855"/>
<path d="M6.91486 30.7742L7.53098 31.6425L46.1468 27.8616L54.3067 10.2609L53.6906 9.39262L45.5307 26.9934L6.91486 30.7742Z" fill="#449855"/>
<path d="M12.5228 38.6773L13.1389 39.5456L51.7548 35.7647L59.9148 18.1641L59.2986 17.2957L51.1385 34.8963L12.5228 38.6773Z" fill="#449855"/>
<path d="M5.51277 28.7983L6.12901 29.6668L44.7447 25.8857L52.9048 8.28516L52.2887 7.4169L44.1286 25.0175L5.51277 28.7983Z" fill="#449855"/>
<path d="M4.11081 26.8226L4.72705 27.691L43.3427 23.91L51.5028 6.30944L50.8866 5.44099L42.7266 23.0417L4.11081 26.8226Z" fill="#449855"/>
<path d="M2.70884 24.8469L3.32509 25.7153L41.9408 21.9343L50.1007 4.33354L49.4846 3.46527L41.3245 21.0658L2.70884 24.8469Z" fill="#449855"/>
<path d="M1.30688 22.8711L1.923 23.7394L40.5388 19.9586L48.6988 2.35781L48.0827 1.48954L39.9227 19.0903L1.30688 22.8711Z" fill="#449855"/>
<path d="M-0.00873497 68.0132L7.53471 78.6438L26.8425 76.7533L43.1625 41.5523L35.619 30.9215L23.8546 43.4427L-0.00873497 68.0132Z" fill="#308D43"/>
<path d="M-0.00873497 68.0132L19.299 66.1225L35.619 30.9215L16.3111 32.812L-0.00873497 68.0132Z" fill="#58A368"/>
<path d="M27.7331 34.5264L21.5694 35.1299C20.2559 37.1588 17.7817 38.888 15.4372 39.406L5.49088 60.8593C7.50972 61.0013 8.47785 62.4312 7.87744 64.4084L14.0415 63.8049C15.3549 61.776 17.829 60.0469 20.1738 59.529L30.1199 38.0758C28.101 37.9333 27.1327 36.5035 27.7331 34.5264Z" fill="#EDEDED"/>
<path d="M20.1806 44.3434C17.0761 44.6473 13.4961 47.1876 12.1842 50.0176C10.8722 52.8476 12.3251 54.8951 15.4294 54.5911C18.5339 54.2872 22.1139 51.7468 23.4259 48.9168C24.738 46.087 23.2851 44.0395 20.1806 44.3434Z" fill="#58A368"/>
<path d="M21.6685 47.3719C21.4696 47.0667 21.0785 46.9423 20.4944 46.9996C19.9867 47.0493 19.485 47.2437 18.9869 47.5835C18.4878 47.9229 17.9371 48.4577 17.3336 49.1877L15.3323 49.3836C15.6598 48.8153 16.0761 48.293 16.5851 47.8138L15.1593 47.9533C14.8 48.3076 14.4472 48.8243 14.0971 49.5046L13.1369 49.5986L12.8112 50.3009L13.7934 50.2046C13.5837 50.7852 13.5906 51.2355 13.8159 51.553C14.0386 51.8707 14.4275 52.0026 14.9793 51.9486C15.4927 51.8984 15.9929 51.7182 16.4764 51.409C16.961 51.1 17.5304 50.5547 18.1842 49.7748L20.1058 49.5867C19.9507 49.8777 19.7174 50.2134 19.4058 50.5965C19.0943 50.9798 18.8117 51.2719 18.5602 51.4746L20.0219 51.3314C20.6029 50.7379 21.0461 50.1158 21.3508 49.4647L22.4652 49.3556L22.7907 48.6532L21.6452 48.7653C21.8606 48.1413 21.8687 47.6773 21.6685 47.3719ZM15.483 50.6773C15.0614 50.7185 14.9093 50.5208 15.0284 50.084L16.7015 49.9203C16.2511 50.3894 15.8457 50.6419 15.483 50.6773ZM20.4101 48.8865L18.8101 49.043C19.2419 48.5624 19.6285 48.3066 19.9736 48.2728C20.4003 48.2311 20.5455 48.4349 20.4101 48.8865Z" fill="#EDEDED"/>
<path d="M4.75005 74.7195L5.36629 75.588L24.6741 73.6975L40.9943 38.4964L40.3781 37.6279L24.058 72.8292L4.75005 74.7195Z" fill="#449855"/>
<path d="M3.34809 72.7438L3.9642 73.6121L23.2722 71.7218L39.5922 36.5204L38.9761 35.6522L22.6559 70.8533L3.34809 72.7438Z" fill="#449855"/>
<path d="M1.94613 70.7681L2.56224 71.6364L21.8701 69.7458L38.1903 34.5447L37.574 33.6763L21.254 68.8776L1.94613 70.7681Z" fill="#449855"/>
<path d="M0.544029 68.7922L1.16028 69.6606L20.4681 67.7701L36.7883 32.569L36.1721 31.7005L19.852 66.9018L0.544029 68.7922Z" fill="#449855"/>
<path d="M6.15214 76.6954L6.76826 77.5637L26.0761 75.6732L42.3963 40.4721L41.78 39.6036L25.46 74.8049L6.15214 76.6954Z" fill="#449855"/>
<path d="M0.754144 22.0918L39.3697 18.311L47.5297 0.710339L8.91396 4.49126L0.754144 22.0918Z" fill="#58A368"/>
<path d="M39.0842 3.5269L15.5499 5.83121C14.2366 7.86028 11.7623 9.58934 9.41772 10.1073L6.81267 15.7264C8.83151 15.8684 9.79964 17.2983 9.19923 19.2754L32.7335 16.9711C34.047 14.9422 36.5211 13.2133 38.8659 12.6952L41.4707 7.07628C39.4523 6.93401 38.4841 5.50412 39.0842 3.5269Z" fill="#EDEDED"/>
<path d="M26.5175 6.27724C23.4131 6.58112 19.833 9.12148 18.5211 11.9515C17.2091 14.7814 18.6619 16.8288 21.7664 16.5249C24.8708 16.221 28.4508 13.6807 29.7628 10.8507C31.0746 8.02084 29.6217 5.9733 26.5175 6.27724Z" fill="#58A368"/>
<path d="M26.1506 7.83951L26.5564 6.96426L25.7858 7.03994L25.3707 7.93512C24.7008 8.05495 24.087 8.31134 23.5318 8.70531C22.9777 9.0969 22.5833 9.54607 22.3502 10.0488C22.133 10.5169 22.0993 10.8999 22.2498 11.1954C22.3992 11.4917 22.8217 11.7392 23.5147 11.9377L22.7028 13.6893C22.3946 13.701 22.0694 13.6621 21.7237 13.5737C21.3777 13.4852 21.1389 13.3747 21.0038 13.2445L20.386 14.5769C20.8674 14.8085 21.4637 14.8914 22.1767 14.8241L21.7058 15.8399L22.4763 15.7645L22.9604 14.7203C23.6866 14.5816 24.3105 14.3319 24.8352 13.9689C25.3591 13.6072 25.7445 13.1605 25.9913 12.6283C26.2061 12.1653 26.2212 11.7887 26.0379 11.4961C25.855 11.2027 25.4365 10.9675 24.7828 10.7898L25.6288 8.96556C26.2165 8.96649 26.6929 9.07857 27.0596 9.304L27.6622 8.00413C27.3818 7.85362 26.878 7.79993 26.1506 7.83951ZM24.556 12.8323C24.3758 13.2211 24.0195 13.4745 23.4826 13.5945L24.1588 12.1359C24.5701 12.2863 24.7018 12.5176 24.556 12.8323ZM24.1416 10.5863C23.7564 10.4115 23.6396 10.16 23.7928 9.82941C23.9709 9.44509 24.3233 9.18848 24.8488 9.06098L24.1416 10.5863Z" fill="#EDEDED"/>
<path d="M52.432 40.4806C48.8371 40.8326 44.691 43.7746 43.1715 47.0518C42.507 48.4847 42.0972 49.6011 42.0972 49.6011C42.0972 49.6011 43.0284 50.9075 43.1001 51.014C43.7701 52.0029 45.1032 52.5266 46.93 52.348C50.5252 51.996 54.6708 49.0543 56.1896 45.7773C56.9496 44.1387 56.9088 42.7264 56.2288 41.768C56.194 41.719 55.2224 40.3649 55.2224 40.3649C55.2224 40.3649 54.1379 40.3136 52.432 40.4806Z" fill="url(#paint0_linear_2499_5398)"/>
<path d="M51.3962 39.0209C47.8012 39.3729 43.6552 42.3149 42.1357 45.5921C40.6162 48.8692 42.2988 51.2405 45.8941 50.8885C49.489 50.5362 53.6351 47.5942 55.1541 44.3176C56.6736 41.0405 54.9907 38.6689 51.3962 39.0209Z" fill="#FED416"/>
<path d="M51.1064 38.6126C47.5114 38.9644 43.3654 41.9064 41.846 45.1838C41.1814 46.6167 40.7717 47.7331 40.7717 47.7331C40.7717 47.7331 41.7028 49.0395 41.7745 49.146C42.4446 50.1349 43.7772 50.6589 45.6042 50.4804C49.1994 50.1284 53.3454 47.1864 54.8642 43.9095C55.6241 42.2707 55.5833 40.8584 54.9034 39.9002C54.8686 39.8512 53.897 38.4971 53.897 38.4971C53.897 38.4971 52.8124 38.4456 51.1064 38.6126Z" fill="url(#paint1_linear_2499_5398)"/>
<path d="M50.0706 37.1529C46.4756 37.5047 42.3296 40.4467 40.8102 43.7241C39.2907 47.0012 40.9733 49.3724 44.5685 49.0205C48.1635 48.6682 52.3095 45.7262 53.8286 42.4496C55.348 39.1723 53.6652 36.8009 50.0706 37.1529Z" fill="#FED416"/>
<path d="M49.7692 36.7281C46.1743 37.0801 42.0283 40.0221 40.5088 43.2993C39.8442 44.7322 39.4345 45.8486 39.4345 45.8486C39.4345 45.8486 40.3658 47.1552 40.4374 47.2617C41.1075 48.2506 42.4402 48.7746 44.2669 48.5959C47.8622 48.244 52.0082 45.302 53.527 42.025C54.287 40.3864 54.2462 38.9741 53.5662 38.0157C53.5314 37.9667 52.56 36.6128 52.56 36.6128C52.56 36.6128 51.4752 36.5611 49.7692 36.7281Z" fill="url(#paint2_linear_2499_5398)"/>
<path d="M48.7334 35.2684C45.1385 35.6204 40.9924 38.5624 39.473 41.8395C37.9535 45.1167 39.6362 47.4881 43.2313 47.136C46.8263 46.7837 50.9723 43.8417 52.4914 40.5651C54.0109 37.2879 52.328 34.9164 48.7334 35.2684Z" fill="#FED416"/>
<path d="M48.4085 34.8105C44.8136 35.1625 40.6675 38.1045 39.148 41.3817C38.4835 42.8146 38.0736 43.9308 38.0736 43.9308C38.0736 43.9308 39.0049 45.2374 39.0766 45.3438C39.7465 46.3326 41.0793 46.8567 42.9061 46.6781C46.5013 46.3261 50.6473 43.3841 52.1661 40.1072C52.926 38.4684 52.8853 37.0562 52.2053 36.0979C52.1705 36.0489 51.1991 34.695 51.1991 34.695C51.1991 34.695 50.1145 34.6436 48.4085 34.8105Z" fill="url(#paint3_linear_2499_5398)"/>
<path d="M47.3726 33.3507C43.7777 33.7026 39.6316 36.6446 38.1121 39.9218C36.5928 43.1991 38.2754 45.5704 41.8705 45.2183C45.4654 44.866 49.6115 41.924 51.1305 38.6474C52.65 35.3702 50.9673 32.9988 47.3726 33.3507Z" fill="#FED416"/>
<path d="M47.0734 32.9291C43.4785 33.2811 39.3325 36.2231 37.813 39.5002C37.1484 40.9332 36.7387 42.0495 36.7387 42.0495C36.7387 42.0495 37.67 43.3562 37.7415 43.4624C38.4116 44.4513 39.7442 44.9753 41.5711 44.7968C45.1664 44.4449 49.3124 41.5029 50.8312 38.2259C51.5911 36.5871 51.5503 35.1748 50.8704 34.2166C50.8356 34.1676 49.864 32.8136 49.864 32.8136C49.864 32.8136 48.7795 32.7622 47.0734 32.9291Z" fill="url(#paint4_linear_2499_5398)"/>
<path d="M46.0375 31.4692C42.4426 31.8212 38.2966 34.7632 36.7771 38.0404C35.2576 41.3175 36.9403 43.689 40.5354 43.3368C44.1304 42.9845 48.2764 40.0425 49.7955 36.7659C51.315 33.4888 49.6322 31.1174 46.0375 31.4692Z" fill="#FED416"/>
</g>
<defs>
<linearGradient id="paint0_linear_2499_5398" x1="27.5361" y1="30.4846" x2="13.9071" y2="45.2389" gradientUnits="userSpaceOnUse">
<stop stop-color="#F5C314"/>
<stop offset="1" stop-color="#EBB90A"/>
</linearGradient>
<linearGradient id="paint1_linear_2499_5398" x1="27.536" y1="30.4845" x2="13.907" y2="45.238" gradientUnits="userSpaceOnUse">
<stop stop-color="#F5C314"/>
<stop offset="1" stop-color="#EBB90A"/>
</linearGradient>
<linearGradient id="paint2_linear_2499_5398" x1="27.5356" y1="30.4839" x2="13.9067" y2="45.2383" gradientUnits="userSpaceOnUse">
<stop stop-color="#F5C314"/>
<stop offset="1" stop-color="#EBB90A"/>
</linearGradient>
<linearGradient id="paint3_linear_2499_5398" x1="27.5361" y1="30.4846" x2="13.9071" y2="45.2389" gradientUnits="userSpaceOnUse">
<stop stop-color="#F5C314"/>
<stop offset="1" stop-color="#EBB90A"/>
</linearGradient>
<linearGradient id="paint4_linear_2499_5398" x1="27.5366" y1="30.4853" x2="13.9075" y2="45.2388" gradientUnits="userSpaceOnUse">
<stop stop-color="#F5C314"/>
<stop offset="1" stop-color="#EBB90A"/>
</linearGradient>
</defs>
</svg>
