<svg width="45" height="32" viewBox="0 0 45 32" fill="none" xmlns="http://www.w3.org/2000/svg">
<g id="Vector">
<path d="M44.9999 6.27848L44.9829 12.2769C44.9812 12.8748 44.6507 13.4844 43.9844 14.0104L44.0014 8.01198C44.6678 7.48598 44.9982 6.87635 44.9999 6.27848Z" fill="#2C353B"/>
<path d="M17.2253 20.1153L17.2082 26.1139L3.643 18.3071L3.6601 12.3087L17.2253 20.1153Z" fill="#3B4951"/>
<path d="M4.1287 22.5359L4.1457 16.5375C4.1464 16.2934 4.3072 16.0487 4.6293 15.8621C5.2757 15.4877 6.3184 15.4932 6.9595 15.8621L6.9425 21.8605C6.3014 21.4916 5.2586 21.4861 4.6123 21.8605C4.2901 22.0471 4.1293 22.2917 4.1287 22.5359Z" fill="#AEB2F4"/>
<path d="M4.97927e-06 21.341L0.017005 15.3426C0.015505 15.8746 0.352905 16.3967 1.0358 16.7897L1.0188 22.7882C0.335905 22.3951 -0.00149502 21.873 4.97927e-06 21.341Z" fill="#AEB2F4"/>
<path d="M12.8701 19.2636L12.853 25.262L6.9425 21.8605L6.9595 15.8621L12.8701 19.2636Z" fill="#AEB2F4"/>
<path d="M13.3651 19.949L13.348 25.9474C13.3487 25.7 13.1827 25.4517 12.853 25.262L12.8701 19.2636C13.1997 19.4533 13.3657 19.7016 13.3651 19.949Z" fill="#AEB2F4"/>
<path d="M17.9759 21.1591L17.9588 27.1575C17.96 26.7802 17.711 26.4032 17.2082 26.1139L17.2253 20.1153C17.7281 20.4049 17.977 20.7819 17.9759 21.1591Z" fill="#3B4951"/>
<path d="M17.9759 21.1591L17.9588 27.1575C17.9578 27.537 17.7039 27.9167 17.2015 28.2077L17.2185 22.2093C17.7209 21.9183 17.9748 21.5385 17.9759 21.1591Z" fill="#AEB2F4"/>
<path d="M44.0014 8.01198L43.9844 14.0104L24.5932 29.3578L24.6103 23.3594L44.0014 8.01198Z" fill="#2C353B"/>
<path d="M24.6103 23.3594L24.5932 29.3578C24.481 29.4662 24.3406 29.5586 24.1907 29.6453L24.2077 23.6469C24.3576 23.5601 24.498 23.4678 24.6103 23.3594Z" fill="#2C353B"/>
<path d="M17.2185 22.2093L17.2015 28.2077L13.83 30.1608L13.847 24.1625L17.2185 22.2093Z" fill="#AEB2F4"/>
<path d="M13.847 24.1625L13.83 30.1608L1.0188 22.7882L1.0358 16.7897L13.847 24.1625Z" fill="#AEB2F4"/>
<path d="M17.2253 20.1153C18.2339 20.6958 18.2205 21.6289 17.2185 22.2093L13.847 24.1625L1.0358 16.7897C-0.378095 15.9761 -0.310796 14.609 1.1786 13.7462L3.6601 12.3087L17.2253 20.1153ZM10.5381 20.6144C11.1887 20.9888 12.2412 20.9886 12.8872 20.6144C13.5334 20.24 13.5206 19.638 12.8701 19.2636L6.9595 15.8621C6.3184 15.4932 5.2757 15.4877 4.6293 15.8621C3.9833 16.2363 3.9865 16.844 4.6276 17.2129L10.5381 20.6144Z" fill="#D7DAFF"/>
<path d="M24.2077 23.6469L24.1907 29.6453L21.2876 31.327L21.3046 25.3286L24.2077 23.6469Z" fill="#2C353B"/>
<path d="M16.0243 25.4154L16.0073 31.4138L13.83 30.1608L13.847 24.1625L16.0243 25.4154Z" fill="#3B4951"/>
<path d="M21.3046 25.3286L21.2876 31.327C19.7984 32.1897 17.4215 32.2277 16.0073 31.4138L16.0243 25.4154C17.4385 26.2293 19.8154 26.1913 21.3046 25.3286Z" fill="#2C353B"/>
<path d="M24.6103 23.3594C24.498 23.4678 24.3576 23.5601 24.2077 23.6469L21.3046 25.3286C19.8154 26.1913 17.4385 26.2293 16.0243 25.4154L13.847 24.1625L17.2185 22.2093C18.2205 21.6289 18.2339 20.6958 17.2253 20.1153L3.6601 12.3087L4.08151 12.0646C4.23151 11.9778 4.39071 11.8963 4.56901 11.8259L31.0867 0.579709C33.065 -0.261173 35.743 -0.179736 37.4021 0.774977L43.6521 4.37175C45.3112 5.32656 45.4517 6.86718 44.0014 8.01198L24.6103 23.3594Z" fill="#5D7280"/>
<path d="M38.7271 6.04195L38.7232 7.39637C38.722 7.79797 38.4591 8.19897 37.9338 8.50329L37.9376 7.14877C38.4629 6.84445 38.7259 6.44355 38.7271 6.04195Z" fill="#888ABF"/>
<path d="M13.5882 14.2468L13.592 12.8924C13.5908 13.2993 13.8584 13.7067 14.394 14.015L14.3901 15.3695C13.8546 15.0612 13.587 14.6537 13.5882 14.2468Z" fill="#AEB2F4"/>
<path d="M37.9376 7.14877L37.9338 8.50329L22.1788 17.6295L22.1827 16.2751L37.9376 7.14877Z" fill="#888ABF"/>
<path d="M18.3213 16.2751L18.3175 17.6296L14.3901 15.3695L14.394 14.015L18.3213 16.2751Z" fill="#AEB2F4"/>
<path d="M37.9249 4.91938C38.9894 5.5319 38.9952 6.53615 37.9376 7.14877L22.1827 16.2751C21.1252 16.8877 19.3858 16.8877 18.3213 16.2751L14.394 14.015C13.3298 13.4027 13.3238 12.3982 14.3814 11.7856L30.1363 2.65928C31.1938 2.04677 32.9335 2.04686 33.9977 2.65928L37.9249 4.91938Z" fill="#D7DAFF"/>
<path d="M22.1827 16.2751L22.1788 17.6295C21.1212 18.2421 19.3821 18.2421 18.3175 17.6296L18.3213 16.2751C19.3858 16.8877 21.1252 16.8877 22.1827 16.2751Z" fill="#888ABF"/>
<path d="M33.0382 9.95251L25.3173 5.50917L26.0225 5.10338L33.7435 9.54672L33.0382 9.95251Z" fill="#AEB2F4"/>
<path d="M26.8076 13.5381L19.0866 9.09477L19.7919 8.68898L27.5127 13.1323L26.8076 13.5381Z" fill="#AEB2F4"/>
<path d="M31.8844 6.69354L30.9803 6.17322C30.5593 5.93091 30.6121 5.50768 31.0983 5.22788L31.7663 4.84342C32.2525 4.56353 32.988 4.53323 33.4091 4.77554L34.3131 5.29576C34.7342 5.53808 34.6813 5.96131 34.1952 6.2411L33.5272 6.62566C33.0409 6.90536 32.3054 6.93576 31.8844 6.69354Z" fill="#5D7280"/>
<path d="M34.644 4.57848C34.2224 4.33586 33.4174 4.39467 32.8581 4.71643L33.1859 4.90522C33.5034 4.72251 33.9599 4.68912 34.2058 4.83057C34.4634 4.97879 34.4051 5.24134 34.0877 5.42405L34.4156 5.61284C34.9749 5.29108 35.0771 4.82777 34.644 4.57848Z" fill="#5D7280"/>
<path d="M25.0009 10.6549L24.0969 10.1346C23.6758 9.8924 23.7286 9.46907 24.2148 9.18927L24.8828 8.80482C25.3691 8.52492 26.1045 8.49462 26.5256 8.73694L27.4296 9.25715C27.8507 9.49947 27.7979 9.9227 27.3117 10.2026L26.6437 10.5871C26.1574 10.8667 25.422 10.8973 25.0009 10.6549Z" fill="#5D7280"/>
<path d="M21.7395 14.3232C21.3182 14.5656 20.6388 14.5656 20.2172 14.323L17.723 12.8876C17.3013 12.645 17.3016 12.2542 17.723 12.0117C18.1446 11.7691 18.8234 11.7691 19.2451 12.0117L19.6899 12.2677C19.7251 12.2341 19.772 12.2071 19.8188 12.1801C20.2405 11.9373 20.9195 11.9376 21.3412 12.1802L21.4464 12.2408C21.868 12.4834 21.8684 12.8743 21.4467 13.1169C21.3997 13.1439 21.3529 13.1709 21.2943 13.1911L21.7391 13.4472C22.161 13.6897 22.1613 14.0805 21.7395 14.3232Z" fill="#5D7280"/>
<path d="M29.0383 8.89333C29.0383 8.55014 28.3967 8.26426 27.6059 8.26426V8.5311C28.0548 8.5311 28.4187 8.69338 28.4187 8.89343C28.4187 9.10315 28.0548 9.26503 27.6059 9.26503V9.53197C28.3968 9.53187 29.0383 9.24589 29.0383 8.89333Z" fill="#5D7280"/>
<path d="M23.7593 20.6239V21.7958H23.7465C23.7465 22.1525 23.5038 22.5087 23.031 22.7892C22.0728 23.3367 20.5269 23.3367 19.5687 22.7892C19.0834 22.5087 18.8532 22.1525 18.8532 21.7958V20.6239H19.9265C20.7569 20.2931 21.843 20.2931 22.6733 20.6239H23.7593Z" fill="#AEB2F4"/>
<path d="M23.0366 21.6206C22.0789 22.1718 20.526 22.1718 19.5682 21.6206C18.6105 21.0694 18.6104 20.1758 19.5682 19.6246C20.5259 19.0734 22.0788 19.0734 23.0366 19.6246C23.9943 20.1759 23.9943 21.0695 23.0366 21.6206Z" fill="#D7DAFF"/>
</g>
</svg>
