<svg width="677" height="849" viewBox="0 0 677 849" fill="none" xmlns="http://www.w3.org/2000/svg">
<path d="M308.241 828.301L308.247 832.729C308.252 833.043 308.455 833.357 308.855 833.597L334.423 848.638L334.411 844.216L308.85 829.168C308.444 828.929 308.241 828.615 308.241 828.301Z" fill="#804F59"/>
<path d="M334.411 844.216L334.423 848.638C335.24 849.123 336.57 849.118 337.393 848.638L363.124 833.597C363.535 833.351 363.744 833.037 363.744 832.717L363.732 828.289C363.732 828.609 363.53 828.929 363.112 829.168L337.382 844.216C336.559 844.695 335.229 844.695 334.411 844.216Z" fill="#613941"/>
<path d="M308.241 825.421L308.247 829.85C308.252 830.164 308.455 830.478 308.855 830.717L334.423 845.759L334.411 841.336L308.85 826.289C308.444 826.049 308.241 825.735 308.241 825.421Z" fill="#DBDFE6"/>
<path d="M334.411 841.336L334.423 845.759C335.24 846.244 336.57 846.239 337.393 845.759L363.124 830.717C363.535 830.472 363.744 830.158 363.744 829.838L363.732 825.41C363.732 825.73 363.53 826.049 363.112 826.289L337.382 841.336C336.559 841.816 335.229 841.816 334.411 841.336Z" fill="#CCD0D9"/>
<path d="M308.858 824.547C308.038 825.026 308.033 825.809 308.848 826.289L334.412 841.334C335.231 841.816 336.562 841.814 337.382 841.334L363.112 826.289C363.937 825.807 363.941 825.029 363.123 824.547L337.559 809.501C336.744 809.022 335.413 809.02 334.589 809.501L308.858 824.547Z" fill="#EBEEF4"/>
<path d="M358.823 824.945C359.27 825.206 359.272 825.629 358.828 825.891L336.868 838.816C336.424 839.077 335.702 839.077 335.255 838.816L313.151 825.891C312.704 825.63 312.702 825.206 313.146 824.945L335.106 812.02C335.55 811.759 336.272 811.759 336.719 812.02L358.823 824.945Z" fill="#2ADC03"/>
<path d="M358.83 825.894L358.167 826.279L336.87 838.816C336.421 839.073 335.7 839.073 335.252 838.816L313.818 826.279L313.155 825.894C312.707 825.628 312.697 825.203 313.146 824.947L335.106 812.025C335.554 811.758 336.275 811.758 336.714 812.025L358.82 824.947C359.269 825.203 359.269 825.628 358.83 825.894Z" fill="#21B500"/>
<path d="M358.167 826.279L336.87 838.816C336.421 839.073 335.7 839.073 335.252 838.816L313.818 826.279L335.106 813.743C335.554 813.486 336.275 813.486 336.714 813.743L358.167 826.279Z" fill="#2ADC03"/>
<path d="M340.837 824.424C343.521 825.994 343.535 828.547 340.868 830.116C338.195 831.689 333.85 831.686 331.166 830.116C328.475 828.543 328.461 825.998 331.134 824.424C333.801 822.855 338.146 822.851 340.837 824.424Z" fill="#21B500"/>
<path d="M339.915 791.105L339.856 821.504V823.522L339.845 826.8C339.833 827.382 339.47 827.952 338.719 828.403C337.207 829.293 334.745 829.293 333.232 828.403C332.47 827.952 332.083 827.37 332.083 826.788C332.165 785.913 332.081 830.895 332.153 791.105C332.153 794.026 339.915 794.132 339.915 791.105Z" fill="#804F59"/>
<path d="M360.122 813.031C346.885 820.821 325.352 820.821 312.03 813.031C300.454 806.261 299.47 796.417 306.169 789.28C314.894 777.967 325 766.593 335.999 755.191C368.928 793.384 367.731 791.653 368.477 793.069C372.075 799.896 369.295 807.629 360.122 813.031Z" fill="#2ADC03"/>
<path d="M339.915 791.105L339.856 821.504V823.522C338.614 823.594 337.371 823.629 336.105 823.629C334.756 823.629 333.42 823.582 332.095 823.499C332.184 774.158 332.141 797.756 332.153 791.105C332.153 794.026 339.915 794.132 339.915 791.105Z" fill="#613941"/>
<path d="M360.118 813.027C348.444 819.901 330.32 820.713 317.073 815.465C315.289 814.759 313.6 813.947 312.027 813.027C300.488 806.282 299.439 796.428 306.169 789.284C314.276 778.776 323.554 768.225 333.645 757.652C334.426 756.829 335.207 756.017 335.999 755.193C369.071 793.552 367.733 791.67 368.478 793.069C372.078 799.9 369.291 807.629 360.118 813.027Z" fill="#21B500"/>
<path d="M353.954 811.092C344.01 816.95 329.381 818.404 317.073 815.465C315.289 814.759 313.6 813.947 312.027 813.027C300.488 806.282 299.439 796.428 306.169 789.284C314.276 778.776 323.554 768.225 333.645 757.652C362.586 791.246 361.547 789.696 362.314 791.134C365.903 797.954 363.127 805.694 353.954 811.092Z" fill="#2ADC03"/>
<path d="M356.203 790.871C345.114 797.396 327.082 797.396 315.926 790.871C307.341 785.849 304.662 777.771 311.016 770.976C317.666 762.356 325.271 753.693 333.528 745.009C334.852 743.616 337.077 743.676 338.335 745.131C364.21 775.068 362.716 773.227 363.213 774.177C366.204 779.89 363.875 786.351 356.203 790.871Z" fill="#2ADC03"/>
<path d="M356.207 790.87C345.244 797.327 327.272 797.469 315.926 790.871C307.436 785.903 304.603 777.862 311.017 770.972C317.652 762.368 325.251 753.719 333.5 745.047C333.508 745.038 333.516 745.03 333.524 745.021C334.843 743.613 337.076 743.672 338.338 745.132C364.232 775.091 362.735 773.207 363.312 774.378C366.148 780.042 363.783 786.398 356.207 790.87Z" fill="#21B500"/>
<path d="M349.65 788.816C341.524 793.594 329.666 794.877 319.524 792.652C318.257 792.13 317.058 791.529 315.926 790.871C307.436 785.903 304.603 777.862 311.017 770.972C317.652 762.368 325.251 753.719 333.5 745.047C356.806 772.105 356.098 770.956 356.767 772.312C359.603 777.976 357.238 784.344 349.65 788.816Z" fill="#2ADC03"/>
<path d="M329.573 760.824C329.573 762.153 328.714 763.231 327.65 763.231C326.585 763.231 325.727 762.153 325.727 760.824C325.727 759.503 326.585 758.425 327.65 758.425C328.714 758.425 329.573 759.503 329.573 760.824Z" fill="#21B500"/>
<path d="M320.566 785.188C320.566 786.517 319.708 787.595 318.643 787.595C317.579 787.595 316.72 786.517 316.72 785.188C316.72 783.868 317.579 782.789 318.643 782.789C319.708 782.789 320.566 783.868 320.566 785.188Z" fill="#21B500"/>
<path d="M341.474 769.091C341.474 770.42 340.616 771.498 339.551 771.498C338.486 771.498 337.628 770.42 337.628 769.091C337.628 767.771 338.486 766.692 339.551 766.692C340.616 766.692 341.474 767.771 341.474 769.091Z" fill="#21B500"/>
<path d="M346.612 782.785C346.612 784.114 345.754 785.192 344.689 785.192C343.624 785.192 342.766 784.114 342.766 782.785C342.766 781.464 343.624 780.386 344.689 780.386C345.754 780.386 346.612 781.464 346.612 782.785Z" fill="#21B500"/>
<path d="M346.941 806.734C346.941 808.063 346.082 809.141 345.018 809.141C343.953 809.141 343.095 808.063 343.095 806.734C343.095 805.413 343.953 804.335 345.018 804.335C346.082 804.335 346.941 805.413 346.941 806.734Z" fill="#21B500"/>
<path d="M327.515 805.264C327.515 806.593 326.657 807.671 325.592 807.671C324.528 807.671 323.669 806.593 323.669 805.264C323.669 803.943 324.528 802.865 325.592 802.865C326.657 802.865 327.515 803.943 327.515 805.264Z" fill="#21B500"/>
<path d="M311.101 795.761C311.101 797.09 310.243 798.168 309.178 798.168C308.114 798.168 307.255 797.09 307.255 795.761C307.255 794.44 308.114 793.362 309.178 793.362C310.243 793.362 311.101 794.44 311.101 795.761Z" fill="#21B500"/>
<path d="M214.73 454.649L212.193 458.746C212.018 459.04 212.028 459.448 212.265 459.902L227.566 488.675L230.094 484.579L214.802 455.805C214.56 455.348 214.55 454.94 214.73 454.649Z" fill="#DBE6FA"/>
<path d="M230.094 484.579L227.566 488.675C228.052 489.598 229.301 490.367 230.347 490.402L263.073 491.458C263.6 491.47 263.975 491.301 264.159 491.006L266.691 486.906C266.507 487.201 266.133 487.379 265.605 487.358L232.876 486.307C231.83 486.271 230.584 485.498 230.094 484.579Z" fill="#BBCFEF"/>
<path d="M216.383 451.988L213.846 456.085C213.671 456.378 213.681 456.786 213.918 457.241L229.219 486.013L231.748 481.918L216.455 453.144C216.213 452.686 216.203 452.278 216.383 451.988Z" fill="#A46EF2"/>
<path d="M231.748 481.918L229.219 486.013C229.706 486.937 230.954 487.705 232 487.74L264.727 488.796C265.253 488.809 265.628 488.64 265.812 488.344L268.344 484.244C268.16 484.539 267.787 484.717 267.258 484.696L234.529 483.645C233.483 483.61 232.237 482.836 231.748 481.918Z" fill="#9156E5"/>
<path d="M217.463 451.538C216.42 451.504 215.966 452.225 216.454 453.143L231.749 481.916C232.239 482.838 233.487 483.61 234.53 483.643L267.258 484.696C268.307 484.73 268.758 484.013 268.268 483.091L252.973 454.318C252.485 453.4 251.24 452.625 250.192 452.591L217.463 451.538Z" fill="white"/>
<path d="M264.014 480.959C264.282 481.46 264.042 481.853 263.476 481.837L235.495 481.016C234.929 480.999 234.253 480.579 233.985 480.078L220.711 455.277C220.442 454.775 220.683 454.383 221.249 454.399L249.23 455.22C249.796 455.237 250.471 455.656 250.74 456.158L264.014 480.959Z" fill="#2ADC03"/>
<path d="M263.476 481.841L262.634 481.812L235.497 481.017C234.929 480.994 234.254 480.574 233.982 480.076L221.112 456.024L220.713 455.282C220.446 454.775 220.681 454.377 221.248 454.401L249.227 455.224C249.8 455.239 250.475 455.658 250.733 456.159L264.011 480.959C264.283 481.457 264.04 481.85 263.476 481.841Z" fill="#9156E5"/>
<path d="M262.634 481.812L235.497 481.017C234.929 480.994 234.254 480.574 233.982 480.076L221.112 456.024L248.241 456.812C248.808 456.836 249.483 457.255 249.747 457.747L262.634 481.812Z" fill="#FFCA6C"/>
<path d="M246.05 464.368C243.966 463.073 244.155 459.914 246.457 458.92L283.928 442.725C285.49 442.05 287.303 442.766 287.982 444.333C288.657 445.895 287.938 447.71 286.374 448.385L248.903 464.58C247.939 464.996 246.88 464.883 246.05 464.368Z" fill="#804F59"/>
<path d="M258.836 453.57L246.457 458.92C244.151 459.916 243.97 463.075 246.05 464.368C246.88 464.883 247.939 464.996 248.903 464.58L253.134 462.751L258.836 453.57Z" fill="#613941"/>
<path d="M303.876 443.805C299.098 451.498 288.988 453.849 281.301 449.076C276.906 446.346 274.244 441.868 273.679 437.094C273.245 433.529 273.982 429.799 276.026 426.508C280.804 418.815 290.908 416.459 298.594 421.233C301.475 423.022 303.609 425.554 304.9 428.434L304.902 428.446C307.052 433.243 306.861 438.999 303.876 443.805Z" fill="#21B500"/>
<path d="M302.55 439.039C297.777 446.725 287.666 449.076 279.98 444.302C277.099 442.513 274.969 439.974 273.679 437.094C273.245 433.529 273.982 429.799 276.026 426.508C280.804 418.815 290.908 416.459 298.594 421.233C301.475 423.022 303.609 425.554 304.9 428.434L304.902 428.446C305.332 432.018 304.594 435.748 302.55 439.039Z" fill="#2ADC03"/>
<path d="M244.287 473.967C241.295 473.876 237.725 471.658 236.308 469.012C234.89 466.365 236.167 464.291 239.149 464.377C242.132 464.464 245.703 466.681 247.129 469.333C248.537 471.974 247.27 474.054 244.287 473.967Z" fill="#FFB63C"/>
<path d="M268.427 433.598L254.382 456.135L245.272 470.764C244.208 472.478 240.108 471.071 238.798 468.606C238.376 467.824 238.362 467.126 238.666 466.637C269.959 416.435 259.737 432.833 261.835 429.468C261.526 429.965 261.545 430.655 261.961 431.446C262.793 432.99 264.888 434.291 266.641 434.352C267.511 434.372 268.129 434.079 268.427 433.598Z" fill="#804F59"/>
<path d="M287.318 451.331C287.318 451.331 283.629 450.675 281.484 449.125L293.001 432.481C293.001 432.481 293.431 442.015 287.318 451.331Z" fill="#21B500"/>
<path d="M268.427 433.598L254.382 456.135C252.174 455.15 249.881 453.755 247.768 452.039L261.835 429.468C261.526 429.965 261.545 430.655 261.961 431.446C262.793 432.99 264.888 434.291 266.641 434.352C267.511 434.372 268.129 434.079 268.427 433.598Z" fill="#613941"/>
<path d="M289.353 442.348C280.332 456.873 259.92 459.138 247.92 446.593C239.878 438.14 238.184 424.988 244.647 414.583C252.319 402.23 268.531 398.448 280.875 406.114C285.494 408.983 288.921 413.047 290.995 417.674L290.999 417.688C294.45 425.396 294.146 434.631 289.353 442.348Z" fill="#21B500"/>
<path d="M287.224 434.695C279.561 447.034 263.331 450.808 250.993 443.145C246.368 440.273 242.949 436.197 240.877 431.573C240.18 425.85 241.364 419.863 244.645 414.58C252.316 402.23 268.535 398.448 280.873 406.111C285.497 408.983 288.924 413.048 290.996 417.672L291 417.691C291.69 423.425 290.506 429.412 287.224 434.695Z" fill="#2ADC03"/>
<path d="M244.516 463.411C243.957 463.064 243.498 462.537 243.251 461.864L237.338 445.888L233.012 434.213C232.421 432.612 233.24 430.846 234.832 430.25C236.432 429.66 238.204 430.469 238.794 432.07L243.239 444.061L249.034 459.721C250.048 462.47 247.001 464.955 244.516 463.411Z" fill="#804F59"/>
<path d="M247.92 446.593C242.409 440.801 240.026 432.956 240.839 425.622L250.487 427.852C250.487 427.852 251.349 435.911 247.92 446.593Z" fill="#189453"/>
<path d="M243.239 444.061C241.369 444.968 239.378 445.583 237.338 445.888L233.012 434.213C232.421 432.612 233.24 430.846 234.832 430.25C236.432 429.66 238.204 430.469 238.794 432.07L243.239 444.061Z" fill="#613941"/>
<path d="M248.168 434.289C243.39 441.983 233.28 444.334 225.593 439.56C217.876 434.767 215.565 424.646 220.318 416.992C225.096 409.299 235.2 406.943 242.886 411.717C250.558 416.482 252.953 426.585 248.168 434.289Z" fill="#21B500"/>
<path d="M246.842 429.523C242.069 437.209 231.958 439.561 224.272 434.787C221.391 432.998 219.261 430.459 217.971 427.578C217.537 424.013 218.274 420.283 220.318 416.992C225.096 409.299 235.2 406.943 242.886 411.717C247.455 414.555 248.889 418.447 249.194 418.93C249.624 422.502 248.886 426.232 246.842 429.523Z" fill="#2ADC03"/>
<path d="M298.609 433.171C299.301 433.601 300.29 433.259 300.819 432.407C301.348 431.556 301.216 430.517 300.524 430.088C299.832 429.658 298.842 430 298.314 430.851C297.785 431.703 297.917 432.741 298.609 433.171Z" fill="#21B500"/>
<path d="M281.395 433.611C282.404 434.237 283.847 433.739 284.619 432.497C285.39 431.255 285.197 429.74 284.188 429.113C283.179 428.486 281.736 428.985 280.964 430.227C280.193 431.469 280.386 432.984 281.395 433.611Z" fill="#21B500"/>
<path d="M261.103 443.463C262.112 444.09 263.555 443.591 264.326 442.349C265.098 441.107 264.905 439.592 263.896 438.965C262.887 438.339 261.443 438.837 260.672 440.079C259.901 441.321 260.094 442.836 261.103 443.463Z" fill="#21B500"/>
<path d="M265.468 426.835C266.477 427.462 267.92 426.963 268.692 425.721C269.463 424.479 269.27 422.964 268.261 422.338C267.252 421.711 265.809 422.21 265.037 423.452C264.266 424.694 264.459 426.209 265.468 426.835Z" fill="#21B500"/>
<path d="M282.469 421.011C283.478 421.637 284.921 421.139 285.693 419.897C286.464 418.655 286.271 417.14 285.262 416.513C284.253 415.886 282.81 416.385 282.038 417.627C281.267 418.869 281.46 420.384 282.469 421.011Z" fill="#21B500"/>
<path d="M252.452 417.658C253.461 418.285 254.905 417.786 255.676 416.544C256.447 415.302 256.254 413.787 255.245 413.16C254.236 412.534 252.793 413.032 252.022 414.274C251.25 415.516 251.443 417.031 252.452 417.658Z" fill="#21B500"/>
<path d="M268 413.656C269.009 414.283 270.452 413.784 271.224 412.542C271.995 411.3 271.802 409.785 270.793 409.159C269.784 408.532 268.341 409.031 267.569 410.273C266.798 411.515 266.991 413.03 268 413.656Z" fill="#21B500"/>
<path d="M234.056 416.64C235.065 417.267 236.509 416.768 237.28 415.526C238.051 414.284 237.859 412.769 236.85 412.143C235.84 411.516 234.397 412.015 233.626 413.257C232.854 414.499 233.047 416.013 234.056 416.64Z" fill="#21B500"/>
<path d="M238.155 431.186C239.164 431.813 240.607 431.314 241.379 430.072C242.15 428.83 241.957 427.315 240.948 426.689C239.939 426.062 238.496 426.561 237.724 427.803C236.953 429.045 237.146 430.56 238.155 431.186Z" fill="#21B500"/>
<path d="M222.604 427.996C223.613 428.623 225.056 428.124 225.827 426.882C226.599 425.64 226.406 424.125 225.397 423.499C224.388 422.872 222.944 423.371 222.173 424.613C221.402 425.855 221.594 427.37 222.604 427.996Z" fill="#21B500"/>
<path d="M421.198 426.16L421.203 429.335C421.207 429.56 421.356 429.785 421.65 429.957L440.445 440.741L440.437 437.57L421.646 426.782C421.348 426.61 421.198 426.385 421.198 426.16Z" fill="#DBE6FA"/>
<path d="M440.437 437.57L440.445 440.741C441.046 441.088 442.024 441.084 442.629 440.741L461.544 429.957C461.847 429.781 462 429.556 462 429.326L461.992 426.152C461.992 426.381 461.843 426.61 461.536 426.782L442.621 437.57C442.016 437.914 441.038 437.914 440.437 437.57Z" fill="#BBCFEF"/>
<path d="M421.198 424.095L421.203 427.27C421.207 427.495 421.356 427.721 421.65 427.892L440.445 438.676L440.437 435.506L421.646 424.718C421.348 424.546 421.198 424.321 421.198 424.095Z" fill="#F04343"/>
<path d="M440.437 435.506L440.445 438.676C441.046 439.024 442.024 439.02 442.629 438.676L461.544 427.892C461.847 427.716 462 427.491 462 427.262L461.992 424.087C461.992 424.316 461.843 424.546 461.536 424.718L442.621 435.506C442.016 435.849 441.038 435.849 440.437 435.506Z" fill="#E22525"/>
<path d="M421.652 423.468C421.049 423.812 421.046 424.374 421.645 424.717L440.437 435.504C441.039 435.85 442.018 435.848 442.621 435.504L461.536 424.718C462.142 424.372 462.145 423.814 461.543 423.469L442.751 412.682C442.152 412.338 441.173 412.336 440.568 412.682L421.652 423.468Z" fill="#FF6161"/>
<path d="M458.382 423.754C458.711 423.941 458.713 424.245 458.386 424.432L442.243 433.698C441.916 433.886 441.386 433.886 441.057 433.698L424.808 424.432C424.479 424.245 424.478 423.941 424.804 423.754L440.948 414.488C441.274 414.3 441.805 414.3 442.133 414.488L458.382 423.754Z" fill="#2ADC03"/>
<path d="M458.388 424.435L457.901 424.71L442.244 433.699C441.915 433.883 441.385 433.883 441.055 433.699L425.298 424.71L424.811 424.435C424.482 424.243 424.474 423.939 424.804 423.755L440.948 414.491C441.277 414.3 441.807 414.3 442.13 414.491L458.381 423.755C458.71 423.939 458.71 424.243 458.388 424.435Z" fill="#E22525"/>
<path d="M457.901 424.71L442.244 433.699C441.915 433.883 441.385 433.883 441.055 433.699L425.298 424.71L440.948 415.722C441.277 415.538 441.807 415.538 442.13 415.722L457.901 424.71Z" fill="#EBF2FF"/>
<path d="M444.101 422.375C445.833 423.363 445.842 424.969 444.121 425.957C442.396 426.947 439.592 426.945 437.86 425.957C436.124 424.967 436.115 423.365 437.84 422.375C439.56 421.387 442.364 421.385 444.101 422.375Z" fill="#CBDBF4"/>
<path d="M443.713 386.885C443.669 421.891 443.689 406.178 443.684 410.395L443.669 423.988C443.669 424.382 443.403 424.776 442.879 425.082C441.823 425.687 440.103 425.687 439.04 425.082C438.508 424.776 438.243 424.375 438.243 423.974L438.257 410.381C438.263 405.633 438.242 422.58 438.287 386.871C438.287 388.27 441.238 388.942 442.931 387.979C443.345 387.74 443.713 387.36 443.713 386.885Z" fill="#804F59"/>
<path d="M442.917 398.522C443.979 399.127 443.984 400.112 442.929 400.718C441.871 401.325 440.152 401.324 439.09 400.718C438.025 400.111 438.02 399.129 439.078 398.522C440.133 397.916 441.852 397.914 442.917 398.522Z" fill="#804F59"/>
<path d="M438.891 410.773L430.276 415.689C429.795 415.969 429.18 415.624 429.18 415.066C429.15 404.931 429.16 408.426 429.158 407.67C429.158 406.502 428.191 405.554 427.009 405.554H427.002C425.819 405.561 424.859 406.509 424.859 407.684C424.864 409.202 424.848 403.815 424.881 415.08C424.892 417.979 427.307 420.041 429.911 420.041C430.771 420.041 431.638 419.815 432.426 419.369L438.891 415.679V410.773Z" fill="#804F59"/>
<path d="M429.18 413.452C428.208 414.265 426.211 414.353 425.024 413.671C424.974 413.643 424.924 413.615 424.881 413.579L424.859 406.658C424.859 405.483 425.819 404.535 427.002 404.528H427.009C428.191 404.528 429.158 405.476 429.158 406.644L429.18 413.452Z" fill="#613941"/>
<path d="M443.713 387.264L443.684 410.395C442.813 410.49 441.919 410.541 441.019 410.541C440.081 410.541 439.158 410.483 438.257 410.381L438.287 387.257C438.666 387.351 441.304 387.531 443.625 387.272C443.654 387.279 443.684 387.272 443.713 387.264Z" fill="#613941"/>
<path d="M457.7 382.094C457.681 382.17 452.603 402.151 452.576 402.228C452.133 403.482 451.062 404.678 449.372 405.648C444.765 408.288 437.278 408.288 432.634 405.648C431.084 404.758 430.05 403.687 429.533 402.556C429.526 402.556 429.526 402.549 429.526 402.549C429.452 402.381 429.386 402.206 429.334 402.038H429.327C423.339 378.074 424.756 383.746 424.535 382.86C425.236 384.559 426.75 386.17 429.068 387.498C436.223 391.571 447.868 391.149 454.023 386.827C456.039 385.434 457.264 383.801 457.692 382.094H457.7Z" fill="#28AF6E"/>
<path d="M454.023 386.827C454.005 386.9 450.851 399.355 450.826 399.428C450.361 400.726 449.261 401.958 447.511 402.965C442.457 405.862 434.158 405.656 429.533 402.556C429.526 402.556 429.526 402.549 429.526 402.549C429.452 402.381 429.386 402.206 429.334 402.038H429.327C423.339 378.074 424.756 383.746 424.535 382.86C425.236 384.559 426.75 386.17 429.068 387.498C436.223 391.571 447.868 391.149 454.023 386.827Z" fill="#22B700"/>
<path d="M452.964 387.498C446.386 391.268 435.688 391.268 429.073 387.498C422.495 383.742 422.413 377.675 428.874 373.898L433.842 374.35L432.322 372.337C439.887 369.769 450.535 370.886 455.571 375.808V375.815H455.578V377.69L456.973 377.566C458.974 380.935 457.645 384.807 452.964 387.498Z" fill="#2ADC03"/>
<path d="M436.449 395.972C436.43 396.045 433.359 408.144 433.332 408.217C433.063 408.98 432.412 409.707 431.384 410.297C427.578 412.478 420.767 411.585 419.318 408.417C419.314 408.417 419.314 408.412 419.314 408.412C419.269 408.31 419.228 408.204 419.197 408.102H419.192C415.548 393.515 416.414 396.98 416.278 396.438C418.239 401.187 428.923 402.565 434.212 398.85C435.438 398.003 436.184 397.01 436.444 395.972H436.449Z" fill="#28AF6E"/>
<path d="M434.212 398.85C434.193 398.926 432.294 406.439 432.268 406.514C430.984 410.097 423.204 411.021 419.318 408.417C419.314 408.417 419.314 408.412 419.314 408.412C419.269 408.31 419.228 408.204 419.197 408.102H419.192C415.548 393.515 416.414 396.98 416.278 396.438C418.239 401.187 428.923 402.565 434.212 398.85Z" fill="#22B700"/>
<path d="M433.569 399.26C429.568 401.55 423.063 401.55 419.039 399.26C415.857 397.444 415.171 394.746 416.994 392.559L419.217 392.755V390.874L419.194 390.838C423.211 388.65 429.56 388.686 433.525 390.94C437.549 393.237 437.571 396.963 433.569 399.26Z" fill="#2ADC03"/>
<path d="M455.578 375.815V377.69L454.035 377.828L455.571 375.815H455.578Z" fill="white"/>
<path d="M455.578 375.815V377.69L454.035 377.828L455.571 375.815H455.578Z" fill="#22B700"/>
<path d="M432.306 372.324V374.211L433.844 374.349L432.306 372.324Z" fill="#22B700"/>
<path d="M420.752 392.894L419.217 392.755V390.874L420.752 392.894Z" fill="white"/>
<path d="M420.752 392.894L419.217 392.755V390.874L420.752 392.894Z" fill="#22B700"/>
<path d="M449.47 374.685C448.835 375.057 447.801 375.057 447.159 374.685C446.524 374.321 446.516 373.73 447.151 373.365C447.794 373.001 448.827 373.001 449.462 373.365C450.105 373.73 450.112 374.321 449.47 374.685Z" fill="#22B700"/>
<path d="M441.402 375.526C440.767 375.898 439.734 375.898 439.091 375.526C438.456 375.161 438.449 374.571 439.084 374.206C439.726 373.841 440.76 373.841 441.395 374.206C442.037 374.571 442.045 375.161 441.402 375.526Z" fill="#22B700"/>
<path d="M441.817 382.254C441.182 382.626 440.148 382.626 439.506 382.254C438.871 381.889 438.863 381.299 439.498 380.934C440.141 380.569 441.174 380.569 441.809 380.934C442.452 381.299 442.459 381.889 441.817 382.254Z" fill="#22B700"/>
<path d="M431.64 393.689C430.95 394.094 429.826 394.094 429.128 393.689C428.438 393.293 428.43 392.651 429.12 392.254C429.818 391.858 430.942 391.858 431.632 392.254C432.33 392.651 432.338 393.293 431.64 393.689Z" fill="#22B700"/>
<path d="M423.744 398.422C423.109 398.794 422.076 398.794 421.433 398.422C420.798 398.057 420.791 397.466 421.426 397.102C422.068 396.737 423.102 396.737 423.737 397.102C424.379 397.466 424.387 398.057 423.744 398.422Z" fill="#22B700"/>
<path d="M430.551 397.898C430.166 398.123 429.539 398.123 429.15 397.898C428.765 397.677 428.76 397.319 429.145 397.097C429.535 396.876 430.161 396.876 430.546 397.097C430.936 397.319 430.94 397.677 430.551 397.898Z" fill="#22B700"/>
<path d="M423.428 393.373C423.043 393.599 422.417 393.599 422.027 393.373C421.642 393.152 421.638 392.794 422.023 392.573C422.412 392.352 423.039 392.352 423.424 392.573C423.813 392.794 423.818 393.152 423.428 393.373Z" fill="#22B700"/>
<path d="M432.422 382.275C431.554 382.783 430.14 382.783 429.262 382.275C428.394 381.776 428.384 380.969 429.252 380.47C430.13 379.972 431.544 379.972 432.412 380.47C433.29 380.969 433.3 381.776 432.422 382.275Z" fill="#22B700"/>
<path d="M448.531 386.318C447.663 386.827 446.25 386.827 445.372 386.318C444.503 385.82 444.493 385.012 445.362 384.514C446.24 384.015 447.653 384.015 448.521 384.514C449.399 385.012 449.409 385.82 448.531 386.318Z" fill="#22B700"/>
<path d="M436.449 395.972L435.954 406.981C435.086 406.73 434.344 406.484 433.834 406.246L436.449 395.972Z" fill="#189453"/>
<path d="M54.9349 347.898L57.9651 353.114C58.1861 353.48 58.6392 353.712 59.2738 353.722L99.6304 354.022L96.5974 348.817L56.2437 348.506C55.6025 348.5 55.1493 348.268 54.9349 347.898Z" fill="#804F59"/>
<path d="M96.5974 348.817L99.6304 354.022C100.923 354.037 102.485 353.123 103.126 351.997L123.135 316.728C123.451 316.158 123.482 315.646 123.264 315.269L120.227 310.058C120.446 310.434 120.425 310.95 120.098 311.516L100.093 346.792C99.452 347.918 97.8866 348.825 96.5974 348.817Z" fill="#613941"/>
<path d="M52.9691 344.505L55.9992 349.72C56.2202 350.086 56.6733 350.318 57.308 350.328L97.6645 350.628L94.6316 345.423L54.2778 345.112C53.6366 345.107 53.1835 344.875 52.9691 344.505Z" fill="#DBDFE6"/>
<path d="M94.6316 345.423L97.6645 350.628C98.9575 350.643 100.519 349.729 101.16 348.603L121.169 313.334C121.486 312.765 121.517 312.253 121.298 311.876L118.262 306.664C118.48 307.041 118.459 307.556 118.132 308.123L98.1271 343.398C97.4861 344.524 95.9207 345.431 94.6316 345.423Z" fill="#CCD0D9"/>
<path d="M53.0981 343.053C52.4601 344.178 52.9894 345.103 54.2762 345.113L94.6311 345.42C95.9236 345.43 97.4882 344.52 98.1262 343.396L118.132 308.123C118.773 306.993 118.247 306.072 116.955 306.062L76.5998 305.755C75.313 305.745 73.7456 306.65 73.1048 307.78L53.0981 343.053Z" fill="#EBEEF4"/>
<path d="M112.166 309.463C112.871 309.466 113.163 309.963 112.818 310.574L95.801 340.778C95.4569 341.388 94.6077 341.88 93.9033 341.877L59.0677 341.711C58.3633 341.708 58.0715 341.21 58.4156 340.6L75.4332 310.396C75.7773 309.785 76.6264 309.294 77.3308 309.297L112.166 309.463Z" fill="#2ADC03"/>
<path d="M112.823 310.577L112.306 311.482L95.804 340.776C95.4515 341.385 94.6027 341.876 93.8999 341.879L60.1177 341.714L59.075 341.712C58.3653 341.704 58.0642 341.21 58.4165 340.602L75.4359 310.402C75.7816 309.782 76.6303 309.29 77.3284 309.306L112.165 309.466C112.868 309.463 113.158 309.963 112.823 310.577Z" fill="#D68900"/>
<path d="M112.306 311.482L95.804 340.776C95.4515 341.385 94.6027 341.876 93.8999 341.879L60.1177 341.714L76.6087 312.426C76.961 311.818 77.8098 311.327 78.5011 311.33L112.306 311.482Z" fill="#FFCA6C"/>
<path d="M89.1206 321.438C92.4016 321.454 93.7665 323.78 92.1636 326.625C90.5569 329.477 86.5889 331.771 83.3079 331.755C80.0188 331.74 78.6581 329.42 80.2649 326.569C81.8677 323.724 85.8315 321.423 89.1206 321.438Z" fill="#FFA20D"/>
<path d="M54.7255 261.834L78.5493 303.096L85.9474 315.895L89.9704 322.867C90.3454 323.514 90.3067 324.401 89.7593 325.391C88.6339 327.372 85.8919 328.96 83.6137 328.951C82.4593 328.947 81.6518 328.534 81.2698 327.875L77.3232 321.035L69.9043 308.2L46.0064 266.837C46.3883 267.496 47.2074 267.902 48.35 267.913C50.6285 267.922 53.382 266.327 54.4958 264.353C55.0502 263.375 55.1005 262.481 54.7255 261.834Z" fill="#804F59"/>
<path d="M42.4171 251.128L37.3612 242.477L84.3909 242.7L73.7187 251.277L42.4171 251.128Z" fill="#2ADC03"/>
<path d="M27.126 278.268L14.3867 283.253L37.3612 242.477L42.4171 251.128L27.126 278.268Z" fill="#21B500"/>
<path d="M78.5493 303.096L85.9474 315.895L83.0343 321.057L75.6526 308.233L78.5493 303.096Z" fill="#613941"/>
<path d="M75.6526 308.233L83.0343 321.057L77.3232 321.035L69.9043 308.2L75.6526 308.233Z" fill="#613941"/>
<path d="M89.0487 277.832L96.431 290.658L81.1399 317.798L73.7576 304.971L89.0487 277.832Z" fill="#22B700"/>
<path d="M73.7576 304.971L81.1399 317.798L49.8384 317.649L42.456 304.822L73.7576 304.971Z" fill="#198500"/>
<path d="M66.3363 238.451L73.7187 251.277L58.4276 278.416L51.0452 265.59L66.3363 238.451Z" fill="#21B500"/>
<path d="M51.0452 265.59L58.4276 278.416L27.126 278.268L19.7436 265.441L51.0452 265.59Z" fill="#22B700"/>
<path d="M66.3364 238.443L51.044 265.587L19.7362 265.438L21.8584 261.663L26.9559 259.318L23.9207 258.002L35.0355 238.306L46.7092 238.349L48.0634 240.686L51.315 238.371L66.3364 238.443Z" fill="#2ADC03"/>
<path d="M61.4242 283.478L77.9836 312.201L30.9609 311.981L28.4934 307.694L31.5665 306.923L26.7017 304.601L23.2968 298.696L23.3271 298.695C24.6096 297.75 27.2638 295.796 27.1004 295.916L19.6418 292.359L14.3824 283.254L61.4242 283.478Z" fill="#22B700"/>
<path d="M92.7421 257.187L92.4442 261.25L94.5547 260.316L100.962 271.431L77.9836 312.201L61.4242 283.478L84.3954 242.696L92.7421 257.187Z" fill="#2AE600"/>
<path d="M73.7187 251.277L84.3909 242.7L61.4165 283.477L58.4276 278.416L73.7187 251.277Z" fill="#1C9900"/>
<path d="M58.4276 278.416L61.4165 283.477L14.3867 283.253L27.126 278.268L58.4276 278.416Z" fill="#2ADC03"/>
<path d="M46.7162 238.361L48.0634 240.686L46.312 241.941L46.7162 238.361Z" fill="white"/>
<path d="M46.7162 238.361L48.0634 240.686L46.312 241.941L46.7162 238.361Z" fill="#21B500"/>
<path d="M23.9138 258.004L25.1567 260.15L26.9515 259.321L23.9138 258.004Z" fill="#21B500"/>
<path d="M94.5547 260.316L92.3282 262.63L92.4442 261.25L94.5547 260.316Z" fill="white"/>
<path d="M94.5547 260.316L92.3282 262.63L92.4442 261.25L94.5547 260.316Z" fill="#22B700"/>
<path d="M28.4448 307.705L31.5662 306.92L30.3161 306.324L28.4448 307.705Z" fill="#189453"/>
<path d="M29.6122 297.119L23.3392 298.688L27.1004 295.916L29.6122 297.119Z" fill="white"/>
<path d="M29.6122 297.119L23.3392 298.688L27.1004 295.916L29.6122 297.119Z" fill="#189453"/>
<path d="M43.1437 250.369C44.1196 250.373 44.5241 251.063 44.0473 251.91C43.5706 252.756 42.393 253.438 41.417 253.433C40.4411 253.429 40.0365 252.739 40.5132 251.893C40.99 251.047 42.1677 250.364 43.1437 250.369Z" fill="#21B500"/>
<path d="M33.1019 258.13C34.0778 258.135 34.4823 258.825 34.0056 259.671C33.5288 260.517 32.3512 261.199 31.3753 261.194C30.3994 261.19 29.9947 260.5 30.4715 259.654C30.9482 258.808 32.126 258.125 33.1019 258.13Z" fill="#21B500"/>
<path d="M39.333 241.126C40.417 241.131 40.8664 241.897 40.3368 242.837C39.8073 243.777 38.4992 244.535 37.4152 244.53C36.3312 244.525 35.8817 243.759 36.4113 242.819C36.9408 241.879 38.249 241.121 39.333 241.126Z" fill="#21B500"/>
<path d="M55.657 241.786C57.0988 241.793 57.6964 242.812 56.9921 244.062C56.2877 245.312 54.5479 246.32 53.1061 246.313C51.6642 246.306 51.0664 245.287 51.7707 244.037C52.4751 242.787 54.2151 241.779 55.657 241.786Z" fill="#21B500"/>
<path d="M49.1874 254.799C50.7171 254.806 51.3512 255.887 50.6039 257.214C49.8566 258.54 48.0108 259.609 46.4811 259.602C44.9514 259.595 44.3171 258.514 45.0644 257.187C45.8116 255.861 47.6577 254.791 49.1874 254.799Z" fill="#21B500"/>
<path d="M624.201 523.429L628.048 529.466L621.988 541.252C619.348 546.418 612.076 546.752 608.879 541.786C608.809 541.677 603.176 532.885 603.533 533.442L602.669 532.088C601.716 530.592 602.125 528.609 603.603 527.667L603.614 527.661C605.092 526.719 607.058 527.158 608.012 528.653L608.681 529.705C608.751 529.813 614.6 538.943 614.228 538.363C614.731 539.117 615.872 539.126 616.319 538.265L623.476 524.348C623.665 523.983 623.907 523.677 624.201 523.429Z" fill="#804F59"/>
<path d="M619.155 560.046L621.524 563.753C621.697 564.013 622.034 564.168 622.498 564.155L651.971 563.098L649.6 559.398L620.129 560.447C619.661 560.463 619.323 560.309 619.155 560.046Z" fill="#804F59"/>
<path d="M649.6 559.398L651.971 563.098C652.915 563.068 654.028 562.353 654.462 561.511L668.011 535.158C668.225 534.732 668.232 534.358 668.061 534.09L665.688 530.385C665.858 530.653 665.859 531.029 665.637 531.453L652.092 557.811C651.657 558.652 650.542 559.363 649.6 559.398Z" fill="#613941"/>
<path d="M617.618 557.633L619.987 561.341C620.159 561.601 620.497 561.755 620.961 561.742L650.434 560.685L648.063 556.985L618.592 558.035C618.123 558.051 617.786 557.896 617.618 557.633Z" fill="#F3B2A1"/>
<path d="M648.063 556.985L650.434 560.685C651.378 560.655 652.491 559.94 652.925 559.098L666.474 532.745C666.688 532.319 666.695 531.945 666.524 531.677L664.15 527.972C664.321 528.24 664.322 528.616 664.1 529.04L650.554 555.398C650.12 556.24 649.004 556.951 648.063 556.985Z" fill="#E99B8A"/>
<path d="M617.669 556.57C617.237 557.411 617.651 558.069 618.591 558.035L648.063 556.983C649.007 556.95 650.122 556.237 650.554 555.396L664.1 529.04C664.534 528.196 664.122 527.541 663.178 527.575L633.706 528.627C632.766 528.66 631.649 529.37 631.215 530.214L617.669 556.57Z" fill="#FDC8B8"/>
<path d="M659.784 530.206C660.299 530.186 660.527 530.539 660.294 530.996L648.777 553.561C648.544 554.017 647.939 554.402 647.425 554.422L621.987 555.403C621.472 555.423 621.244 555.069 621.477 554.613L632.994 532.048C633.227 531.592 633.832 531.206 634.346 531.186L659.784 530.206Z" fill="#75EBB9"/>
<path d="M660.298 530.998L659.947 531.674L648.779 553.56C648.54 554.014 647.935 554.4 647.422 554.424L622.753 555.372L621.992 555.403C621.474 555.419 621.239 555.069 621.478 554.614L632.996 532.052C633.23 531.589 633.835 531.204 634.345 531.193L659.783 530.209C660.297 530.184 660.523 530.54 660.298 530.998Z" fill="#E99B8A"/>
<path d="M659.947 531.674L648.779 553.56C648.54 554.014 647.935 554.4 647.422 554.424L622.753 555.372L633.913 533.491C634.152 533.037 634.757 532.651 635.262 532.632L659.947 531.674Z" fill="#DBE6FA"/>
<path d="M644.169 538.011C647.593 537.879 649.116 540.242 647.566 543.278C646.013 546.323 641.972 548.892 638.548 549.024C635.116 549.157 633.597 546.801 635.151 543.757C636.701 540.72 640.737 538.143 644.169 538.011Z" fill="#CBDBF4"/>
<path d="M621.156 502.601L626.553 511.095C626.436 510.979 645.232 540.529 645.326 540.677C645.709 541.302 645.699 542.162 645.2 543.15C644.19 545.135 641.576 546.8 639.351 546.877C638.222 546.925 637.426 546.549 637.032 545.931C618.908 517.361 624.748 526.567 623.283 524.257L618.294 516.403L612.887 507.869C613.274 508.476 614.092 508.839 615.181 508.8C617.404 508.695 620.035 507.033 621.03 505.073C621.53 504.085 621.55 503.218 621.156 502.601Z" fill="#804F59"/>
<path d="M616.921 466.879L616.725 472.552L619.6 471.131L619.621 471.164L626.561 482.104L626.359 487.886L629.302 486.453L632.606 491.663L621.81 512.821L600.442 479.071L611.238 457.912L616.921 466.879Z" fill="#2ADC03"/>
<path d="M600.441 479.074L621.809 512.819L597.955 513.739L576.588 479.993L600.441 479.074Z" fill="#22B700"/>
<path d="M611.238 457.912L600.442 479.071L576.586 479.991L582.523 468.344L585.018 467.059L584.003 465.466L587.382 458.832L596.849 458.469L596.86 458.463L596.878 458.467L597.872 460.028L600.055 458.347L611.238 457.912Z" fill="#22B700"/>
<path d="M626.553 511.095L631.601 519.064L629.061 524.036L623.283 524.257L618.294 516.403L623.951 516.182L626.553 511.095Z" fill="#613941"/>
<path d="M613.758 537.626L611.95 541.17L608.568 541.298L603.533 533.442L606.841 533.316L608.681 529.705L613.758 537.626Z" fill="#613941"/>
<path d="M632.612 491.662L635.33 504.205L626.925 520.673L621.807 512.821L632.612 491.662Z" fill="#22B700"/>
<path d="M626.925 520.673L608.366 521.385L597.959 513.74L621.807 512.821L626.925 520.673Z" fill="#189453"/>
<path d="M599.463 493.168L615.057 517.795L607.176 533.236L591.582 508.61L599.463 493.168Z" fill="#2ADC03"/>
<path d="M591.582 508.611L607.182 533.236L589.764 533.909L584.119 524.979L584.099 524.946L586.59 522.947L581.444 520.755L574.176 509.277L591.582 508.611Z" fill="#22B700"/>
<path d="M599.466 493.164L591.582 508.611L574.176 509.277L575.998 505.708L578.439 504.458L577.438 502.886L577.442 502.869L582.049 493.837L599.466 493.164Z" fill="#22B700"/>
<path d="M615.059 517.796L617.042 526.95L610.909 538.968L607.174 533.238L615.059 517.796Z" fill="#22B700"/>
<path d="M610.909 538.968L597.365 539.487L589.77 533.909L607.174 533.238L610.909 538.968Z" fill="#189453"/>
<path d="M586.884 470.619C587.855 470.581 588.285 471.248 587.846 472.109C587.407 472.97 586.264 473.698 585.294 473.735C584.323 473.773 583.893 473.105 584.332 472.245C584.772 471.384 585.914 470.656 586.884 470.619Z" fill="#177902"/>
<path d="M605.94 458.478C606.911 458.44 607.341 459.107 606.902 459.968C606.463 460.829 605.32 461.557 604.35 461.594C603.379 461.631 602.949 460.964 603.388 460.103C603.827 459.243 604.97 458.515 605.94 458.478Z" fill="#177902"/>
<path d="M598.557 467.517C599.976 467.462 600.605 468.438 599.963 469.696C599.321 470.954 597.65 472.018 596.232 472.073C594.813 472.128 594.184 471.152 594.826 469.894C595.468 468.636 597.139 467.572 598.557 467.517Z" fill="#177902"/>
<path d="M584.498 497.621C585.387 497.525 585.736 498.064 585.278 498.826C584.82 499.588 583.728 500.283 582.839 500.38C581.951 500.476 581.602 499.936 582.06 499.174C582.518 498.412 583.61 497.717 584.498 497.621Z" fill="#177902"/>
<path d="M594.425 495.838C595.21 495.808 595.559 496.347 595.203 497.044C594.848 497.74 593.923 498.329 593.138 498.36C592.353 498.39 592.005 497.85 592.36 497.153C592.716 496.457 593.64 495.868 594.425 495.838Z" fill="#177902"/>
<path d="M589.846 504.215C590.363 504.195 590.592 504.551 590.358 505.009C590.124 505.467 589.516 505.854 589 505.874C588.483 505.894 588.254 505.539 588.488 505.081C588.722 504.623 589.33 504.235 589.846 504.215Z" fill="#177902"/>
<path d="M629.302 486.453L626.287 489.852L626.349 487.893L626.359 487.886L629.302 486.453Z" fill="white"/>
<path d="M629.302 486.453L626.287 489.852L626.349 487.893L626.359 487.886L629.302 486.453Z" fill="#22B700"/>
<path d="M588.403 523.713L584.119 524.979L584.02 525.012L584.099 524.946C584.2 524.865 586.764 522.809 586.601 522.94L588.403 523.713Z" fill="white"/>
<path d="M588.403 523.713L584.119 524.979L584.02 525.012L584.099 524.946C584.2 524.865 586.764 522.809 586.601 522.94L588.403 523.713Z" fill="#22B700"/>
<path d="M619.671 471.101L619.614 471.153L619.621 471.164L616.653 474.518L616.725 472.552L619.6 471.131L619.671 471.101Z" fill="white"/>
<path d="M619.671 471.101L619.621 471.164L616.653 474.518L616.725 472.552L619.6 471.131L619.671 471.101Z" fill="#22B700"/>
<path d="M596.864 458.445L597.872 460.028L596.684 460.952L596.86 458.463L596.864 458.445Z" fill="white"/>
<path d="M596.864 458.445L597.872 460.028L596.684 460.952L596.849 458.469L596.86 458.463L596.864 458.445Z" fill="#2ADC03"/>
<path d="M586.358 466.373L585.018 467.059L584.01 465.477L586.358 466.373Z" fill="white"/>
<path d="M586.358 466.373L585.018 467.059L584.01 465.477L586.358 466.373Z" fill="#2ADC03"/>
<path d="M579.79 503.765L578.439 504.458L577.424 502.864L577.442 502.869L579.79 503.765Z" fill="white"/>
<path d="M579.79 503.765L578.439 504.458L577.424 502.864L577.442 502.869L579.79 503.765Z" fill="#2ADC03"/>
<path d="M358.659 269.961C352.937 265.608 348.962 257.039 349.781 250.82C350.145 248.058 351.394 246.228 353.172 245.425L353.171 245.424C353.171 245.424 358.647 243.048 358.915 242.959L358.956 242.941L358.957 242.944C361.124 242.24 363.951 242.925 366.891 245.162C372.612 249.514 376.587 258.083 375.768 264.302C375.415 266.99 374.221 268.795 372.519 269.629L372.52 269.632L372.477 269.651C372.363 269.705 367.242 271.921 367.242 271.921L367.24 271.917C365.007 273.007 361.901 272.427 358.659 269.961Z" fill="#2E373D"/>
<path d="M297.505 292.685L313.663 285.782C319.603 283.244 326.413 284.073 331.516 287.955L337.556 292.55L338.711 283.556L334.755 285.267L330.381 281.941L329.222 282.432C327.222 283.43 324.799 283.248 322.979 281.863C321.197 280.508 320.282 278.297 320.576 276.063L323.892 250.873C324.227 248.33 325.223 245.913 326.781 243.866C328.599 241.476 331.044 239.763 333.746 238.84L344.007 234.489C346.903 233.024 350.241 232.538 353.492 233.2L358.176 231.174C360.402 230.23 362.948 230.543 364.858 231.996L371.802 237.279C373.864 238.847 374.925 241.407 374.583 243.994L371.223 269.515L368.546 270.673L366.96 293.63C367.123 300.689 362.948 307.166 356.446 309.944L334.003 319.534L334.002 319.533C329.161 321.599 323.323 321.268 318.571 317.653L296.445 300.822C293.566 298.631 294.154 294.117 297.505 292.685Z" fill="#63DBFF"/>
<path d="M330.381 281.941L334.417 280.23C336.012 280.166 337.62 280.638 338.955 281.654L338.711 283.556L334.755 285.267L330.381 281.941Z" fill="#2EB3BD"/>
<path d="M347.352 345.207C341.63 340.854 337.655 332.285 338.473 326.067C338.837 323.303 340.088 321.471 341.867 320.669L346.83 318.539C347.082 318.402 347.345 318.289 347.621 318.198L347.648 318.187L347.649 318.189C349.816 317.486 352.643 318.171 355.583 320.407C361.305 324.76 365.28 333.329 364.461 339.548C364.107 342.236 362.914 344.042 361.213 344.878C361.064 344.95 360.912 345.018 360.756 345.076L355.934 347.167C353.701 348.256 350.594 347.673 347.352 345.207Z" fill="#23292E"/>
<path d="M352.618 342.925C358.34 347.278 363.642 345.766 364.461 339.548C365.28 333.329 361.305 324.76 355.583 320.407C349.861 316.055 344.559 317.566 343.74 323.785C342.921 330.003 346.896 338.572 352.618 342.925Z" fill="#2E373D"/>
<path d="M353.372 337.201C356.185 339.342 358.792 338.598 359.194 335.541C359.597 332.484 357.643 328.27 354.83 326.13C352.016 323.99 349.41 324.734 349.007 327.791C348.604 330.848 350.559 335.061 353.372 337.201Z" fill="#CECECE"/>
<path d="M353.706 334.668C355.231 335.829 356.645 335.426 356.864 333.768C357.082 332.109 356.022 329.824 354.496 328.664C352.97 327.503 351.556 327.906 351.338 329.565C351.12 331.222 352.179 333.507 353.706 334.668Z" fill="#2E373D"/>
<path d="M352.618 342.925C358.34 347.278 363.642 345.766 364.461 339.548C365.28 333.329 361.305 324.76 355.583 320.407C349.861 316.055 344.559 317.566 343.74 323.785C342.921 330.003 346.896 338.572 352.618 342.925Z" fill="#2E373D"/>
<path d="M353.372 337.201C356.185 339.342 358.792 338.598 359.194 335.541C359.597 332.484 357.643 328.27 354.83 326.13C352.016 323.99 349.41 324.734 349.007 327.791C348.604 330.848 350.559 335.061 353.372 337.201Z" fill="#CECECE"/>
<path d="M353.706 334.668C355.231 335.829 356.645 335.426 356.864 333.768C357.082 332.109 356.022 329.824 354.496 328.664C352.97 327.503 351.556 327.906 351.338 329.565C351.12 331.222 352.179 333.507 353.706 334.668Z" fill="#2E373D"/>
<path d="M343.528 287.834C343.548 286.148 342.774 284.559 341.44 283.544L338.955 281.654C337.618 280.636 336.006 280.175 334.409 280.242L334.407 280.234L340.596 277.61C341.243 277.394 341.861 277.066 342.421 276.624C344.969 274.607 348.538 274.56 351.1 276.509L353.836 278.59C354.962 279.447 355.437 280.915 355.033 282.282L348.023 300.512L343.791 297.293L343.528 287.834Z" fill="#23868E"/>
<path d="M355.033 282.282C355.437 280.915 354.962 279.447 353.836 278.59L351.1 276.509C348.538 274.56 344.969 274.607 342.421 276.624C340.279 278.32 337.278 278.359 335.123 276.72C333.342 275.365 332.427 273.153 332.721 270.919L336.038 245.73C336.372 243.186 337.368 240.77 338.926 238.722C342.368 234.197 348.054 232.093 353.492 233.2L349.792 234.799C347.567 235.743 346.002 237.8 345.686 240.197L345.052 245.012C344.468 249.452 345.176 253.954 347.092 257.974C348.66 261.262 350.985 264.124 353.879 266.325L361.309 271.977L359.822 283.144L352.096 303.608L348.023 300.512L355.033 282.282Z" fill="#2EB3BD"/>
<path d="M314.947 253.951L316.576 241.577C316.717 240.509 317.414 239.592 318.406 239.171L329.897 234.299C330.344 234.11 330.806 234.198 331.142 234.453L336.905 238.837C337.24 239.092 337.448 239.515 337.384 239.995L335.755 252.369C335.614 253.437 334.918 254.355 333.925 254.775L322.434 259.647C321.997 259.833 321.547 259.747 321.213 259.505L321.21 259.508L321.195 259.497C321.192 259.494 321.189 259.492 321.185 259.489L315.448 255.125C315.101 254.872 314.882 254.443 314.947 253.951Z" fill="#2E373D"/>
<path d="M331.622 235.611L329.994 247.986C329.853 249.054 329.155 249.971 328.163 250.392L316.672 255.264C315.778 255.643 314.82 254.914 314.947 253.951L316.576 241.577C316.717 240.509 317.414 239.592 318.406 239.171L329.897 234.299C330.791 233.921 331.749 234.65 331.622 235.611Z" fill="#627681"/>
<path d="M371.223 269.515L362.264 262.699C359.37 260.498 357.044 257.636 355.477 254.347C353.561 250.327 352.852 245.825 353.436 241.387L354.07 236.57C354.386 234.174 355.951 232.117 358.176 231.173C360.402 230.23 362.948 230.543 364.858 231.996L371.802 237.279C373.864 238.847 374.925 241.407 374.583 243.994L371.223 269.515Z" fill="#2EB3BD"/>
<path d="M351.407 335.289C349.298 333.684 347.602 331.597 346.459 329.2C345.062 326.269 344.545 322.987 344.971 319.751L345.434 316.24C345.664 314.493 346.805 312.993 348.428 312.305C350.049 311.617 351.907 311.845 353.299 312.904L358.48 316.846C359.805 317.854 360.178 319.694 359.354 321.158L351.407 335.289Z" fill="#2EB3BD"/>
<path d="M334.02 334.528C332.623 331.596 332.106 328.314 332.532 325.078L332.995 321.567C333.225 319.82 334.366 318.32 335.989 317.632L348.427 312.305C346.804 312.994 345.664 314.493 345.434 316.24L344.971 319.751C344.545 322.987 345.062 326.269 346.459 329.2C347.602 331.597 349.298 333.684 351.407 335.289L338.968 340.617C336.858 339.012 335.163 336.925 334.02 334.528Z" fill="#63DBFF"/>
<path d="M295.186 299.38C294.886 298.841 294.703 298.257 294.631 297.662C294.561 297.067 294.603 296.462 294.752 295.881C295.052 294.721 295.783 293.662 296.909 292.989C297.097 292.877 297.296 292.775 297.505 292.685L313.663 285.782C315.89 284.83 318.24 284.352 320.576 284.331C324.47 284.295 328.326 285.529 331.516 287.955L351.858 303.43C354.836 305.696 358.24 306.667 361.557 306.572C360.091 307.965 358.375 309.12 356.446 309.944L334.003 319.534L334.002 319.533C329.161 321.598 323.322 321.268 318.571 317.653L296.445 300.822C295.905 300.412 295.487 299.919 295.186 299.38Z" fill="#2EB3BD"/>
<path d="M316.486 276.558C316.552 276.607 316.621 276.651 316.692 276.695C316.109 276.34 315.645 275.782 315.422 275.073L311.522 262.654C311.025 261.071 311.822 259.359 313.357 258.712L326.467 253.185C327.235 252.861 328.019 253.047 328.558 253.518L328.561 253.511L333.324 257.134L333.32 257.14C333.884 257.592 334.211 258.338 334.02 259.159L330.423 274.569C329.875 276.913 328.236 278.86 326.02 279.797L324.202 280.564C323.158 281.005 322.028 280.795 321.218 280.145L321.212 280.155L316.486 276.559L316.486 276.558Z" fill="#2E373D"/>
<path d="M326.466 253.185L313.357 258.712C311.822 259.359 311.025 261.071 311.522 262.654L315.422 275.073C315.941 276.726 317.767 277.566 319.369 276.889L321.187 276.121C323.404 275.185 325.043 273.238 325.591 270.894L329.188 255.483C329.561 253.883 327.979 252.548 326.466 253.185Z" fill="#627681"/>
<path d="M309.472 287.572C309.249 289.263 309.942 290.935 311.289 291.96L329.271 305.639C331.484 307.323 332.623 310.073 332.258 312.851L338.542 317.631L345.198 314.75L309.472 287.572Z" fill="#23868E"/>
<path d="M324.762 307.552L306.781 293.873C305.434 292.849 304.741 291.176 304.964 289.485L309.472 287.572C309.249 289.263 309.942 290.935 311.289 291.96L329.271 305.639C331.484 307.323 332.623 310.073 332.258 312.851L338.51 317.607L334.033 319.545L327.749 314.764C328.115 311.986 326.976 309.237 324.762 307.552Z" fill="#63DBFF"/>
<path d="M332.258 312.851L327.749 314.764L334.033 319.545L338.542 317.631L332.258 312.851Z" fill="#EDEDED"/>
<path d="M280.47 298.288C279.387 297.465 278.637 295.845 278.792 294.67C278.86 294.152 279.098 293.819 279.43 293.664C279.481 293.641 279.529 293.613 279.584 293.599L287.592 290.193L290.18 295.211L282.21 298.589C281.783 298.882 281.142 298.799 280.47 298.288Z" fill="#2E373D"/>
<path d="M288.646 294.81C289.728 295.633 290.73 295.347 290.884 294.172C291.04 292.996 290.288 291.377 289.206 290.554C288.125 289.731 287.122 290.016 286.968 291.192C286.813 292.368 287.564 293.987 288.646 294.81Z" fill="#2E373D"/>
<path d="M310.775 290.493C306.799 287.469 301.496 286.815 296.864 288.78L295.3 289.393C293.092 290.329 291.897 292.4 291.859 294.499L290.18 295.211L290.179 295.209C287.993 296.02 285.516 290.631 287.795 290.116L289.115 289.555C291.331 288.615 292.89 286.568 293.208 284.183L293.211 284.182C293.578 282.495 294.7 280.957 296.515 280.187C302.961 277.256 309.422 280.885 315.706 278.176C317.674 277.263 320.247 281.893 318.485 283.1C317.585 283.481 316.686 283.863 315.786 284.245C313.603 285.171 312.071 287.192 311.768 289.543L311.453 291.989C311.488 291.439 311.274 290.872 310.775 290.493Z" fill="#63DBFF"/>
<path d="M316.746 282.8C315.664 281.977 314.913 280.357 315.068 279.181C315.136 278.663 315.375 278.329 315.706 278.176L315.707 278.175C315.757 278.152 323.778 274.743 323.778 274.743C324.204 274.478 324.828 274.567 325.482 275.065C326.564 275.888 327.316 277.508 327.161 278.684C327.083 279.272 326.793 279.638 326.387 279.752L318.486 283.101C318.06 283.393 317.418 283.311 316.746 282.8Z" fill="#2E373D"/>
<path d="M324.922 279.322C326.004 280.144 327.006 279.859 327.161 278.684C327.316 277.508 326.564 275.888 325.482 275.065C324.401 274.243 323.398 274.528 323.244 275.703C323.089 276.879 323.841 278.499 324.922 279.322Z" fill="#627681"/>
<path d="M323.53 285.62C325.979 281.495 313.657 283.785 312.712 284.172C311.901 284.503 310.985 284.366 311.067 285.649C311.168 287.254 314.145 286.106 314.871 285.978C316.696 285.656 319.911 284.719 321.718 285.516C322.084 286.151 323.088 286.201 323.53 285.62C323.745 285.338 323.403 285.787 323.53 285.62Z" fill="#2E373D"/>
<path d="M294.305 294.433C295.407 292.984 293.326 292.809 292.52 293.029C291.526 293.301 290.342 294.263 289.475 294.815C287.555 296.037 284.723 297.689 283.736 299.865C283.401 300.604 282.888 302.366 284.323 302.352C285.273 302.344 285.716 300.705 286.257 300.043C287.216 298.871 288.752 297.927 289.997 297.097C291.232 296.273 293.426 295.588 294.305 294.433Z" fill="#2E373D"/>
<path d="M310.775 290.493C311.846 291.308 311.625 292.989 310.376 293.518L296.593 299.313C295.741 299.673 294.767 299.554 294.036 298.998C290.634 296.41 291.337 291.074 295.3 289.393L296.864 288.78C301.496 286.815 306.799 287.469 310.775 290.493Z" fill="#CECECE"/>
<path d="M294.54 292.326C293.47 293.732 293.423 296.092 295.212 297.453C295.395 297.592 295.642 297.623 295.861 297.529L309.354 291.857C305.964 289.413 301.489 288.913 297.552 290.581C296.455 291.01 295.29 291.341 294.54 292.326Z" fill="#EDEDED"/>
<path d="M500.833 553.09L495.311 557.445C494.702 557.926 493.778 558.007 492.68 557.574L498.202 553.218C499.299 553.651 500.224 553.57 500.833 553.09Z" fill="#2C353B"/>
<path d="M463.257 529.33L468.778 524.975C468.162 525.462 467.868 526.358 468.047 527.546L462.525 531.901C462.347 530.714 462.64 529.817 463.257 529.33Z" fill="#3B4951"/>
<path d="M498.202 553.218L492.68 557.574L468.731 548.133L474.252 543.777L498.202 553.218Z" fill="#2C353B"/>
<path d="M469.605 537.92L464.083 542.276L462.525 531.901L468.047 527.546L469.605 537.92Z" fill="#3B4951"/>
<path d="M501.564 550.519C501.919 552.879 500.411 554.089 498.202 553.218L474.252 543.777C472.043 542.906 469.959 540.28 469.605 537.92L468.047 527.546C467.692 525.186 469.2 523.975 471.409 524.846L495.359 534.287C497.568 535.158 499.652 537.785 500.006 540.144L501.564 550.519Z" fill="#5D7280"/>
<path d="M474.252 543.777L468.731 548.133C466.521 547.262 464.438 544.636 464.083 542.276L469.605 537.92C469.959 540.28 472.043 542.906 474.252 543.777Z" fill="#3B4951"/>
<path d="M473.618 538.222L472.456 530.487C472.208 528.83 473.463 528.067 475.261 528.781L492.288 535.549C494.085 536.264 495.744 538.186 495.993 539.842L497.154 547.578C497.403 549.234 496.148 549.998 494.35 549.283L477.323 542.515C475.526 541.801 473.867 539.879 473.618 538.222Z" fill="#3B4951"/>
<path d="M475.227 537.894L474.375 532.217C474.126 530.561 475.382 529.797 477.179 530.511L490.679 535.877C492.476 536.592 494.135 538.514 494.383 540.17L495.236 545.847C495.485 547.504 494.229 548.268 492.432 547.553L478.932 542.187C477.135 541.473 475.476 539.551 475.227 537.894Z" fill="#D7DAFF"/>
<path d="M488.805 546.112L487.052 534.436L487.783 534.726L489.536 546.402L488.805 546.112Z" fill="#AEB2F4"/>
<path d="M488.057 543.604L487.01 536.629L488.531 537.234L489.579 544.209L488.057 543.604Z" fill="#3B4951"/>
<path d="M481.584 543.241L479.831 531.566L480.562 531.856L482.315 543.532L481.584 543.241Z" fill="#AEB2F4"/>
<path d="M480.836 540.734L479.789 533.759L481.31 534.363L482.358 541.339L480.836 540.734Z" fill="#3B4951"/>
<path d="M490.619 542.768L490.164 539.737C490.073 539.132 490.532 538.853 491.188 539.114C491.845 539.375 492.45 540.077 492.541 540.682L492.996 543.713C493.087 544.318 492.629 544.597 491.972 544.336C491.316 544.075 490.71 543.373 490.619 542.768Z" fill="#AEB2F4"/>
<path d="M483.845 540.075L483.389 537.044C483.299 536.439 483.757 536.16 484.413 536.421C485.07 536.682 485.675 537.384 485.766 537.989L486.221 541.02C486.312 541.625 485.854 541.904 485.197 541.643C484.541 541.382 483.936 540.68 483.845 540.075Z" fill="#AEB2F4"/>
<path d="M477.07 537.383L476.615 534.351C476.524 533.747 476.982 533.468 477.639 533.729C478.295 533.989 478.901 534.691 478.991 535.296L479.447 538.328C479.538 538.932 479.079 539.211 478.423 538.95C477.766 538.689 477.161 537.988 477.07 537.383Z" fill="#AEB2F4"/>
<path d="M474.57 540.409L473.461 541.289L473.456 541.283C473.234 541.459 472.889 541.494 472.478 541.332C471.657 541.008 470.883 540.033 470.749 539.152C470.686 538.718 470.798 538.393 471.021 538.214L471.019 538.212L472.128 537.332L474.57 540.409Z" fill="#AEB2F4"/>
<path d="M473.586 540.452C472.763 540.125 471.99 539.151 471.859 538.276C471.727 537.4 472.287 536.956 473.11 537.282C473.932 537.609 474.706 538.584 474.837 539.459C474.969 540.335 474.408 540.779 473.586 540.452Z" fill="#D7DAFF"/>
<path d="M462.336 530.853L461.167 531.774L460.983 530.546L462.151 529.624L462.336 530.853Z" fill="#AEB2F4"/>
<path d="M467.359 537.28L466.19 538.202L461.877 536.502L463.046 535.58L467.359 537.28Z" fill="#888ABF"/>
<path d="M463.046 535.58L461.877 536.502L461.691 535.26L462.859 534.338L463.046 535.58Z" fill="#AEB2F4"/>
<path d="M467.364 537.282L463.052 535.578L462.855 534.331L446.573 527.938L446.375 526.691L446.223 525.618L446.043 524.45L462.336 530.857L462.15 529.623L466.462 531.328L466.845 533.809L466.998 534.882L467.364 537.282Z" fill="#D7DAFF"/>
<path d="M462.859 534.338L461.691 535.26L445.404 528.852L446.572 527.93L462.859 534.338Z" fill="#888ABF"/>
<path d="M446.572 527.93L445.404 528.852L444.88 525.367L446.049 524.445L446.572 527.93Z" fill="#AEB2F4"/>
<path d="M466.998 534.882L446.375 526.691L446.223 525.618L466.845 533.809L466.998 534.882Z" fill="#AEB2F4"/>
<path d="M89.5833 683.415C87.3199 679.67 86.9761 673.938 88.8154 670.612C89.5641 669.258 90.5594 668.512 91.6288 668.356L97.0932 668.263C98.6723 667.987 100.424 669.005 101.789 671.263C104.053 675.008 104.396 680.74 102.557 684.065C101.762 685.503 100.689 686.254 99.5434 686.343C99.4225 686.352 94.2681 686.416 94.2681 686.416C92.6924 686.686 90.9456 685.668 89.5833 683.415Z" fill="#23292E"/>
<path d="M43.1283 726.107C40.8649 722.363 40.5206 716.631 42.3598 713.305C43.1088 711.952 44.1038 711.205 45.1732 711.048L50.6381 710.955C52.2172 710.679 53.9685 711.697 55.3336 713.956C57.5973 717.701 57.9413 723.432 56.1015 726.758C55.2222 728.349 54.0025 729.099 52.7212 729.041L47.8134 729.109C45.8957 728.998 44.4906 728.361 43.1283 726.107Z" fill="#23292E"/>
<path d="M38.6366 719.145C37.8117 715.761 38.2845 712.127 39.964 709.063L43.4045 702.783L43.5572 701.059C42.0856 691.555 45.6725 682.65 50.1709 674.45C54.2644 667.865 61.6894 665.047 69.07 664.501L82.6692 663.317L82.6675 663.351C91.0168 662.605 101.154 672.412 101.154 672.412L81.3635 709.243C81.3715 709.253 80.4645 710.915 80.4645 710.915L68.415 719.9C68.884 722.683 66.7262 725.312 63.8176 725.376L45.3645 725.856C41.5039 725.94 39.4476 722.47 38.6366 719.145Z" fill="#2DAD57"/>
<path d="M47.4742 725.81L45.3645 725.856C43.2761 725.901 41.3261 724.831 40.2485 723.049C37.6673 718.778 37.5587 713.452 39.964 709.063L43.4045 702.783L47.4742 725.81Z" fill="#238342"/>
<path d="M76.1694 667.126C76.1694 667.126 69.1877 676.059 72.0787 691.949L74.0366 700.614L62.2007 713.494C59.1864 716.774 58.693 721.638 60.9892 725.437L80.4645 710.915L91.0852 691.361L101.154 672.412C101.154 672.413 84.3174 656.123 76.1694 667.126Z" fill="#045D32"/>
<path d="M82.6675 663.351C80.2568 663.567 77.9952 664.661 76.1694 667.126C76.1694 667.126 69.1877 676.059 72.0787 691.949L74.0366 700.614L43.5572 701.059C42.0588 691.388 45.453 683.05 50.1709 674.45C54.2644 667.865 61.6894 665.047 69.07 664.501L82.6692 663.317L82.6675 663.351Z" fill="#238342"/>
<path d="M66.0799 712.303C66.8286 710.949 67.8239 710.203 68.8933 710.046L74.3574 709.953C75.9365 709.677 77.6882 710.694 79.0536 712.953C81.3171 716.698 81.6609 722.43 79.8213 725.755C78.9419 727.346 77.7228 728.095 76.4418 728.038L71.5334 728.107C69.9569 728.377 68.2101 727.359 66.8478 725.105C64.5841 721.36 64.2406 715.628 66.0799 712.303Z" fill="#23292E"/>
<path d="M72.393 724.997C74.6567 728.742 77.9823 729.082 79.8221 725.756C81.6614 722.43 81.3171 716.698 79.0536 712.953C76.7902 709.209 73.4647 708.869 71.6251 712.194C69.7852 715.52 70.1296 721.252 72.393 724.997Z" fill="#2E373D"/>
<path d="M74.0855 721.936C75.1984 723.777 76.834 723.944 77.7381 722.309C78.6425 720.674 78.4735 717.856 77.3606 716.014C76.2477 714.173 74.6124 714.006 73.708 715.641C72.8036 717.276 72.9726 720.095 74.0855 721.936Z" fill="#CECECE"/>
<path d="M74.8349 720.581C75.4387 721.58 76.3258 721.67 76.8162 720.784C77.3069 719.897 77.2149 718.368 76.6112 717.369C76.0078 716.371 75.1208 716.28 74.6302 717.167C74.1401 718.054 74.2315 719.583 74.8349 720.581Z" fill="#627681"/>
<path d="M95.128 683.307C97.3914 687.051 100.718 687.391 102.557 684.065C104.396 680.74 104.053 675.008 101.789 671.263C99.5257 667.518 96.1996 667.179 94.3603 670.505C92.521 673.83 92.8646 679.562 95.128 683.307Z" fill="#2E373D"/>
<path d="M96.821 680.245C97.9339 682.087 99.5695 682.254 100.474 680.618C101.378 678.984 101.209 676.165 100.096 674.324C98.9832 672.483 97.3479 672.316 96.4435 673.951C95.5394 675.587 95.7081 678.404 96.821 680.245Z" fill="#CECECE"/>
<path d="M97.5707 678.891C98.1742 679.889 99.0608 679.98 99.5517 679.093C100.042 678.207 99.9504 676.678 99.3467 675.679C98.7433 674.681 97.8561 674.59 97.3657 675.477C96.8751 676.364 96.967 677.892 97.5707 678.891Z" fill="#627681"/>
<path d="M71.7754 698.899L45.1503 699.34L44.9248 696.021C44.6391 691.821 47.9536 688.234 52.1722 688.178L60.7413 688.064C65.757 687.997 70.1226 691.446 71.2062 696.332L71.7754 698.899Z" fill="#304E75"/>
<path d="M60.9892 725.437L63.8176 725.376C66.8979 725.309 69.1381 722.364 68.3055 719.406C67.7685 717.499 67.4636 715.343 67.841 713.295C68.6946 708.671 72.2801 707.205 74.8517 707.193C77.4232 707.18 80.4645 710.915 80.4645 710.915L81.3774 709.261C81.3774 709.261 78.2599 705.114 74.4939 705.408C74.4559 705.411 74.4182 705.415 74.3811 705.418C71.0268 705.696 67.9133 707.278 65.6369 709.759L61.9348 713.793C59.1194 716.862 58.6275 721.397 60.7217 724.98L60.9892 725.437Z" fill="#238342"/>
<path d="M62.8553 721.806L55.0632 723.498C50.2643 724.54 45.2546 723.758 41.0152 721.304C40.0575 720.75 38.9573 721.776 39.4464 722.768L39.7123 723.307C40.3173 724.533 41.2732 725.55 42.4586 726.232C46.5089 728.559 51.3023 729.251 55.8587 728.165L65.1115 725.96C66.2179 725.696 66.7947 724.475 66.2937 723.458C65.6648 722.185 64.2478 721.503 62.8553 721.806Z" fill="#CECECE"/>
<path d="M61.3232 719.401C61.9973 720.516 63.4621 721.401 64.594 721.376C65.7264 721.351 66.0969 720.427 65.4228 719.312C64.7483 718.196 63.284 717.311 62.1516 717.335C61.0198 717.36 60.6487 718.285 61.3232 719.401Z" fill="white"/>
<path d="M38.8562 718.673C39.5306 719.788 40.9952 720.673 42.127 720.648C43.2594 720.623 43.6302 719.699 42.9558 718.583C42.2813 717.468 40.8173 716.583 39.685 716.608C38.5528 716.632 38.1818 717.557 38.8562 718.673Z" fill="white"/>
<path d="M93.9726 685.928C93.9726 685.928 90.355 681.314 90.4775 675.009C90.6006 668.705 93.7592 666.791 93.7592 666.791C93.7592 666.791 95.652 665.647 98.3782 666.561C100.844 667.388 103.67 671.444 102.889 673.641C102.889 673.641 101.405 669.635 97.713 669.287C95.0476 669.036 93.543 672.986 94.5124 676.426C94.9243 677.887 95.6454 679.689 96.5785 681.282C97.7587 683.3 96.3158 685.85 93.9726 685.928Z" fill="#238342"/>
<path d="M82.956 678.888L75.1388 692.984C75.1388 692.984 71.7752 676.837 77.5112 669.88L82.956 678.888Z" fill="#243B58"/>
<path d="M47.6351 694.078C47.6351 694.078 47.3282 692.599 47.058 690.35C48.0647 689.34 49.3619 688.617 50.8243 688.326L47.6351 694.078Z" fill="#59718B"/>
<path d="M78.6965 668.641C84.7086 663.064 89.1332 667.749 89.1332 667.749L83.8815 677.219L78.6965 668.641Z" fill="#243B58"/>
<path d="M55.8307 702.129C51.4068 708.113 47.1161 715.388 50.3658 722.939C49.4461 714.79 53.1767 709.466 55.8307 702.129Z" fill="#238342"/>
<path d="M59.8994 533.979C60.801 533.404 61.7778 532.934 62.815 532.586L75.9057 528.194L101.543 554.492L78.4196 578.877C74.3584 578.058 70.5581 576.045 67.5685 572.978L55.2068 560.299C53.8143 558.871 52.8344 557.147 52.2954 555.297L52.0276 555.352C51.5189 553.344 51.5311 551.204 52.1168 549.142L54.2802 541.526C55.175 538.372 57.1956 535.704 59.8994 533.979Z" fill="#FFD613"/>
<path d="M130.802 560.721L143.765 556.204C146.481 552.69 150.131 549.919 153.623 549.042C159.283 547.622 162.381 551.716 160.543 558.186C158.704 564.658 152.627 571.055 146.967 572.476C144.284 573.149 142.179 572.582 140.9 571.112L130.802 560.721Z" fill="#23292E"/>
<path d="M84.7148 585.506C84.5899 585.391 74.2613 574.751 74.2613 574.751L87.2243 570.233C89.9406 566.719 93.5904 563.947 97.0819 563.071C102.742 561.65 105.84 565.744 104.002 572.216C102.164 578.686 96.0856 585.084 90.4259 586.504C87.9792 587.118 86.0128 586.701 84.7154 585.507L84.7148 585.506Z" fill="#23292E"/>
<path d="M59.8994 533.979C60.801 533.404 61.7778 532.934 62.815 532.586L75.9057 528.194L101.543 554.492L78.4196 578.877C74.3584 578.058 70.5581 576.045 67.5685 572.978L55.2068 560.299C53.8143 558.871 52.8344 557.147 52.2954 555.297L52.0276 555.352C51.5189 553.344 51.5311 551.204 52.1168 549.142L54.2802 541.526C55.175 538.372 57.1956 535.704 59.8994 533.979Z" fill="#FFD613"/>
<path d="M59.8994 533.979C60.801 533.404 61.7778 532.934 62.815 532.586L75.9057 528.194L88.0834 510.142L113.692 536.481L115.142 534.332C116.985 531.601 119.829 529.612 123.031 528.816L153.819 521.153C156.683 520.441 159.43 522.679 159.307 525.624L158.641 541.466C160.782 543.735 162.481 545.67 162.978 548.933C163.944 555.289 159.891 560.265 153.801 561.813L87.7014 578.646C84.6126 579.431 81.4446 579.483 78.4219 578.875L78.4196 578.877C77.9032 578.773 77.3895 578.649 76.8832 578.506L76.8836 578.505C74.4124 577.81 72.0693 576.663 69.9835 575.098L73.786 561.711C75.0313 557.327 78.4959 553.922 82.9077 552.747L96.3353 549.15L81.2845 533.711L67.0048 537.296C63.4311 538.192 60.6105 540.925 59.6052 544.465L55.1037 560.313C53.6469 558.789 52.1372 554.969 52.1372 554.969C51.629 552.966 51.6613 550.746 52.2256 548.759L54.2802 541.526C55.175 538.372 57.1956 535.704 59.8994 533.979C60.801 533.404 57.1956 535.704 59.8994 533.979Z" fill="#E7C712"/>
<path d="M162.93 553.319C162.265 557.549 158.001 560.745 153.801 561.813L87.7014 578.646C84.084 579.565 80.3574 579.484 76.8832 578.506L79.9176 567.823C81.1115 563.62 84.3039 560.276 88.453 558.884L101.543 554.492L115.142 534.332C116.985 531.601 119.829 529.612 123.031 528.816L153.819 521.153C156.683 520.441 159.43 522.679 159.307 525.624L158.641 541.466C159.054 541.905 164.177 545.393 162.93 553.319Z" fill="#C98000"/>
<path d="M89.5054 508.035C91.3605 505.285 94.1708 503.319 97.3949 502.518L128.181 494.855C129.77 494.46 131.32 494.975 132.367 496.012L132.37 496.011L132.405 496.046C132.41 496.053 132.417 496.059 132.423 496.065L157.753 522.08C158.597 522.799 159.175 523.83 159.287 525.013L113.692 536.481L88.0834 510.142L89.5054 508.035Z" fill="#EDEDED"/>
<path d="M113.692 536.481L115.142 534.332C116.998 531.583 119.808 529.618 123.031 528.816L153.819 521.153C156.48 520.491 159.038 522.379 159.287 525.013L113.692 536.481Z" fill="#CECECE"/>
<path d="M83.5062 577.359C81.668 583.831 84.7668 587.925 90.4259 586.504C96.0856 585.084 102.164 578.686 104.002 572.216C105.84 565.744 102.742 561.65 97.0819 563.071C91.4228 564.492 85.3442 570.889 83.5062 577.359Z" fill="#2E373D"/>
<path d="M88.7157 576.052C87.8119 579.234 89.3349 581.247 92.1174 580.549C94.9001 579.85 97.8885 576.704 98.7921 573.523C99.6959 570.341 98.1728 568.328 95.3901 569.027C92.6077 569.725 89.6193 572.871 88.7157 576.052Z" fill="#CECECE"/>
<path d="M91.0216 575.474C90.5315 577.199 91.357 578.291 92.8664 577.912C94.3758 577.533 95.9967 575.828 96.4868 574.102C96.9771 572.376 96.1506 571.285 94.6414 571.663C93.132 572.042 91.5119 573.748 91.0216 575.474Z" fill="#627681"/>
<path d="M140.047 563.331C138.209 569.802 141.307 573.896 146.967 572.476C152.627 571.055 158.704 564.658 160.543 558.186C162.381 551.716 159.282 547.621 153.623 549.042C147.963 550.462 141.885 556.86 140.047 563.331Z" fill="#2E373D"/>
<path d="M145.257 562.023C144.353 565.205 145.876 567.218 148.658 566.52C151.441 565.822 154.429 562.676 155.333 559.495C156.237 556.313 154.714 554.3 151.931 554.998C149.148 555.696 146.16 558.842 145.257 562.023Z" fill="#CECECE"/>
<path d="M147.562 561.444C147.072 563.17 147.898 564.262 149.407 563.884C150.917 563.504 152.537 561.798 153.027 560.073C153.517 558.347 152.692 557.255 151.182 557.634C149.673 558.013 148.052 559.719 147.562 561.444Z" fill="#627681"/>
<path d="M108.714 535.277L89.3366 515.459C88.466 514.569 86.996 514.702 86.3033 515.736L80.1529 524.902C79.2839 526.198 79.4385 527.925 80.5244 529.049L99.5753 548.773C100.428 549.656 101.873 549.55 102.585 548.553L109.043 539.52C109.976 538.214 109.838 536.427 108.714 535.277Z" fill="#304E75"/>
<path d="M105.531 554.898L113.107 542.845C114.505 540.621 116.71 539.022 119.261 538.381L128.339 536.079C129.691 535.739 130.906 536.989 130.526 538.328L127.388 549.376L105.531 554.898Z" fill="#243B58"/>
<path d="M80.9999 528.296L88.5751 516.245C88.7701 515.935 88.9843 515.64 89.2088 515.355C89.2507 515.391 89.2977 515.418 89.3366 515.459L97.7518 524.065L80.9999 528.296Z" fill="#59718B"/>
<path d="M130.458 548.606L133.712 537.153C134.126 535.696 135.306 534.583 136.787 534.252L151.276 531.019C153.415 530.543 155.432 532.207 155.365 534.394L155.12 542.471L130.458 548.606Z" fill="#243B58"/>
<path d="M75.4298 559.723C74.8313 561.83 75.4202 564.643 76.7454 566.005C78.0696 567.368 79.629 566.764 80.2275 564.657C80.8262 562.549 80.2371 559.737 78.9129 558.374C77.5877 557.012 76.0284 557.616 75.4298 559.723Z" fill="white"/>
<path d="M55.6906 539.067C55.1693 540.903 55.6812 543.353 56.8353 544.54C57.9895 545.726 59.3476 545.2 59.869 543.365C60.3905 541.528 59.8778 539.078 58.7235 537.892C57.5693 536.705 56.2122 537.231 55.6906 539.067Z" fill="white"/>
<path d="M72.2507 567.116L73.8175 561.6C74.145 560.447 74.1012 559.221 73.6939 558.093L73.0467 556.303C72.6957 555.331 72.1393 554.446 71.4165 553.706L63.3258 545.423C62.7604 544.846 61.972 544.542 61.1647 544.592C60.1613 544.653 59.3071 545.34 59.033 546.305L57.4427 551.904C57.0894 553.147 57.4283 554.486 58.3307 555.414L70.2077 567.629C70.8607 568.3 71.9953 568.016 72.2507 567.116Z" fill="#CECECE"/>
<path d="M61.663 546.217C61.5327 546.18 61.3994 546.166 61.2648 546.174C60.9345 546.195 60.6519 546.422 60.5618 546.739L58.9715 552.338C58.7735 553.035 58.965 553.79 59.4703 554.31L70.8978 566.063L72.2887 561.166C72.5268 560.328 72.496 559.451 72.1996 558.63L71.5524 556.84C71.2764 556.076 70.8482 555.395 70.2805 554.813L62.1888 546.53C62.0447 546.383 61.8626 546.274 61.663 546.217Z" fill="#2E373D"/>
<path d="M82.7348 577.73C82.2196 579.544 80.7728 580.946 78.9407 581.405C77.0539 581.879 75.0555 581.313 73.6971 579.921L50.7884 556.326C49.5289 555.036 49.0555 553.173 49.5474 551.441L49.7 550.904C50.0195 549.779 51.4408 549.425 52.2549 550.266L75.2214 574.019C76.5869 575.423 78.6015 575.99 80.4996 575.503L80.5467 575.49C81.8961 575.145 83.115 576.392 82.7348 577.73Z" fill="#CECECE"/>
<path d="M580 208.278L579.983 214.277C579.981 214.875 579.651 215.484 578.984 216.01L579.001 210.012C579.668 209.486 579.998 208.876 580 208.278Z" fill="#2C353B"/>
<path d="M552.225 222.115L552.208 228.114L538.643 220.307L538.66 214.309L552.225 222.115Z" fill="#3B4951"/>
<path d="M539.129 224.536L539.146 218.538C539.146 218.293 539.307 218.049 539.629 217.862C540.276 217.488 541.318 217.493 541.96 217.862L541.943 223.861C541.301 223.492 540.259 223.486 539.612 223.861C539.29 224.047 539.129 224.292 539.129 224.536Z" fill="#AEB2F4"/>
<path d="M535 223.341L535.017 217.343C535.016 217.875 535.353 218.397 536.036 218.79L536.019 224.788C535.336 224.395 534.999 223.873 535 223.341Z" fill="#AEB2F4"/>
<path d="M547.87 221.264L547.853 227.262L541.943 223.861L541.96 217.862L547.87 221.264Z" fill="#AEB2F4"/>
<path d="M548.365 221.949L548.348 227.947C548.349 227.7 548.183 227.452 547.853 227.262L547.87 221.264C548.2 221.453 548.366 221.702 548.365 221.949Z" fill="#AEB2F4"/>
<path d="M552.976 223.159L552.959 229.157C552.96 228.78 552.711 228.403 552.208 228.114L552.225 222.115C552.728 222.405 552.977 222.782 552.976 223.159Z" fill="#3B4951"/>
<path d="M552.976 223.159L552.959 229.157C552.958 229.537 552.704 229.917 552.201 230.208L552.219 224.209C552.721 223.918 552.975 223.539 552.976 223.159Z" fill="#AEB2F4"/>
<path d="M579.001 210.012L578.984 216.01L559.593 231.358L559.61 225.359L579.001 210.012Z" fill="#2C353B"/>
<path d="M559.61 225.359L559.593 231.358C559.481 231.466 559.341 231.559 559.191 231.645L559.208 225.647C559.358 225.56 559.498 225.468 559.61 225.359Z" fill="#2C353B"/>
<path d="M552.219 224.209L552.201 230.208L548.83 232.161L548.847 226.162L552.219 224.209Z" fill="#AEB2F4"/>
<path d="M548.847 226.162L548.83 232.161L536.019 224.788L536.036 218.79L548.847 226.162Z" fill="#AEB2F4"/>
<path d="M552.225 222.115C553.234 222.696 553.221 223.629 552.219 224.209L548.847 226.162L536.036 218.79C534.622 217.976 534.689 216.609 536.179 215.746L538.66 214.309L552.225 222.115ZM545.538 222.614C546.189 222.989 547.241 222.989 547.887 222.614C548.533 222.24 548.521 221.638 547.87 221.264L541.96 217.862C541.318 217.493 540.276 217.488 539.629 217.862C538.983 218.236 538.987 218.844 539.628 219.213L545.538 222.614Z" fill="#D7DAFF"/>
<path d="M559.208 225.647L559.191 231.645L556.288 233.327L556.305 227.329L559.208 225.647Z" fill="#2C353B"/>
<path d="M551.024 227.415L551.007 233.414L548.83 232.161L548.847 226.162L551.024 227.415Z" fill="#3B4951"/>
<path d="M556.305 227.329L556.288 233.327C554.798 234.19 552.421 234.228 551.007 233.414L551.024 227.415C552.439 228.229 554.815 228.191 556.305 227.329Z" fill="#2C353B"/>
<path d="M559.61 225.359C559.498 225.468 559.358 225.56 559.208 225.647L556.305 227.329C554.815 228.191 552.439 228.229 551.024 227.415L548.847 226.162L552.219 224.209C553.221 223.629 553.234 222.696 552.225 222.115L538.66 214.309L539.082 214.065C539.232 213.978 539.391 213.896 539.569 213.826L566.087 202.58C568.065 201.739 570.743 201.82 572.402 202.775L578.652 206.372C580.311 207.327 580.452 208.867 579.001 210.012L559.61 225.359Z" fill="#5D7280"/>
<path d="M573.727 208.042L573.723 209.396C573.722 209.798 573.459 210.199 572.934 210.503L572.938 209.149C573.463 208.844 573.726 208.444 573.727 208.042Z" fill="#888ABF"/>
<path d="M548.588 216.247L548.592 214.892C548.591 215.299 548.858 215.707 549.394 216.015L549.39 217.369C548.855 217.061 548.587 216.654 548.588 216.247Z" fill="#AEB2F4"/>
<path d="M572.938 209.149L572.934 210.503L557.179 219.629L557.183 218.275L572.938 209.149Z" fill="#888ABF"/>
<path d="M553.321 218.275L553.318 219.63L549.39 217.369L549.394 216.015L553.321 218.275Z" fill="#AEB2F4"/>
<path d="M572.925 206.919C573.989 207.532 573.995 208.536 572.938 209.149L557.183 218.275C556.125 218.888 554.386 218.888 553.321 218.275L549.394 216.015C548.33 215.403 548.324 214.398 549.381 213.786L565.136 204.659C566.194 204.047 567.933 204.047 568.998 204.659L572.925 206.919Z" fill="#D7DAFF"/>
<path d="M557.183 218.275L557.179 219.629C556.121 220.242 554.382 220.242 553.318 219.63L553.321 218.275C554.386 218.888 556.125 218.888 557.183 218.275Z" fill="#888ABF"/>
<path d="M568.038 211.953L560.317 207.509L561.022 207.103L568.743 211.547L568.038 211.953Z" fill="#AEB2F4"/>
<path d="M561.808 215.538L554.087 211.095L554.792 210.689L562.513 215.132L561.808 215.538Z" fill="#AEB2F4"/>
<path d="M566.884 208.694L565.98 208.173C565.559 207.931 565.612 207.508 566.098 207.228L566.766 206.843C567.252 206.564 567.988 206.533 568.409 206.776L569.313 207.296C569.734 207.538 569.681 207.961 569.195 208.241L568.527 208.626C568.041 208.905 567.305 208.936 566.884 208.694Z" fill="#5D7280"/>
<path d="M569.644 206.578C569.222 206.336 568.417 206.395 567.858 206.716L568.186 206.905C568.503 206.723 568.96 206.689 569.206 206.831C569.463 206.979 569.405 207.241 569.088 207.424L569.416 207.613C569.975 207.291 570.077 206.828 569.644 206.578Z" fill="#5D7280"/>
<path d="M560.001 212.655L559.097 212.135C558.676 211.892 558.729 211.469 559.215 211.189L559.883 210.805C560.369 210.525 561.104 210.495 561.526 210.737L562.43 211.257C562.851 211.499 562.798 211.923 562.312 212.203L561.644 212.587C561.157 212.867 560.422 212.897 560.001 212.655Z" fill="#5D7280"/>
<path d="M556.74 216.323C556.318 216.566 555.639 216.566 555.217 216.323L552.723 214.888C552.301 214.645 552.302 214.254 552.723 214.012C553.145 213.769 553.823 213.769 554.245 214.012L554.69 214.268C554.725 214.234 554.772 214.207 554.819 214.18C555.24 213.937 555.92 213.938 556.341 214.18L556.446 214.241C556.868 214.483 556.868 214.874 556.447 215.117C556.4 215.144 556.353 215.171 556.294 215.191L556.739 215.447C557.161 215.69 557.161 216.08 556.74 216.323Z" fill="#5D7280"/>
<path d="M564.038 210.893C564.038 210.55 563.397 210.264 562.606 210.264V210.531C563.055 210.531 563.419 210.693 563.419 210.893C563.419 211.103 563.055 211.265 562.606 211.265V211.532C563.397 211.532 564.038 211.246 564.038 210.893Z" fill="#5D7280"/>
<path d="M558.759 222.624V223.796H558.747C558.747 224.152 558.504 224.509 558.031 224.789C557.073 225.337 555.527 225.337 554.569 224.789C554.083 224.509 553.853 224.152 553.853 223.796V222.624H554.927C555.757 222.293 556.843 222.293 557.673 222.624H558.759Z" fill="#AEB2F4"/>
<path d="M558.037 223.621C557.079 224.172 555.526 224.172 554.568 223.621C553.611 223.069 553.61 222.176 554.568 221.625C555.526 221.073 557.079 221.073 558.037 221.625C558.994 222.176 558.994 223.069 558.037 223.621Z" fill="#D7DAFF"/>
<path d="M209.591 352.37C209.481 352.479 209.345 352.56 209.181 352.668L196.352 360.042C195.342 360.611 193.84 360.665 192.967 360.177L169.573 346.759C169.519 346.732 169.464 346.677 169.41 346.623C169.519 346.515 169.655 346.433 169.819 346.325L182.676 338.979C183.658 338.409 185.16 338.328 186.033 338.816L209.427 352.235C209.481 352.289 209.536 352.316 209.591 352.37Z" fill="#263238"/>
<path d="M210 351.584C210 351.855 209.864 352.126 209.591 352.37C209.481 352.479 209.345 352.56 209.181 352.668L198.535 358.795L196.352 360.042C196.079 360.204 195.778 360.313 195.451 360.394C194.577 360.611 193.595 360.53 192.967 360.177L169.573 346.759C169.519 346.732 169.464 346.677 169.41 346.623C169.136 346.433 169 346.189 169 345.918C169 345.539 169.273 345.159 169.819 344.834L182.676 337.461C183.003 337.271 183.386 337.135 183.795 337.081C184.587 336.919 185.46 337 186.033 337.325L189.991 339.602L195.451 342.72L198.535 344.509L209.427 350.744C209.809 350.96 210 351.259 210 351.584Z" fill="#37474F"/>
<path d="M178.517 346.994L174.77 344.845C174.442 344.657 174.483 344.329 174.862 344.112C175.24 343.895 175.812 343.871 176.14 344.059L179.888 346.208C180.215 346.396 180.174 346.724 179.796 346.941C179.417 347.158 178.845 347.181 178.517 346.994Z" fill="white"/>
<path d="M184.448 350.394L180.7 348.245C180.373 348.057 180.414 347.729 180.792 347.512C181.17 347.295 181.743 347.272 182.07 347.46L185.818 349.608C186.146 349.796 186.105 350.124 185.726 350.341C185.348 350.558 184.776 350.582 184.448 350.394Z" fill="white"/>
<path d="M190.378 353.794L186.631 351.645C186.303 351.458 186.344 351.129 186.723 350.913C187.101 350.696 187.673 350.672 188.001 350.86L191.749 353.009C192.076 353.197 192.035 353.525 191.657 353.742C191.278 353.959 190.706 353.982 190.378 353.794Z" fill="white"/>
<path d="M196.309 357.194L192.561 355.046C192.234 354.858 192.275 354.53 192.653 354.313C193.031 354.096 193.604 354.072 193.931 354.26L197.679 356.409C198.007 356.597 197.966 356.925 197.587 357.142C197.209 357.359 196.637 357.382 196.309 357.194Z" fill="white"/>
<path d="M179.469 350.535L171.564 346.003L172.632 345.391L180.537 349.923L179.469 350.535Z" fill="white"/>
<path d="M185.748 354.135L180.792 351.294L181.86 350.681L186.816 353.523L185.748 354.135Z" fill="white"/>
<path d="M181.929 345.478L177.832 343.129C177.486 342.93 177.529 342.582 177.93 342.353L179.413 341.502C179.813 341.273 180.419 341.248 180.766 341.447L184.863 343.796C185.21 343.994 185.166 344.342 184.766 344.571L183.282 345.422C182.882 345.652 182.276 345.676 181.929 345.478Z" fill="#FFB300"/>
<path d="M185.542 340.328C186.105 340.005 186.105 339.482 185.542 339.158C184.978 338.835 184.065 338.835 183.501 339.158C182.938 339.482 182.938 340.005 183.501 340.328C184.065 340.651 184.978 340.651 185.542 340.328Z" fill="white"/>
<path d="M189.998 343.254L186.226 341.092L186.873 340.721L190.645 342.883L189.998 343.254Z" fill="white"/>
<path d="M192.968 357.663C192.377 358.002 191.419 358.002 190.828 357.663C190.237 357.324 190.237 356.775 190.828 356.436C191.419 356.097 192.377 356.097 192.968 356.436C193.559 356.775 193.559 357.324 192.968 357.663Z" fill="#FFB300"/>
<path d="M194.304 358.428C193.713 358.767 192.755 358.767 192.164 358.428C191.573 358.089 191.573 357.54 192.164 357.201C192.755 356.863 193.713 356.863 194.304 357.201C194.895 357.54 194.895 358.09 194.304 358.428Z" fill="#F80202"/>
<path d="M202.199 350.249L196.745 347.122L197.391 346.752L202.845 349.879L202.199 350.249Z" fill="white"/>
<path d="M205.904 352.374L203.177 350.81L203.823 350.439L206.55 352.003L205.904 352.374Z" fill="white"/>
<path d="M210 351.584V353.075C210 353.454 209.727 353.834 209.181 354.159L196.352 361.533C195.342 362.102 193.84 362.156 192.967 361.668L169.573 348.25C169.191 348.033 169 347.735 169 347.409V345.918C169 346.189 169.136 346.433 169.41 346.623C169.464 346.677 169.519 346.732 169.573 346.759L192.967 360.177C193.84 360.665 195.342 360.611 196.352 360.042L209.181 352.668C209.345 352.56 209.481 352.479 209.591 352.37C209.864 352.126 210 351.855 210 351.584Z" fill="#263238"/>
<path d="M598.938 387.75C598.498 387.986 597.932 388.137 597.259 388.176L583.628 388.981C581.243 389.12 578.398 387.824 577.274 386.087L561.156 361.193C560.94 360.862 560.801 360.534 560.744 360.225C561.183 359.989 561.749 359.838 562.422 359.799L576.053 358.994C578.439 358.854 581.284 360.151 582.407 361.888L598.526 386.781C598.747 387.116 598.881 387.441 598.938 387.75Z" fill="#0E6876"/>
<path d="M599.825 386.894C599.652 387.237 599.345 387.533 598.938 387.75C598.498 387.986 597.932 388.137 597.259 388.176L583.628 388.981C581.243 389.12 578.398 387.824 577.274 386.087L561.156 361.193C560.94 360.862 560.801 360.534 560.744 360.225C560.651 359.806 560.702 359.409 560.873 359.072C561.234 358.359 562.132 357.875 563.436 357.797L577.067 356.992C579.455 356.846 582.3 358.143 583.424 359.88L599.542 384.773C600.052 385.562 600.123 386.307 599.825 386.894Z" fill="#148FA2"/>
<path d="M583.345 367.596L578.339 359.865C578.133 359.546 578.32 359.267 578.758 359.241C579.195 359.215 579.717 359.453 579.924 359.772L584.93 367.502C585.136 367.821 584.949 368.1 584.511 368.126C584.073 368.152 583.551 367.914 583.345 367.596Z" fill="#B5F0F6"/>
<path d="M589.022 376.362L585.79 371.372C585.584 371.053 585.771 370.774 586.209 370.748C586.646 370.722 587.168 370.959 587.375 371.278L590.607 376.269C590.813 376.587 590.626 376.867 590.188 376.893C589.75 376.918 589.228 376.681 589.022 376.362Z" fill="#B5F0F6"/>
<path d="M569.497 365.121L566.563 360.591C566.347 360.256 566.544 359.963 567.003 359.936C567.463 359.909 568.011 360.158 568.228 360.492L571.161 365.023C571.378 365.357 571.181 365.651 570.721 365.678C570.262 365.705 569.714 365.456 569.497 365.121Z" fill="#F4F9FB"/>
<path d="M574.061 372.169L571.128 367.639C570.911 367.304 571.108 367.011 571.567 366.984C572.027 366.957 572.575 367.206 572.792 367.541L575.725 372.071C575.942 372.406 575.745 372.699 575.286 372.726C574.826 372.753 574.278 372.504 574.061 372.169Z" fill="#F4F9FB"/>
<path d="M578.625 379.218L575.692 374.687C575.475 374.353 575.672 374.059 576.131 374.032C576.591 374.005 577.139 374.254 577.356 374.589L580.289 379.119C580.506 379.454 580.309 379.747 579.85 379.774C579.39 379.801 578.842 379.552 578.625 379.218Z" fill="#F4F9FB"/>
<path d="M583.189 386.266L580.256 381.736C580.039 381.401 580.236 381.108 580.696 381.081C581.155 381.054 581.703 381.303 581.92 381.637L584.854 386.168C585.07 386.502 584.873 386.796 584.414 386.823C583.954 386.85 583.406 386.601 583.189 386.266Z" fill="#F4F9FB"/>
<path d="M569.362 368.661L564.058 360.469C563.934 360.278 564.046 360.11 564.309 360.095C564.571 360.079 564.885 360.222 565.008 360.413L570.313 368.605C570.437 368.796 570.325 368.964 570.062 368.979C569.799 368.995 569.486 368.853 569.362 368.661Z" fill="#B5F0F6"/>
<path d="M573.712 375.378L571.151 371.423C571.027 371.232 571.14 371.064 571.402 371.049C571.665 371.033 571.978 371.176 572.102 371.367L574.663 375.322C574.787 375.513 574.674 375.681 574.412 375.696C574.149 375.712 573.836 375.57 573.712 375.378Z" fill="#B5F0F6"/>
<path d="M574.496 365.408L571.433 360.677C571.087 360.144 571.401 359.676 572.134 359.633L573.522 359.551C574.254 359.507 575.128 359.905 575.474 360.439L578.538 365.17C578.883 365.703 578.569 366.171 577.836 366.214L576.449 366.296C575.716 366.339 574.842 365.942 574.496 365.408Z" fill="#FFC532"/>
<path d="M587.381 384.592C586.342 384.653 585.042 383.995 584.476 383.122C583.911 382.249 584.294 381.491 585.333 381.43C586.371 381.368 587.672 382.026 588.237 382.9C588.803 383.773 588.419 384.531 587.381 384.592Z" fill="#FFC532"/>
<path d="M588.663 386.572C587.624 386.633 586.324 385.975 585.758 385.102C585.193 384.228 585.576 383.471 586.615 383.409C587.653 383.348 588.954 384.006 589.519 384.879C590.085 385.753 589.701 386.51 588.663 386.572Z" fill="#FF6852"/>
<path d="M599.825 386.894L598.809 388.903C598.45 389.61 597.549 390.1 596.245 390.178L582.615 390.983C580.229 391.123 577.381 389.832 576.258 388.095L560.139 363.202C559.629 362.413 559.559 361.668 559.856 361.08L560.873 359.072C560.702 359.409 560.651 359.806 560.744 360.225C560.801 360.534 560.94 360.862 561.156 361.193L577.274 386.087C578.398 387.824 581.243 389.12 583.628 388.981L597.259 388.176C597.932 388.137 598.498 387.986 598.938 387.75C599.345 387.533 599.652 387.237 599.825 386.894Z" fill="#0E6876"/>
<path d="M125.437 63.7837L96.8531 76.1705L103.664 86.446L140.096 157.426C140.213 157.683 148.477 163.537 148.477 163.537L195.729 126.033L206.112 66.2212L125.437 63.7837Z" fill="black"/>
<path d="M148.477 163.537L251.405 164.818L274.529 126.727L171.601 125.445L148.477 163.537Z" fill="#C1CCB1"/>
<path d="M112.61 97.3655L148.477 163.537L171.601 125.445L134.517 61.2798L112.61 97.3655Z" fill="#A3B092"/>
<path d="M235.524 61.1619L125.081 59.7866L165.494 129.085L282.157 130.538L259.647 70.7557L235.524 61.1619Z" fill="#B7C0C7"/>
<path d="M182.465 69.7951L165.494 129.085L282.157 130.538L259.647 70.7557L182.465 69.7951Z" fill="#976739"/>
<path d="M125.081 59.7866L182.465 69.7951L259.647 70.7557L235.524 61.1619L125.081 59.7866Z" fill="#6E4E2F"/>
<path d="M125.081 59.7866L165.494 129.085L182.465 69.7951L125.081 59.7866Z" fill="#825C38"/>
<path d="M215.554 130.224L194.964 164.141L207.227 187.017L221.114 196.286L244.94 196.66L263.756 165.664L219.795 138.721L215.554 130.224Z" fill="#ADBA9B"/>
<path d="M194.98 164.115L207.227 187.017L227.83 153.079L215.255 130.717L194.98 164.115Z" fill="#A3B092"/>
<path d="M221.504 196.523L244.94 196.66L265.214 163.262L242.107 162.585L221.504 196.523Z" fill="#B7C5A4"/>
<path d="M239.668 104.211L213.935 129.688L227.545 155.078L242.958 165.366L257.576 137.104L239.668 104.211Z" fill="#825C38"/>
<path d="M242.958 165.366L269.403 165.781L257.576 137.104L242.958 165.366Z" fill="#AB7541"/>
<path d="M258.998 130.249L239.746 104.355L257.654 137.248L269.403 165.781L270.533 151.769L258.998 130.249Z" fill="#9E6C3C"/>
<path d="M165.387 155.939L184.819 156.181L196.387 137.126L176.955 136.884L165.387 155.939Z" fill="#7DC8F0"/>
<path d="M174.014 155.824L176.447 155.876L187.76 137.24L185.327 137.188L174.014 155.824Z" fill="white"/>
<path d="M170.557 145.752L192.002 146.019L193.614 143.364L172.169 143.097L170.557 145.752Z" fill="white"/>
<path d="M163.612 156.934L185.368 157.205L198.162 136.13L176.406 135.859L163.612 156.934ZM177.504 137.908L194.612 138.121L184.27 155.157L167.162 154.943L177.504 137.908Z" fill="white"/>
<path d="M229.967 187.383L249.313 187.623L260.829 168.653L241.483 168.412L229.967 187.383Z" fill="#7DC8F0"/>
<path d="M239.241 186.813L241.545 186.862L252.259 169.212L249.955 169.163L239.241 186.813Z" fill="white"/>
<path d="M232.025 182.362L251.633 182.607L252.394 181.353L232.787 181.108L232.025 182.362Z" fill="white"/>
<path d="M235.971 175.863L255.578 176.107L256.34 174.853L236.733 174.608L235.971 175.863Z" fill="white"/>
<path d="M228.816 187.414L249.773 187.924L261.47 168.656L240.512 168.147L228.816 187.414ZM241.27 169.39L259.526 169.604L249.316 186.422L231.061 186.208L241.27 169.39Z" fill="white"/>
<path d="M203.61 160.11L212.004 175.77L222.58 158.349L214.186 142.689L203.61 160.11Z" fill="#7DC8F0"/>
<path d="M207.389 166.772L208.458 168.724L218.801 151.686L217.732 149.734L207.389 166.772Z" fill="white"/>
<path d="M205.683 155.169L214.946 172.451L215.708 171.197L206.444 153.915L205.683 155.169Z" fill="white"/>
<path d="M209.629 148.669L218.892 165.951L219.654 164.696L210.39 147.414L209.629 148.669Z" fill="white"/>
<path d="M202.547 160.097L211.946 177.629L223.642 158.362L214.244 140.829L202.547 160.097ZM214.209 143.377L222.19 158.264L211.98 175.082L204 160.195L214.209 143.377Z" fill="white"/>
<path d="M214.054 177.761L226.523 185.365L237.078 167.979L224.608 160.376L214.054 177.761Z" fill="#7DC8F0"/>
<path d="M219.626 180.883L221.184 181.86L231.506 164.857L229.948 163.88L219.626 180.883Z" fill="white"/>
<path d="M215.91 173.245L229.672 181.637L230.432 180.385L216.67 171.993L215.91 173.245Z" fill="white"/>
<path d="M219.848 166.758L233.609 175.15L234.369 173.899L220.608 165.507L219.848 166.758Z" fill="white"/>
<path d="M212.749 178.227L226.71 186.741L238.383 167.513L224.422 158.999L212.749 178.227ZM224.733 160.864L236.588 168.093L226.399 184.876L214.545 177.647L224.733 160.864Z" fill="white"/>
<path d="M132.492 133.887L140.088 148.059L154.424 124.445L146.828 110.273L132.492 133.887Z" fill="#75491F"/>
<path d="M146.284 131.321L144.212 134.735C144.037 135.022 144.023 135.492 144.179 135.783C144.335 136.075 144.603 136.078 144.778 135.79L146.85 132.377C147.024 132.09 147.04 131.62 146.883 131.329C146.727 131.038 146.458 131.034 146.284 131.321Z" fill="#916E4C"/>
<path d="M118.942 99.0386L128.123 116.167L139.69 97.1119L130.51 79.9839L118.942 99.0386Z" fill="#7DC8F0"/>
<path d="M123.075 106.326L124.244 108.46L135.557 89.8244L134.388 87.6899L123.075 106.326Z" fill="white"/>
<path d="M124.643 87.9771L134.775 106.88L136.387 104.224L126.255 85.3223L124.643 87.9771Z" fill="white"/>
<path d="M117.78 99.0246L128.059 118.2L140.853 97.1266L130.574 77.9503L117.78 99.0246ZM130.445 82.0176L138.528 97.097L128.186 114.133L120.103 99.0536L130.445 82.0176Z" fill="white"/>
<path d="M515.701 107.961L520.169 126.203L522.738 123.311L565.392 119.096C565.543 119.088 570.096 116.112 570.096 116.112L560.66 85.1026L528.144 78.4286L515.701 107.961Z" fill="black"/>
<path d="M570.096 116.112L590.511 66.1493L571.898 41.6444L551.482 91.6071L570.096 116.112Z" fill="#EF8458"/>
<path d="M518.761 98.2268L535.424 120.164L570.096 116.112L551.482 91.6071L526.866 90.1639L518.761 98.2268Z" fill="#EB642D"/>
<path d="M527.304 90.3236L554.566 96.7143L577.319 41.0291L550.058 34.6383L527.304 90.3236Z" fill="#5F7371"/>
<path d="M517.216 101.112L527.304 90.3236L550.058 34.6383L539.969 45.4269L517.216 101.112Z" fill="#566966"/>
<path d="M574.949 77.8407L589.865 97.4772L603.184 64.6702L587.299 43.7569L577.169 48.7166L574.949 77.8407Z" fill="#EF8458"/>
<path d="M577.101 98.9689L589.865 97.4772L574.949 77.8407L562.185 79.3321L577.101 98.9689Z" fill="#EB642D"/>
<path d="M560.291 84.0648L578.714 81.4782L580.174 48.4171L550.882 51.3362L560.291 84.0648Z" fill="#2F3938"/>
<path d="M550.882 51.3362L580.174 48.4171L593.438 40.8069L576.432 43.2001L550.882 51.3362Z" fill="#3F4847"/>
<path d="M541.974 113.502L552.456 112.277L545.132 102.636L534.651 103.861L541.974 113.502Z" fill="#7DC8F0"/>
<path d="M546.479 112.866L547.79 112.701L540.628 103.272L539.317 103.437L546.479 112.866Z" fill="white"/>
<path d="M537.521 108.418L549.089 107.066L548.068 105.722L536.501 107.074L537.521 108.418Z" fill="white"/>
<path d="M541.736 114.086L553.471 112.715L545.371 102.051L533.636 103.423L541.736 114.086ZM535.665 104.298L544.893 103.22L551.441 111.84L542.213 112.918L535.665 104.298Z" fill="white"/>
<path d="M568.581 108.804L572.573 99.0348L565.249 89.3932L561.257 99.1623L568.581 108.804Z" fill="#7DC8F0"/>
<path d="M570.241 104.423L570.752 103.204L563.589 93.7743L563.079 94.9931L570.241 104.423Z" fill="white"/>
<path d="M564.464 104.162L568.869 93.3807L567.849 92.0373L563.443 102.818L564.464 104.162Z" fill="white"/>
<path d="M568.731 109.899L573.2 98.9616L565.1 88.298L560.631 99.2355L568.731 109.899ZM561.884 99.0887L565.399 90.488L571.947 99.1082L568.432 107.709L561.884 99.0887Z" fill="white"/>
<path d="M595.386 83.8142L599.885 72.802L588.686 58.0583L584.187 69.0703L595.386 83.8142Z" fill="white"/>
<path d="M595.72 82.9967L599.47 73.8199L589.166 60.2543L585.416 69.4312L595.72 82.9967Z" fill="#DBDBDB"/>
<path d="M592.783 67.1473C592.69 67.3736 592.737 67.718 592.887 67.9159L594.675 70.2689C594.825 70.467 595.022 70.4443 595.115 70.2175C595.207 69.9913 595.16 69.6471 595.01 69.449L593.223 67.0961C593.072 66.8976 592.875 66.9207 592.783 67.1473Z" fill="#999999"/>
<path d="M558.17 789.203L543.508 795.757L546.562 797.859L553.198 818.896L555.977 822.371L580.592 809.672L609.838 798.01L599.377 798.661L558.17 789.203Z" fill="black"/>
<path d="M543.105 742.426L528.442 748.981L531.497 751.083L538.133 772.12L540.912 775.594L565.527 762.895L594.773 751.234L584.312 751.884L543.105 742.426Z" fill="black"/>
<path d="M549.064 777.324L556.968 802.041L573.999 786.951L566.052 758.498L549.064 777.324Z" fill="#FFC995"/>
<path d="M540.912 775.594L549.064 777.324L566.052 758.498L557.9 756.769L540.912 775.594Z" fill="#FFDFC1"/>
<path d="M557.873 789.836L560.155 796.92L565.795 790.669L563.514 783.585L557.873 789.836Z" fill="#7DC8F0"/>
<path d="M558.929 792.867L559.223 793.751L564.739 787.638L564.446 786.753L558.929 792.867Z" fill="white"/>
<path d="M560.767 786.132L563.285 793.949L564.071 793.078L561.553 785.26L560.767 786.132Z" fill="white"/>
<path d="M557.438 789.744L559.992 797.674L566.231 790.761L563.676 782.83L557.438 789.744ZM563.351 784.34L565.36 790.576L560.317 796.165L558.309 789.928L563.351 784.34Z" fill="white"/>
<path d="M535.495 758.776L540.912 775.594L557.9 756.769L552.483 739.95L535.495 758.776Z" fill="#B5B5B5"/>
<path d="M552.483 739.95L535.495 758.776L540.912 775.594L557.9 756.769L557.4 744.844L552.483 739.95Z" fill="#F5B174"/>
<path d="M567.548 786.727L550.561 805.552L555.977 822.371L572.965 803.545L573.176 793.069L567.548 786.727Z" fill="#F5B174"/>
<path d="M555.977 822.371L594.106 830.363L609.979 812.773L573.016 803.488L555.977 822.371Z" fill="#FFDFC1"/>
<path d="M549.228 738.093L556.883 745.413L595.896 753.963L588.903 746.915L549.228 738.093Z" fill="#3D4645"/>
<path d="M556.883 745.413L555.945 758.935L595.597 767.286L595.896 753.963L556.883 745.413Z" fill="#6F7675"/>
<path d="M565.077 760.873L575.344 792.751L594.679 782.076L587.688 760.369L565.077 760.873Z" fill="#2F3938"/>
<path d="M587.688 760.369L594.679 782.076L605.933 799.181L595.597 767.286L587.688 760.369Z" fill="#555D5C"/>
<path d="M575.729 792.324L605.933 799.181L594.679 782.076L575.729 792.324Z" fill="#6F7675"/>
<path d="M564.228 784.783L571.217 792.841L611.136 801.28L603.903 793.605L564.228 784.783Z" fill="#3D4645"/>
<path d="M571.217 792.841L570.945 805.624L610.597 813.976L611.136 801.28L571.217 792.841Z" fill="#6F7675"/>
<path d="M551.921 786.305L553.974 792.678L561.574 784.255L559.521 777.882L551.921 786.305Z" fill="#704317"/>
<path d="M557.73 786.523L556.631 787.741C556.539 787.843 556.498 788.033 556.54 788.164C556.582 788.295 556.691 788.318 556.784 788.215L557.882 786.998C557.975 786.896 558.016 786.706 557.974 786.575C557.931 786.444 557.822 786.421 557.73 786.523Z" fill="#481100"/>
<path d="M570.278 820.88L578.907 822.71L585.593 815.301L576.964 813.47L570.278 820.88Z" fill="#7DC8F0"/>
<path d="M574.127 821.594L575.206 821.833L581.745 814.586L580.666 814.348L574.127 821.594Z" fill="white"/>
<path d="M573.401 816.829L582.924 818.849L583.856 817.816L574.333 815.796L573.401 816.829Z" fill="white"/>
<path d="M569.408 821.163L579.069 823.212L586.463 815.018L576.802 812.968L569.408 821.163ZM577.126 813.972L584.723 815.584L578.746 822.208L571.149 820.596L577.126 813.972Z" fill="white"/>
<path d="M585.955 824.205L594.584 826.036L601.27 818.627L592.641 816.796L585.955 824.205Z" fill="#7DC8F0"/>
<path d="M589.804 824.92L590.882 825.159L597.421 817.912L596.343 817.674L589.804 824.92Z" fill="white"/>
<path d="M589.078 820.155L598.601 822.175L599.532 821.142L590.01 819.122L589.078 820.155Z" fill="white"/>
<path d="M585.085 824.489L594.746 826.538L602.14 818.344L592.479 816.294L585.085 824.489ZM592.803 817.298L600.4 818.91L594.422 825.534L586.825 823.922L592.803 817.298Z" fill="white"/>
<path d="M554.299 809.482L555.961 814.643L563.467 806.325L561.805 801.165L554.299 809.482Z" fill="#7DC8F0"/>
<path d="M555.704 813.515L556.047 814.548L563.388 806.413L563.045 805.38L555.704 813.515Z" fill="white"/>
<path d="M558.15 804.553L559.969 810.202L561.015 809.042L559.195 803.394L558.15 804.553Z" fill="white"/>
<path d="M553.72 809.359L555.564 815.083L556.359 814.202L554.878 809.605L561.589 802.169L563.069 806.766L563.865 805.884L562.021 800.16L553.72 809.359Z" fill="white"/>
<path d="M564.76 798.231L566.24 802.828L569.126 799.629L567.646 795.032L564.76 798.231Z" fill="#7DC8F0"/>
<path d="M566.011 801.823L566.317 802.743L569.056 799.707L568.75 798.788L566.011 801.823Z" fill="white"/>
<path d="M564.244 798.121L565.886 803.22L566.594 802.435L565.275 798.34L567.453 795.927L568.772 800.022L569.481 799.236L567.838 794.137L564.244 798.121Z" fill="white"/>
<path d="M552.901 774.398L555.182 781.482L560.823 775.231L558.542 768.147L552.901 774.398Z" fill="#7DC8F0"/>
<path d="M553.957 777.429L554.25 778.313L559.767 772.2L559.474 771.315L553.957 777.429Z" fill="white"/>
<path d="M555.795 770.693L558.312 778.511L559.098 777.64L556.58 769.822L555.795 770.693Z" fill="white"/>
<path d="M552.465 774.306L555.02 782.236L561.258 775.323L558.704 767.392L552.465 774.306ZM558.379 768.902L560.388 775.138L555.345 780.727L553.336 774.49L558.379 768.902Z" fill="white"/>
<path d="M539.788 761.16L541.45 766.321L548.956 758.003L547.294 752.843L539.788 761.16Z" fill="#7DC8F0"/>
<path d="M541.193 765.193L541.536 766.226L548.877 758.091L548.534 757.058L541.193 765.193Z" fill="white"/>
<path d="M543.639 756.231L545.458 761.88L546.504 760.721L544.684 755.072L543.639 756.231Z" fill="white"/>
<path d="M539.209 761.037L541.053 766.762L541.848 765.88L540.368 761.283L547.078 753.847L548.558 758.444L549.354 757.562L547.51 751.838L539.209 761.037Z" fill="white"/>
<path d="M551.056 748.732L552.536 753.329L555.422 750.131L553.942 745.534L551.056 748.732Z" fill="#7DC8F0"/>
<path d="M552.308 752.325L552.613 753.245L555.352 750.209L555.047 749.289L552.308 752.325Z" fill="white"/>
<path d="M550.54 748.623L552.182 753.722L552.891 752.937L551.572 748.842L553.749 746.429L555.068 750.523L555.777 749.738L554.135 744.639L550.54 748.623Z" fill="white"/>
</svg>
