<svg width="84" height="93" viewBox="0 0 84 93" fill="none" xmlns="http://www.w3.org/2000/svg">
<g id="Vector">
<path d="M30.17 51.2028L15.5075 57.7571L18.5617 59.8594L25.1982 80.8965L27.9773 84.3707L52.5921 71.6715L81.8383 60.0105L71.3771 60.661L30.17 51.2028Z" fill="black"/>
<path d="M15.1049 4.42613L0.442255 10.9806L3.49657 13.0827L10.133 34.12L12.912 37.5942L37.5268 24.895L66.773 13.2339L56.3118 13.8845L15.1049 4.42613Z" fill="black"/>
<path d="M21.0644 39.3236L28.9677 64.0411L45.9987 48.9508L38.0521 20.498L21.0644 39.3236Z" fill="#FFC995"/>
<path d="M12.912 37.5942L21.0644 39.3236L38.0521 20.498L29.8997 18.7686L12.912 37.5942Z" fill="#FFDFC1"/>
<path d="M29.8733 51.836L32.1547 58.9196L37.7954 52.6687L35.5141 45.5849L29.8733 51.836Z" fill="#7DC8F0"/>
<path d="M30.9295 54.8667L31.2227 55.7513L36.7393 49.6378L36.4461 48.7533L30.9295 54.8667Z" fill="white"/>
<path d="M32.7668 48.1315L35.2848 55.9491L36.0708 55.0781L33.553 47.2603L32.7668 48.1315Z" fill="white"/>
<path d="M29.4379 51.7437L31.9923 59.6745L38.2307 52.7611L35.6764 44.8301L29.4379 51.7437ZM35.3515 46.34L37.3601 52.5765L32.3172 58.165L30.3086 51.9285L35.3515 46.34Z" fill="white"/>
<path d="M7.49547 20.7757L12.912 37.5942L29.8997 18.7686L24.4832 1.95015L7.49547 20.7757Z" fill="#B5B5B5"/>
<path d="M24.4832 1.95015L7.49547 20.7757L12.912 37.5942L29.8997 18.7686L29.3999 6.84358L24.4832 1.95015Z" fill="#F5B174"/>
<path d="M39.5484 48.7267L22.5608 67.5523L27.9773 84.3707L44.9649 65.5451L45.1761 55.0688L39.5484 48.7267Z" fill="#F5B174"/>
<path d="M27.9773 84.3707L66.1061 92.3633L81.9794 74.7726L45.0164 65.4881L27.9773 84.3707Z" fill="#FFDFC1"/>
<path d="M21.228 0.0931408L28.8833 7.41299L67.8962 15.9626L60.9035 8.91532L21.228 0.0931408Z" fill="#3D4645"/>
<path d="M28.8833 7.41299L27.9452 20.9346L67.597 29.2863L67.8962 15.9626L28.8833 7.41299Z" fill="#6F7675"/>
<path d="M37.0769 22.8732L47.3438 54.7509L66.6794 44.0761L59.6881 22.3688L37.0769 22.8732Z" fill="#2F3938"/>
<path d="M59.6881 22.3688L66.6794 44.0761L77.9332 61.1811L67.597 29.2863L59.6881 22.3688Z" fill="#555D5C"/>
<path d="M47.729 54.3239L77.9332 61.1811L66.6794 44.0761L47.729 54.3239Z" fill="#6F7675"/>
<path d="M36.2277 46.7826L43.2171 54.8409L83.1357 63.2802L75.9034 55.605L36.2277 46.7826Z" fill="#3D4645"/>
<path d="M43.2171 54.8409L42.9451 67.6242L82.5969 75.9759L83.1357 63.2802L43.2171 54.8409Z" fill="#6F7675"/>
<path d="M23.9212 48.3048L25.9737 54.6775L33.574 46.2549L31.5215 39.8822L23.9212 48.3048Z" fill="#704317"/>
<path d="M29.7297 48.5235L28.6312 49.7409C28.5387 49.8434 28.498 50.0329 28.5401 50.1637C28.5823 50.2949 28.6915 50.3179 28.7839 50.2154L29.8825 48.998C29.975 48.8955 30.0157 48.7064 29.9736 48.5752C29.9314 48.4444 29.8222 48.421 29.7297 48.5235Z" fill="#481100"/>
<path d="M42.2785 82.8796L50.9074 84.7099L57.5931 77.3009L48.9643 75.4704L42.2785 82.8796Z" fill="#7DC8F0"/>
<path d="M46.1273 83.5938L47.2058 83.8326L53.7446 76.5863L52.666 76.3478L46.1273 83.5938Z" fill="white"/>
<path d="M45.4012 78.8285L54.9243 80.8485L55.8559 79.8161L46.3328 77.7961L45.4012 78.8285Z" fill="white"/>
<path d="M41.4081 83.1626L51.069 85.212L58.4634 77.0176L48.8024 74.9683L41.4081 83.1626ZM49.126 75.9724L56.7229 77.584L50.7457 84.208L43.1488 82.5963L49.126 75.9724Z" fill="white"/>
<path d="M57.955 86.2054L66.5841 88.0358L73.2698 80.6268L64.6406 78.7964L57.955 86.2054Z" fill="#7DC8F0"/>
<path d="M61.8038 86.9199L62.8823 87.1587L69.4211 79.9125L68.3426 79.6737L61.8038 86.9199Z" fill="white"/>
<path d="M61.0777 82.1547L70.6008 84.1747L71.5324 83.1422L62.0095 81.1221L61.0777 82.1547Z" fill="white"/>
<path d="M57.0848 86.4885L66.7456 88.538L74.1401 80.3435L64.4791 78.2943L57.0848 86.4885ZM64.8027 79.2983L72.3996 80.91L66.4224 87.5339L58.8255 85.9223L64.8027 79.2983Z" fill="white"/>
<path d="M26.2993 71.4824L27.9614 76.6428L35.467 68.3251L33.8051 63.1645L26.2993 71.4824Z" fill="#7DC8F0"/>
<path d="M27.7044 75.515L28.0472 76.5477L35.3876 68.4132L35.0449 67.3803L27.7044 75.515Z" fill="white"/>
<path d="M30.1496 66.5527L31.9691 72.2015L33.0149 71.0425L31.1954 65.3937L30.1496 66.5527Z" fill="white"/>
<path d="M25.7201 71.3594L27.5638 77.0835L28.359 76.2022L26.8783 71.6053L33.5887 64.1689L35.0694 68.7658L35.8648 67.8844L34.0212 62.1601L25.7201 71.3594Z" fill="white"/>
<path d="M36.7598 60.2308L38.2401 64.8277L41.1264 61.6291L39.6459 57.0324L36.7598 60.2308Z" fill="#7DC8F0"/>
<path d="M38.0112 63.823L38.3166 64.7429L41.0557 61.7074L40.7503 60.7875L38.0112 63.823Z" fill="white"/>
<path d="M36.2436 60.1213L37.886 65.2201L38.5944 64.435L37.2755 60.3404L39.4532 57.9271L40.7721 62.0217L41.4807 61.2365L39.8385 56.1375L36.2436 60.1213Z" fill="white"/>
<path d="M24.901 36.3977L27.1824 43.4816L32.8231 37.2307L30.5416 30.1468L24.901 36.3977Z" fill="#7DC8F0"/>
<path d="M25.9568 39.4288L26.2504 40.3133L31.7671 34.1998L31.4736 33.3151L25.9568 39.4288Z" fill="white"/>
<path d="M27.7945 32.6932L30.3123 40.511L31.0983 39.64L28.5805 31.8222L27.7945 32.6932Z" fill="white"/>
<path d="M24.4654 36.3055L27.0198 44.2363L33.2582 37.323L30.704 29.392L24.4654 36.3055ZM30.3792 30.9016L32.3878 37.1382L27.3449 42.7267L25.3363 36.4901L30.3792 30.9016Z" fill="white"/>
<path d="M11.7884 23.1605L13.4504 28.3209L20.9561 20.0033L19.2942 14.8427L11.7884 23.1605Z" fill="#7DC8F0"/>
<path d="M13.1934 27.1931L13.5362 28.2258L20.8768 20.0911L20.534 19.0584L13.1934 27.1931Z" fill="white"/>
<path d="M15.6386 18.2308L17.4581 23.8796L18.504 22.7206L16.6845 17.0718L15.6386 18.2308Z" fill="white"/>
<path d="M11.2091 23.0375L13.0528 28.7616L13.8482 27.8801L12.3676 23.2832L19.0779 15.8468L20.5584 20.4439L21.354 19.5623L19.5103 13.8382L11.2091 23.0375Z" fill="white"/>
<path d="M23.0558 10.7323L24.5363 15.3294L27.4224 12.131L25.942 7.53391L23.0558 10.7323Z" fill="#7DC8F0"/>
<path d="M24.3075 14.3246L24.6129 15.2445L27.352 12.2091L27.0466 11.2892L24.3075 14.3246Z" fill="white"/>
<path d="M22.5398 10.623L24.182 15.722L24.8906 14.9368L23.5717 10.8421L25.7494 8.42881L27.0683 12.5234L27.7769 11.7382L26.1345 6.63937L22.5398 10.623Z" fill="white"/>
</g>
</svg>
