<svg width="171" height="138" viewBox="0 0 171 138" fill="none" xmlns="http://www.w3.org/2000/svg">
<path d="M36.4775 104.537L139.405 105.818L162.529 67.7268L59.6012 66.4449L36.4775 104.537Z" fill="#C1CCB1"/>
<path d="M0.610411 38.3655L36.4775 104.537L59.6012 66.4449L22.5169 2.27976L0.610411 38.3655Z" fill="#A3B092"/>
<path d="M123.524 2.16192L13.081 0.786579L53.4942 70.0848L170.157 71.5379L147.647 11.7557L123.524 2.16192Z" fill="#B7C0C7"/>
<path d="M70.4651 10.7951L53.4942 70.0848L170.157 71.5379L147.647 11.7557L70.4651 10.7951Z" fill="#976739"/>
<path d="M13.081 0.786579L70.4651 10.7951L147.647 11.7557L123.524 2.16192L13.081 0.786579Z" fill="#6E4E2F"/>
<path d="M13.081 0.786579L53.4942 70.0848L70.4651 10.7951L13.081 0.786579Z" fill="#825C38"/>
<path d="M103.554 71.224L82.9645 105.141L95.2267 128.017L109.114 137.286L132.94 137.66L151.756 106.664L107.795 79.7215L103.554 71.224Z" fill="#ADBA9B"/>
<path d="M82.9801 105.115L95.2267 128.017L115.83 94.0787L103.255 71.7173L82.9801 105.115Z" fill="#A3B092"/>
<path d="M109.504 137.523L132.94 137.66L153.214 104.262L130.107 103.585L109.504 137.523Z" fill="#B7C5A4"/>
<path d="M127.668 45.2113L101.935 70.6879L115.545 96.0778L130.958 106.366L145.576 78.1043L127.668 45.2113Z" fill="#825C38"/>
<path d="M130.958 106.366L157.403 106.781L145.576 78.1043L130.958 106.366Z" fill="#AB7541"/>
<path d="M146.998 71.2493L127.746 45.3551L145.654 78.2482L157.403 106.781L158.533 92.7688L146.998 71.2493Z" fill="#9E6C3C"/>
<path d="M53.387 96.9388L72.8191 97.1805L84.3866 78.1258L64.9546 77.8841L53.387 96.9388Z" fill="#7DC8F0"/>
<path d="M62.014 96.8239L64.4467 96.8763L75.76 78.2404L73.327 78.1884L62.014 96.8239Z" fill="white"/>
<path d="M58.5567 86.7518L80.0023 87.0191L81.6142 84.3639L60.1686 84.0966L58.5567 86.7518Z" fill="white"/>
<path d="M51.6123 97.9338L73.3679 98.2052L86.1617 77.1305L64.4058 76.8595L51.6123 97.9338ZM65.5038 78.9079L82.6116 79.1211L72.2699 96.1567L55.162 95.9435L65.5038 78.9079Z" fill="white"/>
<path d="M117.967 128.383L137.313 128.623L148.829 109.653L129.483 109.412L117.967 128.383Z" fill="#7DC8F0"/>
<path d="M127.241 127.813L129.545 127.862L140.259 110.212L137.955 110.163L127.241 127.813Z" fill="white"/>
<path d="M120.025 123.362L139.633 123.607L140.394 122.353L120.787 122.108L120.025 123.362Z" fill="white"/>
<path d="M123.971 116.863L143.578 117.107L144.34 115.853L124.733 115.608L123.971 116.863Z" fill="white"/>
<path d="M116.816 128.414L137.773 128.924L149.47 109.656L128.512 109.147L116.816 128.414ZM129.27 110.39L147.526 110.604L137.316 127.422L119.061 127.208L129.27 110.39Z" fill="white"/>
<path d="M91.6099 101.11L100.004 116.77L110.58 99.3487L102.186 83.6888L91.6099 101.11Z" fill="#7DC8F0"/>
<path d="M95.3889 107.772L96.4576 109.724L106.801 92.6863L105.732 90.7344L95.3889 107.772Z" fill="white"/>
<path d="M93.6825 96.1689L102.946 113.451L103.708 112.197L94.444 94.9145L93.6825 96.1689Z" fill="white"/>
<path d="M97.6286 89.6686L106.892 106.951L107.654 105.696L98.3901 88.4142L97.6286 89.6686Z" fill="white"/>
<path d="M90.5473 101.097L99.9456 118.629L111.642 99.3617L102.244 81.8292L90.5473 101.097ZM102.209 84.3771L110.19 99.2638L99.98 116.082L91.9999 101.195L102.209 84.3771Z" fill="white"/>
<path d="M102.054 118.761L114.523 126.365L125.078 108.979L112.608 101.376L102.054 118.761Z" fill="#7DC8F0"/>
<path d="M107.626 121.883L109.184 122.86L119.506 105.857L117.948 104.88L107.626 121.883Z" fill="white"/>
<path d="M103.91 114.245L117.672 122.637L118.432 121.385L104.67 112.993L103.91 114.245Z" fill="white"/>
<path d="M107.848 107.758L121.609 116.15L122.369 114.899L108.608 106.507L107.848 107.758Z" fill="white"/>
<path d="M100.749 119.227L114.71 127.741L126.383 108.513L112.422 99.9991L100.749 119.227ZM112.733 101.864L124.588 109.093L114.399 125.876L102.545 118.647L112.733 101.864Z" fill="white"/>
<path d="M20.492 74.8871L28.0881 89.0592L42.4237 65.4447L34.8276 51.2726L20.492 74.8871Z" fill="#75491F"/>
<path d="M34.2841 72.3215L32.2119 75.7349C32.0373 76.0225 32.0228 76.4917 32.179 76.783C32.3353 77.075 32.6033 77.078 32.7779 76.7904L34.8501 73.377C35.0244 73.0898 35.0395 72.6204 34.883 72.3288C34.7266 72.0379 34.4584 72.0342 34.2841 72.3215Z" fill="#916E4C"/>
<path d="M6.94231 40.0386L16.1227 57.1666L27.6902 38.1119L18.5098 20.9839L6.94231 40.0386Z" fill="#7DC8F0"/>
<path d="M11.075 47.3259L12.2438 49.4603L23.5571 30.8244L22.3883 28.6899L11.075 47.3259Z" fill="white"/>
<path d="M12.6429 28.9771L22.775 47.8797L24.3869 45.2244L14.2545 26.3223L12.6429 28.9771Z" fill="white"/>
<path d="M5.78006 40.0246L16.0593 59.2005L28.8526 38.1266L18.5736 18.9503L5.78006 40.0246ZM18.4454 23.0176L26.5285 38.097L16.1865 55.133L8.10339 40.0536L18.4454 23.0176Z" fill="white"/>
</svg>
