<svg width="187" height="138" viewBox="0 0 187 138" fill="none" xmlns="http://www.w3.org/2000/svg">
<g id="Vector">
<path d="M29.437 4.78374L0.853107 17.1705L7.66366 27.446L44.0963 98.4265C44.2135 98.6834 52.4775 104.537 52.4775 104.537L99.7285 67.0335L110.112 7.2212L29.437 4.78374Z" fill="black"/>
<path d="M52.4775 104.537L155.405 105.818L178.529 67.7268L75.6012 66.4449L52.4775 104.537Z" fill="#C1CCB1"/>
<path d="M16.6104 38.3655L52.4775 104.537L75.6012 66.4449L38.5169 2.27976L16.6104 38.3655Z" fill="#A3B092"/>
<path d="M139.524 2.16192L29.081 0.786579L69.4942 70.0848L186.157 71.5379L163.647 11.7557L139.524 2.16192Z" fill="#B7C0C7"/>
<path d="M86.4651 10.7951L69.4942 70.0848L186.157 71.5379L163.647 11.7557L86.4651 10.7951Z" fill="#976739"/>
<path d="M29.081 0.786579L86.4651 10.7951L163.647 11.7557L139.524 2.16192L29.081 0.786579Z" fill="#6E4E2F"/>
<path d="M29.081 0.786579L69.4942 70.0848L86.4651 10.7951L29.081 0.786579Z" fill="#825C38"/>
<path d="M119.554 71.224L98.9645 105.141L111.227 128.017L125.114 137.286L148.94 137.66L167.756 106.664L123.795 79.7215L119.554 71.224Z" fill="#ADBA9B"/>
<path d="M98.9801 105.115L111.227 128.017L131.83 94.0787L119.255 71.7173L98.9801 105.115Z" fill="#A3B092"/>
<path d="M125.504 137.523L148.94 137.66L169.214 104.262L146.107 103.585L125.504 137.523Z" fill="#B7C5A4"/>
<path d="M143.668 45.2113L117.935 70.6879L131.545 96.0778L146.958 106.366L161.576 78.1043L143.668 45.2113Z" fill="#825C38"/>
<path d="M146.958 106.366L173.403 106.781L161.576 78.1043L146.958 106.366Z" fill="#AB7541"/>
<path d="M162.998 71.2493L143.746 45.3551L161.654 78.2482L173.403 106.781L174.533 92.7688L162.998 71.2493Z" fill="#9E6C3C"/>
<path d="M69.387 96.9388L88.8191 97.1805L100.387 78.1258L80.9546 77.8841L69.387 96.9388Z" fill="#7DC8F0"/>
<path d="M78.014 96.8239L80.4467 96.8763L91.76 78.2404L89.327 78.1884L78.014 96.8239Z" fill="white"/>
<path d="M74.5567 86.7518L96.0023 87.0191L97.6142 84.3639L76.1686 84.0966L74.5567 86.7518Z" fill="white"/>
<path d="M67.6123 97.9338L89.3679 98.2052L102.162 77.1305L80.4058 76.8595L67.6123 97.9338ZM81.5038 78.9079L98.6116 79.1211L88.2699 96.1567L71.162 95.9435L81.5038 78.9079Z" fill="white"/>
<path d="M133.967 128.383L153.313 128.623L164.829 109.653L145.483 109.412L133.967 128.383Z" fill="#7DC8F0"/>
<path d="M143.241 127.813L145.545 127.862L156.259 110.212L153.955 110.163L143.241 127.813Z" fill="white"/>
<path d="M136.025 123.362L155.633 123.607L156.394 122.353L136.787 122.108L136.025 123.362Z" fill="white"/>
<path d="M139.971 116.863L159.578 117.107L160.34 115.853L140.733 115.608L139.971 116.863Z" fill="white"/>
<path d="M132.816 128.414L153.773 128.924L165.47 109.656L144.512 109.147L132.816 128.414ZM145.27 110.39L163.526 110.604L153.316 127.422L135.061 127.208L145.27 110.39Z" fill="white"/>
<path d="M107.61 101.11L116.004 116.77L126.58 99.3487L118.186 83.6888L107.61 101.11Z" fill="#7DC8F0"/>
<path d="M111.389 107.772L112.458 109.724L122.801 92.6863L121.732 90.7344L111.389 107.772Z" fill="white"/>
<path d="M109.683 96.1689L118.946 113.451L119.708 112.197L110.444 94.9145L109.683 96.1689Z" fill="white"/>
<path d="M113.629 89.6686L122.892 106.951L123.654 105.696L114.39 88.4142L113.629 89.6686Z" fill="white"/>
<path d="M106.547 101.097L115.946 118.629L127.642 99.3617L118.244 81.8292L106.547 101.097ZM118.209 84.3771L126.19 99.2638L115.98 116.082L108 101.195L118.209 84.3771Z" fill="white"/>
<path d="M118.054 118.761L130.523 126.365L141.078 108.979L128.608 101.376L118.054 118.761Z" fill="#7DC8F0"/>
<path d="M123.626 121.883L125.184 122.86L135.506 105.857L133.948 104.88L123.626 121.883Z" fill="white"/>
<path d="M119.91 114.245L133.672 122.637L134.432 121.385L120.67 112.993L119.91 114.245Z" fill="white"/>
<path d="M123.848 107.758L137.609 116.15L138.369 114.899L124.608 106.507L123.848 107.758Z" fill="white"/>
<path d="M116.749 119.227L130.71 127.741L142.383 108.513L128.422 99.9991L116.749 119.227ZM128.733 101.864L140.588 109.093L130.399 125.876L118.545 118.647L128.733 101.864Z" fill="white"/>
<path d="M36.492 74.8871L44.0881 89.0592L58.4237 65.4447L50.8276 51.2726L36.492 74.8871Z" fill="#75491F"/>
<path d="M50.2841 72.3215L48.2119 75.7349C48.0373 76.0225 48.0228 76.4917 48.179 76.783C48.3353 77.075 48.6033 77.078 48.7779 76.7904L50.8501 73.377C51.0244 73.0898 51.0395 72.6204 50.883 72.3288C50.7266 72.0379 50.4584 72.0343 50.2841 72.3215Z" fill="#916E4C"/>
<path d="M22.9423 40.0386L32.1227 57.1666L43.6902 38.1119L34.5098 20.9839L22.9423 40.0386Z" fill="#7DC8F0"/>
<path d="M27.075 47.3259L28.2438 49.4603L39.5571 30.8244L38.3883 28.6899L27.075 47.3259Z" fill="white"/>
<path d="M28.6429 28.9771L38.775 47.8797L40.3869 45.2244L30.2545 26.3223L28.6429 28.9771Z" fill="white"/>
<path d="M21.7801 40.0246L32.0593 59.2005L44.8526 38.1266L34.5736 18.9503L21.7801 40.0246ZM34.4454 23.0176L42.5285 38.097L32.1865 55.133L24.1034 40.0536L34.4454 23.0176Z" fill="white"/>
</g>
</svg>
