<svg width="89" height="93" viewBox="0 0 89 93" fill="none" xmlns="http://www.w3.org/2000/svg">
<g id="Vector">
<path d="M0.700749 73.9607L5.16902 92.2033L7.73838 89.3106L50.3915 85.096C50.5429 85.0879 55.0964 82.1119 55.0964 82.1119L45.6601 51.1026L13.1444 44.4286L0.700749 73.9607Z" fill="black"/>
<path d="M55.0964 82.1119L75.5113 32.1493L56.8977 7.6444L36.4825 57.6071L55.0964 82.1119Z" fill="#EF8458"/>
<path d="M3.76058 64.2268L20.4236 86.1637L55.0964 82.1119L36.4825 57.6071L11.8664 56.1639L3.76058 64.2268Z" fill="#EB642D"/>
<path d="M12.3044 56.3236L39.5656 62.7143L62.3192 7.0291L35.0577 0.638297L12.3044 56.3236Z" fill="#5F7371"/>
<path d="M2.21555 67.1121L12.3044 56.3236L35.0577 0.638297L24.9692 11.4269L2.21555 67.1121Z" fill="#566966"/>
<path d="M59.9494 43.8407L74.8651 63.4772L88.1841 30.6702L72.2986 9.75686L62.1691 14.7166L59.9494 43.8407Z" fill="#EF8458"/>
<path d="M62.101 64.9689L74.8651 63.4772L59.9494 43.8407L47.1851 45.3321L62.101 64.9689Z" fill="#EB642D"/>
<path d="M45.2907 50.0648L63.7141 47.4782L65.1741 14.4171L35.8816 17.3362L45.2907 50.0648Z" fill="#2F3938"/>
<path d="M35.8816 17.3362L65.1741 14.4171L78.4383 6.80689L61.4322 9.20005L35.8816 17.3362Z" fill="#3F4847"/>
<path d="M26.9742 79.5022L37.4563 78.2775L30.1325 68.6357L19.6506 69.8607L26.9742 79.5022Z" fill="#7DC8F0"/>
<path d="M31.479 78.8663L32.7902 78.7011L25.6278 69.2718L24.3165 69.4368L31.479 78.8663Z" fill="white"/>
<path d="M22.5211 74.4175L34.0887 73.0658L33.0682 71.7223L21.5006 73.074L22.5211 74.4175Z" fill="white"/>
<path d="M26.7358 80.0865L38.4711 78.7149L30.3713 68.0515L18.6358 69.4229L26.7358 80.0865ZM20.6652 70.2982L29.8935 69.2196L36.4411 77.8396L27.2129 78.9182L20.6652 70.2982Z" fill="white"/>
<path d="M53.5811 74.8039L57.573 65.0348L50.2493 55.3932L46.2575 65.1623L53.5811 74.8039Z" fill="#7DC8F0"/>
<path d="M55.2413 70.4226L55.752 69.204L48.5893 59.7743L48.0788 60.9931L55.2413 70.4226Z" fill="white"/>
<path d="M49.4639 70.1619L53.8694 59.3807L52.8489 58.0373L48.4434 68.8185L49.4639 70.1619Z" fill="white"/>
<path d="M53.7306 75.8989L58.2 64.9616L50.1 54.298L45.6308 65.2355L53.7306 75.8989ZM46.8841 65.0887L50.3987 56.488L56.9465 65.1082L53.4319 73.7089L46.8841 65.0887Z" fill="white"/>
<path d="M80.3859 49.8142L84.8854 38.802L73.6862 24.0583L69.1866 35.0703L80.3859 49.8142Z" fill="white"/>
<path d="M80.72 48.9967L84.4697 39.8199L74.1655 26.2543L70.4158 35.4312L80.72 48.9967Z" fill="#DBDBDB"/>
<path d="M77.7825 33.1473C77.6897 33.3736 77.7371 33.718 77.8875 33.9159L79.6748 36.2689C79.8253 36.467 80.0222 36.4443 80.1147 36.2175C80.2073 35.9913 80.1602 35.6471 80.0098 35.449L78.2226 33.0961C78.0721 32.8976 77.8752 32.9207 77.7825 33.1473Z" fill="#999999"/>
</g>
</svg>
