<svg width="87" height="87" viewBox="0 0 87 87" fill="none" xmlns="http://www.w3.org/2000/svg">
<path d="M53.0964 82.1119L73.5113 32.1493L54.8977 7.6444L34.4825 57.6071L53.0964 82.1119Z" fill="#EF8458"/>
<path d="M1.76058 64.2268L18.4236 86.1637L53.0964 82.1119L34.4825 57.6071L9.86642 56.1639L1.76058 64.2268Z" fill="#EB642D"/>
<path d="M10.3044 56.3236L37.5656 62.7143L60.3192 7.0291L33.0577 0.638297L10.3044 56.3236Z" fill="#5F7371"/>
<path d="M0.215552 67.1121L10.3044 56.3236L33.0577 0.638297L22.9692 11.4269L0.215552 67.1121Z" fill="#566966"/>
<path d="M57.9494 43.8407L72.8651 63.4772L86.1841 30.6702L70.2986 9.75686L60.1691 14.7166L57.9494 43.8407Z" fill="#EF8458"/>
<path d="M60.101 64.9689L72.8651 63.4772L57.9494 43.8407L45.1851 45.3321L60.101 64.9689Z" fill="#EB642D"/>
<path d="M43.2907 50.0648L61.7141 47.4782L63.1741 14.4171L33.8816 17.3362L43.2907 50.0648Z" fill="#2F3938"/>
<path d="M33.8816 17.3362L63.1741 14.4171L76.4383 6.80689L59.4322 9.20005L33.8816 17.3362Z" fill="#3F4847"/>
<path d="M24.9742 79.5022L35.4563 78.2775L28.1325 68.6357L17.6506 69.8607L24.9742 79.5022Z" fill="#7DC8F0"/>
<path d="M29.479 78.8663L30.7902 78.7011L23.6278 69.2718L22.3165 69.4368L29.479 78.8663Z" fill="white"/>
<path d="M20.5211 74.4175L32.0887 73.0658L31.0682 71.7223L19.5006 73.074L20.5211 74.4175Z" fill="white"/>
<path d="M24.7358 80.0865L36.4711 78.7149L28.3713 68.0515L16.6358 69.4229L24.7358 80.0865ZM18.6652 70.2982L27.8935 69.2196L34.4411 77.8396L25.2129 78.9182L18.6652 70.2982Z" fill="white"/>
<path d="M51.5811 74.8039L55.573 65.0348L48.2493 55.3932L44.2575 65.1623L51.5811 74.8039Z" fill="#7DC8F0"/>
<path d="M53.2413 70.4226L53.752 69.204L46.5893 59.7743L46.0788 60.9931L53.2413 70.4226Z" fill="white"/>
<path d="M47.4639 70.1619L51.8694 59.3807L50.8489 58.0373L46.4434 68.8185L47.4639 70.1619Z" fill="white"/>
<path d="M51.7306 75.8989L56.2 64.9616L48.1 54.298L43.6308 65.2355L51.7306 75.8989ZM44.8841 65.0887L48.3987 56.488L54.9465 65.1082L51.4319 73.7089L44.8841 65.0887Z" fill="white"/>
<path d="M78.3859 49.8142L82.8854 38.802L71.6862 24.0583L67.1866 35.0703L78.3859 49.8142Z" fill="white"/>
<path d="M78.72 48.9967L82.4697 39.8199L72.1655 26.2543L68.4158 35.4312L78.72 48.9967Z" fill="#DBDBDB"/>
<path d="M75.7825 33.1473C75.6897 33.3736 75.7371 33.718 75.8875 33.9159L77.6748 36.2689C77.8253 36.467 78.0222 36.4443 78.1147 36.2175C78.2073 35.9913 78.1602 35.6471 78.0098 35.449L76.2226 33.0961C76.0721 32.8976 75.8752 32.9207 75.7825 33.1473Z" fill="#999999"/>
</svg>
