<svg width="77" height="93" viewBox="0 0 77 93" fill="none" xmlns="http://www.w3.org/2000/svg">
<path d="M14.0644 39.3236L21.9677 64.0411L38.9987 48.9508L31.0521 20.498L14.0644 39.3236Z" fill="#FFC995"/>
<path d="M5.91199 37.5942L14.0644 39.3236L31.0521 20.498L22.8997 18.7686L5.91199 37.5942Z" fill="#FFDFC1"/>
<path d="M22.8733 51.836L25.1547 58.9196L30.7954 52.6687L28.5141 45.5849L22.8733 51.836Z" fill="#7DC8F0"/>
<path d="M23.9295 54.8667L24.2227 55.7513L29.7393 49.6378L29.4461 48.7533L23.9295 54.8667Z" fill="white"/>
<path d="M25.7668 48.1315L28.2848 55.9491L29.0708 55.0781L26.553 47.2603L25.7668 48.1315Z" fill="white"/>
<path d="M22.4379 51.7437L24.9923 59.6745L31.2307 52.7611L28.6764 44.8301L22.4379 51.7437ZM28.3515 46.34L30.3601 52.5765L25.3172 58.165L23.3086 51.9285L28.3515 46.34Z" fill="white"/>
<path d="M0.495469 20.7757L5.91199 37.5942L22.8997 18.7686L17.4832 1.95015L0.495469 20.7757Z" fill="#B5B5B5"/>
<path d="M17.4832 1.95015L0.495469 20.7757L5.91199 37.5942L22.8997 18.7686L22.3999 6.84358L17.4832 1.95015Z" fill="#F5B174"/>
<path d="M32.5484 48.7267L15.5608 67.5523L20.9773 84.3707L37.9649 65.5451L38.1761 55.0688L32.5484 48.7267Z" fill="#F5B174"/>
<path d="M20.9773 84.3707L59.1061 92.3633L74.9794 74.7726L38.0164 65.4881L20.9773 84.3707Z" fill="#FFDFC1"/>
<path d="M14.228 0.0931408L21.8833 7.41299L60.8962 15.9626L53.9035 8.91532L14.228 0.0931408Z" fill="#3D4645"/>
<path d="M21.8833 7.41299L20.9452 20.9346L60.597 29.2863L60.8962 15.9626L21.8833 7.41299Z" fill="#6F7675"/>
<path d="M30.0769 22.8732L40.3438 54.7509L59.6794 44.0761L52.6881 22.3688L30.0769 22.8732Z" fill="#2F3938"/>
<path d="M52.6881 22.3688L59.6794 44.0761L70.9332 61.1811L60.597 29.2863L52.6881 22.3688Z" fill="#555D5C"/>
<path d="M40.729 54.3239L70.9332 61.1811L59.6794 44.0761L40.729 54.3239Z" fill="#6F7675"/>
<path d="M29.2277 46.7826L36.2171 54.8409L76.1357 63.2802L68.9034 55.605L29.2277 46.7826Z" fill="#3D4645"/>
<path d="M36.2171 54.8409L35.9451 67.6242L75.5969 75.9759L76.1357 63.2802L36.2171 54.8409Z" fill="#6F7675"/>
<path d="M16.9212 48.3048L18.9737 54.6775L26.574 46.2549L24.5215 39.8822L16.9212 48.3048Z" fill="#704317"/>
<path d="M22.7297 48.5235L21.6312 49.7409C21.5387 49.8434 21.498 50.0329 21.5401 50.1637C21.5823 50.2949 21.6915 50.3179 21.7839 50.2154L22.8825 48.998C22.975 48.8955 23.0157 48.7064 22.9736 48.5752C22.9314 48.4444 22.8222 48.421 22.7297 48.5235Z" fill="#481100"/>
<path d="M35.2785 82.8796L43.9074 84.7099L50.5931 77.3009L41.9643 75.4704L35.2785 82.8796Z" fill="#7DC8F0"/>
<path d="M39.1273 83.5938L40.2058 83.8326L46.7446 76.5863L45.666 76.3478L39.1273 83.5938Z" fill="white"/>
<path d="M38.4012 78.8285L47.9243 80.8485L48.8559 79.8161L39.3328 77.7961L38.4012 78.8285Z" fill="white"/>
<path d="M34.4081 83.1626L44.069 85.212L51.4634 77.0176L41.8024 74.9683L34.4081 83.1626ZM42.126 75.9724L49.7229 77.584L43.7457 84.208L36.1488 82.5963L42.126 75.9724Z" fill="white"/>
<path d="M50.955 86.2054L59.5841 88.0358L66.2698 80.6268L57.6406 78.7964L50.955 86.2054Z" fill="#7DC8F0"/>
<path d="M54.8038 86.9199L55.8823 87.1587L62.4211 79.9125L61.3426 79.6737L54.8038 86.9199Z" fill="white"/>
<path d="M54.0777 82.1547L63.6008 84.1747L64.5324 83.1422L55.0095 81.1221L54.0777 82.1547Z" fill="white"/>
<path d="M50.0848 86.4885L59.7456 88.538L67.1401 80.3435L57.4791 78.2943L50.0848 86.4885ZM57.8027 79.2983L65.3996 80.91L59.4224 87.5339L51.8255 85.9223L57.8027 79.2983Z" fill="white"/>
<path d="M19.2993 71.4824L20.9614 76.6428L28.467 68.3251L26.8051 63.1645L19.2993 71.4824Z" fill="#7DC8F0"/>
<path d="M20.7044 75.515L21.0472 76.5477L28.3876 68.4132L28.0449 67.3803L20.7044 75.515Z" fill="white"/>
<path d="M23.1496 66.5527L24.9691 72.2015L26.0149 71.0425L24.1954 65.3937L23.1496 66.5527Z" fill="white"/>
<path d="M18.7201 71.3594L20.5638 77.0835L21.359 76.2022L19.8783 71.6053L26.5887 64.1689L28.0694 68.7658L28.8648 67.8844L27.0212 62.1601L18.7201 71.3594Z" fill="white"/>
<path d="M29.7598 60.2308L31.2401 64.8277L34.1264 61.6291L32.6459 57.0324L29.7598 60.2308Z" fill="#7DC8F0"/>
<path d="M31.0112 63.823L31.3166 64.7429L34.0557 61.7074L33.7503 60.7875L31.0112 63.823Z" fill="white"/>
<path d="M29.2436 60.1213L30.886 65.2201L31.5944 64.435L30.2755 60.3404L32.4532 57.9271L33.7721 62.0217L34.4807 61.2365L32.8385 56.1375L29.2436 60.1213Z" fill="white"/>
<path d="M17.901 36.3977L20.1824 43.4816L25.8231 37.2307L23.5416 30.1468L17.901 36.3977Z" fill="#7DC8F0"/>
<path d="M18.9568 39.4288L19.2504 40.3133L24.7671 34.1998L24.4736 33.3151L18.9568 39.4288Z" fill="white"/>
<path d="M20.7945 32.6932L23.3123 40.511L24.0983 39.64L21.5805 31.8222L20.7945 32.6932Z" fill="white"/>
<path d="M17.4654 36.3055L20.0198 44.2363L26.2582 37.323L23.704 29.392L17.4654 36.3055ZM23.3792 30.9016L25.3878 37.1382L20.3449 42.7267L18.3363 36.4901L23.3792 30.9016Z" fill="white"/>
<path d="M4.78838 23.1605L6.45045 28.3209L13.9561 20.0033L12.2942 14.8427L4.78838 23.1605Z" fill="#7DC8F0"/>
<path d="M6.19342 27.1931L6.53623 28.2258L13.8768 20.0911L13.534 19.0584L6.19342 27.1931Z" fill="white"/>
<path d="M8.63861 18.2308L10.4581 23.8796L11.504 22.7206L9.68449 17.0718L8.63861 18.2308Z" fill="white"/>
<path d="M4.20911 23.0375L6.05281 28.7616L6.84819 27.8801L5.36755 23.2832L12.0779 15.8468L13.5584 20.4439L14.354 19.5623L12.5103 13.8382L4.20911 23.0375Z" fill="white"/>
<path d="M16.0558 10.7323L17.5363 15.3294L20.4224 12.131L18.942 7.53391L16.0558 10.7323Z" fill="#7DC8F0"/>
<path d="M17.3075 14.3246L17.6129 15.2445L20.352 12.2091L20.0466 11.2892L17.3075 14.3246Z" fill="white"/>
<path d="M15.5398 10.623L17.182 15.722L17.8906 14.9368L16.5717 10.8421L18.7494 8.42881L20.0683 12.5234L20.7769 11.7382L19.1345 6.63937L15.5398 10.623Z" fill="white"/>
</svg>
