<svg width="58" height="34" viewBox="0 0 58 34" fill="none" xmlns="http://www.w3.org/2000/svg">
<g id="Vector">
<path d="M56.8327 29.0892L51.3113 33.4447C50.7023 33.9252 49.7777 34.0062 48.6801 33.5736L54.2015 29.2181C55.2991 29.6506 56.2237 29.5695 56.8327 29.0892Z" fill="#2C353B"/>
<path d="M19.2571 5.32999L24.7784 0.974557C24.1615 1.46118 23.8683 2.3577 24.0466 3.5453L18.5254 7.90083C18.3471 6.71323 18.6402 5.81661 19.2571 5.32999Z" fill="#3B4951"/>
<path d="M54.2015 29.2181L48.6801 33.5736L24.7307 24.1323L30.252 19.7767L54.2015 29.2181Z" fill="#2C353B"/>
<path d="M25.6046 13.9198L20.0832 18.2753L18.5254 7.90083L24.0466 3.5453L25.6046 13.9198Z" fill="#3B4951"/>
<path d="M57.5644 26.5188C57.9188 28.8787 56.4107 30.089 54.2015 29.2181L30.252 19.7767C28.0428 18.9058 25.9589 16.2797 25.6046 13.9198L24.0466 3.5453C23.6923 1.18537 25.1999 -0.0251789 27.4092 0.845675L51.3587 10.2867C53.5679 11.1576 55.6522 13.7844 56.0065 16.1441L57.5644 26.5188Z" fill="#5D7280"/>
<path d="M30.252 19.7767L24.7307 24.1323C22.5214 23.2615 20.4376 20.6352 20.0832 18.2753L25.6046 13.9198C25.9589 16.2797 28.0428 18.9058 30.252 19.7767Z" fill="#3B4951"/>
<path d="M29.6182 14.222L28.4565 6.48645C28.2076 4.82993 29.4633 4.06633 31.2605 4.78073L48.2878 11.5488C50.0853 12.2632 51.7441 14.1854 51.9928 15.8418L53.1545 23.5774C53.4032 25.234 52.1476 25.9976 50.3503 25.2831L33.3231 18.5151C31.5256 17.8007 29.8669 15.8786 29.6182 14.222Z" fill="#3B4951"/>
<path d="M31.2274 13.8939L30.3749 8.21674C30.126 6.56021 31.3816 5.79661 33.1789 6.51101L46.6785 11.877C48.4759 12.5913 50.1347 14.5134 50.3835 16.1699L51.236 21.847C51.4848 23.5036 50.2293 24.2671 48.4319 23.5526L34.9324 18.1868C33.1349 17.4724 31.4762 15.5505 31.2274 13.8939Z" fill="#D7DAFF"/>
<path d="M44.8054 22.1113L43.052 10.4354L43.783 10.7259L45.5363 22.4018L44.8054 22.1113Z" fill="#AEB2F4"/>
<path d="M44.0571 19.604L43.0096 12.6285L44.5311 13.2333L45.5786 20.2088L44.0571 19.604Z" fill="#3B4951"/>
<path d="M37.5843 19.2411L35.831 7.56521L36.5618 7.85567L38.3152 19.5315L37.5843 19.2411Z" fill="#AEB2F4"/>
<path d="M36.8361 16.7338L35.7886 9.75826L37.3101 10.363L38.3575 17.3385L36.8361 16.7338Z" fill="#3B4951"/>
<path d="M46.6195 18.7681L46.1642 15.7367C46.0734 15.1318 46.5319 14.853 47.1882 15.114C47.8445 15.3748 48.4502 16.0767 48.5411 16.6816L48.9962 19.713C49.0871 20.3178 48.6286 20.5967 47.9723 20.3358C47.316 20.0748 46.7103 19.373 46.6195 18.7681Z" fill="#AEB2F4"/>
<path d="M39.8447 16.0751L39.3894 13.0438C39.2986 12.4389 39.7571 12.16 40.4133 12.4209C41.0696 12.682 41.6754 13.3836 41.7662 13.9885L42.2213 17.0199C42.3122 17.6248 41.8538 17.9037 41.1974 17.6428C40.5412 17.3819 39.9355 16.6801 39.8447 16.0751Z" fill="#AEB2F4"/>
<path d="M33.0699 13.3824L32.6147 10.3511C32.5239 9.74621 32.9823 9.46725 33.6387 9.72819C34.2949 9.98912 34.9007 10.6909 34.9914 11.2959L35.4467 14.3273C35.5376 14.9321 35.0792 15.211 34.4228 14.9501C33.7664 14.6891 33.1606 13.9873 33.0699 13.3824Z" fill="#AEB2F4"/>
<path d="M30.5705 16.4088L29.4612 17.289L29.4558 17.2822C29.2339 17.4582 28.8891 17.4933 28.4783 17.3315C27.6566 17.0078 26.883 16.0329 26.749 15.1521C26.6856 14.7176 26.7978 14.3923 27.0209 14.2136L27.0192 14.2114L28.1285 13.3312L30.5705 16.4088Z" fill="#AEB2F4"/>
<path d="M29.5859 16.452C28.7634 16.1251 27.99 15.1504 27.8586 14.2752C27.7271 13.3998 28.2873 12.9553 29.1099 13.2821C29.9324 13.609 30.7058 14.5836 30.8372 15.4591C30.9686 16.3344 30.4084 16.7789 29.5859 16.452Z" fill="#D7DAFF"/>
<path d="M18.3357 6.85237L17.1673 7.77407L16.9829 6.54573L18.1512 5.624L18.3357 6.85237Z" fill="#AEB2F4"/>
<path d="M23.3589 13.28L22.1904 14.2017L17.8772 12.5013L19.0455 11.5796L23.3589 13.28Z" fill="#888ABF"/>
<path d="M19.0455 11.5796L17.8772 12.5013L17.6908 11.2596L18.859 10.3379L19.0455 11.5796Z" fill="#AEB2F4"/>
<path d="M23.3644 13.2821L19.0521 11.5777L18.8549 10.3303L2.57347 3.93808L2.37544 2.69046L2.22339 1.61744L2.04271 0.449814L18.3356 6.85629L18.1497 5.62311L22.4619 7.32745L22.8454 9.80844L22.9979 10.8813L23.3644 13.2821Z" fill="#D7DAFF"/>
<path d="M18.859 10.3379L17.6908 11.2596L1.40379 4.85179L2.57216 3.92998L18.859 10.3379Z" fill="#888ABF"/>
<path d="M2.57216 3.92998L1.40379 4.85179L0.880396 1.36617L2.04874 0.444549L2.57216 3.92998Z" fill="#AEB2F4"/>
<path d="M22.9979 10.8813L2.37544 2.69046L2.22339 1.61744L22.8454 9.80844L22.9979 10.8813Z" fill="#AEB2F4"/>
</g>
</svg>
