<svg width="98" height="118" viewBox="0 0 98 118" fill="none" xmlns="http://www.w3.org/2000/svg">
<g id="Vector">
<path d="M80.659 39.9606C74.937 35.6077 70.962 27.0387 71.7809 20.8203C72.1446 18.0582 73.3944 16.2279 75.1722 15.4253L75.171 15.4244C75.171 15.4244 80.6473 13.0478 80.9153 12.9588L80.9557 12.9412L80.9572 12.9444C83.1237 12.2402 85.9509 12.9254 88.8908 15.1619C94.6122 19.5143 98.5873 28.0833 97.7683 34.3018C97.4148 36.9901 96.2209 38.7955 94.5188 39.6295L94.5202 39.6316L94.4767 39.6508C94.3627 39.705 89.2417 41.921 89.2417 41.921L89.2396 41.9174C87.007 43.0071 83.9014 42.4272 80.659 39.9606Z" fill="#2E373D"/>
<path d="M19.505 62.6849L35.6627 55.7818C41.6028 53.2438 48.4125 54.0729 53.5158 57.955L59.556 62.55L60.7108 53.5563L56.7545 55.2674L52.3813 51.9405L51.2221 52.4316C49.2215 53.4301 46.7991 53.2481 44.9787 51.8632C43.1974 50.5082 42.2819 48.2969 42.576 46.0626L45.8924 20.8734C46.2273 18.33 47.2235 15.9132 48.7809 13.866C50.5987 11.4763 53.0435 9.76295 55.7465 8.8398L66.007 4.48929C68.9028 3.02436 72.2411 2.53829 75.4921 3.19965L80.1763 1.17374C82.4018 0.229584 84.9484 0.543271 86.8584 1.99632L93.8023 7.27869C95.8639 8.84702 96.9246 11.4073 96.5835 13.9943L93.2235 39.5147L90.5462 40.6728L88.9603 63.6304C89.123 70.6892 84.9484 77.1662 78.4461 79.944L56.0028 89.5339L56.0015 89.5329C51.1611 91.5991 45.3229 91.2685 40.5708 87.6534L18.4449 70.8216C15.5656 68.6312 16.154 64.1166 19.505 62.6849Z" fill="#63DBFF"/>
<path d="M52.3813 51.9405L56.4171 50.2296C58.0119 50.1656 59.6202 50.6381 60.9551 51.6536L60.7108 53.5563L56.7545 55.2674L52.3813 51.9405Z" fill="#2EB3BD"/>
<path d="M69.3516 115.207C63.6296 110.854 59.6545 102.285 60.473 96.0669C60.837 93.3031 62.0878 91.4715 63.8668 90.6688L68.8296 88.5387C69.0818 88.4025 69.3455 88.2891 69.6207 88.1985L69.6476 88.1867L69.649 88.1888C71.8163 87.4862 74.6428 88.1709 77.5828 90.4074C83.3048 94.7603 87.2798 103.329 86.4609 109.548C86.1068 112.236 84.9141 114.042 83.2128 114.878C83.0642 114.95 82.9117 115.018 82.7561 115.076L77.9343 117.167C75.7005 118.256 72.594 117.673 69.3516 115.207Z" fill="#23292E"/>
<path d="M74.6181 112.925C80.3401 117.278 85.6424 115.766 86.4609 109.548C87.2798 103.329 83.3048 94.7603 77.5828 90.4074C71.8608 86.0545 66.5589 87.5663 65.7399 93.7847C64.9215 100.003 68.8961 108.572 74.6181 112.925Z" fill="#2E373D"/>
<path d="M75.3716 107.201C78.1853 109.342 80.7923 108.598 81.1941 105.541C81.5971 102.484 79.6427 98.2704 76.8297 96.1305C74.016 93.99 71.4096 94.7339 71.0067 97.7913C70.6043 100.848 72.5586 105.061 75.3716 107.201Z" fill="#CECECE"/>
<path d="M75.7056 104.668C77.2312 105.829 78.6452 105.426 78.8635 103.768C79.0818 102.109 78.0219 99.8245 76.4963 98.664C74.9702 97.503 73.5562 97.9059 73.3379 99.5647C73.1195 101.222 74.1795 103.507 75.7056 104.668Z" fill="#2E373D"/>
<path d="M74.6181 112.925C80.3401 117.278 85.6424 115.766 86.4609 109.548C87.2798 103.329 83.3048 94.7603 77.5828 90.4074C71.8608 86.0545 66.5589 87.5663 65.7399 93.7847C64.9215 100.003 68.8961 108.572 74.6181 112.925Z" fill="#2E373D"/>
<path d="M75.3716 107.201C78.1853 109.342 80.7923 108.598 81.1941 105.541C81.5971 102.484 79.6427 98.2704 76.8297 96.1305C74.016 93.99 71.4096 94.7339 71.0067 97.7913C70.6043 100.848 72.5586 105.061 75.3716 107.201Z" fill="#CECECE"/>
<path d="M75.7056 104.668C77.2312 105.829 78.6452 105.426 78.8635 103.768C79.0818 102.109 78.0219 99.8245 76.4963 98.664C74.9702 97.503 73.5562 97.9059 73.3379 99.5647C73.1195 101.222 74.1795 103.507 75.7056 104.668Z" fill="#2E373D"/>
<path d="M65.5281 57.834C65.5477 56.1479 64.7739 54.5587 63.4404 53.5442L60.9551 51.6536C59.6177 50.6362 58.0064 50.1755 56.4085 50.2422L56.4069 50.2339L62.5955 47.6102C63.2426 47.3938 63.8615 47.0664 64.4215 46.6238C66.9693 44.6073 70.538 44.5602 73.1003 46.5094L75.8357 48.5903C76.9615 49.4467 77.4375 50.915 77.0333 52.2824L70.0225 70.5122L65.7913 67.2934L65.5281 57.834Z" fill="#23868E"/>
<path d="M77.0333 52.2824C77.4375 50.915 76.9615 49.4467 75.8357 48.5903L73.1003 46.5094C70.538 44.5602 66.9693 44.6073 64.4215 46.6238C62.2791 48.3196 59.2779 48.3586 57.1235 46.7197C55.3422 45.3646 54.4267 43.1533 54.7208 40.919L58.0378 15.7303C58.3721 13.1864 59.3683 10.7696 60.9257 8.72239C64.3683 4.1969 70.0537 2.0932 75.4921 3.19965L71.792 4.79949C69.567 5.74301 68.0018 7.80046 67.6863 10.1965L67.052 15.0125C66.468 19.4519 67.1763 23.9536 69.0923 27.9737C70.66 31.2619 72.9854 34.1241 75.8793 36.3255L83.3086 41.9772L81.8216 53.1439L74.0961 73.6081L70.0225 70.5122L77.0333 52.2824Z" fill="#2EB3BD"/>
<path d="M36.9467 23.9514L38.5758 11.5772C38.7167 10.5088 39.4142 9.59198 40.4063 9.17104L51.897 4.29891C52.3436 4.11021 52.8064 4.19759 53.1417 4.45266L58.9048 8.83678C59.2401 9.09184 59.4478 9.51459 59.3845 9.99486L57.7554 22.369C57.6145 23.4375 56.9177 24.3548 55.9249 24.7752L44.4342 29.6474C43.9969 29.8331 43.5468 29.7473 43.2131 29.5045L43.2102 29.5084L43.195 29.4968C43.1919 29.4944 43.1887 29.492 43.1849 29.4891L37.4484 25.1252C37.1008 24.8719 36.882 24.4427 36.9467 23.9514Z" fill="#2E373D"/>
<path d="M53.6221 5.61122L51.9936 17.9859C51.8527 19.0543 51.1552 19.9711 50.1632 20.3921L38.6718 25.2637C37.7783 25.6429 36.8198 24.9137 36.9467 23.9514L38.5758 11.5772C38.7167 10.5088 39.4142 9.59198 40.4063 9.17104L51.897 4.29891C52.7907 3.92087 53.7485 4.64955 53.6221 5.61122Z" fill="#627681"/>
<path d="M93.2235 39.5147L84.2635 32.6986C81.3703 30.4977 79.0438 27.6357 77.4766 24.3469C75.5606 20.3267 74.8522 15.825 75.4364 11.3867L76.07 6.57031C76.3861 4.17358 77.9507 2.11677 80.1762 1.17262C82.4018 0.229585 84.9484 0.543271 86.8584 1.99632L93.8023 7.27869C95.8639 8.84702 96.9246 11.4073 96.5835 13.9943L93.2235 39.5147Z" fill="#2EB3BD"/>
<path d="M73.4071 105.289C71.2975 103.684 69.6017 101.597 68.4595 99.2003C67.0619 96.269 66.5451 92.9871 66.9712 89.7511L67.4341 86.2402C67.6641 84.4926 68.8048 82.993 70.4277 82.3051C72.0494 81.6173 73.9065 81.8453 75.2988 82.9045L80.4803 86.8462C81.805 87.854 82.1779 89.6937 81.3538 91.1584L73.4071 105.289Z" fill="#2EB3BD"/>
<path d="M56.0204 104.528C54.6228 101.596 54.106 98.3144 54.5322 95.0785L54.9951 91.5675C55.225 89.8199 56.3662 88.3197 57.9886 87.6324L70.4266 82.3052C68.8043 82.9936 67.6636 84.4932 67.4341 86.2402L66.9712 89.7511C66.5451 92.9871 67.0619 96.269 68.4595 99.2003C69.6017 101.597 71.2975 103.684 73.4071 105.289L60.968 110.617C58.8584 109.012 57.1633 106.925 56.0204 104.528Z" fill="#63DBFF"/>
<path d="M17.1861 69.3798C16.8859 68.8415 16.7025 68.257 16.6315 67.6625C16.5609 67.0673 16.6027 66.4619 16.7524 65.8813C17.0518 64.7211 17.7829 63.6617 18.9091 62.9885C19.0969 62.8767 19.2956 62.7753 19.505 62.6849L35.6627 55.7818C37.8901 54.83 40.2396 54.3517 42.5763 54.3306C46.47 54.2952 50.3264 55.5288 53.5158 57.955L73.8585 73.4303C76.8363 75.6957 80.2399 76.6674 83.5573 76.572C82.091 77.9648 80.3747 79.1202 78.4461 79.944L56.0028 89.5339L56.0015 89.5329C51.161 91.5979 45.3223 91.268 40.5708 87.6534L18.4449 70.8216C17.9045 70.4115 17.4869 69.9187 17.1861 69.3798Z" fill="#2EB3BD"/>
<path d="M38.4856 46.5584C38.5522 46.6071 38.6212 46.6514 38.6917 46.695C38.1091 46.3404 37.6455 45.7824 37.4224 45.0732L33.5224 32.6539C33.0251 31.0708 33.822 29.3589 35.3569 28.7118L48.4674 23.1846C49.2347 22.8614 50.0192 23.0475 50.5583 23.5181L50.5614 23.5114L55.3237 27.1341L55.3199 27.1404C55.8845 27.592 56.2113 28.3378 56.0203 29.1588L52.4227 44.5689C51.8752 46.9134 50.2359 48.86 48.0202 49.7966L46.202 50.5644C45.158 51.0051 44.0276 50.7955 43.2175 50.145L43.212 50.1549L38.4857 46.5595L38.4856 46.5584Z" fill="#2E373D"/>
<path d="M48.4663 23.1848L35.3569 28.7118C33.822 29.3589 33.0251 31.0708 33.5224 32.6539L37.4224 45.0732C37.9413 46.7261 39.7665 47.566 41.3692 46.8889L43.1874 46.1211C45.4037 45.1851 47.0431 43.2384 47.5905 40.8939L51.1875 25.4834C51.5613 23.8835 49.9787 22.5477 48.4663 23.1848Z" fill="#627681"/>
<path d="M31.4718 57.5721C31.2493 59.2628 31.9419 60.9351 33.2887 61.9597L51.2705 75.639C53.4843 77.3231 54.6233 80.0728 54.2577 82.8505L60.5423 87.6314L67.1981 84.75L31.4718 57.5721Z" fill="#23868E"/>
<path d="M46.762 77.5519L28.7808 63.8731C27.4339 62.8485 26.7407 61.1757 26.9639 59.4855L31.4718 57.5721C31.2493 59.2628 31.9419 60.9351 33.2887 61.9597L51.2705 75.639C53.4843 77.3231 54.6233 80.0728 54.2577 82.8505L60.5101 87.6069L56.0332 89.545L49.7486 84.7641C50.1147 81.9857 48.9764 79.2365 46.762 77.5519Z" fill="#63DBFF"/>
<path d="M54.2577 82.8505L49.7486 84.7641L56.0332 89.545L60.5423 87.6314L54.2577 82.8505Z" fill="#EDEDED"/>
<path d="M2.46973 68.2883C1.38746 67.465 0.636944 65.8452 0.791675 64.6695C0.859719 64.1516 1.09809 63.8186 1.4298 63.6643C1.48071 63.6406 1.52943 63.6132 1.58437 63.5987L9.59172 60.1934L12.1801 65.2113L4.20958 68.5892C3.78345 68.8821 3.14157 68.7994 2.46973 68.2883Z" fill="#2E373D"/>
<path d="M10.6461 64.8103C11.7277 65.6331 12.7295 65.3474 12.8843 64.1717C13.0396 62.9965 12.288 61.3769 11.2064 60.5541C10.1247 59.7312 9.12225 60.0164 8.96752 61.1921C8.81279 62.3678 9.56443 63.9874 10.6461 64.8103Z" fill="#2E373D"/>
<path d="M32.7748 60.4928C28.7993 57.4685 23.4965 56.8155 18.8639 58.78L17.3001 59.3931C15.0917 60.3291 13.8968 62.4004 13.8595 64.4989L12.1801 65.2113L12.1792 65.2086C9.99269 66.0203 7.51649 60.6308 9.79531 60.1158L11.1153 59.5547C13.3305 58.6149 14.8903 56.5684 15.2078 54.1829L15.2111 54.1824C15.5779 52.4947 16.6996 50.9574 18.5146 50.1872C24.9609 47.2562 31.4215 50.8845 37.7059 48.1756C39.674 47.2631 42.2468 51.8927 40.4851 53.1001C39.585 53.4813 38.6862 53.8634 37.7861 54.2447C35.6032 55.1709 34.0708 57.1918 33.7682 59.5434L33.4535 61.9895C33.4883 61.4392 33.2736 60.8723 32.7748 60.4928Z" fill="#63DBFF"/>
<path d="M38.7458 52.7996C37.6642 51.9768 36.913 50.3565 37.0678 49.1809C37.1358 48.6629 37.3747 48.3293 37.7059 48.1756L37.707 48.1754C37.7574 48.1524 45.7779 44.743 45.7779 44.743C46.2037 44.4781 46.8277 44.5673 47.4825 45.0654C48.5641 45.8882 49.3157 47.5078 49.161 48.6835C49.0829 49.2723 48.7931 49.6376 48.3868 49.7523L40.4863 53.101C40.0596 53.3934 39.4177 53.3107 38.7458 52.7996Z" fill="#2E373D"/>
<path d="M46.9222 49.3216C48.0038 50.1444 49.0056 49.8587 49.161 48.6835C49.3157 47.5078 48.5641 45.8882 47.4825 45.0654C46.4008 44.2425 45.3984 44.5277 45.2436 45.7034C45.0889 46.8791 45.8405 48.4987 46.9222 49.3216Z" fill="#627681"/>
<path d="M45.5303 55.6196C47.9794 51.4947 35.657 53.7845 34.7116 54.1716C33.9012 54.5032 32.9849 54.3658 33.0665 55.6488C33.1682 57.254 36.1452 56.1056 36.8715 55.9777C38.6963 55.6558 41.9114 54.7186 43.718 55.5162C44.0843 56.1511 45.088 56.201 45.5303 55.6196C45.7447 55.3378 45.4028 55.7873 45.5303 55.6196Z" fill="#2E373D"/>
<path d="M16.3047 64.4335C17.4071 62.9843 15.3255 62.8089 14.5198 63.0294C13.5264 63.3014 12.342 64.2635 11.475 64.8148C9.5554 66.0369 6.72277 67.6888 5.73602 69.8652C5.40127 70.604 4.88838 72.3658 6.32325 72.3521C7.2727 72.3437 7.71586 70.705 8.25738 70.0429C9.21588 68.8707 10.7519 67.9275 11.9967 67.0969C13.2317 66.2729 15.4263 65.5881 16.3047 64.4335Z" fill="#2E373D"/>
<path d="M32.7748 60.4928C33.8463 61.3079 33.6253 62.9888 32.3762 63.5182L18.5929 69.3126C17.7413 69.6734 16.7666 69.5539 16.036 68.9981C12.6339 66.41 13.337 61.0738 17.3001 59.3931L18.8639 58.78C23.4965 56.8155 28.7993 57.4685 32.7748 60.4928Z" fill="#CECECE"/>
<path d="M16.5403 62.3259C15.4704 63.7324 15.4229 66.0918 17.2117 67.4527C17.3948 67.592 17.6416 67.6227 17.8613 67.5291L31.3542 61.857C27.9641 59.4129 23.4891 58.9126 19.5523 60.581C18.4551 61.0105 17.2897 61.3408 16.5403 62.3259Z" fill="#EDEDED"/>
</g>
</svg>
