<svg width="95" height="108" viewBox="0 0 95 108" fill="none" xmlns="http://www.w3.org/2000/svg">
<g id="Vector">
<path d="M50.2009 66.4287L54.0476 72.4662L47.9875 84.252C45.3482 89.418 38.0755 89.7516 34.8788 84.786C34.8092 84.6774 29.1757 75.8853 29.5327 76.4425L28.6695 75.0875C27.7164 73.5917 28.1251 71.6092 29.6035 70.6672L29.6139 70.6606C31.0923 69.7187 33.0585 70.1575 34.0115 71.6534L34.6814 72.7048C34.7507 72.813 40.5998 81.9434 40.2278 81.3628C40.7312 82.1165 41.8719 82.1258 42.3192 81.2648L49.4761 67.3477C49.6655 66.9832 49.9071 66.6768 50.2009 66.4287Z" fill="#804F59"/>
<path d="M45.1552 103.046L47.5242 106.753C47.6966 107.013 48.0344 107.168 48.498 107.155L77.971 106.098L75.6003 102.398L46.129 103.447C45.6607 103.463 45.3229 103.309 45.1552 103.046Z" fill="#804F59"/>
<path d="M75.6003 102.398L77.971 106.098C78.9154 106.068 80.0281 105.353 80.4622 104.511L94.0108 78.1576C94.2248 77.7321 94.2321 77.3575 94.0614 77.0896L91.6877 73.3849C91.8584 73.6528 91.8589 74.0291 91.6371 74.4528L78.0915 100.811C77.6573 101.652 76.5417 102.363 75.6003 102.398Z" fill="#613941"/>
<path d="M43.618 100.633L45.987 104.341C46.1594 104.601 46.4971 104.755 46.9608 104.742L76.4338 103.685L74.0631 99.9855L44.5918 101.035C44.1235 101.051 43.7857 100.896 43.618 100.633Z" fill="#F3B2A1"/>
<path d="M74.0631 99.9855L76.4338 103.685C77.3782 103.655 78.4908 102.94 78.925 102.098L92.4736 75.7449C92.6876 75.3193 92.6949 74.9448 92.5242 74.6769L90.1505 70.9721C90.3212 71.24 90.3217 71.6164 90.0999 72.0401L76.5543 98.3982C76.1201 99.2398 75.0045 99.9506 74.0631 99.9855Z" fill="#E99B8A"/>
<path d="M43.6686 99.5701C43.2366 100.411 43.6508 101.069 44.5906 101.035L74.0626 99.9834C75.0065 99.9497 76.1215 99.2368 76.5535 98.3963L90.0999 72.0401C90.5337 71.1959 90.1222 70.5411 89.1782 70.5748L59.7063 71.6267C58.7665 71.6602 57.6493 72.3695 57.2154 73.2137L43.6686 99.5701Z" fill="#FDC8B8"/>
<path d="M85.7845 73.2058C86.2989 73.186 86.5269 73.5395 86.294 73.9957L74.7772 96.5605C74.5444 97.0168 73.9391 97.4024 73.4248 97.4222L47.9867 98.4028C47.4723 98.4226 47.2443 98.0692 47.4772 97.6129L58.994 75.0481C59.2268 74.5918 59.832 74.2062 60.3464 74.1864L85.7845 73.2058Z" fill="#75EBB9"/>
<path d="M86.2976 73.9975L85.9473 74.6742L74.7794 96.5596C74.5403 97.0143 73.9354 97.3997 73.4224 97.4242L48.7533 98.3717L47.992 98.4032C47.4736 98.4195 47.2389 98.069 47.4779 97.6143L58.9962 75.0521C59.2299 74.5893 59.8348 74.2039 60.3449 74.1928L85.7835 73.2086C86.2966 73.1841 86.5232 73.5398 86.2976 73.9975Z" fill="#E99B8A"/>
<path d="M85.9473 74.6742L74.7794 96.5596C74.5403 97.0143 73.9354 97.3997 73.4224 97.4242L48.7533 98.3717L59.9132 76.4915C60.1522 76.0368 60.7571 75.6514 61.2619 75.6322L85.9473 74.6742Z" fill="#DBE6FA"/>
<path d="M70.1691 81.0111C73.5926 80.8792 75.1163 83.2416 73.5663 86.2785C72.0125 89.3228 67.9716 91.8924 64.5481 92.0243C61.1161 92.1566 59.597 89.8014 61.1508 86.7571C62.7008 83.7202 66.7371 81.1434 70.1691 81.0111Z" fill="#CBDBF4"/>
<path d="M47.1562 45.6006L52.5532 54.0945C52.4356 53.9786 71.2321 83.5294 71.3259 83.6772C71.7089 84.302 71.6991 85.1615 71.1997 86.1504C70.1898 88.1347 67.5762 89.7999 65.3511 89.8767C64.2223 89.9253 63.4256 89.549 63.0319 88.9311C44.9079 60.3609 50.7482 69.5674 49.2829 67.2575L44.2938 59.4026L38.8869 50.8691C39.2736 51.4761 40.0919 51.8388 41.1815 51.7998C43.4037 51.6947 46.0349 50.0334 47.0301 48.0734C47.5296 47.0847 47.5498 46.2183 47.1562 45.6006Z" fill="#804F59"/>
<path d="M42.9211 9.87945L42.725 15.5519L45.6003 14.1312L45.621 14.1638L52.561 25.1037L52.3595 30.8859L55.3021 29.4531L58.6063 34.663L47.8099 55.8213L26.442 22.0706L37.2381 0.912395L42.9211 9.87945Z" fill="#2ADC03"/>
<path d="M26.4415 22.0736L47.8092 55.8193L23.9555 56.7388L2.58778 22.9932L26.4415 22.0736Z" fill="#22B700"/>
<path d="M37.2381 0.912395L26.442 22.0706L2.58557 22.9906L8.52322 11.3439L11.0179 10.0592L10.0027 8.46583L13.3818 1.83244L22.8494 1.4694L22.8599 1.46274L22.8775 1.46675L23.872 3.02765L26.0547 1.34743L37.2381 0.912395Z" fill="#22B700"/>
<path d="M52.5532 54.0945L57.601 62.0645L55.0605 67.0358L49.2829 67.2575L44.2938 59.4026L49.9508 59.1815L52.5532 54.0945Z" fill="#613941"/>
<path d="M39.7582 80.6257L37.9503 84.1702L34.5681 84.2983L29.5327 76.4425L32.8407 76.3161L34.6814 72.7048L39.7582 80.6257Z" fill="#613941"/>
<path d="M58.6116 34.6618L61.3295 47.2051L52.9246 63.6734L47.8071 55.8214L58.6116 34.6618Z" fill="#22B700"/>
<path d="M52.9246 63.6734L34.3656 64.3846L23.9588 56.7402L47.8071 55.8214L52.9246 63.6734Z" fill="#189453"/>
<path d="M25.4631 36.168L41.0568 60.7948L33.1756 76.2365L17.5819 51.6097L25.4631 36.168Z" fill="#2ADC03"/>
<path d="M17.5824 51.611L33.1815 76.2358L15.7642 76.9092L10.1194 67.9786L10.0988 67.9461L12.5902 65.9472L7.44363 63.7551L0.175979 52.2773L17.5824 51.611Z" fill="#22B700"/>
<path d="M25.4664 36.164L17.5824 51.611L0.175979 52.2773L1.99841 48.7084L4.43943 47.4579L3.43807 45.8862L3.44188 45.8685L8.04925 36.8371L25.4664 36.164Z" fill="#22B700"/>
<path d="M41.059 60.7962L43.0425 69.95L36.9087 81.9683L33.1741 76.238L41.059 60.7962Z" fill="#22B700"/>
<path d="M36.9087 81.9683L23.3648 82.4873L15.7701 76.9085L33.1741 76.238L36.9087 81.9683Z" fill="#189453"/>
<path d="M12.8843 13.6187C13.8546 13.5813 14.2853 14.2484 13.846 15.1091C13.4067 15.9697 12.264 16.6978 11.2937 16.7352C10.3235 16.7726 9.89297 16.1052 10.3322 15.2445C10.7715 14.3839 11.9141 13.6561 12.8843 13.6187Z" fill="#177902"/>
<path d="M31.9403 1.47753C32.9106 1.44012 33.3412 2.10727 32.902 2.96792C32.4627 3.82857 31.32 4.55667 30.3497 4.59407C29.3795 4.63147 28.949 3.96402 29.3882 3.10337C29.8275 2.24271 30.9701 1.51493 31.9403 1.47753Z" fill="#177902"/>
<path d="M24.5572 10.517C25.9757 10.4624 26.6052 11.4377 25.9631 12.6959C25.3209 13.9541 23.6503 15.0185 22.2319 15.0731C20.8135 15.1278 20.1841 14.1521 20.8263 12.8939C21.4685 11.6357 23.1388 10.5717 24.5572 10.517Z" fill="#177902"/>
<path d="M10.4984 40.6207C11.387 40.5245 11.736 41.064 11.2778 41.8258C10.8196 42.5877 9.72775 43.2834 8.83924 43.3795C7.95073 43.4757 7.60185 42.936 8.06006 42.1741C8.51826 41.4123 9.60994 40.7169 10.4984 40.6207Z" fill="#177902"/>
<path d="M20.4251 38.8379C21.2102 38.8077 21.5586 39.3475 21.2032 40.0438C20.8478 40.7402 19.9231 41.3294 19.1381 41.3596C18.353 41.3899 18.0047 40.8498 18.3601 40.1534C18.7155 39.457 19.6401 38.8682 20.4251 38.8379Z" fill="#177902"/>
<path d="M15.8463 47.2153C16.3626 47.1954 16.5918 47.5505 16.3581 48.0086C16.1243 48.4666 15.5161 48.8541 14.9997 48.874C14.4833 48.8939 14.2542 48.5387 14.488 48.0806C14.7217 47.6226 15.3299 47.2353 15.8463 47.2153Z" fill="#177902"/>
<path d="M55.3021 29.4531L52.2869 32.8524L52.3487 30.8928L52.3595 30.8859L55.3021 29.4531Z" fill="white"/>
<path d="M55.3021 29.4531L52.2869 32.8524L52.3487 30.8928L52.3595 30.8859L55.3021 29.4531Z" fill="#22B700"/>
<path d="M14.4029 66.7125L10.1194 67.9786L10.0199 68.0116L10.0988 67.9461C10.2002 67.8648 12.7643 65.8095 12.601 65.9404L14.4029 66.7125Z" fill="white"/>
<path d="M14.4029 66.7125L10.1194 67.9786L10.0199 68.0116L10.0988 67.9461C10.2002 67.8648 12.7643 65.8095 12.601 65.9404L14.4029 66.7125Z" fill="#22B700"/>
<path d="M45.6713 14.1013L45.6141 14.1529L45.621 14.1638L42.6526 17.5181L42.725 15.5519L45.6003 14.1312L45.6713 14.1013Z" fill="white"/>
<path d="M45.6713 14.1013L45.621 14.1638L42.6526 17.5181L42.725 15.5519L45.6003 14.1312L45.6713 14.1013Z" fill="#22B700"/>
<path d="M22.8638 1.44512L23.872 3.02765L22.6841 3.95215L22.8599 1.46274L22.8638 1.44512Z" fill="white"/>
<path d="M22.8638 1.44512L23.872 3.02765L22.6841 3.95215L22.8494 1.4694L22.8599 1.46274L22.8638 1.44512Z" fill="#2ADC03"/>
<path d="M12.358 9.37305L11.0179 10.0592L10.0096 8.47668L12.358 9.37305Z" fill="white"/>
<path d="M12.358 9.37305L11.0179 10.0592L10.0096 8.47668L12.358 9.37305Z" fill="#2ADC03"/>
<path d="M5.79003 46.765L4.43943 47.4579L3.42424 45.8645L3.44188 45.8685L5.79003 46.765Z" fill="white"/>
<path d="M5.79003 46.765L4.43943 47.4579L3.42424 45.8645L3.44188 45.8685L5.79003 46.765Z" fill="#2ADC03"/>
</g>
</svg>
