<svg width="46" height="70" viewBox="0 0 46 70" fill="none" xmlns="http://www.w3.org/2000/svg">
<g id="Vector">
<path d="M5.19841 55.1597L5.20256 58.3345C5.20671 58.5597 5.35582 58.7848 5.65004 58.9566L24.4452 69.7407L24.4369 66.5699L5.6459 55.7818C5.34757 55.6099 5.19841 55.3848 5.19841 55.1597Z" fill="#DBE6FA"/>
<path d="M24.4369 66.5699L24.4452 69.7407C25.046 70.0885 26.024 70.0844 26.6289 69.7407L45.5442 58.9566C45.8467 58.7807 46 58.5556 46 58.3263L45.9917 55.1515C45.9917 55.3807 45.8426 55.6099 45.5359 55.7818L26.6206 66.5699C26.0157 66.9136 25.0377 66.9136 24.4369 66.5699Z" fill="#BBCFEF"/>
<path d="M5.19841 53.0955L5.20256 56.2703C5.20671 56.4954 5.35582 56.7205 5.65004 56.8924L24.4452 67.6764L24.4369 64.5056L5.6459 53.7175C5.34757 53.5457 5.19841 53.3206 5.19841 53.0955Z" fill="#F04343"/>
<path d="M24.4369 64.5056L24.4452 67.6764C25.046 68.0242 26.024 68.0202 26.6289 67.6764L45.5442 56.8924C45.8467 56.7164 46 56.4913 46 56.2621L45.9917 53.0873C45.9917 53.3165 45.8426 53.5457 45.5359 53.7175L26.6206 64.5056C26.0157 64.8494 25.0377 64.8494 24.4369 64.5056Z" fill="#E22525"/>
<path d="M5.65215 52.4683C5.04898 52.8123 5.04574 53.3735 5.645 53.7175L24.4375 64.5042C25.0394 64.8497 26.0177 64.8481 26.6209 64.5042L45.5359 53.7175C46.1418 53.3721 46.1453 52.814 45.5434 52.4685L26.7509 41.6818C26.1517 41.3378 25.1734 41.3363 24.5676 41.6818L5.65215 52.4683Z" fill="#FF6161"/>
<path d="M42.3824 52.7538C42.711 52.9412 42.7127 53.2447 42.3863 53.432L26.2427 62.6983C25.9163 62.8857 25.3858 62.8857 25.0572 62.6983L8.808 53.4322C8.47943 53.2448 8.4777 52.9413 8.80413 52.754L24.9478 43.4877C25.2742 43.3003 25.8047 43.3003 26.1332 43.4877L42.3824 52.7538Z" fill="#2ADC03"/>
<path d="M42.3878 53.4345L41.9006 53.7105L26.2444 62.6986C25.9147 62.8826 25.3845 62.8826 25.0549 62.6986L9.29836 53.7105L8.81117 53.4345C8.4815 53.2434 8.47442 52.9391 8.80399 52.7551L24.9475 43.491C25.2771 43.2999 25.8073 43.2999 26.1297 43.491L42.3807 52.7551C42.7103 52.9391 42.7103 53.2434 42.3878 53.4345Z" fill="#E22525"/>
<path d="M41.9006 53.7105L26.2444 62.6986C25.9147 62.8826 25.3845 62.8826 25.0549 62.6986L9.29836 53.7105L24.9475 44.7225C25.2771 44.5384 25.8073 44.5384 26.1297 44.7225L41.9006 53.7105Z" fill="#EBF2FF"/>
<path d="M28.1006 51.3751C29.8326 52.3628 29.8418 53.9694 28.1209 54.9571C26.3959 55.9473 23.5921 55.9448 21.8601 54.9571C20.1238 53.967 20.1146 52.3653 21.8396 51.3752C23.5605 50.3875 26.3643 50.385 28.1006 51.3751Z" fill="#CBDBF4"/>
<path d="M27.7135 15.8851C27.6695 50.8905 27.6892 35.1776 27.6839 39.3953L27.6692 52.9881C27.6692 53.3819 27.4035 53.7757 26.8793 54.0819C25.8235 54.6872 24.1033 54.6872 23.0401 54.0819C22.5084 53.7757 22.2427 53.3746 22.2427 52.9735L22.2575 39.3808C22.2634 34.633 22.2422 51.5796 22.287 15.8706C22.287 17.2698 25.2385 17.9424 26.9309 16.979C27.3449 16.7405 27.7135 16.3602 27.7135 15.8851Z" fill="#804F59"/>
<path d="M26.9166 27.5216C27.9786 28.1272 27.9843 29.1123 26.9291 29.718C25.8713 30.3251 24.1521 30.3236 23.09 29.718C22.0254 29.1108 22.0198 28.1287 23.0775 27.5216C24.1327 26.9159 25.8519 26.9144 26.9166 27.5216Z" fill="#804F59"/>
<path d="M22.891 39.7725L14.2761 44.6886C13.7955 44.9691 13.1798 44.6239 13.1798 44.0658C13.1503 33.9306 13.1605 37.4263 13.1583 36.67C13.1583 35.5023 12.1911 34.554 11.0087 34.554H11.0017C9.81931 34.561 8.8591 35.5094 8.8591 36.6842C8.86351 38.2024 8.84784 32.8151 8.88062 44.0799C8.89223 46.9795 11.3072 49.0411 13.9107 49.0411C14.7705 49.0411 15.6377 48.8146 16.4257 48.3687L22.891 44.6793V39.7725Z" fill="#804F59"/>
<path d="M13.1799 42.4521C12.208 43.2647 10.2111 43.3528 9.02401 42.6715C8.9738 42.6432 8.9236 42.6149 8.88065 42.5795L8.85914 35.658C8.85914 34.4831 9.81927 33.5348 11.0016 33.5277H11.0087C12.191 33.5277 13.1583 34.4761 13.1583 35.6438L13.1799 42.4521Z" fill="#613941"/>
<path d="M27.7135 16.2643L27.6839 39.3953C26.8128 39.4901 25.9195 39.5412 25.0187 39.5412C24.0811 39.5412 23.1582 39.4828 22.2575 39.3808L22.287 16.257C22.6658 16.3506 25.3043 16.5307 27.625 16.2716C27.6545 16.2789 27.6839 16.2716 27.7135 16.2643Z" fill="#613941"/>
<path d="M41.6998 11.0941C41.6806 11.1699 36.6033 31.1512 36.5759 31.2281C36.1329 32.4823 35.0623 33.6782 33.3717 34.6481C28.7647 37.2879 21.2782 37.2879 16.6343 34.6481C15.0839 33.7584 14.0502 32.6865 13.5334 31.5562C13.526 31.5562 13.526 31.5489 13.526 31.5489C13.4522 31.3812 13.3857 31.2062 13.334 31.0384H13.3266C7.33937 7.07414 8.75639 12.7459 8.53502 11.8598C9.23647 13.5589 10.7499 15.1705 13.0683 16.4977C20.2234 20.5709 31.8678 20.1494 38.0229 15.8268C40.0386 14.434 41.2641 12.8005 41.6924 11.0941H41.6998Z" fill="#28AF6E"/>
<path d="M38.0229 15.8268C38.0046 15.8998 34.8514 28.3548 34.8261 28.4278C34.361 29.7258 33.2608 30.9582 31.5111 31.9645C26.457 34.8624 18.1583 34.6556 13.5334 31.5562C13.526 31.5562 13.526 31.5489 13.526 31.5489C13.4522 31.3812 13.3857 31.2062 13.334 31.0384H13.3266C7.33937 7.07414 8.75639 12.7459 8.53502 11.8598C9.23647 13.5589 10.7499 15.1705 13.0683 16.4977C20.2234 20.5709 31.8678 20.1494 38.0229 15.8268Z" fill="#22B700"/>
<path d="M36.9645 16.4977C30.3862 20.2678 19.6882 20.2678 13.0729 16.4977C6.49464 12.7422 6.41343 6.675 12.8736 2.89762L17.8425 3.34973L16.3215 1.33706C23.8871 -1.23052 34.5354 -0.114354 39.5707 4.80818V4.81548H39.5781V6.6896L40.9734 6.56564C42.9743 9.93466 41.6454 13.8068 36.9645 16.4977Z" fill="#2ADC03"/>
<path d="M20.4486 24.9718C20.4301 25.045 17.3585 37.1438 17.3324 37.217C17.063 37.9798 16.4118 38.7072 15.3836 39.2971C11.578 41.4776 4.76703 40.585 3.31821 37.4166C3.31371 37.4166 3.31371 37.4122 3.31371 37.4122C3.26887 37.3102 3.22842 37.2037 3.19696 37.1017H3.19246C-0.451878 22.515 0.413897 25.9803 0.278287 25.4375C2.23918 30.1873 12.9225 31.5651 18.2124 27.8502C19.4383 27.0031 20.1837 26.0097 20.4441 24.9718H20.4486Z" fill="#28AF6E"/>
<path d="M18.2124 27.8502C18.1935 27.9256 16.2942 35.439 16.2682 35.514C14.9842 39.097 7.20384 40.0206 3.31821 37.4166C3.31371 37.4166 3.31371 37.4122 3.31371 37.4122C3.26887 37.3102 3.22842 37.2037 3.19696 37.1017H3.19246C-0.451878 22.515 0.413897 25.9803 0.278287 25.4375C2.23918 30.1873 12.9225 31.5651 18.2124 27.8502Z" fill="#22B700"/>
<path d="M17.5692 28.2601C13.5676 30.5498 7.06314 30.5498 3.03942 28.2601C-0.142712 26.4443 -0.829284 23.7462 0.994306 21.5585L3.21661 21.7554V19.874L3.19444 19.8375C7.21077 17.6498 13.5603 17.6863 17.5249 19.9396C21.5487 22.2367 21.5708 25.963 17.5692 28.2601Z" fill="#2ADC03"/>
<path d="M39.5781 4.81548V6.6896L38.035 6.82815L39.5707 4.81548H39.5781Z" fill="white"/>
<path d="M39.5781 4.81548V6.6896L38.035 6.82815L39.5707 4.81548H39.5781Z" fill="#22B700"/>
<path d="M16.3062 1.32388V3.21051L17.8443 3.34946L16.3062 1.32388Z" fill="#22B700"/>
<path d="M4.75225 21.8939L3.21661 21.7554V19.874L4.75225 21.8939Z" fill="white"/>
<path d="M4.75225 21.8939L3.21661 21.7554V19.874L4.75225 21.8939Z" fill="#22B700"/>
<path d="M33.4697 3.6852C32.8348 4.05711 31.8012 4.05711 31.1588 3.6852C30.5238 3.32058 30.5164 2.72991 31.1515 2.3653C31.7938 2.00069 32.8274 2.00069 33.4624 2.3653C34.1047 2.72991 34.1121 3.32058 33.4697 3.6852Z" fill="#22B700"/>
<path d="M25.4023 4.52581C24.7675 4.89773 23.7338 4.89773 23.0915 4.52581C22.4565 4.1612 22.4491 3.57053 23.0841 3.20592C23.7264 2.84131 24.7601 2.84131 25.395 3.20592C26.0373 3.57053 26.0447 4.1612 25.4023 4.52581Z" fill="#22B700"/>
<path d="M25.8165 11.2538C25.1817 11.6257 24.148 11.6257 23.5057 11.2538C22.8707 10.8892 22.8633 10.2985 23.4983 9.93392C24.1407 9.56931 25.1743 9.56931 25.8092 9.93392C26.4516 10.2985 26.4589 10.8892 25.8165 11.2538Z" fill="#22B700"/>
<path d="M15.6399 22.6892C14.9498 23.0935 13.8261 23.0935 13.1279 22.6892C12.4376 22.2929 12.4295 21.6508 13.1199 21.2544C13.8181 20.8581 14.9417 20.8581 15.632 21.2544C16.3302 21.6508 16.3382 22.2929 15.6399 22.6892Z" fill="#22B700"/>
<path d="M7.7442 27.4217C7.10936 27.7936 6.07572 27.7936 5.43339 27.4217C4.79837 27.0571 4.79098 26.4664 5.426 26.1018C6.06832 25.7372 7.10197 25.7372 7.7369 26.1018C8.37922 26.4664 8.38661 27.0571 7.7442 27.4217Z" fill="#22B700"/>
<path d="M14.5508 26.8977C14.1659 27.1232 13.5392 27.1232 13.1498 26.8977C12.7648 26.6766 12.7603 26.3185 13.1453 26.0975C13.5348 25.8764 14.1614 25.8764 14.5464 26.0975C14.9358 26.3185 14.9403 26.6766 14.5508 26.8977Z" fill="#22B700"/>
<path d="M7.42832 22.3733C7.04343 22.5987 6.41676 22.5987 6.02733 22.3733C5.64233 22.1522 5.63785 21.7941 6.02285 21.573C6.41227 21.352 7.03895 21.352 7.42389 21.573C7.81332 21.7941 7.8178 22.1522 7.42832 22.3733Z" fill="#22B700"/>
<path d="M16.4216 11.2747C15.5536 11.7831 14.1405 11.7831 13.2623 11.2747C12.3941 10.7762 12.384 9.96865 13.2522 9.47016C14.1304 8.97168 15.5435 8.97168 16.4116 9.47016C17.2898 9.96865 17.2999 10.7762 16.4216 11.2747Z" fill="#22B700"/>
<path d="M32.5309 15.3181C31.663 15.8265 30.2498 15.8265 29.3717 15.3181C28.5035 14.8196 28.4934 14.012 29.3616 13.5136C30.2397 13.0151 31.6529 13.0151 32.5209 13.5136C33.3991 14.012 33.4092 14.8196 32.5309 15.3181Z" fill="#22B700"/>
<path d="M20.4486 24.9718L19.9542 35.9812C19.0864 35.7304 18.3438 35.484 17.8344 35.2458L20.4486 24.9718Z" fill="#189453"/>
</g>
</svg>
