<svg width="95" height="90" viewBox="0 0 95 90" fill="none" xmlns="http://www.w3.org/2000/svg">
<g id="Vector">
<path d="M2.73023 52.6493L0.193005 56.7463C0.0180057 57.0399 0.027632 57.4481 0.264726 57.9024L15.5658 86.6745L18.0945 82.5794L2.80195 53.8054C2.55964 53.3478 2.54995 52.9395 2.73023 52.6493Z" fill="#DBE6FA"/>
<path d="M18.0945 82.5794L15.5658 86.6745C16.0524 87.5982 17.3011 88.3665 18.3468 88.4018L51.0734 89.4581C51.5995 89.4705 51.9751 89.3015 52.1586 89.0059L54.6906 84.9056C54.507 85.2012 54.1335 85.3787 53.6054 85.3578L20.8756 84.3067C19.8298 84.2714 18.5843 83.4979 18.0945 82.5794Z" fill="#BBCFEF"/>
<path d="M4.38334 49.9875L1.84612 54.0846C1.67113 54.3781 1.68075 54.7863 1.91785 55.2407L17.2189 84.0128L19.7476 79.9177L4.45507 51.1436C4.21276 50.6861 4.20307 50.2778 4.38334 49.9875Z" fill="#A46EF2"/>
<path d="M19.7476 79.9177L17.2189 84.0128C17.7055 84.9365 18.9542 85.7048 20 85.74L52.7265 86.7964C53.2527 86.8088 53.6282 86.6398 53.8118 86.3442L56.3437 82.2439C56.1601 82.5394 55.7866 82.717 55.2585 82.6961L22.5287 81.6449C21.4829 81.6097 20.2375 80.8362 19.7476 79.9177Z" fill="#9156E5"/>
<path d="M5.46337 49.5377C4.41971 49.5041 3.96616 50.2252 4.4539 51.1428L19.7494 79.9162C20.2393 80.8378 21.4865 81.6097 22.5302 81.6433L55.2585 82.6961C56.3067 82.7298 56.7582 82.013 56.2683 81.0914L40.9727 52.3179C40.485 51.4004 39.2403 50.6247 38.1921 50.5909L5.46337 49.5377Z" fill="white"/>
<path d="M52.014 78.959C52.2824 79.4605 52.0416 79.8532 51.4758 79.8366L23.4947 79.0156C22.9289 78.999 22.2533 78.5793 21.9849 78.0778L8.71073 53.2768C8.44232 52.7753 8.68316 52.3826 9.24895 52.3992L37.23 53.2202C37.7958 53.2368 38.4714 53.6564 38.7398 54.1579L52.014 78.959Z" fill="#2ADC03"/>
<path d="M51.4758 79.841L50.6343 79.8115L23.4967 79.0173C22.9295 78.9938 22.2542 78.5744 21.9818 78.0764L9.11236 54.0235L8.71289 53.2823C8.44607 52.7751 8.68076 52.3771 9.24787 52.4006L37.2271 53.2243C37.7998 53.2387 38.4751 53.6581 38.7327 54.1594L52.0107 78.9593C52.2832 79.4573 52.0395 79.8497 51.4758 79.841Z" fill="#9156E5"/>
<path d="M50.6343 79.8115L23.4967 79.0173C22.9295 78.9938 22.2542 78.5744 21.9818 78.0764L9.11236 54.0235L36.2409 54.8122C36.808 54.8357 37.4833 55.2551 37.7465 55.7474L50.6343 79.8115Z" fill="#FFCA6C"/>
<path d="M34.0504 62.3676C31.9656 61.0727 32.1551 57.9144 34.4568 56.9198L71.9284 40.7254C73.4904 40.0499 75.3031 40.7663 75.9818 42.3326C76.6569 43.8954 75.9376 45.7099 74.3745 46.3853L36.9028 62.5797C35.939 62.9959 34.8799 62.8827 34.0504 62.3676Z" fill="#804F59"/>
<path d="M46.8362 51.5697L34.4568 56.9198C32.1514 57.916 31.9699 61.0754 34.0504 62.3676C34.8799 62.8827 35.939 62.9959 36.9028 62.5797L41.134 60.7511L46.8362 51.5697Z" fill="#613941"/>
<path d="M91.8764 41.8048C87.0983 49.4981 76.9877 51.8493 69.3015 47.0756C64.9064 44.346 62.2443 39.8681 61.6788 35.0936C61.2448 31.5287 61.9822 27.7989 64.0261 24.5078C68.8042 16.8145 78.9078 14.4589 86.594 19.2325C89.4745 21.0215 91.6092 23.5537 92.8997 26.4344L92.9023 26.4458C95.0523 31.2432 94.861 36.9991 91.8764 41.8048Z" fill="#21B500"/>
<path d="M90.5505 37.0386C85.7768 44.7248 75.6664 47.0762 67.9801 42.3025C65.0994 40.5134 62.9693 37.9743 61.6788 35.0936C61.2448 31.5287 61.9822 27.7989 64.0261 24.5078C68.8042 16.8145 78.9078 14.4589 86.594 19.2325C89.4745 21.0215 91.6092 23.5537 92.8997 26.4344L92.9023 26.4458C93.332 30.0178 92.5944 33.7475 90.5505 37.0386Z" fill="#2ADC03"/>
<path d="M32.2867 71.9674C29.2951 71.8756 25.7246 69.6581 24.3075 67.0118C22.8904 64.3655 24.1667 62.2911 27.1495 62.3774C30.1323 62.4637 33.7029 64.6813 35.1288 67.333C36.537 69.9739 35.2695 72.0537 32.2867 71.9674Z" fill="#FFB63C"/>
<path d="M56.4271 31.5984L42.3821 54.1349L33.2721 68.7641C32.2075 70.4782 28.1083 69.0713 26.7976 66.606C26.376 65.824 26.362 65.1257 26.6656 64.6368C57.959 14.4348 47.7375 30.8326 49.8349 27.4679C49.5259 27.9654 49.5452 28.6549 49.9614 29.4457C50.7926 30.9902 52.8878 32.2914 54.6407 32.3518C55.5111 32.3722 56.1289 32.0785 56.4271 31.5984Z" fill="#804F59"/>
<path d="M75.3183 49.3314C75.3183 49.3314 71.6295 48.6751 69.4836 47.1246L81.0014 30.4809C81.0014 30.4809 81.4314 40.0145 75.3183 49.3314Z" fill="#21B500"/>
<path d="M56.4271 31.5984L42.3821 54.1349C40.1736 53.1499 37.8812 51.7553 35.7681 50.0392L49.8349 27.4679C49.5259 27.9654 49.5452 28.6549 49.9614 29.4457C50.7926 30.9902 52.8878 32.2914 54.6407 32.3518C55.5111 32.3722 56.1289 32.0785 56.4271 31.5984Z" fill="#613941"/>
<path d="M77.3528 40.3485C68.3323 54.8726 47.9203 57.1377 35.9205 44.5933C27.8781 36.1404 26.1843 22.9882 32.6467 12.5829C40.3187 0.230096 56.5313 -3.55215 68.8755 4.11441C73.4937 6.98261 76.9212 11.0469 78.9954 15.674L78.9987 15.6881C82.4497 23.3962 82.1457 32.6312 77.3528 40.3485Z" fill="#21B500"/>
<path d="M75.2245 32.6953C67.5614 45.0339 51.3312 48.8085 38.9925 41.1453C34.3683 38.2733 30.9487 34.1973 28.8771 29.573C28.1805 23.8504 29.3642 17.8629 32.6453 12.5798C40.3155 0.229857 56.5346 -3.5517 68.8732 4.11141C73.4973 6.98328 76.924 11.0481 78.9957 15.6725L78.9999 15.6908C79.6896 21.4249 78.5057 27.4122 75.2245 32.6953Z" fill="#2ADC03"/>
<path d="M32.516 61.4111C31.9573 61.0641 31.4982 60.5371 31.2513 59.8635L25.3378 43.8879L21.0118 32.2128C20.4213 30.6121 21.2397 28.8461 22.8317 28.2501C24.4324 27.6596 26.2038 28.4694 26.7944 30.0701L31.239 42.0608L37.0338 57.7208C38.0483 60.4704 35.0014 62.9547 32.516 61.4111Z" fill="#804F59"/>
<path d="M35.9205 44.5933C30.4094 38.8009 28.026 30.9561 28.8392 23.622L38.4872 25.8519C38.4872 25.8519 39.3487 33.9114 35.9205 44.5933Z" fill="#189453"/>
<path d="M31.239 42.0608C29.3691 42.968 27.3784 43.5826 25.3378 43.8879L21.0118 32.2128C20.4213 30.6121 21.2397 28.8461 22.8317 28.2501C24.4324 27.6596 26.2038 28.4694 26.7944 30.0701L31.239 42.0608Z" fill="#613941"/>
<path d="M36.1683 32.2893C31.3903 39.9826 21.2796 42.3338 13.5934 37.5601C5.87587 32.767 3.5649 22.6456 8.3181 14.9923C13.0962 7.29905 23.1997 4.94337 30.8859 9.71704C38.5579 14.4819 40.9529 24.5854 36.1683 32.2893Z" fill="#21B500"/>
<path d="M34.8424 27.5231C30.0688 35.2093 19.9583 37.5607 12.272 32.787C9.3914 30.9979 7.26121 28.4588 5.97073 25.5781C5.53676 22.0133 6.27414 18.2834 8.3181 14.9923C13.0962 7.29905 23.1997 4.94337 30.8859 9.71704C35.4552 12.5549 36.8889 16.4471 37.1943 16.9303C37.6239 20.5023 36.8864 24.2321 34.8424 27.5231Z" fill="#2ADC03"/>
<path d="M86.6088 31.1711C87.3007 31.6008 88.2903 31.2589 88.8191 30.4075C89.3479 29.556 89.2157 28.5174 88.5238 28.0877C87.832 27.658 86.8424 27.9999 86.3136 28.8514C85.7848 29.7028 85.9169 30.7414 86.6088 31.1711Z" fill="#21B500"/>
<path d="M69.3947 31.6107C70.4039 32.2374 71.8472 31.7387 72.6186 30.4967C73.3899 29.2547 73.1972 27.7398 72.1881 27.113C71.179 26.4863 69.7356 26.9851 68.9642 28.2271C68.1929 29.4691 68.3856 30.984 69.3947 31.6107Z" fill="#21B500"/>
<path d="M49.1026 41.4629C50.1117 42.0897 51.5551 41.5909 52.3265 40.3489C53.0978 39.1069 52.9051 37.592 51.896 36.9653C50.8869 36.3385 49.4435 36.8373 48.6721 38.0793C47.9008 39.3213 48.0935 40.8362 49.1026 41.4629Z" fill="#21B500"/>
<path d="M53.468 24.8353C54.4771 25.4621 55.9204 24.9633 56.6918 23.7213C57.4632 22.4793 57.2704 20.9644 56.2613 20.3377C55.2522 19.7109 53.8088 20.2097 53.0375 21.4517C52.2661 22.6937 52.4588 24.2086 53.468 24.8353Z" fill="#21B500"/>
<path d="M70.4687 19.0106C71.4779 19.6374 72.9212 19.1386 73.6926 17.8966C74.464 16.6546 74.2712 15.1397 73.2621 14.513C72.253 13.8862 70.8096 14.385 70.0383 15.627C69.2669 16.869 69.4596 18.3839 70.4687 19.0106Z" fill="#21B500"/>
<path d="M40.452 15.6579C41.4611 16.2847 42.9045 15.7859 43.6759 14.5439C44.4472 13.3019 44.2545 11.787 43.2454 11.1603C42.2363 10.5335 40.7929 11.0323 40.0215 12.2743C39.2502 13.5163 39.4429 15.0312 40.452 15.6579Z" fill="#21B500"/>
<path d="M55.9999 11.6564C57.009 12.2831 58.4524 11.7844 59.2238 10.5424C59.9951 9.30039 59.8024 7.78548 58.7933 7.15875C57.7842 6.53202 56.3408 7.03078 55.5694 8.27278C54.7981 9.51477 54.9908 11.0297 55.9999 11.6564Z" fill="#21B500"/>
<path d="M22.0563 14.6402C23.0654 15.2669 24.5087 14.7682 25.2801 13.5262C26.0515 12.2842 25.8587 10.7693 24.8496 10.1426C23.8405 9.51582 22.3971 10.0146 21.6258 11.2566C20.8544 12.4986 21.0471 14.0135 22.0563 14.6402Z" fill="#21B500"/>
<path d="M26.1549 29.1863C27.1641 29.813 28.6074 29.3143 29.3788 28.0723C30.1502 26.8303 29.9574 25.3154 28.9483 24.6886C27.9392 24.0619 26.4958 24.5607 25.7245 25.8027C24.9531 27.0447 25.1458 28.5596 26.1549 29.1863Z" fill="#21B500"/>
<path d="M10.6036 25.9963C11.6127 26.623 13.0561 26.1242 13.8274 24.8822C14.5988 23.6402 14.4061 22.1253 13.3969 21.4986C12.3878 20.8719 10.9444 21.3706 10.1731 22.6126C9.40171 23.8546 9.59445 25.3695 10.6036 25.9963Z" fill="#21B500"/>
</g>
</svg>
