<svg width="110" height="117" viewBox="0 0 110 117" fill="none" xmlns="http://www.w3.org/2000/svg">
<g id="Vector">
<path d="M40.9349 109.898L43.9651 115.114C44.1861 115.48 44.6392 115.712 45.2738 115.722L85.6304 116.022L82.5974 110.817L42.2437 110.506C41.6025 110.5 41.1493 110.268 40.9349 109.898Z" fill="#804F59"/>
<path d="M82.5974 110.817L85.6304 116.022C86.9233 116.037 88.4849 115.123 89.1259 113.997L109.135 78.7281C109.451 78.1583 109.482 77.6461 109.264 77.2693L106.227 72.0576C106.446 72.4344 106.425 72.9495 106.098 73.5164L86.093 108.792C85.452 109.918 83.8866 110.825 82.5974 110.817Z" fill="#613941"/>
<path d="M38.9691 106.505L41.9992 111.72C42.2202 112.086 42.6733 112.318 43.308 112.328L83.6645 112.628L80.6316 107.423L40.2778 107.112C39.6366 107.107 39.1835 106.875 38.9691 106.505Z" fill="#DBDFE6"/>
<path d="M80.6316 107.423L83.6645 112.628C84.9575 112.643 86.5191 111.729 87.16 110.603L107.169 75.3345C107.486 74.7647 107.517 74.2525 107.298 73.8757L104.262 68.664C104.48 69.0408 104.459 69.5559 104.132 70.1228L84.1271 105.398C83.4861 106.524 81.9207 107.431 80.6316 107.423Z" fill="#CCD0D9"/>
<path d="M39.0981 105.053C38.4601 106.178 38.9894 107.103 40.2762 107.113L80.6311 107.42C81.9236 107.43 83.4882 106.52 84.1262 105.396L104.132 70.1228C104.773 68.993 104.247 68.0723 102.955 68.0624L62.5998 67.7553C61.313 67.7455 59.7456 68.6501 59.1048 69.7799L39.0981 105.053Z" fill="#EBEEF4"/>
<path d="M98.1663 71.4626C98.8707 71.466 99.1626 71.9633 98.8185 72.574L81.801 102.778C81.4569 103.388 80.6077 103.88 79.9033 103.877L45.0677 103.711C44.3633 103.708 44.0715 103.21 44.4156 102.6L61.4332 72.3962C61.7773 71.7855 62.6264 71.2936 63.3308 71.2969L98.1663 71.4626Z" fill="#2ADC03"/>
<path d="M98.8233 72.5767L98.3062 73.4822L81.804 102.776C81.4515 103.385 80.6027 103.876 79.8999 103.879L46.1177 103.714L45.075 103.712C44.3653 103.704 44.0642 103.21 44.4165 102.602L61.4359 72.4019C61.7816 71.7822 62.6303 71.2905 63.3284 71.3056L98.1648 71.4664C98.8677 71.4632 99.1575 71.9635 98.8233 72.5767Z" fill="#D68900"/>
<path d="M98.3062 73.4822L81.804 102.776C81.4515 103.385 80.6027 103.876 79.8999 103.879L46.1177 103.714L62.6087 74.4264C62.961 73.8183 63.8098 73.3266 64.5011 73.3301L98.3062 73.4822Z" fill="#FFCA6C"/>
<path d="M75.1206 83.4385C78.4016 83.4541 79.7665 85.7803 78.1636 88.6252C76.5569 91.4769 72.5889 93.7708 69.3079 93.7552C66.0188 93.7395 64.6581 91.4203 66.2649 88.5686C67.8677 85.7237 71.8315 83.4228 75.1206 83.4385Z" fill="#FFA20D"/>
<path d="M40.7255 23.834L64.5493 65.0962L71.9474 77.8947L75.9704 84.8668C76.3454 85.5142 76.3067 86.4013 75.7593 87.3908C74.6339 89.3717 71.8919 90.9601 69.6137 90.9508C68.4593 90.9471 67.6518 90.5342 67.2698 89.8749L63.3232 83.0346L55.9043 70.2002L32.0064 28.8367C32.3883 29.496 33.2074 29.9022 34.35 29.9128C36.6285 29.9219 39.382 28.3268 40.4958 26.3527C41.0502 25.375 41.1005 24.4813 40.7255 23.834Z" fill="#804F59"/>
<path d="M28.4171 13.1282L23.3612 4.47663L70.3909 4.70032L59.7187 13.277L28.4171 13.1282Z" fill="#2ADC03"/>
<path d="M13.126 40.2676L0.386721 45.2529L23.3612 4.47663L28.4171 13.1282L13.126 40.2676Z" fill="#21B500"/>
<path d="M64.5493 65.0962L71.9474 77.8947L69.0343 83.0567L61.6526 70.2326L64.5493 65.0962Z" fill="#613941"/>
<path d="M61.6526 70.2326L69.0343 83.0567L63.3232 83.0346L55.9043 70.2002L61.6526 70.2326Z" fill="#613941"/>
<path d="M75.0487 39.8316L82.431 52.6582L67.1399 79.7976L59.7576 66.9711L75.0487 39.8316Z" fill="#22B700"/>
<path d="M59.7576 66.9711L67.1399 79.7976L35.8384 79.6487L28.456 66.8222L59.7576 66.9711Z" fill="#198500"/>
<path d="M52.3363 0.450501L59.7187 13.277L44.4276 40.4165L37.0452 27.5899L52.3363 0.450501Z" fill="#21B500"/>
<path d="M37.0452 27.5899L44.4276 40.4165L13.126 40.2676L5.74364 27.4411L37.0452 27.5899Z" fill="#22B700"/>
<path d="M52.3364 0.443092L37.044 27.5866L5.7362 27.4377L7.85841 23.6625L12.9559 21.3181L9.92073 20.0022L21.0355 0.306133L32.7092 0.348608L34.0634 2.68636L37.315 0.370528L52.3364 0.443092Z" fill="#2ADC03"/>
<path d="M47.4242 45.4785L63.9836 74.201L16.9609 73.981L14.4934 69.6943L17.5665 68.9229L12.7017 66.6013L9.29678 60.6961L9.3271 60.6946C10.6096 59.7503 13.2638 57.7961 13.1004 57.9164L5.64181 54.3594L0.382372 45.2535L47.4242 45.4785Z" fill="#22B700"/>
<path d="M78.7421 19.1869L78.4442 23.2502L80.5547 22.3158L86.9618 33.4308L63.9836 74.201L47.4242 45.4785L70.3954 4.69628L78.7421 19.1869Z" fill="#2AE600"/>
<path d="M59.7187 13.277L70.3909 4.70032L47.4165 45.4766L44.4276 40.4165L59.7187 13.277Z" fill="#1C9900"/>
<path d="M44.4276 40.4165L47.4165 45.4766L0.386721 45.2529L13.126 40.2676L44.4276 40.4165Z" fill="#2ADC03"/>
<path d="M32.7162 0.360603L34.0634 2.68636L32.312 3.94112L32.7162 0.360603Z" fill="white"/>
<path d="M32.7162 0.360603L34.0634 2.68636L32.312 3.94112L32.7162 0.360603Z" fill="#21B500"/>
<path d="M9.91375 20.0042L11.1567 22.1498L12.9515 21.3212L9.91375 20.0042Z" fill="#21B500"/>
<path d="M80.5547 22.3158L78.3282 24.6304L78.4442 23.2502L80.5547 22.3158Z" fill="white"/>
<path d="M80.5547 22.3158L78.3282 24.6304L78.4442 23.2502L80.5547 22.3158Z" fill="#22B700"/>
<path d="M14.4448 69.7052L17.5662 68.9199L16.3161 68.324L14.4448 69.7052Z" fill="#189453"/>
<path d="M15.6122 59.1191L9.33922 60.6876L13.1004 57.9164L15.6122 59.1191Z" fill="white"/>
<path d="M15.6122 59.1191L9.33922 60.6876L13.1004 57.9164L15.6122 59.1191Z" fill="#189453"/>
<path d="M29.1437 12.3688C30.1196 12.3734 30.5241 13.0634 30.0473 13.9096C29.5706 14.7557 28.393 15.4379 27.417 15.4332C26.4411 15.4286 26.0365 14.7389 26.5132 13.8927C26.99 13.0466 28.1677 12.3641 29.1437 12.3688Z" fill="#21B500"/>
<path d="M19.1019 20.13C20.0778 20.1346 20.4823 20.8246 20.0056 21.6707C19.5288 22.5169 18.3512 23.1991 17.3753 23.1944C16.3994 23.1898 15.9947 22.5001 16.4715 21.6539C16.9482 20.8078 18.126 20.1253 19.1019 20.13Z" fill="#21B500"/>
<path d="M25.333 3.12593C26.417 3.13109 26.8664 3.89747 26.3368 4.83735C25.8073 5.77723 24.4992 6.53495 23.4152 6.5298C22.3312 6.52464 21.8817 5.75856 22.4113 4.81868C22.9408 3.8788 24.249 3.12078 25.333 3.12593Z" fill="#21B500"/>
<path d="M41.657 3.78572C43.0988 3.79258 43.6964 4.81196 42.9921 6.06208C42.2877 7.31221 40.5479 8.32006 39.1061 8.3132C37.6642 8.30634 37.0664 7.28737 37.7707 6.03725C38.4751 4.78712 40.2151 3.77887 41.657 3.78572Z" fill="#21B500"/>
<path d="M35.1874 16.7986C36.7171 16.8058 37.3512 17.8873 36.6039 19.2136C35.8566 20.5399 34.0108 21.6092 32.4811 21.6019C30.9514 21.5946 30.3171 20.5136 31.0644 19.1873C31.8116 17.861 33.6577 16.7913 35.1874 16.7986Z" fill="#21B500"/>
</g>
</svg>
